# https://github.com/mikedh/trimesh

o v3_part1_elbow.obj
v -7.07095098 -13.22881889 -9.00000000
v -8.33355331 -12.47204399 -9.00000000
v -9.51589966 -11.59515667 -9.00000000
v -4.35426998 -14.35410500 -9.00000000
v -2.92635489 -14.71177959 -9.00000000
v -5.74025154 -13.85819340 -9.00000000
v -1.47025716 -14.92777061 -9.00000000
v 0.00000000 -15.00000000 -9.00000000
v -11.59515667 -9.51589966 -9.00000000
v -10.60660172 -10.60660172 -9.00000000
v -12.47204399 -8.33355331 -9.00000000
v -7.07095098 -13.22881889 -0.50000000
v -8.33355331 -12.47204399 -0.50000000
v -9.51589966 -11.59515667 -0.50000000
v -4.35426998 -14.35410500 -0.50000000
v -2.92635489 -14.71177959 -0.50000000
v -5.74025154 -13.85819340 -0.50000000
v -1.47025716 -14.92777061 -0.50000000
v -0.00000000 -15.00000000 -0.50000000
v 1.37574673 -13.96819019 -0.50000000
v -11.59515667 -9.51589966 -0.50000000
v -10.60660172 -10.60660172 -0.50000000
v -12.47204399 -8.33355331 -0.50000000
v -13.22881889 -7.07095098 -9.00000000
v -13.85819340 -5.74025154 -9.00000000
v -14.35410500 -4.35426998 -9.00000000
v -14.71177959 -2.92635489 -9.00000000
v -14.92777061 -1.47025716 -9.00000000
v -0.86103773 -2.07872891 -9.00000000
v -1.06064260 -1.98432279 -9.00000000
v -0.65314054 -2.15311575 -9.00000000
v -0.43895322 -2.20676684 -9.00000000
v -0.22053857 -2.23916554 -9.00000000
v 0.00000000 -2.25000000 -9.00000000
v 0.22053857 -2.23916554 -9.00000000
v 0.43895322 -2.20676684 -9.00000000
v 0.65314054 -2.15311575 -9.00000000
v 0.86103773 -2.07872891 -9.00000000
v 1.06064260 -1.98432279 -9.00000000
v -1.98432279 -1.06064260 -9.00000000
v -2.07872891 -0.86103773 -9.00000000
v -2.15311575 -0.65314054 -9.00000000
v -2.20676684 -0.43895322 -9.00000000
v -2.23916554 -0.22053857 -9.00000000
v -1.42738485 -1.73927355 -9.00000000
v -1.25003302 -1.87080657 -9.00000000
v -1.59099030 -1.59099030 -9.00000000
v -1.73927355 -1.42738485 -9.00000000
v -1.87080657 -1.25003302 -9.00000000
v 1.25003302 -1.87080657 -9.00000000
v 1.42738485 -1.73927355 -9.00000000
v 1.59099030 -1.59099030 -9.00000000
v 1.73927355 -1.42738485 -9.00000000
v 1.87080657 -1.25003302 -9.00000000
v 1.98432279 -1.06064260 -9.00000000
v 2.07872891 -0.86103773 -9.00000000
v 2.15311575 -0.65314054 -9.00000000
v 2.20676684 -0.43895322 -9.00000000
v 2.23916554 -0.22053857 -9.00000000
v -13.22881889 -7.07095098 -0.50000000
v -13.85819340 -5.74025154 -0.50000000
v -14.35410500 -4.35426998 -0.50000000
v -14.71177959 -2.92635489 -0.50000000
v -14.92777061 -1.47025716 -0.50000000
v -0.86103773 -2.07872891 -0.50000000
v -1.06064260 -1.98432279 -0.50000000
v -0.65314054 -2.15311575 -0.50000000
v -0.43895322 -2.20676684 -0.50000000
v -0.22053857 -2.23916554 -0.50000000
v -0.00000000 -2.25000000 -0.50000000
v 0.22053857 -2.23916554 -0.50000000
v 0.43895322 -2.20676684 -0.50000000
v 0.65314054 -2.15311575 -0.50000000
v 0.86103773 -2.07872891 -0.50000000
v 1.06064260 -1.98432279 -0.50000000
v -1.98432279 -1.06064260 -0.50000000
v -2.07872891 -0.86103773 -0.50000000
v -2.15311575 -0.65314054 -0.50000000
v -2.20676684 -0.43895322 -0.50000000
v -2.23916554 -0.22053857 -0.50000000
v -1.42738485 -1.73927355 -0.50000000
v -1.25003302 -1.87080657 -0.50000000
v -1.59099030 -1.59099030 -0.50000000
v -1.73927355 -1.42738485 -0.50000000
v -1.87080657 -1.25003302 -0.50000000
v 1.25003302 -1.87080657 -0.50000000
v 1.42738485 -1.73927355 -0.50000000
v 1.59099030 -1.59099030 -0.50000000
v 1.73927355 -1.42738485 -0.50000000
v 1.87080657 -1.25003302 -0.50000000
v 1.98432279 -1.06064260 -0.50000000
v 2.07872891 -0.86103773 -0.50000000
v 2.15311575 -0.65314054 -0.50000000
v 2.20676684 -0.43895322 -0.50000000
v 2.23916554 -0.22053857 -0.50000000
v 40.00000000 -15.00000000 -9.00000000
v 40.00000000 -15.00000000 -0.50000000
v 40.00000000 -15.00000000 9.00000000
v 45.00000000 -8.00000000 9.00000000
v 45.00000000 -8.00000000 12.00000000
v -15.00000000 0.00000000 -9.00000000
v -14.92777061 1.47025716 -9.00000000
v -14.71177959 2.92635489 -9.00000000
v -2.25000000 0.00000000 -9.00000000
v -2.23916554 0.22053857 -9.00000000
v -2.20676684 0.43895322 -9.00000000
v -2.15311575 0.65314054 -9.00000000
v -2.07872891 0.86103773 -9.00000000
v -1.98432279 1.06064260 -9.00000000
v 2.25000000 0.00000000 -9.00000000
v 2.23916554 0.22053857 -9.00000000
v 2.20676684 0.43895322 -9.00000000
v 2.15311575 0.65314054 -9.00000000
v 2.07872891 0.86103773 -9.00000000
v -1.87080657 1.25003302 -9.00000000
v -1.73927355 1.42738485 -9.00000000
v -1.59099030 1.59099030 -9.00000000
v -1.42738485 1.73927355 -9.00000000
v -1.25003302 1.87080657 -9.00000000
v 1.98432279 1.06064260 -9.00000000
v 1.87080657 1.25003302 -9.00000000
v 1.25003302 1.87080657 -9.00000000
v 1.73927355 1.42738485 -9.00000000
v 1.59099030 1.59099030 -9.00000000
v 1.42738485 1.73927355 -9.00000000
v -1.06064260 1.98432279 -9.00000000
v -0.86103773 2.07872891 -9.00000000
v -0.65314054 2.15311575 -9.00000000
v -0.43895322 2.20676684 -9.00000000
v -0.22053857 2.23916554 -9.00000000
v 0.00000000 2.25000000 -9.00000000
v 0.22053857 2.23916554 -9.00000000
v 1.06064260 1.98432279 -9.00000000
v 0.86103773 2.07872891 -9.00000000
v 0.43895322 2.20676684 -9.00000000
v 0.65314054 2.15311575 -9.00000000
v -14.35410500 4.35426998 -9.00000000
v -13.85819340 5.74025154 -9.00000000
v -13.22881889 7.07095098 -9.00000000
v -15.00000000 0.00000000 -0.50000000
v -14.92777061 1.47025716 -0.50000000
v -14.71177959 2.92635489 -0.50000000
v -2.25000000 0.00000000 -0.50000000
v -2.23916554 0.22053857 -0.50000000
v -2.20676684 0.43895322 -0.50000000
v -2.15311575 0.65314054 -0.50000000
v -2.07872891 0.86103773 -0.50000000
v -1.98432279 1.06064260 -0.50000000
v 2.25000000 0.00000000 -0.50000000
v 2.23916554 0.22053857 -0.50000000
v 2.20676684 0.43895322 -0.50000000
v 2.15311575 0.65314054 -0.50000000
v 2.07872891 0.86103773 -0.50000000
v -1.87080657 1.25003302 -0.50000000
v -1.73927355 1.42738485 -0.50000000
v -1.59099030 1.59099030 -0.50000000
v -1.42738485 1.73927355 -0.50000000
v -1.25003302 1.87080657 -0.50000000
v 1.98432279 1.06064260 -0.50000000
v 1.87080657 1.25003302 -0.50000000
v 1.25003302 1.87080657 -0.50000000
v 1.73927355 1.42738485 -0.50000000
v 1.59099030 1.59099030 -0.50000000
v 1.42738485 1.73927355 -0.50000000
v -1.06064260 1.98432279 -0.50000000
v -0.86103773 2.07872891 -0.50000000
v -0.65314054 2.15311575 -0.50000000
v -0.43895322 2.20676684 -0.50000000
v -0.22053857 2.23916554 -0.50000000
v 0.00000000 2.25000000 -0.50000000
v 0.22053857 2.23916554 -0.50000000
v 1.06064260 1.98432279 -0.50000000
v 0.86103773 2.07872891 -0.50000000
v 0.43895322 2.20676684 -0.50000000
v 0.65314054 2.15311575 -0.50000000
v -14.35410500 4.35426998 -0.50000000
v -13.85819340 5.74025154 -0.50000000
v -13.22881889 7.07095098 -0.50000000
v -12.47204399 8.33355331 -9.00000000
v -11.59515667 9.51589966 -9.00000000
v -10.60660172 10.60660172 -9.00000000
v -9.51589966 11.59515667 -9.00000000
v -8.33355331 12.47204399 -9.00000000
v -7.07095098 13.22881889 -9.00000000
v -5.74025154 13.85819340 -9.00000000
v -4.35426998 14.35410500 -9.00000000
v -2.92635489 14.71177959 -9.00000000
v -1.47025716 14.92777061 -9.00000000
v 0.00000000 15.00000000 -9.00000000
v -12.47204399 8.33355331 -0.50000000
v -11.59515667 9.51589966 -0.50000000
v -10.60660172 10.60660172 -0.50000000
v -9.51589966 11.59515667 -0.50000000
v -8.33355331 12.47204399 -0.50000000
v -7.07095098 13.22881889 -0.50000000
v -5.74025154 13.85819340 -0.50000000
v -4.35426998 14.35410500 -0.50000000
v -2.92635489 14.71177959 -0.50000000
v -1.47025716 14.92777061 -0.50000000
v 0.00000000 15.00000000 -0.50000000
v 40.00000000 15.00000000 -9.00000000
v 40.00000000 15.00000000 -0.50000000
v 45.00000000 0.00000000 9.00000000
v 45.00000000 0.00000000 12.00000000
v 40.00000000 15.00000000 9.00000000
v 70.00000000 -15.00000000 -9.00000000
v 70.00000000 -15.00000000 9.00000000
v 56.00000000 -8.00000000 9.00000000
v 56.00000000 -8.00000000 12.00000000
v 70.00000000 0.50000000 -9.00000000
v 70.00000000 15.00000000 -9.00000000
v 102.92904663 0.50000000 -13.22881889
v 107.07364655 0.50000000 -14.71177959
v 105.64572906 0.50000000 -14.35410500
v 104.25975037 0.50000000 -13.85819340
v 101.66644287 0.50000000 -12.47204399
v 100.48410034 0.50000000 -11.59515667
v 98.40484619 0.50000000 -9.51589966
v 98.02222443 0.50000000 -9.00000000
v 99.39339447 0.50000000 -10.60660172
v 108.52973938 0.50000000 -14.92777061
v 110.00000000 0.50000000 -15.00000000
v 111.47026062 0.50000000 -14.92777061
v 112.92635345 0.50000000 -14.71177959
v 114.35427094 0.50000000 -14.35410500
v 115.74024963 0.50000000 -13.85819340
v 117.07095337 0.50000000 -13.22881889
v 118.33355713 0.50000000 -12.47204399
v 119.51589966 0.50000000 -11.59515667
v 110.00000000 0.50000000 -9.00000000
v 120.60660553 0.50000000 -10.60660172
v 121.59515381 0.50000000 -9.51589966
v 122.47204590 0.50000000 -8.33355331
v 123.22882080 0.50000000 -7.07095098
v 123.85819244 0.50000000 -5.74025154
v 124.35410309 0.50000000 -4.35426998
v 109.34686279 0.50000000 -2.15311575
v 109.56105042 0.50000000 -2.20676684
v 109.13896179 0.50000000 -2.07872891
v 108.93935394 0.50000000 -1.98432279
v 109.77946472 0.50000000 -2.23916554
v 110.00000000 0.50000000 -2.25000000
v 110.22053528 0.50000000 -2.23916554
v 110.43894958 0.50000000 -2.20676684
v 110.65313721 0.50000000 -2.15311575
v 110.86103821 0.50000000 -2.07872891
v 111.06064606 0.50000000 -1.98432279
v 108.57261658 0.50000000 -1.73927355
v 108.40901184 0.50000000 -1.59099030
v 108.26072693 0.50000000 -1.42738485
v 108.74996948 0.50000000 -1.87080657
v 108.12919617 0.50000000 -1.25003302
v 108.01567841 0.50000000 -1.06064260
v 111.25003052 0.50000000 -1.87080657
v 111.42738342 0.50000000 -1.73927355
v 111.59098816 0.50000000 -1.59099030
v 111.73927307 0.50000000 -1.42738485
v 111.87080383 0.50000000 -1.25003302
v 107.92127228 0.50000000 -0.86103773
v 107.84688568 0.50000000 -0.65314054
v 107.79323578 0.50000000 -0.43895322
v 107.76083374 0.50000000 -0.22053857
v 111.98432159 0.50000000 -1.06064260
v 112.07872772 0.50000000 -0.86103773
v 112.15311432 0.50000000 -0.65314054
v 112.20676422 0.50000000 -0.43895322
v 112.23916626 0.50000000 -0.22053857
v 124.71177673 0.50000000 -2.92635489
v 124.92777252 0.50000000 -1.47025716
v 102.92904663 15.00000000 -13.22881889
v 107.07364655 15.00000000 -14.71177959
v 105.64572906 15.00000000 -14.35410500
v 104.25975037 15.00000000 -13.85819340
v 101.66644287 15.00000000 -12.47204399
v 100.48410034 15.00000000 -11.59515667
v 98.40484619 15.00000000 -9.51589966
v 98.02222443 15.00000000 -9.00000000
v 99.39339447 15.00000000 -10.60660172
v 108.52973938 15.00000000 -14.92777061
v 110.00000000 15.00000000 -15.00000000
v 111.47026062 15.00000000 -14.92777061
v 112.92635345 15.00000000 -14.71177959
v 114.35427094 15.00000000 -14.35410500
v 115.74024963 15.00000000 -13.85819340
v 117.07095337 15.00000000 -13.22881889
v 118.33355713 15.00000000 -12.47204399
v 119.51589966 15.00000000 -11.59515667
v 110.00000000 15.00000000 -9.00000000
v 120.60660553 15.00000000 -10.60660172
v 121.59515381 15.00000000 -9.51589966
v 122.47204590 15.00000000 -8.33355331
v 123.22882080 15.00000000 -7.07095098
v 123.85819244 15.00000000 -5.74025154
v 124.35410309 15.00000000 -4.35426998
v 109.34686279 15.00000000 -2.15311575
v 109.56105042 15.00000000 -2.20676684
v 109.13896179 15.00000000 -2.07872891
v 108.93935394 15.00000000 -1.98432279
v 109.77946472 15.00000000 -2.23916554
v 110.00000000 15.00000000 -2.25000000
v 110.22053528 15.00000000 -2.23916554
v 110.43894958 15.00000000 -2.20676684
v 110.65313721 15.00000000 -2.15311575
v 110.86103821 15.00000000 -2.07872891
v 111.06064606 15.00000000 -1.98432279
v 108.57261658 15.00000000 -1.73927355
v 108.40901184 15.00000000 -1.59099030
v 108.26072693 15.00000000 -1.42738485
v 108.74996948 15.00000000 -1.87080657
v 108.12919617 15.00000000 -1.25003302
v 108.01567841 15.00000000 -1.06064260
v 111.25003052 15.00000000 -1.87080657
v 111.42738342 15.00000000 -1.73927355
v 111.59098816 15.00000000 -1.59099030
v 111.73927307 15.00000000 -1.42738485
v 111.87080383 15.00000000 -1.25003302
v 107.92127228 15.00000000 -0.86103773
v 107.84688568 15.00000000 -0.65314054
v 107.79323578 15.00000000 -0.43895322
v 107.76083374 15.00000000 -0.22053857
v 111.98432159 15.00000000 -1.06064260
v 112.07872772 15.00000000 -0.86103773
v 112.15311432 15.00000000 -0.65314054
v 112.20676422 15.00000000 -0.43895322
v 112.23916626 15.00000000 -0.22053857
v 112.25000000 15.00000000 -0.00000000
v 124.71177673 15.00000000 -2.92635489
v 124.92777252 15.00000000 -1.47025716
v 56.00000000 0.00000000 9.00000000
v 70.00000000 0.50000000 9.00000000
v 56.00000000 0.00000000 12.00000000
v 59.00000000 4.00000000 9.00000000
v 67.00000000 4.00000000 9.00000000
v 59.00000000 4.00000000 12.00000000
v 67.00000000 4.00000000 12.00000000
v 59.00000000 12.00000000 9.00000000
v 67.00000000 12.00000000 9.00000000
v 70.00000000 15.00000000 9.00000000
v 59.00000000 12.00000000 12.00000000
v 67.00000000 12.00000000 12.00000000
v 107.75000000 0.50000000 0.00000000
v 107.76083374 0.50000000 0.22053857
v 107.79323578 0.50000000 0.43895322
v 107.84688568 0.50000000 0.65314054
v 107.92127228 0.50000000 0.86103773
v 108.01567841 0.50000000 1.06064260
v 108.12919617 0.50000000 1.25003302
v 108.26072693 0.50000000 1.42738485
v 108.40901184 0.50000000 1.59099030
v 108.57261658 0.50000000 1.73927355
v 108.74996948 0.50000000 1.87080657
v 111.87080383 0.50000000 1.25003302
v 111.73927307 0.50000000 1.42738485
v 111.59098816 0.50000000 1.59099030
v 111.25003052 0.50000000 1.87080657
v 111.42738342 0.50000000 1.73927355
v 112.25000000 0.50000000 -0.00000000
v 112.23916626 0.50000000 0.22053857
v 112.20676422 0.50000000 0.43895322
v 112.15311432 0.50000000 0.65314054
v 112.07872772 0.50000000 0.86103773
v 111.98432159 0.50000000 1.06064260
v 108.93935394 0.50000000 1.98432279
v 109.13896179 0.50000000 2.07872891
v 109.34686279 0.50000000 2.15311575
v 109.56105042 0.50000000 2.20676684
v 109.77946472 0.50000000 2.23916554
v 110.00000000 0.50000000 2.25000000
v 110.22053528 0.50000000 2.23916554
v 110.43894958 0.50000000 2.20676684
v 110.65313721 0.50000000 2.15311575
v 111.06064606 0.50000000 1.98432279
v 110.86103821 0.50000000 2.07872891
v 125.00000000 0.50000000 0.00000000
v 124.92777252 0.50000000 1.47025716
v 124.71177673 0.50000000 2.92635489
v 124.35410309 0.50000000 4.35426998
v 123.85819244 0.50000000 5.74025154
v 123.22882080 0.50000000 7.07095098
v 98.02222443 0.50000000 9.00000000
v 98.40484619 0.50000000 9.51589966
v 99.39339447 0.50000000 10.60660172
v 100.48410034 0.50000000 11.59515667
v 101.66644287 0.50000000 12.47204399
v 102.92904663 0.50000000 13.22881889
v 104.25975037 0.50000000 13.85819340
v 105.64572906 0.50000000 14.35410500
v 107.07364655 0.50000000 14.71177959
v 110.00000000 0.50000000 9.00000000
v 122.47204590 0.50000000 8.33355331
v 120.60660553 0.50000000 10.60660172
v 121.59515381 0.50000000 9.51589966
v 108.52973938 0.50000000 14.92777061
v 110.00000000 0.50000000 15.00000000
v 111.47026062 0.50000000 14.92777061
v 115.74024963 0.50000000 13.85819340
v 112.92635345 0.50000000 14.71177959
v 114.35427094 0.50000000 14.35410500
v 119.51589966 0.50000000 11.59515667
v 118.33355713 0.50000000 12.47204399
v 117.07095337 0.50000000 13.22881889
v 107.75000000 15.00000000 -0.00000000
v 107.76083374 15.00000000 0.22053857
v 107.79323578 15.00000000 0.43895322
v 107.84688568 15.00000000 0.65314054
v 107.92127228 15.00000000 0.86103773
v 108.01567841 15.00000000 1.06064260
v 108.12919617 15.00000000 1.25003302
v 108.26072693 15.00000000 1.42738485
v 108.40901184 15.00000000 1.59099030
v 108.57261658 15.00000000 1.73927355
v 108.74996948 15.00000000 1.87080657
v 111.87080383 15.00000000 1.25003302
v 111.73927307 15.00000000 1.42738485
v 111.59098816 15.00000000 1.59099030
v 111.25003052 15.00000000 1.87080657
v 111.42738342 15.00000000 1.73927355
v 112.23916626 15.00000000 0.22053857
v 112.20676422 15.00000000 0.43895322
v 112.15311432 15.00000000 0.65314054
v 112.07872772 15.00000000 0.86103773
v 111.98432159 15.00000000 1.06064260
v 108.93935394 15.00000000 1.98432279
v 109.13896179 15.00000000 2.07872891
v 109.34686279 15.00000000 2.15311575
v 109.56105042 15.00000000 2.20676684
v 109.77946472 15.00000000 2.23916554
v 110.00000000 15.00000000 2.25000000
v 110.22053528 15.00000000 2.23916554
v 110.43894958 15.00000000 2.20676684
v 110.65313721 15.00000000 2.15311575
v 111.06064606 15.00000000 1.98432279
v 110.86103821 15.00000000 2.07872891
v 125.00000000 15.00000000 -0.00000000
v 124.92777252 15.00000000 1.47025716
v 124.71177673 15.00000000 2.92635489
v 124.35410309 15.00000000 4.35426998
v 123.85819244 15.00000000 5.74025154
v 123.22882080 15.00000000 7.07095098
v 98.02222443 15.00000000 9.00000000
v 98.40484619 15.00000000 9.51589966
v 99.39339447 15.00000000 10.60660172
v 100.48410034 15.00000000 11.59515667
v 101.66644287 15.00000000 12.47204399
v 102.92904663 15.00000000 13.22881889
v 104.25975037 15.00000000 13.85819340
v 105.64572906 15.00000000 14.35410500
v 107.07364655 15.00000000 14.71177959
v 110.00000000 15.00000000 9.00000000
v 122.47204590 15.00000000 8.33355331
v 120.60660553 15.00000000 10.60660172
v 121.59515381 15.00000000 9.51589966
v 108.52973938 15.00000000 14.92777061
v 110.00000000 15.00000000 15.00000000
v 111.47026062 15.00000000 14.92777061
v 115.74024963 15.00000000 13.85819340
v 112.92635345 15.00000000 14.71177959
v 114.35427094 15.00000000 14.35410500
v 119.51589966 15.00000000 11.59515667
v 118.33355713 15.00000000 12.47204399
v 117.07095337 15.00000000 13.22881889
vn -0.33837860 -0.63306149 -0.69622774
vn -0.39879990 -0.59684634 -0.69622776
vn -0.45538079 -0.55488319 -0.69622767
vn -0.20837240 -0.68691179 -0.69622779
vn -0.14003989 -0.70402835 -0.69622763
vn -0.27469822 -0.66318018 -0.69622764
vn -0.07035866 -0.71436442 -0.69622779
vn -0.01748684 -0.71233222 -0.70162456
vn -0.55488319 -0.45538079 -0.69622767
vn -0.50757607 -0.50757607 -0.69622774
vn -0.59684634 -0.39879990 -0.69622776
vn -0.33837860 -0.63306149 0.69622774
vn -0.39879990 -0.59684634 0.69622776
vn -0.45538079 -0.55488319 0.69622767
vn -0.20837240 -0.68691179 0.69622779
vn -0.14003989 -0.70402835 0.69622763
vn -0.27469822 -0.66318018 0.69622764
vn -0.07035866 -0.71436442 0.69622779
vn -0.01748684 -0.71233222 0.70162456
vn 0.00000000 0.00000000 1.00000000
vn -0.55488319 -0.45538079 0.69622767
vn -0.50757607 -0.50757607 0.69622774
vn -0.59684634 -0.39879990 0.69622776
vn -0.63306149 -0.33837860 -0.69622774
vn -0.66318018 -0.27469822 -0.69622764
vn -0.68691179 -0.20837240 -0.69622779
vn -0.70402835 -0.14003989 -0.69622763
vn -0.71436442 -0.07035866 -0.69622779
vn 0.26623806 0.64275522 -0.71831958
vn 0.32795702 0.61356436 -0.71831954
vn 0.20195489 0.66575607 -0.71831962
vn 0.13572679 0.68234538 -0.71831959
vn 0.06819190 0.69236331 -0.71831950
vn -0.00000000 0.69571319 -0.71831968
vn -0.06819190 0.69236331 -0.71831950
vn -0.13572679 0.68234538 -0.71831959
vn -0.20195489 0.66575607 -0.71831962
vn -0.26623806 0.64275522 -0.71831958
vn -0.32795702 0.61356436 -0.71831954
vn 0.61356436 0.32795702 -0.71831954
vn 0.64275522 0.26623806 -0.71831958
vn 0.66575607 0.20195489 -0.71831962
vn 0.68234538 0.13572679 -0.71831959
vn 0.69236331 0.06819190 -0.71831950
vn 0.44135571 0.53779377 -0.71831957
vn 0.38651750 0.57846454 -0.71831957
vn 0.49194354 0.49194354 -0.71831965
vn 0.53779377 0.44135571 -0.71831957
vn 0.57846454 0.38651750 -0.71831957
vn -0.38651750 0.57846454 -0.71831957
vn -0.44135571 0.53779377 -0.71831957
vn -0.49194354 0.49194354 -0.71831965
vn -0.53779377 0.44135571 -0.71831957
vn -0.57846454 0.38651750 -0.71831957
vn -0.61356436 0.32795702 -0.71831954
vn -0.64275522 0.26623806 -0.71831958
vn -0.66575607 0.20195489 -0.71831962
vn -0.68234538 0.13572679 -0.71831959
vn -0.69236331 0.06819190 -0.71831950
vn -0.63306149 -0.33837860 0.69622774
vn -0.66318018 -0.27469822 0.69622764
vn -0.68691179 -0.20837240 0.69622779
vn -0.70402835 -0.14003989 0.69622763
vn -0.71436442 -0.07035866 0.69622779
vn 0.26623806 0.64275522 0.71831958
vn 0.32795702 0.61356436 0.71831954
vn 0.20195489 0.66575607 0.71831962
vn 0.13572679 0.68234538 0.71831959
vn 0.06819190 0.69236331 0.71831950
vn 0.00000000 0.69571319 0.71831968
vn -0.06819190 0.69236331 0.71831950
vn -0.13572679 0.68234538 0.71831959
vn -0.20195489 0.66575607 0.71831962
vn -0.26623806 0.64275522 0.71831958
vn -0.32795702 0.61356436 0.71831954
vn 0.61356436 0.32795702 0.71831954
vn 0.64275522 0.26623806 0.71831958
vn 0.66575607 0.20195489 0.71831962
vn 0.68234538 0.13572679 0.71831959
vn 0.69236331 0.06819190 0.71831950
vn 0.44135571 0.53779377 0.71831957
vn 0.38651750 0.57846454 0.71831957
vn 0.49194354 0.49194354 0.71831965
vn 0.53779377 0.44135571 0.71831957
vn 0.57846454 0.38651750 0.71831957
vn -0.38651750 0.57846454 0.71831957
vn -0.44135571 0.53779377 0.71831957
vn -0.49194354 0.49194354 0.71831965
vn -0.53779377 0.44135571 0.71831957
vn -0.57846454 0.38651750 0.71831957
vn -0.61356436 0.32795702 0.71831954
vn -0.64275522 0.26623806 0.71831958
vn -0.66575607 0.20195489 0.71831962
vn -0.68234538 0.13572679 0.71831959
vn -0.69236331 0.06819190 0.71831950
vn 0.00000000 -0.70710678 -0.70710678
vn -0.30151134 -0.90453403 0.30151134
vn -0.57735027 -0.57735027 0.57735027
vn -0.30151134 -0.30151134 0.90453403
vn -0.57735027 -0.57735027 0.57735027
vn -0.71782103 -0.00000000 -0.69622767
vn -0.71436442 0.07035866 -0.69622779
vn -0.70402835 0.14003989 -0.69622763
vn 0.69571319 0.00000000 -0.71831968
vn 0.69236331 -0.06819190 -0.71831950
vn 0.68234538 -0.13572679 -0.71831959
vn 0.66575607 -0.20195489 -0.71831962
vn 0.64275522 -0.26623806 -0.71831958
vn 0.61356436 -0.32795702 -0.71831954
vn -0.69571319 0.00000000 -0.71831968
vn -0.69236331 -0.06819190 -0.71831950
vn -0.68234538 -0.13572679 -0.71831959
vn -0.66575607 -0.20195489 -0.71831962
vn -0.64275522 -0.26623806 -0.71831958
vn 0.57846454 -0.38651750 -0.71831957
vn 0.53779377 -0.44135571 -0.71831957
vn 0.49194354 -0.49194354 -0.71831965
vn 0.44135571 -0.53779377 -0.71831957
vn 0.38651750 -0.57846454 -0.71831957
vn -0.61356436 -0.32795702 -0.71831954
vn -0.57846454 -0.38651750 -0.71831957
vn -0.38651750 -0.57846454 -0.71831957
vn -0.53779377 -0.44135571 -0.71831957
vn -0.49194354 -0.49194354 -0.71831965
vn -0.44135571 -0.53779377 -0.71831957
vn 0.32795702 -0.61356436 -0.71831954
vn 0.26623806 -0.64275522 -0.71831958
vn 0.20195489 -0.66575607 -0.71831962
vn 0.13572679 -0.68234538 -0.71831959
vn 0.06819190 -0.69236331 -0.71831950
vn 0.00000000 -0.69571319 -0.71831968
vn -0.06819190 -0.69236331 -0.71831950
vn -0.32795702 -0.61356436 -0.71831954
vn -0.26623806 -0.64275522 -0.71831958
vn -0.13572679 -0.68234538 -0.71831959
vn -0.20195489 -0.66575607 -0.71831962
vn -0.68691179 0.20837240 -0.69622779
vn -0.66318018 0.27469822 -0.69622764
vn -0.63306149 0.33837860 -0.69622774
vn -0.71782103 0.00000000 0.69622767
vn -0.71436442 0.07035866 0.69622779
vn -0.70402835 0.14003989 0.69622763
vn 0.69571319 -0.00000000 0.71831968
vn 0.69236331 -0.06819190 0.71831950
vn 0.68234538 -0.13572679 0.71831959
vn 0.66575607 -0.20195489 0.71831962
vn 0.64275522 -0.26623806 0.71831958
vn 0.61356436 -0.32795702 0.71831954
vn -0.69571319 0.00000000 0.71831968
vn -0.69236331 -0.06819190 0.71831950
vn -0.68234538 -0.13572679 0.71831959
vn -0.66575607 -0.20195489 0.71831962
vn -0.64275522 -0.26623806 0.71831958
vn 0.57846454 -0.38651750 0.71831957
vn 0.53779377 -0.44135571 0.71831957
vn 0.49194354 -0.49194354 0.71831965
vn 0.44135571 -0.53779377 0.71831957
vn 0.38651750 -0.57846454 0.71831957
vn -0.61356436 -0.32795702 0.71831954
vn -0.57846454 -0.38651750 0.71831957
vn -0.38651750 -0.57846454 0.71831957
vn -0.53779377 -0.44135571 0.71831957
vn -0.49194354 -0.49194354 0.71831965
vn -0.44135571 -0.53779377 0.71831957
vn 0.32795702 -0.61356436 0.71831954
vn 0.26623806 -0.64275522 0.71831958
vn 0.20195489 -0.66575607 0.71831962
vn 0.13572679 -0.68234538 0.71831959
vn 0.06819190 -0.69236331 0.71831950
vn -0.00000000 -0.69571319 0.71831968
vn -0.06819190 -0.69236331 0.71831950
vn -0.32795702 -0.61356436 0.71831954
vn -0.26623806 -0.64275522 0.71831958
vn -0.13572679 -0.68234538 0.71831959
vn -0.20195489 -0.66575607 0.71831962
vn -0.68691179 0.20837240 0.69622779
vn -0.66318018 0.27469822 0.69622764
vn -0.63306149 0.33837860 0.69622774
vn -0.59684634 0.39879990 -0.69622776
vn -0.55488319 0.45538079 -0.69622767
vn -0.50757607 0.50757607 -0.69622774
vn -0.45538079 0.55488319 -0.69622767
vn -0.39879990 0.59684634 -0.69622776
vn -0.33837860 0.63306149 -0.69622774
vn -0.27469822 0.66318018 -0.69622764
vn -0.20837240 0.68691179 -0.69622779
vn -0.14003989 0.70402835 -0.69622763
vn -0.07035866 0.71436442 -0.69622779
vn -0.01748684 0.71233222 -0.70162456
vn -0.59684634 0.39879990 0.69622776
vn -0.55488319 0.45538079 0.69622767
vn -0.50757607 0.50757607 0.69622774
vn -0.45538079 0.55488319 0.69622767
vn -0.39879990 0.59684634 0.69622776
vn -0.33837860 0.63306149 0.69622774
vn -0.27469822 0.66318018 0.69622764
vn -0.20837240 0.68691179 0.69622779
vn -0.14003989 0.70402835 0.69622763
vn -0.07035866 0.71436442 0.69622779
vn -0.01748684 0.71233222 0.70162456
vn 0.00000000 0.70710678 -0.70710678
vn -0.30151134 0.90453403 0.30151134
vn -0.30151134 0.30151134 0.90453403
vn -0.57735027 0.57735027 0.57735027
vn -0.57735027 0.57735027 0.57735027
vn 0.57735027 -0.57735027 -0.57735027
vn 0.57735027 -0.57735027 0.57735027
vn 0.30151134 -0.30151134 0.90453403
vn 0.57735027 -0.57735027 0.57735027
vn 0.30151134 -0.30151134 -0.90453403
vn 0.00000000 0.70710678 -0.70710678
vn -0.33837808 -0.69622766 -0.63306186
vn -0.14003991 -0.69622773 -0.70402825
vn -0.20837253 -0.69622767 -0.68691187
vn -0.27469795 -0.69622785 -0.66318008
vn -0.39880033 -0.69622753 -0.59684631
vn -0.45538052 -0.69622803 -0.55488297
vn -0.55488186 -0.69622868 -0.45538088
vn -0.25503136 -0.82355981 -0.50666384
vn -0.50757686 -0.69622719 -0.50757604
vn -0.07035880 -0.69622772 -0.71436447
vn -0.00000000 -0.69622770 -0.71782100
vn 0.07035880 -0.69622772 -0.71436447
vn 0.14003991 -0.69622773 -0.70402825
vn 0.20837253 -0.69622767 -0.68691187
vn 0.27469795 -0.69622785 -0.66318008
vn 0.33837808 -0.69622766 -0.63306186
vn 0.39880033 -0.69622753 -0.59684631
vn 0.45538052 -0.69622803 -0.55488297
vn 0.00000000 -1.00000000 0.00000000
vn 0.50757686 -0.69622719 -0.50757604
vn 0.55488288 -0.69622832 -0.45538019
vn 0.59684605 -0.69622747 -0.39880083
vn 0.63306196 -0.69622755 -0.33837813
vn 0.66318040 -0.69622777 -0.27469739
vn 0.68691192 -0.69622779 -0.20837198
vn 0.20195303 -0.71831898 0.66575732
vn 0.13572676 -0.71831952 0.68234545
vn 0.26623434 -0.71831959 0.64275676
vn 0.32795840 -0.71832182 0.61356096
vn 0.06819224 -0.71831944 0.69236334
vn -0.00000000 -0.71831985 0.69571301
vn -0.06819224 -0.71831944 0.69236334
vn -0.13572676 -0.71831952 0.68234545
vn -0.20195303 -0.71831898 0.66575732
vn -0.26623434 -0.71831959 0.64275676
vn -0.32795840 -0.71832182 0.61356096
vn 0.44135513 -0.71832016 0.53779346
vn 0.49194335 -0.71831875 0.49194503
vn 0.53779308 -0.71832117 0.44135395
vn 0.38652180 -0.71831762 0.57846408
vn 0.57846638 -0.71831792 0.38651780
vn 0.61356275 -0.71832023 0.32795853
vn -0.38652180 -0.71831762 0.57846408
vn -0.44135513 -0.71832016 0.53779346
vn -0.49194335 -0.71831875 0.49194503
vn -0.53779308 -0.71832117 0.44135395
vn -0.57846638 -0.71831792 0.38651780
vn 0.64275523 -0.71831971 0.26623770
vn 0.66575622 -0.71832010 0.20195266
vn 0.68234708 -0.71831725 0.13573058
vn 0.69236075 -0.71832161 0.06819574
vn -0.61356275 -0.71832023 0.32795853
vn -0.64275523 -0.71831971 0.26623770
vn -0.66575622 -0.71832010 0.20195266
vn -0.68234708 -0.71831725 0.13573058
vn -0.69236075 -0.71832161 0.06819574
vn 0.70402777 -0.69622805 -0.14004072
vn 0.71436483 -0.69622730 -0.07035939
vn -0.33837808 0.69622766 -0.63306186
vn -0.14003991 0.69622773 -0.70402825
vn -0.20837253 0.69622767 -0.68691187
vn -0.27469795 0.69622785 -0.66318008
vn -0.39880033 0.69622753 -0.59684631
vn -0.45538052 0.69622803 -0.55488297
vn -0.55488186 0.69622868 -0.45538088
vn -0.25503136 0.82355981 -0.50666384
vn -0.50757686 0.69622719 -0.50757604
vn -0.07035880 0.69622772 -0.71436447
vn 0.00000000 0.69622770 -0.71782100
vn 0.07035880 0.69622772 -0.71436447
vn 0.14003991 0.69622773 -0.70402825
vn 0.20837253 0.69622767 -0.68691187
vn 0.27469795 0.69622785 -0.66318008
vn 0.33837808 0.69622766 -0.63306186
vn 0.39880033 0.69622753 -0.59684631
vn 0.45538052 0.69622803 -0.55488297
vn 0.00000000 1.00000000 0.00000000
vn 0.50757686 0.69622719 -0.50757604
vn 0.55488288 0.69622832 -0.45538019
vn 0.59684605 0.69622747 -0.39880083
vn 0.63306196 0.69622755 -0.33837813
vn 0.66318040 0.69622777 -0.27469739
vn 0.68691192 0.69622779 -0.20837198
vn 0.20195303 0.71831898 0.66575732
vn 0.13572676 0.71831952 0.68234545
vn 0.26623434 0.71831959 0.64275676
vn 0.32795840 0.71832182 0.61356096
vn 0.06819224 0.71831944 0.69236334
vn 0.00000000 0.71831985 0.69571301
vn -0.06819224 0.71831944 0.69236334
vn -0.13572676 0.71831952 0.68234545
vn -0.20195303 0.71831898 0.66575732
vn -0.26623434 0.71831959 0.64275676
vn -0.32795840 0.71832182 0.61356096
vn 0.44135513 0.71832016 0.53779346
vn 0.49194335 0.71831875 0.49194503
vn 0.53779308 0.71832117 0.44135395
vn 0.38652180 0.71831762 0.57846408
vn 0.57846638 0.71831792 0.38651780
vn 0.61356275 0.71832023 0.32795853
vn -0.38652180 0.71831762 0.57846408
vn -0.44135513 0.71832016 0.53779346
vn -0.49194335 0.71831875 0.49194503
vn -0.53779308 0.71832117 0.44135395
vn -0.57846638 0.71831792 0.38651780
vn 0.64275523 0.71831971 0.26623770
vn 0.66575622 0.71832010 0.20195266
vn 0.68234708 0.71831725 0.13573058
vn 0.69236075 0.71832161 0.06819574
vn -0.61356275 0.71832023 0.32795853
vn -0.64275523 0.71831971 0.26623770
vn -0.66575622 0.71832010 0.20195266
vn -0.68234708 0.71831725 0.13573058
vn -0.69236075 0.71832161 0.06819574
vn -0.69571397 0.71831892 0.00000000
vn 0.70402777 0.69622805 -0.14004072
vn 0.71436483 0.69622730 -0.07035939
vn 0.30151134 0.30151134 0.90453403
vn 0.30151134 -0.30151134 0.90453403
vn 0.57735027 0.57735027 0.57735027
vn -0.30151134 -0.30151134 0.90453403
vn 0.30151134 -0.30151134 0.90453403
vn -0.57735027 -0.57735027 0.57735027
vn 0.57735027 -0.57735027 0.57735027
vn -0.30151134 0.30151134 0.90453403
vn 0.30151134 0.30151134 0.90453403
vn 0.00000000 0.70710678 0.70710678
vn -0.57735027 0.57735027 0.57735027
vn 0.57735027 0.57735027 0.57735027
vn 0.69571397 -0.71831892 -0.00000000
vn 0.69236075 -0.71832161 -0.06819574
vn 0.68234708 -0.71831725 -0.13573058
vn 0.66575622 -0.71832010 -0.20195266
vn 0.64275523 -0.71831971 -0.26623770
vn 0.61356275 -0.71832023 -0.32795853
vn 0.57846638 -0.71831792 -0.38651780
vn 0.53779308 -0.71832117 -0.44135395
vn 0.49194335 -0.71831875 -0.49194503
vn 0.44135513 -0.71832016 -0.53779346
vn 0.38652180 -0.71831762 -0.57846408
vn -0.57846638 -0.71831792 -0.38651780
vn -0.53779308 -0.71832117 -0.44135395
vn -0.49194335 -0.71831875 -0.49194503
vn -0.38652180 -0.71831762 -0.57846408
vn -0.44135513 -0.71832016 -0.53779346
vn -0.69571397 -0.71831892 0.00000000
vn -0.69236075 -0.71832161 -0.06819574
vn -0.68234708 -0.71831725 -0.13573058
vn -0.66575622 -0.71832010 -0.20195266
vn -0.64275523 -0.71831971 -0.26623770
vn -0.61356275 -0.71832023 -0.32795853
vn 0.32795840 -0.71832182 -0.61356096
vn 0.26623434 -0.71831959 -0.64275676
vn 0.20195303 -0.71831898 -0.66575732
vn 0.13572676 -0.71831952 -0.68234545
vn 0.06819224 -0.71831944 -0.69236334
vn 0.00000000 -0.71831985 -0.69571301
vn -0.06819224 -0.71831944 -0.69236334
vn -0.13572676 -0.71831952 -0.68234545
vn -0.20195303 -0.71831898 -0.66575732
vn -0.32795840 -0.71832182 -0.61356096
vn -0.26623434 -0.71831959 -0.64275676
vn 0.71782075 -0.69622796 0.00000000
vn 0.71436483 -0.69622730 0.07035939
vn 0.70402777 -0.69622805 0.14004072
vn 0.68691192 -0.69622779 0.20837198
vn 0.66318040 -0.69622777 0.27469739
vn 0.63306196 -0.69622755 0.33837813
vn -0.25503136 -0.82355981 0.50666384
vn -0.55488186 -0.69622868 0.45538088
vn -0.50757686 -0.69622719 0.50757604
vn -0.45538052 -0.69622803 0.55488297
vn -0.39880033 -0.69622753 0.59684631
vn -0.33837808 -0.69622766 0.63306186
vn -0.27469795 -0.69622785 0.66318008
vn -0.20837253 -0.69622767 0.68691187
vn -0.14003991 -0.69622773 0.70402825
vn 0.00000000 -1.00000000 0.00000000
vn 0.59684605 -0.69622747 0.39880083
vn 0.50757686 -0.69622719 0.50757604
vn 0.55488288 -0.69622832 0.45538019
vn -0.07035880 -0.69622772 0.71436447
vn 0.00000000 -0.69622770 0.71782100
vn 0.07035880 -0.69622772 0.71436447
vn 0.27469795 -0.69622785 0.66318008
vn 0.14003991 -0.69622773 0.70402825
vn 0.20837253 -0.69622767 0.68691187
vn 0.45538052 -0.69622803 0.55488297
vn 0.39880033 -0.69622753 0.59684631
vn 0.33837808 -0.69622766 0.63306186
vn 0.69571397 0.71831892 0.00000000
vn 0.69236075 0.71832161 -0.06819574
vn 0.68234708 0.71831725 -0.13573058
vn 0.66575622 0.71832010 -0.20195266
vn 0.64275523 0.71831971 -0.26623770
vn 0.61356275 0.71832023 -0.32795853
vn 0.57846638 0.71831792 -0.38651780
vn 0.53779308 0.71832117 -0.44135395
vn 0.49194335 0.71831875 -0.49194503
vn 0.44135513 0.71832016 -0.53779346
vn 0.38652180 0.71831762 -0.57846408
vn -0.57846638 0.71831792 -0.38651780
vn -0.53779308 0.71832117 -0.44135395
vn -0.49194335 0.71831875 -0.49194503
vn -0.38652180 0.71831762 -0.57846408
vn -0.44135513 0.71832016 -0.53779346
vn -0.69236075 0.71832161 -0.06819574
vn -0.68234708 0.71831725 -0.13573058
vn -0.66575622 0.71832010 -0.20195266
vn -0.64275523 0.71831971 -0.26623770
vn -0.61356275 0.71832023 -0.32795853
vn 0.32795840 0.71832182 -0.61356096
vn 0.26623434 0.71831959 -0.64275676
vn 0.20195303 0.71831898 -0.66575732
vn 0.13572676 0.71831952 -0.68234545
vn 0.06819224 0.71831944 -0.69236334
vn -0.00000000 0.71831985 -0.69571301
vn -0.06819224 0.71831944 -0.69236334
vn -0.13572676 0.71831952 -0.68234545
vn -0.20195303 0.71831898 -0.66575732
vn -0.32795840 0.71832182 -0.61356096
vn -0.26623434 0.71831959 -0.64275676
vn 0.71782075 0.69622796 0.00000000
vn 0.71436483 0.69622730 0.07035939
vn 0.70402777 0.69622805 0.14004072
vn 0.68691192 0.69622779 0.20837198
vn 0.66318040 0.69622777 0.27469739
vn 0.63306196 0.69622755 0.33837813
vn -0.25503136 0.82355981 0.50666384
vn -0.55488186 0.69622868 0.45538088
vn -0.50757686 0.69622719 0.50757604
vn -0.45538052 0.69622803 0.55488297
vn -0.39880033 0.69622753 0.59684631
vn -0.33837808 0.69622766 0.63306186
vn -0.27469795 0.69622785 0.66318008
vn -0.20837253 0.69622767 0.68691187
vn -0.14003991 0.69622773 0.70402825
vn 0.00000000 1.00000000 0.00000000
vn 0.59684605 0.69622747 0.39880083
vn 0.50757686 0.69622719 0.50757604
vn 0.55488288 0.69622832 0.45538019
vn -0.07035880 0.69622772 0.71436447
vn 0.00000000 0.69622770 0.71782100
vn 0.07035880 0.69622772 0.71436447
vn 0.27469795 0.69622785 0.66318008
vn 0.14003991 0.69622773 0.70402825
vn 0.20837253 0.69622767 0.68691187
vn 0.45538052 0.69622803 0.55488297
vn 0.39880033 0.69622753 0.59684631
vn 0.33837808 0.69622766 0.63306186
f 4//4 6//6 44//44
f 4//4 47//47 5//5
f 5//5 31//31 7//7
f 7//7 34//34 8//8
f 1//1 6//6 12//12
f 1//1 13//13 2//2
f 2//2 14//14 3//3
f 5//5 7//7 16//16
f 4//4 5//5 15//15
f 4//4 17//17 6//6
f 7//7 8//8 18//18
f 1//1 12//12 13//13
f 2//2 13//13 14//14
f 3//3 14//14 22//22
f 4//4 15//15 17//17
f 5//5 16//16 15//15
f 7//7 18//18 16//16
f 6//6 17//17 12//12
f 8//8 19//19 18//18
f 9//9 10//10 21//21
f 3//3 22//22 10//10
f 9//9 23//23 11//11
f 10//10 22//22 21//21
f 9//9 21//21 23//23
f 11//11 23//23 60//60
f 13//13 81//81 14//14
f 14//14 83//83 22//22
f 15//15 16//16 67//67
f 12//12 17//17 65//65
f 15//15 67//67 17//17
f 16//16 18//18 68//68
f 18//18 19//19 70//70
f 19//19 20//20 70//70
f 12//12 82//82 13//13
f 8//8 96//96 19//19
f 19//19 97//97 20//20
f 5//5 47//47 45//45
f 4//4 48//48 47//47
f 4//4 49//49 48//48
f 7//7 31//31 32//32
f 5//5 30//30 29//29
f 5//5 29//29 31//31
f 5//5 46//46 30//30
f 5//5 45//45 46//46
f 7//7 32//32 33//33
f 7//7 33//33 34//34
f 8//8 34//34 35//35
f 8//8 35//35 36//36
f 8//8 36//36 37//37
f 8//8 37//37 38//38
f 4//4 40//40 49//49
f 4//4 41//41 40//40
f 4//4 42//42 41//41
f 6//6 104//104 44//44
f 4//4 43//43 42//42
f 4//4 44//44 43//43
f 1//1 189//189 6//6
f 6//6 105//105 104//104
f 6//6 106//106 105//105
f 3//3 10//10 189//189
f 9//9 189//189 10//10
f 9//9 11//11 189//189
f 11//11 24//24 189//189
f 1//1 2//2 189//189
f 2//2 3//3 189//189
f 8//8 38//38 201//201
f 11//11 60//60 24//24
f 24//24 61//61 25//25
f 25//25 62//62 26//26
f 24//24 60//60 61//61
f 21//21 22//22 83//83
f 21//21 84//84 23//23
f 25//25 61//61 62//62
f 26//26 62//62 63//63
f 23//23 76//76 60//60
f 60//60 77//77 61//61
f 12//12 65//65 66//66
f 12//12 66//66 82//82
f 17//17 67//67 65//65
f 16//16 68//68 67//67
f 18//18 69//69 68//68
f 18//18 70//70 69//69
f 20//20 71//71 70//70
f 20//20 72//72 71//71
f 20//20 73//73 72//72
f 20//20 74//74 73//73
f 14//14 81//81 83//83
f 13//13 82//82 81//81
f 21//21 83//83 84//84
f 26//26 63//63 27//27
f 27//27 64//64 28//28
f 28//28 140//140 101//101
f 27//27 63//63 64//64
f 61//61 78//78 62//62
f 62//62 79//79 63//63
f 28//28 64//64 140//140
f 63//63 80//80 64//64
f 64//64 143//143 140//140
f 63//63 79//79 80//80
f 64//64 80//80 143//143
f 23//23 84//84 85//85
f 23//23 85//85 76//76
f 60//60 76//76 77//77
f 61//61 77//77 78//78
f 62//62 78//78 79//79
f 20//20 202//202 74//74
f 19//19 96//96 97//97
f 96//96 206//206 97//97
f 97//97 206//206 98//98
f 8//8 201//201 96//96
f 96//96 201//201 206//206
f 20//20 97//97 202//202
f 98//98 208//208 99//99
f 99//99 208//208 100//100
f 100//100 208//208 209//209
f 97//97 98//98 202//202
f 99//99 100//100 204//204
f 100//100 209//209 331//331
f 98//98 99//99 205//205
f 99//99 204//204 203//203
f 100//100 331//331 204//204
f 24//24 25//25 189//189
f 25//25 26//26 189//189
f 26//26 27//27 189//189
f 27//27 28//28 189//189
f 6//6 189//189 106//106
f 28//28 101//101 189//189
f 101//101 102//102 189//189
f 102//102 103//103 189//189
f 103//103 137//137 189//189
f 189//189 107//107 106//106
f 189//189 108//108 107//107
f 189//189 109//109 108//108
f 189//189 115//115 109//109
f 189//189 116//116 115//115
f 189//189 117//117 116//116
f 189//189 118//118 117//117
f 189//189 119//119 118//118
f 189//189 126//126 119//119
f 189//189 127//127 126//126
f 189//189 128//128 127//127
f 189//189 129//129 128//128
f 189//189 130//130 129//129
f 189//189 131//131 130//130
f 189//189 132//132 131//131
f 201//201 38//38 39//39
f 201//201 39//39 50//50
f 201//201 50//50 51//51
f 201//201 51//51 52//52
f 201//201 52//52 53//53
f 201//201 53//53 54//54
f 201//201 54//54 55//55
f 201//201 55//55 56//56
f 201//201 56//56 57//57
f 201//201 57//57 58//58
f 201//201 58//58 59//59
f 201//201 59//59 110//110
f 201//201 110//110 111//111
f 201//201 111//111 112//112
f 201//201 112//112 113//113
f 201//201 113//113 114//114
f 201//201 123//123 124//124
f 201//201 114//114 120//120
f 201//201 120//120 121//121
f 201//201 121//121 123//123
f 201//201 125//125 122//122
f 201//201 124//124 125//125
f 201//201 122//122 133//133
f 201//201 133//133 134//134
f 201//201 134//134 136//136
f 201//201 135//135 132//132
f 201//201 136//136 135//135
f 101//101 141//141 102//102
f 102//102 142//142 103//103
f 101//101 140//140 141//141
f 140//140 143//143 141//141
f 141//141 143//143 144//144
f 141//141 144//144 145//145
f 141//141 145//145 142//142
f 142//142 145//145 146//146
f 102//102 141//141 142//142
f 103//103 142//142 176//176
f 142//142 146//146 176//176
f 176//176 146//146 177//177
f 177//177 146//146 147//147
f 178//178 147//147 148//148
f 178//178 148//148 154//154
f 190//190 154//154 155//155
f 103//103 176//176 137//137
f 137//137 177//177 138//138
f 138//138 178//178 139//139
f 137//137 176//176 177//177
f 177//177 147//147 178//178
f 178//178 154//154 190//190
f 138//138 177//177 178//178
f 139//139 178//178 190//190
f 190//190 155//155 191//191
f 191//191 156//156 192//192
f 191//191 155//155 156//156
f 193//193 156//156 157//157
f 194//194 157//157 158//158
f 194//194 158//158 165//165
f 195//195 165//165 166//166
f 196//196 166//166 167//167
f 197//197 167//167 168//168
f 198//198 168//168 169//169
f 199//199 169//169 170//170
f 200//200 170//170 171//171
f 202//202 75//75 74//74
f 202//202 86//86 75//75
f 202//202 87//87 86//86
f 202//202 88//88 87//87
f 202//202 89//89 88//88
f 202//202 90//90 89//89
f 202//202 91//91 90//90
f 202//202 92//92 91//91
f 202//202 93//93 92//92
f 202//202 94//94 93//93
f 202//202 95//95 94//94
f 202//202 149//149 95//95
f 202//202 150//150 149//149
f 202//202 151//151 150//150
f 202//202 152//152 151//151
f 202//202 153//153 152//152
f 202//202 163//163 162//162
f 202//202 159//159 153//153
f 202//202 160//160 159//159
f 202//202 162//162 160//160
f 202//202 161//161 164//164
f 202//202 164//164 163//163
f 202//202 172//172 161//161
f 202//202 173//173 172//172
f 202//202 175//175 173//173
f 202//202 171//171 174//174
f 202//202 174//174 175//175
f 137//137 138//138 189//189
f 138//138 139//139 189//189
f 139//139 179//179 189//189
f 179//179 180//180 189//189
f 180//180 181//181 189//189
f 181//181 182//182 189//189
f 182//182 183//183 189//189
f 183//183 184//184 189//189
f 184//184 185//185 189//189
f 185//185 186//186 189//189
f 186//186 187//187 189//189
f 187//187 188//188 189//189
f 189//189 201//201 132//132
f 139//139 190//190 179//179
f 179//179 191//191 180//180
f 180//180 192//192 181//181
f 179//179 190//190 191//191
f 192//192 156//156 193//193
f 193//193 157//157 194//194
f 180//180 191//191 192//192
f 181//181 192//192 193//193
f 194//194 165//165 195//195
f 195//195 166//166 196//196
f 196//196 167//167 197//197
f 197//197 168//168 198//198
f 198//198 169//169 199//199
f 199//199 170//170 200//200
f 181//181 193//193 182//182
f 182//182 194//194 183//183
f 183//183 195//195 184//184
f 184//184 196//196 185//185
f 185//185 197//197 186//186
f 186//186 198//198 187//187
f 187//187 199//199 188//188
f 188//188 200//200 189//189
f 182//182 193//193 194//194
f 183//183 194//194 195//195
f 184//184 195//195 196//196
f 185//185 196//196 197//197
f 186//186 197//197 198//198
f 187//187 198//198 199//199
f 188//188 199//199 200//200
f 200//200 171//171 202//202
f 189//189 200//200 202//202
f 189//189 202//202 201//201
f 201//201 202//202 338//338
f 98//98 205//205 202//202
f 99//99 203//203 205//205
f 203//203 329//329 332//332
f 203//203 204//204 331//331
f 203//203 331//331 329//329
f 203//203 332//332 336//336
f 202//202 205//205 338//338
f 203//203 336//336 205//205
f 206//206 210//210 330//330
f 98//98 206//206 207//207
f 206//206 330//330 207//207
f 98//98 207//207 208//208
f 208//208 329//329 209//209
f 207//207 333//333 208//208
f 209//209 329//329 331//331
f 208//208 333//333 329//329
f 207//207 330//330 337//337
f 201//201 210//210 206//206
f 210//210 277//277 219//219
f 210//210 219//219 330//330
f 201//201 211//211 210//210
f 210//210 211//211 277//277
f 201//201 338//338 211//211
f 214//214 219//219 215//215
f 212//212 219//219 216//216
f 212//212 215//215 219//219
f 213//213 219//219 214//214
f 213//213 221//221 219//219
f 219//219 221//221 222//222
f 218//218 220//220 219//219
f 216//216 219//219 217//217
f 217//217 219//219 220//220
f 219//219 222//222 230//230
f 214//214 215//215 272//272
f 213//213 214//214 271//271
f 212//212 273//273 215//215
f 212//212 216//216 270//270
f 217//217 220//220 275//275
f 216//216 217//217 274//274
f 218//218 219//219 277//277
f 218//218 278//278 220//220
f 222//222 223//223 230//230
f 223//223 224//224 230//230
f 224//224 225//225 230//230
f 225//225 226//226 230//230
f 226//226 227//227 230//230
f 227//227 228//228 230//230
f 228//228 229//229 230//230
f 229//229 231//231 230//230
f 230//230 231//231 232//232
f 230//230 232//232 233//233
f 230//230 233//233 234//234
f 213//213 279//279 221//221
f 221//221 280//280 222//222
f 222//222 281//281 223//223
f 223//223 282//282 224//224
f 224//224 283//283 225//225
f 225//225 284//284 226//226
f 226//226 285//285 227//227
f 227//227 286//286 228//228
f 228//228 287//287 229//229
f 229//229 289//289 231//231
f 231//231 290//290 232//232
f 232//232 291//291 233//233
f 219//219 230//230 330//330
f 230//230 249//249 380//380
f 230//230 238//238 237//237
f 230//230 239//239 240//240
f 230//230 237//237 239//239
f 230//230 240//240 251//251
f 230//230 251//251 248//248
f 230//230 248//248 249//249
f 230//230 241//241 238//238
f 230//230 242//242 241//241
f 230//230 243//243 242//242
f 230//230 244//244 243//243
f 230//230 245//245 244//244
f 230//230 246//246 245//245
f 230//230 247//247 246//246
f 230//230 254//254 247//247
f 230//230 255//255 254//254
f 230//230 256//256 255//255
f 230//230 257//257 256//256
f 230//230 258//258 257//257
f 230//230 263//263 258//258
f 230//230 234//234 235//235
f 230//230 235//235 236//236
f 230//230 236//236 268//268
f 230//230 268//268 269//269
f 230//230 264//264 263//263
f 230//230 265//265 264//264
f 230//230 269//269 374//374
f 230//230 374//374 375//375
f 230//230 375//375 376//376
f 230//230 376//376 377//377
f 233//233 292//292 234//234
f 234//234 293//293 235//235
f 235//235 294//294 236//236
f 236//236 327//327 268//268
f 268//268 328//328 269//269
f 269//269 434//434 374//374
f 214//214 272//272 271//271
f 215//215 273//273 272//272
f 212//212 270//270 273//273
f 216//216 274//274 270//270
f 217//217 275//275 274//274
f 218//218 276//276 278//278
f 218//218 277//277 276//276
f 220//220 278//278 275//275
f 272//272 273//273 288//288
f 270//270 274//274 288//288
f 270//270 288//288 273//273
f 276//276 288//288 278//278
f 274//274 275//275 288//288
f 275//275 278//278 288//288
f 276//276 277//277 288//288
f 213//213 271//271 279//279
f 221//221 279//279 280//280
f 222//222 280//280 281//281
f 223//223 281//281 282//282
f 224//224 282//282 283//283
f 225//225 283//283 284//284
f 226//226 284//284 285//285
f 227//227 285//285 286//286
f 228//228 286//286 287//287
f 229//229 287//287 289//289
f 231//231 289//289 290//290
f 232//232 290//290 291//291
f 233//233 291//291 292//292
f 271//271 272//272 288//288
f 271//271 288//288 279//279
f 279//279 288//288 280//280
f 280//280 288//288 281//281
f 281//281 304//304 282//282
f 282//282 313//313 283//283
f 283//283 321//321 284//284
f 281//281 288//288 304//304
f 284//284 418//418 285//285
f 277//277 296//296 288//288
f 277//277 309//309 298//298
f 277//277 307//307 306//306
f 277//277 306//306 309//309
f 277//277 308//308 307//307
f 277//277 311//311 310//310
f 277//277 310//310 308//308
f 277//277 295//295 296//296
f 277//277 297//297 295//295
f 277//277 298//298 297//297
f 211//211 449//449 277//277
f 277//277 317//317 311//311
f 277//277 318//318 317//317
f 277//277 319//319 318//318
f 277//277 320//320 319//319
f 277//277 402//402 320//320
f 277//277 403//403 402//402
f 277//277 404//404 403//403
f 277//277 405//405 404//404
f 277//277 406//406 405//405
f 277//277 407//407 406//406
f 277//277 408//408 407//407
f 277//277 409//409 408//408
f 277//277 410//410 409//409
f 234//234 292//292 293//293
f 235//235 293//293 294//294
f 236//236 294//294 327//327
f 268//268 327//327 328//328
f 269//269 328//328 434//434
f 282//282 304//304 305//305
f 282//282 305//305 312//312
f 282//282 312//312 313//313
f 283//283 313//313 314//314
f 283//283 314//314 315//315
f 283//283 315//315 316//316
f 288//288 296//296 299//299
f 288//288 299//299 300//300
f 288//288 300//300 301//301
f 288//288 301//301 302//302
f 288//288 302//302 303//303
f 288//288 303//303 304//304
f 283//283 316//316 321//321
f 284//284 321//321 322//322
f 284//284 322//322 323//323
f 284//284 323//323 324//324
f 284//284 324//324 325//325
f 284//284 325//325 326//326
f 285//285 449//449 286//286
f 286//286 449//449 287//287
f 284//284 326//326 418//418
f 285//285 418//418 419//419
f 285//285 419//419 420//420
f 287//287 449//449 289//289
f 285//285 420//420 449//449
f 289//289 449//449 290//290
f 290//290 449//449 291//291
f 291//291 449//449 292//292
f 292//292 449//449 293//293
f 293//293 449//449 294//294
f 329//329 333//333 332//332
f 207//207 337//337 333//333
f 332//332 333//333 334//334
f 332//332 334//334 339//339
f 333//333 335//335 334//334
f 333//333 337//337 335//335
f 334//334 335//335 340//340
f 330//330 380//380 338//338
f 211//211 338//338 440//440
f 332//332 339//339 336//336
f 330//330 338//338 337//337
f 335//335 337//337 340//340
f 334//334 340//340 339//339
f 336//336 339//339 340//340
f 205//205 336//336 338//338
f 336//336 337//337 338//338
f 336//336 340//340 337//337
f 338//338 380//380 440//440
f 230//230 380//380 330//330
f 380//380 249//249 250//250
f 380//380 250//250 252//252
f 380//380 252//252 253//253
f 380//380 253//253 259//259
f 380//380 259//259 260//260
f 380//380 260//260 261//261
f 380//380 261//261 262//262
f 380//380 262//262 341//341
f 380//380 341//341 342//342
f 380//380 342//342 343//343
f 380//380 343//343 344//344
f 380//380 344//344 345//345
f 380//380 345//345 346//346
f 380//380 346//346 347//347
f 380//380 347//347 348//348
f 380//380 348//348 349//349
f 380//380 349//349 350//350
f 380//380 350//350 351//351
f 380//380 351//351 363//363
f 380//380 363//363 364//364
f 380//380 364//364 365//365
f 380//380 365//365 366//366
f 380//380 366//366 367//367
f 380//380 367//367 389//389
f 230//230 401//401 265//265
f 230//230 377//377 378//378
f 230//230 378//378 379//379
f 230//230 379//379 390//390
f 230//230 390//390 392//392
f 230//230 392//392 391//391
f 389//389 371//371 373//373
f 389//389 367//367 368//368
f 389//389 368//368 369//369
f 389//389 369//369 370//370
f 389//389 370//370 371//371
f 401//401 266//266 265//265
f 401//401 267//267 266//266
f 396//396 357//357 267//267
f 396//396 358//358 357//357
f 396//396 359//359 358//358
f 396//396 360//360 359//359
f 396//396 361//361 360//360
f 398//398 352//352 362//362
f 396//396 362//362 361//361
f 230//230 399//399 400//400
f 230//230 400//400 401//401
f 397//397 355//355 356//356
f 397//397 372//372 355//355
f 397//397 373//373 372//372
f 398//398 353//353 352//352
f 398//398 354//354 353//353
f 398//398 356//356 354//354
f 230//230 391//391 399//399
f 374//374 435//435 375//375
f 375//375 436//436 376//376
f 376//376 437//437 377//377
f 377//377 438//438 378//378
f 378//378 439//439 379//379
f 380//380 389//389 381//381
f 381//381 389//389 382//382
f 382//382 389//389 383//383
f 383//383 389//389 384//384
f 384//384 389//389 385//385
f 385//385 389//389 386//386
f 386//386 389//389 387//387
f 380//380 381//381 441//441
f 381//381 382//382 441//441
f 382//382 383//383 442//442
f 383//383 384//384 443//443
f 384//384 385//385 444//444
f 385//385 386//386 445//445
f 386//386 387//387 446//446
f 387//387 388//388 447//447
f 389//389 373//373 395//395
f 396//396 267//267 401//401
f 395//395 373//373 397//397
f 396//396 398//398 362//362
f 397//397 356//356 398//398
f 387//387 389//389 388//388
f 388//388 389//389 393//393
f 389//389 394//394 393//393
f 389//389 395//395 394//394
f 379//379 450//450 390//390
f 390//390 452//452 392//392
f 391//391 392//392 451//451
f 388//388 393//393 448//448
f 393//393 394//394 453//453
f 394//394 395//395 454//454
f 396//396 401//401 456//456
f 395//395 397//397 455//455
f 397//397 398//398 457//457
f 396//396 458//458 398//398
f 391//391 459//459 399//399
f 399//399 460//460 400//400
f 400//400 461//461 401//401
f 211//211 440//440 449//449
f 277//277 449//449 410//410
f 374//374 434//434 435//435
f 375//375 435//435 436//436
f 376//376 436//436 437//437
f 377//377 437//437 438//438
f 378//378 438//438 439//439
f 379//379 439//439 450//450
f 449//449 420//420 421//421
f 449//449 421//421 422//422
f 294//294 449//449 327//327
f 327//327 449//449 328//328
f 328//328 449//449 434//434
f 434//434 449//449 435//435
f 449//449 411//411 410//410
f 449//449 412//412 411//411
f 449//449 423//423 412//412
f 449//449 424//424 423//423
f 449//449 425//425 424//424
f 449//449 426//426 425//425
f 449//449 422//422 413//413
f 449//449 413//413 414//414
f 449//449 414//414 415//415
f 449//449 415//415 417//417
f 449//449 417//417 416//416
f 449//449 416//416 432//432
f 449//449 433//433 431//431
f 449//449 432//432 433//433
f 449//449 427//427 426//426
f 449//449 428//428 427//427
f 449//449 429//429 428//428
f 449//449 430//430 429//429
f 449//449 431//431 430//430
f 435//435 449//449 436//436
f 436//436 449//449 437//437
f 437//437 449//449 438//438
f 438//438 449//449 439//439
f 380//380 441//441 440//440
f 382//382 442//442 441//441
f 383//383 443//443 442//442
f 384//384 444//444 443//443
f 385//385 445//445 444//444
f 386//386 446//446 445//445
f 387//387 447//447 446//446
f 388//388 448//448 447//447
f 440//440 441//441 442//442
f 440//440 442//442 443//443
f 440//440 443//443 444//444
f 440//440 454//454 449//449
f 440//440 444//444 445//445
f 440//440 445//445 446//446
f 440//440 446//446 447//447
f 440//440 447//447 448//448
f 440//440 448//448 453//453
f 440//440 453//453 454//454
f 390//390 450//450 452//452
f 391//391 451//451 459//459
f 392//392 452//452 451//451
f 393//393 453//453 448//448
f 394//394 454//454 453//453
f 395//395 455//455 454//454
f 396//396 456//456 458//458
f 398//398 458//458 457//457
f 397//397 457//457 455//455
f 399//399 459//459 460//460
f 400//400 460//460 461//461
f 401//401 461//461 456//456
f 449//449 460//460 459//459
f 439//439 449//449 450//450
f 449//449 452//452 450//450
f 449//449 451//451 452//452
f 449//449 459//459 451//451
f 449//449 454//454 455//455
f 449//449 455//455 457//457
f 449//449 461//461 460//460
f 449//449 456//456 461//461
f 449//449 458//458 456//456
f 449//449 457//457 458//458
f 65//65 31//31 29//29
f 66//66 29//29 30//30
f 82//82 30//30 46//46
f 67//67 32//32 31//31
f 68//68 33//33 32//32
f 69//69 34//34 33//33
f 70//70 35//35 34//34
f 36//36 35//35 71//71
f 37//37 36//36 72//72
f 38//38 37//37 73//73
f 39//39 38//38 74//74
f 50//50 39//39 75//75
f 49//49 40//40 76//76
f 40//40 41//41 77//77
f 41//41 42//42 78//78
f 42//42 43//43 79//79
f 43//43 44//44 80//80
f 44//44 104//104 143//143
f 81//81 46//46 45//45
f 45//45 47//47 83//83
f 47//47 48//48 84//84
f 48//48 49//49 85//85
f 51//51 50//50 86//86
f 52//52 51//51 87//87
f 53//53 52//52 88//88
f 54//54 53//53 89//89
f 55//55 54//54 90//90
f 56//56 55//55 91//91
f 57//57 56//56 92//92
f 58//58 57//57 93//93
f 59//59 58//58 94//94
f 59//59 95//95 110//110
f 66//66 65//65 29//29
f 82//82 66//66 30//30
f 68//68 69//69 33//33
f 67//67 68//68 32//32
f 65//65 67//67 31//31
f 69//69 70//70 34//34
f 70//70 71//71 35//35
f 36//36 71//71 72//72
f 37//37 72//72 73//73
f 38//38 73//73 74//74
f 39//39 74//74 75//75
f 50//50 75//75 86//86
f 76//76 85//85 49//49
f 40//40 77//77 76//76
f 78//78 77//77 41//41
f 79//79 78//78 42//42
f 80//80 79//79 43//43
f 143//143 80//80 44//44
f 83//83 81//81 45//45
f 81//81 82//82 46//46
f 47//47 84//84 83//83
f 48//48 85//85 84//84
f 51//51 86//86 87//87
f 52//52 87//87 88//88
f 53//53 88//88 89//89
f 54//54 89//89 90//90
f 55//55 90//90 91//91
f 56//56 91//91 92//92
f 57//57 92//92 93//93
f 58//58 93//93 94//94
f 59//59 94//94 95//95
f 110//110 95//95 149//149
f 104//104 105//105 144//144
f 105//105 106//106 145//145
f 106//106 107//107 146//146
f 107//107 108//108 147//147
f 108//108 109//109 148//148
f 109//109 115//115 154//154
f 110//110 149//149 111//111
f 112//112 111//111 150//150
f 113//113 112//112 151//151
f 114//114 113//113 152//152
f 120//120 114//114 153//153
f 115//115 116//116 155//155
f 116//116 117//117 156//156
f 117//117 118//118 157//157
f 118//118 119//119 158//158
f 121//121 120//120 159//159
f 123//123 121//121 160//160
f 122//122 125//125 164//164
f 124//124 123//123 162//162
f 125//125 124//124 163//163
f 119//119 126//126 165//165
f 126//126 127//127 166//166
f 127//127 128//128 167//167
f 128//128 129//129 168//168
f 129//129 130//130 169//169
f 130//130 131//131 170//170
f 131//131 132//132 171//171
f 136//136 134//134 173//173
f 133//133 122//122 161//161
f 134//134 133//133 172//172
f 132//132 135//135 174//174
f 135//135 136//136 175//175
f 104//104 144//144 143//143
f 105//105 145//145 144//144
f 106//106 146//146 145//145
f 107//107 147//147 146//146
f 108//108 148//148 147//147
f 154//154 148//148 109//109
f 111//111 149//149 150//150
f 112//112 150//150 151//151
f 113//113 151//151 152//152
f 152//152 153//153 114//114
f 115//115 155//155 154//154
f 156//156 155//155 116//116
f 117//117 157//157 156//156
f 118//118 158//158 157//157
f 120//120 153//153 159//159
f 121//121 159//159 160//160
f 123//123 160//160 162//162
f 122//122 164//164 161//161
f 124//124 162//162 163//163
f 125//125 163//163 164//164
f 165//165 158//158 119//119
f 126//126 166//166 165//165
f 167//167 166//166 127//127
f 168//168 167//167 128//128
f 169//169 168//168 129//129
f 170//170 169//169 130//130
f 131//131 171//171 170//170
f 132//132 174//174 171//171
f 133//133 161//161 172//172
f 134//134 172//172 173//173
f 135//135 175//175 174//174
f 136//136 173//173 175//175
f 295//295 239//239 237//237
f 296//296 237//237 238//238
f 297//297 240//240 239//239
f 298//298 251//251 240//240
f 299//299 238//238 241//241
f 300//300 241//241 242//242
f 301//301 242//242 243//243
f 243//243 244//244 302//302
f 303//303 244//244 245//245
f 245//245 246//246 304//304
f 305//305 246//246 247//247
f 312//312 247//247 254//254
f 306//306 249//249 248//248
f 307//307 250//250 249//249
f 309//309 248//248 251//251
f 308//308 252//252 250//250
f 310//310 253//253 252//252
f 311//311 259//259 253//253
f 254//254 255//255 313//313
f 314//314 255//255 256//256
f 315//315 256//256 257//257
f 316//316 257//257 258//258
f 317//317 260//260 259//259
f 318//318 261//261 260//260
f 319//319 262//262 261//261
f 320//320 341//341 262//262
f 321//321 258//258 263//263
f 322//322 263//263 264//264
f 323//323 264//264 265//265
f 324//324 265//265 266//266
f 325//325 266//266 267//267
f 267//267 357//357 326//326
f 296//296 295//295 237//237
f 299//299 296//296 238//238
f 297//297 298//298 240//240
f 298//298 309//309 251//251
f 295//295 297//297 239//239
f 300//300 299//299 241//241
f 301//301 300//300 242//242
f 302//302 301//301 243//243
f 303//303 302//302 244//244
f 304//304 303//303 245//245
f 305//305 304//304 246//246
f 312//312 305//305 247//247
f 306//306 307//307 249//249
f 307//307 308//308 250//250
f 309//309 306//306 248//248
f 308//308 310//310 252//252
f 310//310 311//311 253//253
f 313//313 312//312 254//254
f 314//314 313//313 255//255
f 315//315 314//314 256//256
f 316//316 315//315 257//257
f 311//311 317//317 259//259
f 317//317 318//318 260//260
f 318//318 319//319 261//261
f 319//319 320//320 262//262
f 320//320 402//402 341//341
f 321//321 316//316 258//258
f 322//322 321//321 263//263
f 323//323 322//322 264//264
f 324//324 323//323 265//265
f 325//325 324//324 266//266
f 326//326 325//325 267//267
f 402//402 342//342 341//341
f 403//403 343//343 342//342
f 404//404 344//344 343//343
f 405//405 345//345 344//344
f 406//406 346//346 345//345
f 407//407 347//347 346//346
f 408//408 348//348 347//347
f 409//409 349//349 348//348
f 410//410 350//350 349//349
f 411//411 351//351 350//350
f 414//414 352//352 353//353
f 415//415 353//353 354//354
f 356//356 355//355 416//416
f 417//417 354//354 356//356
f 418//418 357//357 358//358
f 419//419 358//358 359//359
f 420//420 359//359 360//360
f 421//421 360//360 361//361
f 422//422 361//361 362//362
f 362//362 352//352 413//413
f 412//412 363//363 351//351
f 423//423 364//364 363//363
f 424//424 365//365 364//364
f 425//425 366//366 365//365
f 426//426 367//367 366//366
f 427//427 368//368 367//367
f 428//428 369//369 368//368
f 373//373 371//371 431//431
f 430//430 371//371 370//370
f 429//429 370//370 369//369
f 432//432 355//355 372//372
f 433//433 372//372 373//373
f 402//402 403//403 342//342
f 403//403 404//404 343//343
f 404//404 405//405 344//344
f 405//405 406//406 345//345
f 406//406 407//407 346//346
f 407//407 408//408 347//347
f 408//408 409//409 348//348
f 409//409 410//410 349//349
f 410//410 411//411 350//350
f 411//411 412//412 351//351
f 414//414 413//413 352//352
f 415//415 414//414 353//353
f 417//417 415//415 354//354
f 416//416 417//417 356//356
f 418//418 326//326 357//357
f 419//419 418//418 358//358
f 420//420 419//419 359//359
f 421//421 420//420 360//360
f 422//422 421//421 361//361
f 413//413 422//422 362//362
f 412//412 423//423 363//363
f 423//423 424//424 364//364
f 424//424 425//425 365//365
f 425//425 426//426 366//366
f 426//426 427//427 367//367
f 427//427 428//428 368//368
f 428//428 429//429 369//369
f 429//429 430//430 370//370
f 430//430 431//431 371//371
f 432//432 416//416 355//355
f 433//433 432//432 372//372
f 431//431 433//433 373//373
