# https://github.com/mikedh/trimesh

o v3_part2_tip.obj
v -9.51589966 -15.00000000 -11.59515667
v -5.74025154 -15.00000000 -13.85819340
v -7.07095098 -15.00000000 -13.22881889
v -4.35426998 -15.00000000 -14.35410500
v -2.92635489 -15.00000000 -14.71177959
v -8.33355331 -15.00000000 -12.47204399
v -10.60660172 -15.00000000 -10.60660172
v -11.59515667 -15.00000000 -9.51589966
v -12.47204399 -15.00000000 -8.33355331
v -1.47025716 -15.00000000 -14.92777061
v -0.00000000 -15.00000000 -15.00000000
v 1.47025716 -15.00000000 -14.92777061
v 2.92635489 -15.00000000 -14.71177959
v 4.35426998 -15.00000000 -14.35410500
v 5.74025154 -15.00000000 -13.85819340
v 7.07095098 -15.00000000 -13.22881889
v 8.33355331 -15.00000000 -12.47204399
v 9.51589966 -15.00000000 -11.59515667
v 0.00000000 -15.00000000 -9.00000000
v -13.22881889 -15.00000000 -7.07095098
v -13.85819340 -15.00000000 -5.74025154
v -14.35410500 -15.00000000 -4.35426998
v -14.71177959 -15.00000000 -2.92635489
v -14.92777061 -15.00000000 -1.47025716
v -1.06064260 -15.00000000 -1.98432279
v -0.65314054 -15.00000000 -2.15311575
v -0.22053857 -15.00000000 -2.23916554
v -0.43895322 -15.00000000 -2.20676684
v -0.86103773 -15.00000000 -2.07872891
v -0.00000000 -15.00000000 -2.25000000
v 0.22053857 -15.00000000 -2.23916554
v 0.43895322 -15.00000000 -2.20676684
v 0.65314054 -15.00000000 -2.15311575
v 0.86103773 -15.00000000 -2.07872891
v 1.06064260 -15.00000000 -1.98432279
v -1.73927355 -15.00000000 -1.42738485
v -1.42738485 -15.00000000 -1.73927355
v -1.25003302 -15.00000000 -1.87080657
v -1.59099030 -15.00000000 -1.59099030
v -1.87080657 -15.00000000 -1.25003302
v -1.98432279 -15.00000000 -1.06064260
v -2.07872891 -15.00000000 -0.86103773
v -2.15311575 -15.00000000 -0.65314054
v -2.20676684 -15.00000000 -0.43895322
v -2.23916554 -15.00000000 -0.22053857
v 1.25003302 -15.00000000 -1.87080657
v 1.42738485 -15.00000000 -1.73927355
v 1.59099030 -15.00000000 -1.59099030
v 1.73927355 -15.00000000 -1.42738485
v 1.87080657 -15.00000000 -1.25003302
v 1.98432279 -15.00000000 -1.06064260
v 2.07872891 -15.00000000 -0.86103773
v 2.15311575 -15.00000000 -0.65314054
v 2.20676684 -15.00000000 -0.43895322
v 2.23916554 -15.00000000 -0.22053857
v -9.51589966 -0.50000000 -11.59515667
v -5.74025154 -0.50000000 -13.85819340
v -7.07095098 -0.50000000 -13.22881889
v -4.35426998 -0.50000000 -14.35410500
v -2.92635489 -0.50000000 -14.71177959
v -8.33355331 -0.50000000 -12.47204399
v -10.60660172 -0.50000000 -10.60660172
v -11.59515667 -0.50000000 -9.51589966
v -12.47204399 -0.50000000 -8.33355331
v -1.47025716 -0.50000000 -14.92777061
v -0.00000000 -0.50000000 -15.00000000
v 1.47025716 -0.50000000 -14.92777061
v 2.92635489 -0.50000000 -14.71177959
v 4.35426998 -0.50000000 -14.35410500
v 5.74025154 -0.50000000 -13.85819340
v 7.07095098 -0.50000000 -13.22881889
v 8.33355331 -0.50000000 -12.47204399
v 9.51589966 -0.50000000 -11.59515667
v 0.00000000 -0.50000000 -9.00000000
v -13.22881889 -0.50000000 -7.07095098
v -13.85819340 -0.50000000 -5.74025154
v -14.35410500 -0.50000000 -4.35426998
v -14.71177959 -0.50000000 -2.92635489
v -14.92777061 -0.50000000 -1.47025716
v -1.06064260 -0.50000000 -1.98432279
v -0.65314054 -0.50000000 -2.15311575
v -0.22053857 -0.50000000 -2.23916554
v -0.43895322 -0.50000000 -2.20676684
v -0.86103773 -0.50000000 -2.07872891
v 0.00000000 -0.50000000 -2.25000000
v 0.22053857 -0.50000000 -2.23916554
v 0.43895322 -0.50000000 -2.20676684
v 0.65314054 -0.50000000 -2.15311575
v 0.86103773 -0.50000000 -2.07872891
v 1.06064260 -0.50000000 -1.98432279
v -1.73927355 -0.50000000 -1.42738485
v -1.42738485 -0.50000000 -1.73927355
v -1.25003302 -0.50000000 -1.87080657
v -1.59099030 -0.50000000 -1.59099030
v -1.87080657 -0.50000000 -1.25003302
v -1.98432279 -0.50000000 -1.06064260
v -2.07872891 -0.50000000 -0.86103773
v -2.15311575 -0.50000000 -0.65314054
v -2.20676684 -0.50000000 -0.43895322
v -2.23916554 -0.50000000 -0.22053857
v 1.25003302 -0.50000000 -1.87080657
v 1.42738485 -0.50000000 -1.73927355
v 1.59099030 -0.50000000 -1.59099030
v 1.73927355 -0.50000000 -1.42738485
v 1.87080657 -0.50000000 -1.25003302
v 1.98432279 -0.50000000 -1.06064260
v 2.07872891 -0.50000000 -0.86103773
v 2.15311575 -0.50000000 -0.65314054
v 2.20676684 -0.50000000 -0.43895322
v 2.23916554 -0.50000000 -0.22053857
v 10.60660172 -15.00000000 -10.60660172
v 11.59515667 -15.00000000 -9.51589966
v 11.97777367 -15.00000000 -9.00000000
v 10.60660172 -0.50000000 -10.60660172
v 11.59515667 -0.50000000 -9.51589966
v 11.97777367 -0.50000000 -9.00000000
v -15.00000000 -15.00000000 0.00000000
v -14.92777061 -15.00000000 1.47025716
v -14.71177959 -15.00000000 2.92635489
v -14.35410500 -15.00000000 4.35426998
v -13.85819340 -15.00000000 5.74025154
v -13.22881889 -15.00000000 7.07095098
v -2.25000000 -15.00000000 0.00000000
v -2.23916554 -15.00000000 0.22053857
v -2.20676684 -15.00000000 0.43895322
v -2.15311575 -15.00000000 0.65314054
v -2.07872891 -15.00000000 0.86103773
v -1.98432279 -15.00000000 1.06064260
v -1.87080657 -15.00000000 1.25003302
v -1.73927355 -15.00000000 1.42738485
v -1.59099030 -15.00000000 1.59099030
v -1.42738485 -15.00000000 1.73927355
v -1.25003302 -15.00000000 1.87080657
v 2.15311575 -15.00000000 0.65314054
v 2.07872891 -15.00000000 0.86103773
v 2.25000000 -15.00000000 0.00000000
v 2.23916554 -15.00000000 0.22053857
v 2.20676684 -15.00000000 0.43895322
v 1.98432279 -15.00000000 1.06064260
v 1.87080657 -15.00000000 1.25003302
v 1.25003302 -15.00000000 1.87080657
v 1.73927355 -15.00000000 1.42738485
v 1.59099030 -15.00000000 1.59099030
v 1.42738485 -15.00000000 1.73927355
v -1.06064260 -15.00000000 1.98432279
v -0.86103773 -15.00000000 2.07872891
v -0.65314054 -15.00000000 2.15311575
v -0.43895322 -15.00000000 2.20676684
v -0.22053857 -15.00000000 2.23916554
v 0.00000000 -15.00000000 2.25000000
v 0.22053857 -15.00000000 2.23916554
v 0.43895322 -15.00000000 2.20676684
v 0.86103773 -15.00000000 2.07872891
v 1.06064260 -15.00000000 1.98432279
v 0.65314054 -15.00000000 2.15311575
v -12.47204399 -15.00000000 8.33355331
v -11.59515667 -15.00000000 9.51589966
v -10.60660172 -15.00000000 10.60660172
v -9.51589966 -15.00000000 11.59515667
v -8.33355331 -15.00000000 12.47204399
v -7.07095098 -15.00000000 13.22881889
v -5.74025154 -15.00000000 13.85819340
v -4.35426998 -15.00000000 14.35410500
v -2.92635489 -15.00000000 14.71177959
v 0.00000000 -15.00000000 9.00000000
v -1.47025716 -15.00000000 14.92777061
v 0.00000000 -15.00000000 15.00000000
v 1.47025716 -15.00000000 14.92777061
v 2.92635489 -15.00000000 14.71177959
v 9.51589966 -15.00000000 11.59515667
v 8.33355331 -15.00000000 12.47204399
v 5.74025154 -15.00000000 13.85819340
v 4.35426998 -15.00000000 14.35410500
v 7.07095098 -15.00000000 13.22881889
v -15.00000000 -0.50000000 0.00000000
v -14.92777061 -0.50000000 1.47025716
v -14.71177959 -0.50000000 2.92635489
v -14.35410500 -0.50000000 4.35426998
v -13.85819340 -0.50000000 5.74025154
v -13.22881889 -0.50000000 7.07095098
v -2.25000000 -0.50000000 0.00000000
v -2.23916554 -0.50000000 0.22053857
v -2.20676684 -0.50000000 0.43895322
v -2.15311575 -0.50000000 0.65314054
v -2.07872891 -0.50000000 0.86103773
v -1.98432279 -0.50000000 1.06064260
v -1.87080657 -0.50000000 1.25003302
v -1.73927355 -0.50000000 1.42738485
v -1.59099030 -0.50000000 1.59099030
v -1.42738485 -0.50000000 1.73927355
v -1.25003302 -0.50000000 1.87080657
v 2.15311575 -0.50000000 0.65314054
v 2.07872891 -0.50000000 0.86103773
v 2.25000000 -0.50000000 0.00000000
v 2.23916554 -0.50000000 0.22053857
v 2.20676684 -0.50000000 0.43895322
v 1.98432279 -0.50000000 1.06064260
v 1.87080657 -0.50000000 1.25003302
v 1.25003302 -0.50000000 1.87080657
v 1.73927355 -0.50000000 1.42738485
v 1.59099030 -0.50000000 1.59099030
v 1.42738485 -0.50000000 1.73927355
v -1.06064260 -0.50000000 1.98432279
v -0.86103773 -0.50000000 2.07872891
v -0.65314054 -0.50000000 2.15311575
v -0.43895322 -0.50000000 2.20676684
v -0.22053857 -0.50000000 2.23916554
v 0.00000000 -0.50000000 2.25000000
v 0.22053857 -0.50000000 2.23916554
v 0.43895322 -0.50000000 2.20676684
v 0.86103773 -0.50000000 2.07872891
v 1.06064260 -0.50000000 1.98432279
v 0.65314054 -0.50000000 2.15311575
v -12.47204399 -0.50000000 8.33355331
v -11.59515667 -0.50000000 9.51589966
v -10.60660172 -0.50000000 10.60660172
v -9.51589966 -0.50000000 11.59515667
v -8.33355331 -0.50000000 12.47204399
v -7.07095098 -0.50000000 13.22881889
v -5.74025154 -0.50000000 13.85819340
v -4.35426998 -0.50000000 14.35410500
v -2.92635489 -0.50000000 14.71177959
v 0.00000000 -0.50000000 9.00000000
v -1.47025716 -0.50000000 14.92777061
v 0.00000000 -0.50000000 15.00000000
v 1.47025716 -0.50000000 14.92777061
v 2.92635489 -0.50000000 14.71177959
v 9.51589966 -0.50000000 11.59515667
v 8.33355331 -0.50000000 12.47204399
v 5.74025154 -0.50000000 13.85819340
v 4.35426998 -0.50000000 14.35410500
v 7.07095098 -0.50000000 13.22881889
v 11.97777367 -15.00000000 9.00000000
v 11.59515667 -15.00000000 9.51589966
v 10.60660172 -15.00000000 10.60660172
v 11.97777367 -0.50000000 9.00000000
v 11.59515667 -0.50000000 9.51589966
v 10.60660172 -0.50000000 10.60660172
v 40.00000000 -15.00000000 -9.00000000
v 40.00000000 -0.50000000 -9.00000000
v 85.00000000 -15.00000000 -9.00000000
v 40.00000000 -15.00000000 9.00000000
v 40.00000000 -0.50000000 9.00000000
v 85.00000000 -15.00000000 9.00000000
v 40.00000000 15.00000000 -9.00000000
v 85.00000000 15.00000000 -9.00000000
v 59.64301682 2.59039378 9.00000000
v 58.82803345 3.13494778 9.00000000
v 59.22214890 2.84265184 9.00000000
v 58.46446609 3.46446609 9.00000000
v 59.64301682 2.59039378 12.00000000
v 58.82803345 3.13494778 12.00000000
v 59.22214890 2.84265184 12.00000000
v 58.46446609 3.46446609 12.00000000
v 58.13494873 3.82803369 9.00000000
v 57.59039307 4.64301634 9.00000000
v 57.84265137 4.22214890 9.00000000
v 57.38060379 5.08658266 9.00000000
v 57.21529770 5.54857683 9.00000000
v 57.09607315 6.02454853 9.00000000
v 57.02407455 6.50991440 9.00000000
v 57.00000000 7.00000000 9.00000000
v 57.02407455 7.49008560 9.00000000
v 58.13494873 3.82803369 12.00000000
v 57.59039307 4.64301634 12.00000000
v 57.84265137 4.22214890 12.00000000
v 57.38060379 5.08658266 12.00000000
v 57.21529770 5.54857683 12.00000000
v 57.09607315 6.02454853 12.00000000
v 57.02407455 6.50991440 12.00000000
v 57.00000000 7.00000000 12.00000000
v 57.02407455 7.49008560 12.00000000
v 40.00000000 15.00000000 9.00000000
v 57.09607315 7.97545147 9.00000000
v 57.21529770 8.45142365 9.00000000
v 57.38060379 8.91341686 9.00000000
v 57.59039307 9.35698414 9.00000000
v 57.84265137 9.77785110 9.00000000
v 58.13494873 10.17196655 9.00000000
v 58.46446609 10.53553391 9.00000000
v 58.82803345 10.86505222 9.00000000
v 59.22214890 11.15734768 9.00000000
v 57.09607315 7.97545147 12.00000000
v 57.21529770 8.45142365 12.00000000
v 57.38060379 8.91341686 12.00000000
v 57.59039307 9.35698414 12.00000000
v 57.84265137 9.77785110 12.00000000
v 58.13494873 10.17196655 12.00000000
v 58.46446609 10.53553391 12.00000000
v 58.82803345 10.86505222 12.00000000
v 59.22214890 11.15734768 12.00000000
v 59.64301682 11.40960598 9.00000000
v 59.64301682 11.40960598 12.00000000
v 60.54857635 2.21529841 9.00000000
v 61.02454758 2.09607363 9.00000000
v 61.50991440 2.02407646 9.00000000
v 60.08658218 2.38060236 9.00000000
v 62.00000000 2.00000000 9.00000000
v 62.49008560 2.02407646 9.00000000
v 62.97545242 2.09607363 9.00000000
v 63.45142365 2.21529841 9.00000000
v 63.91341782 2.38060236 9.00000000
v 64.35698700 2.59039378 9.00000000
v 64.77785492 2.84265184 9.00000000
v 65.17196655 3.13494778 9.00000000
v 65.53553772 3.46446609 9.00000000
v 60.54857635 2.21529841 12.00000000
v 61.02454758 2.09607363 12.00000000
v 61.50991440 2.02407646 12.00000000
v 60.08658218 2.38060236 12.00000000
v 62.00000000 2.00000000 12.00000000
v 62.49008560 2.02407646 12.00000000
v 62.97545242 2.09607363 12.00000000
v 63.45142365 2.21529841 12.00000000
v 63.91341782 2.38060236 12.00000000
v 64.35698700 2.59039378 12.00000000
v 64.77785492 2.84265184 12.00000000
v 65.17196655 3.13494778 12.00000000
v 65.53553772 3.46446609 12.00000000
v 65.86505127 3.82803369 9.00000000
v 66.15734863 4.22214890 9.00000000
v 66.40960693 4.64301634 9.00000000
v 66.61940002 5.08658266 9.00000000
v 66.78469849 5.54857683 9.00000000
v 66.90392303 6.02454853 9.00000000
v 66.97592163 6.50991440 9.00000000
v 67.00000000 7.00000000 9.00000000
v 66.97592163 7.49008560 9.00000000
v 65.86505127 3.82803369 12.00000000
v 66.15734863 4.22214890 12.00000000
v 62.00000000 7.00000000 12.00000000
v 66.40960693 4.64301634 12.00000000
v 66.61940002 5.08658266 12.00000000
v 66.78469849 5.54857683 12.00000000
v 66.90392303 6.02454853 12.00000000
v 66.97592163 6.50991440 12.00000000
v 67.00000000 7.00000000 12.00000000
v 66.97592163 7.49008560 12.00000000
v 66.15734863 9.77785110 9.00000000
v 65.86505127 10.17196655 9.00000000
v 65.53553772 10.53553391 9.00000000
v 65.17196655 10.86505222 9.00000000
v 64.77785492 11.15734768 9.00000000
v 66.90392303 7.97545147 9.00000000
v 66.78469849 8.45142365 9.00000000
v 66.61940002 8.91341686 9.00000000
v 66.40960693 9.35698414 9.00000000
v 66.15734863 9.77785110 12.00000000
v 65.86505127 10.17196655 12.00000000
v 65.53553772 10.53553391 12.00000000
v 65.17196655 10.86505222 12.00000000
v 64.77785492 11.15734768 12.00000000
v 66.90392303 7.97545147 12.00000000
v 66.78469849 8.45142365 12.00000000
v 66.61940002 8.91341686 12.00000000
v 66.40960693 9.35698414 12.00000000
v 60.08658218 11.61939812 9.00000000
v 60.54857635 11.78470135 9.00000000
v 61.02454758 11.90392685 9.00000000
v 61.50991440 11.97592354 9.00000000
v 62.00000000 12.00000000 9.00000000
v 62.97545242 11.90392685 9.00000000
v 62.49008560 11.97592354 9.00000000
v 64.35698700 11.40960598 9.00000000
v 63.91341782 11.61939812 9.00000000
v 63.45142365 11.78470135 9.00000000
v 60.08658218 11.61939812 12.00000000
v 60.54857635 11.78470135 12.00000000
v 61.02454758 11.90392685 12.00000000
v 61.50991440 11.97592354 12.00000000
v 62.00000000 12.00000000 12.00000000
v 62.97545242 11.90392685 12.00000000
v 62.49008560 11.97592354 12.00000000
v 64.35698700 11.40960598 12.00000000
v 63.91341782 11.61939812 12.00000000
v 63.45142365 11.78470135 12.00000000
v 85.00000000 15.00000000 9.00000000
vn -0.45538079 -0.69622767 -0.55488319
vn -0.27469822 -0.69622764 -0.66318018
vn -0.33837860 -0.69622774 -0.63306149
vn -0.20837240 -0.69622779 -0.68691179
vn -0.14003989 -0.69622763 -0.70402835
vn -0.39879990 -0.69622776 -0.59684634
vn -0.50757607 -0.69622774 -0.50757607
vn -0.55488319 -0.69622767 -0.45538079
vn -0.59684634 -0.69622776 -0.39879990
vn -0.07035866 -0.69622779 -0.71436442
vn -0.00000000 -0.69622767 -0.71782103
vn 0.07035866 -0.69622779 -0.71436442
vn 0.14003989 -0.69622763 -0.70402835
vn 0.20837240 -0.69622779 -0.68691179
vn 0.27469822 -0.69622764 -0.66318018
vn 0.33837860 -0.69622774 -0.63306149
vn 0.39879990 -0.69622776 -0.59684634
vn 0.45538079 -0.69622767 -0.55488319
vn 0.00000000 -1.00000000 0.00000000
vn -0.63306149 -0.69622774 -0.33837860
vn -0.66318018 -0.69622764 -0.27469822
vn -0.68691179 -0.69622779 -0.20837240
vn -0.70402835 -0.69622763 -0.14003989
vn -0.71436442 -0.69622779 -0.07035866
vn 0.32795702 -0.71831954 0.61356436
vn 0.20195489 -0.71831962 0.66575607
vn 0.06819190 -0.71831950 0.69236331
vn 0.13572679 -0.71831959 0.68234538
vn 0.26623806 -0.71831958 0.64275522
vn -0.00000000 -0.71831968 0.69571319
vn -0.06819190 -0.71831950 0.69236331
vn -0.13572679 -0.71831959 0.68234538
vn -0.20195489 -0.71831962 0.66575607
vn -0.26623806 -0.71831958 0.64275522
vn -0.32795702 -0.71831954 0.61356436
vn 0.53779377 -0.71831957 0.44135571
vn 0.44135571 -0.71831957 0.53779377
vn 0.38651750 -0.71831957 0.57846454
vn 0.49194354 -0.71831965 0.49194354
vn 0.57846454 -0.71831957 0.38651750
vn 0.61356436 -0.71831954 0.32795702
vn 0.64275522 -0.71831958 0.26623806
vn 0.66575607 -0.71831962 0.20195489
vn 0.68234538 -0.71831959 0.13572679
vn 0.69236331 -0.71831950 0.06819190
vn -0.38651750 -0.71831957 0.57846454
vn -0.44135571 -0.71831957 0.53779377
vn -0.49194354 -0.71831965 0.49194354
vn -0.53779377 -0.71831957 0.44135571
vn -0.57846454 -0.71831957 0.38651750
vn -0.61356436 -0.71831954 0.32795702
vn -0.64275522 -0.71831958 0.26623806
vn -0.66575607 -0.71831962 0.20195489
vn -0.68234538 -0.71831959 0.13572679
vn -0.69236331 -0.71831950 0.06819190
vn -0.45538079 0.69622767 -0.55488319
vn -0.27469822 0.69622764 -0.66318018
vn -0.33837860 0.69622774 -0.63306149
vn -0.20837240 0.69622779 -0.68691179
vn -0.14003989 0.69622763 -0.70402835
vn -0.39879990 0.69622776 -0.59684634
vn -0.50757607 0.69622774 -0.50757607
vn -0.55488319 0.69622767 -0.45538079
vn -0.59684634 0.69622776 -0.39879990
vn -0.07035866 0.69622779 -0.71436442
vn -0.00000000 0.69622767 -0.71782103
vn 0.07035866 0.69622779 -0.71436442
vn 0.14003989 0.69622763 -0.70402835
vn 0.20837240 0.69622779 -0.68691179
vn 0.27469822 0.69622764 -0.66318018
vn 0.33837860 0.69622774 -0.63306149
vn 0.39879990 0.69622776 -0.59684634
vn 0.45538079 0.69622767 -0.55488319
vn 0.00000000 1.00000000 0.00000000
vn -0.63306149 0.69622774 -0.33837860
vn -0.66318018 0.69622764 -0.27469822
vn -0.68691179 0.69622779 -0.20837240
vn -0.70402835 0.69622763 -0.14003989
vn -0.71436442 0.69622779 -0.07035866
vn 0.32795702 0.71831954 0.61356436
vn 0.20195489 0.71831962 0.66575607
vn 0.06819190 0.71831950 0.69236331
vn 0.13572679 0.71831959 0.68234538
vn 0.26623806 0.71831958 0.64275522
vn 0.00000000 0.71831968 0.69571319
vn -0.06819190 0.71831950 0.69236331
vn -0.13572679 0.71831959 0.68234538
vn -0.20195489 0.71831962 0.66575607
vn -0.26623806 0.71831958 0.64275522
vn -0.32795702 0.71831954 0.61356436
vn 0.53779377 0.71831957 0.44135571
vn 0.44135571 0.71831957 0.53779377
vn 0.38651750 0.71831957 0.57846454
vn 0.49194354 0.71831965 0.49194354
vn 0.57846454 0.71831957 0.38651750
vn 0.61356436 0.71831954 0.32795702
vn 0.64275522 0.71831958 0.26623806
vn 0.66575607 0.71831962 0.20195489
vn 0.68234538 0.71831959 0.13572679
vn 0.69236331 0.71831950 0.06819190
vn -0.38651750 0.71831957 0.57846454
vn -0.44135571 0.71831957 0.53779377
vn -0.49194354 0.71831965 0.49194354
vn -0.53779377 0.71831957 0.44135571
vn -0.57846454 0.71831957 0.38651750
vn -0.61356436 0.71831954 0.32795702
vn -0.64275522 0.71831958 0.26623806
vn -0.66575607 0.71831962 0.20195489
vn -0.68234538 0.71831959 0.13572679
vn -0.69236331 0.71831950 0.06819190
vn 0.50757607 -0.69622774 -0.50757607
vn 0.55488321 -0.69622767 -0.45538078
vn 0.25503236 -0.82356059 -0.50666207
vn 0.50757607 0.69622774 -0.50757607
vn 0.55488321 0.69622767 -0.45538078
vn 0.25503236 0.82356059 -0.50666207
vn -0.71782103 -0.69622767 0.00000000
vn -0.71436442 -0.69622779 0.07035866
vn -0.70402835 -0.69622763 0.14003989
vn -0.68691179 -0.69622779 0.20837240
vn -0.66318018 -0.69622764 0.27469822
vn -0.63306149 -0.69622774 0.33837860
vn 0.69571319 -0.71831968 0.00000000
vn 0.69236331 -0.71831950 -0.06819190
vn 0.68234538 -0.71831959 -0.13572679
vn 0.66575607 -0.71831962 -0.20195489
vn 0.64275522 -0.71831958 -0.26623806
vn 0.61356436 -0.71831954 -0.32795702
vn 0.57846454 -0.71831957 -0.38651750
vn 0.53779377 -0.71831957 -0.44135571
vn 0.49194354 -0.71831965 -0.49194354
vn 0.44135571 -0.71831957 -0.53779377
vn 0.38651750 -0.71831957 -0.57846454
vn -0.66575607 -0.71831962 -0.20195489
vn -0.64275522 -0.71831958 -0.26623806
vn -0.69571319 -0.71831968 -0.00000000
vn -0.69236331 -0.71831950 -0.06819190
vn -0.68234538 -0.71831959 -0.13572679
vn -0.61356436 -0.71831954 -0.32795702
vn -0.57846454 -0.71831957 -0.38651750
vn -0.38651750 -0.71831957 -0.57846454
vn -0.53779377 -0.71831957 -0.44135571
vn -0.49194354 -0.71831965 -0.49194354
vn -0.44135571 -0.71831957 -0.53779377
vn 0.32795702 -0.71831954 -0.61356436
vn 0.26623806 -0.71831958 -0.64275522
vn 0.20195489 -0.71831962 -0.66575607
vn 0.13572679 -0.71831959 -0.68234538
vn 0.06819190 -0.71831950 -0.69236331
vn -0.00000000 -0.71831968 -0.69571319
vn -0.06819190 -0.71831950 -0.69236331
vn -0.13572679 -0.71831959 -0.68234538
vn -0.26623806 -0.71831958 -0.64275522
vn -0.32795702 -0.71831954 -0.61356436
vn -0.20195489 -0.71831962 -0.66575607
vn -0.59684634 -0.69622776 0.39879990
vn -0.55488319 -0.69622767 0.45538079
vn -0.50757607 -0.69622774 0.50757607
vn -0.45538079 -0.69622767 0.55488319
vn -0.39879990 -0.69622776 0.59684634
vn -0.33837860 -0.69622774 0.63306149
vn -0.27469822 -0.69622764 0.66318018
vn -0.20837240 -0.69622779 0.68691179
vn -0.14003989 -0.69622763 0.70402835
vn 0.00000000 -1.00000000 0.00000000
vn -0.07035866 -0.69622779 0.71436442
vn 0.00000000 -0.69622767 0.71782103
vn 0.07035866 -0.69622779 0.71436442
vn 0.14003989 -0.69622763 0.70402835
vn 0.45538079 -0.69622767 0.55488319
vn 0.39879990 -0.69622776 0.59684634
vn 0.27469822 -0.69622764 0.66318018
vn 0.20837240 -0.69622779 0.68691179
vn 0.33837860 -0.69622774 0.63306149
vn -0.71782103 0.69622767 0.00000000
vn -0.71436442 0.69622779 0.07035866
vn -0.70402835 0.69622763 0.14003989
vn -0.68691179 0.69622779 0.20837240
vn -0.66318018 0.69622764 0.27469822
vn -0.63306149 0.69622774 0.33837860
vn 0.69571319 0.71831968 0.00000000
vn 0.69236331 0.71831950 -0.06819190
vn 0.68234538 0.71831959 -0.13572679
vn 0.66575607 0.71831962 -0.20195489
vn 0.64275522 0.71831958 -0.26623806
vn 0.61356436 0.71831954 -0.32795702
vn 0.57846454 0.71831957 -0.38651750
vn 0.53779377 0.71831957 -0.44135571
vn 0.49194354 0.71831965 -0.49194354
vn 0.44135571 0.71831957 -0.53779377
vn 0.38651750 0.71831957 -0.57846454
vn -0.66575607 0.71831962 -0.20195489
vn -0.64275522 0.71831958 -0.26623806
vn -0.69571319 0.71831968 0.00000000
vn -0.69236331 0.71831950 -0.06819190
vn -0.68234538 0.71831959 -0.13572679
vn -0.61356436 0.71831954 -0.32795702
vn -0.57846454 0.71831957 -0.38651750
vn -0.38651750 0.71831957 -0.57846454
vn -0.53779377 0.71831957 -0.44135571
vn -0.49194354 0.71831965 -0.49194354
vn -0.44135571 0.71831957 -0.53779377
vn 0.32795702 0.71831954 -0.61356436
vn 0.26623806 0.71831958 -0.64275522
vn 0.20195489 0.71831962 -0.66575607
vn 0.13572679 0.71831959 -0.68234538
vn 0.06819190 0.71831950 -0.69236331
vn -0.00000000 0.71831968 -0.69571319
vn -0.06819190 0.71831950 -0.69236331
vn -0.13572679 0.71831959 -0.68234538
vn -0.26623806 0.71831958 -0.64275522
vn -0.32795702 0.71831954 -0.61356436
vn -0.20195489 0.71831962 -0.66575607
vn -0.59684634 0.69622776 0.39879990
vn -0.55488319 0.69622767 0.45538079
vn -0.50757607 0.69622774 0.50757607
vn -0.45538079 0.69622767 0.55488319
vn -0.39879990 0.69622776 0.59684634
vn -0.33837860 0.69622774 0.63306149
vn -0.27469822 0.69622764 0.66318018
vn -0.20837240 0.69622779 0.68691179
vn -0.14003989 0.69622763 0.70402835
vn 0.00000000 1.00000000 0.00000000
vn -0.07035866 0.69622779 0.71436442
vn 0.00000000 0.69622767 0.71782103
vn 0.07035866 0.69622779 0.71436442
vn 0.14003989 0.69622763 0.70402835
vn 0.45538079 0.69622767 0.55488319
vn 0.39879990 0.69622776 0.59684634
vn 0.27469822 0.69622764 0.66318018
vn 0.20837240 0.69622779 0.68691179
vn 0.33837860 0.69622774 0.63306149
vn 0.25503236 -0.82356059 0.50666207
vn 0.55488321 -0.69622767 0.45538078
vn 0.50757607 -0.69622774 0.50757607
vn 0.25503236 0.82356059 0.50666207
vn 0.55488321 0.69622767 0.45538078
vn 0.50757607 0.69622774 0.50757607
vn 0.00000000 -0.70710678 -0.70710678
vn -0.30151134 0.30151134 -0.90453403
vn 0.57735027 -0.57735027 -0.57735027
vn 0.00000000 -0.70710678 0.70710678
vn -0.30151134 0.30151134 0.90453403
vn 0.57735027 -0.57735027 0.57735027
vn -0.57735027 0.57735027 -0.57735027
vn 0.57735027 0.57735027 -0.57735027
vn -0.32795719 -0.61356450 0.71831935
vn -0.44135586 -0.53779362 0.71831959
vn -0.38651731 -0.57846454 0.71831967
vn -0.49194389 -0.49194302 0.71831976
vn -0.33837848 -0.63306135 0.69622793
vn -0.45538085 -0.55488311 0.69622771
vn -0.39879978 -0.59684657 0.69622763
vn -0.50757665 -0.50757576 0.69622754
vn -0.53779383 -0.44135642 0.71831908
vn -0.61356453 -0.32795569 0.71832001
vn -0.57846368 -0.38651822 0.71831987
vn -0.64275607 -0.26623831 0.71831873
vn -0.66575531 -0.20195590 0.71832004
vn -0.68234555 -0.13572784 0.71831922
vn -0.69236250 -0.06819143 0.71832033
vn -0.69571417 0.00000000 0.71831872
vn -0.69236250 0.06819143 0.71832033
vn -0.55488256 -0.45538079 0.69622818
vn -0.63306253 -0.33837755 0.69622731
vn -0.59684601 -0.39880093 0.69622744
vn -0.66317939 -0.27469793 0.69622852
vn -0.68691191 -0.20837373 0.69622728
vn -0.70402776 -0.14004073 0.69622805
vn -0.71436519 -0.07035850 0.69622701
vn -0.71782021 0.00000000 0.69622852
vn -0.71436519 0.07035850 0.69622701
vn -0.57735027 0.57735027 0.57735027
vn -0.68234559 0.13572777 0.71831919
vn -0.66575516 0.20195601 0.71832015
vn -0.64275626 0.26623833 0.71831856
vn -0.61356444 0.32795551 0.71832017
vn -0.57846372 0.38651833 0.71831978
vn -0.53779377 0.44135638 0.71831915
vn -0.49194383 0.49194313 0.71831972
vn -0.44135559 0.53779372 0.71831968
vn -0.38651728 0.57846473 0.71831953
vn -0.70402776 0.14004064 0.69622808
vn -0.68691195 0.20837390 0.69622718
vn -0.66317927 0.27469781 0.69622868
vn -0.63306271 0.33837751 0.69622716
vn -0.59684590 0.39880095 0.69622753
vn -0.55488260 0.45538084 0.69622812
vn -0.50757654 0.50757582 0.69622758
vn -0.45538068 0.55488335 0.69622762
vn -0.39879960 0.59684654 0.69622776
vn -0.32795778 0.61356430 0.71831925
vn -0.33837899 0.63306097 0.69622803
vn -0.20195493 -0.66575620 0.71831949
vn -0.13572691 -0.68234526 0.71831967
vn -0.06819177 -0.69236332 0.71831951
vn -0.26623812 -0.64275500 0.71831976
vn 0.00000000 -0.69571324 0.71831962
vn 0.06819177 -0.69236332 0.71831951
vn 0.13572691 -0.68234526 0.71831967
vn 0.20195493 -0.66575620 0.71831949
vn 0.26623721 -0.64275581 0.71831937
vn 0.32795598 -0.61356469 0.71831974
vn 0.38651834 -0.57846318 0.71832021
vn 0.44135645 -0.53779465 0.71831845
vn 0.49194309 -0.49194196 0.71832103
vn -0.20837240 -0.68691178 0.69622780
vn -0.14003994 -0.70402834 0.69622763
vn -0.07035868 -0.71436443 0.69622778
vn -0.27469851 -0.66318016 0.69622755
vn -0.00000000 -0.71782103 0.69622767
vn 0.07035868 -0.71436443 0.69622778
vn 0.14003994 -0.70402834 0.69622763
vn 0.20837240 -0.68691178 0.69622780
vn 0.27469728 -0.66318030 0.69622791
vn 0.33837759 -0.63306222 0.69622757
vn 0.39880144 -0.59684605 0.69622712
vn 0.45538002 -0.55488244 0.69622878
vn 0.50757761 -0.50757644 0.69622635
vn 0.53779563 -0.44135531 0.71831842
vn 0.57846368 -0.38651822 0.71831987
vn 0.61356412 -0.32795824 0.71831920
vn 0.64275469 -0.26623488 0.71832124
vn 0.66575846 -0.20195153 0.71831835
vn 0.68234555 -0.13572784 0.71831922
vn 0.69236316 -0.06819422 0.71831943
vn 0.69571231 -0.00000000 0.71832053
vn 0.69236316 0.06819422 0.71831943
vn 0.55488340 -0.45537881 0.69622881
vn 0.59684601 -0.39880093 0.69622744
vn 0.00000000 0.00000000 1.00000000
vn 0.63306069 -0.33837942 0.69622807
vn 0.66318255 -0.27469629 0.69622616
vn 0.68691195 -0.20836825 0.69622887
vn 0.70402776 -0.14004072 0.69622805
vn 0.71436410 -0.07036120 0.69622786
vn 0.71782185 0.00000000 0.69622682
vn 0.71436410 0.07036120 0.69622786
vn 0.57846372 0.38651833 0.71831978
vn 0.53779557 0.44135527 0.71831849
vn 0.49194304 0.49194207 0.71832099
vn 0.44135618 0.53779476 0.71831854
vn 0.38651831 0.57846337 0.71832007
vn 0.68234560 0.13572776 0.71831919
vn 0.66575831 0.20195164 0.71831846
vn 0.64275488 0.26623489 0.71832106
vn 0.61356403 0.32795806 0.71831935
vn 0.59684590 0.39880095 0.69622753
vn 0.55488344 0.45537886 0.69622874
vn 0.50757750 0.50757650 0.69622638
vn 0.45537986 0.55488268 0.69622870
vn 0.39880126 0.59684602 0.69622725
vn 0.70402776 0.14004064 0.69622808
vn 0.68691200 0.20836842 0.69622877
vn 0.66318243 0.27469617 0.69622632
vn 0.63306087 0.33837938 0.69622793
vn -0.26623798 0.64275470 0.71832007
vn -0.20195504 0.66575652 0.71831916
vn -0.13572701 0.68234495 0.71831995
vn -0.06819144 0.69236347 0.71831940
vn -0.00000000 0.69571324 0.71831962
vn 0.13572701 0.68234495 0.71831995
vn 0.06819144 0.69236347 0.71831940
vn 0.32795657 0.61356450 0.71831963
vn 0.26623706 0.64275552 0.71831969
vn 0.20195504 0.66575652 0.71831916
vn -0.27469861 0.66318044 0.69622725
vn -0.20837233 0.68691149 0.69622811
vn -0.14004015 0.70402855 0.69622737
vn -0.07035833 0.71436436 0.69622789
vn 0.00000000 0.71782103 0.69622767
vn 0.14004015 0.70402855 0.69622737
vn 0.07035833 0.71436436 0.69622789
vn 0.33837810 0.63306184 0.69622767
vn 0.27469737 0.66318057 0.69622761
vn 0.20837233 0.68691149 0.69622811
vn 0.57735027 0.57735027 0.57735027
f 4//4 5//5 37//37
f 2//2 4//4 41//41
f 2//2 124//124 3//3
f 1//1 7//7 56//56
f 2//2 3//3 57//57
f 2//2 59//59 4//4
f 4//4 60//60 5//5
f 3//3 6//6 58//58
f 1//1 61//61 6//6
f 7//7 8//8 62//62
f 8//8 9//9 63//63
f 9//9 20//20 64//64
f 10//10 11//11 19//19
f 11//11 12//12 19//19
f 12//12 13//13 19//19
f 13//13 14//14 19//19
f 14//14 15//15 19//19
f 15//15 16//16 19//19
f 16//16 17//17 19//19
f 5//5 10//10 29//29
f 10//10 19//19 29//29
f 17//17 18//18 19//19
f 18//18 111//111 19//19
f 19//19 111//111 112//112
f 19//19 112//112 113//113
f 5//5 65//65 10//10
f 10//10 66//66 11//11
f 11//11 67//67 12//12
f 12//12 68//68 13//13
f 13//13 69//69 14//14
f 14//14 70//70 15//15
f 15//15 71//71 16//16
f 16//16 72//72 17//17
f 17//17 73//73 18//18
f 4//4 39//39 36//36
f 4//4 36//36 40//40
f 1//1 6//6 165//165
f 1//1 165//165 7//7
f 3//3 165//165 6//6
f 4//4 40//40 41//41
f 2//2 41//41 42//42
f 2//2 42//42 43//43
f 2//2 43//43 44//44
f 2//2 44//44 45//45
f 2//2 45//45 123//123
f 2//2 123//123 124//124
f 3//3 124//124 125//125
f 3//3 125//125 126//126
f 20//20 165//165 21//21
f 21//21 165//165 22//22
f 7//7 165//165 8//8
f 8//8 165//165 9//9
f 9//9 165//165 20//20
f 3//3 126//126 165//165
f 20//20 21//21 75//75
f 21//21 22//22 76//76
f 22//22 23//23 77//77
f 23//23 24//24 78//78
f 24//24 117//117 79//79
f 5//5 25//25 38//38
f 5//5 38//38 37//37
f 5//5 29//29 25//25
f 4//4 37//37 39//39
f 19//19 28//28 26//26
f 19//19 27//27 28//28
f 19//19 26//26 29//29
f 19//19 30//30 27//27
f 19//19 31//31 30//30
f 19//19 32//32 31//31
f 19//19 113//113 32//32
f 113//113 33//33 32//32
f 113//113 34//34 33//33
f 113//113 35//35 34//34
f 113//113 46//46 35//35
f 113//113 47//47 46//46
f 113//113 48//48 47//47
f 113//113 49//49 48//48
f 113//113 50//50 49//49
f 113//113 51//51 50//50
f 113//113 52//52 51//51
f 113//113 53//53 52//52
f 113//113 54//54 53//53
f 113//113 55//55 54//54
f 113//113 136//136 55//55
f 113//113 137//137 136//136
f 113//113 140//140 139//139
f 113//113 143//143 142//142
f 113//113 142//142 140//140
f 113//113 138//138 137//137
f 113//113 134//134 138//138
f 113//113 135//135 134//134
f 113//113 139//139 135//135
f 1//1 56//56 61//61
f 3//3 58//58 57//57
f 4//4 59//59 60//60
f 2//2 57//57 59//59
f 6//6 61//61 58//58
f 7//7 62//62 56//56
f 8//8 63//63 62//62
f 9//9 64//64 63//63
f 57//57 74//74 59//59
f 57//57 58//58 74//74
f 58//58 61//61 74//74
f 56//56 74//74 61//61
f 56//56 62//62 74//74
f 62//62 63//63 74//74
f 63//63 64//64 74//74
f 64//64 75//75 74//74
f 5//5 60//60 65//65
f 10//10 65//65 66//66
f 11//11 66//66 67//67
f 12//12 67//67 68//68
f 13//13 68//68 69//69
f 14//14 69//69 70//70
f 15//15 70//70 71//71
f 16//16 71//71 72//72
f 17//17 72//72 73//73
f 18//18 73//73 114//114
f 59//59 74//74 60//60
f 60//60 74//74 65//65
f 65//65 74//74 66//66
f 66//66 116//116 67//67
f 67//67 116//116 68//68
f 68//68 116//116 69//69
f 69//69 116//116 70//70
f 70//70 116//116 71//71
f 71//71 116//116 72//72
f 66//66 74//74 116//116
f 72//72 116//116 73//73
f 20//20 75//75 64//64
f 21//21 76//76 75//75
f 22//22 77//77 76//76
f 23//23 78//78 77//77
f 24//24 79//79 78//78
f 79//79 117//117 175//175
f 74//74 75//75 76//76
f 74//74 76//76 77//77
f 74//74 77//77 78//78
f 74//74 78//78 79//79
f 74//74 79//79 175//175
f 74//74 175//175 176//176
f 74//74 176//176 177//177
f 74//74 177//177 178//178
f 74//74 94//94 92//92
f 74//74 91//91 94//94
f 74//74 95//95 91//91
f 74//74 96//96 95//95
f 74//74 81//81 83//83
f 74//74 83//83 82//82
f 74//74 80//80 84//84
f 74//74 93//93 80//80
f 74//74 84//84 81//81
f 74//74 82//82 85//85
f 74//74 85//85 86//86
f 74//74 86//86 87//87
f 74//74 87//87 88//88
f 74//74 88//88 89//89
f 74//74 92//92 93//93
f 74//74 89//89 90//90
f 74//74 90//90 101//101
f 74//74 101//101 102//102
f 74//74 102//102 103//103
f 74//74 97//97 96//96
f 74//74 98//98 97//97
f 74//74 103//103 236//236
f 18//18 114//114 111//111
f 111//111 115//115 112//112
f 112//112 115//115 113//113
f 113//113 240//240 239//239
f 113//113 239//239 165//165
f 111//111 114//114 115//115
f 113//113 115//115 116//116
f 113//113 116//116 240//240
f 73//73 116//116 114//114
f 114//114 116//116 115//115
f 74//74 243//243 116//116
f 116//116 243//243 240//240
f 22//22 165//165 23//23
f 23//23 165//165 24//24
f 24//24 165//165 117//117
f 117//117 165//165 118//118
f 118//118 165//165 119//119
f 119//119 165//165 120//120
f 120//120 165//165 121//121
f 121//121 165//165 122//122
f 117//117 118//118 175//175
f 118//118 119//119 176//176
f 119//119 120//120 177//177
f 120//120 121//121 178//178
f 121//121 122//122 179//179
f 122//122 156//156 180//180
f 165//165 126//126 127//127
f 165//165 127//127 128//128
f 113//113 165//165 143//143
f 165//165 128//128 129//129
f 165//165 129//129 130//130
f 165//165 130//130 131//131
f 165//165 131//131 132//132
f 165//165 132//132 133//133
f 165//165 133//133 145//145
f 165//165 145//145 146//146
f 165//165 146//146 147//147
f 165//165 147//147 148//148
f 165//165 148//148 149//149
f 165//165 155//155 153//153
f 165//165 149//149 150//150
f 165//165 150//150 151//151
f 165//165 151//151 152//152
f 165//165 152//152 155//155
f 165//165 144//144 143//143
f 165//165 141//141 144//144
f 165//165 154//154 141//141
f 165//165 153//153 154//154
f 122//122 165//165 156//156
f 156//156 165//165 157//157
f 157//157 165//165 158//158
f 158//158 165//165 159//159
f 159//159 165//165 160//160
f 160//160 165//165 161//161
f 161//161 165//165 162//162
f 162//162 165//165 163//163
f 156//156 157//157 214//214
f 157//157 158//158 215//215
f 158//158 159//159 216//216
f 159//159 160//160 217//217
f 160//160 161//161 218//218
f 161//161 162//162 219//219
f 162//162 163//163 220//220
f 163//163 164//164 221//221
f 165//165 233//233 167//167
f 170//170 171//171 233//233
f 163//163 165//165 164//164
f 164//164 165//165 166//166
f 165//165 167//167 166//166
f 167//167 233//233 168//168
f 168//168 233//233 169//169
f 169//169 233//233 173//173
f 172//172 233//233 174//174
f 171//171 174//174 233//233
f 172//172 173//173 233//233
f 164//164 166//166 222//222
f 166//166 167//167 224//224
f 167//167 168//168 225//225
f 168//168 169//169 226//226
f 169//169 173//173 227//227
f 170//170 235//235 228//228
f 170//170 229//229 171//171
f 171//171 232//232 174//174
f 172//172 174//174 230//230
f 172//172 231//231 173//173
f 118//118 176//176 175//175
f 119//119 177//177 176//176
f 120//120 178//178 177//177
f 121//121 179//179 178//178
f 122//122 180//180 179//179
f 74//74 178//178 179//179
f 74//74 179//179 180//180
f 74//74 219//219 98//98
f 74//74 180//180 214//214
f 74//74 214//214 215//215
f 74//74 215//215 216//216
f 74//74 216//216 217//217
f 74//74 217//217 218//218
f 219//219 99//99 98//98
f 219//219 100//100 99//99
f 220//220 181//181 100//100
f 74//74 218//218 219//219
f 220//220 182//182 181//181
f 220//220 183//183 182//182
f 220//220 184//184 183//183
f 220//220 185//185 184//184
f 220//220 186//186 185//185
f 221//221 187//187 186//186
f 221//221 188//188 187//187
f 221//221 189//189 188//188
f 236//236 103//103 104//104
f 236//236 104//104 105//105
f 236//236 105//105 106//106
f 236//236 106//106 107//107
f 236//236 107//107 108//108
f 236//236 108//108 109//109
f 236//236 109//109 110//110
f 236//236 110//110 194//194
f 236//236 194//194 195//195
f 236//236 195//195 196//196
f 236//236 196//196 192//192
f 236//236 192//192 193//193
f 236//236 193//193 197//197
f 223//223 205//205 204//204
f 223//223 206//206 205//205
f 223//223 207//207 206//206
f 223//223 208//208 207//207
f 223//223 209//209 208//208
f 221//221 190//190 189//189
f 222//222 191//191 190//190
f 222//222 203//203 191//191
f 222//222 204//204 203//203
f 236//236 197//197 198//198
f 236//236 198//198 200//200
f 236//236 202//202 199//199
f 236//236 200//200 201//201
f 236//236 201//201 202//202
f 236//236 211//211 213//213
f 236//236 210//210 209//209
f 236//236 213//213 210//210
f 236//236 199//199 212//212
f 236//236 212//212 211//211
f 223//223 236//236 209//209
f 156//156 214//214 180//180
f 157//157 215//215 214//214
f 158//158 216//216 215//215
f 159//159 217//217 216//216
f 160//160 218//218 217//217
f 161//161 219//219 218//218
f 162//162 220//220 219//219
f 163//163 221//221 220//220
f 164//164 222//222 221//221
f 219//219 220//220 100//100
f 220//220 221//221 186//186
f 221//221 222//222 190//190
f 166//166 224//224 222//222
f 167//167 225//225 224//224
f 168//168 226//226 225//225
f 169//169 227//227 226//226
f 170//170 228//228 229//229
f 171//171 229//229 232//232
f 172//172 230//230 231//231
f 174//174 232//232 230//230
f 173//173 231//231 227//227
f 223//223 204//204 224//224
f 222//222 224//224 204//204
f 223//223 237//237 236//236
f 223//223 228//228 238//238
f 223//223 229//229 228//228
f 223//223 238//238 237//237
f 223//223 224//224 225//225
f 223//223 225//225 226//226
f 223//223 226//226 227//227
f 223//223 231//231 230//230
f 223//223 227//227 231//231
f 223//223 232//232 229//229
f 223//223 230//230 232//232
f 165//165 239//239 233//233
f 233//233 239//239 242//242
f 233//233 234//234 235//235
f 170//170 233//233 235//235
f 233//233 236//236 234//234
f 234//234 238//238 235//235
f 233//233 242//242 236//236
f 74//74 236//236 243//243
f 234//234 236//236 237//237
f 234//234 237//237 238//238
f 228//228 235//235 238//238
f 236//236 242//242 243//243
f 239//239 240//240 241//241
f 239//239 241//241 242//242
f 240//240 245//245 241//241
f 241//241 246//246 244//244
f 242//242 256//256 243//243
f 242//242 297//297 247//247
f 242//242 294//294 297//297
f 242//242 247//247 249//249
f 242//242 249//249 248//248
f 242//242 255//255 257//257
f 242//242 257//257 256//256
f 242//242 248//248 250//250
f 242//242 250//250 255//255
f 242//242 295//295 294//294
f 242//242 298//298 296//296
f 242//242 296//296 295//295
f 242//242 299//299 298//298
f 242//242 300//300 299//299
f 242//242 301//301 300//300
f 242//242 302//302 301//301
f 242//242 303//303 302//302
f 242//242 304//304 303//303
f 241//241 244//244 242//242
f 242//242 244//244 377//377
f 240//240 243//243 245//245
f 241//241 245//245 246//246
f 245//245 377//377 246//246
f 243//243 274//274 273//273
f 243//243 256//256 258//258
f 243//243 258//258 259//259
f 243//243 259//259 260//260
f 247//247 297//297 310//310
f 247//247 251//251 249//249
f 247//247 310//310 251//251
f 249//249 251//251 253//253
f 250//250 254//254 255//255
f 248//248 249//249 253//253
f 248//248 252//252 250//250
f 254//254 264//264 255//255
f 248//248 253//253 252//252
f 250//250 252//252 254//254
f 243//243 260//260 261//261
f 243//243 261//261 262//262
f 243//243 262//262 263//263
f 243//243 263//263 274//274
f 255//255 264//264 257//257
f 256//256 257//257 266//266
f 257//257 264//264 266//266
f 256//256 266//266 265//265
f 256//256 265//265 258//258
f 258//258 267//267 259//259
f 258//258 265//265 267//267
f 259//259 267//267 268//268
f 259//259 268//268 260//260
f 260//260 269//269 261//261
f 260//260 268//268 269//269
f 261//261 269//269 270//270
f 261//261 270//270 262//262
f 262//262 271//271 263//263
f 262//262 270//270 271//271
f 263//263 271//271 272//272
f 252//252 331//331 254//254
f 254//254 331//331 264//264
f 264//264 331//331 266//266
f 265//265 266//266 331//331
f 265//265 331//331 267//267
f 267//267 331//331 268//268
f 268//268 331//331 269//269
f 269//269 331//331 270//270
f 270//270 331//331 271//271
f 271//271 331//331 272//272
f 272//272 331//331 283//283
f 243//243 273//273 245//245
f 245//245 273//273 377//377
f 273//273 274//274 275//275
f 273//273 275//275 276//276
f 273//273 276//276 277//277
f 263//263 272//272 274//274
f 274//274 283//283 275//275
f 272//272 283//283 274//274
f 275//275 283//283 284//284
f 275//275 284//284 276//276
f 276//276 285//285 277//277
f 276//276 284//284 285//285
f 277//277 285//285 286//286
f 277//277 286//286 278//278
f 278//278 287//287 279//279
f 279//279 288//288 280//280
f 278//278 286//286 287//287
f 279//279 287//287 288//288
f 280//280 289//289 281//281
f 281//281 290//290 282//282
f 282//282 291//291 292//292
f 280//280 288//288 289//289
f 281//281 289//289 290//290
f 282//282 290//290 291//291
f 283//283 331//331 284//284
f 284//284 331//331 285//285
f 285//285 331//331 286//286
f 286//286 331//331 287//287
f 287//287 331//331 288//288
f 288//288 331//331 289//289
f 289//289 331//331 290//290
f 273//273 277//277 278//278
f 273//273 278//278 279//279
f 273//273 279//279 280//280
f 273//273 280//280 281//281
f 273//273 281//281 282//282
f 273//273 282//282 292//292
f 273//273 292//292 357//357
f 273//273 357//357 358//358
f 273//273 358//358 359//359
f 273//273 359//359 360//360
f 273//273 360//360 361//361
f 273//273 361//361 363//363
f 292//292 293//293 357//357
f 291//291 293//293 292//292
f 293//293 367//367 357//357
f 244//244 246//246 377//377
f 242//242 377//377 304//304
f 294//294 307//307 297//297
f 295//295 296//296 309//309
f 294//294 295//295 308//308
f 296//296 298//298 311//311
f 298//298 299//299 312//312
f 299//299 300//300 313//313
f 297//297 307//307 310//310
f 294//294 308//308 307//307
f 295//295 309//309 308//308
f 296//296 311//311 309//309
f 298//298 312//312 311//311
f 299//299 313//313 312//312
f 300//300 301//301 314//314
f 301//301 302//302 315//315
f 302//302 303//303 316//316
f 303//303 304//304 317//317
f 300//300 314//314 313//313
f 301//301 315//315 314//314
f 302//302 316//316 315//315
f 303//303 317//317 316//316
f 304//304 305//305 318//318
f 305//305 306//306 319//319
f 306//306 320//320 329//329
f 304//304 318//318 317//317
f 305//305 319//319 318//318
f 306//306 329//329 319//319
f 308//308 309//309 331//331
f 309//309 311//311 331//331
f 311//311 312//312 331//331
f 312//312 313//313 331//331
f 320//320 321//321 330//330
f 320//320 330//330 329//329
f 321//321 332//332 330//330
f 321//321 322//322 332//332
f 322//322 323//323 333//333
f 323//323 324//324 334//334
f 322//322 333//333 332//332
f 323//323 334//334 333//333
f 304//304 377//377 305//305
f 305//305 377//377 306//306
f 306//306 377//377 320//320
f 324//324 325//325 335//335
f 325//325 326//326 336//336
f 324//324 335//335 334//334
f 325//325 336//336 335//335
f 326//326 327//327 337//337
f 327//327 328//328 338//338
f 326//326 337//337 336//336
f 327//327 338//338 337//337
f 251//251 331//331 253//253
f 251//251 310//310 331//331
f 307//307 331//331 310//310
f 307//307 308//308 331//331
f 252//252 253//253 331//331
f 313//313 314//314 331//331
f 314//314 315//315 331//331
f 315//315 316//316 331//331
f 316//316 317//317 331//331
f 317//317 318//318 331//331
f 318//318 319//319 331//331
f 319//319 329//329 331//331
f 329//329 330//330 331//331
f 330//330 332//332 331//331
f 331//331 332//332 333//333
f 331//331 333//333 334//334
f 331//331 334//334 335//335
f 331//331 335//335 336//336
f 331//331 336//336 337//337
f 331//331 337//337 338//338
f 331//331 338//338 353//353
f 339//339 348//348 347//347
f 339//339 340//340 349//349
f 339//339 349//349 348//348
f 340//340 350//350 349//349
f 341//341 342//342 351//351
f 340//340 341//341 350//350
f 342//342 343//343 352//352
f 343//343 374//374 352//352
f 341//341 351//351 350//350
f 342//342 352//352 351//351
f 320//320 377//377 321//321
f 328//328 344//344 353//353
f 344//344 345//345 354//354
f 328//328 353//353 338//338
f 344//344 354//354 353//353
f 345//345 346//346 355//355
f 346//346 347//347 356//356
f 345//345 355//355 354//354
f 346//346 356//356 355//355
f 347//347 348//348 356//356
f 331//331 353//353 354//354
f 331//331 354//354 355//355
f 331//331 355//355 356//356
f 331//331 348//348 349//349
f 331//331 349//349 350//350
f 331//331 356//356 348//348
f 290//290 331//331 291//291
f 291//291 331//331 293//293
f 293//293 331//331 367//367
f 331//331 368//368 367//367
f 331//331 369//369 368//368
f 331//331 370//370 369//369
f 331//331 372//372 373//373
f 331//331 375//375 376//376
f 331//331 376//376 372//372
f 331//331 371//371 370//370
f 331//331 373//373 371//371
f 331//331 350//350 351//351
f 331//331 351//351 352//352
f 331//331 374//374 375//375
f 331//331 352//352 374//374
f 357//357 367//367 358//358
f 358//358 368//368 359//359
f 359//359 369//369 360//360
f 360//360 370//370 361//361
f 361//361 371//371 363//363
f 362//362 363//363 373//373
f 358//358 367//367 368//368
f 359//359 368//368 369//369
f 360//360 369//369 370//370
f 361//361 370//370 371//371
f 363//363 371//371 373//373
f 362//362 373//373 372//372
f 343//343 364//364 374//374
f 364//364 365//365 375//375
f 362//362 372//372 366//366
f 365//365 366//366 376//376
f 365//365 376//376 375//375
f 364//364 375//375 374//374
f 366//366 372//372 376//376
f 273//273 363//363 377//377
f 339//339 377//377 340//340
f 340//340 377//377 341//341
f 341//341 377//377 342//342
f 362//362 377//377 363//363
f 365//365 377//377 366//366
f 362//362 366//366 377//377
f 342//342 377//377 343//343
f 343//343 377//377 364//364
f 364//364 377//377 365//365
f 321//321 377//377 322//322
f 322//322 377//377 323//323
f 323//323 377//377 324//324
f 324//324 377//377 325//325
f 325//325 377//377 326//326
f 326//326 377//377 327//327
f 327//327 377//377 328//328
f 328//328 377//377 344//344
f 344//344 377//377 345//345
f 345//345 377//377 346//346
f 346//346 377//377 347//347
f 339//339 347//347 377//377
f 38//38 25//25 80//80
f 29//29 26//26 81//81
f 28//28 27//27 82//82
f 26//26 28//28 83//83
f 25//25 29//29 84//84
f 27//27 30//30 85//85
f 30//30 31//31 86//86
f 31//31 32//32 87//87
f 32//32 33//33 88//88
f 33//33 34//34 89//89
f 34//34 35//35 90//90
f 35//35 46//46 101//101
f 39//39 37//37 92//92
f 37//37 38//38 93//93
f 36//36 39//39 94//94
f 40//40 36//36 91//91
f 41//41 40//40 95//95
f 42//42 41//41 96//96
f 43//43 42//42 97//97
f 44//44 43//43 98//98
f 45//45 44//44 99//99
f 123//123 45//45 100//100
f 46//46 47//47 102//102
f 47//47 48//48 103//103
f 48//48 49//49 104//104
f 49//49 50//50 105//105
f 50//50 51//51 106//106
f 51//51 52//52 107//107
f 52//52 53//53 108//108
f 53//53 54//54 109//109
f 54//54 55//55 110//110
f 55//55 136//136 194//194
f 25//25 84//84 80//80
f 38//38 80//80 93//93
f 26//26 83//83 81//81
f 82//82 83//83 28//28
f 81//81 84//84 29//29
f 27//27 85//85 82//82
f 30//30 86//86 85//85
f 31//31 87//87 86//86
f 32//32 88//88 87//87
f 33//33 89//89 88//88
f 34//34 90//90 89//89
f 35//35 101//101 90//90
f 93//93 92//92 37//37
f 39//39 92//92 94//94
f 36//36 94//94 91//91
f 40//40 91//91 95//95
f 41//41 95//95 96//96
f 43//43 97//97 98//98
f 42//42 96//96 97//97
f 44//44 98//98 99//99
f 45//45 99//99 100//100
f 100//100 181//181 123//123
f 46//46 102//102 101//101
f 47//47 103//103 102//102
f 48//48 104//104 103//103
f 49//49 105//105 104//104
f 50//50 106//106 105//105
f 51//51 107//107 106//106
f 52//52 108//108 107//107
f 53//53 109//109 108//108
f 54//54 110//110 109//109
f 55//55 194//194 110//110
f 124//124 123//123 181//181
f 125//125 124//124 182//182
f 126//126 125//125 183//183
f 127//127 126//126 184//184
f 128//128 127//127 185//185
f 129//129 128//128 186//186
f 130//130 129//129 187//187
f 131//131 130//130 188//188
f 132//132 131//131 189//189
f 133//133 132//132 190//190
f 138//138 134//134 192//192
f 134//134 135//135 193//193
f 136//136 137//137 195//195
f 137//137 138//138 196//196
f 135//135 139//139 197//197
f 140//140 142//142 200//200
f 139//139 140//140 198//198
f 144//144 141//141 199//199
f 142//142 143//143 201//201
f 143//143 144//144 202//202
f 145//145 133//133 191//191
f 146//146 145//145 203//203
f 147//147 146//146 204//204
f 148//148 147//147 205//205
f 149//149 148//148 206//206
f 149//149 207//207 150//150
f 150//150 208//208 151//151
f 155//155 152//152 210//210
f 152//152 151//151 209//209
f 154//154 153//153 211//211
f 141//141 154//154 212//212
f 153//153 155//155 213//213
f 124//124 181//181 182//182
f 125//125 182//182 183//183
f 126//126 183//183 184//184
f 127//127 184//184 185//185
f 128//128 185//185 186//186
f 186//186 187//187 129//129
f 130//130 187//187 188//188
f 131//131 188//188 189//189
f 132//132 189//189 190//190
f 190//190 191//191 133//133
f 134//134 193//193 192//192
f 135//135 197//197 193//193
f 136//136 195//195 194//194
f 137//137 196//196 195//195
f 138//138 192//192 196//196
f 139//139 198//198 197//197
f 140//140 200//200 198//198
f 144//144 199//199 202//202
f 142//142 201//201 200//200
f 143//143 202//202 201//201
f 145//145 191//191 203//203
f 146//146 203//203 204//204
f 204//204 205//205 147//147
f 148//148 205//205 206//206
f 149//149 206//206 207//207
f 150//150 207//207 208//208
f 151//151 208//208 209//209
f 152//152 209//209 210//210
f 155//155 210//210 213//213
f 153//153 213//213 211//211
f 154//154 211//211 212//212
f 141//141 212//212 199//199
