# https://github.com/mikedh/trimesh

o v3_part0_root.obj
v 0.00000000 -15.00000000 -9.00000000
v -22.00000000 -7.61271954 -9.27612591
v 0.00000000 -7.61271954 -9.27612591
v -22.00000000 -9.27612591 -7.61271954
v -22.00000000 -9.97763538 -6.66684294
v -22.00000000 -8.48528099 -8.48528099
v 0.00000000 -9.27612591 -7.61271954
v 0.00000000 -9.97763538 -6.66684294
v 0.00000000 -8.48528099 -8.48528099
v 0.00000000 -7.91737700 -9.00000000
v -22.00000000 -11.08655453 -4.59220123
v -22.00000000 -11.48328400 -3.48341608
v 0.00000000 -11.08655453 -4.59220123
v 0.00000000 -11.48328400 -3.48341608
v -22.00000000 -11.76942348 -2.34108377
v -22.00000000 -11.94221687 -1.17620564
v 0.00000000 -11.76942348 -2.34108377
v 0.00000000 -11.94221687 -1.17620564
v -22.00000000 -10.58305550 -5.65676069
v 0.00000000 -10.58305550 -5.65676069
v -22.00000000 -5.65676069 -10.58305550
v -22.00000000 -6.66684294 -9.97763538
v -22.00000000 -4.59220123 -11.08655453
v -22.00000000 -3.48341608 -11.48328400
v 0.00000000 -5.65676069 -10.58305550
v 0.00000000 -6.66684294 -9.97763538
v 0.00000000 -4.59220123 -11.08655453
v 0.00000000 -3.48341608 -11.48328400
v -22.00000000 -2.34108377 -11.76942348
v -22.00000000 -1.17620564 -11.94221687
v -22.00000000 0.00000000 -12.00000000
v -22.00000000 1.17620564 -11.94221687
v 0.00000000 -2.34108377 -11.76942348
v 0.00000000 -1.17620564 -11.94221687
v 0.00000000 0.00000000 -12.00000000
v 0.00000000 1.17620564 -11.94221687
v -22.00000000 -12.00000000 0.00000000
v -22.00000000 -11.94221687 1.17620564
v -22.00000000 -11.76942348 2.34108377
v 0.00000000 -12.00000000 0.00000000
v 0.00000000 -11.94221687 1.17620564
v 0.00000000 -11.76942348 2.34108377
v -22.00000000 -11.48328400 3.48341608
v -22.00000000 -11.08655453 4.59220123
v 0.00000000 -11.48328400 3.48341608
v 0.00000000 -11.08655453 4.59220123
v -22.00000000 -10.58305550 5.65676069
v 0.00000000 -10.58305550 5.65676069
v 0.00000000 -15.00000000 9.00000000
v -22.00000000 -9.97763538 6.66684294
v -22.00000000 -9.27612591 7.61271954
v -22.00000000 -8.48528099 8.48528099
v 0.00000000 -9.97763538 6.66684294
v 0.00000000 -9.27612591 7.61271954
v 0.00000000 -8.48528099 8.48528099
v -22.00000000 -7.61271954 9.27612591
v 0.00000000 -7.91737700 9.00000000
v 0.00000000 -7.61271954 9.27612591
v -22.00000000 0.00000000 -0.00000000
v -22.00000000 -6.66684294 9.97763538
v -22.00000000 -5.65676069 10.58305550
v -22.00000000 -4.59220123 11.08655453
v -22.00000000 -3.48341608 11.48328400
v 0.00000000 -6.66684294 9.97763538
v 0.00000000 -5.65676069 10.58305550
v 0.00000000 -4.59220123 11.08655453
v 0.00000000 -3.48341608 11.48328400
v -22.00000000 -2.34108377 11.76942348
v -22.00000000 -1.17620564 11.94221687
v -22.00000000 0.00000000 12.00000000
v -22.00000000 1.17620564 11.94221687
v 0.00000000 -2.34108377 11.76942348
v 0.00000000 -1.17620564 11.94221687
v 0.00000000 0.00000000 12.00000000
v 0.00000000 1.17620564 11.94221687
v -22.00000000 2.34108377 -11.76942348
v -22.00000000 3.48341608 -11.48328400
v -22.00000000 4.59220123 -11.08655453
v 0.00000000 2.34108377 -11.76942348
v 0.00000000 3.48341608 -11.48328400
v 0.00000000 4.59220123 -11.08655453
v -22.00000000 5.65676069 -10.58305550
v -22.00000000 6.66684294 -9.97763538
v -22.00000000 7.61271954 -9.27612591
v 0.00000000 5.65676069 -10.58305550
v 0.00000000 6.66684294 -9.97763538
v 0.00000000 7.61271954 -9.27612591
v -22.00000000 8.48528099 -8.48528099
v -22.00000000 9.27612591 -7.61271954
v 0.00000000 7.91737700 -9.00000000
v 0.00000000 8.48528099 -8.48528099
v 0.00000000 9.27612591 -7.61271954
v -22.00000000 9.97763538 -6.66684294
v 0.00000000 9.97763538 -6.66684294
v 0.00000000 15.00000000 -9.00000000
v -22.00000000 10.58305550 -5.65676069
v -22.00000000 11.08655453 -4.59220123
v -22.00000000 11.48328400 -3.48341608
v 0.00000000 10.58305550 -5.65676069
v 0.00000000 11.08655453 -4.59220123
v 0.00000000 11.48328400 -3.48341608
v -22.00000000 11.76942348 -2.34108377
v -22.00000000 11.94221687 -1.17620564
v -22.00000000 12.00000000 -0.00000000
v 0.00000000 11.76942348 -2.34108377
v 0.00000000 11.94221687 -1.17620564
v -22.00000000 2.34108377 11.76942348
v -22.00000000 3.48341608 11.48328400
v -22.00000000 4.59220123 11.08655453
v 0.00000000 2.34108377 11.76942348
v 0.00000000 3.48341608 11.48328400
v 0.00000000 4.59220123 11.08655453
v -22.00000000 8.48528099 8.48528099
v -22.00000000 9.27612591 7.61271954
v 0.00000000 8.48528099 8.48528099
v 0.00000000 9.27612591 7.61271954
v -22.00000000 7.61271954 9.27612591
v -22.00000000 6.66684294 9.97763538
v -22.00000000 5.65676069 10.58305550
v 0.00000000 7.61271954 9.27612591
v 0.00000000 6.66684294 9.97763538
v 0.00000000 5.65676069 10.58305550
v 0.00000000 7.91737700 9.00000000
v -22.00000000 11.76942348 2.34108377
v -22.00000000 11.94221687 1.17620564
v 0.00000000 11.76942348 2.34108377
v 0.00000000 12.00000000 -0.00000000
v 0.00000000 11.94221687 1.17620564
v -22.00000000 11.48328400 3.48341608
v -22.00000000 10.58305550 5.65676069
v -22.00000000 11.08655453 4.59220123
v 0.00000000 11.48328400 3.48341608
v 0.00000000 10.58305550 5.65676069
v 0.00000000 11.08655453 4.59220123
v -22.00000000 9.97763538 6.66684294
v 0.00000000 9.97763538 6.66684294
v 0.00000000 15.00000000 9.00000000
v 42.00000000 15.00000000 2.00000000
v 42.00000000 18.00000000 2.00000000
v 62.00000000 15.00000000 2.00000000
v 62.00000000 18.00000000 2.00000000
v 42.00000000 15.00000000 8.00000000
v 42.00000000 18.00000000 8.00000000
v 62.00000000 15.00000000 8.00000000
v 62.00000000 18.00000000 8.00000000
v 110.00000000 -15.00000000 -9.00000000
v 110.00000000 -15.00000000 0.50000000
v 110.00000000 -15.00000000 9.00000000
v 150.00000000 -15.00000000 0.50000000
v 151.47026062 -14.92777061 0.50000000
v 152.92636108 -14.71177959 0.50000000
v 154.35426331 -14.35410500 0.50000000
v 155.74024963 -13.85819340 0.50000000
v 157.07095337 -13.22881889 0.50000000
v 158.33355713 -12.47204399 0.50000000
v 159.51589966 -11.59515667 0.50000000
v 160.60659790 -10.60660172 0.50000000
v 161.59515381 -9.51589966 0.50000000
v 162.47204590 -8.33355331 0.50000000
v 163.22882080 -7.07095098 0.50000000
v 150.00000000 -15.00000000 9.00000000
v 151.47026062 -14.92777061 9.00000000
v 152.92636108 -14.71177959 9.00000000
v 154.35426331 -14.35410500 9.00000000
v 155.74024963 -13.85819340 9.00000000
v 157.07095337 -13.22881889 9.00000000
v 158.33355713 -12.47204399 9.00000000
v 159.51589966 -11.59515667 9.00000000
v 160.60659790 -10.60660172 9.00000000
v 161.59515381 -9.51589966 9.00000000
v 162.47204590 -8.33355331 9.00000000
v 163.22882080 -7.07095098 9.00000000
v 163.85820007 -5.74025154 0.50000000
v 164.35411072 -4.35426998 0.50000000
v 164.71177673 -2.92635489 0.50000000
v 149.56105042 -2.20676684 0.50000000
v 149.34686279 -2.15311575 0.50000000
v 149.77946472 -2.23916554 0.50000000
v 150.00000000 -2.25000000 0.50000000
v 150.22053528 -2.23916554 0.50000000
v 148.74996948 -1.87080657 0.50000000
v 148.57261658 -1.73927355 0.50000000
v 149.13896179 -2.07872891 0.50000000
v 148.93936157 -1.98432279 0.50000000
v 150.43894958 -2.20676684 0.50000000
v 150.65313721 -2.15311575 0.50000000
v 150.86103821 -2.07872891 0.50000000
v 151.06063843 -1.98432279 0.50000000
v 151.25003052 -1.87080657 0.50000000
v 151.42738342 -1.73927355 0.50000000
v 148.40901184 -1.59099030 0.50000000
v 148.26072693 -1.42738485 0.50000000
v 148.12919617 -1.25003302 0.50000000
v 148.01567078 -1.06064260 0.50000000
v 147.92126465 -0.86103773 0.50000000
v 147.84687805 -0.65314054 0.50000000
v 151.59098816 -1.59099030 0.50000000
v 151.73927307 -1.42738485 0.50000000
v 151.87080383 -1.25003302 0.50000000
v 151.98432922 -1.06064260 0.50000000
v 152.07873535 -0.86103773 0.50000000
v 152.15312195 -0.65314054 0.50000000
v 147.79322815 -0.43895322 0.50000000
v 147.76083374 -0.22053857 0.50000000
v 147.75000000 0.00000000 0.50000000
v 147.76083374 0.22053857 0.50000000
v 147.79322815 0.43895322 0.50000000
v 152.20677185 -0.43895322 0.50000000
v 152.23916626 -0.22053857 0.50000000
v 152.25000000 0.00000000 0.50000000
v 152.23916626 0.22053857 0.50000000
v 152.20677185 0.43895322 0.50000000
v 147.84687805 0.65314054 0.50000000
v 147.92126465 0.86103773 0.50000000
v 148.01567078 1.06064260 0.50000000
v 148.12919617 1.25003302 0.50000000
v 148.26072693 1.42738485 0.50000000
v 152.15312195 0.65314054 0.50000000
v 152.07873535 0.86103773 0.50000000
v 151.73927307 1.42738485 0.50000000
v 151.98432922 1.06064260 0.50000000
v 151.87080383 1.25003302 0.50000000
v 164.92776489 -1.47025716 0.50000000
v 165.00000000 0.00000000 0.50000000
v 164.92776489 1.47025716 0.50000000
v 163.85820007 -5.74025154 9.00000000
v 164.35411072 -4.35426998 9.00000000
v 164.71177673 -2.92635489 9.00000000
v 149.56105042 -2.20676684 9.00000000
v 149.34686279 -2.15311575 9.00000000
v 149.77946472 -2.23916554 9.00000000
v 150.00000000 -2.25000000 9.00000000
v 150.22053528 -2.23916554 9.00000000
v 148.74996948 -1.87080657 9.00000000
v 148.57261658 -1.73927355 9.00000000
v 149.13896179 -2.07872891 9.00000000
v 148.93936157 -1.98432279 9.00000000
v 150.43894958 -2.20676684 9.00000000
v 150.65313721 -2.15311575 9.00000000
v 150.86103821 -2.07872891 9.00000000
v 151.06063843 -1.98432279 9.00000000
v 151.25003052 -1.87080657 9.00000000
v 151.42738342 -1.73927355 9.00000000
v 148.40901184 -1.59099030 9.00000000
v 148.26072693 -1.42738485 9.00000000
v 148.12919617 -1.25003302 9.00000000
v 148.01567078 -1.06064260 9.00000000
v 147.92126465 -0.86103773 9.00000000
v 147.84687805 -0.65314054 9.00000000
v 151.59098816 -1.59099030 9.00000000
v 151.73927307 -1.42738485 9.00000000
v 151.87080383 -1.25003302 9.00000000
v 151.98432922 -1.06064260 9.00000000
v 152.07873535 -0.86103773 9.00000000
v 152.15312195 -0.65314054 9.00000000
v 147.79322815 -0.43895322 9.00000000
v 147.76083374 -0.22053857 9.00000000
v 147.75000000 0.00000000 9.00000000
v 147.76083374 0.22053857 9.00000000
v 147.79322815 0.43895322 9.00000000
v 152.20677185 -0.43895322 9.00000000
v 152.23916626 -0.22053857 9.00000000
v 152.25000000 0.00000000 9.00000000
v 152.23916626 0.22053857 9.00000000
v 152.20677185 0.43895322 9.00000000
v 147.84687805 0.65314054 9.00000000
v 147.92126465 0.86103773 9.00000000
v 148.01567078 1.06064260 9.00000000
v 148.12919617 1.25003302 9.00000000
v 148.26072693 1.42738485 9.00000000
v 152.15312195 0.65314054 9.00000000
v 152.07873535 0.86103773 9.00000000
v 151.73927307 1.42738485 9.00000000
v 151.98432922 1.06064260 9.00000000
v 151.87080383 1.25003302 9.00000000
v 164.92776489 -1.47025716 9.00000000
v 165.00000000 0.00000000 9.00000000
v 164.92776489 1.47025716 9.00000000
v 110.00000000 15.00000000 -9.00000000
v 110.00000000 15.00000000 0.50000000
v 110.00000000 15.00000000 9.00000000
v 148.40901184 1.59099030 0.50000000
v 148.57261658 1.73927355 0.50000000
v 148.74996948 1.87080657 0.50000000
v 148.93936157 1.98432279 0.50000000
v 149.13896179 2.07872891 0.50000000
v 149.34686279 2.15311575 0.50000000
v 149.56105042 2.20676684 0.50000000
v 149.77946472 2.23916554 0.50000000
v 150.00000000 2.25000000 0.50000000
v 150.22053528 2.23916554 0.50000000
v 151.59098816 1.59099030 0.50000000
v 151.42738342 1.73927355 0.50000000
v 151.06063843 1.98432279 0.50000000
v 151.25003052 1.87080657 0.50000000
v 150.86103821 2.07872891 0.50000000
v 150.43894958 2.20676684 0.50000000
v 150.65313721 2.15311575 0.50000000
v 164.71177673 2.92635489 0.50000000
v 164.35411072 4.35426998 0.50000000
v 163.85820007 5.74025154 0.50000000
v 163.22882080 7.07095098 0.50000000
v 162.47204590 8.33355331 0.50000000
v 161.59515381 9.51589966 0.50000000
v 148.40901184 1.59099030 9.00000000
v 148.57261658 1.73927355 9.00000000
v 148.74996948 1.87080657 9.00000000
v 148.93936157 1.98432279 9.00000000
v 149.13896179 2.07872891 9.00000000
v 149.34686279 2.15311575 9.00000000
v 149.56105042 2.20676684 9.00000000
v 149.77946472 2.23916554 9.00000000
v 150.00000000 2.25000000 9.00000000
v 150.22053528 2.23916554 9.00000000
v 151.59098816 1.59099030 9.00000000
v 151.42738342 1.73927355 9.00000000
v 151.06063843 1.98432279 9.00000000
v 151.25003052 1.87080657 9.00000000
v 150.86103821 2.07872891 9.00000000
v 150.43894958 2.20676684 9.00000000
v 150.65313721 2.15311575 9.00000000
v 164.71177673 2.92635489 9.00000000
v 164.35411072 4.35426998 9.00000000
v 163.85820007 5.74025154 9.00000000
v 163.22882080 7.07095098 9.00000000
v 162.47204590 8.33355331 9.00000000
v 161.59515381 9.51589966 9.00000000
v 160.60659790 10.60660172 0.50000000
v 159.51589966 11.59515667 0.50000000
v 158.33355713 12.47204399 0.50000000
v 155.74024963 13.85819340 0.50000000
v 157.07095337 13.22881889 0.50000000
v 152.92636108 14.71177959 0.50000000
v 150.00000000 15.00000000 0.50000000
v 151.47026062 14.92777061 0.50000000
v 154.35426331 14.35410500 0.50000000
v 160.60659790 10.60660172 9.00000000
v 159.51589966 11.59515667 9.00000000
v 158.33355713 12.47204399 9.00000000
v 155.74024963 13.85819340 9.00000000
v 157.07095337 13.22881889 9.00000000
v 152.92636108 14.71177959 9.00000000
v 150.00000000 15.00000000 9.00000000
v 151.47026062 14.92777061 9.00000000
v 154.35426331 14.35410500 9.00000000
vn -0.57735027 -0.57735027 -0.57735027
vn -0.69622759 -0.45538104 -0.55488309
vn 0.69622759 -0.45538105 -0.55488309
vn -0.69622759 -0.55488309 -0.45538104
vn -0.69622776 -0.59684634 -0.39879989
vn -0.69622790 -0.50757596 -0.50757596
vn -0.71831971 -0.53779342 -0.44135590
vn -0.71831953 -0.57846454 -0.38651756
vn -0.71831939 -0.49194372 -0.49194373
vn 0.00000001 -0.35989543 -0.93299265
vn -0.69622771 -0.66318016 -0.27469812
vn -0.69622775 -0.68691183 -0.20837241
vn -0.71831959 -0.64275529 -0.26623787
vn -0.71831955 -0.66575615 -0.20195490
vn -0.69622771 -0.70402825 -0.14003998
vn -0.69622770 -0.71436450 -0.07035873
vn -0.71831959 -0.68234534 -0.13572698
vn -0.71831960 -0.69236323 -0.06819179
vn -0.69622770 -0.63306160 -0.33837848
vn -0.71831960 -0.61356433 -0.32795697
vn -0.69622770 -0.33837848 -0.63306160
vn -0.69622776 -0.39879989 -0.59684634
vn -0.69622771 -0.27469812 -0.66318016
vn -0.69622775 -0.20837241 -0.68691183
vn 0.69622770 -0.33837848 -0.63306160
vn 0.69622776 -0.39879989 -0.59684634
vn 0.69622771 -0.27469812 -0.66318016
vn 0.69622775 -0.20837241 -0.68691183
vn -0.69622771 -0.14003998 -0.70402825
vn -0.69622770 -0.07035873 -0.71436450
vn -0.69622774 -0.00000000 -0.71782096
vn -0.69622770 0.07035873 -0.71436450
vn 0.69622771 -0.14003998 -0.70402825
vn 0.69622770 -0.07035873 -0.71436450
vn 0.69622774 -0.00000000 -0.71782096
vn 0.69622770 0.07035873 -0.71436450
vn -0.69622774 -0.71782096 0.00000000
vn -0.69622770 -0.71436450 0.07035873
vn -0.69622771 -0.70402825 0.14003998
vn -0.71831955 -0.69571332 -0.00000000
vn -0.71831960 -0.69236323 0.06819179
vn -0.71831959 -0.68234534 0.13572698
vn -0.69622775 -0.68691183 0.20837241
vn -0.69622771 -0.66318016 0.27469812
vn -0.71831955 -0.66575615 0.20195490
vn -0.71831959 -0.64275529 0.26623787
vn -0.69622770 -0.63306160 0.33837848
vn -0.71831960 -0.61356433 0.32795697
vn -0.57735027 -0.57735027 0.57735027
vn -0.69622776 -0.59684634 0.39879989
vn -0.69622759 -0.55488309 0.45538104
vn -0.69622790 -0.50757596 0.50757596
vn -0.71831953 -0.57846454 0.38651756
vn -0.71831971 -0.53779342 0.44135590
vn -0.71831939 -0.49194372 0.49194373
vn -0.69622759 -0.45538104 0.55488309
vn 0.00000001 -0.35989543 0.93299265
vn 0.69622759 -0.45538105 0.55488309
vn -1.00000000 0.00000000 0.00000000
vn -0.69622776 -0.39879989 0.59684634
vn -0.69622770 -0.33837848 0.63306160
vn -0.69622771 -0.27469812 0.66318016
vn -0.69622775 -0.20837241 0.68691183
vn 0.69622776 -0.39879989 0.59684634
vn 0.69622770 -0.33837848 0.63306160
vn 0.69622771 -0.27469812 0.66318016
vn 0.69622775 -0.20837241 0.68691183
vn -0.69622771 -0.14003998 0.70402825
vn -0.69622770 -0.07035873 0.71436450
vn -0.69622774 0.00000000 0.71782096
vn -0.69622770 0.07035873 0.71436450
vn 0.69622771 -0.14003998 0.70402825
vn 0.69622770 -0.07035873 0.71436450
vn 0.69622774 -0.00000000 0.71782096
vn 0.69622770 0.07035873 0.71436450
vn -0.69622771 0.14003998 -0.70402825
vn -0.69622775 0.20837241 -0.68691183
vn -0.69622771 0.27469812 -0.66318016
vn 0.69622771 0.14003998 -0.70402825
vn 0.69622775 0.20837241 -0.68691183
vn 0.69622771 0.27469812 -0.66318016
vn -0.69622770 0.33837848 -0.63306160
vn -0.69622776 0.39879989 -0.59684634
vn -0.69622759 0.45538104 -0.55488309
vn 0.69622770 0.33837848 -0.63306160
vn 0.69622776 0.39879989 -0.59684634
vn 0.69622759 0.45538105 -0.55488309
vn -0.69622790 0.50757596 -0.50757596
vn -0.69622759 0.55488309 -0.45538104
vn 0.00000001 0.35989543 -0.93299265
vn -0.71831939 0.49194372 -0.49194373
vn -0.71831971 0.53779342 -0.44135590
vn -0.69622776 0.59684634 -0.39879989
vn -0.71831953 0.57846454 -0.38651756
vn -0.57735027 0.57735027 -0.57735027
vn -0.69622770 0.63306160 -0.33837848
vn -0.69622771 0.66318016 -0.27469812
vn -0.69622775 0.68691183 -0.20837241
vn -0.71831960 0.61356433 -0.32795697
vn -0.71831959 0.64275529 -0.26623787
vn -0.71831955 0.66575615 -0.20195490
vn -0.69622771 0.70402825 -0.14003998
vn -0.69622770 0.71436450 -0.07035873
vn -0.69622774 0.71782096 -0.00000000
vn -0.71831959 0.68234534 -0.13572698
vn -0.71831960 0.69236323 -0.06819179
vn -0.69622771 0.14003998 0.70402825
vn -0.69622775 0.20837241 0.68691183
vn -0.69622771 0.27469812 0.66318016
vn 0.69622771 0.14003998 0.70402825
vn 0.69622775 0.20837241 0.68691183
vn 0.69622771 0.27469812 0.66318016
vn -0.69622790 0.50757596 0.50757596
vn -0.69622759 0.55488309 0.45538104
vn -0.71831939 0.49194372 0.49194373
vn -0.71831971 0.53779342 0.44135590
vn -0.69622759 0.45538104 0.55488309
vn -0.69622776 0.39879989 0.59684634
vn -0.69622770 0.33837848 0.63306160
vn 0.69622759 0.45538105 0.55488309
vn 0.69622776 0.39879989 0.59684634
vn 0.69622770 0.33837848 0.63306160
vn 0.00000001 0.35989543 0.93299265
vn -0.69622771 0.70402825 0.14003998
vn -0.69622770 0.71436450 0.07035873
vn -0.71831959 0.68234534 0.13572698
vn -0.71831955 0.69571332 -0.00000000
vn -0.71831960 0.69236323 0.06819179
vn -0.69622775 0.68691183 0.20837241
vn -0.69622770 0.63306160 0.33837848
vn -0.69622771 0.66318016 0.27469812
vn -0.71831955 0.66575615 0.20195490
vn -0.71831960 0.61356433 0.32795697
vn -0.71831959 0.64275529 0.26623787
vn -0.69622776 0.59684634 0.39879989
vn -0.71831953 0.57846454 0.38651756
vn -0.57735027 0.57735027 0.57735027
vn -0.30151134 0.90453403 -0.30151134
vn -0.57735027 0.57735027 -0.57735027
vn 0.30151134 0.90453403 -0.30151134
vn 0.57735027 0.57735027 -0.57735027
vn -0.30151134 0.90453403 0.30151134
vn -0.57735027 0.57735027 0.57735027
vn 0.30151134 0.90453403 0.30151134
vn 0.57735027 0.57735027 0.57735027
vn 0.57735027 -0.57735027 -0.57735027
vn 0.30151134 -0.90453403 -0.30151134
vn 0.00000000 -0.70710678 0.70710678
vn 0.01748680 -0.71233221 -0.70162457
vn 0.07035852 -0.71436442 -0.69622780
vn 0.14004060 -0.70402846 -0.69622737
vn 0.20837266 -0.68691136 -0.69622814
vn 0.27469744 -0.66318049 -0.69622766
vn 0.33837808 -0.63306186 -0.69622766
vn 0.39880033 -0.59684631 -0.69622753
vn 0.45538172 -0.55488246 -0.69622765
vn 0.50757622 -0.50757558 -0.69622798
vn 0.55488232 -0.45538151 -0.69622791
vn 0.59684605 -0.39880083 -0.69622747
vn 0.63306073 -0.33837938 -0.69622806
vn 0.01748680 -0.71233221 0.70162457
vn 0.07035852 -0.71436442 0.69622780
vn 0.14004060 -0.70402846 0.69622737
vn 0.20837266 -0.68691136 0.69622814
vn 0.27469744 -0.66318049 0.69622766
vn 0.33837808 -0.63306186 0.69622766
vn 0.39880033 -0.59684631 0.69622753
vn 0.45538172 -0.55488246 0.69622765
vn 0.50757622 -0.50757558 0.69622798
vn 0.55488232 -0.45538151 0.69622791
vn 0.59684605 -0.39880083 0.69622747
vn 0.63306073 -0.33837938 0.69622806
vn 0.66318021 -0.27469914 -0.69622726
vn 0.68691295 -0.20837041 -0.69622724
vn 0.70402849 -0.14003715 -0.69622804
vn 0.13572676 0.68234545 -0.71831952
vn 0.20195303 0.66575732 -0.71831898
vn 0.06819224 0.69236334 -0.71831944
vn -0.00000000 0.69571301 -0.71831985
vn -0.06819224 0.69236334 -0.71831944
vn 0.38651548 0.57846575 -0.71831968
vn 0.44135513 0.53779346 -0.71832016
vn 0.26623841 0.64275316 -0.71832130
vn 0.32795931 0.61356489 -0.71831805
vn -0.13572676 0.68234545 -0.71831952
vn -0.20195303 0.66575732 -0.71831898
vn -0.26623841 0.64275316 -0.71832130
vn -0.32795931 0.61356489 -0.71831805
vn -0.38651548 0.57846575 -0.71831968
vn -0.44135513 0.53779346 -0.71832016
vn 0.49194335 0.49194503 -0.71831875
vn 0.53779308 0.44135395 -0.71832117
vn 0.57846360 0.38652834 -0.71831449
vn 0.61355476 0.32796595 -0.71832367
vn 0.64275523 0.26623770 -0.71831971
vn 0.66575622 0.20195266 -0.71832010
vn -0.49194335 0.49194503 -0.71831875
vn -0.53779308 0.44135395 -0.71832117
vn -0.57846360 0.38652834 -0.71831449
vn -0.61355476 0.32796595 -0.71832367
vn -0.64275523 0.26623770 -0.71831971
vn -0.66575622 0.20195266 -0.71832010
vn 0.68234539 0.13571812 -0.71832121
vn 0.69236598 0.06818431 -0.71831765
vn 0.69571397 -0.00000000 -0.71831892
vn 0.69236598 -0.06818431 -0.71831765
vn 0.68234539 -0.13571812 -0.71832121
vn -0.68234539 0.13571812 -0.71832121
vn -0.69236598 0.06818431 -0.71831765
vn -0.69571397 0.00000000 -0.71831892
vn -0.69236598 -0.06818431 -0.71831765
vn -0.68234539 -0.13571812 -0.71832121
vn 0.66575622 -0.20195266 -0.71832010
vn 0.64275523 -0.26623770 -0.71831971
vn 0.61355476 -0.32796595 -0.71832367
vn 0.57846360 -0.38652834 -0.71831449
vn 0.53779308 -0.44135395 -0.71832117
vn -0.66575622 -0.20195266 -0.71832010
vn -0.64275523 -0.26623770 -0.71831971
vn -0.53779308 -0.44135395 -0.71832117
vn -0.61355476 -0.32796595 -0.71832367
vn -0.57846360 -0.38652834 -0.71831449
vn 0.71436374 -0.07035930 -0.69622842
vn 0.71782185 0.00000000 -0.69622683
vn 0.71436374 0.07035930 -0.69622842
vn 0.66318021 -0.27469914 0.69622726
vn 0.68691295 -0.20837041 0.69622724
vn 0.70402849 -0.14003715 0.69622804
vn 0.13572676 0.68234545 0.71831952
vn 0.20195303 0.66575732 0.71831898
vn 0.06819224 0.69236334 0.71831944
vn -0.00000000 0.69571301 0.71831985
vn -0.06819224 0.69236334 0.71831944
vn 0.38651548 0.57846575 0.71831968
vn 0.44135513 0.53779346 0.71832016
vn 0.26623841 0.64275316 0.71832130
vn 0.32795931 0.61356489 0.71831805
vn -0.13572676 0.68234545 0.71831952
vn -0.20195303 0.66575732 0.71831898
vn -0.26623841 0.64275316 0.71832130
vn -0.32795931 0.61356489 0.71831805
vn -0.38651548 0.57846575 0.71831968
vn -0.44135513 0.53779346 0.71832016
vn 0.49194335 0.49194503 0.71831875
vn 0.53779308 0.44135395 0.71832117
vn 0.57846360 0.38652834 0.71831449
vn 0.61355476 0.32796595 0.71832367
vn 0.64275523 0.26623770 0.71831971
vn 0.66575622 0.20195266 0.71832010
vn -0.49194335 0.49194503 0.71831875
vn -0.53779308 0.44135395 0.71832117
vn -0.57846360 0.38652834 0.71831449
vn -0.61355476 0.32796595 0.71832367
vn -0.64275523 0.26623770 0.71831971
vn -0.66575622 0.20195266 0.71832010
vn 0.68234539 0.13571812 0.71832121
vn 0.69236598 0.06818431 0.71831765
vn 0.69571397 0.00000000 0.71831892
vn 0.69236598 -0.06818431 0.71831765
vn 0.68234539 -0.13571812 0.71832121
vn -0.68234539 0.13571812 0.71832121
vn -0.69236598 0.06818431 0.71831765
vn -0.69571397 -0.00000000 0.71831892
vn -0.69236598 -0.06818431 0.71831765
vn -0.68234539 -0.13571812 0.71832121
vn 0.66575622 -0.20195266 0.71832010
vn 0.64275523 -0.26623770 0.71831971
vn 0.61355476 -0.32796595 0.71832367
vn 0.57846360 -0.38652834 0.71831449
vn 0.53779308 -0.44135395 0.71832117
vn -0.66575622 -0.20195266 0.71832010
vn -0.64275523 -0.26623770 0.71831971
vn -0.53779308 -0.44135395 0.71832117
vn -0.61355476 -0.32796595 0.71832367
vn -0.57846360 -0.38652834 0.71831449
vn 0.71436374 -0.07035930 0.69622842
vn 0.71782185 0.00000000 0.69622683
vn 0.71436374 0.07035930 0.69622842
vn 0.57735027 0.57735027 -0.57735027
vn 0.30151134 0.90453403 -0.30151134
vn 0.00000000 0.70710678 0.70710678
vn 0.49194335 -0.49194503 -0.71831875
vn 0.44135513 -0.53779346 -0.71832016
vn 0.38651548 -0.57846575 -0.71831968
vn 0.32795931 -0.61356489 -0.71831805
vn 0.26623841 -0.64275316 -0.71832130
vn 0.20195303 -0.66575732 -0.71831898
vn 0.13572676 -0.68234545 -0.71831952
vn 0.06819224 -0.69236334 -0.71831944
vn -0.00000000 -0.69571301 -0.71831985
vn -0.06819224 -0.69236334 -0.71831944
vn -0.49194335 -0.49194503 -0.71831875
vn -0.44135513 -0.53779346 -0.71832016
vn -0.32795931 -0.61356489 -0.71831805
vn -0.38651548 -0.57846575 -0.71831968
vn -0.26623841 -0.64275316 -0.71832130
vn -0.13572676 -0.68234545 -0.71831952
vn -0.20195303 -0.66575732 -0.71831898
vn 0.70402849 0.14003715 -0.69622804
vn 0.68691295 0.20837041 -0.69622724
vn 0.66318021 0.27469914 -0.69622726
vn 0.63306073 0.33837938 -0.69622806
vn 0.59684605 0.39880083 -0.69622747
vn 0.55488232 0.45538151 -0.69622791
vn 0.49194335 -0.49194503 0.71831875
vn 0.44135513 -0.53779346 0.71832016
vn 0.38651548 -0.57846575 0.71831968
vn 0.32795931 -0.61356489 0.71831805
vn 0.26623841 -0.64275316 0.71832130
vn 0.20195303 -0.66575732 0.71831898
vn 0.13572676 -0.68234545 0.71831952
vn 0.06819224 -0.69236334 0.71831944
vn 0.00000000 -0.69571301 0.71831985
vn -0.06819224 -0.69236334 0.71831944
vn -0.49194335 -0.49194503 0.71831875
vn -0.44135513 -0.53779346 0.71832016
vn -0.32795931 -0.61356489 0.71831805
vn -0.38651548 -0.57846575 0.71831968
vn -0.26623841 -0.64275316 0.71832130
vn -0.13572676 -0.68234545 0.71831952
vn -0.20195303 -0.66575732 0.71831898
vn 0.70402849 0.14003715 0.69622804
vn 0.68691295 0.20837041 0.69622724
vn 0.66318021 0.27469914 0.69622726
vn 0.63306073 0.33837938 0.69622806
vn 0.59684605 0.39880083 0.69622747
vn 0.55488232 0.45538151 0.69622791
vn 0.50757622 0.50757558 -0.69622798
vn 0.45538172 0.55488246 -0.69622765
vn 0.39880033 0.59684631 -0.69622753
vn 0.27469744 0.66318049 -0.69622766
vn 0.33837808 0.63306186 -0.69622766
vn 0.14004060 0.70402846 -0.69622737
vn 0.01748680 0.71233221 -0.70162457
vn 0.07035852 0.71436442 -0.69622780
vn 0.20837266 0.68691136 -0.69622814
vn 0.50757622 0.50757558 0.69622798
vn 0.45538172 0.55488246 0.69622765
vn 0.39880033 0.59684631 0.69622753
vn 0.27469744 0.66318049 0.69622766
vn 0.33837808 0.63306186 0.69622766
vn 0.14004060 0.70402846 0.69622737
vn 0.01748680 0.71233221 0.70162457
vn 0.07035852 0.71436442 0.69622780
vn 0.20837266 0.68691136 0.69622814
f 1//1 7//7 9//9
f 1//1 8//8 7//7
f 1//1 13//13 20//20
f 1//1 20//20 8//8
f 2//2 22//22 3//3
f 2//2 3//3 10//10
f 3//3 22//22 26//26
f 3//3 26//26 10//10
f 4//4 6//6 7//7
f 4//4 8//8 5//5
f 2//2 9//9 6//6
f 1//1 9//9 10//10
f 5//5 8//8 20//20
f 4//4 7//7 8//8
f 2//2 10//10 9//9
f 6//6 9//9 7//7
f 11//11 19//19 13//13
f 11//11 14//14 12//12
f 1//1 14//14 13//13
f 1//1 17//17 14//14
f 11//11 13//13 14//14
f 12//12 14//14 17//17
f 1//1 18//18 17//17
f 12//12 17//17 15//15
f 15//15 18//18 16//16
f 16//16 40//40 37//37
f 1//1 49//49 18//18
f 15//15 17//17 18//18
f 16//16 18//18 40//40
f 5//5 20//20 19//19
f 5//5 19//19 59//59
f 11//11 59//59 19//19
f 13//13 19//19 20//20
f 11//11 12//12 59//59
f 12//12 15//15 59//59
f 15//15 16//16 59//59
f 16//16 37//37 59//59
f 21//21 23//23 25//25
f 21//21 26//26 22//22
f 23//23 24//24 27//27
f 24//24 29//29 28//28
f 23//23 27//27 25//25
f 10//10 27//27 28//28
f 21//21 25//25 26//26
f 10//10 26//26 25//25
f 10//10 25//25 27//27
f 24//24 28//28 27//27
f 28//28 29//29 33//33
f 10//10 28//28 33//33
f 10//10 33//33 34//34
f 10//10 34//34 35//35
f 2//2 59//59 22//22
f 23//23 59//59 24//24
f 21//21 22//22 59//59
f 21//21 59//59 23//23
f 29//29 30//30 33//33
f 30//30 31//31 34//34
f 31//31 32//32 35//35
f 30//30 34//34 33//33
f 10//10 35//35 36//36
f 10//10 36//36 79//79
f 10//10 79//79 80//80
f 31//31 35//35 34//34
f 32//32 36//36 35//35
f 10//10 80//80 81//81
f 10//10 81//81 85//85
f 10//10 85//85 86//86
f 24//24 59//59 29//29
f 29//29 59//59 30//30
f 30//30 59//59 31//31
f 31//31 59//59 32//32
f 32//32 59//59 76//76
f 4//4 59//59 6//6
f 4//4 5//5 59//59
f 2//2 6//6 59//59
f 1//1 10//10 146//146
f 1//1 146//146 49//49
f 10//10 90//90 146//146
f 37//37 41//41 38//38
f 38//38 42//42 39//39
f 18//18 49//49 40//40
f 37//37 40//40 41//41
f 38//38 41//41 42//42
f 39//39 42//42 45//45
f 39//39 45//45 43//43
f 43//43 46//46 44//44
f 40//40 49//49 41//41
f 43//43 45//45 46//46
f 41//41 49//49 42//42
f 44//44 46//46 48//48
f 42//42 49//49 45//45
f 45//45 49//49 46//46
f 37//37 38//38 59//59
f 38//38 39//39 59//59
f 39//39 43//43 59//59
f 43//43 44//44 59//59
f 44//44 48//48 47//47
f 44//44 47//47 59//59
f 47//47 50//50 59//59
f 47//47 48//48 53//53
f 46//46 49//49 48//48
f 48//48 49//49 53//53
f 49//49 54//54 53//53
f 49//49 55//55 54//54
f 47//47 53//53 50//50
f 50//50 54//54 51//51
f 51//51 55//55 52//52
f 50//50 53//53 54//54
f 51//51 54//54 55//55
f 49//49 57//57 55//55
f 52//52 55//55 57//57
f 52//52 57//57 58//58
f 52//52 58//58 56//56
f 56//56 64//64 60//60
f 56//56 58//58 64//64
f 50//50 51//51 59//59
f 51//51 52//52 59//59
f 52//52 56//56 59//59
f 56//56 60//60 59//59
f 59//59 60//60 61//61
f 59//59 61//61 62//62
f 59//59 62//62 63//63
f 60//60 65//65 61//61
f 61//61 66//66 62//62
f 62//62 67//67 63//63
f 63//63 72//72 68//68
f 60//60 64//64 65//65
f 61//61 65//65 66//66
f 62//62 66//66 67//67
f 63//63 67//67 72//72
f 59//59 63//63 68//68
f 59//59 68//68 69//69
f 59//59 69//69 70//70
f 59//59 70//70 71//71
f 59//59 71//71 107//107
f 68//68 73//73 69//69
f 69//69 74//74 70//70
f 70//70 75//75 71//71
f 57//57 123//123 58//58
f 58//58 123//123 64//64
f 64//64 123//123 65//65
f 65//65 123//123 66//66
f 68//68 72//72 73//73
f 69//69 73//73 74//74
f 70//70 74//74 75//75
f 66//66 123//123 67//67
f 67//67 123//123 72//72
f 72//72 123//123 73//73
f 49//49 281//281 57//57
f 32//32 76//76 36//36
f 76//76 77//77 79//79
f 77//77 78//78 80//80
f 78//78 82//82 81//81
f 36//36 76//76 79//79
f 77//77 80//80 79//79
f 10//10 86//86 87//87
f 10//10 87//87 90//90
f 78//78 81//81 80//80
f 81//81 82//82 85//85
f 59//59 77//77 76//76
f 59//59 78//78 77//77
f 59//59 82//82 78//78
f 59//59 83//83 82//82
f 59//59 84//84 83//83
f 82//82 83//83 85//85
f 83//83 84//84 86//86
f 84//84 88//88 87//87
f 83//83 86//86 85//85
f 84//84 87//87 86//86
f 88//88 89//89 91//91
f 89//89 93//93 92//92
f 87//87 88//88 90//90
f 88//88 91//91 90//90
f 89//89 92//92 91//91
f 92//92 93//93 94//94
f 59//59 88//88 84//84
f 59//59 89//89 88//88
f 59//59 93//93 89//89
f 59//59 96//96 93//93
f 59//59 97//97 96//96
f 59//59 98//98 97//97
f 59//59 102//102 98//98
f 59//59 103//103 102//102
f 59//59 104//104 103//103
f 93//93 96//96 94//94
f 90//90 91//91 95//95
f 91//91 92//92 95//95
f 92//92 94//94 95//95
f 94//94 99//99 95//95
f 95//95 99//99 100//100
f 96//96 97//97 99//99
f 97//97 98//98 100//100
f 98//98 102//102 101//101
f 94//94 96//96 99//99
f 97//97 100//100 99//99
f 98//98 101//101 100//100
f 95//95 100//100 101//101
f 95//95 101//101 105//105
f 95//95 105//105 106//106
f 95//95 106//106 127//127
f 102//102 103//103 105//105
f 103//103 104//104 106//106
f 101//101 102//102 105//105
f 103//103 106//106 105//105
f 95//95 127//127 128//128
f 104//104 127//127 106//106
f 90//90 95//95 146//146
f 95//95 138//138 140//140
f 59//59 117//117 113//113
f 59//59 131//131 129//129
f 59//59 125//125 104//104
f 59//59 124//124 125//125
f 59//59 129//129 124//124
f 59//59 130//130 131//131
f 59//59 135//135 130//130
f 59//59 114//114 135//135
f 59//59 113//113 114//114
f 59//59 109//109 119//119
f 59//59 107//107 108//108
f 59//59 108//108 109//109
f 59//59 119//119 118//118
f 59//59 118//118 117//117
f 71//71 110//110 107//107
f 107//107 111//111 108//108
f 108//108 112//112 109//109
f 109//109 122//122 119//119
f 71//71 75//75 110//110
f 107//107 110//110 111//111
f 73//73 123//123 74//74
f 74//74 123//123 75//75
f 108//108 111//111 112//112
f 109//109 112//112 122//122
f 75//75 123//123 110//110
f 110//110 123//123 111//111
f 111//111 123//123 112//112
f 114//114 136//136 135//135
f 113//113 117//117 115//115
f 113//113 116//116 114//114
f 114//114 116//116 136//136
f 115//115 117//117 123//123
f 113//113 115//115 116//116
f 118//118 119//119 121//121
f 117//117 118//118 120//120
f 119//119 122//122 121//121
f 118//118 121//121 120//120
f 112//112 123//123 122//122
f 120//120 121//121 123//123
f 121//121 122//122 123//123
f 117//117 120//120 123//123
f 124//124 129//129 126//126
f 104//104 125//125 127//127
f 124//124 128//128 125//125
f 125//125 128//128 127//127
f 124//124 126//126 128//128
f 129//129 131//131 132//132
f 130//130 135//135 133//133
f 130//130 134//134 131//131
f 126//126 129//129 132//132
f 131//131 134//134 132//132
f 130//130 133//133 134//134
f 126//126 137//137 128//128
f 126//126 132//132 137//137
f 132//132 134//134 137//137
f 95//95 128//128 137//137
f 95//95 137//137 138//138
f 133//133 135//135 136//136
f 115//115 123//123 137//137
f 116//116 137//137 136//136
f 115//115 137//137 116//116
f 133//133 137//137 134//134
f 133//133 136//136 137//137
f 57//57 281//281 123//123
f 138//138 142//142 139//139
f 95//95 140//140 281//281
f 138//138 139//139 141//141
f 138//138 141//141 140//140
f 139//139 145//145 141//141
f 140//140 141//141 145//145
f 123//123 281//281 137//137
f 137//137 142//142 138//138
f 139//139 142//142 143//143
f 137//137 281//281 142//142
f 139//139 143//143 145//145
f 142//142 144//144 143//143
f 143//143 144//144 145//145
f 142//142 281//281 144//144
f 140//140 145//145 144//144
f 146//146 279//279 147//147
f 49//49 146//146 147//147
f 49//49 147//147 148//148
f 49//49 148//148 281//281
f 147//147 149//149 148//148
f 149//149 150//150 161//161
f 150//150 151//151 162//162
f 151//151 152//152 163//163
f 152//152 153//153 164//164
f 153//153 154//154 165//165
f 154//154 155//155 166//166
f 155//155 156//156 167//167
f 156//156 157//157 168//168
f 149//149 179//179 150//150
f 150//150 187//187 151//151
f 151//151 198//198 152//152
f 152//152 210//210 153//153
f 157//157 158//158 169//169
f 158//158 159//159 170//170
f 159//159 160//160 171//171
f 148//148 149//149 161//161
f 150//150 162//162 161//161
f 151//151 163//163 162//162
f 152//152 164//164 163//163
f 153//153 165//165 164//164
f 154//154 166//166 165//165
f 155//155 167//167 166//166
f 156//156 168//168 167//167
f 157//157 169//169 168//168
f 161//161 162//162 163//163
f 161//161 163//163 164//164
f 161//161 164//164 165//165
f 161//161 165//165 166//166
f 161//161 166//166 167//167
f 161//161 167//167 168//168
f 161//161 168//168 169//169
f 161//161 169//169 170//170
f 161//161 170//170 171//171
f 158//158 170//170 169//169
f 159//159 171//171 170//170
f 160//160 172//172 171//171
f 161//161 171//171 172//172
f 161//161 172//172 226//226
f 161//161 226//226 227//227
f 161//161 227//227 228//228
f 147//147 280//280 149//149
f 149//149 280//280 183//183
f 149//149 178//178 179//179
f 149//149 177//177 176//176
f 149//149 183//183 177//177
f 149//149 176//176 178//178
f 150//150 179//179 180//180
f 150//150 180//180 185//185
f 150//150 185//185 186//186
f 150//150 186//186 187//187
f 151//151 187//187 188//188
f 151//151 188//188 189//189
f 151//151 189//189 190//190
f 151//151 190//190 197//197
f 151//151 197//197 198//198
f 152//152 198//198 199//199
f 152//152 199//199 200//200
f 152//152 200//200 201//201
f 152//152 201//201 202//202
f 152//152 202//202 208//208
f 152//152 208//208 209//209
f 152//152 209//209 210//210
f 153//153 210//210 211//211
f 153//153 211//211 212//212
f 153//153 334//334 154//154
f 154//154 334//334 155//155
f 155//155 334//334 156//156
f 160//160 173//173 172//172
f 173//173 174//174 226//226
f 174//174 175//175 227//227
f 153//153 212//212 334//334
f 156//156 334//334 157//157
f 157//157 334//334 158//158
f 158//158 334//334 159//159
f 159//159 334//334 160//160
f 160//160 334//334 173//173
f 175//175 223//223 228//228
f 223//223 224//224 276//276
f 224//224 225//225 277//277
f 148//148 161//161 281//281
f 161//161 236//236 281//281
f 172//172 173//173 226//226
f 174//174 227//227 226//226
f 175//175 228//228 227//227
f 161//161 232//232 231//231
f 161//161 233//233 232//232
f 161//161 229//229 230//230
f 161//161 230//230 236//236
f 161//161 231//231 229//229
f 161//161 238//238 233//233
f 161//161 239//239 238//238
f 161//161 240//240 239//239
f 161//161 241//241 240//240
f 161//161 242//242 241//241
f 161//161 243//243 242//242
f 161//161 250//250 243//243
f 161//161 251//251 250//250
f 161//161 252//252 251//251
f 161//161 253//253 252//252
f 161//161 254//254 253//253
f 161//161 255//255 254//254
f 161//161 261//261 255//255
f 161//161 228//228 276//276
f 161//161 276//276 277//277
f 161//161 277//277 278//278
f 161//161 278//278 322//322
f 223//223 276//276 228//228
f 224//224 277//277 276//276
f 225//225 278//278 277//277
f 161//161 340//340 261//261
f 161//161 324//324 325//325
f 161//161 322//322 323//323
f 161//161 323//323 324//324
f 161//161 325//325 326//326
f 161//161 326//326 327//327
f 95//95 279//279 146//146
f 147//147 279//279 280//280
f 95//95 280//280 279//279
f 95//95 281//281 280//280
f 140//140 144//144 281//281
f 280//280 182//182 181//181
f 280//280 191//191 182//182
f 280//280 192//192 191//191
f 280//280 193//193 192//192
f 280//280 194//194 193//193
f 280//280 195//195 194//194
f 280//280 196//196 195//195
f 280//280 203//203 196//196
f 280//280 204//204 203//203
f 280//280 205//205 204//204
f 280//280 206//206 205//205
f 280//280 207//207 206//206
f 280//280 213//213 207//207
f 280//280 214//214 213//213
f 280//280 184//184 183//183
f 280//280 181//181 184//184
f 280//280 215//215 214//214
f 280//280 216//216 215//215
f 280//280 217//217 216//216
f 280//280 282//282 217//217
f 280//280 283//283 282//282
f 280//280 284//284 283//283
f 280//280 285//285 284//284
f 280//280 286//286 285//285
f 280//280 287//287 286//286
f 280//280 288//288 287//287
f 280//280 289//289 288//288
f 334//334 212//212 218//218
f 334//334 218//218 219//219
f 173//173 334//334 174//174
f 174//174 334//334 175//175
f 175//175 334//334 223//223
f 223//223 334//334 224//224
f 224//224 334//334 225//225
f 225//225 299//299 278//278
f 299//299 300//300 322//322
f 300//300 301//301 323//323
f 334//334 290//290 289//289
f 334//334 298//298 297//297
f 334//334 291//291 290//290
f 334//334 297//297 291//291
f 334//334 219//219 221//221
f 334//334 221//221 222//222
f 334//334 220//220 292//292
f 334//334 292//292 293//293
f 334//334 222//222 220//220
f 334//334 293//293 295//295
f 334//334 294//294 296//296
f 334//334 295//295 294//294
f 334//334 296//296 298//298
f 225//225 334//334 299//299
f 299//299 334//334 300//300
f 301//301 334//334 302//302
f 300//300 334//334 301//301
f 301//301 302//302 324//324
f 302//302 303//303 325//325
f 303//303 304//304 326//326
f 281//281 234//234 235//235
f 281//281 235//235 244//244
f 281//281 244//244 245//245
f 281//281 245//245 246//246
f 281//281 246//246 247//247
f 281//281 247//247 248//248
f 281//281 248//248 249//249
f 281//281 249//249 256//256
f 281//281 256//256 257//257
f 281//281 257//257 258//258
f 281//281 258//258 259//259
f 281//281 259//259 260//260
f 281//281 260//260 266//266
f 281//281 266//266 267//267
f 281//281 236//236 237//237
f 281//281 237//237 234//234
f 281//281 267//267 268//268
f 281//281 268//268 269//269
f 281//281 269//269 270//270
f 281//281 270//270 305//305
f 281//281 305//305 306//306
f 281//281 306//306 307//307
f 281//281 307//307 308//308
f 281//281 308//308 309//309
f 281//281 309//309 310//310
f 281//281 310//310 311//311
f 281//281 311//311 312//312
f 278//278 299//299 322//322
f 300//300 323//323 322//322
f 301//301 324//324 323//323
f 345//345 264//264 263//263
f 345//345 265//265 264//264
f 345//345 271//271 265//265
f 345//345 272//272 271//271
f 345//345 274//274 272//272
f 345//345 275//275 274//274
f 161//161 327//327 337//337
f 161//161 337//337 338//338
f 161//161 338//338 339//339
f 161//161 341//341 340//340
f 161//161 339//339 341//341
f 340//340 262//262 261//261
f 340//340 263//263 262//262
f 302//302 325//325 324//324
f 303//303 326//326 325//325
f 304//304 327//327 326//326
f 343//343 312//312 313//313
f 345//345 273//273 275//275
f 342//342 315//315 273//273
f 342//342 316//316 315//315
f 342//342 318//318 316//316
f 344//344 321//321 319//319
f 342//342 317//317 318//318
f 342//342 319//319 317//317
f 344//344 314//314 320//320
f 344//344 313//313 314//314
f 344//344 320//320 321//321
f 340//340 345//345 263//263
f 280//280 334//334 289//289
f 280//280 343//343 334//334
f 302//302 334//334 303//303
f 303//303 334//334 304//304
f 304//304 334//334 328//328
f 328//328 334//334 329//329
f 329//329 334//334 330//330
f 330//330 334//334 332//332
f 304//304 328//328 327//327
f 328//328 329//329 337//337
f 329//329 330//330 338//338
f 330//330 332//332 339//339
f 331//331 341//341 332//332
f 333//333 334//334 335//335
f 333//333 336//336 334//334
f 331//331 332//332 334//334
f 331//331 334//334 336//336
f 333//333 335//335 342//342
f 334//334 344//344 335//335
f 331//331 336//336 340//340
f 333//333 345//345 336//336
f 281//281 312//312 343//343
f 280//280 281//281 343//343
f 327//327 328//328 337//337
f 329//329 338//338 337//337
f 330//330 339//339 338//338
f 331//331 340//340 341//341
f 332//332 341//341 339//339
f 342//342 273//273 345//345
f 343//343 313//313 344//344
f 342//342 344//344 319//319
f 335//335 344//344 342//342
f 334//334 343//343 344//344
f 336//336 345//345 340//340
f 333//333 342//342 345//345
f 178//178 176//176 229//229
f 176//176 177//177 230//230
f 178//178 231//231 179//179
f 179//179 232//232 180//180
f 185//185 180//180 233//233
f 184//184 181//181 234//234
f 181//181 182//182 235//235
f 182//182 191//191 244//244
f 177//177 183//183 236//236
f 183//183 184//184 237//237
f 186//186 185//185 238//238
f 187//187 186//186 239//239
f 188//188 187//187 240//240
f 189//189 188//188 241//241
f 242//242 190//190 189//189
f 197//197 190//190 243//243
f 191//191 192//192 245//245
f 192//192 193//193 246//246
f 193//193 194//194 247//247
f 194//194 195//195 248//248
f 195//195 196//196 249//249
f 198//198 197//197 250//250
f 199//199 198//198 251//251
f 200//200 199//199 252//252
f 201//201 200//200 253//253
f 202//202 201//201 254//254
f 208//208 202//202 255//255
f 196//196 203//203 256//256
f 203//203 204//204 257//257
f 204//204 205//205 258//258
f 205//205 206//206 259//259
f 206//206 207//207 260//260
f 209//209 208//208 261//261
f 210//210 209//209 262//262
f 210//210 263//263 211//211
f 212//212 211//211 264//264
f 207//207 213//213 266//266
f 213//213 214//214 267//267
f 214//214 215//215 268//268
f 215//215 216//216 269//269
f 216//216 217//217 270//270
f 218//218 212//212 265//265
f 219//219 218//218 271//271
f 221//221 219//219 272//272
f 220//220 222//222 275//275
f 292//292 220//220 273//273
f 222//222 221//221 274//274
f 177//177 236//236 230//230
f 176//176 230//230 229//229
f 179//179 231//231 232//232
f 180//180 232//232 233//233
f 178//178 229//229 231//231
f 185//185 233//233 238//238
f 184//184 234//234 237//237
f 181//181 235//235 234//234
f 182//182 244//244 235//235
f 183//183 237//237 236//236
f 238//238 239//239 186//186
f 187//187 239//239 240//240
f 188//188 240//240 241//241
f 189//189 241//241 242//242
f 190//190 242//242 243//243
f 197//197 243//243 250//250
f 191//191 245//245 244//244
f 192//192 246//246 245//245
f 193//193 247//247 246//246
f 194//194 248//248 247//247
f 195//195 249//249 248//248
f 196//196 256//256 249//249
f 198//198 250//250 251//251
f 199//199 251//251 252//252
f 200//200 252//252 253//253
f 201//201 253//253 254//254
f 254//254 255//255 202//202
f 203//203 257//257 256//256
f 204//204 258//258 257//257
f 205//205 259//259 258//258
f 206//206 260//260 259//259
f 208//208 255//255 261//261
f 209//209 261//261 262//262
f 210//210 262//262 263//263
f 263//263 264//264 211//211
f 212//212 264//264 265//265
f 207//207 266//266 260//260
f 213//213 267//267 266//266
f 214//214 268//268 267//267
f 215//215 269//269 268//268
f 216//216 270//270 269//269
f 217//217 305//305 270//270
f 218//218 265//265 271//271
f 219//219 271//271 272//272
f 220//220 275//275 273//273
f 221//221 272//272 274//274
f 222//222 274//274 275//275
f 217//217 282//282 305//305
f 282//282 283//283 306//306
f 283//283 284//284 307//307
f 284//284 285//285 308//308
f 285//285 286//286 309//309
f 286//286 287//287 310//310
f 287//287 288//288 311//311
f 288//288 289//289 312//312
f 289//289 290//290 313//313
f 290//290 291//291 314//314
f 291//291 297//297 320//320
f 293//293 292//292 315//315
f 295//295 293//293 316//316
f 294//294 295//295 318//318
f 296//296 294//294 317//317
f 298//298 296//296 319//319
f 297//297 298//298 321//321
f 282//282 306//306 305//305
f 283//283 307//307 306//306
f 284//284 308//308 307//307
f 285//285 309//309 308//308
f 286//286 310//310 309//309
f 287//287 311//311 310//310
f 288//288 312//312 311//311
f 289//289 313//313 312//312
f 290//290 314//314 313//313
f 291//291 320//320 314//314
f 273//273 315//315 292//292
f 293//293 315//315 316//316
f 295//295 316//316 318//318
f 294//294 318//318 317//317
f 298//298 319//319 321//321
f 296//296 317//317 319//319
f 297//297 321//321 320//320
