# https://github.com/mikedh/trimesh
v 0.26442206 0.31475213 -0.03204529
v 0.26449323 0.31104341 -0.03204529
v 0.26459548 0.31021485 -0.03204529
v 0.26510468 0.30650613 -0.03204529
v 0.26840433 0.28836259 -0.03204529
v 0.26859778 0.28747767 -0.03204529
v 0.26943827 0.28370693 -0.03204529
v 0.26960725 0.28299111 -0.03204529
v 0.27089685 0.27992493 -0.03204529
v 0.27300474 0.27772674 -0.03204529
v 0.27525270 0.27569199 -0.03204529
v 0.27821216 0.27464926 -0.03204529
v 0.28275031 0.27440691 -0.03204529
v 0.28363079 0.27459291 -0.03204529
v 0.28645909 0.27525800 -0.03204529
v 0.28713724 0.27564126 -0.03204529
v 0.28713724 0.30286500 -0.03204529
v 0.28195429 0.31503960 -0.03204529
v 0.28098261 0.31719270 -0.03204529
v 0.28046900 0.31794798 -0.03204529
v 0.27897924 0.31985307 -0.03204529
v 0.27707371 0.32224855 -0.03204529
v 0.27640891 0.32280090 -0.03204529
v 0.27431214 0.32442418 -0.03204529
v 0.27305809 0.32516819 -0.03204529
v 0.26903135 0.32552892 -0.03204529
v 0.26760831 0.32518509 -0.03204529
v 0.26626089 0.32362944 -0.03204529
v 0.26608524 0.32309964 -0.03204529
v 0.26534927 0.32063088 -0.03204529
v 0.26514247 0.31952617 -0.03204529
v 0.26442429 0.31558633 -0.03204529
v 0.26551381 0.30373302 -0.03935845
v 0.26579839 0.29919574 -0.03935845
v 0.26605853 0.29660299 -0.03935845
v 0.26683456 0.28984496 -0.03935845
v 0.26627645 0.31227213 -0.03935845
v 0.26562721 0.30827031 -0.03935845
v 0.26658106 0.31312323 -0.03935845
v 0.26922035 0.31691653 -0.03935845
v 0.27050331 0.31792542 -0.03935845
v 0.27374738 0.31839889 -0.03935845
v 0.27568850 0.31813398 -0.03935845
v 0.27663347 0.31764361 -0.03935845
v 0.28050679 0.31400251 -0.03935845
v 0.28114271 0.31325287 -0.03935845
v 0.28574979 0.30642721 -0.03935845
v 0.28713056 0.30319756 -0.03935845
v 0.28713724 0.30312428 -0.03935845
v 0.28713724 0.26873669 -0.03935845
v 0.28413108 0.26814488 -0.03935845
v 0.28275031 0.26794761 -0.03935845
v 0.27979973 0.26870853 -0.03935845
v 0.27821216 0.26937926 -0.03935845
v 0.27390525 0.27237782 -0.03935845
v 0.27068785 0.27686438 -0.03935845
v 0.26919588 0.28105220 -0.03935845
v 0.26851997 0.28299111 -0.03935845
v 0.26687679 0.28954059 -0.03935845
v 0.26685011 0.28972095 -0.03935845
v 0.26559383 0.31960508 -0.03323861
v 0.26641652 0.31830308 -0.03576414
v 0.26735929 0.28790042 -0.03774205
v 0.26827314 0.28752840 -0.03287854
v 0.26713249 0.32132417 -0.03499103
v 0.26851773 0.28299111 -0.03741562
v 0.26928261 0.28299111 -0.03287854
v 0.27074346 0.27968255 -0.03287854
v 0.27015868 0.32207382 -0.03570902
v 0.27271345 0.27741110 -0.03287854
v 0.27253336 0.32207382 -0.03570902
v 0.28036228 0.31688270 -0.03482782
v 0.28150070 0.31386724 -0.03741562
f 1 2 3
f 1 3 4
f 1 4 5
f 1 5 6
f 1 6 7
f 1 7 8
f 1 8 9
f 1 9 10
f 1 10 11
f 1 11 12
f 1 12 13
f 1 13 14
f 1 14 15
f 1 15 16
f 1 16 17
f 1 17 18
f 1 18 19
f 1 19 20
f 1 20 21
f 1 21 22
f 1 22 23
f 1 23 24
f 1 24 25
f 1 25 26
f 1 26 27
f 1 27 28
f 1 28 29
f 1 29 30
f 1 30 31
f 1 31 32
f 1 32 33
f 1 33 2
f 2 33 34
f 2 34 35
f 2 35 36
f 2 36 3
f 32 31 37
f 32 37 38
f 32 38 33
f 33 38 37
f 33 37 39
f 33 39 40
f 33 40 41
f 33 41 42
f 33 42 43
f 33 43 44
f 33 44 45
f 33 45 46
f 33 46 47
f 33 47 48
f 33 48 49
f 33 49 50
f 33 50 51
f 33 51 52
f 33 52 53
f 33 53 54
f 33 54 55
f 33 55 56
f 33 56 57
f 33 57 58
f 33 58 59
f 33 59 60
f 33 60 36
f 33 36 35
f 33 35 34
f 36 60 3
f 3 60 4
f 31 30 37
f 37 30 61
f 37 61 29
f 37 29 62
f 37 62 39
f 60 59 4
f 4 59 63
f 4 63 64
f 4 64 5
f 30 29 61
f 29 28 62
f 62 28 65
f 62 65 39
f 39 65 40
f 59 58 66
f 59 66 63
f 63 66 67
f 63 67 64
f 64 67 6
f 64 6 5
f 28 27 65
f 65 27 41
f 65 41 40
f 58 57 66
f 66 57 56
f 66 56 67
f 67 8 7
f 67 7 6
f 67 56 68
f 67 68 9
f 67 9 8
f 27 26 69
f 27 69 41
f 41 69 42
f 56 55 68
f 68 55 9
f 9 55 70
f 9 70 10
f 26 25 71
f 26 71 69
f 69 71 42
f 42 71 43
f 55 54 11
f 55 11 70
f 70 11 10
f 25 24 44
f 25 44 43
f 25 43 71
f 54 53 11
f 11 53 12
f 24 23 44
f 44 23 22
f 44 22 45
f 53 52 12
f 12 52 13
f 45 72 46
f 45 22 72
f 22 21 72
f 52 51 13
f 13 51 50
f 13 50 14
f 72 20 19
f 72 19 47
f 72 47 73
f 72 73 46
f 72 21 20
f 46 73 47
f 14 50 15
f 50 16 15
f 50 49 17
f 50 17 16
f 19 18 47
f 47 18 48
f 49 48 17
f 18 17 48

