# https://github.com/mikedh/trimesh
v 0.25238654 0.51045638 0.20635375
v 0.25237626 0.51045638 0.20637572
v 0.25241998 0.51044703 0.20637572
v 0.24614178 0.51045638 0.19234639
v 0.22711943 0.51045638 0.19234639
v 0.22689052 0.51045638 0.19400957
v 0.22685966 0.51045638 0.19854732
v 0.22742806 0.51045638 0.20306170
v 0.22759010 0.51045638 0.20366324
v 0.22836684 0.51045638 0.20637572
v 0.22850315 0.50987476 0.20637572
v 0.22985601 0.50579411 0.20637572
v 0.23040384 0.50418943 0.20637572
v 0.23068677 0.50352609 0.20637572
v 0.23231997 0.50089127 0.20637572
v 0.23302984 0.49993128 0.20637572
v 0.23453701 0.49792248 0.20637572
v 0.23862389 0.49481353 0.20637572
v 0.24029824 0.49439076 0.20637572
v 0.24191087 0.49436742 0.20637572
v 0.24522614 0.49500042 0.20637572
v 0.24669732 0.49561474 0.20637572
v 0.24943905 0.49741563 0.20637572
v 0.24958308 0.49754176 0.20637572
v 0.25079191 0.50063670 0.20637572
v 0.25195187 0.50535268 0.20637572
v 0.25313240 0.49010926 0.19234639
v 0.25130889 0.49626407 0.19234639
v 0.25265917 0.48883390 0.19234639
v 0.25131917 0.48701900 0.19234639
v 0.25084078 0.48659623 0.19234639
v 0.24197260 0.48659623 0.19234639
v 0.23959094 0.48937115 0.19234639
v 0.23862645 0.49057409 0.19234639
v 0.23640941 0.49397266 0.19234639
v 0.23291925 0.49959725 0.19234639
v 0.22956538 0.50546712 0.19234639
v 0.22734576 0.50987476 0.19234639
v 0.22711685 0.50987476 0.19400957
v 0.22756182 0.50987476 0.20308366
v 0.22949851 0.50506771 0.19415241
v 0.22702941 0.50987476 0.19854732
v 0.22953452 0.50492990 0.20335560
v 0.24950334 0.48883390 0.19698299
v 0.22898926 0.50533628 0.19854732
v 0.23047329 0.50292808 0.19575930
v 0.23041670 0.50283235 0.20202340
v 0.23060703 0.50314766 0.20504901
v 0.24436197 0.49392128 0.20545417
v 0.24644785 0.48839945 0.19767520
v 0.24644785 0.48659623 0.19523190
v 0.24697509 0.48659623 0.19501080
v 0.25020292 0.48659623 0.19299462
v 0.24255902 0.48659623 0.19324185
v 0.24223495 0.48659623 0.19279549
v 0.23038328 0.50278795 0.19854732
v 0.23173612 0.50111318 0.20335560
v 0.23942891 0.49386987 0.20557365
v 0.23426695 0.49763986 0.20308366
f 1 2 3
f 1 3 4
f 1 4 5
f 1 5 6
f 1 6 7
f 1 7 8
f 1 8 9
f 1 9 10
f 1 10 2
f 2 10 11
f 2 11 12
f 2 12 13
f 2 13 14
f 2 14 15
f 2 15 16
f 2 16 17
f 2 17 18
f 2 18 19
f 2 19 20
f 2 20 21
f 2 21 22
f 2 22 23
f 2 23 24
f 2 24 25
f 2 25 26
f 2 26 3
f 3 26 27
f 3 27 28
f 3 28 4
f 4 28 27
f 4 27 29
f 4 29 30
f 4 30 31
f 4 31 32
f 4 32 33
f 4 33 34
f 4 34 35
f 4 35 36
f 4 36 37
f 4 37 38
f 4 38 5
f 10 9 11
f 26 25 27
f 27 25 29
f 5 38 39
f 5 39 6
f 9 8 40
f 9 40 11
f 11 40 12
f 25 24 29
f 29 24 30
f 38 37 41
f 38 41 39
f 6 42 7
f 6 39 42
f 8 7 40
f 40 7 42
f 40 42 43
f 40 43 13
f 40 13 12
f 24 23 44
f 24 44 30
f 30 44 31
f 39 41 45
f 39 45 42
f 37 36 41
f 41 36 46
f 41 46 45
f 42 45 43
f 43 45 47
f 43 47 48
f 43 48 14
f 43 14 13
f 23 22 44
f 44 22 21
f 44 21 49
f 44 49 50
f 44 50 51
f 44 51 52
f 44 52 53
f 44 53 31
f 31 53 52
f 31 52 51
f 31 51 54
f 31 54 55
f 31 55 32
f 45 46 56
f 45 56 47
f 36 35 46
f 46 35 56
f 47 57 48
f 47 56 34
f 47 34 57
f 48 57 15
f 48 15 14
f 21 20 49
f 49 51 50
f 49 20 51
f 51 20 19
f 51 19 58
f 51 58 54
f 32 55 58
f 32 58 17
f 32 17 33
f 56 35 34
f 57 34 59
f 57 59 16
f 57 16 15
f 34 33 59
f 19 18 58
f 58 18 17
f 58 55 54
f 17 16 59
f 17 59 33

