# https://github.com/mikedh/trimesh
v 0.26460138 0.36581534 0.01277033
v 0.26391011 0.36580640 0.01277033
v 0.26052931 0.36407945 0.01277033
v 0.25821754 0.36111769 0.01277033
v 0.25737897 0.35953391 0.01277033
v 0.25655171 0.35658109 0.01277033
v 0.25601909 0.35131970 0.01277033
v 0.25643462 0.34678313 0.01277033
v 0.25734118 0.34292656 0.01277033
v 0.25739029 0.34274760 0.01277033
v 0.25803244 0.34048378 0.01277033
v 0.25892013 0.33766520 0.01277033
v 0.26044622 0.33317333 0.01277033
v 0.26184765 0.32958522 0.01277033
v 0.26313573 0.32730350 0.01277033
v 0.26536062 0.32408226 0.01277033
v 0.26550040 0.32388541 0.01277033
v 0.26727578 0.32178265 0.01277033
v 0.26881316 0.32041362 0.01277033
v 0.26930425 0.32002884 0.01277033
v 0.26957244 0.31984094 0.01277033
v 0.27283233 0.31755921 0.01277033
v 0.27367848 0.31709394 0.01277033
v 0.27821136 0.31639600 0.01277033
v 0.28271782 0.31967092 0.01277033
v 0.28350350 0.32109365 0.01277033
v 0.28472739 0.32382277 0.01277033
v 0.28473872 0.32477126 0.01277033
v 0.28455365 0.32815355 0.01277033
v 0.28309557 0.33289596 0.01277033
v 0.27639443 0.35139129 0.01277033
v 0.27498168 0.35484520 0.01277033
v 0.27236772 0.36015132 0.01277033
v 0.26893783 0.36383787 0.01277033
v 0.26860541 0.36409736 0.01277033
v 0.26736265 0.36272830 0.00980485
v 0.26460138 0.36302358 0.00941442
v 0.26182875 0.36289832 0.00956796
v 0.27251503 0.34079698 -0.01378301
v 0.26814836 0.35433516 -0.00003476
v 0.26460138 0.36107296 0.00714645
v 0.26185143 0.35853174 0.00505833
v 0.26084661 0.36007974 0.00801503
v 0.26460138 0.35880017 0.00465913
v 0.26914182 0.32657874 -0.03112406
v 0.26677337 0.33072162 -0.02617574
v 0.26667893 0.32631028 -0.03083452
v 0.27038836 0.36155614 0.01136217
v 0.27622822 0.33097216 -0.02198634
v 0.27654552 0.32682925 -0.02700923
v 0.27523100 0.32563025 -0.03003612
v 0.27183512 0.33087373 -0.02636876
v 0.26914182 0.32884255 -0.02864112
v 0.25781715 0.35777116 0.01026108
v 0.26198363 0.34471616 -0.00852762
v 0.27220529 0.32652503 -0.03107142
v 0.26903227 0.32552287 -0.03204529
v 0.26760820 0.32518286 -0.03204529
v 0.26625964 0.32362592 -0.03204529
v 0.26618788 0.32382277 -0.03179523
v 0.26238024 0.33502555 -0.01691957
v 0.26221028 0.33998269 -0.01272140
v 0.27189177 0.35853174 0.00958112
v 0.27574095 0.35279611 0.01169556
v 0.27632266 0.34501144 -0.00111830
v 0.27598271 0.34430456 -0.00346524
v 0.27553320 0.33924001 -0.01173437
v 0.27669284 0.33621562 -0.01383126
v 0.28081399 0.31765765 -0.03179962
v 0.28046647 0.31795293 -0.03204529
v 0.27707437 0.32224792 -0.03204529
v 0.27687037 0.32260585 -0.03186982
v 0.27897817 0.31985885 -0.03204529
v 0.27640954 0.32280269 -0.03204529
v 0.27431309 0.32442227 -0.03204529
v 0.27305898 0.32516494 -0.03204529
v 0.25746205 0.34980753 0.00475563
v 0.28098398 0.31720132 -0.03204529
v 0.28195480 0.31504485 -0.03204529
v 0.29026130 0.29642424 -0.03204529
v 0.29043508 0.29600370 -0.03204529
v 0.29199135 0.29206660 -0.03204529
v 0.29460531 0.28299341 -0.03204529
v 0.29159096 0.27863577 -0.03204529
v 0.29100922 0.27817944 -0.03204529
v 0.28769645 0.27596036 -0.03204529
v 0.28645745 0.27526242 -0.03204529
v 0.28363195 0.27459133 -0.03204529
v 0.28275180 0.27440342 -0.03204529
v 0.27821136 0.27465394 -0.03204529
v 0.27525365 0.27569190 -0.03204529
v 0.27300611 0.27772310 -0.03204529
v 0.27089831 0.27992427 -0.03204529
v 0.26960644 0.28299341 -0.03204529
v 0.26943645 0.28370923 -0.03204529
v 0.26859787 0.28747633 -0.03204529
v 0.26840523 0.28836218 -0.03204529
v 0.26510376 0.30651748 -0.03204529
v 0.26459759 0.31022194 -0.03204529
v 0.26449561 0.31105408 -0.03204529
v 0.26442382 0.31475851 -0.03204529
v 0.26442382 0.31559068 -0.03204529
v 0.26514155 0.31953672 -0.03204529
v 0.26534930 0.32062835 -0.03204529
v 0.26608589 0.32309797 -0.03204529
v 0.26227072 0.32631028 -0.02167049
v 0.27864200 0.33744150 -0.00565426
v 0.27766365 0.34197810 -0.00111830
v 0.28521091 0.32650715 0.00971711
v 0.25732607 0.34651467 0.00386950
v 0.26228204 0.32382277 -0.02167049
v 0.25992870 0.33289596 -0.01018583
v 0.28521091 0.32650715 0.01137971
v 0.25663859 0.34651467 0.00795800
v 0.26025733 0.32835937 -0.01018583
v 0.28521845 0.32382277 0.01125688
v 0.28535822 0.31592175 0.00643140
v 0.28478783 0.31289735 0.00542243
v 0.28509381 0.32129946 0.01044971
v 0.25771892 0.33942792 0.00507149
v 0.25647995 0.34651467 0.01249835
v 0.25771892 0.33942792 0.00654107
v 0.25737518 0.34269392 0.01249835
v 0.26326415 0.31475851 -0.02380247
v 0.28452343 0.31828400 0.00945829
v 0.28149772 0.31619018 0.01117353
v 0.28494650 0.30803862 0.00108826
v 0.28510892 0.30330518 -0.00328538
v 0.25785491 0.33993796 0.00956796
v 0.25801358 0.34043011 0.01249835
v 0.28192079 0.30695593 0.00216303
v 0.28834993 0.27700725 -0.03128637
v 0.28275180 0.30260724 -0.00254839
v 0.28513536 0.29875070 -0.00780379
v 0.26049155 0.33289596 0.01249835
v 0.27821136 0.30868289 0.00490479
v 0.28275180 0.28006744 -0.02538172
v 0.28532422 0.27604088 -0.03043972
v 0.27122316 0.28044325 -0.03027740
v 0.27551052 0.28042537 -0.02571513
v 0.27821136 0.27992427 -0.02519748
v 0.28275180 0.27780363 -0.02777692
v 0.28275180 0.27576351 -0.03004490
v 0.27576360 0.27606773 -0.03046604
v 0.27412799 0.27892211 -0.02886047
v 0.27098897 0.31667337 0.01062518
v 0.27821136 0.27766046 -0.02779446
v 0.27821136 0.27578139 -0.03006245
f 1 2 3
f 1 3 4
f 1 4 5
f 1 5 6
f 1 6 7
f 1 7 8
f 1 8 9
f 1 9 10
f 1 10 11
f 1 11 12
f 1 12 13
f 1 13 14
f 1 14 15
f 1 15 16
f 1 16 17
f 1 17 18
f 1 18 19
f 1 19 20
f 1 20 21
f 1 21 22
f 1 22 23
f 1 23 24
f 1 24 25
f 1 25 26
f 1 26 27
f 1 27 28
f 1 28 29
f 1 29 30
f 1 30 31
f 1 31 32
f 1 32 33
f 1 33 34
f 1 34 35
f 1 35 36
f 1 36 37
f 1 37 2
f 2 37 38
f 2 38 3
f 35 34 39
f 35 39 36
f 36 40 37
f 36 39 40
f 37 40 41
f 37 41 38
f 3 38 4
f 38 42 43
f 38 43 4
f 38 41 44
f 38 44 45
f 38 45 46
f 38 46 47
f 38 47 42
f 34 33 48
f 34 48 39
f 39 48 49
f 39 49 50
f 39 50 51
f 39 51 52
f 39 52 40
f 40 52 41
f 41 52 53
f 41 53 45
f 41 45 44
f 4 54 5
f 4 43 42
f 4 42 55
f 4 55 54
f 42 47 55
f 45 53 52
f 45 52 56
f 45 56 57
f 45 57 58
f 45 58 47
f 45 47 46
f 47 58 59
f 47 59 60
f 47 60 61
f 47 61 62
f 47 62 55
f 33 63 48
f 33 32 64
f 33 64 65
f 33 65 66
f 33 66 67
f 33 67 63
f 48 63 67
f 48 67 49
f 49 67 68
f 49 68 69
f 49 69 70
f 49 70 50
f 50 71 72
f 50 72 51
f 50 70 73
f 50 73 71
f 51 72 74
f 51 74 75
f 51 75 52
f 52 75 76
f 52 76 56
f 54 77 5
f 54 55 62
f 54 62 77
f 5 77 6
f 56 76 57
f 57 76 75
f 57 75 74
f 57 74 71
f 57 71 73
f 57 73 70
f 57 70 78
f 57 78 79
f 57 79 80
f 57 80 81
f 57 81 82
f 57 82 83
f 57 83 84
f 57 84 85
f 57 85 86
f 57 86 87
f 57 87 88
f 57 88 89
f 57 89 90
f 57 90 91
f 57 91 92
f 57 92 93
f 57 93 94
f 57 94 95
f 57 95 96
f 57 96 97
f 57 97 98
f 57 98 99
f 57 99 100
f 57 100 101
f 57 101 102
f 57 102 103
f 57 103 104
f 57 104 105
f 57 105 59
f 57 59 58
f 59 105 60
f 60 105 61
f 61 105 104
f 61 104 106
f 61 106 77
f 61 77 62
f 32 31 64
f 64 107 108
f 64 108 65
f 64 31 109
f 64 109 82
f 64 82 81
f 64 81 107
f 65 108 107
f 65 107 78
f 65 78 66
f 66 68 67
f 66 78 69
f 66 69 68
f 69 78 70
f 71 74 72
f 77 110 7
f 77 7 6
f 77 106 110
f 104 103 106
f 106 103 102
f 106 102 101
f 106 101 111
f 106 111 112
f 106 112 110
f 31 30 109
f 107 81 80
f 107 80 79
f 107 79 78
f 109 30 113
f 109 113 83
f 109 83 82
f 110 114 7
f 110 112 114
f 7 114 8
f 101 100 112
f 101 112 111
f 112 115 114
f 112 100 115
f 30 29 113
f 113 29 28
f 113 28 27
f 113 27 116
f 113 116 83
f 83 117 118
f 83 118 84
f 83 116 27
f 83 27 119
f 83 119 117
f 114 120 121
f 114 121 8
f 114 115 120
f 8 121 122
f 8 122 123
f 8 123 9
f 100 99 115
f 115 99 124
f 115 124 97
f 115 97 120
f 27 26 125
f 27 125 117
f 27 117 119
f 117 125 118
f 118 125 26
f 118 26 25
f 118 25 126
f 118 126 127
f 118 127 84
f 84 127 128
f 84 128 85
f 120 122 121
f 120 97 122
f 122 129 123
f 122 97 96
f 122 96 95
f 122 95 94
f 122 94 129
f 123 10 9
f 123 129 94
f 123 94 130
f 123 130 10
f 99 98 124
f 124 98 97
f 25 24 126
f 126 24 131
f 126 131 128
f 126 128 127
f 85 132 86
f 85 128 132
f 128 131 133
f 128 133 134
f 128 134 132
f 94 93 14
f 94 14 13
f 94 13 135
f 94 135 12
f 94 12 11
f 94 11 130
f 10 130 11
f 24 23 136
f 24 136 137
f 24 137 131
f 131 137 133
f 132 138 86
f 132 134 133
f 132 133 138
f 86 138 87
f 133 137 138
f 93 92 139
f 93 139 14
f 14 139 15
f 13 12 135
f 23 22 140
f 23 140 141
f 23 141 136
f 136 141 137
f 137 141 142
f 137 142 138
f 138 142 143
f 138 143 89
f 138 89 88
f 138 88 87
f 92 91 144
f 92 144 139
f 139 144 145
f 139 145 18
f 139 18 17
f 139 17 16
f 139 16 15
f 22 21 146
f 22 146 140
f 140 145 144
f 140 144 141
f 140 146 19
f 140 19 18
f 140 18 145
f 141 144 147
f 141 147 143
f 141 143 142
f 143 148 89
f 143 147 148
f 89 148 90
f 91 90 144
f 144 90 148
f 144 148 147
f 21 20 146
f 146 20 19

