# https://github.com/mikedh/trimesh
v 0.24306183 0.48659751 0.14321572
v 0.24329580 0.48945370 0.14637086
v 0.24530184 0.48659751 0.14436522
v 0.24598955 0.48659751 0.14524539
v 0.24756186 0.48659751 0.14746745
v 0.24872324 0.48659751 0.15050717
v 0.24907137 0.48659751 0.15224345
v 0.24927112 0.48659751 0.15351319
v 0.25357997 0.48659751 0.18402568
v 0.25362277 0.48659751 0.18530504
v 0.25346869 0.48659751 0.18885456
v 0.25221029 0.48659751 0.19085057
v 0.25174230 0.48659751 0.19142774
v 0.25084057 0.48659751 0.19234638
v 0.24197176 0.48659751 0.19234638
v 0.24111570 0.48659751 0.19089386
v 0.24031100 0.48659751 0.18947020
v 0.23846762 0.48659751 0.18543489
v 0.23827642 0.48659751 0.18498279
v 0.23819938 0.48659751 0.18477598
v 0.23642161 0.48659751 0.17928816
v 0.23578528 0.48659751 0.17685446
v 0.23554273 0.48659751 0.17585406
v 0.23474088 0.48659751 0.17172256
v 0.23461248 0.48659751 0.17105402
v 0.23456682 0.48659751 0.17073658
v 0.23408456 0.48659751 0.16678303
v 0.23404177 0.48659751 0.16624436
v 0.23387912 0.48659751 0.16226196
v 0.23388197 0.48659751 0.16165113
v 0.23431285 0.48659751 0.15722625
v 0.23491780 0.48659751 0.15408073
v 0.23553702 0.48659751 0.15169996
v 0.23710647 0.48659751 0.14803980
v 0.23908968 0.48659751 0.14428827
v 0.24186903 0.48659751 0.14323495
v 0.23944068 0.49865744 0.15531200
v 0.24011411 0.49865744 0.15531200
v 0.23974885 0.50312865 0.15991485
v 0.24313886 0.49806222 0.15588436
v 0.24467693 0.49922359 0.15890963
v 0.23963757 0.48946097 0.14636123
v 0.23951772 0.50312865 0.15991485
v 0.22957312 0.52206957 0.18188056
v 0.23283757 0.52367002 0.18224129
v 0.23500055 0.52367002 0.18262605
v 0.23737471 0.52367002 0.18310702
v 0.23805100 0.52367002 0.18352066
v 0.24021684 0.51731527 0.17732100
v 0.24030529 0.52367002 0.18558881
v 0.24375238 0.52367002 0.19234638
v 0.22572939 0.52367002 0.18656036
v 0.22804077 0.52367002 0.18451625
v 0.22493611 0.52367002 0.18947020
v 0.22490472 0.52367002 0.18962891
v 0.22451378 0.52367002 0.19234638
v 0.24830092 0.48856819 0.15229635
v 0.22448240 0.52348858 0.19234638
v 0.22447099 0.52182639 0.19234638
v 0.22453947 0.51894844 0.19234638
v 0.22481626 0.51763827 0.19234638
v 0.22550683 0.51494539 0.19234638
v 0.22593771 0.51350820 0.19234638
v 0.22620879 0.51267713 0.19234638
v 0.22734736 0.50987536 0.19234638
v 0.22956456 0.50546587 0.19234638
v 0.23292032 0.49960104 0.19234638
v 0.23641022 0.49397209 0.19234638
v 0.23862740 0.49057516 0.19234638
v 0.23958905 0.48937026 0.19234638
v 0.25131711 0.48701850 0.19234638
v 0.25265828 0.48883674 0.19234638
v 0.25313482 0.49011061 0.19234638
v 0.25332031 0.48970777 0.19193755
v 0.25331745 0.48967510 0.18947020
v 0.25327179 0.48949364 0.18713270
v 0.24874607 0.48950815 0.15532163
v 0.22571513 0.52348858 0.18652189
v 0.22489616 0.52348858 0.18947020
v 0.25332031 0.48929042 0.19193755
v 0.25345442 0.48754111 0.18931147
v 0.25359425 0.48714191 0.18534352
v 0.22487049 0.51894844 0.18947020
v 0.22570656 0.51894844 0.18638721
f 1 2 3
f 1 3 4
f 1 4 5
f 1 5 6
f 1 6 7
f 1 7 8
f 1 8 9
f 1 9 10
f 1 10 11
f 1 11 12
f 1 12 13
f 1 13 14
f 1 14 15
f 1 15 16
f 1 16 17
f 1 17 18
f 1 18 19
f 1 19 20
f 1 20 21
f 1 21 22
f 1 22 23
f 1 23 24
f 1 24 25
f 1 25 26
f 1 26 27
f 1 27 28
f 1 28 29
f 1 29 30
f 1 30 31
f 1 31 32
f 1 32 33
f 1 33 34
f 1 34 35
f 1 35 36
f 1 36 37
f 1 37 38
f 1 38 39
f 1 39 2
f 2 39 40
f 2 40 3
f 3 40 41
f 3 41 4
f 36 35 42
f 36 42 37
f 37 43 39
f 37 39 38
f 37 42 44
f 37 44 45
f 37 45 43
f 39 43 45
f 39 45 46
f 39 46 47
f 39 47 40
f 40 47 48
f 40 48 49
f 40 49 41
f 4 41 5
f 41 49 50
f 41 50 51
f 41 51 5
f 35 34 52
f 35 52 53
f 35 53 44
f 35 44 42
f 44 53 45
f 45 53 52
f 45 52 54
f 45 54 55
f 45 55 56
f 45 56 51
f 45 51 50
f 45 50 48
f 45 48 47
f 45 47 46
f 48 50 49
f 5 57 6
f 5 51 57
f 51 56 58
f 51 58 59
f 51 59 60
f 51 60 61
f 51 61 62
f 51 62 63
f 51 63 64
f 51 64 65
f 51 65 66
f 51 66 67
f 51 67 68
f 51 68 69
f 51 69 70
f 51 70 15
f 51 15 14
f 51 14 71
f 51 71 72
f 51 72 73
f 51 73 74
f 51 74 75
f 51 75 76
f 51 76 77
f 51 77 6
f 51 6 57
f 34 33 78
f 34 78 52
f 52 78 79
f 52 79 54
f 6 77 7
f 56 55 79
f 56 79 58
f 73 72 80
f 73 80 74
f 74 80 81
f 74 81 10
f 74 10 82
f 74 82 75
f 75 82 76
f 76 82 9
f 76 9 8
f 76 8 77
f 77 8 7
f 33 32 83
f 33 83 84
f 33 84 78
f 78 84 79
f 79 83 59
f 79 59 58
f 79 55 54
f 79 84 83
f 72 71 12
f 72 12 80
f 80 12 11
f 80 11 81
f 81 11 10
f 10 9 82
f 32 31 83
f 83 60 59
f 83 31 60
f 71 14 13
f 71 13 12
f 31 30 60
f 60 30 61
f 30 29 62
f 30 62 61
f 15 70 16
f 29 28 64
f 29 64 63
f 29 63 62
f 70 69 17
f 70 17 16
f 28 27 64
f 64 27 65
f 69 68 19
f 69 19 18
f 69 18 17
f 27 26 65
f 65 26 25
f 65 25 24
f 65 24 23
f 65 23 66
f 68 67 20
f 68 20 19
f 66 23 22
f 66 22 21
f 66 21 67
f 67 21 20

