# https://github.com/mikedh/trimesh
v 0.27374822 0.31840053 -0.03935845
v 0.27367836 0.31760350 -0.04032138
v 0.27099422 0.31743333 -0.04007858
v 0.27050313 0.31792888 -0.03935845
v 0.26922032 0.31691691 -0.03935845
v 0.26658273 0.31312281 -0.03935845
v 0.26627579 0.31227502 -0.03935845
v 0.26562592 0.30827194 -0.03935845
v 0.26551160 0.30373454 -0.03935845
v 0.26579738 0.29920012 -0.03935845
v 0.26605988 0.29660305 -0.03935845
v 0.26683465 0.28984469 -0.03935845
v 0.26684946 0.28971633 -0.03935845
v 0.26687697 0.28954023 -0.03935845
v 0.26730669 0.28790736 -0.03935845
v 0.28713724 0.28790736 -0.03935845
v 0.28713724 0.30312857 -0.03935845
v 0.28713089 0.30320022 -0.03935845
v 0.28574860 0.30643013 -0.03935845
v 0.28114447 0.31325117 -0.03935845
v 0.28050730 0.31400043 -0.03935845
v 0.27663350 0.31764528 -0.03935845
v 0.27568725 0.31813186 -0.03935845
v 0.28713724 0.30008373 -0.05925689
v 0.27367836 0.31552583 -0.04258933
v 0.28713724 0.29808667 -0.06152484
v 0.27079311 0.31299445 -0.04470278
v 0.27636465 0.31738558 -0.04014203
v 0.28713724 0.30015835 -0.05915480
v 0.28713724 0.30221510 -0.05536935
v 0.28713724 0.30234048 -0.05503827
v 0.28713724 0.30399126 -0.05046096
v 0.28713724 0.30445993 -0.04625614
v 0.28713724 0.30463010 -0.04241275
v 0.28713724 0.28790736 -0.06475572
v 0.28713724 0.29205668 -0.06503438
v 0.28713724 0.29581797 -0.06344515
v 0.27367836 0.31325713 -0.04494283
v 0.27821264 0.29492241 -0.06298439
v 0.27367836 0.30407187 -0.05392912
v 0.27099633 0.30376738 -0.05364769
v 0.26673514 0.31272280 -0.03997649
v 0.26679018 0.30357334 -0.04889382
v 0.28135616 0.29006261 -0.06707609
v 0.27914828 0.29006261 -0.06707609
v 0.27786762 0.29177311 -0.06556964
v 0.27123767 0.29908669 -0.05799047
v 0.26846671 0.28790736 -0.06471157
v 0.26653826 0.30114046 -0.04939044
v 0.26581645 0.30114046 -0.04649342
v 0.28331634 0.28790736 -0.06648289
v 0.28138578 0.28790736 -0.06713679
v 0.27827826 0.28790736 -0.06748167
v 0.27786762 0.28795511 -0.06752582
v 0.27761993 0.28790736 -0.06754238
v 0.27367836 0.28790736 -0.06734924
v 0.27612543 0.28975216 -0.06688572
v 0.27367836 0.28937602 -0.06643323
v 0.26917374 0.28790736 -0.06530753
v 0.27786973 0.28790736 -0.06752582
v 0.26729611 0.28790736 -0.03966748
v 0.26722413 0.28790736 -0.04195475
v 0.26723048 0.28790736 -0.04270797
v 0.26743582 0.28790736 -0.04650446
v 0.26690239 0.28995815 -0.04802470
v 0.26651499 0.29170743 -0.04650446
v 0.26580796 0.29660305 -0.04649342
v 0.26555184 0.30114046 -0.04195475
v 0.26683888 0.28966859 -0.04499800
v 0.26682618 0.28959695 -0.04195475
v 0.26644090 0.29206565 -0.04195475
v 0.26581645 0.29660305 -0.04195475
v 0.26684311 0.28965664 -0.03947433
f 1 2 3
f 1 3 4
f 1 4 5
f 1 5 6
f 1 6 7
f 1 7 8
f 1 8 9
f 1 9 10
f 1 10 11
f 1 11 12
f 1 12 13
f 1 13 14
f 1 14 15
f 1 15 16
f 1 16 17
f 1 17 18
f 1 18 19
f 1 19 20
f 1 20 21
f 1 21 22
f 1 22 23
f 1 23 24
f 1 24 2
f 2 25 3
f 2 24 26
f 2 26 25
f 3 25 27
f 3 27 4
f 4 27 5
f 23 22 28
f 23 28 24
f 24 28 29
f 24 29 30
f 24 30 31
f 24 31 32
f 24 32 33
f 24 33 34
f 24 34 17
f 24 17 16
f 24 16 35
f 24 35 36
f 24 36 37
f 24 37 26
f 25 38 27
f 25 26 38
f 26 37 39
f 26 39 40
f 26 40 38
f 27 38 40
f 27 40 41
f 27 41 5
f 5 42 6
f 5 41 43
f 5 43 42
f 22 21 32
f 22 32 31
f 22 31 30
f 22 30 29
f 22 29 28
f 37 36 44
f 37 44 45
f 37 45 46
f 37 46 39
f 39 47 40
f 39 46 47
f 40 47 41
f 41 47 48
f 41 48 43
f 42 43 6
f 6 43 7
f 43 49 50
f 43 50 7
f 43 48 49
f 21 20 32
f 32 20 33
f 36 35 51
f 36 51 44
f 44 51 52
f 44 52 53
f 44 53 54
f 44 54 55
f 44 55 45
f 45 55 56
f 45 56 57
f 45 57 46
f 46 57 47
f 47 57 58
f 47 58 59
f 47 59 48
f 48 59 56
f 48 56 55
f 48 55 60
f 48 60 53
f 48 53 52
f 48 52 51
f 48 51 35
f 48 35 16
f 48 16 15
f 48 15 61
f 48 61 62
f 48 62 63
f 48 63 64
f 48 64 65
f 48 65 66
f 48 66 67
f 48 67 50
f 48 50 49
f 7 50 8
f 50 68 8
f 50 67 68
f 20 19 34
f 20 34 33
f 53 60 54
f 54 60 55
f 56 59 58
f 56 58 57
f 64 63 65
f 65 69 66
f 65 63 69
f 66 69 70
f 66 70 71
f 66 71 67
f 67 71 72
f 67 72 68
f 8 68 9
f 68 72 9
f 19 18 34
f 34 18 17
f 63 62 70
f 63 70 69
f 70 62 73
f 70 73 71
f 71 73 72
f 72 11 10
f 72 10 9
f 72 73 11
f 15 14 61
f 62 61 14
f 62 14 73
f 73 14 13
f 73 13 12
f 73 12 11

