# https://github.com/mikedh/trimesh
v 0.27821344 0.31639373 0.01277033
v 0.27367297 0.31795979 0.01375265
v 0.27367297 0.31709343 0.01277033
v 0.27282661 0.31755993 0.01277033
v 0.26929677 0.32002562 0.01277033
v 0.26880887 0.32042548 0.01277033
v 0.26727048 0.32179162 0.01277033
v 0.26549810 0.32389081 0.01277033
v 0.26535371 0.32409072 0.01277033
v 0.26313326 0.32732278 0.01277033
v 0.26184380 0.32960522 0.01277033
v 0.26044482 0.33318716 0.01277033
v 0.25892136 0.33768541 0.01277033
v 0.25803021 0.34050098 0.01277033
v 0.25738797 0.34276676 0.01277033
v 0.25734314 0.34293336 0.01277033
v 0.25649679 0.34653196 0.01277033
v 0.25643703 0.34679851 0.01277033
v 0.25601885 0.35133007 0.01277033
v 0.25655153 0.35659468 0.01277033
v 0.25737801 0.35954353 0.01277033
v 0.25821939 0.36112624 0.01277033
v 0.26052448 0.36409175 0.01277033
v 0.26390496 0.36582440 0.01277033
v 0.26459697 0.36582440 0.01277033
v 0.26859978 0.36410841 0.01277033
v 0.26893333 0.36384186 0.01277033
v 0.27236360 0.36015996 0.01277033
v 0.27239844 0.36009333 0.01277033
v 0.27497736 0.35486203 0.01277033
v 0.27639130 0.35141337 0.01277033
v 0.28309247 0.33292058 0.01277033
v 0.28455120 0.32817245 0.01277033
v 0.28474039 0.32479045 0.01277033
v 0.28472546 0.32384080 0.01277033
v 0.28350571 0.32110855 0.01277033
v 0.28271410 0.31967577 0.01277033
v 0.28134000 0.32072535 0.01559226
v 0.27821344 0.31769320 0.01416343
v 0.27235863 0.33951801 0.03768541
v 0.27109903 0.33951801 0.03768541
v 0.27367297 0.33077145 0.02825519
v 0.26664817 0.35322934 0.05120564
v 0.27021283 0.32525691 0.02027165
v 0.28112593 0.32525691 0.02016449
v 0.27538562 0.33985123 0.03734607
v 0.27241835 0.34831458 0.04706205
v 0.24644996 0.48659390 0.19523089
v 0.24380633 0.48451138 0.19224823
v 0.26330751 0.35827735 0.05506346
v 0.26719081 0.32635650 0.01898571
v 0.26895326 0.32372418 0.01719967
v 0.26362118 0.35406235 0.05015188
v 0.26151523 0.35707784 0.05204507
v 0.28448153 0.32384080 0.01353832
v 0.25350961 0.48417816 0.18767600
v 0.25365898 0.47946334 0.18356813
v 0.25238445 0.48114604 0.18658651
v 0.25248402 0.47643119 0.18217504
v 0.24935746 0.48007977 0.18746167
v 0.24945705 0.47551489 0.18299660
v 0.24697770 0.48659390 0.19499871
v 0.25020382 0.48659390 0.19298050
v 0.25174719 0.48659390 0.19142665
v 0.25221518 0.48659390 0.19083726
v 0.25347477 0.48659390 0.18885478
v 0.25362414 0.48659390 0.18530057
v 0.25358430 0.48659390 0.18401465
v 0.24927782 0.48659390 0.15349144
v 0.24907370 0.48659390 0.15222335
v 0.24872519 0.48659390 0.15049091
v 0.24756517 0.48659390 0.14745466
v 0.24599193 0.48659390 0.14523998
v 0.24530488 0.48659390 0.14434697
v 0.24306452 0.48659390 0.14320391
v 0.24187464 0.48659390 0.14322177
v 0.23909159 0.48659390 0.14427553
v 0.23711011 0.48659390 0.14802618
v 0.23553687 0.48659390 0.15168755
v 0.23491952 0.48659390 0.15406296
v 0.23431213 0.48659390 0.15722422
v 0.23388396 0.48659390 0.16163573
v 0.23387899 0.48659390 0.16224296
v 0.23404329 0.48659390 0.16622581
v 0.23408809 0.48659390 0.16677947
v 0.23456603 0.48659390 0.17072660
v 0.23461084 0.48659390 0.17104807
v 0.23554184 0.48659390 0.17585249
v 0.23578580 0.48659390 0.17685267
v 0.23642306 0.48659390 0.17928167
v 0.23820041 0.48659390 0.18476476
v 0.23827510 0.48659390 0.18497910
v 0.23846926 0.48659390 0.18542561
v 0.24031633 0.48659390 0.18946202
v 0.24112286 0.48659390 0.19089085
v 0.24223806 0.48659390 0.19278404
v 0.24256168 0.48659390 0.19323054
v 0.24406521 0.48026302 0.18735451
v 0.26612043 0.32520694 0.01596732
v 0.26769367 0.32217479 0.01387766
v 0.25733319 0.37100571 0.06529739
v 0.24905378 0.48471129 0.19201605
v 0.24900897 0.40359297 0.09585632
v 0.25328061 0.38511688 0.07826395
v 0.25757715 0.35756096 0.04700847
v 0.25773644 0.36687401 0.06024294
v 0.25849321 0.35864389 0.05002686
v 0.28374469 0.33292058 0.01703893
v 0.24064989 0.48612741 0.18946202
v 0.23984335 0.48519444 0.18678299
v 0.24757014 0.40525901 0.09428462
v 0.24842149 0.40269333 0.09282008
v 0.25317109 0.37588716 0.06485089
v 0.26212758 0.33028829 0.01530649
v 0.28108612 0.34673187 0.03093423
v 0.28097159 0.34526578 0.02612982
v 0.24419963 0.42596757 0.11452031
v 0.24555382 0.41004047 0.09419532
v 0.24875505 0.38974839 0.07340597
v 0.24912347 0.39053142 0.07603142
v 0.25273794 0.37510413 0.06242190
v 0.25224507 0.37355474 0.05779608
v 0.25330052 0.47136649 0.13714927
v 0.23961434 0.46670166 0.16004615
v 0.23937537 0.46165365 0.15179470
v 0.23587044 0.48279539 0.17129813
v 0.23539250 0.48127931 0.16677947
v 0.24428925 0.41722101 0.10033926
v 0.24472240 0.41030702 0.08965881
v 0.24879986 0.38116843 0.05436691
v 0.25015405 0.37828621 0.05788538
v 0.27147242 0.37160549 0.02821946
v 0.25365400 0.45845488 0.11686001
v 0.24907370 0.48097941 0.14093566
v 0.24868536 0.48484457 0.14650807
v 0.23565137 0.48629400 0.17585249
v 0.23527300 0.48541102 0.17281625
v 0.23495437 0.48441142 0.16978000
v 0.23472536 0.48354509 0.16677947
v 0.23515849 0.48056293 0.16392183
v 0.24405526 0.41642132 0.09732087
v 0.24426435 0.41267276 0.09117693
v 0.24410504 0.41198972 0.08814069
v 0.24870527 0.38050202 0.05133066
v 0.24937738 0.37870270 0.05304525
v 0.27185079 0.36760706 0.02280781
v 0.25327563 0.45770517 0.11455604
v 0.24870527 0.47583142 0.13275565
v 0.24806800 0.47989652 0.13789941
v 0.24784397 0.48417816 0.14407906
v 0.23463076 0.48229557 0.16235013
v 0.23536760 0.47714758 0.15770645
v 0.24410504 0.41198972 0.08674759
v 0.24870527 0.38050202 0.05095560
v 0.27205491 0.36350864 0.01703893
v 0.27159688 0.36267564 0.01439561
v 0.26220226 0.40762475 0.06036796
v 0.25858781 0.41773745 0.06808360
v 0.24455810 0.48512781 0.14157863
v 0.24557373 0.48621070 0.14407906
v 0.24909858 0.47159976 0.12779050
v 0.24334332 0.41912025 0.08964095
v 0.24869034 0.38283443 0.05090202
v 0.24988022 0.37828621 0.04427585
v 0.25233468 0.36920643 0.03066633
v 0.25407222 0.36014330 0.02157545
v 0.26700664 0.36704060 0.01464566
v 0.25880685 0.41350579 0.06336848
v 0.25342000 0.43966222 0.09178419
v 0.25295201 0.43966222 0.09178419
v 0.24191445 0.48511115 0.14159650
v 0.24386109 0.41912025 0.08617606
v 0.24869531 0.38556668 0.05097346
v 0.25301176 0.36920643 0.02748719
v 0.25799534 0.38966510 0.03743538
v 0.25776634 0.38966510 0.03743538
v 0.23959941 0.48496121 0.14175723
v 0.24838166 0.39189756 0.05436691
v 0.24880484 0.38859883 0.05136639
v 0.25321090 0.37160549 0.02825519
v 0.24853101 0.39476311 0.05517062
v 0.26201308 0.36724052 0.01444919
v 0.25709921 0.37736991 0.02766580
v 0.25690004 0.38163489 0.03154147
v 0.25548613 0.37841949 0.03054130
v 0.25387305 0.37948573 0.03372044
f 1 2 3
f 1 3 4
f 1 4 5
f 1 5 6
f 1 6 7
f 1 7 8
f 1 8 9
f 1 9 10
f 1 10 11
f 1 11 12
f 1 12 13
f 1 13 14
f 1 14 15
f 1 15 16
f 1 16 17
f 1 17 18
f 1 18 19
f 1 19 20
f 1 20 21
f 1 21 22
f 1 22 23
f 1 23 24
f 1 24 25
f 1 25 26
f 1 26 27
f 1 27 28
f 1 28 29
f 1 29 30
f 1 30 31
f 1 31 32
f 1 32 33
f 1 33 34
f 1 34 35
f 1 35 36
f 1 36 37
f 1 37 38
f 1 38 39
f 1 39 40
f 1 40 41
f 1 41 42
f 1 42 2
f 2 42 41
f 2 41 3
f 3 41 43
f 3 43 44
f 3 44 4
f 37 36 45
f 37 45 38
f 38 45 39
f 39 45 46
f 39 46 47
f 39 47 40
f 40 47 48
f 40 48 41
f 41 48 49
f 41 49 43
f 43 50 44
f 43 49 50
f 44 51 52
f 44 52 4
f 44 50 53
f 44 53 54
f 44 54 51
f 4 52 5
f 36 35 55
f 36 55 45
f 45 55 56
f 45 56 57
f 45 57 58
f 45 58 59
f 45 59 60
f 45 60 61
f 45 61 46
f 46 61 47
f 47 61 48
f 48 61 62
f 48 62 63
f 48 63 64
f 48 64 65
f 48 65 66
f 48 66 67
f 48 67 68
f 48 68 69
f 48 69 70
f 48 70 71
f 48 71 72
f 48 72 73
f 48 73 74
f 48 74 75
f 48 75 76
f 48 76 77
f 48 77 78
f 48 78 79
f 48 79 80
f 48 80 81
f 48 81 82
f 48 82 83
f 48 83 84
f 48 84 85
f 48 85 86
f 48 86 87
f 48 87 88
f 48 88 89
f 48 89 90
f 48 90 91
f 48 91 92
f 48 92 93
f 48 93 94
f 48 94 95
f 48 95 96
f 48 96 97
f 48 97 49
f 49 97 98
f 49 98 50
f 50 54 53
f 50 98 54
f 51 99 100
f 51 100 6
f 51 6 5
f 51 5 52
f 51 54 101
f 51 101 99
f 54 98 101
f 35 34 66
f 35 66 56
f 35 56 55
f 56 66 65
f 56 65 64
f 56 64 58
f 56 58 57
f 58 64 63
f 58 63 102
f 58 102 59
f 59 102 60
f 60 102 62
f 60 62 61
f 62 102 63
f 97 96 98
f 98 96 103
f 98 103 104
f 98 104 101
f 99 105 8
f 99 8 7
f 99 7 100
f 99 101 106
f 99 106 107
f 99 107 105
f 100 7 6
f 101 104 106
f 34 33 66
f 66 33 108
f 66 108 67
f 96 95 103
f 103 95 109
f 103 109 110
f 103 110 92
f 103 92 111
f 103 111 112
f 103 112 113
f 103 113 104
f 104 113 105
f 104 105 106
f 105 114 9
f 105 9 8
f 105 107 106
f 105 113 114
f 33 32 108
f 67 108 115
f 67 115 68
f 108 32 116
f 108 116 115
f 95 94 109
f 109 94 110
f 110 94 93
f 110 93 92
f 92 91 117
f 92 117 111
f 111 117 118
f 111 118 119
f 111 119 120
f 111 120 112
f 112 120 121
f 112 121 113
f 113 121 114
f 114 11 10
f 114 10 9
f 114 121 122
f 114 122 11
f 32 31 116
f 68 123 69
f 68 115 123
f 115 116 123
f 116 31 123
f 91 90 124
f 91 124 117
f 117 124 90
f 117 90 125
f 117 125 126
f 117 126 127
f 117 127 118
f 118 127 128
f 118 128 129
f 118 129 119
f 119 130 131
f 119 131 122
f 119 122 121
f 119 121 120
f 119 129 130
f 11 122 131
f 11 131 12
f 31 30 132
f 31 132 123
f 123 133 134
f 123 134 135
f 123 135 71
f 123 71 70
f 123 70 69
f 123 132 133
f 90 89 126
f 90 126 125
f 126 89 136
f 126 136 88
f 126 88 137
f 126 137 127
f 127 137 138
f 127 138 139
f 127 139 140
f 127 140 128
f 128 141 129
f 128 140 141
f 129 141 142
f 129 142 143
f 129 143 130
f 130 143 144
f 130 144 145
f 130 145 131
f 131 145 12
f 12 145 13
f 30 29 146
f 30 146 132
f 132 146 133
f 133 147 134
f 133 146 147
f 134 147 148
f 134 148 149
f 134 149 150
f 134 150 72
f 134 72 135
f 135 72 71
f 89 88 136
f 88 87 138
f 88 138 137
f 138 87 139
f 139 87 86
f 139 86 85
f 139 85 84
f 139 84 151
f 139 151 152
f 139 152 143
f 139 143 140
f 140 143 142
f 140 142 141
f 143 153 154
f 143 154 144
f 143 152 151
f 143 151 83
f 143 83 153
f 144 154 17
f 144 17 16
f 144 16 15
f 144 15 14
f 144 14 145
f 145 14 13
f 29 28 155
f 29 155 146
f 146 155 156
f 146 156 147
f 147 156 157
f 147 157 158
f 147 158 148
f 148 159 160
f 148 160 149
f 148 158 161
f 148 161 159
f 149 160 150
f 150 160 73
f 150 73 72
f 84 83 151
f 153 83 82
f 153 82 162
f 153 162 154
f 154 163 164
f 154 164 165
f 154 165 166
f 154 166 18
f 154 18 17
f 154 162 163
f 28 27 156
f 28 156 155
f 156 27 158
f 156 158 157
f 158 27 167
f 158 167 168
f 158 168 169
f 158 169 159
f 158 159 161
f 159 170 171
f 159 171 75
f 159 75 74
f 159 74 160
f 159 169 170
f 160 74 73
f 82 81 162
f 162 81 172
f 162 172 173
f 162 173 163
f 163 173 164
f 164 173 165
f 165 173 174
f 165 174 166
f 166 174 19
f 166 19 18
f 27 26 167
f 167 26 25
f 167 25 168
f 168 25 175
f 168 175 169
f 169 175 176
f 169 176 170
f 170 176 171
f 171 177 76
f 171 76 75
f 171 176 177
f 81 80 172
f 172 178 173
f 172 80 178
f 173 178 179
f 173 179 174
f 174 180 20
f 174 20 19
f 174 179 178
f 174 178 181
f 174 181 180
f 25 24 176
f 25 176 175
f 176 24 182
f 176 182 23
f 176 23 183
f 176 183 184
f 176 184 177
f 177 78 77
f 177 77 76
f 177 184 185
f 177 185 186
f 177 186 180
f 177 180 181
f 177 181 78
f 80 79 181
f 80 181 178
f 180 186 185
f 180 185 22
f 180 22 21
f 180 21 20
f 181 79 78
f 24 23 182
f 23 22 183
f 183 185 184
f 183 22 185

