# https://github.com/mikedh/trimesh
v 0.08532397 0.14061818 -0.09118013
v 0.08319760 0.14229826 -0.09062792
v 0.08672819 0.14487793 -0.08937818
v 0.09007823 0.14457366 -0.08904395
v 0.08570512 0.13626582 -0.08882597
v 0.08247543 0.13852799 -0.09088949
v 0.07962689 0.13791945 -0.08950897
v 0.07942629 0.14085630 -0.08807031
v 0.08257573 0.14426939 -0.08817204
v 0.08797191 0.14659770 -0.08740185
v 0.09166298 0.14749728 -0.08705308
v 0.09661784 0.14989173 -0.08445188
v 0.09856368 0.14964038 -0.08405952
v 0.09487261 0.14735176 -0.08626836
v 0.08590572 0.12625144 -0.08164723
v 0.08458174 0.13064348 -0.08600679
v 0.08185356 0.13424178 -0.08878237
v 0.16474213 0.18213091 -0.04172822
v 0.07868406 0.13295856 -0.08648634
v 0.07796191 0.13671561 -0.08599226
v 0.07880442 0.14039329 -0.08488783
v 0.08036912 0.14252316 -0.08408859
v 0.08217453 0.14477209 -0.08488783
v 0.08464193 0.14633312 -0.08519300
v 0.09166298 0.14872758 -0.08539645
v 0.09413038 0.14966684 -0.08461173
v 0.11996786 0.16396744 -0.06893186
v 0.11782142 0.16152006 -0.07138774
v 0.16963681 0.18863960 -0.03921420
v 0.25605595 0.23544395 0.01516401
v 0.20909513 0.20825827 -0.01449551
v 0.08704915 0.12123763 -0.07571824
v 0.08520361 0.12387021 -0.07981622
v 0.08464193 0.12790507 -0.08376888
v 0.27120137 0.24297128 0.02479864
v 0.11278633 0.12921474 -0.05396404
v 0.10777128 0.12696580 -0.05761154
v 0.08177332 0.12762726 -0.08401593
v 0.08064996 0.13051119 -0.08602132
v 0.07870412 0.12918829 -0.08339105
v 0.07788167 0.12779923 -0.08106596
v 0.07709931 0.13297179 -0.08241742
v 0.07770112 0.13577634 -0.08112408
v 0.08283651 0.14425616 -0.08211225
v 0.07814244 0.13367293 -0.07737486
v 0.08600602 0.14727239 -0.08206866
v 0.08893480 0.14916414 -0.07993247
v 0.09276629 0.15159828 -0.07858101
v 0.11571511 0.16404681 -0.06733335
v 0.12442122 0.16899447 -0.06170952
v 0.18432084 0.20108813 -0.02517643
v 0.28177307 0.25265494 0.03452045
v 0.28070989 0.25036632 0.03207909
v 0.27866375 0.24817029 0.02984119
v 0.08426078 0.12011316 -0.07375643
v 0.08426078 0.12175356 -0.07765097
v 0.09725977 0.12174033 -0.06374398
v 0.08969709 0.11947817 -0.06827793
v 0.08177332 0.12400250 -0.08033936
v 0.28155241 0.24729717 0.03296554
v 0.28157247 0.23117097 0.05022938
v 0.27836284 0.22803569 0.04999688
v 0.26600579 0.22061419 0.04241125
v 0.25362868 0.21323239 0.03510172
v 0.13738007 0.14404450 -0.03662753
v 0.10277631 0.12429354 -0.05889034
v 0.08079038 0.12594717 -0.08201052
v 0.07904514 0.12424062 -0.07866820
v 0.07808226 0.12450521 -0.07391628
v 0.07709931 0.12926766 -0.07746205
v 0.07701907 0.13174149 -0.07993247
v 0.08757071 0.14706072 -0.07826131
v 0.09021865 0.14917737 -0.07717142
v 0.07766100 0.12838131 -0.07426505
v 0.07892478 0.13186055 -0.07452662
v 0.09296689 0.15143953 -0.07654655
v 0.11808221 0.16638835 -0.06272675
v 0.18083037 0.20081032 -0.02343261
v 0.28195361 0.25462606 0.03998442
v 0.28195361 0.23771935 0.05727734
v 0.08177332 0.12058941 -0.07252122
v 0.08135206 0.12148898 -0.07643030
v 0.09262587 0.12126409 -0.06436885
v 0.08853360 0.12140961 -0.06606908
v 0.28147217 0.23314210 0.05599853
v 0.28056947 0.23003328 0.05329561
v 0.26137189 0.21794193 0.04034772
v 0.11304711 0.13131816 -0.05118845
v 0.23164274 0.20077063 0.02293855
v 0.23501285 0.20304603 0.02548163
v 0.23005799 0.20059866 0.02306934
v 0.22016833 0.19573037 0.01792506
v 0.21579522 0.19334914 0.01539652
v 0.13974718 0.14653156 -0.03417165
v 0.10516346 0.12674091 -0.05641992
v 0.08016851 0.12234887 -0.07132961
v 0.07974725 0.12555030 -0.07055943
v 0.09286659 0.14908476 -0.07371283
v 0.11505312 0.16396744 -0.06131716
v 0.07984755 0.12957193 -0.07186730
v 0.25116128 0.22540311 0.03732510
v 0.18169296 0.20100876 -0.02038091
v 0.27053938 0.24813060 0.03543596
v 0.28195361 0.25335607 0.04416960
v 0.21836292 0.19721202 0.01798319
v 0.28195361 0.24131765 0.05720468
v 0.21394969 0.19481756 0.01525120
v 0.10775122 0.12928089 -0.05399310
v 0.10267601 0.12909568 -0.05639086
v 0.08201405 0.12461103 -0.06923703
v 0.21864376 0.19583620 0.01777975
v 0.23252539 0.20291374 0.02546710
v 0.11495282 0.13408303 -0.04896508
v 0.14969701 0.15393982 -0.02676040
v 0.21136193 0.19095468 0.01279532
v 0.11013839 0.13403011 -0.05146456
v 0.23100082 0.21142001 0.02529272
v 0.25082025 0.22374948 0.03763026
v 0.28195361 0.24463814 0.05512662
v 0.28195361 0.24700614 0.05261261
v 0.25844311 0.22818121 0.04242578
v 0.28195361 0.24963872 0.04945920
v 0.28195361 0.25188765 0.04646563
v 0.27577508 0.25036632 0.03991177
v 0.25382928 0.22441093 0.03970832
v 0.17190360 0.16871666 -0.01193790
v 0.12227477 0.13887194 -0.04393706
v 0.15709921 0.15887425 -0.02180504
f 1 2 3
f 1 3 4
f 1 4 5
f 1 5 6
f 1 6 2
f 2 6 7
f 2 7 8
f 2 8 9
f 2 9 3
f 3 10 11
f 3 11 4
f 3 9 10
f 4 11 12
f 4 12 13
f 4 13 14
f 4 14 5
f 5 15 16
f 5 16 17
f 5 17 6
f 5 14 18
f 5 18 15
f 6 17 7
f 7 19 20
f 7 20 8
f 7 17 19
f 8 20 21
f 8 21 22
f 8 22 23
f 8 23 9
f 9 23 24
f 9 24 10
f 10 24 25
f 10 25 11
f 11 25 26
f 11 26 27
f 11 27 12
f 12 27 28
f 12 28 13
f 13 28 29
f 13 29 30
f 13 30 31
f 13 31 18
f 13 18 14
f 15 32 33
f 15 33 34
f 15 34 16
f 15 18 35
f 15 35 36
f 15 36 37
f 15 37 32
f 16 34 38
f 16 38 17
f 17 38 39
f 17 39 19
f 18 31 35
f 19 39 40
f 19 40 41
f 19 41 42
f 19 42 20
f 20 42 43
f 20 43 21
f 21 43 22
f 22 44 23
f 22 43 45
f 22 45 44
f 23 44 46
f 23 46 24
f 24 46 47
f 24 47 48
f 24 48 49
f 24 49 25
f 25 49 27
f 25 27 26
f 27 49 50
f 27 50 51
f 27 51 52
f 27 52 53
f 27 53 54
f 27 54 28
f 28 54 30
f 28 30 29
f 30 54 35
f 30 35 31
f 32 55 56
f 32 56 33
f 32 37 57
f 32 57 58
f 32 58 55
f 33 56 59
f 33 59 38
f 33 38 34
f 35 54 60
f 35 60 36
f 36 60 61
f 36 61 62
f 36 62 63
f 36 63 64
f 36 64 65
f 36 65 66
f 36 66 57
f 36 57 37
f 38 59 67
f 38 67 39
f 39 67 40
f 40 68 41
f 40 67 68
f 41 69 70
f 41 70 42
f 41 68 69
f 42 70 71
f 42 71 43
f 43 71 45
f 44 45 72
f 44 72 73
f 44 73 47
f 44 47 46
f 45 71 74
f 45 74 75
f 45 75 72
f 47 73 76
f 47 76 48
f 48 76 77
f 48 77 49
f 49 77 50
f 50 77 78
f 50 78 51
f 51 78 52
f 52 79 80
f 52 80 61
f 52 61 60
f 52 60 53
f 52 78 79
f 53 60 54
f 55 58 81
f 55 81 82
f 55 82 56
f 56 82 59
f 57 83 58
f 57 66 83
f 58 83 84
f 58 84 81
f 59 82 68
f 59 68 67
f 61 80 85
f 61 85 86
f 61 86 62
f 62 86 87
f 62 87 63
f 63 87 64
f 64 87 65
f 65 88 66
f 65 87 89
f 65 89 90
f 65 90 91
f 65 91 92
f 65 92 93
f 65 93 94
f 65 94 88
f 66 88 95
f 66 95 83
f 68 82 69
f 69 74 70
f 69 82 81
f 69 81 96
f 69 96 97
f 69 97 74
f 70 74 71
f 72 98 99
f 72 99 73
f 72 75 98
f 73 99 76
f 74 97 100
f 74 100 75
f 75 100 101
f 75 101 99
f 75 99 98
f 76 99 77
f 77 99 102
f 77 102 78
f 78 102 79
f 79 103 104
f 79 104 123
f 79 123 122
f 79 122 120
f 79 120 119
f 79 119 106
f 79 106 80
f 79 102 103
f 80 105 85
f 80 106 107
f 80 107 105
f 81 84 96
f 83 95 108
f 83 108 84
f 84 108 109
f 84 109 110
f 84 110 96
f 85 105 111
f 85 111 112
f 85 112 86
f 86 112 91
f 86 91 90
f 86 90 87
f 87 90 89
f 88 113 108
f 88 108 95
f 88 94 114
f 88 114 113
f 91 112 92
f 92 112 93
f 93 112 111
f 93 111 115
f 93 115 94
f 94 115 114
f 96 110 97
f 97 110 116
f 97 116 107
f 97 107 117
f 97 117 118
f 97 118 100
f 99 101 119
f 99 119 120
f 99 120 102
f 100 118 101
f 101 118 121
f 101 121 106
f 101 106 119
f 102 120 122
f 102 122 123
f 102 123 124
f 102 124 103
f 103 124 104
f 104 124 123
f 105 107 111
f 106 121 125
f 106 125 107
f 107 116 126
f 107 126 111
f 107 125 117
f 108 113 109
f 109 113 127
f 109 127 116
f 109 116 110
f 111 126 128
f 111 128 114
f 111 114 115
f 113 114 127
f 114 128 127
f 116 127 126
f 117 125 118
f 118 125 121
f 126 127 128

