# https://github.com/mikedh/trimesh
v 0.28195361 0.23065986 0.05359445
v 0.28609178 0.23275781 0.05422817
v 0.29807801 0.23800421 0.06461120
v 0.29807801 0.23800421 0.06470459
v 0.29682016 0.23781293 0.06489804
v 0.28608933 0.23294909 0.05736343
v 0.28522058 0.23294909 0.05736343
v 0.28199032 0.23195628 0.05559568
v 0.28195361 0.23195021 0.05557900
v 0.28195361 0.23100598 0.05096618
v 0.30319993 0.24274661 0.06442108
v 0.30375055 0.24224869 0.06588865
v 0.30074542 0.24030254 0.06438773
v 0.30247067 0.24101299 0.06588865
v 0.29604196 0.23767024 0.06153599
v 0.28548977 0.23334682 0.05258050
v 0.30123485 0.24000804 0.06588865
v 0.30123730 0.24001108 0.06603541
v 0.29943373 0.23906077 0.06603541
v 0.29909848 0.23902130 0.06603541
v 0.29498479 0.23775828 0.06492473
v 0.28357119 0.23336807 0.05714329
v 0.28195361 0.23412710 0.05663632
v 0.28195361 0.23177412 0.05009564
v 0.28257275 0.23171036 0.05088613
v 0.30608269 0.24478991 0.06603541
v 0.30570828 0.24433753 0.06603541
v 0.28590334 0.25022151 0.03482962
v 0.29345286 0.25490926 0.03955252
v 0.30516011 0.24372424 0.06603541
v 0.30379949 0.24222136 0.06603541
v 0.30260282 0.24106461 0.06603541
v 0.28384038 0.23244813 0.05159322
v 0.29653874 0.23904256 0.06603541
v 0.29503373 0.24018413 0.06603541
v 0.29334029 0.23843837 0.06455784
v 0.28195361 0.23424551 0.05666967
v 0.28195361 0.24709432 0.03395242
v 0.28284438 0.24850914 0.03317861
v 0.30654032 0.24536981 0.06603541
v 0.28335828 0.25015775 0.03243482
v 0.30260037 0.26167674 0.04529603
v 0.30358169 0.26167674 0.04636002
v 0.30367957 0.26150065 0.04660017
v 0.30315833 0.26006457 0.04716385
v 0.30695389 0.25376768 0.05823730
v 0.29435587 0.24167183 0.06603541
v 0.28195361 0.23678369 0.05715997
v 0.29028622 0.25205835 0.06603541
v 0.28962793 0.25408344 0.06603541
v 0.28195361 0.24914065 0.03199122
v 0.30695389 0.24631707 0.06565184
v 0.30694900 0.24592541 0.06603541
v 0.28200990 0.24925602 0.03199122
v 0.28195361 0.24925299 0.03196453
v 0.28335828 0.25052208 0.03243482
v 0.30135722 0.26167674 0.04432210
v 0.30373586 0.26167674 0.04654013
v 0.30507446 0.26167674 0.04817447
v 0.30554676 0.26167674 0.04876149
v 0.30695389 0.26167674 0.05054925
v 0.28195361 0.23808618 0.05734675
v 0.28959612 0.25422917 0.06603541
v 0.28912627 0.25656697 0.06603541
v 0.30695389 0.24642637 0.06603541
v 0.28195361 0.25071639 0.03224137
v 0.28199032 0.25071639 0.03224137
v 0.29682016 0.26167674 0.04215077
v 0.29750782 0.26167674 0.04239092
v 0.29821505 0.26083270 0.04229086
v 0.29914497 0.26167674 0.04300129
v 0.30695389 0.26167674 0.06603541
v 0.28195361 0.23925508 0.05747016
v 0.28910179 0.25673092 0.06603541
v 0.28876163 0.25902622 0.06603541
v 0.28842882 0.26167674 0.06603541
v 0.28195361 0.25195209 0.03352883
v 0.28199032 0.25195209 0.03352215
v 0.29435097 0.26167674 0.04214410
v 0.29435097 0.26120615 0.04167715
v 0.28195361 0.24061526 0.05738677
v 0.29086131 0.26167674 0.04611654
v 0.28302058 0.25545272 0.03957586
v 0.28195361 0.25460868 0.03872868
v 0.28195361 0.25466333 0.04117351
v 0.28195361 0.25463904 0.04138364
v 0.28195361 0.25386787 0.04336152
v 0.28195361 0.25381322 0.04345491
v 0.28195361 0.25289632 0.04495583
v 0.28195361 0.25195816 0.04640338
v 0.28195361 0.25076801 0.04807774
v 0.28195361 0.24997558 0.04907835
v 0.28195361 0.24912851 0.05011565
v 0.28195361 0.24873078 0.05059928
v 0.28195361 0.24759527 0.05196012
v 0.28195361 0.24642941 0.05327759
v 0.28195361 0.24633833 0.05337765
v 0.28195361 0.24524533 0.05455838
v 0.28195361 0.24398230 0.05580247
v 0.28195361 0.24390337 0.05585917
v 0.28195361 0.24235191 0.05694651
v 0.28195361 0.24172648 0.05717665
v 0.28195361 0.25301776 0.03476291
v 0.28199032 0.25302384 0.03475624
v 0.29187688 0.26073555 0.04186060
v 0.29199679 0.26167674 0.04340821
v 0.29165419 0.26167674 0.04374508
v 0.28999256 0.26069001 0.04364502
v 0.28875674 0.25992795 0.04364502
v 0.28195361 0.25376768 0.03623048
v 0.29039879 0.26039247 0.04220080
f 1 2 3
f 1 3 4
f 1 4 5
f 1 5 6
f 1 6 7
f 1 7 8
f 1 8 9
f 1 9 23
f 1 23 37
f 1 37 48
f 1 48 62
f 1 62 73
f 1 73 81
f 1 81 102
f 1 102 101
f 1 101 100
f 1 100 99
f 1 99 98
f 1 98 97
f 1 97 96
f 1 96 95
f 1 95 94
f 1 94 93
f 1 93 92
f 1 92 91
f 1 91 90
f 1 90 89
f 1 89 88
f 1 88 87
f 1 87 86
f 1 86 85
f 1 85 84
f 1 84 110
f 1 110 103
f 1 103 77
f 1 77 66
f 1 66 55
f 1 55 51
f 1 51 38
f 1 38 24
f 1 24 10
f 1 10 2
f 2 11 12
f 2 12 13
f 2 13 14
f 2 14 15
f 2 15 3
f 2 10 16
f 2 16 11
f 3 15 17
f 3 17 4
f 4 17 18
f 4 18 19
f 4 19 5
f 5 19 20
f 5 20 21
f 5 21 6
f 6 21 7
f 7 21 8
f 8 21 9
f 9 21 22
f 9 22 23
f 10 24 25
f 10 25 16
f 11 26 27
f 11 27 12
f 11 16 28
f 11 28 29
f 11 29 26
f 12 27 30
f 12 30 31
f 12 31 32
f 12 32 14
f 12 14 13
f 14 32 17
f 14 17 15
f 16 25 33
f 16 33 28
f 17 32 18
f 18 32 31
f 18 31 30
f 18 30 27
f 18 27 26
f 18 26 40
f 18 40 53
f 18 53 65
f 18 65 72
f 18 72 76
f 18 76 75
f 18 75 74
f 18 74 64
f 18 64 63
f 18 63 50
f 18 50 49
f 18 49 47
f 18 47 35
f 18 35 34
f 18 34 20
f 18 20 19
f 20 34 21
f 21 34 35
f 21 35 36
f 21 36 22
f 22 36 23
f 23 36 37
f 24 38 39
f 24 39 28
f 24 28 25
f 25 28 33
f 26 29 40
f 28 39 41
f 28 41 29
f 29 41 42
f 29 42 43
f 29 43 44
f 29 44 45
f 29 45 46
f 29 46 40
f 35 47 37
f 35 37 36
f 37 47 49
f 37 49 50
f 37 50 48
f 38 51 39
f 39 51 41
f 40 46 52
f 40 52 53
f 41 51 54
f 41 54 55
f 41 55 56
f 41 56 57
f 41 57 42
f 42 57 71
f 42 71 69
f 42 69 68
f 42 68 79
f 42 79 106
f 42 106 107
f 42 107 82
f 42 82 76
f 42 76 72
f 42 72 61
f 42 61 60
f 42 60 59
f 42 59 58
f 42 58 43
f 43 58 44
f 44 58 59
f 44 59 45
f 45 59 60
f 45 60 61
f 45 61 46
f 46 61 72
f 46 72 65
f 46 65 52
f 48 50 63
f 48 63 64
f 48 64 62
f 51 55 54
f 52 65 53
f 55 66 67
f 55 67 56
f 56 67 68
f 56 68 69
f 56 69 70
f 56 70 57
f 57 70 71
f 62 64 74
f 62 74 75
f 62 75 76
f 62 76 73
f 66 77 78
f 66 78 79
f 66 79 80
f 66 80 67
f 67 80 68
f 68 80 79
f 69 71 70
f 73 76 81
f 76 82 83
f 76 83 84
f 76 84 85
f 76 85 86
f 76 86 87
f 76 87 88
f 76 88 89
f 76 89 90
f 76 90 91
f 76 91 92
f 76 92 93
f 76 93 94
f 76 94 95
f 76 95 96
f 76 96 97
f 76 97 98
f 76 98 99
f 76 99 100
f 76 100 101
f 76 101 102
f 76 102 81
f 77 103 104
f 77 104 79
f 77 79 78
f 79 104 103
f 79 103 105
f 79 105 106
f 82 107 108
f 82 108 109
f 82 109 83
f 83 109 84
f 84 109 108
f 84 108 107
f 84 107 110
f 103 110 111
f 103 111 106
f 103 106 105
f 106 111 107
f 107 111 110

