# https://github.com/mikedh/trimesh
v 0.28567583 0.25275808 0.07688325
v 0.28681710 0.25162045 0.07330755
v 0.28605070 0.25180555 0.07595226
v 0.28567583 0.25275808 0.07710159
v 0.28567583 0.25306507 0.07688325
v 0.28814581 0.26781816 0.06603874
v 0.28816663 0.26644127 0.06603874
v 0.28825202 0.26397188 0.06603874
v 0.28799170 0.24999978 0.07182042
v 0.28767305 0.24916462 0.07349705
v 0.28839989 0.26205326 0.06603874
v 0.28843113 0.26166953 0.06603874
v 0.28876227 0.25903312 0.06603874
v 0.28910173 0.25673980 0.06603874
v 0.28912672 0.25657728 0.06603874
v 0.28961197 0.25416658 0.06603874
v 0.28813956 0.24788252 0.07444246
v 0.28743772 0.24907884 0.07557944
v 0.28759808 0.24985081 0.07768037
v 0.28677961 0.25165205 0.07821591
v 0.28761058 0.25218927 0.07995844
v 0.28732735 0.25408984 0.08038892
v 0.28605487 0.25396795 0.07805730
v 0.28567583 0.25306507 0.07710159
v 0.28841655 0.27385844 0.06605522
v 0.28826660 0.27138003 0.06603874
v 0.28815414 0.26883390 0.06603874
v 0.29028674 0.25206287 0.06603874
v 0.29435616 0.24167069 0.06603874
v 0.29503718 0.24018545 0.06603874
v 0.28813956 0.24788252 0.07462166
v 0.28940788 0.24952577 0.07802847
v 0.28940788 0.25060923 0.07926431
v 0.29653874 0.23904331 0.06603874
v 0.28940788 0.25183715 0.08028594
v 0.28927250 0.25405824 0.08155268
v 0.28956823 0.25656373 0.08265051
v 0.28833324 0.25656373 0.08185958
v 0.28743356 0.25656373 0.08062373
v 0.28641516 0.25656373 0.07825092
v 0.28798128 0.26330375 0.07760622
v 0.28854151 0.27423313 0.06603874
v 0.28695872 0.25903312 0.07825092
v 0.29929195 0.23982881 0.06783689
v 0.30510036 0.24280833 0.07222825
v 0.30617083 0.24280833 0.07222825
v 0.29909827 0.23902073 0.06603874
v 0.29434991 0.25761108 0.08459697
v 0.29274005 0.25763365 0.08457225
v 0.29000766 0.25486180 0.08221797
v 0.29232769 0.25903312 0.08487503
v 0.29109063 0.25903312 0.08422415
v 0.28961822 0.25903312 0.08298831
v 0.28838323 0.25903312 0.08161859
v 0.28771055 0.25903312 0.08038275
v 0.28770013 0.26161987 0.07836008
v 0.28797503 0.26086145 0.07989459
v 0.28829368 0.26250470 0.07925401
v 0.28830409 0.26495602 0.07662579
v 0.28927042 0.27626914 0.06603874
v 0.30125378 0.24003648 0.06780599
v 0.30642073 0.24253295 0.07083586
v 0.30695180 0.24280381 0.07083586
v 0.30695180 0.24299793 0.07149704
v 0.30695180 0.24413556 0.07323340
v 0.29943357 0.23906136 0.06603874
v 0.29678448 0.25885706 0.08535907
v 0.29434991 0.25903312 0.08553003
v 0.29775915 0.26220223 0.08708101
v 0.29775915 0.26302837 0.08708101
v 0.29243807 0.26075311 0.08487915
v 0.29007431 0.26091563 0.08267111
v 0.29075741 0.26757890 0.07692445
v 0.29096358 0.27886944 0.06603874
v 0.29005556 0.27586284 0.06787808
v 0.30123711 0.24001391 0.06603874
v 0.30603754 0.24254649 0.06880908
v 0.30695180 0.24392790 0.06800373
v 0.30695180 0.24667266 0.07466285
v 0.29862968 0.26220223 0.08708101
v 0.29862968 0.26302837 0.08708101
v 0.30100386 0.26601240 0.08509748
v 0.29929195 0.26596725 0.08511602
v 0.30052695 0.27264407 0.07951972
v 0.29760712 0.27796204 0.07244452
v 0.29165293 0.26165599 0.08337760
v 0.29175498 0.27960529 0.06603874
v 0.30260123 0.24106576 0.06603874
v 0.30544607 0.24298890 0.06716130
v 0.30622705 0.24464118 0.06634359
v 0.30695180 0.24511970 0.06683380
v 0.30695180 0.25408984 0.07587810
v 0.30123503 0.26397188 0.08545382
v 0.30091431 0.26150250 0.08499449
v 0.29938775 0.26143478 0.08627565
v 0.30295735 0.26742992 0.08188429
v 0.30130792 0.26847275 0.08276792
v 0.30212014 0.26925375 0.08108306
v 0.30052069 0.27512248 0.07704391
v 0.29764253 0.28295498 0.06752381
v 0.29684280 0.28373597 0.06603874
v 0.30379664 0.24222145 0.06603874
v 0.30515867 0.24372926 0.06603874
v 0.30570640 0.24433871 0.06603874
v 0.30608127 0.24479467 0.06603874
v 0.30653736 0.24537251 0.06603874
v 0.30694764 0.24592778 0.06603874
v 0.30695180 0.24643340 0.06603874
v 0.30695180 0.25654568 0.07576275
v 0.30247002 0.26397188 0.08338790
v 0.30306773 0.26578216 0.08210263
v 0.30695180 0.25891123 0.07514071
v 0.30548148 0.26771433 0.07457841
v 0.30328016 0.26838246 0.08023650
v 0.30293028 0.27003474 0.07930756
v 0.30052069 0.27757832 0.07455781
v 0.29929195 0.27970912 0.07173803
v 0.29929195 0.28459371 0.06672670
v 0.29709688 0.28388947 0.06603874
v 0.30695180 0.27175473 0.06603874
v 0.30695180 0.26629681 0.07064637
v 0.30695180 0.26895128 0.06851248
v 0.30079560 0.28318522 0.06781835
v 0.30090598 0.28076549 0.07040950
v 0.30091431 0.27818325 0.07330755
v 0.29995631 0.28492326 0.06603874
v 0.29929195 0.28513996 0.06603874
v 0.30105385 0.28388947 0.06603874
f 1 2 3
f 1 3 4
f 1 4 24
f 1 24 5
f 1 5 6
f 1 6 7
f 1 7 8
f 1 8 2
f 2 9 10
f 2 10 3
f 2 8 11
f 2 11 12
f 2 12 13
f 2 13 14
f 2 14 15
f 2 15 16
f 2 16 9
f 3 10 17
f 3 17 18
f 3 18 4
f 4 18 19
f 4 19 20
f 4 20 21
f 4 21 22
f 4 22 23
f 4 23 24
f 5 24 25
f 5 25 26
f 5 26 27
f 5 27 6
f 6 27 26
f 6 26 42
f 6 42 60
f 6 60 74
f 6 74 87
f 6 87 101
f 6 101 119
f 6 119 127
f 6 127 126
f 6 126 128
f 6 128 120
f 6 120 108
f 6 108 107
f 6 107 106
f 6 106 105
f 6 105 104
f 6 104 103
f 6 103 102
f 6 102 88
f 6 88 76
f 6 76 66
f 6 66 47
f 6 47 34
f 6 34 30
f 6 30 29
f 6 29 28
f 6 28 16
f 6 16 15
f 6 15 14
f 6 14 13
f 6 13 12
f 6 12 11
f 6 11 8
f 6 8 7
f 9 16 28
f 9 28 29
f 9 29 30
f 9 30 10
f 10 30 17
f 17 31 18
f 17 30 31
f 18 31 19
f 19 32 33
f 19 33 21
f 19 21 20
f 19 31 34
f 19 34 32
f 21 33 35
f 21 35 36
f 21 36 37
f 21 37 38
f 21 38 22
f 22 38 39
f 22 39 23
f 23 39 40
f 23 40 24
f 24 40 25
f 25 41 42
f 25 42 26
f 25 40 43
f 25 43 41
f 30 34 31
f 32 34 44
f 32 44 45
f 32 45 33
f 33 45 46
f 33 46 35
f 34 47 44
f 35 46 48
f 35 48 49
f 35 49 36
f 36 49 50
f 36 50 37
f 37 50 49
f 37 49 51
f 37 51 52
f 37 52 38
f 38 52 53
f 38 53 54
f 38 54 39
f 39 54 55
f 39 55 40
f 40 55 43
f 41 56 57
f 41 57 58
f 41 58 59
f 41 59 60
f 41 60 42
f 41 43 56
f 43 55 57
f 43 57 56
f 44 47 61
f 44 61 46
f 44 46 45
f 46 61 62
f 46 62 63
f 46 63 64
f 46 64 65
f 46 65 48
f 47 66 61
f 48 67 68
f 48 68 49
f 48 65 67
f 49 68 51
f 51 68 69
f 51 69 70
f 51 70 71
f 51 71 52
f 52 71 53
f 53 71 72
f 53 72 54
f 54 72 57
f 54 57 55
f 57 72 58
f 58 72 73
f 58 73 74
f 58 74 75
f 58 75 59
f 59 75 60
f 60 75 74
f 61 66 62
f 62 66 63
f 63 66 76
f 63 76 77
f 63 77 78
f 63 78 91
f 63 91 108
f 63 108 120
f 63 120 122
f 63 122 121
f 63 121 112
f 63 112 109
f 63 109 92
f 63 92 79
f 63 79 65
f 63 65 64
f 65 79 80
f 65 80 67
f 67 80 68
f 68 80 69
f 69 80 81
f 69 81 70
f 70 81 82
f 70 82 83
f 70 83 84
f 70 84 85
f 70 85 73
f 70 73 86
f 70 86 71
f 71 86 72
f 72 86 73
f 73 85 87
f 73 87 74
f 76 88 77
f 77 89 78
f 77 88 89
f 78 89 90
f 78 90 91
f 79 92 93
f 79 93 94
f 79 94 95
f 79 95 80
f 80 93 81
f 80 95 93
f 81 93 82
f 82 96 97
f 82 97 84
f 82 84 83
f 82 93 96
f 84 97 98
f 84 98 99
f 84 99 100
f 84 100 85
f 85 100 87
f 87 100 101
f 88 102 89
f 89 102 103
f 89 103 104
f 89 104 90
f 90 104 105
f 90 105 106
f 90 106 91
f 91 106 107
f 91 107 108
f 92 109 110
f 92 110 93
f 93 95 94
f 93 110 111
f 93 111 96
f 96 111 112
f 96 112 113
f 96 113 114
f 96 114 115
f 96 115 98
f 96 98 97
f 98 115 116
f 98 116 99
f 99 116 117
f 99 117 100
f 100 118 119
f 100 119 101
f 100 117 118
f 109 112 111
f 109 111 110
f 112 121 113
f 113 121 122
f 113 122 120
f 113 120 114
f 114 120 115
f 115 120 123
f 115 123 124
f 115 124 125
f 115 125 116
f 116 125 124
f 116 124 123
f 116 123 118
f 116 118 117
f 118 126 127
f 118 127 119
f 118 123 126
f 120 128 123
f 123 128 126

