# https://github.com/mikedh/trimesh
v 0.32153991 0.25656163 0.08343286
v 0.31806100 0.25625992 0.08211633
v 0.31906661 0.25395897 0.08207340
v 0.32153991 0.25438063 0.08261003
v 0.32374429 0.25656163 0.08274240
v 0.32379353 0.25902979 0.08267443
v 0.32153991 0.25902979 0.08318601
v 0.31879958 0.25902979 0.08210918
v 0.30695389 0.25654709 0.07575548
v 0.30695389 0.25408983 0.07587355
v 0.31399502 0.25161803 0.07955840
v 0.31578277 0.25002590 0.07975874
v 0.32096041 0.25229777 0.08027033
v 0.32346969 0.25465325 0.08156182
v 0.32519872 0.25688151 0.08057084
v 0.32530288 0.25902979 0.08103592
v 0.32334280 0.26092363 0.08230594
v 0.32153991 0.26163609 0.08199470
v 0.31990177 0.26062192 0.08214853
v 0.30695389 0.25890984 0.07513657
v 0.30695389 0.24413356 0.07322617
v 0.30715084 0.24667079 0.07476809
v 0.31033621 0.24881544 0.07706844
v 0.31210312 0.24756500 0.07735464
v 0.31086268 0.24522769 0.07483249
v 0.31483019 0.24768496 0.07713641
v 0.31899086 0.25049118 0.07862467
v 0.32168763 0.25273397 0.07824903
v 0.32510971 0.25668158 0.07824903
v 0.32583883 0.25902979 0.07824903
v 0.32547523 0.26079277 0.07998770
v 0.32419880 0.26167244 0.08090355
v 0.32340908 0.26330819 0.08017374
v 0.32153991 0.26428237 0.07976948
v 0.31906661 0.26604171 0.07780899
v 0.31871247 0.26386071 0.07940814
v 0.31709327 0.26150159 0.07999485
v 0.30695389 0.26629616 0.07064320
v 0.30695389 0.24392636 0.06799940
v 0.30730992 0.24303943 0.07099738
v 0.30844999 0.24520588 0.07475736
v 0.31527902 0.24798303 0.07481817
v 0.32331629 0.25474777 0.07741904
v 0.31800798 0.25022946 0.07540489
v 0.32515706 0.25831733 0.07578410
v 0.32611911 0.26150159 0.07577695
v 0.32568543 0.26157066 0.07831342
v 0.32581042 0.26404246 0.07586997
v 0.32552635 0.26584179 0.07510796
v 0.32505669 0.26243216 0.07917919
v 0.32536727 0.26743028 0.07369841
v 0.32326705 0.27555451 0.06752359
v 0.32153991 0.26731396 0.07663198
v 0.31906661 0.26727761 0.07648531
v 0.30695389 0.27298456 0.06495850
v 0.31736220 0.26556916 0.07737253
v 0.30695389 0.26895334 0.06850741
v 0.30695389 0.25378085 0.05823275
v 0.30787806 0.24552577 0.06720161
v 0.30852195 0.24486056 0.06885085
v 0.31007108 0.24528949 0.07062889
v 0.31316554 0.24764134 0.07169857
v 0.32528395 0.26067645 0.07309022
v 0.32549037 0.26229039 0.07162702
v 0.32630091 0.26396976 0.07330488
v 0.32616457 0.26644156 0.07083281
v 0.32520630 0.27388968 0.06627146
v 0.32372914 0.27635784 0.06585647
v 0.32348484 0.27827349 0.06342375
v 0.32192056 0.27742653 0.06575987
v 0.31992640 0.27780094 0.06500859
v 0.30695389 0.27405326 0.06320552
v 0.30695389 0.26386798 0.04841602
v 0.30772466 0.26301012 0.05010819
v 0.32493170 0.26315189 0.06998136
v 0.32544682 0.26480218 0.06922292
v 0.32578202 0.26397703 0.07081492
v 0.32541273 0.27162871 0.06358474
v 0.32573089 0.27138516 0.06588866
v 0.32513623 0.27534368 0.06296582
v 0.32376891 0.27869879 0.06095167
v 0.32178231 0.27990197 0.06101607
v 0.32153991 0.27900413 0.06342375
v 0.31911017 0.27949121 0.06101607
v 0.30695389 0.27512194 0.06107331
v 0.30767732 0.26683414 0.04726047
v 0.31068277 0.26732487 0.04957513
v 0.31004835 0.26567821 0.05027275
v 0.30695389 0.27332626 0.04897053
v 0.30727204 0.27131246 0.04743219
v 0.30759589 0.26891336 0.04688483
v 0.31304623 0.26747390 0.05211876
v 0.32488814 0.26573637 0.06757368
v 0.32532372 0.26997478 0.06451132
v 0.32524986 0.27323538 0.06217519
v 0.32492981 0.27610340 0.06118422
v 0.32325190 0.27824805 0.05771759
v 0.32178231 0.27973840 0.05844741
v 0.32054378 0.28017096 0.05973889
v 0.30695389 0.27583804 0.05835797
v 0.30947453 0.26891336 0.04799029
v 0.31279057 0.27069088 0.04992215
v 0.31177928 0.26891336 0.04980410
v 0.31551006 0.27112344 0.05219031
v 0.32230121 0.27336624 0.05782492
v 0.32065551 0.27219214 0.05686614
v 0.30695389 0.27489657 0.05139967
v 0.30918099 0.27504561 0.05110274
v 0.31165240 0.27562357 0.05153920
v 0.30918099 0.27346802 0.04903850
v 0.30910335 0.27135245 0.04787581
v 0.31230197 0.27283190 0.04963237
v 0.32296973 0.27235934 0.05947058
v 0.32481050 0.26832449 0.06523040
v 0.32471202 0.27097077 0.06286208
v 0.32291102 0.27567083 0.05709152
v 0.32396776 0.27632877 0.05847960
v 0.32137136 0.27832802 0.05608266
v 0.32099829 0.27601616 0.05524552
v 0.31906661 0.27882238 0.05600753
v 0.31659899 0.27846615 0.05600753
v 0.30695389 0.27564902 0.05353903
v 0.30695389 0.27592528 0.05588589
v 0.31729970 0.27385696 0.05272336
v 0.31578655 0.27774278 0.05449066
v 0.31975027 0.27776459 0.05460156
v 0.31412570 0.27569628 0.05173596
v 0.31592291 0.27548544 0.05202932
f 1 2 3
f 1 3 4
f 1 4 5
f 1 5 6
f 1 6 7
f 1 7 2
f 2 7 8
f 2 8 9
f 2 9 10
f 2 10 11
f 2 11 3
f 3 11 12
f 3 12 4
f 4 13 14
f 4 14 5
f 4 12 13
f 5 15 16
f 5 16 6
f 5 14 15
f 6 16 17
f 6 17 7
f 7 17 18
f 7 18 19
f 7 19 8
f 8 19 20
f 8 20 9
f 9 20 38
f 9 38 57
f 9 57 55
f 9 55 72
f 9 72 85
f 9 85 100
f 9 100 123
f 9 123 122
f 9 122 107
f 9 107 89
f 9 89 73
f 9 73 58
f 9 58 39
f 9 39 21
f 9 21 10
f 10 21 22
f 10 22 23
f 10 23 11
f 11 23 12
f 12 23 24
f 12 24 25
f 12 25 26
f 12 26 13
f 13 27 28
f 13 28 14
f 13 26 27
f 14 29 15
f 14 28 29
f 15 29 30
f 15 30 16
f 16 30 31
f 16 31 17
f 17 31 32
f 17 32 33
f 17 33 34
f 17 34 18
f 18 34 35
f 18 35 36
f 18 36 19
f 19 36 37
f 19 37 20
f 20 37 38
f 21 39 40
f 21 40 25
f 21 25 41
f 21 41 22
f 22 41 23
f 23 41 24
f 24 41 25
f 25 40 26
f 26 40 42
f 26 42 27
f 27 42 28
f 28 43 29
f 28 42 44
f 28 44 43
f 29 43 45
f 29 45 30
f 30 45 46
f 30 46 31
f 31 46 47
f 31 47 48
f 31 48 49
f 31 49 50
f 31 50 32
f 32 50 33
f 33 50 51
f 33 51 52
f 33 52 53
f 33 53 34
f 34 53 35
f 35 53 54
f 35 54 55
f 35 55 56
f 35 56 36
f 36 56 38
f 36 38 37
f 38 56 57
f 39 58 59
f 39 59 60
f 39 60 61
f 39 61 40
f 40 61 42
f 42 61 44
f 43 44 62
f 43 62 63
f 43 63 45
f 44 61 62
f 45 63 64
f 45 64 46
f 46 64 65
f 46 65 47
f 47 65 48
f 48 65 49
f 49 65 66
f 49 66 67
f 49 67 51
f 49 51 50
f 51 67 68
f 51 68 52
f 52 68 69
f 52 69 70
f 52 70 53
f 53 70 54
f 54 70 71
f 54 71 55
f 55 57 56
f 55 71 72
f 58 73 59
f 59 62 60
f 59 73 74
f 59 74 75
f 59 75 63
f 59 63 62
f 60 62 61
f 63 75 64
f 64 75 76
f 64 76 77
f 64 77 65
f 65 77 66
f 66 78 79
f 66 79 67
f 66 77 78
f 67 79 80
f 67 80 69
f 67 69 68
f 69 80 81
f 69 81 82
f 69 82 83
f 69 83 70
f 70 83 71
f 71 83 84
f 71 84 85
f 71 85 72
f 73 86 87
f 73 87 88
f 73 88 74
f 73 89 90
f 73 90 91
f 73 91 86
f 74 88 75
f 75 88 92
f 75 92 93
f 75 93 76
f 76 93 94
f 76 94 77
f 77 94 78
f 78 95 79
f 78 94 95
f 79 95 96
f 79 96 80
f 80 96 81
f 81 97 98
f 81 98 82
f 81 96 97
f 82 98 99
f 82 99 83
f 83 99 84
f 84 99 100
f 84 100 85
f 86 91 101
f 86 101 102
f 86 102 103
f 86 103 87
f 87 103 104
f 87 104 105
f 87 105 106
f 87 106 92
f 87 92 88
f 89 107 108
f 89 108 109
f 89 109 110
f 89 110 90
f 90 110 111
f 90 111 91
f 91 111 112
f 91 112 102
f 91 102 101
f 92 106 93
f 93 106 113
f 93 113 114
f 93 114 94
f 94 114 115
f 94 115 95
f 95 115 116
f 95 116 117
f 95 117 96
f 96 117 97
f 97 118 98
f 97 117 116
f 97 116 119
f 97 119 118
f 98 118 120
f 98 120 99
f 99 120 121
f 99 121 122
f 99 122 123
f 99 123 100
f 102 112 124
f 102 124 104
f 102 104 103
f 104 124 116
f 104 116 105
f 105 115 113
f 105 113 106
f 105 116 115
f 107 122 121
f 107 121 125
f 107 125 109
f 107 109 108
f 109 125 120
f 109 120 126
f 109 126 127
f 109 127 110
f 110 127 128
f 110 128 111
f 111 128 112
f 112 128 124
f 113 115 114
f 116 124 119
f 118 119 126
f 118 126 120
f 119 124 126
f 120 125 121
f 124 128 126
f 126 128 127

