# https://github.com/mikedh/trimesh
v 0.29929116 0.28513927 0.06603874
v 0.29995740 0.28492684 0.06603874
v 0.29929116 0.28557676 0.06548671
v 0.29758791 0.28546549 0.06513819
v 0.29709546 0.28389002 0.06603874
v 0.30069316 0.28529353 0.06527853
v 0.30105429 0.28389002 0.06603874
v 0.29815566 0.28751131 0.06236403
v 0.29780033 0.28751131 0.06236403
v 0.29687146 0.28635816 0.06335814
v 0.29434940 0.28547055 0.06259560
v 0.29308065 0.28501536 0.06220965
v 0.29049294 0.28019286 0.06478265
v 0.29684442 0.28374082 0.06603874
v 0.30067578 0.28525053 0.06341896
v 0.29815566 0.28751131 0.06204124
v 0.30695389 0.27291994 0.06503527
v 0.30695389 0.27305903 0.06487855
v 0.30695389 0.27405791 0.06319908
v 0.30695389 0.27484438 0.06167634
v 0.30695389 0.27540326 0.06045767
v 0.30695389 0.27583063 0.05847412
v 0.30695389 0.27584833 0.05822852
v 0.30695389 0.27593431 0.05600170
v 0.30695389 0.27176173 0.06603874
v 0.29780033 0.28751131 0.06204124
v 0.29413118 0.28573101 0.06094654
v 0.29308065 0.28501536 0.06176756
v 0.28864484 0.27947721 0.05847412
v 0.28995415 0.28092876 0.06094654
v 0.29021678 0.28066829 0.06341896
v 0.28892292 0.27859970 0.06326224
v 0.29004105 0.27880453 0.06533467
v 0.29096413 0.27887787 0.06603874
v 0.29175396 0.27960618 0.06603874
v 0.30055798 0.28503053 0.06212778
v 0.30695389 0.27591913 0.05575844
v 0.30695389 0.27564855 0.05353397
v 0.29835650 0.28533905 0.05947525
v 0.29682124 0.28569814 0.05925772
v 0.29691587 0.28691451 0.06110794
v 0.30695389 0.27523382 0.05201356
v 0.30695389 0.27456874 0.05077852
v 0.30695389 0.27333214 0.04896806
v 0.30695389 0.26167927 0.06603874
v 0.29481094 0.28557928 0.05934193
v 0.29316176 0.28494202 0.06012084
v 0.28777004 0.27824061 0.05847412
v 0.28781060 0.27813440 0.05600170
v 0.28871823 0.27916110 0.06094654
v 0.28796702 0.27792450 0.06094654
v 0.28813310 0.27764127 0.06233596
v 0.28834166 0.27674859 0.06398268
v 0.28926860 0.27627064 0.06603874
v 0.29057404 0.28007907 0.05471754
v 0.30670670 0.27206266 0.04772366
v 0.29187756 0.27753001 0.05232699
v 0.30695389 0.27198932 0.04774004
v 0.28842856 0.26167927 0.06603874
v 0.30695389 0.26167927 0.05055396
v 0.28798826 0.27782841 0.05450703
v 0.28896928 0.27936847 0.05600170
v 0.28730078 0.27633134 0.05600170
v 0.28723705 0.27633134 0.05847412
v 0.28759045 0.27633134 0.06094654
v 0.28803847 0.27608857 0.06326224
v 0.28816979 0.27510232 0.06465868
v 0.28841311 0.27386320 0.06603874
v 0.28854056 0.27424252 0.06603874
v 0.28961234 0.27871350 0.05409301
v 0.28998312 0.27590397 0.05183578
v 0.30670670 0.27082606 0.04697048
v 0.30316887 0.26778641 0.04482553
v 0.30423486 0.27080836 0.04682078
v 0.29187756 0.27629341 0.05152235
v 0.30176301 0.26779652 0.04481384
v 0.30041122 0.26773077 0.04484659
v 0.30695389 0.27077549 0.04701258
v 0.29086178 0.26167927 0.04611671
v 0.28842663 0.26169950 0.06603874
v 0.28723512 0.27386320 0.05847412
v 0.28722739 0.27386320 0.05600170
v 0.28755375 0.27138999 0.05600170
v 0.28816786 0.26767766 0.05722973
v 0.30554609 0.26167927 0.04875988
v 0.30607329 0.26201560 0.04909437
v 0.30695389 0.26367452 0.04858211
v 0.28925702 0.27656905 0.05276674
v 0.28833587 0.27433355 0.05250711
v 0.28781639 0.27633134 0.05410938
v 0.28782797 0.27365077 0.05341233
v 0.28751900 0.27386320 0.06094654
v 0.28815241 0.26883840 0.06603874
v 0.28790329 0.27386320 0.06341896
v 0.28814082 0.27386320 0.06483177
v 0.28826634 0.27138999 0.06603874
v 0.29434940 0.26167927 0.04214494
v 0.29199728 0.26167927 0.04340571
v 0.30670670 0.26891932 0.04644886
v 0.30337936 0.26644612 0.04468285
v 0.29682124 0.26167927 0.04214962
v 0.29682124 0.26249861 0.04248644
v 0.30695389 0.26891932 0.04656815
v 0.29165547 0.26167927 0.04374487
v 0.28806358 0.26981200 0.05440177
v 0.28793805 0.27161000 0.05356203
v 0.28816207 0.27258107 0.05228489
v 0.28839959 0.26204595 0.06603874
v 0.28825090 0.26397545 0.06603874
v 0.28816400 0.26644612 0.06603874
v 0.28814468 0.26782434 0.06603874
v 0.30507490 0.26167927 0.04817277
v 0.30695389 0.26381360 0.04844879
v 0.28816207 0.27268728 0.05228489
v 0.30461529 0.26644612 0.04531440
v 0.30333688 0.26441041 0.04467349
v 0.29914440 0.26167927 0.04299870
v 0.29750873 0.26167927 0.04239054
v 0.30695389 0.26670153 0.04674826
v 0.30373662 0.26167927 0.04654009
v 0.30539353 0.26285012 0.04744765
v 0.30695389 0.26401338 0.04830142
v 0.30298928 0.26276161 0.04489103
v 0.30135747 0.26167927 0.04432263
v 0.30695389 0.26641830 0.04687691
v 0.30358213 0.26167927 0.04635997
v 0.30599025 0.26449639 0.04689797
v 0.30260112 0.26167927 0.04529569
f 1 2 3
f 1 3 4
f 1 4 5
f 1 5 14
f 1 14 35
f 1 35 34
f 1 34 54
f 1 54 69
f 1 69 68
f 1 68 96
f 1 96 93
f 1 93 111
f 1 111 110
f 1 110 109
f 1 109 108
f 1 108 80
f 1 80 59
f 1 59 45
f 1 45 25
f 1 25 7
f 1 7 2
f 2 6 3
f 2 7 6
f 3 8 9
f 3 9 4
f 3 6 8
f 4 9 10
f 4 10 11
f 4 11 12
f 4 12 13
f 4 13 14
f 4 14 5
f 6 15 16
f 6 16 8
f 6 7 17
f 6 17 18
f 6 18 19
f 6 19 20
f 6 20 21
f 6 21 22
f 6 22 23
f 6 23 24
f 6 24 15
f 7 25 17
f 8 16 26
f 8 26 9
f 9 26 27
f 9 27 12
f 9 12 11
f 9 11 10
f 12 27 28
f 12 28 29
f 12 29 30
f 12 30 31
f 12 31 13
f 13 31 32
f 13 32 33
f 13 33 34
f 13 34 35
f 13 35 14
f 15 36 16
f 15 24 37
f 15 37 38
f 15 38 36
f 16 39 40
f 16 40 41
f 16 41 26
f 16 36 42
f 16 42 43
f 16 43 44
f 16 44 39
f 17 25 45
f 17 45 60
f 17 60 87
f 17 87 113
f 17 113 122
f 17 122 125
f 17 125 119
f 17 119 103
f 17 103 78
f 17 78 58
f 17 58 44
f 17 44 43
f 17 43 42
f 17 42 38
f 17 38 37
f 17 37 24
f 17 24 23
f 17 23 22
f 17 22 21
f 17 21 20
f 17 20 19
f 17 19 18
f 26 41 27
f 27 41 46
f 27 46 47
f 27 47 28
f 28 47 29
f 29 48 30
f 29 47 49
f 29 49 48
f 30 48 50
f 30 50 31
f 31 50 32
f 32 50 51
f 32 51 52
f 32 52 53
f 32 53 33
f 33 53 54
f 33 54 34
f 36 38 42
f 39 44 40
f 40 55 46
f 40 46 41
f 40 44 56
f 40 56 57
f 40 57 55
f 44 58 56
f 45 59 79
f 45 79 104
f 45 104 98
f 45 98 97
f 45 97 101
f 45 101 118
f 45 118 117
f 45 117 124
f 45 124 128
f 45 128 126
f 45 126 120
f 45 120 112
f 45 112 85
f 45 85 60
f 46 55 47
f 47 55 61
f 47 61 62
f 47 62 49
f 48 49 63
f 48 63 64
f 48 64 51
f 48 51 50
f 49 61 63
f 49 62 61
f 51 64 65
f 51 65 52
f 52 65 66
f 52 66 53
f 53 66 67
f 53 67 68
f 53 68 69
f 53 69 54
f 55 70 61
f 55 57 71
f 55 71 70
f 56 58 72
f 56 72 73
f 56 73 74
f 56 74 57
f 57 75 71
f 57 74 76
f 57 76 77
f 57 77 75
f 58 78 72
f 59 80 81
f 59 81 82
f 59 82 83
f 59 83 84
f 59 84 79
f 60 85 86
f 60 86 87
f 61 88 89
f 61 89 90
f 61 90 63
f 61 70 88
f 63 90 91
f 63 91 82
f 63 82 64
f 64 82 81
f 64 81 92
f 64 92 65
f 65 92 93
f 65 93 94
f 65 94 95
f 65 95 67
f 65 67 66
f 67 95 96
f 67 96 68
f 70 71 88
f 71 75 97
f 71 97 98
f 71 98 88
f 72 78 73
f 73 76 74
f 73 78 99
f 73 99 100
f 73 100 101
f 73 101 102
f 73 102 76
f 75 77 97
f 76 102 97
f 76 97 77
f 78 103 99
f 79 84 105
f 79 105 106
f 79 106 107
f 79 107 104
f 80 108 81
f 81 108 109
f 81 109 110
f 81 110 111
f 81 111 92
f 82 91 106
f 82 106 83
f 83 106 105
f 83 105 84
f 85 112 87
f 85 87 86
f 87 112 113
f 88 98 89
f 89 114 90
f 89 98 104
f 89 104 114
f 90 114 91
f 91 114 107
f 91 107 106
f 92 111 93
f 93 96 95
f 93 95 94
f 97 102 101
f 99 103 100
f 100 103 115
f 100 115 116
f 100 116 117
f 100 117 118
f 100 118 101
f 103 119 116
f 103 116 115
f 104 107 114
f 112 120 121
f 112 121 113
f 113 121 122
f 116 119 123
f 116 123 117
f 117 123 124
f 119 125 123
f 120 126 121
f 121 123 127
f 121 127 122
f 121 126 123
f 122 127 125
f 123 126 128
f 123 128 124
f 123 125 127

