# https://github.com/mikedh/trimesh
v 0.21827383 0.45403392 0.22712825
v 0.21201845 0.45403392 0.22785988
v 0.21409132 0.45410237 0.22663130
v 0.21677220 0.45423927 0.22634831
v 0.21636781 0.45675819 0.22901945
v 0.20182093 0.49043502 0.26040366
v 0.20250246 0.49110581 0.26199806
v 0.21905434 0.45425752 0.22861222
v 0.21962275 0.45403392 0.23022043
v 0.21109937 0.45403392 0.22877097
v 0.21135388 0.45475948 0.22873646
v 0.19081179 0.49421795 0.26409632
v 0.19081179 0.49571470 0.26495910
v 0.21576828 0.45423927 0.22634831
v 0.19835389 0.49085940 0.25999643
v 0.19835389 0.49206410 0.26117671
v 0.20021466 0.49071337 0.26012757
v 0.19998843 0.49310452 0.26251573
v 0.19960100 0.49534052 0.26511095
v 0.20159470 0.49271208 0.26330258
v 0.19980461 0.49800546 0.26950763
v 0.20264103 0.49182225 0.26404111
v 0.21915049 0.45481424 0.23022043
v 0.20447636 0.48832223 0.26214301
v 0.21929754 0.45523406 0.23262929
v 0.21970194 0.45403392 0.23262929
v 0.20978721 0.45403392 0.23075190
v 0.19081179 0.49188157 0.26341301
v 0.19835389 0.49324598 0.26237078
v 0.19081179 0.49897743 0.26881051
v 0.19215506 0.50015019 0.26994938
v 0.19353509 0.50020494 0.26988725
v 0.19546940 0.50020951 0.26988035
v 0.19707566 0.50012281 0.26997698
v 0.19759317 0.50052894 0.27159209
v 0.19987531 0.49813323 0.27117796
v 0.20447636 0.48832223 0.26306100
v 0.21644416 0.46162718 0.23868250
v 0.21913069 0.45503784 0.23438244
v 0.20933191 0.45705480 0.27274476
v 0.20984094 0.45555806 0.27117796
v 0.21056489 0.45403392 0.26873459
v 0.20909154 0.45403392 0.23220136
v 0.19081179 0.48927595 0.26352344
v 0.19081179 0.50004980 0.27131600
v 0.19178743 0.50035554 0.27117796
v 0.19353509 0.50063846 0.27117796
v 0.19614244 0.50059282 0.27094329
v 0.19594449 0.50065215 0.27298633
v 0.19759317 0.50052894 0.27289660
v 0.19973674 0.49798721 0.27279307
v 0.20049746 0.49651327 0.27117796
v 0.19962080 0.47855230 0.29423124
v 0.20439435 0.46635472 0.28446466
v 0.20939978 0.45555806 0.27279307
v 0.20986639 0.45403392 0.27124698
v 0.20851747 0.45403392 0.23377505
v 0.19081179 0.48549758 0.26482106
v 0.19081179 0.48694413 0.26408252
v 0.19081179 0.49884053 0.27357992
v 0.19178177 0.50041030 0.27262051
v 0.19353509 0.50056088 0.27277927
v 0.19594449 0.49482487 0.27910857
v 0.19756489 0.49573296 0.27789378
v 0.19844721 0.49889073 0.27364894
v 0.19835389 0.47884435 0.29460396
v 0.19749419 0.47654446 0.29675053
v 0.19968867 0.47724720 0.29432097
v 0.19750551 0.48866447 0.28514797
v 0.20425578 0.46465262 0.28427830
v 0.20933191 0.45403392 0.27257220
v 0.19966888 0.47566376 0.29423814
v 0.20194819 0.46903335 0.28922716
v 0.20813004 0.45403392 0.23503815
v 0.19081179 0.48264554 0.26694003
v 0.19081179 0.48414229 0.26576665
v 0.19081179 0.47852948 0.29415532
v 0.19081179 0.47744799 0.29523896
v 0.19594449 0.48759667 0.28638346
v 0.19594449 0.47782674 0.29590156
v 0.19594449 0.47663116 0.29685407
v 0.19749419 0.47563638 0.29675053
v 0.20230733 0.46596227 0.28719792
v 0.20264951 0.46344792 0.28496851
v 0.20792926 0.45403392 0.27342807
v 0.20786704 0.45403392 0.23594924
v 0.19081179 0.48150929 0.26816861
v 0.19976220 0.45403392 0.26482106
v 0.19081179 0.47450013 0.29602581
v 0.19089098 0.47596037 0.29655037
v 0.19353509 0.47636194 0.29672983
v 0.19594449 0.47540365 0.29685407
v 0.19594449 0.47419896 0.29604651
v 0.19835389 0.46922044 0.29137374
v 0.20076328 0.46549226 0.28764656
v 0.20076328 0.46428756 0.28661814
v 0.20626361 0.45422559 0.27458074
v 0.20501932 0.45403392 0.27458074
v 0.19081179 0.46996425 0.28074438
v 0.19960383 0.45403392 0.26544225
v 0.19081179 0.46876868 0.28207650
v 0.19081179 0.47262007 0.29483173
v 0.19353509 0.47428565 0.29612244
v 0.19353509 0.47549035 0.29672983
v 0.19353509 0.47273415 0.29492146
v 0.19594449 0.46897859 0.29151178
v 0.19835389 0.46650987 0.28916504
v 0.19835389 0.46771457 0.29015896
v 0.19835389 0.46401833 0.28681139
v 0.20076328 0.46312850 0.28541026
v 0.19835389 0.46522303 0.28795716
v 0.20327166 0.45403392 0.27455313
v 0.19917681 0.45403392 0.26718850
v 0.19081179 0.46787428 0.28335341
v 0.19081179 0.47006464 0.29263683
v 0.19097016 0.46885538 0.29160151
v 0.19353509 0.46891014 0.29156010
v 0.20231582 0.45403392 0.27447030
v 0.19892513 0.45403392 0.26876220
v 0.19081179 0.46717154 0.28563112
v 0.19081179 0.46814351 0.29039363
v 0.20076328 0.45403392 0.27378008
v 0.20147875 0.45403392 0.27411829
v 0.19884029 0.45403392 0.26954214
v 0.19081179 0.46713047 0.28788124
v 0.19934366 0.45404761 0.27268264
v 0.19897320 0.45403392 0.27144025
f 1 2 3
f 1 3 4
f 1 4 5
f 1 5 6
f 1 6 7
f 1 7 8
f 1 8 9
f 1 9 26
f 1 26 42
f 1 42 56
f 1 56 71
f 1 71 85
f 1 85 98
f 1 98 112
f 1 112 118
f 1 118 123
f 1 123 122
f 1 122 127
f 1 127 124
f 1 124 119
f 1 119 113
f 1 113 100
f 1 100 88
f 1 88 86
f 1 86 74
f 1 74 57
f 1 57 43
f 1 43 27
f 1 27 10
f 1 10 2
f 2 10 11
f 2 11 12
f 2 12 13
f 2 13 3
f 3 14 4
f 3 13 14
f 4 14 15
f 4 15 16
f 4 16 17
f 4 17 18
f 4 18 5
f 5 18 6
f 6 18 19
f 6 19 20
f 6 20 7
f 7 20 21
f 7 21 22
f 7 22 8
f 8 23 9
f 8 22 23
f 9 23 24
f 9 24 25
f 9 25 26
f 10 27 28
f 10 28 12
f 10 12 11
f 12 28 44
f 12 44 59
f 12 59 58
f 12 58 76
f 12 76 75
f 12 75 87
f 12 87 99
f 12 99 101
f 12 101 114
f 12 114 120
f 12 120 125
f 12 125 121
f 12 121 115
f 12 115 102
f 12 102 89
f 12 89 78
f 12 78 77
f 12 77 60
f 12 60 45
f 12 45 30
f 12 30 13
f 13 29 16
f 13 16 15
f 13 15 14
f 13 30 31
f 13 31 32
f 13 32 33
f 13 33 29
f 16 29 17
f 17 29 18
f 18 29 34
f 18 34 19
f 19 34 21
f 19 21 20
f 21 34 35
f 21 35 36
f 21 36 24
f 21 24 22
f 22 24 23
f 24 37 38
f 24 38 25
f 24 36 37
f 25 38 26
f 26 38 39
f 26 39 40
f 26 40 41
f 26 41 42
f 27 43 44
f 27 44 28
f 29 33 34
f 30 45 31
f 31 45 46
f 31 46 47
f 31 47 32
f 32 47 48
f 32 48 33
f 33 48 34
f 34 48 35
f 35 48 49
f 35 49 50
f 35 50 36
f 36 50 51
f 36 51 52
f 36 52 37
f 37 39 38
f 37 52 53
f 37 53 39
f 39 53 40
f 40 53 54
f 40 54 55
f 40 55 41
f 41 55 42
f 42 55 56
f 43 57 58
f 43 58 59
f 43 59 44
f 45 60 61
f 45 61 46
f 46 61 47
f 47 61 62
f 47 62 49
f 47 49 48
f 49 62 63
f 49 63 50
f 50 63 64
f 50 64 53
f 50 53 65
f 50 65 51
f 51 65 53
f 51 53 52
f 53 66 67
f 53 67 68
f 53 68 54
f 53 64 69
f 53 69 66
f 54 70 71
f 54 71 55
f 54 68 72
f 54 72 73
f 54 73 70
f 55 71 56
f 57 74 75
f 57 75 76
f 57 76 58
f 60 77 61
f 61 77 78
f 61 78 79
f 61 79 63
f 61 63 62
f 63 79 69
f 63 69 64
f 66 80 67
f 66 69 80
f 67 81 92
f 67 92 82
f 67 82 68
f 67 80 81
f 68 82 72
f 69 79 80
f 70 73 83
f 70 83 71
f 71 83 84
f 71 84 85
f 72 82 73
f 73 82 83
f 74 86 75
f 75 86 88
f 75 88 87
f 78 89 90
f 78 90 91
f 78 91 80
f 78 80 79
f 80 91 81
f 81 91 104
f 81 104 92
f 82 92 93
f 82 93 94
f 82 94 95
f 82 95 83
f 83 95 84
f 84 96 97
f 84 97 85
f 84 95 96
f 85 97 98
f 87 88 99
f 88 100 101
f 88 101 99
f 89 102 103
f 89 103 104
f 89 104 90
f 90 104 91
f 92 104 103
f 92 103 93
f 93 103 105
f 93 105 106
f 93 106 107
f 93 107 108
f 93 108 94
f 94 108 95
f 95 108 107
f 95 107 96
f 96 109 110
f 96 110 97
f 96 107 111
f 96 111 109
f 97 110 109
f 97 109 98
f 98 109 112
f 100 113 101
f 101 113 114
f 102 105 103
f 102 115 116
f 102 116 105
f 105 116 117
f 105 117 106
f 106 117 107
f 107 117 116
f 107 116 111
f 109 118 112
f 109 111 116
f 109 116 118
f 113 119 114
f 114 119 120
f 115 121 116
f 116 121 122
f 116 122 123
f 116 123 118
f 119 124 120
f 120 124 125
f 121 125 126
f 121 126 122
f 122 126 127
f 124 127 125
f 125 127 126

