# https://github.com/mikedh/trimesh
v 0.29411054 0.25886320 0.08451708
v 0.29159396 0.25901603 0.08527359
v 0.29148323 0.25888230 0.08289899
v 0.29135237 0.26140409 0.07945267
v 0.29831826 0.26161424 0.08453809
v 0.29787534 0.26123215 0.08699675
v 0.29486552 0.26132767 0.08857281
v 0.28991288 0.26149961 0.08815253
v 0.28854387 0.26136588 0.08634531
v 0.28935924 0.25979932 0.08323522
v 0.29276165 0.26138498 0.08901411
v 0.28879552 0.26090737 0.07997803
v 0.28917804 0.26348647 0.07663678
v 0.29139263 0.26379214 0.07701503
v 0.30095564 0.26367752 0.08470621
v 0.29448299 0.28117716 0.06175877
v 0.29921417 0.28115806 0.06541523
v 0.30118717 0.26814795 0.08018817
v 0.29881151 0.26335274 0.08869890
v 0.29715057 0.26511035 0.09172493
v 0.29480512 0.26396408 0.09168290
v 0.29232880 0.26652407 0.09517125
v 0.28850360 0.26629482 0.09424663
v 0.28640980 0.26851093 0.09599080
v 0.28385296 0.27116645 0.09655818
v 0.28991288 0.26698258 0.09567559
v 0.28819154 0.26274140 0.07838096
v 0.19929586 0.45296408 0.26895815
v 0.28838280 0.27693598 0.06566740
v 0.29075845 0.27898015 0.06236818
v 0.30190187 0.26759392 0.08323522
v 0.30169048 0.26759392 0.08565185
v 0.30097577 0.26503393 0.08684965
v 0.29356696 0.28268641 0.06011967
v 0.29828806 0.28459685 0.06163269
v 0.30086504 0.28308760 0.06497393
v 0.30090530 0.28060403 0.06734854
v 0.30131803 0.27015391 0.07852805
v 0.30203274 0.27002018 0.08081860
v 0.29861019 0.26688705 0.09199812
v 0.29499638 0.26629482 0.09418359
v 0.29312404 0.26841541 0.09687340
v 0.28991288 0.26879750 0.09773497
v 0.20249695 0.45200885 0.27223636
v 0.20133932 0.45391930 0.27387546
v 0.19921533 0.45397661 0.27204723
v 0.19947705 0.45397661 0.26603718
v 0.28888612 0.27964881 0.06402830
v 0.20827502 0.45403392 0.23460004
v 0.20951317 0.45380467 0.23134285
v 0.29042627 0.28205597 0.06192688
v 0.30199247 0.27002018 0.08323522
v 0.30157975 0.27002018 0.08565185
v 0.30080464 0.27002018 0.08813152
v 0.30085497 0.26759392 0.08829963
v 0.29977788 0.26759392 0.09046408
v 0.29477492 0.28436760 0.05986750
v 0.29684858 0.28589595 0.06016170
v 0.29241940 0.28446312 0.06043488
v 0.29886184 0.28761535 0.06215804
v 0.30054292 0.28593416 0.06436452
v 0.30158982 0.27483449 0.07842298
v 0.30182134 0.27242734 0.08081860
v 0.28157797 0.30553529 0.12797432
v 0.29609360 0.27091809 0.09668427
v 0.29265092 0.27034496 0.09861757
v 0.20909039 0.44952528 0.26992480
v 0.20557724 0.45403392 0.27448487
v 0.20328212 0.45403392 0.27454791
v 0.28874519 0.28902908 0.06520509
v 0.28922837 0.28205597 0.06367106
v 0.21141571 0.45070975 0.22730813
v 0.28632927 0.29411085 0.07001733
v 0.21629787 0.45403392 0.22615236
v 0.21157677 0.45380467 0.22816971
v 0.29046653 0.28446312 0.06203196
v 0.30098584 0.27179689 0.08638734
v 0.26966951 0.33700027 0.15148913
v 0.26968964 0.33507072 0.15241375
v 0.28168870 0.30857289 0.12822648
v 0.29377835 0.28679386 0.06039285
v 0.29597281 0.28956400 0.06213703
v 0.29073832 0.28772998 0.06236818
v 0.29594261 0.29304100 0.06619275
v 0.29895244 0.28883803 0.06396525
v 0.29854979 0.29027086 0.06594059
v 0.29886184 0.29006071 0.06877750
v 0.29992887 0.28687028 0.06877750
v 0.30102611 0.27565598 0.08050338
v 0.21917684 0.43724114 0.25376493
v 0.21425441 0.44419515 0.26301115
v 0.21141571 0.44820707 0.26759223
v 0.20850654 0.45361363 0.27271968
v 0.21058020 0.45403392 0.26870598
v 0.28816134 0.29170369 0.06680216
v 0.28925857 0.28446312 0.06386019
v 0.21657973 0.45198975 0.22411399
v 0.21376116 0.45334616 0.22627844
v 0.21872386 0.45403392 0.22777044
v 0.21850240 0.45185602 0.22424007
v 0.29164429 0.29796995 0.06970212
v 0.29032560 0.29796995 0.06970212
v 0.21377123 0.44990737 0.22390384
v 0.23587687 0.42096418 0.20080931
v 0.23092424 0.41523285 0.22970375
v 0.29254019 0.29019444 0.06255731
v 0.29394948 0.29307921 0.06501596
v 0.28870492 0.29426369 0.06747462
v 0.29100005 0.29300279 0.06510002
v 0.21932784 0.45244826 0.22585816
v 0.22385768 0.44495932 0.21986913
v 0.23352135 0.42570207 0.20181799
v 0.23376294 0.42545371 0.20459185
v 0.25511361 0.38002341 0.16224837
v 0.21675086 0.44197903 0.25847209
v 0.22368655 0.43028713 0.24355206
v 0.21426448 0.44669782 0.26324230
v 0.21178816 0.45141662 0.26784440
v 0.21986135 0.45357542 0.23260370
v 0.21466713 0.45151214 0.22440818
v 0.29062759 0.29556279 0.06732752
v 0.21991169 0.45357542 0.23018707
v 0.22146190 0.44977363 0.22468137
v 0.29268112 0.29491324 0.06671811
v 0.22241820 0.44830259 0.22777044
v 0.22151223 0.45009841 0.22961969
v 0.22337450 0.44665961 0.22295821
v 0.22131090 0.45090080 0.22777044
f 1 2 3
f 1 3 4
f 1 4 5
f 1 5 6
f 1 6 7
f 1 7 2
f 2 8 9
f 2 9 10
f 2 10 3
f 2 7 11
f 2 11 8
f 3 10 12
f 3 12 4
f 4 12 13
f 4 13 14
f 4 14 5
f 5 15 6
f 5 14 16
f 5 16 17
f 5 17 18
f 5 18 15
f 6 15 19
f 6 19 20
f 6 20 21
f 6 21 7
f 7 21 22
f 7 22 11
f 8 11 23
f 8 23 24
f 8 24 9
f 9 12 10
f 9 24 25
f 9 25 12
f 11 22 26
f 11 26 23
f 12 27 13
f 12 25 28
f 12 28 27
f 13 27 29
f 13 29 30
f 13 30 14
f 14 30 16
f 15 18 31
f 15 31 32
f 15 32 33
f 15 33 19
f 16 30 34
f 16 34 35
f 16 35 17
f 17 36 37
f 17 37 18
f 17 35 36
f 18 38 39
f 18 39 31
f 18 37 38
f 19 40 20
f 19 33 40
f 20 40 41
f 20 41 21
f 21 41 22
f 22 41 42
f 22 42 43
f 22 43 26
f 23 26 24
f 24 26 44
f 24 44 45
f 24 45 46
f 24 46 25
f 25 46 28
f 26 43 44
f 27 28 47
f 27 47 29
f 28 46 47
f 29 48 30
f 29 47 49
f 29 49 50
f 29 50 48
f 30 48 51
f 30 51 34
f 31 52 32
f 31 39 52
f 32 53 54
f 32 54 55
f 32 55 33
f 32 52 53
f 33 55 56
f 33 56 40
f 34 57 58
f 34 58 35
f 34 51 59
f 34 59 57
f 35 58 60
f 35 60 61
f 35 61 36
f 36 61 62
f 36 62 63
f 36 63 39
f 36 39 37
f 37 39 38
f 39 63 52
f 40 56 64
f 40 64 65
f 40 65 41
f 41 65 66
f 41 66 42
f 42 66 67
f 42 67 68
f 42 68 43
f 43 68 69
f 43 69 44
f 44 69 45
f 45 69 46
f 46 69 47
f 47 69 49
f 48 70 71
f 48 71 51
f 48 50 72
f 48 72 73
f 48 73 70
f 49 69 68
f 49 68 94
f 49 94 99
f 49 99 74
f 49 74 75
f 49 75 50
f 50 75 72
f 51 71 76
f 51 76 59
f 52 63 53
f 53 77 78
f 53 78 54
f 53 63 77
f 54 78 79
f 54 79 80
f 54 80 55
f 55 80 56
f 56 80 64
f 57 59 81
f 57 81 58
f 58 81 82
f 58 82 60
f 59 76 83
f 59 83 81
f 60 82 84
f 60 84 85
f 60 85 61
f 61 85 86
f 61 86 87
f 61 87 88
f 61 88 62
f 62 88 89
f 62 89 63
f 63 89 77
f 64 80 90
f 64 90 91
f 64 91 65
f 65 91 92
f 65 92 66
f 66 92 67
f 67 92 93
f 67 93 68
f 68 93 94
f 70 73 95
f 70 95 83
f 70 83 76
f 70 76 96
f 70 96 71
f 71 96 76
f 72 75 73
f 73 75 95
f 74 97 98
f 74 98 75
f 74 99 100
f 74 100 101
f 74 101 102
f 74 102 97
f 75 98 103
f 75 103 95
f 77 89 78
f 78 104 105
f 78 105 79
f 78 89 104
f 79 105 90
f 79 90 80
f 81 83 106
f 81 106 82
f 82 106 107
f 82 107 84
f 83 95 108
f 83 108 109
f 83 109 106
f 84 86 85
f 84 107 101
f 84 101 100
f 84 100 110
f 84 110 111
f 84 111 86
f 86 111 112
f 86 112 87
f 87 112 113
f 87 113 104
f 87 104 88
f 88 104 114
f 88 114 89
f 89 114 104
f 90 115 91
f 90 105 116
f 90 116 115
f 91 115 117
f 91 117 118
f 91 118 93
f 91 93 92
f 93 118 94
f 94 118 119
f 94 119 99
f 95 103 108
f 97 120 98
f 97 102 121
f 97 121 120
f 98 120 103
f 99 119 122
f 99 122 123
f 99 123 111
f 99 111 110
f 99 110 100
f 101 107 124
f 101 124 121
f 101 121 102
f 103 120 108
f 104 113 125
f 104 125 105
f 105 125 126
f 105 126 116
f 106 109 121
f 106 121 107
f 107 121 124
f 108 120 109
f 109 120 121
f 111 127 112
f 111 123 127
f 112 127 113
f 113 127 128
f 113 128 119
f 113 119 125
f 115 116 117
f 116 126 119
f 116 119 117
f 117 119 118
f 119 126 125
f 119 128 122
f 122 128 127
f 122 127 123

