# https://github.com/mikedh/trimesh
v 0.19080780 0.47612697 0.29655015
v 0.18981394 0.47604891 0.29649176
v 0.19080780 0.47585048 0.29655015
v 0.19080780 0.47745413 0.29523971
v 0.18981394 0.47601313 0.29649176
v 0.19080780 0.47754520 0.29514889
v 0.19080780 0.47853407 0.29415957
v 0.18889007 0.47690115 0.29547325
v 0.18389164 0.47664743 0.29477911
v 0.18148165 0.47636117 0.29445150
v 0.18389164 0.47483235 0.29580086
v 0.18630045 0.47483235 0.29600197
v 0.19080780 0.47569760 0.29651447
v 0.19080780 0.49884472 0.27358501
v 0.18248484 0.50023692 0.27011753
v 0.18022067 0.47610421 0.29414011
v 0.18148165 0.47483235 0.29496400
v 0.18148165 0.47310835 0.29458449
v 0.18406544 0.47227563 0.29490561
v 0.19080780 0.47465995 0.29610901
v 0.19080780 0.50006127 0.27146041
v 0.18389164 0.50035403 0.27029269
v 0.18248484 0.50023692 0.26978992
v 0.18018217 0.49790465 0.27036404
v 0.18086807 0.49736143 0.27196966
v 0.17907750 0.47483235 0.29045855
v 0.17972491 0.47483235 0.29286859
v 0.18021367 0.47483235 0.29415632
v 0.18015418 0.49575453 0.27285842
v 0.17986839 0.49654171 0.27117172
v 0.18024983 0.47358326 0.29411740
v 0.18148165 0.47190481 0.29350435
v 0.18337721 0.47137459 0.29393576
v 0.18011218 0.47105256 0.29184683
v 0.18639494 0.47219106 0.29489264
v 0.18498231 0.47119569 0.29409794
v 0.19080780 0.47433467 0.29595007
v 0.19080780 0.50004826 0.27118145
v 0.18630045 0.50027921 0.26972504
v 0.18630045 0.50027921 0.27021159
v 0.18389164 0.50035403 0.26959205
v 0.18389164 0.49953431 0.26838541
v 0.18148165 0.49800874 0.26727283
v 0.18027083 0.49773225 0.26756152
v 0.18020084 0.49786561 0.26877465
v 0.17939479 0.49651895 0.26877465
v 0.17919415 0.47242526 0.29045855
v 0.17932830 0.49410860 0.27118145
v 0.17889319 0.49410860 0.26877465
v 0.17989171 0.47263669 0.29273560
v 0.18148165 0.47066223 0.29229771
v 0.18406544 0.47045405 0.29302753
v 0.17998854 0.47090944 0.29045855
v 0.18267731 0.46880486 0.28927461
v 0.19080780 0.47269524 0.29489913
v 0.18565538 0.47119569 0.29409794
v 0.18726164 0.47123147 0.29406226
v 0.18630045 0.46894148 0.29140246
v 0.18871044 0.46886666 0.29158410
v 0.19080780 0.46885366 0.29160681
v 0.18759760 0.50014259 0.26996831
v 0.19080780 0.49898133 0.26882006
v 0.18630045 0.49941070 0.26851840
v 0.18630045 0.49820391 0.26696144
v 0.18389164 0.49832752 0.26692252
v 0.18389164 0.49698735 0.26571912
v 0.18237169 0.49552358 0.26504443
v 0.18153414 0.49640509 0.26600780
v 0.17981356 0.49651895 0.26711065
v 0.17973190 0.47257489 0.28809716
v 0.18005736 0.47097125 0.28893403
v 0.17958142 0.49410860 0.26678304
v 0.17996170 0.49251471 0.26712362
v 0.18389164 0.46907484 0.29087374
v 0.18267731 0.46880486 0.28923893
v 0.19080780 0.46712641 0.28788632
v 0.18389164 0.46864222 0.28967034
v 0.19080780 0.47253911 0.29477262
v 0.18630045 0.46837223 0.29019906
v 0.18871044 0.46822586 0.29037746
v 0.19080780 0.46814128 0.29040016
v 0.18871044 0.49705566 0.26604997
v 0.19080780 0.49579682 0.26504768
v 0.18630045 0.49715649 0.26575480
v 0.18630045 0.49594970 0.26474602
v 0.18389164 0.49578381 0.26488549
v 0.18101039 0.49410860 0.26557964
v 0.18630045 0.49410860 0.26413945
v 0.18389164 0.49410860 0.26450274
v 0.18221538 0.49410860 0.26496334
v 0.18234719 0.47088992 0.28655642
v 0.18170912 0.47012876 0.28828529
v 0.18237402 0.49265133 0.26501200
v 0.18157614 0.49177957 0.26640029
v 0.19080780 0.48265214 0.26694846
v 0.18498464 0.46875607 0.28676726
v 0.19080780 0.46716869 0.28563522
v 0.18337954 0.46928303 0.28763332
v 0.19080780 0.49564068 0.26487901
v 0.18871044 0.49584886 0.26476223
v 0.19080780 0.49433630 0.26414918
v 0.19080780 0.49410860 0.26405837
v 0.18871044 0.49410860 0.26407134
v 0.19080780 0.49209835 0.26342585
v 0.19080780 0.49167223 0.26341611
v 0.19080780 0.48928140 0.26353289
v 0.19080780 0.48151365 0.26817781
v 0.19080780 0.46996287 0.28075026
v 0.19080780 0.48694588 0.26409404
v 0.19080780 0.48550162 0.26483036
v 0.19080780 0.48435662 0.26563154
v 0.19080780 0.48393701 0.26592671
v 0.19080780 0.46876583 0.28208341
v 0.19080780 0.46790058 0.28330951
v 0.19080780 0.46784528 0.28341655
f 1 2 5
f 1 5 3
f 1 3 13
f 1 13 20
f 1 20 37
f 1 37 55
f 1 55 78
f 1 78 60
f 1 60 81
f 1 81 76
f 1 76 97
f 1 97 115
f 1 115 114
f 1 114 113
f 1 113 108
f 1 108 107
f 1 107 95
f 1 95 112
f 1 112 111
f 1 111 110
f 1 110 109
f 1 109 106
f 1 106 105
f 1 105 104
f 1 104 102
f 1 102 101
f 1 101 99
f 1 99 83
f 1 83 62
f 1 62 38
f 1 38 21
f 1 21 14
f 1 14 7
f 1 7 6
f 1 6 4
f 1 4 2
f 2 4 6
f 2 6 7
f 2 7 8
f 2 8 9
f 2 9 10
f 2 10 11
f 2 11 5
f 3 5 11
f 3 11 12
f 3 12 13
f 7 14 8
f 8 14 9
f 9 14 15
f 9 15 10
f 10 16 11
f 10 15 16
f 11 17 18
f 11 18 19
f 11 19 12
f 11 16 17
f 12 20 13
f 12 19 20
f 14 21 22
f 14 22 15
f 15 22 41
f 15 41 23
f 15 23 24
f 15 24 25
f 15 25 16
f 16 26 27
f 16 27 28
f 16 28 17
f 16 25 29
f 16 29 30
f 16 30 26
f 17 28 31
f 17 31 18
f 18 32 33
f 18 33 19
f 18 31 34
f 18 34 32
f 19 35 20
f 19 33 36
f 19 36 35
f 20 35 37
f 21 38 39
f 21 39 40
f 21 40 22
f 22 40 39
f 22 39 41
f 23 41 42
f 23 42 43
f 23 43 44
f 23 44 45
f 23 45 24
f 24 45 46
f 24 46 30
f 24 30 29
f 24 29 25
f 26 47 27
f 26 30 48
f 26 48 49
f 26 49 47
f 27 47 50
f 27 50 31
f 27 31 28
f 30 46 48
f 31 50 34
f 32 34 51
f 32 51 33
f 33 51 52
f 33 52 36
f 34 53 54
f 34 54 51
f 34 50 47
f 34 47 53
f 35 55 37
f 35 36 56
f 35 56 57
f 35 57 55
f 36 52 58
f 36 58 59
f 36 59 60
f 36 60 56
f 38 61 39
f 38 62 61
f 39 61 62
f 39 62 63
f 39 63 42
f 39 42 41
f 42 63 64
f 42 64 65
f 42 65 43
f 43 65 66
f 43 66 67
f 43 67 68
f 43 68 44
f 44 69 46
f 44 46 45
f 44 68 69
f 46 69 49
f 46 49 48
f 47 70 71
f 47 71 53
f 47 49 70
f 49 69 72
f 49 72 73
f 49 73 70
f 51 54 74
f 51 74 52
f 52 74 58
f 53 71 75
f 53 75 54
f 54 75 76
f 54 76 77
f 54 77 74
f 55 57 78
f 56 60 57
f 57 60 78
f 58 74 79
f 58 79 80
f 58 80 59
f 59 80 81
f 59 81 60
f 62 82 64
f 62 64 63
f 62 83 82
f 64 82 84
f 64 84 65
f 65 84 66
f 66 84 85
f 66 85 86
f 66 86 67
f 67 87 69
f 67 69 68
f 67 86 88
f 67 88 89
f 67 89 90
f 67 90 87
f 69 87 72
f 70 73 71
f 71 91 92
f 71 92 75
f 71 73 91
f 72 87 93
f 72 93 73
f 73 93 94
f 73 94 95
f 73 95 91
f 74 77 79
f 75 96 97
f 75 97 76
f 75 92 98
f 75 98 96
f 76 81 80
f 76 80 79
f 76 79 77
f 82 83 99
f 82 99 84
f 84 99 100
f 84 100 85
f 85 100 101
f 85 101 102
f 85 102 103
f 85 103 88
f 85 88 86
f 87 90 93
f 88 103 104
f 88 104 105
f 88 105 89
f 89 93 90
f 89 105 106
f 89 106 93
f 91 95 107
f 91 107 108
f 91 108 96
f 91 96 98
f 91 98 92
f 93 106 109
f 93 109 110
f 93 110 111
f 93 111 112
f 93 112 95
f 93 95 94
f 96 113 114
f 96 114 115
f 96 115 97
f 96 108 113
f 99 101 100
f 102 104 103

