# https://github.com/mikedh/trimesh
v 0.26420701 0.28524232 -0.06320534
v 0.25760376 0.28084585 -0.06222532
v 0.26420701 0.28412375 -0.05972080
v 0.26420701 0.28162399 -0.05689950
v 0.26420701 0.28145862 -0.05673121
v 0.26420701 0.27887133 -0.05427619
v 0.26420701 0.27698433 -0.05267252
v 0.26420701 0.27433866 -0.05072731
v 0.26420701 0.27156654 -0.04882665
v 0.26420701 0.26918349 -0.04751994
v 0.26420701 0.26901814 -0.04743084
v 0.26420701 0.26467031 -0.04565392
v 0.26420701 0.26405752 -0.04544109
v 0.26420701 0.26060453 -0.04465905
v 0.26420701 0.26029328 -0.04463430
v 0.26420701 0.25600380 -0.04528765
v 0.26420701 0.25555634 -0.04546583
v 0.26420701 0.25244382 -0.04760903
v 0.26420701 0.25228819 -0.04795550
v 0.26420701 0.25173375 -0.05129651
v 0.26420701 0.25187966 -0.05207360
v 0.26420701 0.25334838 -0.05556805
v 0.26420701 0.25605243 -0.05882491
v 0.26420701 0.25947624 -0.06173034
v 0.26420701 0.26079905 -0.06269058
v 0.26420701 0.26249152 -0.06388343
v 0.26420701 0.26433960 -0.06513570
v 0.26420701 0.26525390 -0.06572965
v 0.26420701 0.26878470 -0.06787284
v 0.26420701 0.26941693 -0.06818962
v 0.26420701 0.27391070 -0.06969431
v 0.26420701 0.27843362 -0.06994674
v 0.26420701 0.28290790 -0.06823912
v 0.26420701 0.28522286 -0.06464569
v 0.18496807 0.24000333 -0.08523123
v 0.18496807 0.24000333 -0.08460756
v 0.19392809 0.24459434 -0.08010339
v 0.17117770 0.23106447 -0.08459766
v 0.15577367 0.22166845 -0.08732987
v 0.15577367 0.22127938 -0.08643398
v 0.15780134 0.22184353 -0.08490951
v 0.15577367 0.21890606 -0.08334047
v 0.26005608 0.28159481 -0.06807578
v 0.25735956 0.28094313 -0.06735808
v 0.18746287 0.24055775 -0.08571134
v 0.17125201 0.23094775 -0.08974034
v 0.15577367 0.22183380 -0.09186869
v 0.25252923 0.27648827 -0.07169892
v 0.15577367 0.22180462 -0.08943347
v 0.15577367 0.21948966 -0.09488302
v 0.15577367 0.21471384 -0.09519979
v 0.15577367 0.21403298 -0.09505130
v 0.15577367 0.21038546 -0.09397724
v 0.15577367 0.20762306 -0.09278932
v 0.15577367 0.20625161 -0.09217557
v 0.15577367 0.20249708 -0.09020561
v 0.15577367 0.20021129 -0.08887415
v 0.15577367 0.19670968 -0.08659732
v 0.15577367 0.19665131 -0.08655772
v 0.15577367 0.19221593 -0.08313753
v 0.15577367 0.19205058 -0.08300884
v 0.15577367 0.19184633 -0.08283065
v 0.15577367 0.18763463 -0.07869276
v 0.15577367 0.18745956 -0.07850962
v 0.15577367 0.18733312 -0.07834628
v 0.15577367 0.18587410 -0.07371342
v 0.15577367 0.18604918 -0.07306996
v 0.15577367 0.18779026 -0.07000119
v 0.15577367 0.18804316 -0.06981310
v 0.15577367 0.19224510 -0.06799658
v 0.15577367 0.19233266 -0.06798173
v 0.15577367 0.19677776 -0.06860539
v 0.15577367 0.19683611 -0.06862518
v 0.15577367 0.20129095 -0.07035756
v 0.15577367 0.20134932 -0.07038726
v 0.15577367 0.20349893 -0.07149599
v 0.15577367 0.20628077 -0.07330754
v 0.15577367 0.20654340 -0.07348574
v 0.15577367 0.20914042 -0.07526265
v 0.15577367 0.21103714 -0.07666340
v 0.15577367 0.21449013 -0.07939560
v 0.15577367 0.21654247 -0.08105868
v 0.25862291 0.27671197 -0.07170882
v 0.25552300 0.27681899 -0.07183256
v 0.17385297 0.23167725 -0.08999278
v 0.15771642 0.22186299 -0.09424946
v 0.26096907 0.27391070 -0.07096636
v 0.25869721 0.27391070 -0.07173852
v 0.16263169 0.22180462 -0.09416533
v 0.16024306 0.22188243 -0.09424452
v 0.15599661 0.21955775 -0.09487312
v 0.25983316 0.26958230 -0.07028826
v 0.25816640 0.27123582 -0.07157023
v 0.16263169 0.22156145 -0.09416533
v 0.15600722 0.21470413 -0.09514040
v 0.17115647 0.21756378 -0.07117921
v 0.25261417 0.26325992 -0.07111982
v 0.25398365 0.26628494 -0.07178306
v 0.15772703 0.21304084 -0.09402674
v 0.17418207 0.22373052 -0.09067582
v 0.25383502 0.26193708 -0.04907412
v 0.26299676 0.26648921 -0.06728384
v 0.23019286 0.24935071 -0.07578237
v 0.23157296 0.25237572 -0.07644067
v 0.17592311 0.22202834 -0.08951267
v 0.15671851 0.21038546 -0.09354166
v 0.25248677 0.25891209 -0.04842078
v 0.25686061 0.26340583 -0.04831684
v 0.16756821 0.20753552 -0.06717990
v 0.24454589 0.24860175 -0.06715515
v 0.23131818 0.24368976 -0.07188700
v 0.23895118 0.24963278 -0.07105052
v 0.23592559 0.24816404 -0.07191175
v 0.18067914 0.21718442 -0.08506789
v 0.16707987 0.21262260 -0.08961660
v 0.17151742 0.21727197 -0.08956711
v 0.24832524 0.25398064 -0.04859896
v 0.16621995 0.20451050 -0.06656120
v 0.26379296 0.26124650 -0.06329443
v 0.26211563 0.25822148 -0.06223521
v 0.25747636 0.25378609 -0.06213622
v 0.23988540 0.24421500 -0.06707101
v 0.22974698 0.24066474 -0.07094657
v 0.22672138 0.23925437 -0.07185236
v 0.22826073 0.24216266 -0.07272844
v 0.18932070 0.21758322 -0.08027665
v 0.18630570 0.21618257 -0.08116757
v 0.17838606 0.21384816 -0.08433533
v 0.17602928 0.21273932 -0.08501344
v 0.15979718 0.20627105 -0.09012147
v 0.16256800 0.20806076 -0.08963145
v 0.22099927 0.23140490 -0.05314768
v 0.18027574 0.20852765 -0.06225996
v 0.16473369 0.20108670 -0.06623946
v 0.24491745 0.24384539 -0.06294301
v 0.23512937 0.23984769 -0.06693737
v 0.19478801 0.21676618 -0.07632188
v 0.19951220 0.22110431 -0.07641592
v 0.18163460 0.21176665 -0.08111313
v 0.17425638 0.21005474 -0.08435513
v 0.17843914 0.21030764 -0.08206345
v 0.17136878 0.20832339 -0.08493920
v 0.15897974 0.19813950 -0.08566184
v 0.22099927 0.23042251 -0.05314768
v 0.18027574 0.20729235 -0.06225996
v 0.15917084 0.19677776 -0.06734324
v 0.16144268 0.19677776 -0.06658594
v 0.16134714 0.19402510 -0.06657605
v 0.26233855 0.25348458 -0.05784488
v 0.26005608 0.25248271 -0.05879521
v 0.23028840 0.23556794 -0.06667999
v 0.25750822 0.24912700 -0.05750831
v 0.19487293 0.21215571 -0.07198104
v 0.20779279 0.22182408 -0.07135244
v 0.19001074 0.21242806 -0.07617339
v 0.17998910 0.20874164 -0.08005884
v 0.17696349 0.20743825 -0.08103393
v 0.15727054 0.19511449 -0.08459271
v 0.22375947 0.23032524 -0.05302394
v 0.26005608 0.25576061 -0.04562422
v 0.20259088 0.21690236 -0.05755781
v 0.16477616 0.19413209 -0.06664534
v 0.20384358 0.21690236 -0.05755781
v 0.25848490 0.24846557 -0.05447913
v 0.24420618 0.23985742 -0.05787953
v 0.22171056 0.22607465 -0.06271533
v 0.18496807 0.20374209 -0.07056545
v 0.16737711 0.19428772 -0.07627733
v 0.17231362 0.19847021 -0.07657926
v 0.18515916 0.20814830 -0.07595561
v 0.16736649 0.19877174 -0.08074190
v 0.16248307 0.19453089 -0.08049937
v 0.22642413 0.23054895 -0.05308333
v 0.16707987 0.19449198 -0.06689777
v 0.16267416 0.18989123 -0.07130790
v 0.22217767 0.22578286 -0.05710738
v 0.25330421 0.24438035 -0.05336546
v 0.20832360 0.21694127 -0.06300240
v 0.16837503 0.19371384 -0.07371342
v 0.17064689 0.19524094 -0.07371342
v 0.15921329 0.18893802 -0.07714847
v 0.15751471 0.19033867 -0.08017270
v 0.20832360 0.21694127 -0.06192834
v 0.16267416 0.18989123 -0.07192165
v 0.25330421 0.24438035 -0.05322687
v 0.24469452 0.23956563 -0.05293485
v 0.15649556 0.18632153 -0.07371342
v 0.16223890 0.19020249 -0.07494587
f 1 2 3
f 1 3 4
f 1 4 5
f 1 5 6
f 1 6 7
f 1 7 8
f 1 8 9
f 1 9 10
f 1 10 11
f 1 11 12
f 1 12 13
f 1 13 14
f 1 14 15
f 1 15 16
f 1 16 17
f 1 17 18
f 1 18 19
f 1 19 20
f 1 20 21
f 1 21 22
f 1 22 23
f 1 23 24
f 1 24 25
f 1 25 26
f 1 26 27
f 1 27 28
f 1 28 29
f 1 29 30
f 1 30 31
f 1 31 32
f 1 32 33
f 1 33 34
f 1 34 35
f 1 35 36
f 1 36 2
f 2 36 37
f 2 37 38
f 2 38 39
f 2 39 40
f 2 40 41
f 2 41 3
f 3 41 42
f 3 42 4
f 34 33 43
f 34 43 44
f 34 44 35
f 35 45 46
f 35 46 47
f 35 47 36
f 35 44 48
f 35 48 45
f 36 47 49
f 36 49 39
f 36 39 38
f 36 38 37
f 39 49 47
f 39 47 50
f 39 50 51
f 39 51 52
f 39 52 53
f 39 53 54
f 39 54 55
f 39 55 56
f 39 56 57
f 39 57 58
f 39 58 59
f 39 59 60
f 39 60 61
f 39 61 62
f 39 62 63
f 39 63 64
f 39 64 65
f 39 65 66
f 39 66 67
f 39 67 68
f 39 68 69
f 39 69 70
f 39 70 71
f 39 71 72
f 39 72 73
f 39 73 74
f 39 74 75
f 39 75 76
f 39 76 77
f 39 77 78
f 39 78 79
f 39 79 80
f 39 80 81
f 39 81 82
f 39 82 42
f 39 42 40
f 40 42 41
f 4 42 5
f 42 82 5
f 33 32 83
f 33 83 84
f 33 84 48
f 33 48 43
f 43 48 44
f 45 85 46
f 45 48 85
f 46 85 86
f 46 86 47
f 47 86 50
f 48 84 86
f 48 86 85
f 5 82 6
f 82 81 7
f 82 7 6
f 32 31 87
f 32 87 88
f 32 88 83
f 83 88 89
f 83 89 84
f 84 89 90
f 84 90 86
f 86 90 91
f 86 91 50
f 50 91 51
f 81 80 7
f 7 80 79
f 7 79 8
f 31 30 92
f 31 92 93
f 31 93 87
f 87 93 88
f 88 93 94
f 88 94 89
f 89 94 51
f 89 51 91
f 89 91 90
f 51 94 95
f 51 95 52
f 8 79 96
f 8 96 9
f 79 78 96
f 30 29 97
f 30 97 98
f 30 98 92
f 92 98 93
f 93 98 99
f 93 99 100
f 93 100 95
f 93 95 94
f 52 99 53
f 52 95 100
f 52 100 99
f 9 101 10
f 9 96 77
f 9 77 76
f 9 76 101
f 96 78 77
f 29 28 102
f 29 102 103
f 29 103 97
f 97 103 104
f 97 104 98
f 98 104 105
f 98 105 99
f 99 105 53
f 53 105 104
f 53 104 106
f 53 106 54
f 101 107 108
f 101 108 11
f 101 11 10
f 101 76 109
f 101 109 107
f 76 75 109
f 28 27 110
f 28 110 102
f 102 110 111
f 102 111 112
f 102 112 113
f 102 113 114
f 102 114 103
f 103 114 115
f 103 115 116
f 103 116 104
f 104 116 106
f 54 106 116
f 54 116 115
f 54 115 55
f 107 117 13
f 107 13 12
f 107 12 108
f 107 109 118
f 107 118 117
f 108 12 11
f 109 75 74
f 109 74 118
f 27 26 110
f 110 26 119
f 110 119 25
f 110 25 24
f 110 24 120
f 110 120 121
f 110 121 122
f 110 122 123
f 110 123 111
f 111 123 124
f 111 124 125
f 111 125 113
f 111 113 112
f 113 125 114
f 114 126 127
f 114 127 128
f 114 128 129
f 114 129 57
f 114 57 56
f 114 56 130
f 114 130 131
f 114 131 55
f 114 55 115
f 114 125 124
f 114 124 126
f 55 131 130
f 55 130 56
f 117 132 14
f 117 14 13
f 117 118 133
f 117 133 132
f 118 74 73
f 118 73 72
f 118 72 134
f 118 134 133
f 26 25 119
f 24 23 121
f 24 121 120
f 121 23 135
f 121 135 136
f 121 136 122
f 122 136 137
f 122 137 138
f 122 138 123
f 123 138 139
f 123 139 126
f 123 126 124
f 126 139 127
f 127 139 128
f 128 140 129
f 128 139 141
f 128 141 140
f 129 140 57
f 57 140 142
f 57 142 143
f 57 143 58
f 132 144 15
f 132 15 14
f 132 133 145
f 132 145 144
f 133 134 146
f 133 146 147
f 133 147 148
f 133 148 145
f 72 71 146
f 72 146 134
f 23 22 149
f 23 149 150
f 23 150 135
f 135 151 136
f 135 150 152
f 135 152 153
f 135 153 154
f 135 154 151
f 136 151 154
f 136 154 155
f 136 155 137
f 137 155 156
f 137 156 138
f 138 156 139
f 139 156 157
f 139 157 143
f 139 143 141
f 140 141 142
f 141 143 142
f 143 157 158
f 143 158 59
f 143 59 58
f 144 159 16
f 144 16 160
f 144 160 15
f 144 145 148
f 144 148 161
f 144 161 159
f 15 160 16
f 146 71 147
f 147 71 148
f 148 71 70
f 148 70 69
f 148 69 162
f 148 162 163
f 148 163 161
f 22 21 164
f 22 164 152
f 22 152 149
f 149 152 150
f 152 164 165
f 152 165 166
f 152 166 167
f 152 167 168
f 152 168 153
f 153 168 169
f 153 169 154
f 154 169 170
f 154 170 155
f 155 170 171
f 155 171 156
f 156 171 158
f 156 158 157
f 158 172 61
f 158 61 60
f 158 60 59
f 158 171 172
f 159 173 16
f 159 161 163
f 159 163 173
f 16 173 17
f 69 68 162
f 162 68 174
f 162 174 163
f 163 174 175
f 163 175 176
f 163 176 173
f 21 20 177
f 21 177 164
f 164 177 166
f 164 166 165
f 166 177 178
f 166 178 167
f 167 179 180
f 167 180 181
f 167 181 168
f 167 178 179
f 168 181 64
f 168 64 182
f 168 182 172
f 168 172 169
f 169 172 170
f 170 172 171
f 172 182 62
f 172 62 61
f 173 176 18
f 173 18 17
f 68 67 175
f 68 175 174
f 175 183 176
f 175 67 66
f 175 66 184
f 175 184 178
f 175 178 183
f 176 183 185
f 176 185 186
f 176 186 18
f 20 19 185
f 20 185 177
f 177 185 183
f 177 183 178
f 178 184 179
f 179 184 187
f 179 187 188
f 179 188 181
f 179 181 180
f 181 188 66
f 181 66 65
f 181 65 64
f 64 63 182
f 182 63 62
f 18 186 19
f 66 188 187
f 66 187 184
f 185 19 186

