# https://github.com/mikedh/trimesh
v 0.29212695 0.29099733 -0.03204529
v 0.30852622 0.29206243 -0.03437406
v 0.30779696 0.29441795 -0.03508751
v 0.29212695 0.29206243 -0.03292861
v 0.29212695 0.30384415 -0.04407829
v 0.29212695 0.30550736 -0.04676535
v 0.29212695 0.30671173 -0.05019056
v 0.29212695 0.30692476 -0.05102756
v 0.29212695 0.30612594 -0.05527432
v 0.29212695 0.30526567 -0.05653446
v 0.29212695 0.30266023 -0.05979288
v 0.29212695 0.30066520 -0.06119508
v 0.29212695 0.29748219 -0.06313161
v 0.29212695 0.29684722 -0.06326132
v 0.29212695 0.29164869 -0.06359798
v 0.29212695 0.29126361 -0.06350223
v 0.29212695 0.28752753 -0.06226064
v 0.29212695 0.28426668 -0.06056192
v 0.29212695 0.28313601 -0.05995348
v 0.29212695 0.28301314 -0.05987936
v 0.29212695 0.28268948 -0.05968169
v 0.29212695 0.27821195 -0.05677227
v 0.29212695 0.27817509 -0.05674447
v 0.29212695 0.27509037 -0.05425509
v 0.29212695 0.27282497 -0.05204369
v 0.29212695 0.27076849 -0.04976124
v 0.29212695 0.27066609 -0.04960064
v 0.29212695 0.26878577 -0.04658620
v 0.29212695 0.26869974 -0.04609822
v 0.29212695 0.26872432 -0.04208001
v 0.29212695 0.26885951 -0.04171556
v 0.29212695 0.27072752 -0.03877525
v 0.29212695 0.27326331 -0.03651443
v 0.29212695 0.27554917 -0.03452231
v 0.29212695 0.27566800 -0.03443274
v 0.29212695 0.27846593 -0.03241591
v 0.29212695 0.27968261 -0.03204529
v 0.29460680 0.28299263 -0.03204529
v 0.30544031 0.28752753 -0.03286992
v 0.31012383 0.28730223 -0.03374399
v 0.31237715 0.28563902 -0.03489602
v 0.31173533 0.28866637 -0.03658547
v 0.31061858 0.29163638 -0.03782398
v 0.31090671 0.30086184 -0.05107697
v 0.30791420 0.30352461 -0.04862466
v 0.29996991 0.30919427 -0.04764866
v 0.29636538 0.30928439 -0.04769500
v 0.30587548 0.28254610 -0.03370075
v 0.30997679 0.28382015 -0.03412079
v 0.31237715 0.28484020 -0.03489602
v 0.31242484 0.28464356 -0.03741629
v 0.31240100 0.28730223 -0.03782398
v 0.31235728 0.29916176 -0.05262125
v 0.31226787 0.28983799 -0.03960916
v 0.30842885 0.30401212 -0.05102756
v 0.30379105 0.30842000 -0.05217341
v 0.30299422 0.30776456 -0.04914663
v 0.30125156 0.30962440 -0.05080826
v 0.29636538 0.31054613 -0.05102756
v 0.29382986 0.30848145 -0.04844861
v 0.30465144 0.27995709 -0.03456246
v 0.30767775 0.28073543 -0.03516781
v 0.31127036 0.28256249 -0.04195647
v 0.30884415 0.27973998 -0.03819151
v 0.31238708 0.28483200 -0.04195647
v 0.31241491 0.28752753 -0.04195647
v 0.31235728 0.29916176 -0.05342118
v 0.30846462 0.30409405 -0.05418406
v 0.30379105 0.30842000 -0.05438173
v 0.30085415 0.30898532 -0.05576232
v 0.29651639 0.30906728 -0.05566965
v 0.29367089 0.30855930 -0.05423039
v 0.29357752 0.30880508 -0.05102756
v 0.29758343 0.27647090 -0.03535312
v 0.30090383 0.27695841 -0.03597393
v 0.29511750 0.27123961 -0.03926324
v 0.30090383 0.27492240 -0.03824092
v 0.30381489 0.27580726 -0.03906557
v 0.31232947 0.28509417 -0.04438406
v 0.30900112 0.27954334 -0.04195647
v 0.30618346 0.27727383 -0.04195647
v 0.31235728 0.29865789 -0.05342118
v 0.30478656 0.30113631 -0.05914736
v 0.30413678 0.30460611 -0.05856672
v 0.30547607 0.30586377 -0.05579629
v 0.30233252 0.30762938 -0.05740851
v 0.29931021 0.30812916 -0.05797681
v 0.29812989 0.30812916 -0.05797681
v 0.29510358 0.30760071 -0.05725408
v 0.29290786 0.30457744 -0.05883543
v 0.29594013 0.27063742 -0.04195647
v 0.29820737 0.27184999 -0.04195647
v 0.30090383 0.27364427 -0.04195647
v 0.30391425 0.27570894 -0.04195647
v 0.30829570 0.28012913 -0.04505119
v 0.30982974 0.28322205 -0.04623102
v 0.30833745 0.28437319 -0.04948637
v 0.30895939 0.28779790 -0.05100902
v 0.30351880 0.27592608 -0.04461570
v 0.30377513 0.29318488 -0.05840303
v 0.30451632 0.29660141 -0.05902382
v 0.30789432 0.28948978 -0.05347678
v 0.30063754 0.30090281 -0.06136186
v 0.30063754 0.29660961 -0.06143291
v 0.29894656 0.29812944 -0.06248301
v 0.29894656 0.29923141 -0.06248301
v 0.30085415 0.30594158 -0.05902382
v 0.29636538 0.30183274 -0.06167999
v 0.29651639 0.30592519 -0.05918443
v 0.29324567 0.29943624 -0.06262508
v 0.30529723 0.27856427 -0.04634530
v 0.30707368 0.28134993 -0.04807181
v 0.30542243 0.28299674 -0.05099975
v 0.30679548 0.28646243 -0.05251006
v 0.29521883 0.27090779 -0.04649356
v 0.29748806 0.27254641 -0.04649356
v 0.30214772 0.27699938 -0.04763940
v 0.30118003 0.29182893 -0.05942534
v 0.29833257 0.29510209 -0.06224519
v 0.30287498 0.29016161 -0.05765560
v 0.30534491 0.28779790 -0.05446821
v 0.29530826 0.29286945 -0.06285981
v 0.29663959 0.29660961 -0.06288143
v 0.29636538 0.29956323 -0.06264361
v 0.29415575 0.27160010 -0.04881615
v 0.30404934 0.28002262 -0.04949255
v 0.30376917 0.28464764 -0.05373313
v 0.30219543 0.28162438 -0.05251624
v 0.29912144 0.27581137 -0.04918368
v 0.29663959 0.29164049 -0.06179427
v 0.29985067 0.28855577 -0.05852966
v 0.29306287 0.28752753 -0.06176646
v 0.29406038 0.28984210 -0.06235329
v 0.30118003 0.28723669 -0.05698847
v 0.29837626 0.28553250 -0.05767722
v 0.29226008 0.29164049 -0.06355783
v 0.29917112 0.28028071 -0.05365900
v 0.29429486 0.27602029 -0.05344899
v 0.30077070 0.28307867 -0.05458866
v 0.29381594 0.28100991 -0.05764941
f 1 2 3
f 1 3 4
f 1 4 5
f 1 5 6
f 1 6 7
f 1 7 8
f 1 8 9
f 1 9 10
f 1 10 11
f 1 11 12
f 1 12 13
f 1 13 14
f 1 14 15
f 1 15 16
f 1 16 17
f 1 17 18
f 1 18 19
f 1 19 20
f 1 20 21
f 1 21 22
f 1 22 23
f 1 23 24
f 1 24 25
f 1 25 26
f 1 26 27
f 1 27 28
f 1 28 29
f 1 29 30
f 1 30 31
f 1 31 32
f 1 32 33
f 1 33 34
f 1 34 35
f 1 35 36
f 1 36 37
f 1 37 38
f 1 38 39
f 1 39 2
f 2 39 40
f 2 40 41
f 2 41 3
f 3 41 42
f 3 42 43
f 3 43 44
f 3 44 45
f 3 45 46
f 3 46 4
f 4 46 47
f 4 47 5
f 37 36 48
f 37 48 49
f 37 49 39
f 37 39 38
f 39 49 40
f 40 49 50
f 40 50 41
f 41 50 51
f 41 51 52
f 41 52 53
f 41 53 54
f 41 54 42
f 42 54 44
f 42 44 43
f 44 55 45
f 44 54 53
f 44 53 55
f 45 55 56
f 45 56 57
f 45 57 46
f 46 57 58
f 46 58 59
f 46 59 47
f 47 59 60
f 47 60 5
f 5 60 6
f 36 61 48
f 36 35 61
f 48 61 49
f 49 61 62
f 49 62 50
f 50 63 51
f 50 62 64
f 50 64 63
f 51 65 66
f 51 66 53
f 51 53 52
f 51 63 65
f 53 67 68
f 53 68 55
f 53 66 67
f 55 68 56
f 56 69 58
f 56 58 57
f 56 68 69
f 58 69 70
f 58 70 59
f 59 70 71
f 59 71 72
f 59 72 73
f 59 73 60
f 60 73 8
f 60 8 7
f 60 7 6
f 61 35 34
f 61 34 74
f 61 74 75
f 61 75 76
f 61 76 62
f 62 76 77
f 62 77 78
f 62 78 64
f 63 79 65
f 63 64 80
f 63 80 79
f 64 78 81
f 64 81 80
f 65 79 82
f 65 82 66
f 66 82 67
f 67 82 83
f 67 83 84
f 67 84 68
f 68 84 85
f 68 85 69
f 69 85 86
f 69 86 70
f 70 86 87
f 70 87 71
f 71 87 88
f 71 88 89
f 71 89 72
f 72 9 8
f 72 8 73
f 72 89 90
f 72 90 9
f 34 33 74
f 74 33 32
f 74 32 76
f 74 76 75
f 76 32 31
f 76 31 91
f 76 91 78
f 76 78 77
f 78 91 92
f 78 92 93
f 78 93 94
f 78 94 81
f 79 80 95
f 79 95 96
f 79 96 97
f 79 97 98
f 79 98 82
f 80 81 99
f 80 99 95
f 81 94 99
f 82 100 101
f 82 101 83
f 82 98 102
f 82 102 100
f 83 103 84
f 83 101 104
f 83 104 105
f 83 105 106
f 83 106 103
f 84 103 107
f 84 107 86
f 84 86 85
f 86 107 87
f 87 107 108
f 87 108 88
f 88 108 109
f 88 109 89
f 89 109 90
f 9 90 10
f 90 110 11
f 90 11 10
f 90 109 110
f 31 30 91
f 91 30 29
f 91 29 92
f 92 29 28
f 92 28 99
f 92 99 93
f 93 99 94
f 95 111 112
f 95 112 96
f 95 99 111
f 96 112 97
f 97 112 113
f 97 113 114
f 97 114 102
f 97 102 98
f 99 28 115
f 99 115 116
f 99 116 117
f 99 117 111
f 100 118 119
f 100 119 104
f 100 104 101
f 100 102 120
f 100 120 118
f 102 114 121
f 102 121 120
f 103 106 107
f 104 119 105
f 105 119 122
f 105 122 15
f 105 15 123
f 105 123 106
f 106 123 14
f 106 14 124
f 106 124 108
f 106 108 107
f 108 124 110
f 108 110 109
f 110 12 11
f 110 124 13
f 110 13 12
f 28 27 125
f 28 125 115
f 111 117 112
f 112 117 126
f 112 126 113
f 113 127 114
f 113 126 128
f 113 128 127
f 114 127 121
f 115 125 116
f 116 125 117
f 117 125 129
f 117 129 126
f 118 130 119
f 118 120 131
f 118 131 132
f 118 132 133
f 118 133 130
f 119 130 122
f 120 121 127
f 120 127 134
f 120 134 135
f 120 135 131
f 122 130 133
f 122 133 16
f 122 16 136
f 122 136 15
f 15 14 123
f 15 136 16
f 14 13 124
f 27 26 125
f 125 26 129
f 126 137 128
f 126 129 25
f 126 25 138
f 126 138 137
f 127 135 134
f 127 128 137
f 127 137 139
f 127 139 140
f 127 140 135
f 129 26 25
f 131 135 19
f 131 19 18
f 131 18 132
f 132 18 17
f 132 17 133
f 133 17 16
f 135 20 19
f 135 140 20
f 137 140 139
f 137 138 24
f 137 24 23
f 137 23 22
f 137 22 140
f 25 24 138
f 140 22 21
f 140 21 20

