# https://github.com/mikedh/trimesh
v 0.28713724 0.28790084 -0.03935845
v 0.28713724 0.28790084 -0.06475361
v 0.28331655 0.28790084 -0.06648435
v 0.28138489 0.28790084 -0.06713714
v 0.27827764 0.28790084 -0.06748149
v 0.27786934 0.28790084 -0.06752640
v 0.27762032 0.28790084 -0.06754437
v 0.27367848 0.28790084 -0.06734974
v 0.26917350 0.28790084 -0.06530758
v 0.26846680 0.28790084 -0.06471171
v 0.26743481 0.28790084 -0.04650299
v 0.26723063 0.28790084 -0.04270915
v 0.26722389 0.28790084 -0.04195456
v 0.26729569 0.28790084 -0.03966687
v 0.26730692 0.28790084 -0.03935845
v 0.26735851 0.28767425 -0.03935845
v 0.26852065 0.28298676 -0.03935845
v 0.26919594 0.28104663 -0.03935845
v 0.27068788 0.27685836 -0.03935845
v 0.27390507 0.27237624 -0.03935845
v 0.27821258 0.26937753 -0.03935845
v 0.27980098 0.26870841 -0.03935845
v 0.28275120 0.26795074 -0.03935845
v 0.28413096 0.26814193 -0.03935845
v 0.28713724 0.26873672 -0.03935845
v 0.28713724 0.26756132 -0.04057117
v 0.28713724 0.26603541 -0.04276304
v 0.28713724 0.26595750 -0.04294869
v 0.28713724 0.26541230 -0.04658684
v 0.28713724 0.26586899 -0.04779656
v 0.28713724 0.26758254 -0.05088375
v 0.28713724 0.26848534 -0.05198267
v 0.28713724 0.26966074 -0.05314150
v 0.28713724 0.27181685 -0.05519263
v 0.28713724 0.27313033 -0.05633049
v 0.28713724 0.27415705 -0.05713897
v 0.28713724 0.27796650 -0.05989977
v 0.28713724 0.27839842 -0.06019022
v 0.28713724 0.27860376 -0.06032198
v 0.28713724 0.28323105 -0.06300192
v 0.28713724 0.28338683 -0.06308576
v 0.28713724 0.28496939 -0.06373255
v 0.28713724 0.28752553 -0.06477458
v 0.28365758 0.28752553 -0.06637956
v 0.26421762 0.28524199 -0.06320255
v 0.26421762 0.28412676 -0.05971711
v 0.26421762 0.28162372 -0.05689643
v 0.26421762 0.28145733 -0.05672575
v 0.26421762 0.27887639 -0.05427635
v 0.26421762 0.27698582 -0.05266838
v 0.26421762 0.27433762 -0.05072804
v 0.26421762 0.27156901 -0.04882662
v 0.26421762 0.26902348 -0.04742826
v 0.26421762 0.26467943 -0.04565259
v 0.26421762 0.26405987 -0.04543999
v 0.26421762 0.26061153 -0.04465847
v 0.26421762 0.26030353 -0.04463452
v 0.27163464 0.25793499 -0.04413446
v 0.28249767 0.28318858 -0.06550221
v 0.28081730 0.28483486 -0.06705929
v 0.28138939 0.28752553 -0.06714912
v 0.26421762 0.28523138 -0.06463984
v 0.26421762 0.28291243 -0.06823606
v 0.26421762 0.27843738 -0.06994884
v 0.26421762 0.27391276 -0.06969132
v 0.26421762 0.26942709 -0.06818516
v 0.26421762 0.26879337 -0.06786776
v 0.26421762 0.26526007 -0.06572679
v 0.26421762 0.26434308 -0.06513091
v 0.26421762 0.26250210 -0.06387927
v 0.26421762 0.26080978 -0.06268752
v 0.26421762 0.25947860 -0.06172632
v 0.26421762 0.25606212 -0.05881879
v 0.26421762 0.25595945 -0.05869903
v 0.26421762 0.25335374 -0.05556693
v 0.26421762 0.25188449 -0.05207251
v 0.26421762 0.25173578 -0.05129697
v 0.26421762 0.25229162 -0.04795526
v 0.26421762 0.25245094 -0.04760792
v 0.26421762 0.25556293 -0.04546396
v 0.26421762 0.25600901 -0.04529027
v 0.26626816 0.25772965 -0.04408655
v 0.26913986 0.25773320 -0.04405361
v 0.26460126 0.25256422 -0.04761690
v 0.28127944 0.26215866 -0.04378711
v 0.27958336 0.28181136 -0.06645742
v 0.27655911 0.28010136 -0.06719403
v 0.27812734 0.28318858 -0.06759527
v 0.27367848 0.28298676 -0.06864031
v 0.26559961 0.28610939 -0.06463984
v 0.26643419 0.28550398 -0.06718804
v 0.26730916 0.25324753 -0.04833854
v 0.28166983 0.26186481 -0.04649401
v 0.28703853 0.28332311 -0.06310973
v 0.28535813 0.28039521 -0.06256774
v 0.27812734 0.27853295 -0.06557708
v 0.27513450 0.27707434 -0.06646341
v 0.27210802 0.27548116 -0.06727189
v 0.27364480 0.27853295 -0.06775996
v 0.26460126 0.27845153 -0.06990393
v 0.26913986 0.28618729 -0.06752640
v 0.26479420 0.28309652 -0.06826002
v 0.26730916 0.25324753 -0.05006329
v 0.28393799 0.26329514 -0.04649401
v 0.28079036 0.27588120 -0.06256175
v 0.27061608 0.27245766 -0.06644244
v 0.26759183 0.27094945 -0.06730182
v 0.26454964 0.26941648 -0.06802646
v 0.27367848 0.28710425 -0.06784680
v 0.26501629 0.25218540 -0.05135984
v 0.26680437 0.25354138 -0.05309058
v 0.28126824 0.26204538 -0.04970996
v 0.28620395 0.27512711 -0.05858823
v 0.27919748 0.27285773 -0.06154666
v 0.27617323 0.27143449 -0.06251384
v 0.26602587 0.26792598 -0.06639753
v 0.27191955 0.25766239 -0.05371042
v 0.27994680 0.26301900 -0.05273427
v 0.28628245 0.26615578 -0.05003035
v 0.28451458 0.27210361 -0.05746236
v 0.28149036 0.27075472 -0.05852236
v 0.27152920 0.26700193 -0.06244797
v 0.26569384 0.25442293 -0.05556693
v 0.27692258 0.26179048 -0.05407274
v 0.28475463 0.26734179 -0.05305766
v 0.28647989 0.27036175 -0.05444104
v 0.27975613 0.26773125 -0.05730665
v 0.26722839 0.25771549 -0.05812411
v 0.26682231 0.26261538 -0.06234017
v 0.28172815 0.26604602 -0.05428533
f 1 2 3
f 1 3 4
f 1 4 5
f 1 5 6
f 1 6 7
f 1 7 8
f 1 8 9
f 1 9 10
f 1 10 11
f 1 11 12
f 1 12 13
f 1 13 14
f 1 14 15
f 1 15 16
f 1 16 17
f 1 17 18
f 1 18 19
f 1 19 20
f 1 20 21
f 1 21 22
f 1 22 23
f 1 23 24
f 1 24 25
f 1 25 26
f 1 26 27
f 1 27 28
f 1 28 29
f 1 29 30
f 1 30 31
f 1 31 32
f 1 32 33
f 1 33 34
f 1 34 35
f 1 35 36
f 1 36 37
f 1 37 38
f 1 38 39
f 1 39 40
f 1 40 41
f 1 41 42
f 1 42 43
f 1 43 2
f 2 43 44
f 2 44 3
f 15 14 45
f 15 45 46
f 15 46 47
f 15 47 48
f 15 48 49
f 15 49 50
f 15 50 51
f 15 51 52
f 15 52 53
f 15 53 54
f 15 54 55
f 15 55 56
f 15 56 57
f 15 57 16
f 25 24 58
f 25 58 26
f 43 42 59
f 43 59 60
f 43 60 44
f 44 60 61
f 44 61 3
f 3 61 4
f 16 57 17
f 14 13 45
f 45 62 63
f 45 63 64
f 45 64 65
f 45 65 66
f 45 66 67
f 45 67 68
f 45 68 69
f 45 69 70
f 45 70 71
f 45 71 72
f 45 72 73
f 45 73 74
f 45 74 75
f 45 75 76
f 45 76 77
f 45 77 78
f 45 78 79
f 45 79 80
f 45 80 81
f 45 81 57
f 45 57 56
f 45 56 55
f 45 55 54
f 45 54 53
f 45 53 52
f 45 52 51
f 45 51 50
f 45 50 49
f 45 49 48
f 45 48 47
f 45 47 46
f 45 13 62
f 57 81 82
f 57 82 17
f 24 23 58
f 58 83 79
f 58 79 84
f 58 84 85
f 58 85 26
f 58 23 83
f 26 85 27
f 42 41 59
f 59 86 60
f 59 41 86
f 60 86 87
f 60 87 88
f 60 88 61
f 61 88 89
f 61 89 4
f 4 89 5
f 17 82 18
f 13 12 62
f 62 12 11
f 62 11 90
f 62 90 10
f 62 10 91
f 62 91 63
f 81 80 82
f 82 80 83
f 82 83 23
f 82 23 22
f 82 22 21
f 82 21 20
f 82 20 19
f 82 19 18
f 83 80 79
f 79 78 84
f 84 78 92
f 84 92 85
f 85 92 93
f 85 93 28
f 85 28 27
f 41 94 86
f 41 40 95
f 41 95 94
f 86 95 96
f 86 96 97
f 86 97 98
f 86 98 87
f 86 94 95
f 87 99 88
f 87 98 66
f 87 66 99
f 88 99 65
f 88 65 89
f 89 65 100
f 89 100 64
f 89 64 7
f 89 7 6
f 89 6 5
f 11 10 90
f 10 9 91
f 91 9 101
f 91 101 63
f 63 102 64
f 63 101 102
f 78 77 92
f 92 77 103
f 92 103 93
f 93 104 28
f 93 103 104
f 28 104 29
f 40 39 95
f 95 97 96
f 95 39 105
f 95 105 106
f 95 106 97
f 97 106 107
f 97 107 98
f 98 107 108
f 98 108 66
f 99 66 65
f 66 108 67
f 65 64 100
f 64 109 7
f 64 102 109
f 7 109 8
f 9 8 101
f 101 8 109
f 101 109 102
f 77 76 110
f 77 110 103
f 103 110 111
f 103 111 112
f 103 112 104
f 104 112 29
f 29 112 30
f 39 38 105
f 105 38 113
f 105 113 114
f 105 114 115
f 105 115 116
f 105 116 107
f 105 107 106
f 107 116 67
f 107 67 108
f 67 116 68
f 76 75 111
f 76 111 110
f 111 75 117
f 111 117 112
f 112 117 118
f 112 118 119
f 112 119 30
f 30 119 31
f 38 37 113
f 113 37 36
f 113 36 120
f 113 120 121
f 113 121 122
f 113 122 114
f 114 122 115
f 115 122 116
f 116 122 69
f 116 69 68
f 75 74 123
f 75 123 117
f 117 123 124
f 117 124 118
f 118 124 125
f 118 125 119
f 119 125 31
f 31 125 32
f 36 35 120
f 120 35 126
f 120 126 127
f 120 127 128
f 120 128 72
f 120 72 121
f 121 72 129
f 121 129 122
f 122 129 70
f 122 70 69
f 74 73 128
f 74 128 123
f 123 128 124
f 124 128 125
f 125 128 130
f 125 130 126
f 125 126 32
f 32 126 33
f 35 34 126
f 126 34 33
f 126 130 128
f 126 128 127
f 128 73 72
f 72 71 129
f 129 71 70

