# https://github.com/mikedh/trimesh
v 0.28713724 0.30286410 -0.03204529
v 0.29026142 0.29641482 -0.03204529
v 0.29212448 0.30384350 -0.04408051
v 0.29212448 0.30550560 -0.04676722
v 0.29212448 0.30671257 -0.05019017
v 0.29212448 0.30692795 -0.05102653
v 0.28713724 0.30462781 -0.04241102
v 0.28713724 0.30446121 -0.04625377
v 0.28713724 0.30398980 -0.05045819
v 0.28713724 0.30233583 -0.05503720
v 0.28713724 0.30221391 -0.05536980
v 0.28713724 0.30015355 -0.05915442
v 0.28713724 0.30008039 -0.05925775
v 0.28713724 0.29808098 -0.06152466
v 0.28713724 0.29581338 -0.06344280
v 0.28713724 0.29205436 -0.06503480
v 0.28713724 0.28752318 -0.06477322
v 0.28713724 0.28497517 -0.06373343
v 0.28713724 0.28339025 -0.06308436
v 0.28713724 0.28323585 -0.06300364
v 0.28713724 0.27860713 -0.06032016
v 0.28713724 0.27839988 -0.06019100
v 0.28713724 0.27796912 -0.05990037
v 0.28713724 0.27416131 -0.05713617
v 0.28713724 0.27313316 -0.05632887
v 0.28713724 0.27182055 -0.05519219
v 0.28713724 0.26966265 -0.05313843
v 0.28713724 0.26848415 -0.05197914
v 0.28713724 0.26758197 -0.05088121
v 0.28713724 0.26587111 -0.04779733
v 0.28713724 0.26541188 -0.04658638
v 0.28713724 0.26595643 -0.04295030
v 0.28713724 0.26603365 -0.04276300
v 0.28713724 0.26756167 -0.04057037
v 0.28713724 0.27564055 -0.03204529
v 0.28769773 0.27596158 -0.03204529
v 0.29101133 0.27817637 -0.03204529
v 0.29159328 0.27863154 -0.03204529
v 0.29212448 0.27967998 -0.03204529
v 0.29212448 0.29099774 -0.03204529
v 0.29199171 0.29206246 -0.03204529
v 0.29043719 0.29599625 -0.03204529
v 0.29212448 0.29206246 -0.03292686
v 0.29212448 0.27846491 -0.03241664
v 0.29212448 0.27554709 -0.03452208
v 0.29212448 0.27326322 -0.03651450
v 0.29212448 0.27072737 -0.03877494
v 0.29212448 0.26886207 -0.04171674
v 0.29212448 0.26872391 -0.04207841
v 0.29212448 0.26870358 -0.04609876
v 0.29212448 0.26878488 -0.04658638
v 0.29212448 0.27066642 -0.04959922
v 0.29212448 0.27076802 -0.04976067
v 0.29212448 0.27282432 -0.05204373
v 0.29212448 0.27508786 -0.05425573
v 0.29212448 0.27817637 -0.05674544
v 0.29212448 0.27820888 -0.05677128
v 0.29212448 0.28268722 -0.05968402
v 0.29212448 0.28313830 -0.05995527
v 0.29212448 0.28426805 -0.06056235
v 0.29212448 0.28752318 -0.06226091
v 0.29212448 0.29126191 -0.06350415
v 0.29212448 0.29165202 -0.06359781
v 0.29212448 0.29684967 -0.06326197
v 0.29212448 0.29748362 -0.06313280
v 0.29212448 0.30066559 -0.06119528
v 0.29212448 0.30265686 -0.05979058
v 0.29212448 0.30526584 -0.05653554
v 0.29212448 0.30612332 -0.05527293
v 0.29182717 0.27067861 -0.03872650
v 0.28728956 0.26608244 -0.04277914
v 0.29004124 0.26685047 -0.04369947
v 0.29004124 0.26685047 -0.04515907
v 0.28728956 0.29582962 -0.06344926
v 0.28930986 0.26733002 -0.04818160
v 0.28728956 0.29206246 -0.06500897
v 0.28728956 0.28752318 -0.06470542
v 0.29079214 0.28752318 -0.06296488
v 0.28950563 0.27169457 -0.05324822
v 0.28972825 0.28506455 -0.06247081
v 0.28923124 0.27650207 -0.05759795
v 0.29211229 0.27818856 -0.05676482
v 0.28838515 0.28204107 -0.06165383
v 0.29078966 0.27952558 -0.05862806
f 1 2 3
f 1 3 4
f 1 4 5
f 1 5 6
f 1 6 7
f 1 7 8
f 1 8 9
f 1 9 10
f 1 10 11
f 1 11 12
f 1 12 13
f 1 13 14
f 1 14 15
f 1 15 16
f 1 16 17
f 1 17 18
f 1 18 19
f 1 19 20
f 1 20 21
f 1 21 22
f 1 22 23
f 1 23 24
f 1 24 25
f 1 25 26
f 1 26 27
f 1 27 28
f 1 28 29
f 1 29 30
f 1 30 31
f 1 31 32
f 1 32 33
f 1 33 34
f 1 34 35
f 1 35 36
f 1 36 37
f 1 37 38
f 1 38 39
f 1 39 40
f 1 40 41
f 1 41 42
f 1 42 2
f 2 42 3
f 3 42 41
f 3 41 43
f 3 43 40
f 3 40 39
f 3 39 44
f 3 44 45
f 3 45 46
f 3 46 47
f 3 47 48
f 3 48 49
f 3 49 50
f 3 50 51
f 3 51 52
f 3 52 53
f 3 53 54
f 3 54 55
f 3 55 56
f 3 56 57
f 3 57 58
f 3 58 59
f 3 59 60
f 3 60 61
f 3 61 62
f 3 62 63
f 3 63 64
f 3 64 65
f 3 65 66
f 3 66 67
f 3 67 68
f 3 68 69
f 3 69 6
f 3 6 5
f 3 5 4
f 6 69 9
f 6 9 8
f 6 8 7
f 35 34 70
f 35 70 47
f 35 47 46
f 35 46 45
f 35 45 36
f 41 40 43
f 69 68 12
f 69 12 11
f 69 11 10
f 69 10 9
f 34 33 47
f 34 47 70
f 47 33 71
f 47 71 48
f 45 44 37
f 45 37 36
f 68 67 13
f 68 13 12
f 33 32 71
f 71 32 72
f 71 72 48
f 48 72 49
f 44 39 38
f 44 38 37
f 67 66 15
f 67 15 14
f 67 14 13
f 32 31 72
f 72 31 73
f 72 73 50
f 72 50 49
f 66 65 15
f 15 65 74
f 15 74 16
f 31 30 75
f 31 75 73
f 73 75 51
f 73 51 50
f 65 64 76
f 65 76 16
f 65 16 74
f 16 76 17
f 30 29 75
f 75 29 53
f 75 53 52
f 75 52 51
f 64 63 76
f 76 63 17
f 17 63 62
f 17 62 77
f 17 77 18
f 29 28 53
f 53 28 54
f 62 61 78
f 62 78 77
f 77 78 19
f 77 19 18
f 28 27 79
f 28 79 54
f 54 79 55
f 61 60 80
f 61 80 78
f 78 80 19
f 19 80 20
f 27 26 79
f 79 26 55
f 55 81 82
f 55 82 56
f 55 26 25
f 55 25 81
f 60 59 80
f 80 59 83
f 80 83 20
f 20 83 21
f 81 23 22
f 81 22 84
f 81 84 57
f 81 57 82
f 81 25 24
f 81 24 23
f 82 57 56
f 59 58 84
f 59 84 83
f 83 84 21
f 21 84 22
f 84 58 57

