# https://github.com/mikedh/trimesh
v 0.15576304 0.22181939 -0.09186976
v 0.15576304 0.22179960 -0.08943362
v 0.15576304 0.22166111 -0.08733264
v 0.15576304 0.22127531 -0.08644223
v 0.15576304 0.21889135 -0.08334579
v 0.15576304 0.21652715 -0.08106472
v 0.15576304 0.21457843 -0.07947899
v 0.15576304 0.21447951 -0.07939895
v 0.15576304 0.21121514 -0.07681774
v 0.15576304 0.21102719 -0.07667268
v 0.15576304 0.20912792 -0.07526703
v 0.15576304 0.20653622 -0.07349120
v 0.15576304 0.20626913 -0.07331111
v 0.15576304 0.20348947 -0.07150027
v 0.15576304 0.20134290 -0.07039476
v 0.15576304 0.20128354 -0.07036474
v 0.15576304 0.19683214 -0.06862393
v 0.15576304 0.19676289 -0.06860393
v 0.15576304 0.19232138 -0.06798363
v 0.15576304 0.19223236 -0.06799363
v 0.15576304 0.18803813 -0.06980948
v 0.15576304 0.18778093 -0.07000957
v 0.15576304 0.18603994 -0.07307600
v 0.15576304 0.18587178 -0.07372130
v 0.15576304 0.18732589 -0.07835346
v 0.15576304 0.18744460 -0.07851354
v 0.15576304 0.18762265 -0.07869863
v 0.15576304 0.19183667 -0.08283555
v 0.15576304 0.19208397 -0.08304565
v 0.15576304 0.19220266 -0.08314069
v 0.15576304 0.19664419 -0.08656728
v 0.15576304 0.19669364 -0.08660231
v 0.15576304 0.20013608 -0.08883834
v 0.15576304 0.20248048 -0.09021398
v 0.15576304 0.20624934 -0.09217989
v 0.15576304 0.20761445 -0.09279019
v 0.15576304 0.21038420 -0.09397574
v 0.15576304 0.21402447 -0.09505124
v 0.15576304 0.21470702 -0.09519630
v 0.15576304 0.21948488 -0.09488116
v 0.15114805 0.21809009 -0.09503622
v 0.14805099 0.21747680 -0.09453601
v 0.13890669 0.21320343 -0.09498620
v 0.15450220 0.22119619 -0.09186976
v 0.13890669 0.21320343 -0.09289023
v 0.15114805 0.21491475 -0.09630182
v 0.14097548 0.20875202 -0.09891804
v 0.12220945 0.19925568 -0.10336011
v 0.12107100 0.19925568 -0.10336011
v 0.13437738 0.20847505 -0.09898806
v 0.12491480 0.20424126 -0.09944829
v 0.09859585 0.19015501 -0.10350518
v 0.09859585 0.19015501 -0.10266979
v 0.15456340 0.22093901 -0.08733264
v 0.13049686 0.20827721 -0.09386068
v 0.14661875 0.21038420 -0.09755240
v 0.14297082 0.20584378 -0.09812767
v 0.14070617 0.20584378 -0.09886802
v 0.12220945 0.19809832 -0.10336011
v 0.07760190 0.17258678 -0.11282451
v 0.07402742 0.17247798 -0.11276949
v 0.07139552 0.17192401 -0.11239431
v 0.08486103 0.18116318 -0.10811732
v 0.05305795 0.16309044 -0.11279450
v 0.05305795 0.16309044 -0.11161395
v 0.13997169 0.21252088 -0.08986381
v 0.15262926 0.21776366 -0.08445130
v 0.06216553 0.16761109 -0.10733195
v 0.15444098 0.21038420 -0.09458603
v 0.15351065 0.20802991 -0.09417583
v 0.13983703 0.20353892 -0.09868792
v 0.05761173 0.15466243 -0.11667130
v 0.05834622 0.15768941 -0.11689641
v 0.05834622 0.15889622 -0.11689641
v 0.05587346 0.15919299 -0.11719155
v 0.04693727 0.15625505 -0.11801693
v 0.04855313 0.15830271 -0.11691643
v 0.06209208 0.16761109 -0.11267945
v 0.04226105 0.15474157 -0.11768678
v 0.03984951 0.15381172 -0.11693643
v 0.04538260 0.15796638 -0.11455531
v 0.04226105 0.15602754 -0.11455531
v 0.13489151 0.20836623 -0.08929355
v 0.14469685 0.21234283 -0.08537672
v 0.14772047 0.21356945 -0.08422620
v 0.15472254 0.21609190 -0.08142490
v 0.03918848 0.14980546 -0.10705683
v 0.03965365 0.15396011 -0.11186907
v 0.04112262 0.15283242 -0.10884766
v 0.14909150 0.20336087 -0.09424087
v 0.14633720 0.20162977 -0.09481613
v 0.06259397 0.14921194 -0.11224924
v 0.13855168 0.20051198 -0.09810766
v 0.06081898 0.15099250 -0.11385000
v 0.05600812 0.15143764 -0.11601600
v 0.05457588 0.15297090 -0.11709150
v 0.04679036 0.15139808 -0.11908244
v 0.05133191 0.15593851 -0.11804694
v 0.04226105 0.15139808 -0.11870725
v 0.03522228 0.14931086 -0.11696643
v 0.03491624 0.14956804 -0.11455531
v 0.03962916 0.15399967 -0.11455531
v 0.04900606 0.15371281 -0.10317001
v 0.13983703 0.20808926 -0.08508659
v 0.14989944 0.21179877 -0.08119979
v 0.03616485 0.14847003 -0.10864256
v 0.03459795 0.14544307 -0.10695679
v 0.03778071 0.14679828 -0.10549109
v 0.04111036 0.14815348 -0.10403042
v 0.03496519 0.14953837 -0.11166897
v 0.14463565 0.19873141 -0.09429588
v 0.06821276 0.14814359 -0.10837745
v 0.06505449 0.14671916 -0.10934789
v 0.04538260 0.13480915 -0.11282951
v 0.14314219 0.19570445 -0.09346549
v 0.15338823 0.19906773 -0.08958369
v 0.04658226 0.14699613 -0.11758173
v 0.05127070 0.15143764 -0.11764176
v 0.04492968 0.14425603 -0.11697644
v 0.04226105 0.14105101 -0.11639617
v 0.04226105 0.14331628 -0.11717153
v 0.04226105 0.14685763 -0.11819202
v 0.03472036 0.14353392 -0.11717153
v 0.03771950 0.14685763 -0.11779683
v 0.03473262 0.14685763 -0.11719155
v 0.03077865 0.14485945 -0.11268444
v 0.03077865 0.14485945 -0.11192410
v 0.04413399 0.14944935 -0.10294992
v 0.14809996 0.20877181 -0.08000422
v 0.03326365 0.14665979 -0.11028333
v 0.03157433 0.14326683 -0.10889768
v 0.03319021 0.14197098 -0.10575622
v 0.03481830 0.14067511 -0.10278984
v 0.03637297 0.14370207 -0.10393037
v 0.03939658 0.14512652 -0.10281986
v 0.06664587 0.14511664 -0.10736697
v 0.14573736 0.19317208 -0.09043910
v 0.14414600 0.19014513 -0.08947864
v 0.06362225 0.14381090 -0.10830741
v 0.05414743 0.13502677 -0.10808731
v 0.04907950 0.13097104 -0.10776215
v 0.04679036 0.13037752 -0.10837244
v 0.04226105 0.13201959 -0.11133382
v 0.04226105 0.13428487 -0.11318468
v 0.04226105 0.13778666 -0.11502554
v 0.05211537 0.13199982 -0.10690176
v 0.03771950 0.14050695 -0.11667130
v 0.03771950 0.14277223 -0.11731660
v 0.03498968 0.13523450 -0.11255439
v 0.03336158 0.13805375 -0.11337977
v 0.03077865 0.13973537 -0.11249936
v 0.03070521 0.14232709 -0.11274447
v 0.03071745 0.14198086 -0.11025332
v 0.03085210 0.14024976 -0.10757707
v 0.15342495 0.20810904 -0.07599237
v 0.03410830 0.13778666 -0.10176937
v 0.03547933 0.13545212 -0.09868792
v 0.04485623 0.14427581 -0.09886802
v 0.10873170 0.17565331 -0.08089464
v 0.13945754 0.18573329 -0.08938359
v 0.05442899 0.13021924 -0.10387535
v 0.14167324 0.18343835 -0.08601204
v 0.13988599 0.18082684 -0.08512162
v 0.04938554 0.12624265 -0.10339513
v 0.05074433 0.12908167 -0.10514593
v 0.04943449 0.12157363 -0.09902808
v 0.04679036 0.12568870 -0.10393037
v 0.04679036 0.12342343 -0.10163431
v 0.04226105 0.12514465 -0.10432556
v 0.03771950 0.13460141 -0.11297459
v 0.03771950 0.13778666 -0.11509056
v 0.05240915 0.12720218 -0.10250971
v 0.03549159 0.13100071 -0.10770713
v 0.03336158 0.13439368 -0.10966804
v 0.03195383 0.13671830 -0.11094864
v 0.03867434 0.12552053 -0.10392537
v 0.03085210 0.13542245 -0.10792223
v 0.03076641 0.13805375 -0.10966804
v 0.03082762 0.13778666 -0.10745202
v 0.03184364 0.13778666 -0.10518096
v 0.14868754 0.20375656 -0.07586230
v 0.15114805 0.20483477 -0.07510195
v 0.03516107 0.13243507 -0.09828774
v 0.03729106 0.13366167 -0.09719724
v 0.04319140 0.13226689 -0.09344549
v 0.10422688 0.17092492 -0.08089964
v 0.10726274 0.17262636 -0.08017931
v 0.15266599 0.19976017 -0.07107008
v 0.15423287 0.20278713 -0.07191046
v 0.15423287 0.19383484 -0.08554681
v 0.14943427 0.18949226 -0.08544677
v 0.14466013 0.18513976 -0.08529670
v 0.15447770 0.18908669 -0.08133484
v 0.14964236 0.18484300 -0.08112976
v 0.13498944 0.17657328 -0.08481147
v 0.05441675 0.12581730 -0.09948330
v 0.05822381 0.12638114 -0.09427088
v 0.04977726 0.12138568 -0.09640187
v 0.04679036 0.12077236 -0.09640187
v 0.04679036 0.12139558 -0.09936325
v 0.15266599 0.18605971 -0.07978413
v 0.15423287 0.18492214 -0.07675771
v 0.04366883 0.12155383 -0.09924319
v 0.03806227 0.12488744 -0.10094399
v 0.03579762 0.12701423 -0.10094399
v 0.03085210 0.13542245 -0.10752204
v 0.03516107 0.12999174 -0.09828774
v 0.04289760 0.12871566 -0.09310033
v 0.04679036 0.12871566 -0.09139453
v 0.11250205 0.16737369 -0.07595735
v 0.11071480 0.16915424 -0.07736300
v 0.10575705 0.16947079 -0.07964907
v 0.12109549 0.17694916 -0.07573224
v 0.14372978 0.19061005 -0.07119513
v 0.14514978 0.19363701 -0.07183543
v 0.14817341 0.19519995 -0.07113009
v 0.15116030 0.19673322 -0.07047480
v 0.15572633 0.20128354 -0.07037976
v 0.06425880 0.12985323 -0.09186976
v 0.04964261 0.12153406 -0.09358055
v 0.04679036 0.12128674 -0.09339547
v 0.04386467 0.12144502 -0.09369561
v 0.04338726 0.12129664 -0.09640187
v 0.08912102 0.14506717 -0.08733264
v 0.03873555 0.12529303 -0.09774250
v 0.03484278 0.12927951 -0.10094399
v 0.04062072 0.12871566 -0.09464604
v 0.04339950 0.12417523 -0.09329042
v 0.04679036 0.12417523 -0.09200482
v 0.05327830 0.12628222 -0.08951367
v 0.05327830 0.12718239 -0.08951367
v 0.11250205 0.16718574 -0.07595735
v 0.14207719 0.18315147 -0.07034973
v 0.14661875 0.18769191 -0.06955937
v 0.13858841 0.18315147 -0.07108008
v 0.15114805 0.19223236 -0.06890406
v 0.14216289 0.18745451 -0.07082997
v 0.11950411 0.17381340 -0.07530705
v 0.15568960 0.19676289 -0.06862893
v 0.15422064 0.18494193 -0.07372130
v 0.08658706 0.14387025 -0.08438127
v 0.06378140 0.13013022 -0.08879332
v 0.06001105 0.12747917 -0.09196981
v 0.05445347 0.12628222 -0.08951367
v 0.14207719 0.18021354 -0.07093500
v 0.11485239 0.16685931 -0.07574725
v 0.13845375 0.18032235 -0.07108008
v 0.15568960 0.19223236 -0.06799363
v 0.15368202 0.18528815 -0.07124015
v 0.14578633 0.18011461 -0.07372130
v 0.14485599 0.18055975 -0.07113510
v 0.15114805 0.18769191 -0.06909916
f 1 2 3
f 1 3 4
f 1 4 5
f 1 5 6
f 1 6 7
f 1 7 8
f 1 8 9
f 1 9 10
f 1 10 11
f 1 11 12
f 1 12 13
f 1 13 14
f 1 14 15
f 1 15 16
f 1 16 17
f 1 17 18
f 1 18 19
f 1 19 20
f 1 20 21
f 1 21 22
f 1 22 23
f 1 23 24
f 1 24 25
f 1 25 26
f 1 26 27
f 1 27 28
f 1 28 29
f 1 29 30
f 1 30 31
f 1 31 32
f 1 32 33
f 1 33 34
f 1 34 35
f 1 35 36
f 1 36 37
f 1 37 38
f 1 38 39
f 1 39 40
f 1 40 41
f 1 41 42
f 1 42 43
f 1 43 44
f 1 44 2
f 2 44 45
f 2 45 3
f 40 39 46
f 40 46 47
f 40 47 48
f 40 48 49
f 40 49 41
f 41 49 50
f 41 50 42
f 42 50 51
f 42 51 43
f 43 45 44
f 43 51 52
f 43 52 53
f 43 53 45
f 3 54 4
f 3 45 54
f 45 53 55
f 45 55 54
f 39 56 46
f 39 38 57
f 39 57 58
f 39 58 56
f 46 56 47
f 47 56 59
f 47 59 48
f 48 59 60
f 48 60 49
f 49 60 61
f 49 61 62
f 49 62 63
f 49 63 50
f 50 63 51
f 51 63 52
f 52 63 64
f 52 64 65
f 52 65 53
f 54 55 66
f 54 66 4
f 4 67 5
f 4 66 67
f 53 65 55
f 55 65 68
f 55 68 66
f 56 58 59
f 38 37 69
f 38 69 57
f 57 69 70
f 57 70 71
f 57 71 72
f 57 72 58
f 58 72 73
f 58 73 59
f 59 73 60
f 60 73 74
f 60 74 75
f 60 75 61
f 61 75 76
f 61 76 77
f 61 77 62
f 62 77 78
f 62 78 63
f 63 78 64
f 64 78 79
f 64 79 80
f 64 80 81
f 64 81 82
f 64 82 65
f 66 83 67
f 66 68 83
f 67 84 85
f 67 85 86
f 67 86 6
f 67 6 5
f 67 83 87
f 67 87 84
f 65 82 88
f 65 88 68
f 68 88 89
f 68 89 83
f 37 36 70
f 37 70 69
f 70 36 35
f 70 35 90
f 70 90 91
f 70 91 92
f 70 92 93
f 70 93 71
f 71 93 94
f 71 94 72
f 72 94 95
f 72 95 96
f 72 96 97
f 72 97 73
f 73 97 74
f 74 97 75
f 75 97 98
f 75 98 76
f 76 98 97
f 76 97 99
f 76 99 79
f 76 79 77
f 77 79 78
f 79 99 100
f 79 100 80
f 80 100 101
f 80 101 102
f 80 102 82
f 80 82 81
f 82 102 88
f 83 89 87
f 84 87 103
f 84 103 85
f 85 103 104
f 85 104 86
f 86 104 6
f 6 104 105
f 6 105 7
f 87 89 88
f 87 88 106
f 87 106 107
f 87 107 108
f 87 108 109
f 87 109 103
f 88 102 101
f 88 101 110
f 88 110 106
f 35 34 111
f 35 111 90
f 90 111 91
f 91 111 92
f 92 112 113
f 92 113 114
f 92 114 94
f 92 94 93
f 92 111 115
f 92 115 116
f 92 116 112
f 94 114 95
f 95 114 117
f 95 117 96
f 96 117 118
f 96 118 97
f 97 117 119
f 97 119 120
f 97 120 121
f 97 121 122
f 97 122 99
f 97 118 117
f 99 122 123
f 99 123 124
f 99 124 125
f 99 125 100
f 100 125 126
f 100 126 101
f 101 126 127
f 101 127 110
f 103 109 128
f 103 128 104
f 104 128 105
f 7 105 8
f 105 129 8
f 105 128 129
f 106 110 130
f 106 130 107
f 107 130 131
f 107 131 132
f 107 132 133
f 107 133 134
f 107 134 108
f 108 134 109
f 109 134 135
f 109 135 128
f 110 127 130
f 34 33 116
f 34 116 115
f 34 115 111
f 112 136 113
f 112 116 33
f 112 33 137
f 112 137 138
f 112 138 136
f 113 139 140
f 113 140 114
f 113 136 139
f 114 141 142
f 114 142 143
f 114 143 144
f 114 144 145
f 114 145 119
f 114 119 117
f 114 140 146
f 114 146 141
f 119 145 120
f 120 145 147
f 120 147 121
f 121 147 122
f 122 147 148
f 122 148 123
f 123 149 150
f 123 150 151
f 123 151 152
f 123 152 125
f 123 125 124
f 123 148 147
f 123 147 149
f 125 152 126
f 126 152 127
f 127 152 153
f 127 153 154
f 127 154 131
f 127 131 130
f 128 135 155
f 128 155 10
f 128 10 9
f 128 9 129
f 8 129 9
f 131 154 132
f 132 154 133
f 133 154 156
f 133 156 157
f 133 157 135
f 133 135 134
f 135 157 158
f 135 158 159
f 135 159 155
f 33 32 138
f 33 138 137
f 136 140 139
f 136 138 160
f 136 160 140
f 138 32 31
f 138 31 160
f 140 161 146
f 140 160 162
f 140 162 163
f 140 163 161
f 141 164 142
f 141 146 165
f 141 165 164
f 142 164 166
f 142 166 167
f 142 167 143
f 143 167 168
f 143 168 169
f 143 169 170
f 143 170 144
f 144 170 171
f 144 171 147
f 144 147 145
f 146 161 172
f 146 172 165
f 147 171 149
f 149 173 174
f 149 174 175
f 149 175 151
f 149 151 150
f 149 171 170
f 149 170 176
f 149 176 173
f 151 175 177
f 151 177 178
f 151 178 152
f 152 178 153
f 153 178 179
f 153 179 154
f 154 180 157
f 154 157 156
f 154 179 180
f 155 159 181
f 155 181 182
f 155 182 11
f 155 11 10
f 157 180 183
f 157 183 184
f 157 184 185
f 157 185 186
f 157 186 159
f 157 159 158
f 159 186 187
f 159 187 188
f 159 188 189
f 159 189 13
f 159 13 182
f 159 182 181
f 160 31 190
f 160 190 191
f 160 191 192
f 160 192 162
f 31 30 190
f 161 163 172
f 162 192 163
f 163 192 28
f 163 28 193
f 163 193 194
f 163 194 195
f 163 195 196
f 163 196 172
f 164 165 172
f 164 172 166
f 166 197 198
f 166 198 199
f 166 199 200
f 166 200 168
f 166 168 167
f 166 172 196
f 166 196 201
f 166 201 26
f 166 26 202
f 166 202 197
f 168 200 169
f 169 200 203
f 169 203 176
f 169 176 170
f 173 177 174
f 173 176 177
f 174 177 175
f 176 204 205
f 176 205 177
f 176 203 204
f 177 206 178
f 177 205 206
f 178 206 179
f 179 206 180
f 180 206 207
f 180 207 183
f 182 13 12
f 182 12 11
f 183 207 208
f 183 208 185
f 183 185 184
f 185 208 209
f 185 209 210
f 185 210 211
f 185 211 212
f 185 212 187
f 185 187 186
f 187 212 213
f 187 213 214
f 187 214 215
f 187 215 188
f 188 215 216
f 188 216 217
f 188 217 218
f 188 218 14
f 188 14 189
f 189 14 13
f 190 30 29
f 190 29 191
f 191 29 192
f 192 29 28
f 28 27 193
f 193 27 201
f 193 201 194
f 194 201 196
f 194 196 195
f 197 219 198
f 197 202 219
f 198 219 220
f 198 220 199
f 199 220 221
f 199 221 222
f 199 222 223
f 199 223 203
f 199 203 200
f 201 27 26
f 26 25 202
f 202 25 24
f 202 24 224
f 202 224 219
f 203 223 204
f 204 223 222
f 204 222 205
f 205 222 225
f 205 225 207
f 205 207 226
f 205 226 206
f 206 226 207
f 207 227 208
f 207 225 222
f 207 222 228
f 207 228 227
f 208 228 209
f 208 227 228
f 209 228 229
f 209 229 230
f 209 230 231
f 209 231 210
f 210 232 233
f 210 233 234
f 210 234 235
f 210 235 236
f 210 236 237
f 210 237 214
f 210 214 238
f 210 238 213
f 210 213 211
f 210 231 230
f 210 230 232
f 211 213 212
f 213 238 214
f 214 237 236
f 214 236 239
f 214 239 17
f 214 17 217
f 214 217 216
f 214 216 215
f 217 17 218
f 218 17 16
f 218 16 15
f 218 15 14
f 219 224 24
f 219 24 240
f 219 240 241
f 219 241 242
f 219 242 243
f 219 243 220
f 220 243 242
f 220 242 244
f 220 244 221
f 221 244 230
f 221 230 222
f 222 230 229
f 222 229 228
f 24 23 240
f 230 244 245
f 230 245 246
f 230 246 232
f 232 246 247
f 232 247 233
f 233 247 245
f 233 245 248
f 233 248 234
f 234 248 19
f 234 19 236
f 234 236 235
f 236 19 18
f 236 18 239
f 239 18 17
f 240 23 249
f 240 249 250
f 240 250 241
f 241 250 249
f 241 249 251
f 241 251 242
f 242 251 244
f 244 251 245
f 23 22 249
f 245 251 252
f 245 252 248
f 245 247 246
f 248 20 19
f 248 252 20
f 249 22 251
f 251 22 21
f 251 21 252
f 252 21 20

