# https://github.com/mikedh/trimesh
v 0.20360077 0.50178108 0.30997035
v 0.20178791 0.50235863 0.30971978
v 0.19997254 0.50252185 0.30988285
v 0.18000849 0.50613157 0.30986296
v 0.18908282 0.50440727 0.30995444
v 0.17819311 0.50634710 0.30997035
v 0.20360077 0.49122189 0.30997035
v 0.20360077 0.50310359 0.30864984
v 0.20178791 0.50599136 0.30609234
v 0.19452643 0.50482788 0.30855836
v 0.17794956 0.50701045 0.30935385
v 0.18720719 0.51093405 0.30377348
v 0.17877815 0.51259975 0.30362234
v 0.17794956 0.50799815 0.30836744
v 0.17796964 0.50638686 0.30997035
v 0.17794956 0.49122189 0.30997035
v 0.20360077 0.49122189 0.29710329
v 0.20360077 0.50491996 0.30683612
v 0.20360077 0.50945878 0.30230182
v 0.20178791 0.51259975 0.29948976
v 0.19647487 0.51259975 0.30044435
v 0.19271106 0.51259975 0.30112052
v 0.17794956 0.50638895 0.30997035
v 0.17817805 0.51259975 0.30372973
v 0.17794956 0.51176481 0.30460477
v 0.17794956 0.49122189 0.30356665
v 0.20360077 0.49138302 0.29694419
v 0.19758218 0.49122189 0.28007978
v 0.19787344 0.49645963 0.27477784
v 0.19794625 0.49825926 0.27297207
v 0.20360077 0.51259975 0.29916361
v 0.17794956 0.51259975 0.30376950
v 0.17794956 0.50087708 0.29343210
v 0.18032988 0.49642615 0.27292832
v 0.18083708 0.49148137 0.27655974
v 0.18086470 0.49122189 0.27677054
v 0.20360077 0.49235188 0.29603733
v 0.19852376 0.49824042 0.27474602
v 0.19752945 0.49122189 0.27993659
v 0.19741143 0.49169272 0.27908542
v 0.19763741 0.49708741 0.27360847
v 0.19753949 0.49887866 0.27173508
v 0.20360077 0.51259975 0.27819447
v 0.17794956 0.51259975 0.28179407
v 0.17794956 0.50161158 0.29266445
v 0.17794956 0.50625084 0.28797503
v 0.17794956 0.51257046 0.28182191
v 0.18053577 0.49643243 0.27111858
v 0.18088227 0.49182455 0.27558924
v 0.17794956 0.50264322 0.29158656
v 0.17794956 0.50341330 0.29081096
v 0.17794956 0.50443657 0.28978477
v 0.18131666 0.49122189 0.27614608
v 0.20360077 0.49611854 0.29253319
v 0.20360077 0.50016351 0.28886200
v 0.20360077 0.49891424 0.28995978
v 0.20360077 0.49800605 0.29079107
v 0.19634180 0.49122189 0.27912122
v 0.19634180 0.49765868 0.27236352
v 0.19373048 0.49905235 0.27014410
v 0.19753949 0.49969896 0.27173508
v 0.19373048 0.49928672 0.27014410
v 0.19271106 0.49939553 0.27007251
v 0.18533156 0.50009655 0.26969863
v 0.18464358 0.50100891 0.27015206
v 0.18412885 0.50100891 0.27015206
v 0.19634180 0.51259975 0.27836152
v 0.18374971 0.51259975 0.28013945
v 0.18291860 0.50093567 0.27023558
v 0.18182134 0.49968012 0.26974636
v 0.18081950 0.49928044 0.27005262
v 0.18070651 0.49824042 0.26990148
v 0.18039014 0.49824042 0.27111460
v 0.18073162 0.49704346 0.26995318
v 0.18072911 0.49524802 0.27172713
v 0.18175355 0.49122189 0.27601880
v 0.19452392 0.49122189 0.27864392
v 0.19499345 0.49743059 0.27209703
v 0.18363672 0.49439425 0.27272945
v 0.18363672 0.49530243 0.27181066
v 0.18363672 0.49621689 0.27089982
v 0.18363672 0.49712507 0.27002876
v 0.18182134 0.49694720 0.26987364
v 0.19271106 0.49895190 0.27007251
v 0.18363672 0.49824042 0.26934463
v 0.18363672 0.49122189 0.27595914
v 0.18356892 0.50022001 0.26962704
v 0.19455907 0.51259975 0.27850471
v 0.18545209 0.51259975 0.27972579
v 0.18726746 0.51259975 0.27940759
v 0.19271106 0.51259975 0.27872745
v 0.18182134 0.49824042 0.26941225
v 0.18182134 0.49604111 0.27072083
v 0.18182134 0.49514130 0.27162769
v 0.18182134 0.49423312 0.27263001
v 0.18182134 0.49169690 0.27545798
v 0.18280059 0.49122189 0.27593528
v 0.19264578 0.49122189 0.27816663
f 1 2 3
f 1 3 4
f 1 4 5
f 1 5 6
f 1 6 15
f 1 15 23
f 1 23 16
f 1 16 7
f 1 7 17
f 1 17 27
f 1 27 37
f 1 37 54
f 1 54 57
f 1 57 56
f 1 56 55
f 1 55 43
f 1 43 31
f 1 31 19
f 1 19 18
f 1 18 8
f 1 8 2
f 2 8 18
f 2 18 9
f 2 9 10
f 2 10 3
f 3 10 4
f 4 11 6
f 4 6 5
f 4 10 12
f 4 12 13
f 4 13 14
f 4 14 11
f 6 11 15
f 7 16 26
f 7 26 36
f 7 36 53
f 7 53 76
f 7 76 97
f 7 97 86
f 7 86 98
f 7 98 77
f 7 77 58
f 7 58 39
f 7 39 28
f 7 28 17
f 9 12 10
f 9 18 19
f 9 19 20
f 9 20 21
f 9 21 22
f 9 22 12
f 11 23 15
f 11 14 25
f 11 25 32
f 11 32 44
f 11 44 47
f 11 47 46
f 11 46 52
f 11 52 51
f 11 51 50
f 11 50 45
f 11 45 33
f 11 33 26
f 11 26 16
f 11 16 23
f 12 22 13
f 13 24 25
f 13 25 14
f 13 22 21
f 13 21 20
f 13 20 31
f 13 31 43
f 13 43 67
f 13 67 88
f 13 88 91
f 13 91 90
f 13 90 89
f 13 89 68
f 13 68 44
f 13 44 32
f 13 32 24
f 17 28 29
f 17 29 30
f 17 30 27
f 19 31 20
f 24 32 25
f 26 33 34
f 26 34 35
f 26 35 36
f 27 30 38
f 27 38 37
f 28 39 29
f 29 39 40
f 29 40 41
f 29 41 30
f 30 41 42
f 30 42 43
f 30 43 38
f 33 45 34
f 34 46 47
f 34 47 44
f 34 44 48
f 34 48 49
f 34 49 35
f 34 45 50
f 34 50 51
f 34 51 52
f 34 52 46
f 35 49 36
f 36 49 53
f 37 38 54
f 38 43 55
f 38 55 56
f 38 56 57
f 38 57 54
f 39 58 40
f 40 58 59
f 40 59 41
f 41 59 42
f 42 59 60
f 42 60 62
f 42 62 61
f 42 61 43
f 43 61 62
f 43 62 63
f 43 63 64
f 43 64 65
f 43 65 66
f 43 66 67
f 44 68 69
f 44 69 70
f 44 70 71
f 44 71 72
f 44 72 73
f 44 73 48
f 48 73 74
f 48 74 75
f 48 75 49
f 49 75 53
f 53 75 76
f 58 77 78
f 58 78 59
f 59 78 60
f 60 79 80
f 60 80 81
f 60 81 82
f 60 82 83
f 60 83 84
f 60 84 85
f 60 85 62
f 60 78 86
f 60 86 79
f 62 85 63
f 63 85 64
f 64 85 87
f 64 87 65
f 65 87 66
f 66 87 69
f 66 69 88
f 66 88 67
f 68 89 69
f 69 87 70
f 69 89 90
f 69 90 91
f 69 91 88
f 70 87 92
f 70 92 71
f 71 92 72
f 72 74 73
f 72 92 74
f 74 92 83
f 74 83 93
f 74 93 75
f 75 93 94
f 75 94 95
f 75 95 96
f 75 96 76
f 76 96 97
f 77 98 78
f 78 98 86
f 79 94 80
f 79 86 94
f 80 94 93
f 80 93 81
f 81 93 82
f 82 93 83
f 83 92 85
f 83 85 84
f 85 92 87
f 86 97 94
f 94 97 95
f 95 97 96

