# https://github.com/mikedh/trimesh
v 0.20359837 0.49122014 0.30301516
v 0.17905513 0.49122014 0.30301516
v 0.20359837 0.48641708 0.30301516
v 0.20359837 0.49122014 0.29710103
v 0.18009067 0.47645900 0.29470727
v 0.18075621 0.47526130 0.29581004
v 0.18237802 0.48482715 0.30301516
v 0.18081868 0.49122014 0.27729094
v 0.17993931 0.47645900 0.29289142
v 0.20359837 0.48695464 0.30206879
v 0.19916545 0.48293954 0.30301516
v 0.19757488 0.47701933 0.29779026
v 0.19749560 0.47534010 0.29593994
v 0.19908616 0.47732401 0.29567485
v 0.19910538 0.47730299 0.29470727
v 0.19909577 0.47732401 0.29375295
v 0.20359837 0.49047420 0.29783532
v 0.19758209 0.49122014 0.28007967
v 0.18053997 0.47465194 0.29461979
v 0.18083790 0.47367487 0.29395707
v 0.18142415 0.47405134 0.29516853
v 0.18194553 0.47465194 0.29609104
v 0.18306517 0.47753938 0.29912100
v 0.18247652 0.47874934 0.29953454
v 0.18262549 0.48441916 0.30301516
v 0.18086433 0.49122014 0.27677136
v 0.18061445 0.47520351 0.29163224
v 0.18045588 0.47461517 0.29299480
v 0.20359837 0.48792121 0.30066382
v 0.19878102 0.48269440 0.30301516
v 0.19766618 0.47880887 0.29961937
v 0.19634231 0.47576209 0.29719116
v 0.19817795 0.48233018 0.30301516
v 0.19634231 0.47517900 0.29628455
v 0.18661151 0.47370814 0.29564569
v 0.19749560 0.47534010 0.29531698
v 0.20359837 0.48959694 0.29874193
v 0.20359837 0.48868991 0.29975457
v 0.19815633 0.47711914 0.29357534
v 0.19634231 0.48870216 0.28152440
v 0.19744033 0.48802627 0.28263248
v 0.19740189 0.48981581 0.28090940
v 0.19752923 0.49122014 0.27993652
v 0.18083790 0.47367487 0.29366812
v 0.18182300 0.47353479 0.29357534
v 0.18194553 0.47355055 0.29461979
v 0.18263269 0.47369588 0.29565364
v 0.18449717 0.47914857 0.30108796
v 0.18358896 0.48299207 0.30301516
v 0.18131844 0.49122014 0.27614575
v 0.18175332 0.49122014 0.27601851
v 0.18231555 0.48795623 0.27899281
v 0.18239724 0.48427733 0.28256620
v 0.18363701 0.48423005 0.28252114
v 0.18142175 0.47520351 0.29163224
v 0.18363701 0.47346475 0.29360185
v 0.19634231 0.47666912 0.29811632
v 0.19452590 0.47657282 0.29822500
v 0.19452590 0.47566578 0.29729189
v 0.18545343 0.47361358 0.29573317
v 0.19751241 0.48206403 0.30301516
v 0.18363701 0.47333342 0.29470727
v 0.18541498 0.47354705 0.29483452
v 0.18661151 0.47370814 0.29552375
v 0.19634231 0.47517900 0.29512876
v 0.19634231 0.47598972 0.29422216
v 0.19634231 0.48140039 0.28877458
v 0.19634231 0.48230567 0.28787063
v 0.18632559 0.48826441 0.27929236
v 0.19634231 0.49122014 0.27912005
v 0.18363701 0.47360483 0.29573847
v 0.18427372 0.47726972 0.29934368
v 0.18545343 0.47908729 0.30115423
v 0.18726744 0.48094162 0.30301516
v 0.18640248 0.48108696 0.30301516
v 0.18612137 0.48119902 0.30301516
v 0.18559519 0.48142490 0.30301516
v 0.18532849 0.48156324 0.30301516
v 0.18420164 0.48240898 0.30301516
v 0.18280088 0.49122014 0.27593368
v 0.18219061 0.48982282 0.27725117
v 0.18363701 0.48792296 0.27895834
v 0.18641930 0.48279245 0.28471077
v 0.18545343 0.48266638 0.28458088
v 0.18478308 0.47358206 0.29370259
v 0.18363701 0.48332127 0.28345160
v 0.19634231 0.47758141 0.29902292
v 0.19452590 0.47929041 0.30095542
v 0.19452590 0.47838337 0.30004881
v 0.18908386 0.48085932 0.30301516
v 0.19634231 0.48161752 0.30301516
v 0.18363701 0.48891929 0.27805174
v 0.18363701 0.49122014 0.27596019
v 0.18533569 0.49122014 0.27637373
v 0.19264461 0.49122014 0.27816308
v 0.19453551 0.49122014 0.27864554
v 0.18726744 0.48089084 0.30297009
v 0.18735153 0.48093462 0.30301516
v 0.19511936 0.48148269 0.30301516
v 0.19055188 0.48099415 0.30301516
v 0.19050383 0.48091886 0.30294624
f 1 2 7
f 1 7 25
f 1 25 49
f 1 49 79
f 1 79 78
f 1 78 77
f 1 77 76
f 1 76 75
f 1 75 74
f 1 74 98
f 1 98 90
f 1 90 100
f 1 100 99
f 1 99 91
f 1 91 61
f 1 61 33
f 1 33 30
f 1 30 11
f 1 11 3
f 1 3 10
f 1 10 29
f 1 29 38
f 1 38 37
f 1 37 17
f 1 17 4
f 1 4 18
f 1 18 43
f 1 43 70
f 1 70 96
f 1 96 95
f 1 95 94
f 1 94 93
f 1 93 80
f 1 80 51
f 1 51 50
f 1 50 26
f 1 26 8
f 1 8 2
f 2 5 6
f 2 6 7
f 2 8 9
f 2 9 5
f 3 11 12
f 3 12 13
f 3 13 14
f 3 14 15
f 3 15 16
f 3 16 10
f 4 17 16
f 4 16 18
f 5 19 6
f 5 9 19
f 6 19 20
f 6 20 21
f 6 21 22
f 6 22 23
f 6 23 24
f 6 24 7
f 7 24 25
f 8 26 9
f 9 26 27
f 9 27 28
f 9 28 19
f 10 16 29
f 11 30 12
f 12 31 32
f 12 32 13
f 12 30 33
f 12 33 31
f 13 32 34
f 13 34 35
f 13 35 64
f 13 64 36
f 13 36 15
f 13 15 14
f 15 36 16
f 16 17 37
f 16 37 38
f 16 38 29
f 16 36 39
f 16 39 40
f 16 40 41
f 16 41 42
f 16 42 43
f 16 43 18
f 19 28 20
f 20 44 45
f 20 45 46
f 20 46 47
f 20 47 21
f 20 28 44
f 21 47 22
f 22 47 23
f 23 47 48
f 23 48 24
f 24 48 49
f 24 49 25
f 26 50 27
f 27 50 51
f 27 51 52
f 27 52 53
f 27 53 54
f 27 54 55
f 27 55 56
f 27 56 45
f 27 45 44
f 27 44 28
f 31 33 32
f 32 33 57
f 32 57 58
f 32 58 59
f 32 59 60
f 32 60 34
f 33 61 57
f 34 60 35
f 35 62 63
f 35 63 64
f 35 60 62
f 36 64 63
f 36 63 65
f 36 65 66
f 36 66 39
f 39 66 67
f 39 67 68
f 39 68 40
f 40 54 69
f 40 69 70
f 40 70 41
f 40 68 54
f 41 70 42
f 42 70 43
f 45 56 62
f 45 62 46
f 46 62 47
f 47 71 72
f 47 72 48
f 47 62 71
f 48 73 74
f 48 74 75
f 48 75 76
f 48 76 77
f 48 77 78
f 48 78 79
f 48 79 49
f 48 72 73
f 51 80 81
f 51 81 52
f 52 81 82
f 52 82 54
f 52 54 53
f 54 68 67
f 54 67 83
f 54 83 84
f 54 84 85
f 54 85 86
f 54 86 55
f 54 82 69
f 55 86 56
f 56 85 62
f 56 86 85
f 57 61 87
f 57 87 88
f 57 88 89
f 57 89 58
f 58 89 90
f 58 90 59
f 59 90 60
f 60 71 62
f 60 90 71
f 61 91 87
f 62 85 63
f 63 85 65
f 65 85 66
f 66 85 84
f 66 84 83
f 66 83 67
f 69 82 92
f 69 92 93
f 69 93 94
f 69 94 95
f 69 95 96
f 69 96 70
f 71 90 72
f 72 90 73
f 73 90 97
f 73 97 74
f 74 97 98
f 80 93 92
f 80 92 82
f 80 82 81
f 87 91 88
f 88 91 99
f 88 99 100
f 88 100 101
f 88 101 90
f 88 90 89
f 90 101 100
f 90 98 97

