# https://github.com/mikedh/trimesh
v 0.21177432 0.46031614 0.33191710
v 0.20792794 0.46087629 0.33021394
v 0.21177432 0.46111039 0.32930782
v 0.21488914 0.46101842 0.33003775
v 0.21510539 0.46090974 0.33298263
v 0.21177432 0.46109367 0.33468579
v 0.20814189 0.46060876 0.33379645
v 0.20451175 0.46066728 0.33363704
v 0.20360077 0.46139465 0.32997902
v 0.20768869 0.46269889 0.32738652
v 0.21177432 0.46260693 0.32702575
v 0.21539985 0.46287446 0.32662304
v 0.21874472 0.46220562 0.33126269
v 0.21926923 0.46253168 0.32877087
v 0.21832604 0.46797438 0.33887238
v 0.21578633 0.46664506 0.33936739
v 0.20995695 0.46764832 0.34110411
v 0.20360537 0.46881043 0.34148166
v 0.20451175 0.46296643 0.32750398
v 0.20360077 0.51308775 0.29867606
v 0.20360077 0.53100434 0.25941942
v 0.20360307 0.49071499 0.29762732
v 0.20405626 0.46519868 0.32494504
v 0.20723550 0.46532409 0.32436613
v 0.21112099 0.46427903 0.32510445
v 0.21734834 0.46417870 0.32506250
v 0.22175373 0.46435428 0.32947562
v 0.22098308 0.46954615 0.33717761
v 0.22157889 0.46536589 0.32501216
v 0.21651557 0.47014811 0.33921637
v 0.21289234 0.46769848 0.34036580
v 0.20596334 0.47018992 0.34107055
v 0.20360537 0.47244726 0.33924154
v 0.20360537 0.49948518 0.31226781
v 0.20360077 0.51853045 0.29323937
v 0.20360077 0.53376332 0.25719609
v 0.20905057 0.53212465 0.25778338
v 0.21449576 0.52985895 0.25919290
v 0.20451175 0.52786915 0.26219650
v 0.22175143 0.47753045 0.31120228
v 0.21381483 0.46602638 0.32306569
v 0.20723550 0.52655655 0.26312779
v 0.21721491 0.52013567 0.26808626
v 0.21993636 0.52234284 0.26572868
v 0.22129824 0.52052025 0.26752413
v 0.21993636 0.49948518 0.28870879
v 0.22063110 0.46651965 0.32287272
v 0.22373443 0.46739750 0.32646363
v 0.22402659 0.47101761 0.33282322
v 0.22283034 0.47151924 0.33559190
v 0.21993636 0.47166137 0.33709371
v 0.22455339 0.47912731 0.31006125
v 0.22438086 0.47712079 0.31250273
v 0.22456950 0.46993910 0.32295662
v 0.21844796 0.49360773 0.31547277
v 0.20542043 0.49295561 0.31845960
v 0.20905057 0.50081450 0.30996896
v 0.21788665 0.51816258 0.29104959
v 0.20784052 0.54446478 0.26653411
v 0.20417588 0.54572722 0.26538469
v 0.20360077 0.54301005 0.26085411
v 0.20360077 0.53751719 0.25655845
v 0.20632912 0.53635508 0.25587886
v 0.20632912 0.53388036 0.25675142
v 0.21344905 0.53214973 0.25732193
v 0.21721491 0.52843766 0.26025842
v 0.22266011 0.50516197 0.28304556
v 0.22383565 0.48122580 0.30762816
v 0.22356880 0.47897682 0.30991862
v 0.22223453 0.52746784 0.26181056
v 0.22437396 0.51812914 0.27072910
v 0.22481795 0.51431674 0.27449619
v 0.22622583 0.47918583 0.31262857
v 0.22629715 0.48550639 0.32116956
v 0.22440386 0.47477148 0.33205973
v 0.22356880 0.47769766 0.33041530
v 0.22356880 0.49223661 0.31591744
v 0.22547358 0.50516197 0.28416982
v 0.22633165 0.51069664 0.27951339
v 0.22605790 0.48273070 0.30826579
v 0.22266011 0.51092237 0.29742596
v 0.21449576 0.50032123 0.30948234
v 0.22356880 0.51945846 0.28872557
v 0.22175143 0.52143991 0.28707274
v 0.21724712 0.54270907 0.26659284
v 0.21086563 0.54505838 0.26535113
v 0.21086563 0.54537608 0.26385772
v 0.20950376 0.54403004 0.26185251
v 0.20723550 0.53856226 0.25682693
v 0.21169840 0.53578656 0.25576979
v 0.20950836 0.53437363 0.25630675
v 0.21734834 0.53247579 0.25734711
v 0.21539985 0.53453248 0.25634870
v 0.22055289 0.53185712 0.25886569
v 0.22330424 0.53122172 0.26141624
v 0.22471903 0.52803636 0.26419332
v 0.22624884 0.51641524 0.27412703
v 0.22655710 0.48735407 0.31830019
v 0.22707931 0.50187629 0.29109154
v 0.22701260 0.49280513 0.30105043
v 0.22636845 0.48840749 0.31877842
v 0.22610851 0.50038812 0.30727578
v 0.22696198 0.51274497 0.28019298
v 0.22710231 0.50549639 0.28745868
v 0.22635926 0.52281103 0.28479907
v 0.22356880 0.53306939 0.27510027
v 0.22431644 0.53699884 0.27000756
v 0.22264631 0.53933978 0.26797719
v 0.22080594 0.54109549 0.26628242
v 0.21771181 0.54299333 0.26357246
v 0.21421511 0.54434774 0.26374865
v 0.21197906 0.53862078 0.25713735
v 0.21549647 0.53702392 0.25704507
v 0.21871252 0.53546886 0.25810220
v 0.22557020 0.53408101 0.27021731
v 0.22641447 0.53135549 0.27452975
v 0.22629484 0.51993501 0.27201276
v 0.22670203 0.51526148 0.27708869
v 0.22672503 0.49059795 0.31399614
v 0.22693668 0.49824782 0.30649551
v 0.22652029 0.49991993 0.30726739
v 0.22689526 0.52182449 0.28201360
v 0.22687916 0.52182449 0.28382583
f 1 2 3
f 1 3 4
f 1 4 5
f 1 5 6
f 1 6 7
f 1 7 8
f 1 8 2
f 2 8 9
f 2 9 3
f 3 10 11
f 3 11 12
f 3 12 4
f 3 9 10
f 4 13 5
f 4 12 14
f 4 14 13
f 5 15 16
f 5 16 6
f 5 13 15
f 6 8 7
f 6 16 17
f 6 17 8
f 8 17 18
f 8 18 9
f 9 19 10
f 9 18 20
f 9 20 35
f 9 35 61
f 9 61 62
f 9 62 36
f 9 36 21
f 9 21 22
f 9 22 23
f 9 23 19
f 10 19 23
f 10 23 24
f 10 24 25
f 10 25 11
f 11 25 12
f 12 25 26
f 12 26 14
f 13 14 27
f 13 27 28
f 13 28 15
f 14 26 29
f 14 29 27
f 15 30 31
f 15 31 16
f 15 28 30
f 16 31 17
f 17 31 30
f 17 30 32
f 17 32 18
f 18 32 33
f 18 33 20
f 20 33 34
f 20 34 35
f 21 36 37
f 21 37 38
f 21 38 39
f 21 39 22
f 22 40 41
f 22 41 25
f 22 25 24
f 22 24 23
f 22 39 42
f 22 42 43
f 22 43 44
f 22 44 45
f 22 45 46
f 22 46 40
f 25 41 26
f 26 41 40
f 26 40 47
f 26 47 29
f 27 29 48
f 27 48 49
f 27 49 28
f 28 49 50
f 28 50 51
f 28 51 30
f 29 47 52
f 29 52 53
f 29 53 54
f 29 54 48
f 30 51 32
f 32 51 55
f 32 55 56
f 32 56 33
f 33 56 34
f 34 56 57
f 34 57 35
f 35 58 59
f 35 59 60
f 35 60 61
f 35 57 58
f 36 62 63
f 36 63 64
f 36 64 37
f 37 64 65
f 37 65 38
f 38 65 66
f 38 66 44
f 38 44 43
f 38 43 42
f 38 42 39
f 40 46 67
f 40 67 68
f 40 68 69
f 40 69 47
f 44 66 70
f 44 70 45
f 45 71 72
f 45 72 67
f 45 67 46
f 45 70 71
f 47 69 52
f 48 54 49
f 49 54 73
f 49 73 74
f 49 74 75
f 49 75 50
f 50 75 76
f 50 76 51
f 51 76 77
f 51 77 55
f 52 69 68
f 52 68 72
f 52 72 78
f 52 78 79
f 52 79 80
f 52 80 73
f 52 73 53
f 53 73 54
f 55 77 81
f 55 81 82
f 55 82 57
f 55 57 56
f 57 82 81
f 57 81 58
f 58 83 84
f 58 84 59
f 58 81 83
f 59 84 85
f 59 85 86
f 59 86 60
f 60 86 87
f 60 87 61
f 61 87 88
f 61 88 89
f 61 89 62
f 62 89 63
f 63 90 91
f 63 91 64
f 63 89 90
f 64 91 65
f 65 92 66
f 65 91 93
f 65 93 92
f 66 92 70
f 67 72 68
f 70 92 94
f 70 94 95
f 70 95 96
f 70 96 71
f 71 97 72
f 71 96 97
f 72 97 79
f 72 79 78
f 73 98 74
f 73 80 99
f 73 99 100
f 73 100 98
f 74 98 101
f 74 101 75
f 75 101 76
f 76 101 102
f 76 102 77
f 77 102 83
f 77 83 81
f 79 97 103
f 79 103 104
f 79 104 99
f 79 99 80
f 83 105 106
f 83 106 84
f 83 102 105
f 84 106 85
f 85 106 107
f 85 107 108
f 85 108 109
f 85 109 110
f 85 110 111
f 85 111 86
f 86 111 87
f 87 111 88
f 88 111 112
f 88 112 89
f 89 112 90
f 90 112 113
f 90 113 93
f 90 93 91
f 92 93 94
f 93 113 114
f 93 114 94
f 94 114 95
f 95 109 108
f 95 108 115
f 95 115 96
f 95 114 109
f 96 115 116
f 96 116 117
f 96 117 97
f 97 117 118
f 97 118 103
f 98 100 119
f 98 119 120
f 98 120 101
f 99 104 120
f 99 120 100
f 100 120 119
f 101 120 121
f 101 121 102
f 102 121 105
f 103 122 104
f 103 118 117
f 103 117 116
f 103 116 122
f 104 122 123
f 104 123 120
f 105 123 116
f 105 116 107
f 105 107 106
f 105 121 123
f 107 115 108
f 107 116 115
f 109 114 110
f 110 114 113
f 110 113 112
f 110 112 111
f 116 123 122
f 120 123 121

