# https://github.com/mikedh/trimesh
v 0.20360077 0.49122189 0.30997433
v 0.20360077 0.48049836 0.30997433
v 0.20360077 0.49122189 0.30301516
v 0.17794956 0.49122189 0.30997433
v 0.20189336 0.48072091 0.30997433
v 0.18726746 0.48094032 0.30301516
v 0.18735282 0.48093402 0.30301516
v 0.18908282 0.48085844 0.30301516
v 0.19055169 0.48099386 0.30301516
v 0.19511900 0.48148201 0.30301516
v 0.19634180 0.48161743 0.30301516
v 0.19751187 0.48206254 0.30301516
v 0.19817726 0.48233128 0.30301516
v 0.19877987 0.48269556 0.30301516
v 0.19916403 0.48294015 0.30301516
v 0.20360077 0.48641808 0.30301516
v 0.17905686 0.49122189 0.30301516
v 0.17794956 0.49122189 0.30356830
v 0.17794956 0.48473633 0.30997433
v 0.19564628 0.48154184 0.30997433
v 0.19271106 0.48193341 0.30997433
v 0.19089568 0.48219271 0.30997433
v 0.18908282 0.48247195 0.30997433
v 0.18726746 0.48276274 0.30997433
v 0.18615011 0.48294645 0.30997433
v 0.18524870 0.48309762 0.30997433
v 0.18640120 0.48108624 0.30301516
v 0.18237876 0.48482766 0.30301516
v 0.18262483 0.48442035 0.30301516
v 0.18559521 0.48142532 0.30301516
v 0.18612249 0.48119856 0.30301516
v 0.17796964 0.48473108 0.30997433
v 0.18358901 0.48299264 0.30301516
v 0.18420167 0.48241106 0.30301516
v 0.18532905 0.48156389 0.30301516
v 0.18369697 0.48339471 0.30997433
v 0.17859235 0.48458411 0.30997433
f 1 2 16
f 1 16 3
f 1 3 17
f 1 17 18
f 1 18 4
f 1 4 19
f 1 19 32
f 1 32 37
f 1 37 36
f 1 36 26
f 1 26 25
f 1 25 24
f 1 24 23
f 1 23 22
f 1 22 21
f 1 21 20
f 1 20 5
f 1 5 2
f 2 5 6
f 2 6 7
f 2 7 8
f 2 8 9
f 2 9 10
f 2 10 11
f 2 11 12
f 2 12 13
f 2 13 14
f 2 14 15
f 2 15 16
f 3 16 15
f 3 15 14
f 3 14 13
f 3 13 12
f 3 12 11
f 3 11 10
f 3 10 9
f 3 9 8
f 3 8 7
f 3 7 6
f 3 6 27
f 3 27 31
f 3 31 30
f 3 30 35
f 3 35 34
f 3 34 33
f 3 33 29
f 3 29 28
f 3 28 17
f 4 18 19
f 5 20 6
f 6 20 21
f 6 21 22
f 6 22 23
f 6 23 24
f 6 24 25
f 6 25 26
f 6 26 27
f 17 28 18
f 18 28 29
f 18 29 19
f 19 30 31
f 19 31 27
f 19 27 32
f 19 29 33
f 19 33 34
f 19 34 35
f 19 35 30
f 26 36 27
f 27 36 37
f 27 37 32

