# https://github.com/mikedh/trimesh
v 0.18001100 0.47101962 0.34363778
v 0.17801233 0.47259106 0.34351256
v 0.17801233 0.47044941 0.34340711
v 0.18726746 0.46973552 0.34312044
v 0.18908282 0.46973104 0.34309407
v 0.19089317 0.46975348 0.34305453
v 0.19271106 0.46982981 0.34297874
v 0.19512151 0.47001838 0.34286671
v 0.18001100 0.47252820 0.34335769
v 0.17807259 0.47401433 0.34227358
v 0.17795458 0.50635010 0.31001387
v 0.17794956 0.46247098 0.33456288
v 0.18001100 0.46984328 0.34308419
v 0.18363923 0.46978491 0.34311714
v 0.18545460 0.46975348 0.34312703
v 0.17801233 0.46306813 0.33630932
v 0.20178791 0.46780939 0.34148933
v 0.20360077 0.47085798 0.34083029
v 0.18596682 0.47198942 0.34287000
v 0.18182134 0.47236657 0.34321599
v 0.20360077 0.46850980 0.34160136
v 0.18182134 0.47327351 0.34233948
v 0.19271106 0.47229473 0.34136081
v 0.17819311 0.47723354 0.33904102
v 0.17801233 0.50480560 0.31154613
v 0.19452643 0.50300966 0.31037634
v 0.19997254 0.50243048 0.30997433
v 0.18904767 0.50439253 0.30997433
v 0.18182134 0.50569009 0.30997433
v 0.17827346 0.48465524 0.30997433
v 0.17794956 0.48083888 0.31361879
v 0.17794956 0.46539835 0.32929720
v 0.17801233 0.46287955 0.33280985
v 0.18545460 0.46196812 0.33282303
v 0.19313038 0.46112403 0.33335026
v 0.18363923 0.46192771 0.33463867
v 0.18363923 0.46333752 0.33698153
v 0.18545460 0.46285710 0.33656305
v 0.18908282 0.46232282 0.33612479
v 0.19997254 0.46782286 0.34148603
v 0.18363923 0.46246200 0.33607207
v 0.20178791 0.46139342 0.33507034
v 0.20360077 0.46109709 0.33465844
v 0.20360077 0.49492348 0.31681840
v 0.20178791 0.47238453 0.33963414
v 0.19997254 0.50024842 0.31215573
v 0.20324673 0.50171659 0.31009955
v 0.20360077 0.48049765 0.30997433
v 0.18369697 0.48339808 0.30997433
v 0.17794956 0.47855804 0.31577383
v 0.17794956 0.46769714 0.32665777
v 0.17807259 0.46634122 0.32813071
v 0.18363923 0.46496283 0.32865794
v 0.17818307 0.46439263 0.33051641
v 0.18545460 0.46257873 0.33150167
v 0.18301150 0.46261465 0.33204867
v 0.19768010 0.46100280 0.33185425
v 0.18726746 0.46179301 0.33282303
v 0.20360077 0.46048198 0.33282303
v 0.19815466 0.46090403 0.33405213
v 0.18545460 0.46178403 0.33463867
v 0.19815466 0.46137097 0.33495830
v 0.19997254 0.46137995 0.33502750
v 0.18726746 0.46168077 0.33463867
v 0.18908282 0.46158199 0.33463867
v 0.19997254 0.46085913 0.33412133
v 0.20360077 0.47880498 0.31159226
v 0.19633929 0.48145399 0.30997433
v 0.18570066 0.48302543 0.30997433
v 0.18001100 0.47739069 0.31649877
v 0.17794956 0.47719313 0.31709190
v 0.18590154 0.46820449 0.32456863
v 0.18565798 0.46631877 0.32666107
v 0.17794956 0.46938083 0.32487179
v 0.18001100 0.46617509 0.32793959
v 0.18908282 0.46492243 0.32768916
v 0.18545460 0.46445997 0.32893144
v 0.18545460 0.46319833 0.33059220
v 0.18726746 0.46276282 0.33085911
v 0.20360077 0.46185587 0.32919176
v 0.20360077 0.46093995 0.33076685
v 0.20360077 0.47002736 0.32004107
v 0.19997254 0.47163472 0.31893719
v 0.19815466 0.47175595 0.31904923
v 0.19313038 0.48188052 0.30997433
v 0.18726746 0.48276502 0.30997433
v 0.18726746 0.47533883 0.31719075
v 0.17794956 0.47299963 0.32120097
v 0.17794956 0.47449924 0.31972474
v 0.18726746 0.46852776 0.32399198
v 0.18726746 0.46718081 0.32542208
v 0.17794956 0.47123962 0.32295400
v 0.18582621 0.47000491 0.32274311
v 0.18908282 0.46620652 0.32617338
v 0.19089317 0.46515590 0.32708285
v 0.19633929 0.46404691 0.32752111
v 0.19815466 0.46301425 0.32850636
v 0.18732018 0.46408732 0.32905665
v 0.19077265 0.46283016 0.33008145
v 0.20360077 0.46301874 0.32758042
v 0.19960846 0.46291996 0.32837785
v 0.20360077 0.46821347 0.32185012
v 0.19502107 0.47197146 0.31926341
v 0.19452643 0.47523557 0.31618243
v 0.19089317 0.48219930 0.30997433
v 0.18930629 0.48244175 0.30997433
v 0.18908282 0.47518618 0.31704906
v 0.19271106 0.47216003 0.31944794
v 0.18908282 0.47017104 0.32199511
v 0.18726746 0.47032819 0.32215328
v 0.18908282 0.46838409 0.32384370
v 0.19089317 0.46648489 0.32556048
v 0.19782573 0.46501222 0.32612066
v 0.18908282 0.46373711 0.32919176
v 0.20360077 0.46468896 0.32559343
v 0.20360077 0.46643101 0.32369541
v 0.20178791 0.46698326 0.32337249
v 0.20178791 0.46833919 0.32197863
v 0.19271106 0.47033716 0.32126687
v 0.19089317 0.47003185 0.32185342
v 0.19997254 0.46802041 0.32256517
v 0.19089317 0.46867593 0.32325057
v 0.19815466 0.46637264 0.32454886
v 0.19997254 0.46533100 0.32542538
v 0.19997254 0.46667795 0.32395573
f 1 2 3
f 1 3 4
f 1 4 5
f 1 5 6
f 1 6 7
f 1 7 8
f 1 8 2
f 2 8 9
f 2 9 10
f 2 10 11
f 2 11 12
f 2 12 3
f 3 13 14
f 3 14 15
f 3 15 4
f 3 12 16
f 3 16 13
f 4 15 17
f 4 17 5
f 5 17 6
f 6 17 7
f 7 17 8
f 8 18 19
f 8 19 20
f 8 20 9
f 8 17 21
f 8 21 18
f 9 20 10
f 10 22 23
f 10 23 24
f 10 24 11
f 10 20 19
f 10 19 22
f 11 24 25
f 11 25 26
f 11 26 27
f 11 27 28
f 11 28 29
f 11 29 30
f 11 30 31
f 11 31 12
f 12 32 33
f 12 33 34
f 12 34 35
f 12 35 36
f 12 36 16
f 12 31 50
f 12 50 71
f 12 71 89
f 12 89 88
f 12 88 92
f 12 92 74
f 12 74 51
f 12 51 32
f 13 16 37
f 13 37 14
f 14 37 15
f 15 37 38
f 15 38 39
f 15 39 40
f 15 40 17
f 16 36 41
f 16 41 37
f 17 40 39
f 17 39 42
f 17 42 43
f 17 43 21
f 18 44 45
f 18 45 23
f 18 23 19
f 18 21 43
f 18 43 59
f 18 59 81
f 18 81 80
f 18 80 100
f 18 100 115
f 18 115 116
f 18 116 102
f 18 102 82
f 18 82 67
f 18 67 48
f 18 48 44
f 19 23 22
f 23 45 44
f 23 44 24
f 24 44 46
f 24 46 26
f 24 26 25
f 26 46 47
f 26 47 27
f 27 47 48
f 27 48 68
f 27 68 85
f 27 85 105
f 27 105 106
f 27 106 86
f 27 86 69
f 27 69 49
f 27 49 30
f 27 30 29
f 27 29 28
f 30 49 31
f 31 49 50
f 32 51 52
f 32 52 53
f 32 53 54
f 32 54 33
f 33 55 56
f 33 56 34
f 33 54 55
f 34 56 55
f 34 55 57
f 34 57 58
f 34 58 35
f 35 57 59
f 35 59 60
f 35 60 61
f 35 61 36
f 35 58 57
f 36 61 41
f 37 41 38
f 38 41 39
f 39 41 62
f 39 62 63
f 39 63 42
f 41 61 64
f 41 64 65
f 41 65 60
f 41 60 66
f 41 66 62
f 42 63 43
f 43 63 62
f 43 62 66
f 43 66 59
f 44 48 47
f 44 47 46
f 48 67 68
f 49 69 70
f 49 70 71
f 49 71 50
f 51 72 73
f 51 73 52
f 51 74 72
f 52 73 75
f 52 75 53
f 53 76 77
f 53 77 54
f 53 75 73
f 53 73 76
f 54 77 78
f 54 78 55
f 55 78 79
f 55 79 80
f 55 80 81
f 55 81 57
f 57 81 59
f 59 66 60
f 60 65 64
f 60 64 61
f 67 82 83
f 67 83 84
f 67 84 68
f 68 84 85
f 69 86 87
f 69 87 70
f 70 87 88
f 70 88 89
f 70 89 71
f 72 90 91
f 72 91 73
f 72 74 92
f 72 92 93
f 72 93 90
f 73 91 94
f 73 94 95
f 73 95 76
f 76 96 97
f 76 97 98
f 76 98 77
f 76 95 96
f 77 98 78
f 78 99 79
f 78 98 99
f 79 99 80
f 80 99 101
f 80 101 100
f 82 84 83
f 82 102 84
f 84 102 103
f 84 103 104
f 84 104 85
f 85 104 105
f 86 106 107
f 86 107 87
f 87 107 108
f 87 108 109
f 87 109 110
f 87 110 88
f 88 110 92
f 90 111 91
f 90 93 110
f 90 110 109
f 90 109 111
f 91 111 112
f 91 112 94
f 92 110 93
f 94 113 95
f 94 112 113
f 95 113 96
f 96 113 100
f 96 100 101
f 96 101 97
f 97 101 99
f 97 99 114
f 97 114 98
f 98 114 99
f 100 113 115
f 102 116 117
f 102 117 118
f 102 118 103
f 103 119 120
f 103 120 109
f 103 109 108
f 103 108 107
f 103 107 106
f 103 106 105
f 103 105 104
f 103 118 121
f 103 121 119
f 109 120 122
f 109 122 111
f 111 122 112
f 112 122 123
f 112 123 124
f 112 124 113
f 113 124 115
f 115 124 123
f 115 123 116
f 116 123 125
f 116 125 117
f 117 125 121
f 117 121 118
f 119 121 120
f 120 121 122
f 121 125 122
f 122 125 123

