# https://github.com/mikedh/trimesh
v 0.06656979 0.55925094 0.27541225
v 0.07180152 0.55914709 0.27568063
v 0.08744453 0.55743829 0.27333925
v 0.06748306 0.55045205 0.26620405
v 0.05144865 0.55684352 0.27682818
v 0.05567578 0.55834462 0.27996545
v 0.08381754 0.55741941 0.27585646
v 0.09353734 0.55729668 0.27375570
v 0.15147778 0.55087689 0.26737011
v 0.10197856 0.55577670 0.27166419
v 0.09379827 0.54848835 0.26444570
v 0.13463448 0.54454208 0.26110484
v 0.10636226 0.54620367 0.26287244
v 0.06748306 0.54905481 0.26569505
v 0.05511478 0.54896040 0.26812898
v 0.04966125 0.55578614 0.28291762
v 0.04840877 0.54667571 0.27227498
v 0.04736503 0.55258569 0.27946571
v 0.04932203 0.54689285 0.29256078
v 0.07602865 0.55675855 0.27792021
v 0.06929655 0.55781593 0.27805903
v 0.10521415 0.55550291 0.27394079
v 0.16513769 0.55003666 0.26850841
v 0.17719285 0.54761035 0.26764775
v 0.16048002 0.54181367 0.25930022
v 0.14795517 0.54455151 0.26108633
v 0.12008740 0.54652465 0.26272437
v 0.16729040 0.53997270 0.25855985
v 0.09923875 0.54542007 0.26325187
v 0.07293658 0.54723272 0.26532488
v 0.06043783 0.54694949 0.26717577
v 0.04774338 0.54232347 0.27481996
v 0.04615168 0.54917754 0.28548111
v 0.04690839 0.52468794 0.31480853
v 0.04573419 0.53995382 0.27987290
v 0.04932203 0.54326756 0.29618853
v 0.04842181 0.49886719 0.34069328
v 0.08927107 0.53242945 0.29987181
v 0.11013276 0.55143390 0.27713358
v 0.15820989 0.54802575 0.27190480
v 0.14599817 0.55138670 0.27072949
v 0.16776008 0.54443822 0.27376495
v 0.17794956 0.51086652 0.30552630
v 0.17762339 0.53408160 0.26060509
v 0.17383985 0.53893420 0.25833775
v 0.15519610 0.54020872 0.25936500
v 0.10432697 0.54440990 0.26290946
v 0.16456363 0.53745199 0.25943903
v 0.06200344 0.54183255 0.27058142
v 0.04471654 0.49119177 0.32869024
v 0.04502967 0.51783388 0.30161166
v 0.05379706 0.48245897 0.33220693
v 0.05187919 0.47866375 0.33701926
v 0.04466436 0.52384771 0.29784509
v 0.04467740 0.49141835 0.34076732
v 0.04619083 0.49967910 0.33969380
v 0.05023531 0.50733564 0.33192005
v 0.05294902 0.51027175 0.32850515
v 0.04906110 0.48950185 0.34936472
v 0.05114857 0.49226803 0.34680123
v 0.07293658 0.50757166 0.32762597
v 0.12916791 0.50798706 0.31714066
v 0.10015202 0.48515906 0.34513543
v 0.17273088 0.47591646 0.34134110
v 0.17794956 0.47726650 0.33905524
v 0.17794956 0.50529642 0.28895154
v 0.16819062 0.53171195 0.26420508
v 0.17091738 0.53689498 0.25905960
v 0.08431331 0.48092955 0.32820900
v 0.07246690 0.48124110 0.32988406
v 0.05975941 0.48112781 0.33229948
v 0.17794956 0.47098833 0.32320234
v 0.04562982 0.48500801 0.33478893
v 0.05995510 0.47619024 0.33793545
v 0.05557141 0.47484964 0.34267374
v 0.04921766 0.47796512 0.34149842
v 0.04602122 0.49198480 0.34561666
v 0.06616534 0.48638637 0.34999403
v 0.07836401 0.48347859 0.35071588
v 0.05592367 0.48481919 0.35236317
v 0.07174933 0.48338418 0.35196523
v 0.12632372 0.47917355 0.34641255
v 0.15276941 0.47679446 0.34404340
v 0.16709470 0.47436816 0.34388608
v 0.17794956 0.46619237 0.32844036
v 0.17690582 0.47283874 0.34298839
v 0.08479604 0.47668117 0.33269742
v 0.07111004 0.47764413 0.33403932
v 0.15269113 0.46790117 0.33080951
v 0.06334725 0.47335798 0.34334006
v 0.14314094 0.46835433 0.33197557
v 0.14368890 0.46667385 0.33399305
v 0.09700776 0.47007256 0.33909226
v 0.06248616 0.48183588 0.35288142
v 0.14515013 0.47566155 0.34651435
v 0.13462143 0.47752140 0.34656987
v 0.12500601 0.47744588 0.34830046
v 0.17207854 0.47187577 0.34465420
v 0.17591427 0.46280310 0.33431696
v 0.17183065 0.46460630 0.33142956
v 0.14731588 0.46509723 0.33644548
v 0.13557384 0.46636230 0.33850923
v 0.16819062 0.46435140 0.33765782
v 0.06883991 0.48076906 0.35212255
v 0.13557384 0.46636230 0.33648250
f 1 2 3
f 1 3 4
f 1 4 5
f 1 5 6
f 1 6 2
f 2 7 8
f 2 8 3
f 2 6 7
f 3 8 9
f 3 9 10
f 3 10 4
f 4 10 11
f 4 11 12
f 4 12 13
f 4 13 14
f 4 14 15
f 4 15 5
f 5 16 6
f 5 15 17
f 5 17 18
f 5 18 16
f 6 16 19
f 6 19 20
f 6 20 21
f 6 21 7
f 7 21 20
f 7 20 22
f 7 22 8
f 8 22 23
f 8 23 9
f 9 23 24
f 9 24 25
f 9 25 26
f 9 26 27
f 9 27 10
f 10 27 11
f 11 27 12
f 12 27 26
f 12 26 25
f 12 25 28
f 12 28 13
f 13 28 29
f 13 29 14
f 14 30 31
f 14 31 15
f 14 29 30
f 15 32 17
f 15 31 32
f 16 18 33
f 16 33 34
f 16 34 19
f 17 32 35
f 17 35 18
f 18 35 33
f 19 36 20
f 19 34 37
f 19 37 36
f 20 36 38
f 20 38 39
f 20 39 22
f 22 39 40
f 22 40 41
f 22 41 23
f 23 41 40
f 23 40 42
f 23 42 24
f 24 43 44
f 24 44 45
f 24 45 25
f 24 42 43
f 25 45 28
f 28 46 29
f 28 45 46
f 29 46 47
f 29 47 30
f 30 47 31
f 31 47 48
f 31 48 49
f 31 49 32
f 32 50 51
f 32 51 35
f 32 49 52
f 32 52 53
f 32 53 50
f 33 35 54
f 33 54 55
f 33 55 56
f 33 56 34
f 34 56 37
f 35 51 54
f 36 37 57
f 36 57 58
f 36 58 38
f 37 56 59
f 37 59 60
f 37 60 57
f 38 58 61
f 38 61 62
f 38 62 43
f 38 43 39
f 39 43 40
f 40 43 42
f 43 62 63
f 43 63 64
f 43 64 65
f 43 65 85
f 43 85 72
f 43 72 66
f 43 66 44
f 44 66 67
f 44 67 49
f 44 49 48
f 44 48 68
f 44 68 45
f 45 68 46
f 46 68 48
f 46 48 47
f 49 69 70
f 49 70 71
f 49 71 52
f 49 67 66
f 49 66 72
f 49 72 69
f 50 53 73
f 50 73 55
f 50 55 54
f 50 54 51
f 52 71 53
f 53 71 74
f 53 74 75
f 53 75 76
f 53 76 73
f 55 73 76
f 55 76 77
f 55 77 56
f 56 77 59
f 57 60 58
f 58 60 78
f 58 78 79
f 58 79 61
f 59 77 76
f 59 76 80
f 59 80 81
f 59 81 60
f 60 81 78
f 61 79 62
f 62 79 63
f 63 82 64
f 63 79 82
f 64 82 83
f 64 83 84
f 64 84 65
f 65 84 86
f 65 86 85
f 69 87 70
f 69 72 87
f 70 87 88
f 70 88 71
f 71 88 74
f 72 85 89
f 72 89 87
f 74 90 75
f 74 88 91
f 74 91 92
f 74 92 93
f 74 93 90
f 75 90 94
f 75 94 80
f 75 80 76
f 78 81 79
f 79 81 95
f 79 95 96
f 79 96 82
f 80 94 81
f 81 94 97
f 81 97 95
f 82 96 83
f 83 96 84
f 84 96 95
f 84 95 98
f 84 98 86
f 85 86 99
f 85 99 100
f 85 100 89
f 86 98 99
f 87 89 91
f 87 91 88
f 89 100 91
f 90 101 102
f 90 102 103
f 90 103 104
f 90 104 94
f 90 93 101
f 91 100 92
f 92 105 93
f 92 100 105
f 93 105 101
f 94 104 98
f 94 98 97
f 95 97 98
f 98 103 99
f 98 104 103
f 99 103 102
f 99 102 101
f 99 101 105
f 99 105 100

