# https://github.com/mikedh/trimesh
v 0.20360077 0.51259975 0.27819737
v 0.19633929 0.51259975 0.27836068
v 0.20360077 0.51344815 0.27720351
v 0.20360077 0.51259975 0.29915712
v 0.19455907 0.51259975 0.27851000
v 0.20360077 0.51951315 0.27060576
v 0.20360077 0.51864021 0.27151564
v 0.20360077 0.51598283 0.27436191
v 0.20360077 0.51513443 0.27527178
v 0.20360077 0.51422643 0.27629364
v 0.20360077 0.51309407 0.29866719
v 0.20018596 0.51259975 0.29977304
v 0.19271106 0.51259975 0.27872930
v 0.20360077 0.52310306 0.26692428
v 0.20360077 0.52220909 0.26783415
v 0.20178791 0.51325884 0.29883050
v 0.20360077 0.51672605 0.29503703
v 0.19815466 0.51267688 0.30006233
v 0.19675860 0.51259975 0.30038895
v 0.18726746 0.51259975 0.27941054
v 0.20178791 0.52230024 0.26794613
v 0.20360077 0.52400755 0.26604707
v 0.20178791 0.52322576 0.26704093
v 0.20178791 0.51507483 0.29701542
v 0.17794956 0.51267688 0.30369250
v 0.20360077 0.54485291 0.26690561
v 0.19997254 0.54517895 0.26723690
v 0.18182134 0.51259975 0.30307191
v 0.18542195 0.51259975 0.27973716
v 0.17794956 0.53349068 0.26099843
v 0.19857900 0.52991830 0.26104976
v 0.19997254 0.52795506 0.26272019
v 0.20360077 0.52769914 0.26247756
v 0.19271106 0.54583453 0.26789014
v 0.18363923 0.54665138 0.26870669
v 0.17819311 0.54532619 0.27101171
v 0.17794956 0.51449287 0.30187741
v 0.17794956 0.51259975 0.30376715
v 0.20360077 0.54575389 0.26593508
v 0.19722312 0.54633585 0.26656966
v 0.19601287 0.54644103 0.26668631
v 0.18375222 0.51259975 0.28013377
v 0.17794956 0.53167469 0.26280418
v 0.17794956 0.53465811 0.25989259
v 0.17794956 0.53535926 0.25923934
v 0.19890792 0.53178688 0.25929067
v 0.19997254 0.53080175 0.26005123
v 0.19997254 0.52981663 0.26095644
v 0.20360077 0.52866323 0.26156769
v 0.18001100 0.54697741 0.26903331
v 0.17794956 0.54625522 0.27012516
v 0.17794956 0.51259975 0.28179021
v 0.20360077 0.54650764 0.26502521
v 0.18642631 0.54815886 0.26657432
v 0.17794956 0.54806420 0.26823543
v 0.17794956 0.54716322 0.26921529
v 0.17794956 0.51274349 0.28164556
v 0.17794956 0.51347970 0.28090833
v 0.17794956 0.52910846 0.26535649
v 0.17794956 0.53633738 0.25862343
v 0.19014744 0.53550651 0.25752691
v 0.19135518 0.53536627 0.25745693
v 0.19815466 0.53389735 0.25769022
v 0.19452643 0.53307350 0.25883807
v 0.20360077 0.53344862 0.25735427
v 0.20360077 0.53253711 0.25810550
v 0.20360077 0.53146084 0.25901538
v 0.20360077 0.53055635 0.25982260
v 0.20360077 0.52957122 0.26072780
v 0.20360077 0.54650764 0.26448395
v 0.18545460 0.54821846 0.26643901
v 0.18545460 0.54821846 0.26668164
v 0.17794956 0.54834817 0.26754952
v 0.18363923 0.54830260 0.26681696
v 0.17794956 0.53659680 0.25851145
v 0.17819311 0.53635491 0.25858610
v 0.18545460 0.53711566 0.25744293
v 0.20360077 0.53635491 0.25609912
v 0.20360077 0.53453891 0.25666370
v 0.20178791 0.54659879 0.26438130
v 0.20360077 0.54581349 0.26357408
v 0.18363923 0.54830260 0.26631303
v 0.18001100 0.54840427 0.26709225
v 0.17794956 0.54841128 0.26734422
v 0.18182134 0.54835869 0.26694294
v 0.17794956 0.53816739 0.25794686
v 0.18448790 0.53725589 0.25750359
v 0.20360077 0.53816739 0.25665437
v 0.17819311 0.53816739 0.25792819
v 0.18378737 0.53822349 0.25754558
v 0.18475908 0.53886154 0.25750825
v 0.18597184 0.53908591 0.25750359
v 0.19997254 0.54666540 0.26432997
v 0.20360077 0.54490550 0.26259888
v 0.20178791 0.54582752 0.26347142
v 0.18182134 0.54835869 0.26627103
v 0.17819311 0.54841478 0.26729289
v 0.18001100 0.54840427 0.26624770
v 0.17794956 0.54841128 0.26626637
v 0.17794956 0.53841280 0.25796552
v 0.19271106 0.53921211 0.25741026
v 0.19452643 0.53921912 0.25738694
v 0.19633929 0.53924016 0.25737294
v 0.20360077 0.53922263 0.25736360
v 0.17794956 0.53998689 0.25820349
v 0.17794956 0.54015867 0.25829681
v 0.19997254 0.54583804 0.26342476
v 0.19815466 0.54670046 0.26431597
v 0.20360077 0.54392388 0.26168900
v 0.19997254 0.54305445 0.26081179
v 0.20178791 0.54491952 0.26258488
v 0.17819311 0.54841478 0.26626170
v 0.19271106 0.54676707 0.26433464
v 0.17794956 0.54764702 0.26547781
v 0.17794956 0.54124547 0.25895005
v 0.20360077 0.54301588 0.26084912
v 0.19815466 0.54584505 0.26341077
v 0.18545460 0.54677408 0.26435330
f 1 2 3
f 1 3 10
f 1 10 9
f 1 9 8
f 1 8 7
f 1 7 6
f 1 6 15
f 1 15 14
f 1 14 22
f 1 22 33
f 1 33 49
f 1 49 69
f 1 69 68
f 1 68 67
f 1 67 66
f 1 66 65
f 1 65 79
f 1 79 78
f 1 78 88
f 1 88 104
f 1 104 116
f 1 116 109
f 1 109 94
f 1 94 81
f 1 81 70
f 1 70 53
f 1 53 39
f 1 39 26
f 1 26 17
f 1 17 11
f 1 11 4
f 1 4 12
f 1 12 19
f 1 19 28
f 1 28 38
f 1 38 52
f 1 52 42
f 1 42 29
f 1 29 20
f 1 20 13
f 1 13 5
f 1 5 2
f 2 5 6
f 2 6 7
f 2 7 8
f 2 8 9
f 2 9 10
f 2 10 3
f 4 11 12
f 5 13 14
f 5 14 15
f 5 15 6
f 11 16 12
f 11 17 24
f 11 24 16
f 12 16 18
f 12 18 19
f 13 20 21
f 13 21 14
f 14 21 23
f 14 23 22
f 16 24 37
f 16 37 25
f 16 25 18
f 17 26 27
f 17 27 24
f 18 25 19
f 19 25 28
f 20 29 30
f 20 30 31
f 20 31 32
f 20 32 23
f 20 23 21
f 22 23 33
f 23 32 33
f 24 27 34
f 24 34 35
f 24 35 36
f 24 36 37
f 25 37 51
f 25 51 56
f 25 56 55
f 25 55 73
f 25 73 84
f 25 84 99
f 25 99 114
f 25 114 115
f 25 115 106
f 25 106 105
f 25 105 100
f 25 100 86
f 25 86 75
f 25 75 60
f 25 60 45
f 25 45 44
f 25 44 30
f 25 30 43
f 25 43 59
f 25 59 58
f 25 58 57
f 25 57 52
f 25 52 38
f 25 38 28
f 26 39 40
f 26 40 41
f 26 41 27
f 27 41 34
f 29 42 30
f 30 44 31
f 30 42 43
f 31 44 45
f 31 45 46
f 31 46 47
f 31 47 48
f 31 48 32
f 32 48 33
f 33 48 49
f 34 41 35
f 35 41 50
f 35 50 36
f 36 50 51
f 36 51 37
f 39 53 40
f 40 54 41
f 40 53 54
f 41 54 55
f 41 55 56
f 41 56 50
f 42 52 57
f 42 57 58
f 42 58 59
f 42 59 43
f 45 60 61
f 45 61 62
f 45 62 63
f 45 63 64
f 45 64 46
f 46 64 63
f 46 63 65
f 46 65 66
f 46 66 67
f 46 67 68
f 46 68 47
f 47 68 69
f 47 69 48
f 48 69 49
f 50 56 51
f 53 70 54
f 54 71 72
f 54 72 55
f 54 70 71
f 55 72 74
f 55 74 73
f 60 75 76
f 60 76 61
f 61 77 62
f 61 76 75
f 61 75 77
f 62 77 78
f 62 78 79
f 62 79 65
f 62 65 63
f 70 80 71
f 70 81 80
f 71 82 74
f 71 74 72
f 71 80 82
f 73 83 84
f 73 74 85
f 73 85 83
f 74 82 96
f 74 96 85
f 75 86 87
f 75 87 77
f 77 87 78
f 78 87 89
f 78 89 90
f 78 90 91
f 78 91 92
f 78 92 88
f 80 81 93
f 80 93 82
f 81 94 95
f 81 95 93
f 82 93 96
f 83 97 84
f 83 85 96
f 83 96 98
f 83 98 112
f 83 112 97
f 84 97 112
f 84 112 99
f 86 100 89
f 86 89 87
f 88 92 101
f 88 101 102
f 88 102 103
f 88 103 104
f 89 100 91
f 89 91 90
f 91 100 105
f 91 105 92
f 92 105 106
f 92 106 101
f 93 95 107
f 93 107 108
f 93 108 98
f 93 98 96
f 94 107 95
f 94 109 110
f 94 110 111
f 94 111 107
f 98 113 112
f 98 108 113
f 99 112 114
f 101 106 115
f 101 115 102
f 102 115 103
f 103 115 104
f 104 115 110
f 104 110 116
f 107 111 110
f 107 110 117
f 107 117 108
f 108 117 113
f 109 116 110
f 110 115 117
f 112 113 118
f 112 118 114
f 113 117 118
f 114 118 115
f 115 118 117

