o link_2
v 0.155763 0.221819 -0.091870
v 0.155763 0.221800 -0.089434
v 0.155763 0.219485 -0.094881
v 0.151148 0.218090 -0.095036
v 0.148051 0.217477 -0.094536
v 0.138907 0.213203 -0.094986
v 0.154502 0.221196 -0.091870
v 0.155763 0.221661 -0.087333
v 0.138907 0.213203 -0.092890
v 0.155763 0.214707 -0.095196
v 0.151148 0.214915 -0.096302
v 0.140975 0.208752 -0.098918
v 0.122209 0.199256 -0.103360
v 0.121071 0.199256 -0.103360
v 0.134377 0.208475 -0.098988
v 0.124915 0.204241 -0.099448
v 0.098596 0.190155 -0.103505
v 0.154563 0.220939 -0.087333
v 0.155763 0.221275 -0.086442
v 0.098596 0.190155 -0.102670
v 0.130497 0.208277 -0.093861
v 0.146619 0.210384 -0.097552
v 0.155763 0.214024 -0.095051
v 0.142971 0.205844 -0.098128
v 0.140706 0.205844 -0.098868
v 0.122209 0.198098 -0.103360
v 0.077602 0.172587 -0.112825
v 0.074027 0.172478 -0.112769
v 0.071396 0.171924 -0.112394
v 0.084861 0.181163 -0.108117
v 0.053058 0.163090 -0.112794
v 0.139972 0.212521 -0.089864
v 0.152629 0.217764 -0.084451
v 0.155763 0.218891 -0.083346
v 0.053058 0.163090 -0.111614
v 0.062166 0.167611 -0.107332
v 0.155763 0.210384 -0.093976
v 0.154441 0.210384 -0.094586
v 0.153511 0.208030 -0.094176
v 0.139837 0.203539 -0.098688
v 0.057612 0.154662 -0.116671
v 0.058346 0.157689 -0.116896
v 0.058346 0.158896 -0.116896
v 0.055873 0.159193 -0.117192
v 0.046937 0.156255 -0.118017
v 0.048553 0.158303 -0.116916
v 0.062092 0.167611 -0.112679
v 0.042261 0.154742 -0.117687
v 0.039850 0.153812 -0.116936
v 0.045383 0.157966 -0.114555
v 0.042261 0.156028 -0.114555
v 0.134892 0.208366 -0.089294
v 0.144697 0.212343 -0.085377
v 0.147720 0.213569 -0.084226
v 0.154723 0.216092 -0.081425
v 0.155763 0.216527 -0.081065
v 0.039188 0.149805 -0.107057
v 0.039654 0.153960 -0.111869
v 0.041123 0.152832 -0.108848
v 0.155763 0.207614 -0.092790
v 0.155763 0.206249 -0.092180
v 0.149091 0.203361 -0.094241
v 0.146337 0.201630 -0.094816
v 0.062594 0.149212 -0.112249
v 0.138552 0.200512 -0.098108
v 0.060819 0.150992 -0.113850
v 0.056008 0.151438 -0.116016
v 0.054576 0.152971 -0.117091
v 0.046790 0.151398 -0.119082
v 0.051332 0.155939 -0.118047
v 0.042261 0.151398 -0.118707
v 0.035222 0.149311 -0.116966
v 0.034916 0.149568 -0.114555
v 0.039629 0.154000 -0.114555
v 0.049006 0.153713 -0.103170
v 0.139837 0.208089 -0.085087
v 0.155763 0.214578 -0.079479
v 0.149899 0.211799 -0.081200
v 0.036165 0.148470 -0.108643
v 0.034598 0.145443 -0.106957
v 0.037781 0.146798 -0.105491
v 0.041110 0.148153 -0.104030
v 0.034965 0.149538 -0.111669
v 0.155763 0.202480 -0.090214
v 0.144636 0.198731 -0.094296
v 0.068213 0.148144 -0.108377
v 0.065054 0.146719 -0.109348
v 0.045383 0.134809 -0.112830
v 0.143142 0.195704 -0.093465
v 0.153388 0.199068 -0.089584
v 0.046582 0.146996 -0.117582
v 0.051271 0.151438 -0.117642
v 0.044930 0.144256 -0.116976
v 0.042261 0.141051 -0.116396
v 0.042261 0.143316 -0.117172
v 0.042261 0.146858 -0.118192
v 0.034720 0.143534 -0.117172
v 0.037720 0.146858 -0.117797
v 0.034733 0.146858 -0.117192
v 0.030779 0.144859 -0.112684
v 0.030779 0.144859 -0.111924
v 0.044134 0.149449 -0.102950
v 0.155763 0.214480 -0.079399
v 0.148100 0.208772 -0.080004
v 0.033264 0.146660 -0.110283
v 0.031574 0.143267 -0.108898
v 0.033190 0.141971 -0.105756
v 0.034818 0.140675 -0.102790
v 0.036373 0.143702 -0.103930
v 0.039397 0.145127 -0.102820
v 0.155763 0.200136 -0.088838
v 0.066646 0.145117 -0.107367
v 0.145737 0.193172 -0.090439
v 0.144146 0.190145 -0.089479
v 0.063622 0.143811 -0.108307
v 0.054147 0.135027 -0.108087
v 0.049080 0.130971 -0.107762
v 0.046790 0.130378 -0.108372
v 0.042261 0.132020 -0.111334
v 0.042261 0.134285 -0.113185
v 0.042261 0.137787 -0.115026
v 0.052115 0.132000 -0.106902
v 0.037720 0.140507 -0.116671
v 0.037720 0.142772 -0.117317
v 0.034990 0.135235 -0.112554
v 0.033362 0.138054 -0.113380
v 0.030779 0.139735 -0.112499
v 0.030705 0.142327 -0.112744
v 0.030717 0.141981 -0.110253
v 0.030852 0.140250 -0.107577
v 0.153425 0.208109 -0.075992
v 0.155763 0.211027 -0.076673
v 0.155763 0.211215 -0.076818
v 0.034108 0.137787 -0.101769
v 0.035479 0.135452 -0.098688
v 0.044856 0.144276 -0.098868
v 0.108732 0.175653 -0.080895
v 0.155763 0.196694 -0.086602
v 0.139458 0.185733 -0.089384
v 0.155763 0.196644 -0.086567
v 0.054429 0.130219 -0.103875
v 0.141673 0.183438 -0.086012
v 0.139886 0.180827 -0.085122
v 0.049386 0.126243 -0.103395
v 0.050744 0.129082 -0.105146
v 0.049434 0.121574 -0.099028
v 0.046790 0.125689 -0.103930
v 0.046790 0.123423 -0.101634
v 0.042261 0.125145 -0.104326
v 0.037720 0.134601 -0.112975
v 0.037720 0.137787 -0.115091
v 0.052409 0.127202 -0.102510
v 0.035492 0.131001 -0.107707
v 0.033362 0.134394 -0.109668
v 0.031954 0.136718 -0.110949
v 0.038674 0.125521 -0.103925
v 0.030852 0.135422 -0.107922
v 0.030766 0.138054 -0.109668
v 0.030828 0.137787 -0.107452
v 0.031844 0.137787 -0.105181
v 0.148688 0.203757 -0.075862
v 0.151148 0.204835 -0.075102
v 0.155763 0.209128 -0.075267
v 0.035161 0.132435 -0.098288
v 0.037291 0.133662 -0.097197
v 0.043191 0.132267 -0.093445
v 0.104227 0.170925 -0.080900
v 0.107263 0.172626 -0.080179
v 0.152666 0.199760 -0.071070
v 0.154233 0.202787 -0.071910
v 0.155763 0.206269 -0.073311
v 0.154233 0.193835 -0.085547
v 0.149434 0.189492 -0.085447
v 0.144660 0.185140 -0.085297
v 0.155763 0.192203 -0.083141
v 0.155763 0.191837 -0.082836
v 0.154478 0.189087 -0.081335
v 0.149642 0.184843 -0.081130
v 0.134989 0.176573 -0.084811
v 0.054417 0.125817 -0.099483
v 0.058224 0.126381 -0.094271
v 0.049777 0.121386 -0.096402
v 0.046790 0.120772 -0.096402
v 0.046790 0.121396 -0.099363
v 0.152666 0.186060 -0.079784
v 0.155763 0.187445 -0.078514
v 0.154233 0.184922 -0.076758
v 0.043669 0.121554 -0.099243
v 0.038062 0.124887 -0.100944
v 0.035798 0.127014 -0.100944
v 0.030852 0.135422 -0.107522
v 0.035161 0.129992 -0.098288
v 0.155763 0.206536 -0.073491
v 0.042898 0.128716 -0.093100
v 0.046790 0.128716 -0.091395
v 0.112502 0.167374 -0.075957
v 0.110715 0.169154 -0.077363
v 0.105757 0.169471 -0.079649
v 0.121095 0.176949 -0.075732
v 0.143730 0.190610 -0.071195
v 0.145150 0.193637 -0.071835
v 0.148173 0.195200 -0.071130
v 0.151160 0.196733 -0.070475
v 0.155726 0.201284 -0.070380
v 0.155763 0.203489 -0.071500
v 0.155763 0.192084 -0.083046
v 0.155763 0.187623 -0.078699
v 0.064259 0.129853 -0.091870
v 0.049643 0.121534 -0.093581
v 0.046790 0.121287 -0.093395
v 0.043865 0.121445 -0.093696
v 0.043387 0.121297 -0.096402
v 0.155763 0.187326 -0.078353
v 0.155763 0.185872 -0.073721
v 0.089121 0.145067 -0.087333
v 0.038736 0.125293 -0.097742
v 0.034843 0.129280 -0.100944
v 0.040621 0.128716 -0.094646
v 0.043400 0.124175 -0.093290
v 0.046790 0.124175 -0.092005
v 0.053278 0.126282 -0.089514
v 0.053278 0.127182 -0.089514
v 0.112502 0.167186 -0.075957
v 0.142077 0.183151 -0.070350
v 0.146619 0.187692 -0.069559
v 0.138588 0.183151 -0.071080
v 0.151148 0.192232 -0.068904
v 0.142163 0.187455 -0.070830
v 0.119504 0.173813 -0.075307
v 0.155690 0.196763 -0.068629
v 0.155763 0.196832 -0.068624
v 0.155763 0.201284 -0.070365
v 0.155763 0.201343 -0.070395
v 0.154221 0.184942 -0.073721
v 0.086587 0.143870 -0.084381
v 0.063781 0.130130 -0.088793
v 0.060011 0.127479 -0.091970
v 0.054453 0.126282 -0.089514
v 0.155763 0.186040 -0.073076
v 0.142077 0.180214 -0.070935
v 0.114852 0.166859 -0.075747
v 0.138454 0.180322 -0.071080
v 0.155690 0.192232 -0.067994
v 0.155763 0.192321 -0.067984
v 0.155763 0.196763 -0.068604
v 0.153682 0.185288 -0.071240
v 0.145786 0.180115 -0.073721
v 0.144856 0.180560 -0.071135
v 0.155763 0.187781 -0.070010
v 0.151148 0.187692 -0.069099
v 0.155763 0.192232 -0.067994
v 0.155763 0.188038 -0.069809
v 0.264207 0.285242 -0.063205
v 0.257604 0.280846 -0.062225
v 0.264207 0.284124 -0.059721
v 0.264207 0.285223 -0.064646
v 0.184968 0.240003 -0.085231
v 0.184968 0.240003 -0.084608
v 0.193928 0.244594 -0.080103
v 0.171178 0.231064 -0.084598
v 0.155774 0.221668 -0.087330
v 0.155774 0.221279 -0.086434
v 0.157801 0.221844 -0.084910
v 0.264207 0.281624 -0.056899
v 0.155774 0.218906 -0.083340
v 0.264207 0.282908 -0.068239
v 0.260056 0.281595 -0.068076
v 0.257360 0.280943 -0.067358
v 0.187463 0.240558 -0.085711
v 0.171252 0.230948 -0.089740
v 0.155774 0.221834 -0.091869
v 0.252529 0.276488 -0.071699
v 0.155774 0.221805 -0.089433
v 0.264207 0.281459 -0.056731
v 0.155774 0.216542 -0.081059
v 0.264207 0.278434 -0.069947
v 0.258623 0.276712 -0.071709
v 0.255523 0.276819 -0.071833
v 0.173853 0.231677 -0.089993
v 0.157716 0.221863 -0.094249
v 0.155774 0.219490 -0.094883
v 0.264207 0.278871 -0.054276
v 0.155774 0.214490 -0.079396
v 0.264207 0.276984 -0.052673
v 0.264207 0.273911 -0.069694
v 0.260969 0.273911 -0.070966
v 0.258697 0.273911 -0.071739
v 0.162632 0.221805 -0.094165
v 0.160243 0.221882 -0.094245
v 0.155997 0.219558 -0.094873
v 0.155774 0.214714 -0.095200
v 0.155774 0.211037 -0.076663
v 0.264207 0.274339 -0.050727
v 0.155774 0.209140 -0.075263
v 0.264207 0.269417 -0.068190
v 0.259833 0.269582 -0.070288
v 0.258166 0.271236 -0.071570
v 0.162632 0.221561 -0.094165
v 0.155774 0.214033 -0.095051
v 0.156007 0.214704 -0.095140
v 0.264207 0.271567 -0.048827
v 0.171156 0.217564 -0.071179
v 0.155774 0.206543 -0.073486
v 0.264207 0.268785 -0.067873
v 0.252614 0.263260 -0.071120
v 0.253984 0.266285 -0.071783
v 0.157727 0.213041 -0.094027
v 0.174182 0.223731 -0.090676
v 0.155774 0.210385 -0.093977
v 0.253835 0.261937 -0.049074
v 0.264207 0.269183 -0.047520
v 0.155774 0.206281 -0.073308
v 0.155774 0.203499 -0.071496
v 0.264207 0.265254 -0.065730
v 0.262997 0.266489 -0.067284
v 0.230193 0.249351 -0.075782
v 0.231573 0.252376 -0.076441
v 0.175923 0.222028 -0.089513
v 0.155774 0.207623 -0.092789
v 0.156719 0.210385 -0.093542
v 0.252487 0.258912 -0.048421
v 0.256861 0.263406 -0.048317
v 0.264207 0.269018 -0.047431
v 0.167568 0.207536 -0.067180
v 0.155774 0.201349 -0.070387
v 0.264207 0.264340 -0.065136
v 0.244546 0.248602 -0.067155
v 0.231318 0.243690 -0.071887
v 0.238951 0.249633 -0.071051
v 0.235926 0.248164 -0.071912
v 0.180679 0.217184 -0.085068
v 0.167080 0.212623 -0.089617
v 0.171517 0.217272 -0.089567
v 0.155774 0.206252 -0.092176
v 0.248325 0.253981 -0.048599
v 0.264207 0.264058 -0.045441
v 0.264207 0.264670 -0.045654
v 0.166220 0.204510 -0.066561
v 0.155774 0.201291 -0.070358
v 0.264207 0.262492 -0.063883
v 0.263793 0.261247 -0.063294
v 0.264207 0.260799 -0.062691
v 0.264207 0.259476 -0.061730
v 0.262116 0.258221 -0.062235
v 0.257476 0.253786 -0.062136
v 0.239885 0.244215 -0.067071
v 0.229747 0.240665 -0.070947
v 0.226721 0.239254 -0.071852
v 0.228261 0.242163 -0.072728
v 0.189321 0.217583 -0.080277
v 0.186306 0.216183 -0.081168
v 0.178386 0.213848 -0.084335
v 0.176029 0.212739 -0.085013
v 0.155774 0.200211 -0.088874
v 0.155774 0.202497 -0.090206
v 0.159797 0.206271 -0.090121
v 0.162568 0.208061 -0.089631
v 0.220999 0.231405 -0.053148
v 0.264207 0.260605 -0.044659
v 0.180276 0.208528 -0.062260
v 0.155774 0.196836 -0.068625
v 0.155774 0.196778 -0.068605
v 0.164734 0.201087 -0.066239
v 0.264207 0.256052 -0.058825
v 0.244917 0.243845 -0.062943
v 0.235129 0.239848 -0.066937
v 0.194788 0.216766 -0.076322
v 0.199512 0.221104 -0.076416
v 0.181635 0.211767 -0.081113
v 0.174256 0.210055 -0.084355
v 0.178439 0.210308 -0.082063
v 0.171369 0.208323 -0.084939
v 0.158980 0.198140 -0.085662
v 0.155774 0.196710 -0.086597
v 0.220999 0.230423 -0.053148
v 0.264207 0.260293 -0.044634
v 0.159171 0.196778 -0.067343
v 0.161443 0.196778 -0.066586
v 0.161347 0.194025 -0.066576
v 0.180276 0.207292 -0.062260
v 0.155774 0.192333 -0.067982
v 0.264207 0.253348 -0.055568
v 0.262339 0.253485 -0.057845
v 0.260056 0.252483 -0.058795
v 0.230288 0.235568 -0.066680
v 0.257508 0.249127 -0.057508
v 0.194873 0.212156 -0.071981
v 0.207793 0.221824 -0.071352
v 0.190011 0.212428 -0.076173
v 0.179989 0.208742 -0.080059
v 0.176963 0.207438 -0.081034
v 0.157271 0.195114 -0.084593
v 0.155774 0.196651 -0.086558
v 0.223759 0.230325 -0.053024
v 0.264207 0.256004 -0.045288
v 0.260056 0.255761 -0.045624
v 0.202591 0.216902 -0.057558
v 0.155774 0.192245 -0.067997
v 0.155774 0.188043 -0.069813
v 0.164776 0.194132 -0.066645
v 0.203844 0.216902 -0.057558
v 0.264207 0.251880 -0.052074
v 0.258485 0.248466 -0.054479
v 0.244206 0.239857 -0.057880
v 0.221711 0.226075 -0.062715
v 0.184968 0.203742 -0.070565
v 0.167377 0.194288 -0.076277
v 0.172314 0.198470 -0.076579
v 0.185159 0.208148 -0.075956
v 0.167366 0.198772 -0.080742
v 0.162483 0.194531 -0.080499
v 0.155774 0.192051 -0.083009
v 0.155774 0.192216 -0.083138
v 0.226424 0.230549 -0.053083
v 0.264207 0.255556 -0.045466
v 0.155774 0.187790 -0.070001
v 0.167080 0.194492 -0.066898
v 0.162674 0.189891 -0.071308
v 0.222178 0.225783 -0.057107
v 0.264207 0.251734 -0.051297
v 0.253304 0.244380 -0.053365
v 0.208324 0.216941 -0.063002
v 0.168375 0.193714 -0.073713
v 0.170647 0.195241 -0.073713
v 0.159213 0.188938 -0.077148
v 0.155774 0.187460 -0.078510
v 0.157515 0.190339 -0.080173
v 0.155774 0.191846 -0.082831
v 0.264207 0.252444 -0.047609
v 0.155774 0.186049 -0.073070
v 0.208324 0.216941 -0.061928
v 0.155774 0.185874 -0.073713
v 0.162674 0.189891 -0.071922
v 0.253304 0.244380 -0.053227
v 0.244695 0.239566 -0.052935
v 0.264207 0.252288 -0.047956
v 0.156496 0.186322 -0.073713
v 0.162239 0.190202 -0.074946
v 0.155774 0.187333 -0.078346
v 0.155774 0.187635 -0.078693
v 0.287137 0.302864 -0.032045
v 0.290261 0.296415 -0.032045
v 0.292124 0.303843 -0.044081
v 0.292124 0.305506 -0.046767
v 0.292124 0.306713 -0.050190
v 0.292124 0.306928 -0.051027
v 0.287137 0.304628 -0.042411
v 0.287137 0.275641 -0.032045
v 0.290437 0.295996 -0.032045
v 0.291992 0.292062 -0.032045
v 0.292124 0.292062 -0.032927
v 0.292124 0.306123 -0.055273
v 0.287137 0.303990 -0.050458
v 0.287137 0.304461 -0.046254
v 0.287137 0.267562 -0.040570
v 0.291827 0.270679 -0.038726
v 0.292124 0.270727 -0.038775
v 0.292124 0.273263 -0.036514
v 0.292124 0.275547 -0.034522
v 0.287698 0.275962 -0.032045
v 0.292124 0.290998 -0.032045
v 0.292124 0.305266 -0.056536
v 0.287137 0.300154 -0.059154
v 0.287137 0.302214 -0.055370
v 0.287137 0.302336 -0.055037
v 0.287137 0.266034 -0.042763
v 0.287290 0.266082 -0.042779
v 0.292124 0.268862 -0.041717
v 0.292124 0.278465 -0.032417
v 0.291011 0.278176 -0.032045
v 0.292124 0.279680 -0.032045
v 0.292124 0.302657 -0.059791
v 0.287137 0.300080 -0.059258
v 0.287137 0.265956 -0.042950
v 0.290041 0.266850 -0.043699
v 0.292124 0.268724 -0.042078
v 0.291593 0.278632 -0.032045
v 0.292124 0.300666 -0.061195
v 0.287137 0.295813 -0.063443
v 0.287137 0.298081 -0.061525
v 0.287137 0.265412 -0.046586
v 0.290041 0.266850 -0.045159
v 0.292124 0.268704 -0.046099
v 0.292124 0.297484 -0.063133
v 0.287290 0.295830 -0.063449
v 0.287137 0.292054 -0.065035
v 0.287137 0.265871 -0.047797
v 0.289310 0.267330 -0.048182
v 0.292124 0.268785 -0.046586
v 0.292124 0.296850 -0.063262
v 0.287290 0.292062 -0.065009
v 0.287137 0.287523 -0.064773
v 0.287137 0.267582 -0.050881
v 0.292124 0.270768 -0.049761
v 0.292124 0.270666 -0.049599
v 0.292124 0.291652 -0.063598
v 0.292124 0.291262 -0.063504
v 0.287290 0.287523 -0.064705
v 0.287137 0.284975 -0.063733
v 0.287137 0.268484 -0.051979
v 0.292124 0.272824 -0.052044
v 0.292124 0.287523 -0.062261
v 0.290792 0.287523 -0.062965
v 0.287137 0.283390 -0.063084
v 0.287137 0.269663 -0.053138
v 0.289506 0.271695 -0.053248
v 0.292124 0.275088 -0.054256
v 0.292124 0.284268 -0.060562
v 0.289728 0.285065 -0.062471
v 0.287137 0.283236 -0.063004
v 0.287137 0.271821 -0.055192
v 0.289231 0.276502 -0.057598
v 0.292112 0.278189 -0.056765
v 0.292124 0.278176 -0.056745
v 0.287137 0.273133 -0.056329
v 0.292124 0.283138 -0.059955
v 0.288385 0.282041 -0.061654
v 0.287137 0.278607 -0.060320
v 0.287137 0.277969 -0.059900
v 0.287137 0.278400 -0.060191
v 0.290790 0.279526 -0.058628
v 0.292124 0.278209 -0.056771
v 0.287137 0.274161 -0.057136
v 0.292124 0.282687 -0.059684
v 0.292127 0.290997 -0.032045
v 0.308526 0.292062 -0.034374
v 0.307797 0.294418 -0.035088
v 0.292127 0.292062 -0.032929
v 0.292127 0.279683 -0.032045
v 0.294607 0.282993 -0.032045
v 0.305440 0.287528 -0.032870
v 0.310124 0.287302 -0.033744
v 0.312377 0.285639 -0.034896
v 0.311735 0.288666 -0.036585
v 0.310619 0.291636 -0.037824
v 0.310907 0.300862 -0.051077
v 0.307914 0.303525 -0.048625
v 0.299970 0.309194 -0.047649
v 0.296365 0.309284 -0.047695
v 0.292127 0.303844 -0.044078
v 0.292127 0.278466 -0.032416
v 0.305875 0.282546 -0.033701
v 0.309977 0.283820 -0.034121
v 0.312377 0.284840 -0.034896
v 0.312425 0.284644 -0.037416
v 0.312401 0.287302 -0.037824
v 0.312357 0.299162 -0.052621
v 0.312268 0.289838 -0.039609
v 0.308429 0.304012 -0.051028
v 0.303791 0.308420 -0.052173
v 0.302994 0.307765 -0.049147
v 0.301252 0.309624 -0.050808
v 0.296365 0.310546 -0.051028
v 0.293830 0.308481 -0.048449
v 0.292127 0.305507 -0.046765
v 0.304651 0.279957 -0.034562
v 0.292127 0.275668 -0.034433
v 0.307678 0.280735 -0.035168
v 0.311270 0.282562 -0.041956
v 0.308844 0.279740 -0.038192
v 0.312387 0.284832 -0.041956
v 0.312415 0.287528 -0.041956
v 0.312357 0.299162 -0.053421
v 0.308465 0.304094 -0.054184
v 0.303791 0.308420 -0.054382
v 0.300854 0.308985 -0.055762
v 0.296516 0.309067 -0.055670
v 0.293671 0.308559 -0.054230
v 0.293578 0.308805 -0.051028
v 0.292127 0.306925 -0.051028
v 0.292127 0.306712 -0.050191
v 0.292127 0.275549 -0.034522
v 0.297583 0.276471 -0.035353
v 0.300904 0.276958 -0.035974
v 0.295117 0.271240 -0.039263
v 0.300904 0.274922 -0.038241
v 0.303815 0.275807 -0.039066
v 0.312329 0.285094 -0.044384
v 0.309001 0.279543 -0.041956
v 0.306183 0.277274 -0.041956
v 0.312357 0.298658 -0.053421
v 0.304787 0.301136 -0.059147
v 0.304137 0.304606 -0.058567
v 0.305476 0.305864 -0.055796
v 0.302333 0.307629 -0.057409
v 0.299310 0.308129 -0.057977
v 0.298130 0.308129 -0.057977
v 0.295104 0.307601 -0.057254
v 0.292127 0.306126 -0.055274
v 0.292908 0.304577 -0.058835
v 0.292127 0.273263 -0.036514
v 0.292127 0.270728 -0.038775
v 0.292127 0.268860 -0.041716
v 0.295940 0.270637 -0.041956
v 0.298207 0.271850 -0.041956
v 0.300904 0.273644 -0.041956
v 0.303914 0.275709 -0.041956
v 0.308296 0.280129 -0.045051
v 0.309830 0.283222 -0.046231
v 0.308337 0.284373 -0.049486
v 0.308959 0.287798 -0.051009
v 0.303519 0.275926 -0.044616
v 0.303775 0.293185 -0.058403
v 0.304516 0.296601 -0.059024
v 0.307894 0.289490 -0.053477
v 0.300638 0.300903 -0.061362
v 0.300638 0.296610 -0.061433
v 0.298947 0.298129 -0.062483
v 0.298947 0.299231 -0.062483
v 0.300854 0.305942 -0.059024
v 0.296365 0.301833 -0.061680
v 0.296516 0.305925 -0.059184
v 0.292127 0.305266 -0.056534
v 0.293246 0.299436 -0.062625
v 0.292127 0.302660 -0.059793
v 0.292127 0.268724 -0.042080
v 0.292127 0.268700 -0.046098
v 0.292127 0.268786 -0.046586
v 0.305297 0.278564 -0.046345
v 0.307074 0.281350 -0.048072
v 0.305422 0.282997 -0.051000
v 0.306795 0.286462 -0.052510
v 0.295219 0.270908 -0.046494
v 0.297488 0.272546 -0.046494
v 0.302148 0.276999 -0.047639
v 0.301180 0.291829 -0.059425
v 0.298333 0.295102 -0.062245
v 0.302875 0.290162 -0.057656
v 0.305345 0.287798 -0.054468
v 0.295308 0.292869 -0.062860
v 0.292127 0.291649 -0.063598
v 0.296640 0.296610 -0.062881
v 0.292127 0.296847 -0.063261
v 0.296365 0.299563 -0.062644
v 0.292127 0.300665 -0.061195
v 0.292127 0.297482 -0.063132
v 0.292127 0.270666 -0.049601
v 0.294156 0.271600 -0.048816
v 0.304049 0.280023 -0.049493
v 0.303769 0.284648 -0.053733
v 0.302195 0.281624 -0.052516
v 0.299121 0.275811 -0.049184
v 0.296640 0.291640 -0.061794
v 0.299851 0.288556 -0.058530
v 0.293063 0.287528 -0.061766
v 0.294060 0.289842 -0.062353
v 0.301180 0.287237 -0.056988
v 0.298376 0.285533 -0.057677
v 0.292127 0.291264 -0.063502
v 0.292260 0.291640 -0.063558
v 0.292127 0.270768 -0.049761
v 0.299171 0.280281 -0.053659
v 0.292127 0.272825 -0.052044
v 0.294295 0.276020 -0.053449
v 0.300771 0.283079 -0.054589
v 0.293816 0.281010 -0.057649
v 0.292127 0.283136 -0.059953
v 0.292127 0.284267 -0.060562
v 0.292127 0.287528 -0.062261
v 0.292127 0.283013 -0.059879
v 0.292127 0.275090 -0.054255
v 0.292127 0.278175 -0.056744
v 0.292127 0.278212 -0.056772
v 0.292127 0.282689 -0.059682
v 0.287137 0.287901 -0.039358
v 0.287137 0.287901 -0.064754
v 0.267307 0.287901 -0.039358
v 0.287137 0.268737 -0.039358
v 0.287137 0.287526 -0.064775
v 0.283658 0.287526 -0.066380
v 0.283317 0.287901 -0.066484
v 0.267359 0.287674 -0.039358
v 0.267296 0.287901 -0.039667
v 0.264218 0.285242 -0.063203
v 0.264218 0.284127 -0.059717
v 0.264218 0.281624 -0.056896
v 0.264218 0.281457 -0.056726
v 0.264218 0.278876 -0.054276
v 0.264218 0.276986 -0.052668
v 0.264218 0.274338 -0.050728
v 0.264218 0.271569 -0.048827
v 0.264218 0.269023 -0.047428
v 0.264218 0.264679 -0.045653
v 0.264218 0.264060 -0.045440
v 0.264218 0.260612 -0.044658
v 0.264218 0.260304 -0.044635
v 0.284131 0.268142 -0.039358
v 0.271635 0.257935 -0.044134
v 0.287137 0.267561 -0.040571
v 0.287137 0.284969 -0.063733
v 0.282498 0.283189 -0.065502
v 0.280817 0.284835 -0.067059
v 0.281389 0.287526 -0.067149
v 0.281385 0.287901 -0.067137
v 0.268521 0.282987 -0.039358
v 0.267224 0.287901 -0.041955
v 0.264218 0.285231 -0.064640
v 0.264218 0.256009 -0.045290
v 0.266268 0.257730 -0.044087
v 0.282751 0.267951 -0.039358
v 0.269140 0.257733 -0.044054
v 0.264218 0.252451 -0.047608
v 0.264601 0.252564 -0.047617
v 0.281279 0.262159 -0.043787
v 0.287137 0.266035 -0.042763
v 0.287137 0.283387 -0.063086
v 0.279583 0.281811 -0.066457
v 0.276559 0.280101 -0.067194
v 0.278127 0.283189 -0.067595
v 0.273678 0.282987 -0.068640
v 0.278278 0.287901 -0.067481
v 0.269196 0.281047 -0.039358
v 0.267231 0.287901 -0.042709
v 0.267435 0.287901 -0.046503
v 0.265600 0.286109 -0.064640
v 0.268467 0.287901 -0.064712
v 0.266434 0.285504 -0.067188
v 0.264218 0.282912 -0.068236
v 0.264218 0.255563 -0.045464
v 0.279801 0.268708 -0.039358
v 0.278213 0.269378 -0.039358
v 0.273905 0.272376 -0.039358
v 0.270688 0.276858 -0.039358
v 0.264218 0.252292 -0.047955
v 0.267309 0.253248 -0.048339
v 0.281670 0.261865 -0.046494
v 0.287137 0.265958 -0.042949
v 0.287039 0.283323 -0.063110
v 0.287137 0.283231 -0.063002
v 0.285358 0.280395 -0.062568
v 0.278127 0.278533 -0.065577
v 0.275135 0.277074 -0.066463
v 0.272108 0.275481 -0.067272
v 0.273645 0.278533 -0.067760
v 0.264218 0.269427 -0.068185
v 0.264218 0.273913 -0.069691
v 0.264601 0.278452 -0.069904
v 0.264218 0.278437 -0.069949
v 0.277620 0.287901 -0.067544
v 0.277869 0.287901 -0.067526
v 0.269174 0.287901 -0.065308
v 0.269140 0.286187 -0.067526
v 0.264794 0.283097 -0.068260
v 0.264218 0.251736 -0.051297
v 0.267309 0.253248 -0.050063
v 0.283938 0.263295 -0.046494
v 0.287137 0.265412 -0.046587
v 0.287137 0.278604 -0.060322
v 0.280790 0.275881 -0.062562
v 0.270616 0.272458 -0.066442
v 0.267592 0.270949 -0.067302
v 0.264550 0.269416 -0.068026
v 0.264218 0.268793 -0.067868
v 0.273678 0.287104 -0.067847
v 0.273678 0.287901 -0.067350
v 0.264218 0.251884 -0.052073
v 0.265016 0.252185 -0.051360
v 0.266804 0.253541 -0.053091
v 0.281268 0.262045 -0.049710
v 0.287137 0.265869 -0.047797
v 0.287137 0.278398 -0.060190
v 0.286204 0.275127 -0.058588
v 0.279197 0.272858 -0.061547
v 0.276173 0.271434 -0.062514
v 0.266026 0.267926 -0.066398
v 0.264218 0.265260 -0.065727
v 0.264218 0.253354 -0.055567
v 0.271920 0.257662 -0.053710
v 0.279947 0.263019 -0.052734
v 0.286282 0.266156 -0.050030
v 0.287137 0.267583 -0.050884
v 0.287137 0.277966 -0.059900
v 0.287137 0.274157 -0.057139
v 0.284515 0.272104 -0.057462
v 0.281490 0.270755 -0.058522
v 0.271529 0.267002 -0.062448
v 0.264218 0.264343 -0.065131
v 0.264218 0.255959 -0.058699
v 0.265694 0.254423 -0.055567
v 0.276923 0.261790 -0.054073
v 0.284755 0.267342 -0.053058
v 0.287137 0.268485 -0.051983
v 0.287137 0.273130 -0.056330
v 0.286480 0.270362 -0.054441
v 0.279756 0.267731 -0.057307
v 0.267228 0.257715 -0.058124
v 0.264218 0.259479 -0.061726
v 0.266822 0.262615 -0.062340
v 0.264218 0.262502 -0.063879
v 0.264218 0.256062 -0.058819
v 0.281728 0.266046 -0.054285
v 0.287137 0.269661 -0.053142
v 0.287137 0.271817 -0.055193
v 0.264218 0.260810 -0.062688
vn 0.998439 0.050102 -0.024697
vn -0.456557 0.888975 0.035782
vn 0.097822 0.366324 -0.925331
vn -0.191045 0.662277 -0.724494
vn -0.317477 0.783849 -0.533656
vn -0.440986 0.870461 -0.218697
vn -0.455314 0.890322 0.003887
vn -0.440259 0.892314 0.099735
vn -0.488849 0.869540 0.070196
vn 0.431242 -0.044411 -0.901143
vn 0.218282 0.066449 -0.973621
vn 0.191897 0.084056 -0.977809
vn 0.132560 0.158938 -0.978349
vn -0.177357 0.597595 -0.781936
vn -0.268098 0.711393 -0.649649
vn -0.330362 0.776000 -0.537295
vn -0.432060 0.849039 -0.304067
vn -0.508209 0.785438 0.353286
vn -0.370692 0.777204 0.508469
vn -0.517409 0.847923 0.115389
vn -0.526512 0.782431 0.332545
vn 0.249929 -0.023868 -0.967970
vn 0.650934 -0.197686 -0.732943
vn 0.338152 -0.216211 -0.915918
vn 0.290773 -0.138993 -0.946642
vn 0.250962 -0.067926 -0.965611
vn 0.117905 0.146148 -0.982211
vn -0.104663 0.474047 -0.874257
vn -0.271429 0.696733 -0.663996
vn -0.318090 0.753005 -0.576023
vn -0.446742 0.838277 -0.312590
vn -0.513768 0.713070 0.477048
vn -0.494144 0.642451 0.585729
vn 0.512410 0.643720 0.568384
vn -0.534940 0.817393 0.213792
vn -0.521173 0.717601 0.461983
vn 0.950899 -0.106708 -0.290524
vn 0.383254 -0.272866 -0.882417
vn 0.405231 -0.363618 -0.838790
vn 0.382810 -0.324703 -0.864884
vn 0.346899 -0.258117 -0.901686
vn 0.264116 -0.099113 -0.959385
vn 0.156377 0.063706 -0.985641
vn 0.027650 0.260792 -0.964999
vn -0.081814 0.366375 -0.926863
vn -0.279282 0.682835 -0.675084
vn -0.364477 0.775449 -0.515592
vn -0.369202 0.658291 -0.656005
vn -0.561939 0.765790 -0.312714
vn -0.497154 0.826119 -0.265264
vn -0.564043 0.825741 -0.002582
vn -0.506945 0.664388 0.549177
vn -0.488746 0.607799 0.625866
vn -0.482743 0.594930 0.642664
vn -0.473842 0.583224 0.659791
vn -0.121414 0.643189 0.756020
vn -0.499732 0.628155 0.596397
vn -0.574007 0.746058 0.337511
vn -0.509599 0.666021 0.544724
vn 0.958865 -0.113081 -0.260365
vn 0.682084 -0.327254 -0.653962
vn 0.420535 -0.390810 -0.818791
vn 0.411429 -0.382006 -0.827525
vn 0.423243 -0.416875 -0.804413
vn 0.397145 -0.353221 -0.847060
vn 0.382986 -0.344657 -0.857049
vn 0.331454 -0.371755 -0.867143
vn 0.302628 -0.326286 -0.895519
vn 0.133968 -0.096711 -0.986255
vn 0.019967 0.213662 -0.976704
vn -0.164940 0.086565 -0.982498
vn -0.580607 0.425293 -0.694278
vn -0.714374 0.697479 -0.056505
vn -0.659657 0.750067 -0.047461
vn -0.485669 0.598625 0.637004
vn -0.474828 0.571654 0.669141
vn 0.316062 0.598714 0.735967
vn -0.468488 0.555508 0.686972
vn -0.594403 0.632275 0.496903
vn -0.616448 0.545043 0.568261
vn -0.522228 0.567150 0.636882
vn -0.495999 0.577076 0.648821
vn -0.687821 0.677651 0.260177
vn 0.689466 -0.347838 -0.635331
vn 0.426798 -0.413758 -0.804144
vn 0.448438 -0.469706 -0.760447
vn 0.428494 -0.478615 -0.766369
vn 0.362797 -0.451083 -0.815415
vn 0.438171 -0.442784 -0.782271
vn 0.443491 -0.456862 -0.771098
vn 0.308323 -0.359168 -0.880872
vn 0.294969 -0.320789 -0.900049
vn 0.251513 -0.361849 -0.897667
vn 0.157342 -0.346940 -0.924595
vn 0.100307 -0.293977 -0.950535
vn -0.023133 -0.177495 -0.983850
vn -0.372006 -0.240082 -0.896645
vn -0.194358 -0.005190 -0.980917
vn -0.548990 0.070363 -0.832862
vn -0.834720 0.336346 -0.436021
vn -0.837062 0.500397 0.221201
vn -0.466469 0.547851 0.694453
vn -0.067974 0.619330 0.782183
vn -0.465483 0.547075 0.695726
vn -0.676036 0.576010 0.459551
vn -0.723194 0.478893 0.497647
vn -0.702399 0.439783 0.559667
vn -0.604253 0.465763 0.646485
vn -0.524450 0.545292 0.653918
vn -0.457934 0.517508 0.722829
vn 0.618731 -0.420318 -0.663705
vn 0.463141 -0.511307 -0.723924
vn 0.451322 -0.476421 -0.754541
vn 0.456179 -0.488757 -0.743652
vn 0.440194 -0.491633 -0.751349
vn 0.471757 -0.546392 -0.692027
vn 0.375933 -0.599989 -0.706178
vn 0.275214 -0.649354 -0.708940
vn 0.083282 -0.691493 -0.717567
vn 0.023623 -0.535779 -0.844028
vn 0.176740 -0.409672 -0.894948
vn 0.413931 -0.576069 -0.704845
vn -0.066874 -0.407501 -0.910753
vn -0.042541 -0.203788 -0.978090
vn -0.411340 -0.590659 -0.694206
vn -0.478758 -0.438631 -0.760522
vn -0.713145 -0.354224 -0.604938
vn -0.879551 -0.012174 -0.475650
vn -0.999378 0.012707 0.032911
vn -0.828021 0.285896 0.482332
vn -0.457880 0.523041 0.718869
vn -0.420000 0.547780 0.723559
vn -0.410423 0.559213 0.720301
vn -0.733987 0.359594 0.576156
vn -0.446468 0.417103 0.791638
vn -0.453263 0.498994 0.738619
vn -0.447929 0.494320 0.744988
vn 0.795764 -0.330184 -0.507680
vn 0.472395 -0.535256 -0.700246
vn 0.820295 -0.334837 -0.463681
vn 0.484106 -0.576663 -0.658104
vn 0.477699 -0.551977 -0.683466
vn 0.490161 -0.588003 -0.643425
vn 0.363954 -0.627011 -0.688763
vn 0.397473 -0.607402 -0.687807
vn 0.516353 -0.748543 -0.416007
vn 0.213621 -0.679805 -0.701592
vn 0.143463 -0.713865 -0.685431
vn -0.054825 -0.742897 -0.667157
vn -0.169061 -0.674291 -0.718853
vn -0.141335 -0.525266 -0.839119
vn 0.490036 -0.613979 -0.618785
vn -0.574305 -0.658573 -0.486266
vn -0.584225 -0.642563 -0.495777
vn -0.619094 -0.579994 -0.529461
vn -0.430367 -0.740668 -0.515941
vn -0.684504 -0.626002 -0.373599
vn -0.999777 -0.021046 0.001813
vn -0.983971 0.000222 0.178331
vn -0.888563 0.047821 0.456255
vn -0.452578 0.513061 0.729343
vn -0.445703 0.501600 0.741449
vn 0.618723 0.450507 0.643603
vn -0.666255 0.092764 0.739932
vn -0.506697 0.165672 0.846056
vn -0.385262 0.303691 0.871404
vn -0.410945 0.381220 0.828127
vn -0.390185 0.358110 0.848241
vn -0.403329 0.402835 0.821614
vn -0.432146 0.470504 0.769335
vn -0.359681 0.516165 0.777305
vn 0.478653 -0.532999 -0.697713
vn 0.479770 -0.547910 -0.685285
vn 0.481976 -0.555060 -0.677944
vn 0.992099 -0.076683 -0.099298
vn 0.877392 -0.320515 -0.357006
vn 0.507097 -0.595484 -0.623098
vn 0.506378 -0.631677 -0.586998
vn 0.501924 -0.623294 -0.599648
vn 0.504327 -0.632235 -0.588161
vn 0.533688 -0.833893 -0.140711
vn 0.458381 -0.888687 -0.011052
vn 0.011978 -0.999795 -0.016300
vn 0.027711 -0.861089 -0.507699
vn 0.515225 -0.659580 -0.547264
vn 0.532762 -0.669137 -0.518093
vn 0.542497 -0.809096 -0.225965
vn -0.251453 -0.901748 -0.351600
vn -0.583398 -0.811067 -0.042630
vn -0.771975 -0.635649 -0.002196
vn -0.937816 -0.196546 0.286129
vn -0.794414 -0.215494 0.567864
vn 0.677263 0.415448 0.607222
vn -0.495313 0.029068 0.868228
vn -0.306892 0.113539 0.944948
vn -0.310885 0.172203 0.934717
vn -0.378498 0.314866 0.870401
vn -0.381977 0.322671 0.866012
vn -0.376207 0.328990 0.866161
vn -0.366559 0.323356 0.872396
vn -0.390579 0.369927 0.842972
vn -0.377240 0.356741 0.854649
vn -0.360868 0.339568 0.868601
vn -0.367455 0.359852 0.857603
vn 0.920590 0.191561 0.340322
vn 0.567893 -0.520370 -0.637741
vn 0.984882 -0.123213 -0.121764
vn 0.512118 -0.857879 0.042165
vn 0.366539 -0.876594 0.311820
vn -0.000361 -0.765545 0.643383
vn -0.547622 -0.610412 0.572283
vn -0.425287 -0.905055 -0.002738
vn 0.998731 -0.047851 -0.015705
vn 0.788864 -0.614564 0.001953
vn 0.521540 -0.853218 0.004019
vn -0.739348 -0.529319 0.416157
vn -0.905071 -0.374024 0.202366
vn -0.565256 -0.096780 0.819219
vn -0.500755 -0.138849 0.854380
vn -0.321085 -0.165893 0.932407
vn -0.091754 -0.230482 0.968741
vn -0.258919 0.055033 0.964330
vn -0.125438 -0.133083 0.983135
vn -0.142754 -0.055837 0.988182
vn -0.202032 0.040644 0.978535
vn -0.241507 0.101631 0.965062
vn -0.280656 0.186092 0.941595
vn -0.337373 0.268482 0.902273
vn -0.358975 0.301393 0.883346
vn -0.339042 0.285572 0.896381
vn 0.621385 0.281221 0.731297
vn 0.999996 0.001073 0.002734
vn 0.999993 0.001731 0.003363
vn 0.501547 -0.856382 0.122725
vn 0.478652 -0.850897 0.216489
vn 0.314545 -0.738625 0.596234
vn 0.475450 -0.866547 0.151799
vn 0.135983 -0.537432 0.832271
vn 0.997488 -0.064992 0.028176
vn 0.005278 -0.322341 0.946609
vn -0.062087 -0.233171 0.970452
vn -0.088706 -0.176534 0.980289
vn -0.076124 -0.140651 0.987128
vn 0.890935 0.043873 0.452007
vn 0.970457 0.033908 0.238880
vn 0.460086 -0.824985 0.328208
vn 0.480155 -0.848463 0.222626
vn 0.255857 -0.641431 0.723259
vn 0.987230 -0.115704 0.109498
vn 0.139214 -0.376336 0.915964
vn 0.991132 -0.052453 0.122089
vn 0.949772 -0.131200 0.284113
vn 0.891808 0.448237 0.061334
vn -0.531621 0.792692 0.298361
vn -0.511484 0.666206 0.542728
vn -0.433162 0.879957 -0.195057
vn -0.406222 0.850251 -0.334748
vn -0.527937 0.836823 0.144948
vn -0.529572 0.817245 0.227299
vn -0.533032 0.804692 0.261435
vn -0.971818 0.224240 0.072712
vn -0.535825 0.746282 0.394910
vn -0.522505 0.686731 0.505361
vn -0.501862 0.645641 0.575570
vn -0.511077 0.630917 0.583733
vn 0.146632 0.605199 -0.782453
vn -0.297302 0.808103 -0.508508
vn -0.361065 0.828451 -0.428136
vn -0.254961 0.713555 -0.652560
vn -0.380888 0.801372 -0.461224
vn -0.542341 0.823150 -0.168196
vn -0.254810 0.723232 -0.641878
vn -0.533646 0.845147 0.030788
vn -0.492549 0.602283 0.628212
vn -0.497894 0.580247 0.644528
vn 0.725325 0.091742 -0.682266
vn 0.154573 0.155923 -0.975600
vn -0.000731 0.387499 -0.921870
vn -0.220713 0.673421 -0.705542
vn -0.135538 0.549194 -0.824630
vn -0.986899 0.114395 -0.113769
vn -0.480319 0.589294 0.649635
vn -0.493931 0.542497 0.679507
vn -0.473452 0.543026 0.693517
vn 0.868315 -0.114546 -0.482606
vn 0.346724 -0.080195 -0.934533
vn 0.253012 -0.042001 -0.966551
vn 0.127260 0.166419 -0.977809
vn 0.020148 0.342877 -0.939164
vn 0.064970 0.109319 -0.991881
vn -0.726735 0.035629 -0.685993
vn -0.491788 0.532322 0.689041
vn -0.447611 0.519767 0.727658
vn -0.486367 0.516215 0.704960
vn 0.761911 -0.241212 -0.601089
vn 0.397497 -0.294893 -0.868927
vn 0.324817 -0.197784 -0.924865
vn 0.294807 -0.137738 -0.945578
vn -0.361650 -0.248721 -0.898525
vn 0.315870 -0.182935 -0.931000
vn -0.443046 0.488058 0.752004
vn -0.465804 0.499898 0.730157
vn -0.582223 0.458865 0.671162
vn 0.702546 -0.332059 -0.629417
vn 0.407726 -0.377323 -0.831497
vn 0.365273 -0.285698 -0.885975
vn 0.350518 -0.258237 -0.900250
vn 0.346059 -0.248018 -0.904837
vn -0.133670 -0.352127 -0.926358
vn -0.435846 0.430746 0.790251
vn 0.114789 0.477206 0.871262
vn -0.474190 0.483575 0.735730
vn -0.465476 0.456199 0.758429
vn 0.804637 -0.322307 -0.498675
vn 0.440453 -0.452316 -0.775507
vn 0.413771 -0.398683 -0.818441
vn 0.392538 -0.351736 -0.849821
vn 0.366736 -0.293856 -0.882696
vn -0.094415 -0.401005 -0.911198
vn 0.393424 -0.356837 -0.847281
vn -0.384546 0.324978 0.864010
vn -0.375414 0.351363 0.857676
vn 0.473227 0.343295 0.811298
vn -0.418481 0.389196 0.820610
vn -0.696013 0.329051 0.638194
vn 0.768893 -0.355280 -0.531582
vn 0.462250 -0.489118 -0.739654
vn 0.445968 -0.465904 -0.764229
vn 0.443367 -0.460812 -0.768816
vn 0.439023 -0.453276 -0.775757
vn 0.431397 -0.441316 -0.786853
vn 0.404195 -0.381818 -0.831169
vn 0.397418 -0.365743 -0.841600
vn -0.118469 -0.438896 -0.890694
vn -0.335093 0.229150 0.913894
vn 0.152412 0.245417 0.957361
vn 0.237906 0.358272 0.902797
vn -0.367645 0.283501 0.885700
vn -0.692214 0.269849 0.669344
vn 0.812860 -0.328293 -0.481127
vn 0.477191 -0.506269 -0.718318
vn 0.843145 -0.315562 -0.435348
vn 0.885966 -0.284987 -0.365851
vn 0.482163 -0.520040 -0.705037
vn 0.495932 -0.557892 -0.665438
vn 0.467090 -0.519649 -0.715397
vn 0.452973 -0.490931 -0.744178
vn 0.444256 -0.469470 -0.763042
vn 0.441816 -0.461550 -0.769266
vn 0.446434 -0.476106 -0.757641
vn 0.444281 -0.475772 -0.759115
vn 0.443732 -0.476807 -0.758786
vn 0.437722 -0.470892 -0.765937
vn 0.105677 -0.521301 -0.846804
vn -0.188159 -0.478534 -0.857672
vn 0.416017 -0.425078 -0.803890
vn 0.414472 -0.418959 -0.807890
vn -0.293776 0.153069 0.943539
vn -0.122864 0.193658 0.973345
vn -0.321388 0.195499 0.926547
vn -0.783029 0.225106 0.579821
vn -0.847035 0.114019 0.519164
vn -0.341750 0.219112 0.913891
vn 0.880482 -0.324870 -0.345270
vn 0.510682 -0.629340 -0.585777
vn 0.483703 -0.561840 -0.671094
vn 0.467969 -0.531945 -0.705719
vn 0.457722 -0.504783 -0.731905
vn 0.450634 -0.491853 -0.744990
vn 0.441557 -0.478581 -0.758939
vn 0.443720 -0.484669 -0.753796
vn 0.442619 -0.484754 -0.754388
vn 0.445672 -0.494283 -0.746365
vn -0.962867 -0.147243 -0.226289
vn -0.132529 -0.115809 0.984390
vn 0.476731 -0.054710 0.877345
vn -0.326123 0.161090 0.931501
vn -0.264117 0.059483 0.962655
vn -0.129273 -0.175269 0.975997
vn -0.210727 -0.014848 0.977432
vn -0.896133 0.036229 0.442305
vn 0.962958 -0.236356 -0.129796
vn 0.551832 -0.636264 -0.539118
vn 0.514367 -0.611782 -0.600958
vn 0.499990 -0.607035 -0.617672
vn 0.529923 -0.701167 -0.477018
vn 0.513372 -0.654017 -0.555618
vn 0.499202 -0.615116 -0.610270
vn 0.476243 -0.557995 -0.679584
vn 0.463957 -0.531067 -0.709022
vn 0.451905 -0.507958 -0.733321
vn 0.457013 -0.541652 -0.705516
vn -0.974525 -0.132232 -0.181152
vn -0.004164 -0.294374 0.955681
vn 0.348830 -0.229722 0.908595
vn -0.090318 -0.149962 0.984558
vn -0.102223 -0.188867 0.976668
vn -0.983112 -0.071857 0.168305
vn -0.944367 -0.149637 0.292883
vn 0.090553 -0.513814 0.853109
vn 0.298069 -0.730290 0.614679
vn 0.954572 -0.282840 -0.093778
vn 0.553305 -0.769691 -0.318479
vn 0.543374 -0.766424 -0.342548
vn 0.542121 -0.773293 -0.328822
vn 0.536599 -0.753433 -0.380000
vn 0.520226 -0.688878 -0.504789
vn 0.499175 -0.627043 -0.598031
vn 0.490314 -0.602986 -0.629285
vn 0.472445 -0.562131 -0.678826
vn 0.482684 -0.604406 -0.633805
vn 0.209881 -0.635055 -0.743408
vn -0.994374 -0.064699 -0.083876
vn 0.261264 -0.644498 0.718584
vn 0.712380 -0.383327 0.587856
vn -0.813429 -0.477138 0.332676
vn 0.321900 -0.768112 0.553520
vn 0.407428 -0.832741 0.374892
vn 0.410839 -0.818567 0.401446
vn 0.965698 -0.258481 0.024807
vn 0.546063 -0.802348 -0.240943
vn 0.534666 -0.824968 -0.183196
vn 0.527228 -0.831951 -0.172879
vn 0.532476 -0.772300 -0.346442
vn 0.520198 -0.780320 -0.347125
vn 0.333606 -0.704751 -0.626125
vn 0.479212 -0.627070 -0.614116
vn -0.943844 -0.226784 -0.240267
vn 0.586099 -0.603131 0.541037
vn -0.981714 -0.169157 0.087315
vn 0.490145 -0.860686 0.137760
vn -0.953845 -0.294214 -0.060145
vn 0.522091 -0.846129 -0.107177
vn 0.496637 -0.848819 0.181265
vn 0.459477 -0.834037 0.305392
vn 0.891683 -0.437135 0.117539
vn 0.521333 -0.837975 -0.161278
vn 0.514939 -0.827698 -0.223054
vn -0.992476 -0.116253 -0.038429
vn -0.994727 -0.071970 -0.073064
vn -0.988776 0.064011 0.134996
vn 0.834341 0.400894 0.378364
vn 0.998601 0.039291 0.035375
vn 0.646764 0.690360 0.324190
vn 0.500486 0.821169 0.274219
vn -0.200735 0.979390 0.022361
vn -0.358980 0.927504 0.104256
vn -0.895671 -0.277565 0.347465
vn 0.858243 0.341197 0.383410
vn 0.868717 0.300689 0.393595
vn 0.983771 0.122675 0.130937
vn -0.249801 0.903013 -0.349525
vn -0.810940 0.570874 -0.128372
vn -0.743890 0.666211 -0.052820
vn -0.970752 -0.178995 0.160003
vn 0.208425 -0.709907 0.672749
vn 0.972468 -0.180996 0.146787
vn 0.984158 -0.117303 0.132938
vn 0.981319 -0.119849 0.150495
vn 0.052766 -0.080613 0.995348
vn 0.916968 0.000774 0.398959
vn 0.772171 0.504435 -0.386391
vn -0.912918 0.352947 -0.204960
vn -0.940134 0.301122 -0.159605
vn -0.910240 0.389409 -0.140799
vn -0.977631 -0.172668 0.120095
vn 0.353867 -0.803360 0.478949
vn 0.980705 -0.168192 0.099649
vn 0.999008 -0.024307 0.037312
vn 0.060221 -0.088268 0.994275
vn 0.906454 -0.001116 0.422304
vn 0.565904 0.582249 -0.583728
vn -0.877612 0.368463 -0.306648
vn -0.996237 -0.085548 0.013925
vn 0.491793 -0.857844 0.149141
vn 0.998417 -0.056204 0.002033
vn 0.016107 -0.011925 0.999799
vn 0.922346 0.209664 -0.324527
vn -0.966444 0.147525 -0.210291
vn -0.969308 0.172148 -0.175520
vn -0.988898 -0.148192 -0.010961
vn 0.552059 -0.815152 -0.175381
vn 0.997323 -0.073121 -0.000747
vn 0.802335 0.257774 -0.538341
vn -0.073173 0.388936 -0.918354
vn -0.996582 0.030552 -0.076753
vn -0.998451 -0.049654 -0.025089
vn 0.541506 -0.744074 -0.391312
vn 0.991423 -0.118371 -0.055395
vn 0.971801 0.018743 -0.235058
vn 0.270337 0.018896 -0.962580
vn -0.994499 -0.008826 -0.104374
vn -0.987707 -0.127666 -0.090200
vn 0.954058 -0.231784 -0.189867
vn 0.996413 -0.071772 -0.044839
vn 0.926364 -0.001520 -0.376627
vn 0.980343 -0.059194 -0.188212
vn 0.421421 -0.312295 -0.851396
vn -0.999991 -0.001599 -0.003913
vn -0.941746 -0.249639 -0.225376
vn 0.986663 -0.118700 -0.111380
vn 0.995490 -0.038515 -0.086692
vn 0.427300 -0.317287 -0.846607
vn -0.939126 -0.131771 -0.317298
vn -0.997946 -0.044439 -0.046144
vn 0.511686 -0.597814 -0.617087
vn 0.969488 -0.160524 -0.185272
vn 0.995444 -0.044375 -0.084392
vn 0.464096 -0.400813 -0.789914
vn -0.997738 -0.032537 -0.058829
vn -0.986787 -0.108350 -0.120463
vn 0.481251 -0.529593 -0.698519
vn 0.509786 -0.539874 -0.669817
vn 1.000000 -0.000294 -0.000365
vn -0.962150 -0.175552 -0.208443
vn 0.897309 -0.218897 -0.383303
vn 0.462849 -0.444262 -0.767074
vn -0.994254 -0.055248 -0.091691
vn -0.998326 -0.033818 -0.046922
vn -0.851046 -0.290714 -0.437271
vn 0.481966 -0.470754 -0.738985
vn 0.994699 -0.057608 -0.085182
vn -0.998333 -0.034292 -0.046433
vn 0.998624 -0.028458 -0.044058
vn -0.988523 0.027438 0.148558
vn 0.197265 0.270650 0.942250
vn 0.361419 0.652747 0.665806
vn -0.032788 0.654268 0.755551
vn 0.094854 -0.129863 0.986985
vn 0.061822 0.000000 0.998087
vn 0.120336 0.021994 0.992490
vn 0.300206 0.079211 0.950580
vn 0.890868 0.265366 0.368694
vn 0.828438 0.434414 0.353519
vn 0.813630 0.466911 0.346410
vn 0.807690 0.485730 0.334220
vn 0.628086 0.656976 0.417002
vn 0.175958 0.710079 0.681782
vn -0.147793 0.707171 0.691423
vn -0.456580 0.634209 0.623951
vn -0.101309 -0.466870 0.878504
vn 0.192045 -0.348060 0.917591
vn 0.196930 -0.208103 0.958077
vn 0.723301 -0.587738 0.362491
vn 0.996508 -0.083439 0.003030
vn 0.999777 0.017305 0.012081
vn 0.958172 0.265336 0.107256
vn 0.871219 0.394576 0.292039
vn 0.724022 0.678794 0.122597
vn 0.627869 0.759743 0.169032
vn 0.566977 0.745059 0.351318
vn 0.304364 0.951514 0.044552
vn -0.092423 0.995428 -0.024104
vn -0.587666 0.728094 0.352884
vn -0.982033 0.170844 0.080152
vn 0.237018 -0.559529 0.794197
vn -0.332993 -0.552050 0.764432
vn 0.420661 -0.699312 0.577934
vn 0.824359 -0.566049 0.004670
vn 0.677811 -0.706645 0.203042
vn 0.994920 -0.097974 -0.023125
vn 0.999972 -0.003033 -0.006856
vn 0.763309 0.297866 -0.573267
vn 0.726664 0.630522 -0.272767
vn 0.515701 0.821990 -0.241628
vn 0.154952 0.952101 -0.263615
vn -0.142345 0.921175 -0.362181
vn -0.591904 0.752415 -0.289001
vn -0.649338 0.759981 0.028085
vn -0.989895 0.141745 -0.003972
vn -0.989054 0.140015 0.046562
vn -0.471079 -0.566525 0.676117
vn 0.226312 -0.641460 0.733016
vn 0.240767 -0.651339 0.719576
vn 0.328231 -0.750037 0.574202
vn 0.374708 -0.737790 0.561479
vn 0.498237 -0.811589 0.305095
vn 0.830285 -0.374645 -0.412636
vn 0.711450 -0.682344 -0.168067
vn 0.604700 -0.796450 -0.002248
vn 0.783873 -0.237818 -0.573573
vn 0.560501 0.058934 -0.826054
vn 0.553840 0.389232 -0.736044
vn 0.614743 0.607585 -0.502923
vn 0.434047 0.672731 -0.599196
vn 0.095490 0.682023 -0.725070
vn -0.142676 0.656867 -0.740385
vn -0.387185 0.705942 -0.593072
vn -0.994135 0.098722 -0.044153
vn -0.460451 0.605754 -0.648881
vn -0.794071 -0.402072 0.455838
vn -0.802490 -0.423282 0.420526
vn -0.897168 -0.397128 0.193338
vn 0.446997 -0.871623 0.201166
vn 0.533944 -0.840774 -0.089462
vn 0.559518 -0.827452 -0.047564
vn 0.565862 -0.823113 -0.047809
vn 0.668542 -0.635156 -0.386818
vn 0.706998 -0.514277 -0.485461
vn 0.682291 -0.456003 -0.571437
vn 0.756377 -0.362786 -0.544316
vn 0.565443 -0.772570 -0.288808
vn 0.571917 -0.295790 -0.765127
vn 0.575645 -0.148495 -0.804103
vn 0.634589 -0.345079 -0.691533
vn 0.348749 0.308156 -0.885107
vn 0.503151 -0.151410 -0.850831
vn 0.376315 -0.073457 -0.923575
vn 0.199750 0.252926 -0.946641
vn 0.193229 0.446255 -0.873796
vn 0.033900 0.463937 -0.885219
vn -0.231515 0.561215 -0.794631
vn -0.999584 0.022872 -0.017543
vn -0.227210 0.499736 -0.835847
vn -0.998128 0.039011 -0.047097
vn -0.982280 -0.187294 0.006828
vn -0.952646 -0.303996 -0.007248
vn -0.705795 -0.676241 -0.211073
vn 0.550482 -0.674378 -0.492122
vn 0.593436 -0.595059 -0.541976
vn 0.554704 -0.535927 -0.636464
vn 0.581543 -0.469706 -0.664217
vn 0.527979 -0.742526 -0.412181
vn 0.535621 -0.698507 -0.474549
vn 0.536220 -0.675962 -0.505514
vn 0.453235 -0.365175 -0.813157
vn 0.437981 -0.273459 -0.856383
vn 0.512909 -0.407173 -0.755734
vn 0.545203 -0.426258 -0.721844
vn 0.328481 -0.216730 -0.919308
vn -0.972644 -0.000887 -0.232298
vn 0.103378 0.053071 -0.993225
vn -0.967759 0.020875 -0.251011
vn 0.035250 0.274147 -0.961041
vn -0.999318 0.020012 -0.031036
vn -0.995386 0.031993 -0.090455
vn -0.996809 -0.067704 -0.042279
vn 0.525718 -0.696459 -0.488431
vn 0.513091 -0.613873 -0.599915
vn 0.498957 -0.481565 -0.720512
vn 0.518301 -0.560682 -0.645756
vn 0.516700 -0.649208 -0.558167
vn 0.431368 -0.333130 -0.838419
vn 0.445794 -0.418888 -0.791075
vn 0.440910 -0.406058 -0.800447
vn 0.399827 -0.350622 -0.846878
vn 0.474671 -0.457790 -0.751742
vn 0.460883 -0.461147 -0.758242
vn -0.991022 -0.040785 -0.127328
vn 0.302847 -0.229967 -0.924878
vn -0.925332 -0.285390 -0.249627
vn 0.482375 -0.554703 -0.677952
vn -0.826503 -0.407463 -0.388415
vn 0.498353 -0.605315 -0.620675
vn 0.469661 -0.506788 -0.722900
vn 0.462133 -0.488345 -0.740238
vn -0.675380 -0.358828 -0.644286
vn -0.956575 -0.136671 -0.257460
vn -0.998081 -0.023218 -0.057400
vn -0.175995 -0.511931 -0.840805
vn -0.972304 -0.151615 -0.177869
vn -0.958066 -0.179871 -0.223061
vn -0.977187 -0.120424 -0.174938
vn -0.998038 -0.034018 -0.052566
vn 0.561989 0.712896 0.419461
vn 0.110113 0.993525 -0.027979
vn -0.977392 0.128300 0.168057
vn 0.305860 -0.302134 0.902865
vn 0.921658 -0.126848 -0.366682
vn 0.381285 -0.122603 -0.916292
vn 0.008039 0.999759 -0.020448
vn -0.174540 -0.043110 0.983706
vn -0.119144 0.992870 0.003810
vn -0.999810 0.019227 0.003308
vn -0.977058 0.184728 0.105991
vn -0.985367 0.127173 0.113486
vn -0.987158 0.110250 0.115605
vn -0.987613 0.105438 0.116201
vn -0.988751 0.092119 0.117833
vn -0.989339 0.084247 0.118787
vn -0.989981 0.074487 0.119959
vn -0.990921 0.056257 0.122113
vn -0.991193 0.049242 0.122931
vn -0.991676 0.030566 0.125076
vn -0.991730 0.026909 0.125491
vn -0.806004 -0.081547 0.586266
vn 0.030990 -0.172935 0.984446
vn 0.206280 -0.649950 0.731446
vn 0.748736 -0.492842 0.443285
vn 0.984433 -0.066404 -0.162732
vn 0.442906 -0.341456 -0.829000
vn 0.392773 -0.264285 -0.880842
vn 0.248653 -0.067084 -0.966267
vn 0.017736 0.990369 -0.137310
vn -0.225732 -0.067007 0.971882
vn -0.159210 0.987243 0.001920
vn -0.585459 0.799030 -0.137068
vn -0.996238 -0.014936 0.085368
vn -0.236259 -0.219081 0.946670
vn -0.006057 -0.231149 0.972899
vn 0.028213 -0.500136 0.865487
vn -0.964396 -0.157401 0.212522
vn 0.323349 -0.781141 0.534101
vn 0.393569 -0.804391 0.445038
vn 0.955014 -0.245851 0.165845
vn 0.960069 -0.110703 -0.256928
vn 0.433458 -0.390693 -0.812079
vn 0.362571 -0.322369 -0.874426
vn 0.270376 -0.174964 -0.946723
vn 0.163480 -0.007841 -0.986515
vn 0.019276 0.984542 -0.174085
vn -0.148054 -0.052357 0.987592
vn -0.110127 0.993904 -0.005107
vn -0.108922 0.994032 -0.006049
vn -0.532086 0.846153 -0.030156
vn -0.088339 0.995927 -0.018023
vn -0.443165 0.735914 -0.511893
vn -0.848489 0.358422 -0.389357
vn -0.979864 -0.109892 0.166707
vn -0.040102 -0.127564 0.991019
vn -0.067599 -0.108663 0.991778
vn -0.091533 -0.092070 0.991537
vn -0.125606 -0.068220 0.989732
vn -0.995764 -0.090276 0.017467
vn 0.449932 -0.869359 0.204392
vn 0.510975 -0.853829 0.099403
vn 0.941674 -0.330860 0.061491
vn 0.441816 -0.401650 -0.802169
vn 0.997229 -0.037216 -0.064407
vn 0.449713 -0.434678 -0.780265
vn 0.438066 -0.410407 -0.799790
vn 0.438203 -0.426248 -0.791386
vn 0.402176 -0.382797 -0.831698
vn 0.329076 -0.294157 -0.897319
vn -0.388969 -0.301414 -0.870547
vn -0.251253 -0.189850 -0.949120
vn 0.163193 -0.056060 -0.985000
vn -0.457419 0.226304 -0.859974
vn 0.015988 0.912117 -0.409618
vn 0.016538 0.984806 -0.172871
vn -0.034722 0.996988 -0.069344
vn -0.224880 0.625294 -0.747286
vn -0.124857 0.367386 -0.921650
vn -0.991780 -0.127534 0.010349
vn 0.522699 -0.845524 -0.108977
vn 0.538632 -0.840675 -0.056052
vn 0.974850 -0.221994 -0.019640
vn 0.978637 -0.107885 -0.175014
vn 0.456675 -0.473233 -0.753325
vn 0.443488 -0.443908 -0.778629
vn 0.437168 -0.446519 -0.780708
vn 0.394105 -0.390861 -0.831811
vn -0.949857 -0.157520 -0.270110
vn -0.073238 0.331999 -0.940432
vn -0.015523 0.998554 -0.051470
vn -0.993926 -0.103463 -0.037506
vn 0.485415 -0.858694 -0.164367
vn 0.518610 -0.794758 -0.315285
vn 0.545472 -0.788032 -0.285422
vn 0.984719 -0.160054 -0.068634
vn 0.779620 -0.348726 -0.520175
vn 0.476229 -0.507832 -0.717853
vn 0.468862 -0.498372 -0.729242
vn 0.456401 -0.485585 -0.745591
vn 0.447783 -0.476896 -0.756347
vn -0.988447 -0.079399 -0.129107
vn -0.975422 -0.186715 -0.117004
vn 0.522312 -0.704386 -0.480656
vn 0.534100 -0.679183 -0.503435
vn 0.566963 -0.686682 -0.454995
vn 0.995776 -0.073655 -0.054821
vn 0.999183 -0.023606 -0.032813
vn 0.995593 -0.056995 -0.074468
vn 0.489457 -0.552898 -0.674341
vn 0.477644 -0.530424 -0.700362
vn 0.464253 -0.506502 -0.726585
vn -0.443442 -0.497224 -0.745739
vn -0.971849 -0.180540 -0.151375
vn 0.505044 -0.666670 -0.548162
vn 0.510092 -0.643797 -0.570378
vn 0.524947 -0.616205 -0.587130
vn 0.988713 -0.108354 -0.103469
vn 0.985158 -0.110768 -0.131124
vn 0.506186 -0.573854 -0.643792
vn 0.499100 -0.569595 -0.653040
vn 0.497088 -0.588310 -0.637804
vn -0.035943 -0.626490 -0.778600
vn 0.471180 -0.525473 -0.708426
vn -0.754933 -0.371628 -0.540341
vn -0.977957 -0.136171 -0.158295
vn 0.503826 -0.580747 -0.639447
vn 0.999593 -0.019796 -0.020546
vn 0.999591 -0.019355 -0.021058
vn -0.978715 -0.119038 -0.167172
f 1//1 2//2 8//8
f 1//1 8//8 19//19
f 1//1 19//19 34//34
f 1//1 34//34 56//56
f 1//1 56//56 77//77
f 1//1 77//77 103//103
f 1//1 103//103 133//133
f 1//1 133//133 132//132
f 1//1 132//132 163//163
f 1//1 163//163 193//193
f 1//1 193//193 171//171
f 1//1 171//171 205//205
f 1//1 205//205 233//233
f 1//1 233//233 232//232
f 1//1 232//232 231//231
f 1//1 231//231 245//245
f 1//1 245//245 244//244
f 1//1 244//244 251//251
f 1//1 251//251 252//252
f 1//1 252//252 249//249
f 1//1 249//249 239//239
f 1//1 239//239 214//214
f 1//1 214//214 213//213
f 1//1 213//213 186//186
f 1//1 186//186 207//207
f 1//1 207//207 176//176
f 1//1 176//176 206//206
f 1//1 206//206 175//175
f 1//1 175//175 140//140
f 1//1 140//140 138//138
f 1//1 138//138 111//111
f 1//1 111//111 84//84
f 1//1 84//84 61//61
f 1//1 61//61 60//60
f 1//1 60//60 37//37
f 1//1 37//37 23//23
f 1//1 23//23 10//10
f 1//1 10//10 3//3
f 1//1 3//3 4//4
f 1//1 4//4 5//5
f 1//1 5//5 6//6
f 1//1 6//6 7//7
f 1//1 7//7 2//2
f 2//2 7//7 9//9
f 2//2 9//9 8//8
f 3//3 10//10 11//11
f 3//3 11//11 12//12
f 3//3 12//12 13//13
f 3//3 13//13 14//14
f 3//3 14//14 4//4
f 4//4 14//14 15//15
f 4//4 15//15 5//5
f 5//5 15//15 16//16
f 5//5 16//16 6//6
f 6//6 9//9 7//7
f 6//6 16//16 17//17
f 6//6 17//17 20//20
f 6//6 20//20 9//9
f 8//8 18//18 19//19
f 8//8 9//9 18//18
f 9//9 20//20 21//21
f 9//9 21//21 18//18
f 10//10 22//22 11//11
f 10//10 23//23 24//24
f 10//10 24//24 25//25
f 10//10 25//25 22//22
f 11//11 22//22 12//12
f 12//12 22//22 26//26
f 12//12 26//26 13//13
f 13//13 26//26 27//27
f 13//13 27//27 14//14
f 14//14 27//27 28//28
f 14//14 28//28 29//29
f 14//14 29//29 30//30
f 14//14 30//30 15//15
f 15//15 30//30 16//16
f 16//16 30//30 17//17
f 17//17 30//30 31//31
f 17//17 31//31 35//35
f 17//17 35//35 20//20
f 18//18 21//21 32//32
f 18//18 32//32 19//19
f 19//19 33//33 34//34
f 19//19 32//32 33//33
f 20//20 35//35 21//21
f 21//21 35//35 36//36
f 21//21 36//36 32//32
f 22//22 25//25 26//26
f 23//23 37//37 38//38
f 23//23 38//38 24//24
f 24//24 38//38 39//39
f 24//24 39//39 40//40
f 24//24 40//40 41//41
f 24//24 41//41 25//25
f 25//25 41//41 42//42
f 25//25 42//42 26//26
f 26//26 42//42 27//27
f 27//27 42//42 43//43
f 27//27 43//43 44//44
f 27//27 44//44 28//28
f 28//28 44//44 45//45
f 28//28 45//45 46//46
f 28//28 46//46 29//29
f 29//29 46//46 47//47
f 29//29 47//47 30//30
f 30//30 47//47 31//31
f 31//31 47//47 48//48
f 31//31 48//48 49//49
f 31//31 49//49 50//50
f 31//31 50//50 51//51
f 31//31 51//51 35//35
f 32//32 52//52 33//33
f 32//32 36//36 52//52
f 33//33 53//53 54//54
f 33//33 54//54 55//55
f 33//33 55//55 56//56
f 33//33 56//56 34//34
f 33//33 52//52 57//57
f 33//33 57//57 53//53
f 35//35 51//51 58//58
f 35//35 58//58 36//36
f 36//36 58//58 59//59
f 36//36 59//59 52//52
f 37//37 60//60 39//39
f 37//37 39//39 38//38
f 39//39 60//60 61//61
f 39//39 61//61 62//62
f 39//39 62//62 63//63
f 39//39 63//63 64//64
f 39//39 64//64 65//65
f 39//39 65//65 40//40
f 40//40 65//65 66//66
f 40//40 66//66 41//41
f 41//41 66//66 67//67
f 41//41 67//67 68//68
f 41//41 68//68 69//69
f 41//41 69//69 42//42
f 42//42 69//69 43//43
f 43//43 69//69 44//44
f 44//44 69//69 70//70
f 44//44 70//70 45//45
f 45//45 70//70 69//69
f 45//45 69//69 71//71
f 45//45 71//71 48//48
f 45//45 48//48 46//46
f 46//46 48//48 47//47
f 48//48 71//71 72//72
f 48//48 72//72 49//49
f 49//49 72//72 73//73
f 49//49 73//73 74//74
f 49//49 74//74 51//51
f 49//49 51//51 50//50
f 51//51 74//74 58//58
f 52//52 59//59 57//57
f 53//53 57//57 75//75
f 53//53 75//75 54//54
f 54//54 75//75 76//76
f 54//54 76//76 55//55
f 55//55 76//76 56//56
f 56//56 76//76 78//78
f 56//56 78//78 77//77
f 57//57 59//59 58//58
f 57//57 58//58 79//79
f 57//57 79//79 80//80
f 57//57 80//80 81//81
f 57//57 81//81 82//82
f 57//57 82//82 75//75
f 58//58 74//74 73//73
f 58//58 73//73 83//83
f 58//58 83//83 79//79
f 61//61 84//84 85//85
f 61//61 85//85 62//62
f 62//62 85//85 63//63
f 63//63 85//85 64//64
f 64//64 86//86 87//87
f 64//64 87//87 88//88
f 64//64 88//88 66//66
f 64//64 66//66 65//65
f 64//64 85//85 89//89
f 64//64 89//89 90//90
f 64//64 90//90 86//86
f 66//66 88//88 67//67
f 67//67 88//88 91//91
f 67//67 91//91 68//68
f 68//68 91//91 92//92
f 68//68 92//92 69//69
f 69//69 91//91 93//93
f 69//69 93//93 94//94
f 69//69 94//94 95//95
f 69//69 95//95 96//96
f 69//69 96//96 71//71
f 69//69 92//92 91//91
f 71//71 96//96 97//97
f 71//71 97//97 98//98
f 71//71 98//98 99//99
f 71//71 99//99 72//72
f 72//72 99//99 100//100
f 72//72 100//100 73//73
f 73//73 100//100 101//101
f 73//73 101//101 83//83
f 75//75 82//82 102//102
f 75//75 102//102 76//76
f 76//76 102//102 78//78
f 77//77 78//78 103//103
f 78//78 104//104 103//103
f 78//78 102//102 104//104
f 79//79 83//83 105//105
f 79//79 105//105 80//80
f 80//80 105//105 106//106
f 80//80 106//106 107//107
f 80//80 107//107 108//108
f 80//80 108//108 109//109
f 80//80 109//109 81//81
f 81//81 109//109 82//82
f 82//82 109//109 110//110
f 82//82 110//110 102//102
f 83//83 101//101 105//105
f 84//84 111//111 90//90
f 84//84 90//90 89//89
f 84//84 89//89 85//85
f 86//86 112//112 87//87
f 86//86 90//90 111//111
f 86//86 111//111 113//113
f 86//86 113//113 114//114
f 86//86 114//114 112//112
f 87//87 115//115 116//116
f 87//87 116//116 88//88
f 87//87 112//112 115//115
f 88//88 117//117 118//118
f 88//88 118//118 119//119
f 88//88 119//119 120//120
f 88//88 120//120 121//121
f 88//88 121//121 93//93
f 88//88 93//93 91//91
f 88//88 116//116 122//122
f 88//88 122//122 117//117
f 93//93 121//121 94//94
f 94//94 121//121 123//123
f 94//94 123//123 95//95
f 95//95 123//123 96//96
f 96//96 123//123 124//124
f 96//96 124//124 97//97
f 97//97 125//125 126//126
f 97//97 126//126 127//127
f 97//97 127//127 128//128
f 97//97 128//128 99//99
f 97//97 99//99 98//98
f 97//97 124//124 123//123
f 97//97 123//123 125//125
f 99//99 128//128 100//100
f 100//100 128//128 101//101
f 101//101 128//128 129//129
f 101//101 129//129 130//130
f 101//101 130//130 106//106
f 101//101 106//106 105//105
f 102//102 110//110 131//131
f 102//102 131//131 132//132
f 102//102 132//132 133//133
f 102//102 133//133 104//104
f 103//103 104//104 133//133
f 106//106 130//130 107//107
f 107//107 130//130 108//108
f 108//108 130//130 134//134
f 108//108 134//134 135//135
f 108//108 135//135 110//110
f 108//108 110//110 109//109
f 110//110 135//135 136//136
f 110//110 136//136 137//137
f 110//110 137//137 131//131
f 111//111 138//138 114//114
f 111//111 114//114 113//113
f 112//112 116//116 115//115
f 112//112 114//114 139//139
f 112//112 139//139 116//116
f 114//114 138//138 140//140
f 114//114 140//140 139//139
f 116//116 141//141 122//122
f 116//116 139//139 142//142
f 116//116 142//142 143//143
f 116//116 143//143 141//141
f 117//117 144//144 118//118
f 117//117 122//122 145//145
f 117//117 145//145 144//144
f 118//118 144//144 146//146
f 118//118 146//146 147//147
f 118//118 147//147 119//119
f 119//119 147//147 148//148
f 119//119 148//148 149//149
f 119//119 149//149 150//150
f 119//119 150//150 120//120
f 120//120 150//150 151//151
f 120//120 151//151 123//123
f 120//120 123//123 121//121
f 122//122 141//141 152//152
f 122//122 152//152 145//145
f 123//123 151//151 125//125
f 125//125 153//153 154//154
f 125//125 154//154 155//155
f 125//125 155//155 127//127
f 125//125 127//127 126//126
f 125//125 151//151 150//150
f 125//125 150//150 156//156
f 125//125 156//156 153//153
f 127//127 155//155 157//157
f 127//127 157//157 158//158
f 127//127 158//158 128//128
f 128//128 158//158 129//129
f 129//129 158//158 159//159
f 129//129 159//159 130//130
f 130//130 160//160 135//135
f 130//130 135//135 134//134
f 130//130 159//159 160//160
f 131//131 137//137 161//161
f 131//131 161//161 162//162
f 131//131 162//162 163//163
f 131//131 163//163 132//132
f 135//135 160//160 164//164
f 135//135 164//164 165//165
f 135//135 165//165 166//166
f 135//135 166//166 167//167
f 135//135 167//167 137//137
f 135//135 137//137 136//136
f 137//137 167//167 168//168
f 137//137 168//168 169//169
f 137//137 169//169 170//170
f 137//137 170//170 171//171
f 137//137 171//171 162//162
f 137//137 162//162 161//161
f 139//139 140//140 172//172
f 139//139 172//172 173//173
f 139//139 173//173 174//174
f 139//139 174//174 142//142
f 140//140 175//175 172//172
f 141//141 143//143 152//152
f 142//142 174//174 143//143
f 143//143 174//174 176//176
f 143//143 176//176 177//177
f 143//143 177//177 178//178
f 143//143 178//178 179//179
f 143//143 179//179 180//180
f 143//143 180//180 152//152
f 144//144 145//145 152//152
f 144//144 152//152 146//146
f 146//146 181//181 182//182
f 146//146 182//182 183//183
f 146//146 183//183 184//184
f 146//146 184//184 148//148
f 146//146 148//148 147//147
f 146//146 152//152 180//180
f 146//146 180//180 185//185
f 146//146 185//185 186//186
f 146//146 186//186 187//187
f 146//146 187//187 181//181
f 148//148 184//184 149//149
f 149//149 184//184 188//188
f 149//149 188//188 156//156
f 149//149 156//156 150//150
f 153//153 157//157 154//154
f 153//153 156//156 157//157
f 154//154 157//157 155//155
f 156//156 189//189 190//190
f 156//156 190//190 157//157
f 156//156 188//188 189//189
f 157//157 191//191 158//158
f 157//157 190//190 191//191
f 158//158 191//191 159//159
f 159//159 191//191 160//160
f 160//160 191//191 192//192
f 160//160 192//192 164//164
f 162//162 171//171 193//193
f 162//162 193//193 163//163
f 164//164 192//192 194//194
f 164//164 194//194 166//166
f 164//164 166//166 165//165
f 166//166 194//194 195//195
f 166//166 195//195 196//196
f 166//166 196//196 197//197
f 166//166 197//197 198//198
f 166//166 198//198 168//168
f 166//166 168//168 167//167
f 168//168 198//198 199//199
f 168//168 199//199 200//200
f 168//168 200//200 201//201
f 168//168 201//201 169//169
f 169//169 201//201 202//202
f 169//169 202//202 203//203
f 169//169 203//203 204//204
f 169//169 204//204 205//205
f 169//169 205//205 170//170
f 170//170 205//205 171//171
f 172//172 175//175 206//206
f 172//172 206//206 173//173
f 173//173 206//206 174//174
f 174//174 206//206 176//176
f 176//176 207//207 177//177
f 177//177 207//207 185//185
f 177//177 185//185 178//178
f 178//178 185//185 180//180
f 178//178 180//180 179//179
f 181//181 208//208 182//182
f 181//181 187//187 208//208
f 182//182 208//208 209//209
f 182//182 209//209 183//183
f 183//183 209//209 210//210
f 183//183 210//210 211//211
f 183//183 211//211 212//212
f 183//183 212//212 188//188
f 183//183 188//188 184//184
f 185//185 207//207 186//186
f 186//186 213//213 187//187
f 187//187 213//213 214//214
f 187//187 214//214 215//215
f 187//187 215//215 208//208
f 188//188 212//212 189//189
f 189//189 212//212 211//211
f 189//189 211//211 190//190
f 190//190 211//211 216//216
f 190//190 216//216 192//192
f 190//190 192//192 217//217
f 190//190 217//217 191//191
f 191//191 217//217 192//192
f 192//192 218//218 194//194
f 192//192 216//216 211//211
f 192//192 211//211 219//219
f 192//192 219//219 218//218
f 194//194 219//219 195//195
f 194//194 218//218 219//219
f 195//195 219//219 220//220
f 195//195 220//220 221//221
f 195//195 221//221 222//222
f 195//195 222//222 196//196
f 196//196 223//223 224//224
f 196//196 224//224 225//225
f 196//196 225//225 226//226
f 196//196 226//226 227//227
f 196//196 227//227 228//228
f 196//196 228//228 200//200
f 196//196 200//200 229//229
f 196//196 229//229 199//199
f 196//196 199//199 197//197
f 196//196 222//222 221//221
f 196//196 221//221 223//223
f 197//197 199//199 198//198
f 199//199 229//229 200//200
f 200//200 228//228 227//227
f 200//200 227//227 230//230
f 200//200 230//230 231//231
f 200//200 231//231 203//203
f 200//200 203//203 202//202
f 200//200 202//202 201//201
f 203//203 231//231 204//204
f 204//204 231//231 232//232
f 204//204 232//232 233//233
f 204//204 233//233 205//205
f 208//208 215//215 214//214
f 208//208 214//214 234//234
f 208//208 234//234 235//235
f 208//208 235//235 236//236
f 208//208 236//236 237//237
f 208//208 237//237 209//209
f 209//209 237//237 236//236
f 209//209 236//236 238//238
f 209//209 238//238 210//210
f 210//210 238//238 221//221
f 210//210 221//221 211//211
f 211//211 221//221 220//220
f 211//211 220//220 219//219
f 214//214 239//239 234//234
f 221//221 238//238 240//240
f 221//221 240//240 241//241
f 221//221 241//241 223//223
f 223//223 241//241 242//242
f 223//223 242//242 224//224
f 224//224 242//242 240//240
f 224//224 240//240 243//243
f 224//224 243//243 225//225
f 225//225 243//243 244//244
f 225//225 244//244 227//227
f 225//225 227//227 226//226
f 227//227 244//244 245//245
f 227//227 245//245 230//230
f 230//230 245//245 231//231
f 234//234 239//239 246//246
f 234//234 246//246 247//247
f 234//234 247//247 235//235
f 235//235 247//247 246//246
f 235//235 246//246 248//248
f 235//235 248//248 236//236
f 236//236 248//248 238//238
f 238//238 248//248 240//240
f 239//239 249//249 246//246
f 240//240 248//248 250//250
f 240//240 250//250 243//243
f 240//240 242//242 241//241
f 243//243 251//251 244//244
f 243//243 250//250 251//251
f 246//246 249//249 248//248
f 248//248 249//249 252//252
f 248//248 252//252 250//250
f 250//250 252//252 251//251
f 253//253 254//254 255//255
f 253//253 255//255 264//264
f 253//253 264//264 274//274
f 253//253 274//274 282//282
f 253//253 282//282 284//284
f 253//253 284//284 293//293
f 253//253 293//293 301//301
f 253//253 301//301 311//311
f 253//253 311//311 323//323
f 253//253 323//323 337//337
f 253//253 337//337 336//336
f 253//253 336//336 359//359
f 253//253 359//359 376//376
f 253//253 376//376 395//395
f 253//253 395//395 415//415
f 253//253 415//415 429//429
f 253//253 429//429 436//436
f 253//253 436//436 420//420
f 253//253 420//420 402//402
f 253//253 402//402 382//382
f 253//253 382//382 364//364
f 253//253 364//364 343//343
f 253//253 343//343 342//342
f 253//253 342//342 340//340
f 253//253 340//340 326//326
f 253//253 326//326 314//314
f 253//253 314//314 304//304
f 253//253 304//304 295//295
f 253//253 295//295 285//285
f 253//253 285//285 276//276
f 253//253 276//276 266//266
f 253//253 266//266 256//256
f 253//253 256//256 257//257
f 253//253 257//257 258//258
f 253//253 258//258 254//254
f 254//254 258//258 259//259
f 254//254 259//259 260//260
f 254//254 260//260 261//261
f 254//254 261//261 262//262
f 254//254 262//262 263//263
f 254//254 263//263 255//255
f 255//255 263//263 265//265
f 255//255 265//265 264//264
f 256//256 266//266 267//267
f 256//256 267//267 268//268
f 256//256 268//268 257//257
f 257//257 269//269 270//270
f 257//257 270//270 271//271
f 257//257 271//271 258//258
f 257//257 268//268 272//272
f 257//257 272//272 269//269
f 258//258 271//271 273//273
f 258//258 273//273 261//261
f 258//258 261//261 260//260
f 258//258 260//260 259//259
f 261//261 273//273 271//271
f 261//261 271//271 281//281
f 261//261 281//281 291//291
f 261//261 291//291 299//299
f 261//261 299//299 309//309
f 261//261 309//309 319//319
f 261//261 319//319 334//334
f 261//261 334//334 355//355
f 261//261 355//355 354//354
f 261//261 354//354 374//374
f 261//261 374//374 393//393
f 261//261 393//393 413//413
f 261//261 413//413 412//412
f 261//261 412//412 428//428
f 261//261 428//428 440//440
f 261//261 440//440 426//426
f 261//261 426//426 439//439
f 261//261 439//439 432//432
f 261//261 432//432 430//430
f 261//261 430//430 416//416
f 261//261 416//416 399//399
f 261//261 399//399 398//398
f 261//261 398//398 381//381
f 261//261 381//381 362//362
f 261//261 362//362 361//361
f 261//261 361//361 339//339
f 261//261 339//339 325//325
f 261//261 325//325 313//313
f 261//261 313//313 312//312
f 261//261 312//312 303//303
f 261//261 303//303 294//294
f 261//261 294//294 292//292
f 261//261 292//292 283//283
f 261//261 283//283 275//275
f 261//261 275//275 265//265
f 261//261 265//265 262//262
f 262//262 265//265 263//263
f 264//264 265//265 274//274
f 265//265 275//275 274//274
f 266//266 276//276 277//277
f 266//266 277//277 278//278
f 266//266 278//278 272//272
f 266//266 272//272 267//267
f 267//267 272//272 268//268
f 269//269 279//279 270//270
f 269//269 272//272 279//279
f 270//270 279//279 280//280
f 270//270 280//280 271//271
f 271//271 280//280 281//281
f 272//272 278//278 280//280
f 272//272 280//280 279//279
f 274//274 275//275 282//282
f 275//275 283//283 284//284
f 275//275 284//284 282//282
f 276//276 285//285 286//286
f 276//276 286//286 287//287
f 276//276 287//287 277//277
f 277//277 287//287 288//288
f 277//277 288//288 278//278
f 278//278 288//288 289//289
f 278//278 289//289 280//280
f 280//280 289//289 290//290
f 280//280 290//290 281//281
f 281//281 290//290 291//291
f 283//283 292//292 284//284
f 284//284 292//292 294//294
f 284//284 294//294 293//293
f 285//285 295//295 296//296
f 285//285 296//296 297//297
f 285//285 297//297 286//286
f 286//286 297//297 287//287
f 287//287 297//297 298//298
f 287//287 298//298 288//288
f 288//288 298//298 291//291
f 288//288 291//291 290//290
f 288//288 290//290 289//289
f 291//291 298//298 300//300
f 291//291 300//300 299//299
f 293//293 294//294 302//302
f 293//293 302//302 301//301
f 294//294 303//303 302//302
f 295//295 304//304 305//305
f 295//295 305//305 306//306
f 295//295 306//306 296//296
f 296//296 306//306 297//297
f 297//297 306//306 307//307
f 297//297 307//307 308//308
f 297//297 308//308 300//300
f 297//297 300//300 298//298
f 299//299 307//307 309//309
f 299//299 300//300 308//308
f 299//299 308//308 307//307
f 301//301 310//310 311//311
f 301//301 302//302 312//312
f 301//301 312//312 313//313
f 301//301 313//313 310//310
f 302//302 303//303 312//312
f 304//304 314//314 315//315
f 304//304 315//315 316//316
f 304//304 316//316 305//305
f 305//305 316//316 317//317
f 305//305 317//317 306//306
f 306//306 317//317 318//318
f 306//306 318//318 307//307
f 307//307 318//318 309//309
f 309//309 318//318 317//317
f 309//309 317//317 320//320
f 309//309 320//320 319//319
f 310//310 321//321 322//322
f 310//310 322//322 323//323
f 310//310 323//323 311//311
f 310//310 313//313 324//324
f 310//310 324//324 321//321
f 313//313 325//325 324//324
f 314//314 326//326 327//327
f 314//314 327//327 315//315
f 315//315 327//327 328//328
f 315//315 328//328 329//329
f 315//315 329//329 330//330
f 315//315 330//330 331//331
f 315//315 331//331 316//316
f 316//316 331//331 332//332
f 316//316 332//332 333//333
f 316//316 333//333 317//317
f 317//317 333//333 320//320
f 319//319 320//320 333//333
f 319//319 333//333 332//332
f 319//319 332//332 334//334
f 321//321 335//335 336//336
f 321//321 336//336 337//337
f 321//321 337//337 322//322
f 321//321 324//324 338//338
f 321//321 338//338 335//335
f 322//322 337//337 323//323
f 324//324 325//325 339//339
f 324//324 339//339 338//338
f 326//326 340//340 327//327
f 327//327 340//340 341//341
f 327//327 341//341 342//342
f 327//327 342//342 343//343
f 327//327 343//343 344//344
f 327//327 344//344 345//345
f 327//327 345//345 346//346
f 327//327 346//346 347//347
f 327//327 347//347 328//328
f 328//328 347//347 348//348
f 328//328 348//348 349//349
f 328//328 349//349 330//330
f 328//328 330//330 329//329
f 330//330 349//349 331//331
f 331//331 350//350 351//351
f 331//331 351//351 352//352
f 331//331 352//352 353//353
f 331//331 353//353 354//354
f 331//331 354//354 355//355
f 331//331 355//355 356//356
f 331//331 356//356 357//357
f 331//331 357//357 334//334
f 331//331 334//334 332//332
f 331//331 349//349 348//348
f 331//331 348//348 350//350
f 334//334 357//357 356//356
f 334//334 356//356 355//355
f 335//335 358//358 359//359
f 335//335 359//359 336//336
f 335//335 338//338 360//360
f 335//335 360//360 358//358
f 338//338 339//339 361//361
f 338//338 361//361 362//362
f 338//338 362//362 363//363
f 338//338 363//363 360//360
f 340//340 342//342 341//341
f 343//343 364//364 345//345
f 343//343 345//345 344//344
f 345//345 364//364 365//365
f 345//345 365//365 366//366
f 345//345 366//366 346//346
f 346//346 366//366 367//367
f 346//346 367//367 368//368
f 346//346 368//368 347//347
f 347//347 368//368 369//369
f 347//347 369//369 350//350
f 347//347 350//350 348//348
f 350//350 369//369 351//351
f 351//351 369//369 352//352
f 352//352 370//370 353//353
f 352//352 369//369 371//371
f 352//352 371//371 370//370
f 353//353 370//370 354//354
f 354//354 370//370 372//372
f 354//354 372//372 373//373
f 354//354 373//373 374//374
f 358//358 375//375 376//376
f 358//358 376//376 359//359
f 358//358 360//360 380//380
f 358//358 380//380 375//375
f 360//360 363//363 377//377
f 360//360 377//377 378//378
f 360//360 378//378 379//379
f 360//360 379//379 380//380
f 362//362 381//381 377//377
f 362//362 377//377 363//363
f 364//364 382//382 383//383
f 364//364 383//383 384//384
f 364//364 384//384 365//365
f 365//365 385//385 366//366
f 365//365 384//384 386//386
f 365//365 386//386 387//387
f 365//365 387//387 388//388
f 365//365 388//388 385//385
f 366//366 385//385 388//388
f 366//366 388//388 389//389
f 366//366 389//389 367//367
f 367//367 389//389 390//390
f 367//367 390//390 368//368
f 368//368 390//390 369//369
f 369//369 390//390 391//391
f 369//369 391//391 373//373
f 369//369 373//373 371//371
f 370//370 371//371 372//372
f 371//371 373//373 372//372
f 373//373 391//391 392//392
f 373//373 392//392 393//393
f 373//373 393//393 374//374
f 375//375 394//394 395//395
f 375//375 395//395 396//396
f 375//375 396//396 376//376
f 375//375 380//380 379//379
f 375//375 379//379 397//397
f 375//375 397//397 394//394
f 376//376 396//396 395//395
f 377//377 381//381 378//378
f 378//378 381//381 379//379
f 379//379 381//381 398//398
f 379//379 398//398 399//399
f 379//379 399//399 400//400
f 379//379 400//400 401//401
f 379//379 401//401 397//397
f 382//382 402//402 403//403
f 382//382 403//403 386//386
f 382//382 386//386 383//383
f 383//383 386//386 384//384
f 386//386 403//403 404//404
f 386//386 404//404 405//405
f 386//386 405//405 406//406
f 386//386 406//406 407//407
f 386//386 407//407 387//387
f 387//387 407//407 408//408
f 387//387 408//408 388//388
f 388//388 408//408 409//409
f 388//388 409//409 389//389
f 389//389 409//409 410//410
f 389//389 410//410 390//390
f 390//390 410//410 392//392
f 390//390 392//392 391//391
f 392//392 411//411 412//412
f 392//392 412//412 413//413
f 392//392 413//413 393//393
f 392//392 410//410 411//411
f 394//394 414//414 395//395
f 394//394 397//397 401//401
f 394//394 401//401 414//414
f 395//395 414//414 415//415
f 399//399 416//416 400//400
f 400//400 416//416 417//417
f 400//400 417//417 401//401
f 401//401 417//417 418//418
f 401//401 418//418 419//419
f 401//401 419//419 414//414
f 402//402 420//420 421//421
f 402//402 421//421 403//403
f 403//403 421//421 405//405
f 403//403 405//405 404//404
f 405//405 421//421 422//422
f 405//405 422//422 406//406
f 406//406 423//423 424//424
f 406//406 424//424 425//425
f 406//406 425//425 407//407
f 406//406 422//422 423//423
f 407//407 425//425 426//426
f 407//407 426//426 427//427
f 407//407 427//427 411//411
f 407//407 411//411 408//408
f 408//408 411//411 409//409
f 409//409 411//411 410//410
f 411//411 427//427 428//428
f 411//411 428//428 412//412
f 414//414 419//419 429//429
f 414//414 429//429 415//415
f 416//416 430//430 418//418
f 416//416 418//418 417//417
f 418//418 431//431 419//419
f 418//418 430//430 432//432
f 418//418 432//432 433//433
f 418//418 433//433 422//422
f 418//418 422//422 431//431
f 419//419 431//431 434//434
f 419//419 434//434 435//435
f 419//419 435//435 429//429
f 420//420 436//436 434//434
f 420//420 434//434 421//421
f 421//421 434//434 431//431
f 421//421 431//431 422//422
f 422//422 433//433 423//423
f 423//423 433//433 437//437
f 423//423 437//437 438//438
f 423//423 438//438 425//425
f 423//423 425//425 424//424
f 425//425 438//438 432//432
f 425//425 432//432 439//439
f 425//425 439//439 426//426
f 426//426 440//440 427//427
f 427//427 440//440 428//428
f 429//429 435//435 436//436
f 432//432 438//438 437//437
f 432//432 437//437 433//433
f 434//434 436//436 435//435
f 441//441 442//442 443//443
f 441//441 443//443 444//444
f 441//441 444//444 445//445
f 441//441 445//445 446//446
f 441//441 446//446 447//447
f 441//441 447//447 454//454
f 441//441 454//454 453//453
f 441//441 453//453 465//465
f 441//441 465//465 464//464
f 441//441 464//464 463//463
f 441//441 463//463 473//473
f 441//441 473//473 480//480
f 441//441 480//480 479//479
f 441//441 479//479 486//486
f 441//441 486//486 492//492
f 441//441 492//492 499//499
f 441//441 499//499 504//504
f 441//441 504//504 510//510
f 441//441 510//510 518//518
f 441//441 518//518 520//520
f 441//441 520//520 519//519
f 441//441 519//519 523//523
f 441//441 523//523 515//515
f 441//441 515//515 511//511
f 441//441 511//511 505//505
f 441//441 505//505 500//500
f 441//441 500//500 493//493
f 441//441 493//493 487//487
f 441//441 487//487 481//481
f 441//441 481//481 474//474
f 441//441 474//474 466//466
f 441//441 466//466 455//455
f 441//441 455//455 448//448
f 441//441 448//448 460//460
f 441//441 460//460 470//470
f 441//441 470//470 477//477
f 441//441 477//477 471//471
f 441//441 471//471 461//461
f 441//441 461//461 450//450
f 441//441 450//450 449//449
f 441//441 449//449 442//442
f 442//442 449//449 443//443
f 443//443 449//449 450//450
f 443//443 450//450 451//451
f 443//443 451//451 461//461
f 443//443 461//461 471//471
f 443//443 471//471 469//469
f 443//443 469//469 459//459
f 443//443 459//459 458//458
f 443//443 458//458 457//457
f 443//443 457//457 468//468
f 443//443 468//468 476//476
f 443//443 476//476 483//483
f 443//443 483//483 489//489
f 443//443 489//489 495//495
f 443//443 495//495 494//494
f 443//443 494//494 501//501
f 443//443 501//501 507//507
f 443//443 507//507 514//514
f 443//443 514//514 522//522
f 443//443 522//522 524//524
f 443//443 524//524 516//516
f 443//443 516//516 508//508
f 443//443 508//508 502//502
f 443//443 502//502 497//497
f 443//443 497//497 496//496
f 443//443 496//496 490//490
f 443//443 490//490 484//484
f 443//443 484//484 478//478
f 443//443 478//478 472//472
f 443//443 472//472 462//462
f 443//443 462//462 452//452
f 443//443 452//452 446//446
f 443//443 446//446 445//445
f 443//443 445//445 444//444
f 446//446 452//452 453//453
f 446//446 453//453 454//454
f 446//446 454//454 447//447
f 448//448 455//455 456//456
f 448//448 456//456 457//457
f 448//448 457//457 458//458
f 448//448 458//458 459//459
f 448//448 459//459 460//460
f 450//450 461//461 451//451
f 452//452 462//462 463//463
f 452//452 463//463 464//464
f 452//452 464//464 465//465
f 452//452 465//465 453//453
f 455//455 466//466 457//457
f 455//455 457//457 456//456
f 457//457 466//466 467//467
f 457//457 467//467 468//468
f 459//459 469//469 470//470
f 459//459 470//470 460//460
f 462//462 472//472 473//473
f 462//462 473//473 463//463
f 466//466 474//474 467//467
f 467//467 474//474 475//475
f 467//467 475//475 468//468
f 468//468 475//475 476//476
f 469//469 471//471 477//477
f 469//469 477//477 470//470
f 472//472 478//478 479//479
f 472//472 479//479 480//480
f 472//472 480//480 473//473
f 474//474 481//481 475//475
f 475//475 481//481 482//482
f 475//475 482//482 483//483
f 475//475 483//483 476//476
f 478//478 484//484 479//479
f 479//479 484//484 485//485
f 479//479 485//485 486//486
f 481//481 487//487 488//488
f 481//481 488//488 482//482
f 482//482 488//488 489//489
f 482//482 489//489 483//483
f 484//484 490//490 491//491
f 484//484 491//491 486//486
f 484//484 486//486 485//485
f 486//486 491//491 492//492
f 487//487 493//493 488//488
f 488//488 493//493 494//494
f 488//488 494//494 495//495
f 488//488 495//495 489//489
f 490//490 496//496 491//491
f 491//491 496//496 492//492
f 492//492 496//496 497//497
f 492//492 497//497 498//498
f 492//492 498//498 499//499
f 493//493 500//500 494//494
f 494//494 500//500 501//501
f 497//497 502//502 503//503
f 497//497 503//503 498//498
f 498//498 503//503 504//504
f 498//498 504//504 499//499
f 500//500 505//505 506//506
f 500//500 506//506 501//501
f 501//501 506//506 507//507
f 502//502 508//508 509//509
f 502//502 509//509 503//503
f 503//503 509//509 504//504
f 504//504 509//509 510//510
f 505//505 511//511 506//506
f 506//506 511//511 507//507
f 507//507 512//512 513//513
f 507//507 513//513 514//514
f 507//507 511//511 515//515
f 507//507 515//515 512//512
f 508//508 516//516 509//509
f 509//509 516//516 517//517
f 509//509 517//517 510//510
f 510//510 517//517 518//518
f 512//512 519//519 520//520
f 512//512 520//520 521//521
f 512//512 521//521 522//522
f 512//512 522//522 513//513
f 512//512 515//515 523//523
f 512//512 523//523 519//519
f 513//513 522//522 514//514
f 516//516 524//524 521//521
f 516//516 521//521 517//517
f 517//517 521//521 518//518
f 518//518 521//521 520//520
f 521//521 524//524 522//522
f 525//525 526//526 527//527
f 525//525 527//527 528//528
f 525//525 528//528 540//540
f 525//525 540//540 555//555
f 525//525 555//555 571//571
f 525//525 571//571 570//570
f 525//525 570//570 589//589
f 525//525 589//589 613//613
f 525//525 613//613 615//615
f 525//525 615//615 635//635
f 525//525 635//635 636//636
f 525//525 636//636 633//633
f 525//525 633//633 631//631
f 525//525 631//631 649//649
f 525//525 649//649 659//659
f 525//525 659//659 658//658
f 525//525 658//658 657//657
f 525//525 657//657 660//660
f 525//525 660//660 664//664
f 525//525 664//664 663//663
f 525//525 663//663 662//662
f 525//525 662//662 661//661
f 525//525 661//661 653//653
f 525//525 653//653 651//651
f 525//525 651//651 637//637
f 525//525 637//637 618//618
f 525//525 618//618 617//617
f 525//525 617//617 616//616
f 525//525 616//616 593//593
f 525//525 593//593 592//592
f 525//525 592//592 591//591
f 525//525 591//591 572//572
f 525//525 572//572 557//557
f 525//525 557//557 541//541
f 525//525 541//541 529//529
f 525//525 529//529 530//530
f 525//525 530//530 531//531
f 525//525 531//531 526//526
f 526//526 531//531 532//532
f 526//526 532//532 533//533
f 526//526 533//533 527//527
f 527//527 533//533 534//534
f 527//527 534//534 535//535
f 527//527 535//535 536//536
f 527//527 536//536 537//537
f 527//527 537//537 538//538
f 527//527 538//538 528//528
f 528//528 538//538 539//539
f 528//528 539//539 540//540
f 529//529 541//541 542//542
f 529//529 542//542 543//543
f 529//529 543//543 531//531
f 529//529 531//531 530//530
f 531//531 543//543 532//532
f 532//532 543//543 544//544
f 532//532 544//544 533//533
f 533//533 544//544 545//545
f 533//533 545//545 546//546
f 533//533 546//546 547//547
f 533//533 547//547 548//548
f 533//533 548//548 534//534
f 534//534 548//548 536//536
f 534//534 536//536 535//535
f 536//536 549//549 537//537
f 536//536 548//548 547//547
f 536//536 547//547 549//549
f 537//537 549//549 550//550
f 537//537 550//550 551//551
f 537//537 551//551 538//538
f 538//538 551//551 552//552
f 538//538 552//552 553//553
f 538//538 553//553 539//539
f 539//539 553//553 554//554
f 539//539 554//554 540//540
f 540//540 554//554 555//555
f 541//541 556//556 542//542
f 541//541 557//557 556//556
f 542//542 556//556 543//543
f 543//543 556//556 558//558
f 543//543 558//558 544//544
f 544//544 559//559 545//545
f 544//544 558//558 560//560
f 544//544 560//560 559//559
f 545//545 561//561 562//562
f 545//545 562//562 547//547
f 545//545 547//547 546//546
f 545//545 559//559 561//561
f 547//547 563//563 564//564
f 547//547 564//564 549//549
f 547//547 562//562 563//563
f 549//549 564//564 550//550
f 550//550 565//565 552//552
f 550//550 552//552 551//551
f 550//550 564//564 565//565
f 552//552 565//565 566//566
f 552//552 566//566 553//553
f 553//553 566//566 567//567
f 553//553 567//567 568//568
f 553//553 568//568 569//569
f 553//553 569//569 554//554
f 554//554 569//569 570//570
f 554//554 570//570 571//571
f 554//554 571//571 555//555
f 556//556 557//557 572//572
f 556//556 572//572 573//573
f 556//556 573//573 574//574
f 556//556 574//574 575//575
f 556//556 575//575 558//558
f 558//558 575//575 576//576
f 558//558 576//576 577//577
f 558//558 577//577 560//560
f 559//559 578//578 561//561
f 559//559 560//560 579//579
f 559//559 579//579 578//578
f 560//560 577//577 580//580
f 560//560 580//580 579//579
f 561//561 578//578 581//581
f 561//561 581//581 562//562
f 562//562 581//581 563//563
f 563//563 581//581 582//582
f 563//563 582//582 583//583
f 563//563 583//583 564//564
f 564//564 583//583 584//584
f 564//564 584//584 565//565
f 565//565 584//584 585//585
f 565//565 585//585 566//566
f 566//566 585//585 586//586
f 566//566 586//586 567//567
f 567//567 586//586 587//587
f 567//567 587//587 588//588
f 567//567 588//588 568//568
f 568//568 589//589 570//570
f 568//568 570//570 569//569
f 568//568 588//588 590//590
f 568//568 590//590 589//589
f 572//572 591//591 573//573
f 573//573 591//591 592//592
f 573//573 592//592 575//575
f 573//573 575//575 574//574
f 575//575 592//592 593//593
f 575//575 593//593 594//594
f 575//575 594//594 577//577
f 575//575 577//577 576//576
f 577//577 594//594 595//595
f 577//577 595//595 596//596
f 577//577 596//596 597//597
f 577//577 597//597 580//580
f 578//578 579//579 598//598
f 578//578 598//598 599//599
f 578//578 599//599 600//600
f 578//578 600//600 601//601
f 578//578 601//601 581//581
f 579//579 580//580 602//602
f 579//579 602//602 598//598
f 580//580 597//597 602//602
f 581//581 603//603 604//604
f 581//581 604//604 582//582
f 581//581 601//601 605//605
f 581//581 605//605 603//603
f 582//582 606//606 583//583
f 582//582 604//604 607//607
f 582//582 607//607 608//608
f 582//582 608//608 609//609
f 582//582 609//609 606//606
f 583//583 606//606 610//610
f 583//583 610//610 585//585
f 583//583 585//585 584//584
f 585//585 610//610 586//586
f 586//586 610//610 611//611
f 586//586 611//611 587//587
f 587//587 611//611 612//612
f 587//587 612//612 588//588
f 588//588 612//612 590//590
f 589//589 590//590 613//613
f 590//590 614//614 615//615
f 590//590 615//615 613//613
f 590//590 612//612 614//614
f 593//593 616//616 594//594
f 594//594 616//616 617//617
f 594//594 617//617 595//595
f 595//595 617//617 618//618
f 595//595 618//618 602//602
f 595//595 602//602 596//596
f 596//596 602//602 597//597
f 598//598 619//619 620//620
f 598//598 620//620 599//599
f 598//598 602//602 619//619
f 599//599 620//620 600//600
f 600//600 620//620 621//621
f 600//600 621//621 622//622
f 600//600 622//622 605//605
f 600//600 605//605 601//601
f 602//602 618//618 623//623
f 602//602 623//623 624//624
f 602//602 624//624 625//625
f 602//602 625//625 619//619
f 603//603 626//626 627//627
f 603//603 627//627 607//607
f 603//603 607//607 604//604
f 603//603 605//605 628//628
f 603//603 628//628 626//626
f 605//605 622//622 629//629
f 605//605 629//629 628//628
f 606//606 609//609 610//610
f 607//607 627//627 608//608
f 608//608 627//627 630//630
f 608//608 630//630 631//631
f 608//608 631//631 632//632
f 608//608 632//632 609//609
f 609//609 632//632 633//633
f 609//609 633//633 634//634
f 609//609 634//634 611//611
f 609//609 611//611 610//610
f 611//611 634//634 614//614
f 611//611 614//614 612//612
f 614//614 635//635 615//615
f 614//614 634//634 636//636
f 614//614 636//636 635//635
f 618//618 637//637 638//638
f 618//618 638//638 623//623
f 619//619 625//625 620//620
f 620//620 625//625 639//639
f 620//620 639//639 621//621
f 621//621 640//640 622//622
f 621//621 639//639 641//641
f 621//621 641//641 640//640
f 622//622 640//640 629//629
f 623//623 638//638 624//624
f 624//624 638//638 625//625
f 625//625 638//638 642//642
f 625//625 642//642 639//639
f 626//626 643//643 627//627
f 626//626 628//628 644//644
f 626//626 644//644 645//645
f 626//626 645//645 646//646
f 626//626 646//646 643//643
f 627//627 643//643 630//630
f 628//628 629//629 640//640
f 628//628 640//640 647//647
f 628//628 647//647 648//648
f 628//628 648//648 644//644
f 630//630 643//643 646//646
f 630//630 646//646 649//649
f 630//630 649//649 650//650
f 630//630 650//650 631//631
f 631//631 633//633 632//632
f 631//631 650//650 649//649
f 633//633 636//636 634//634
f 637//637 651//651 638//638
f 638//638 651//651 642//642
f 639//639 652//652 641//641
f 639//639 642//642 653//653
f 639//639 653//653 654//654
f 639//639 654//654 652//652
f 640//640 648//648 647//647
f 640//640 641//641 652//652
f 640//640 652//652 655//655
f 640//640 655//655 656//656
f 640//640 656//656 648//648
f 642//642 651//651 653//653
f 644//644 648//648 657//657
f 644//644 657//657 658//658
f 644//644 658//658 645//645
f 645//645 658//658 659//659
f 645//645 659//659 646//646
f 646//646 659//659 649//649
f 648//648 660//660 657//657
f 648//648 656//656 660//660
f 652//652 656//656 655//655
f 652//652 654//654 661//661
f 652//652 661//661 662//662
f 652//652 662//662 663//663
f 652//652 663//663 656//656
f 653//653 661//661 654//654
f 656//656 663//663 664//664
f 656//656 664//664 660//660
f 665//665 666//666 671//671
f 665//665 671//671 694//694
f 665//665 694//694 711//711
f 665//665 711//711 740//740
f 665//665 740//740 739//739
f 665//665 739//739 755//755
f 665//665 755//755 741//741
f 665//665 741//741 716//716
f 665//665 716//716 714//714
f 665//665 714//714 713//713
f 665//665 713//713 696//696
f 665//665 696//696 673//673
f 665//665 673//673 667//667
f 665//665 667//667 672//672
f 665//665 672//672 695//695
f 665//665 695//695 712//712
f 665//665 712//712 723//723
f 665//665 723//723 722//722
f 665//665 722//722 721//721
f 665//665 721//721 720//720
f 665//665 720//720 700//700
f 665//665 700//700 687//687
f 665//665 687//687 668//668
f 665//665 668//668 689//689
f 665//665 689//689 705//705
f 665//665 705//705 727//727
f 665//665 727//727 747//747
f 665//665 747//747 760//760
f 665//665 760//760 771//771
f 665//665 771//771 782//782
f 665//665 782//782 792//792
f 665//665 792//792 793//793
f 665//665 793//793 783//783
f 665//665 783//783 773//773
f 665//665 773//773 772//772
f 665//665 772//772 761//761
f 665//665 761//761 748//748
f 665//665 748//748 729//729
f 665//665 729//729 706//706
f 665//665 706//706 690//690
f 665//665 690//690 669//669
f 665//665 669//669 666//666
f 666//666 669//669 670//670
f 666//666 670//670 671//671
f 667//667 673//673 674//674
f 667//667 674//674 675//675
f 667//667 675//675 676//676
f 667//667 676//676 677//677
f 667//667 677//677 678//678
f 667//667 678//678 679//679
f 667//667 679//679 680//680
f 667//667 680//680 681//681
f 667//667 681//681 682//682
f 667//667 682//682 683//683
f 667//667 683//683 684//684
f 667//667 684//684 685//685
f 667//667 685//685 686//686
f 667//667 686//686 672//672
f 668//668 687//687 688//688
f 668//668 688//688 689//689
f 669//669 690//690 691//691
f 669//669 691//691 692//692
f 669//669 692//692 670//670
f 670//670 692//692 693//693
f 670//670 693//693 671//671
f 671//671 693//693 694//694
f 672//672 686//686 695//695
f 673//673 696//696 674//674
f 674//674 697//697 718//718
f 674//674 718//718 738//738
f 674//674 738//738 736//736
f 674//674 736//736 735//735
f 674//674 735//735 753//753
f 674//674 753//753 766//766
f 674//674 766//766 777//777
f 674//674 777//777 789//789
f 674//674 789//789 794//794
f 674//674 794//794 787//787
f 674//674 787//787 790//790
f 674//674 790//790 778//778
f 674//674 778//778 767//767
f 674//674 767//767 756//756
f 674//674 756//756 744//744
f 674//674 744//744 724//724
f 674//674 724//724 702//702
f 674//674 702//702 719//719
f 674//674 719//719 698//698
f 674//674 698//698 686//686
f 674//674 686//686 685//685
f 674//674 685//685 684//684
f 674//674 684//684 683//683
f 674//674 683//683 682//682
f 674//674 682//682 681//681
f 674//674 681//681 680//680
f 674//674 680//680 679//679
f 674//674 679//679 678//678
f 674//674 678//678 677//677
f 674//674 677//677 676//676
f 674//674 676//676 675//675
f 674//674 696//696 697//697
f 686//686 698//698 699//699
f 686//686 699//699 695//695
f 687//687 700//700 688//688
f 688//688 701//701 702//702
f 688//688 702//702 703//703
f 688//688 703//703 704//704
f 688//688 704//704 689//689
f 688//688 700//700 701//701
f 689//689 704//704 705//705
f 690//690 706//706 691//691
f 691//691 707//707 692//692
f 691//691 706//706 707//707
f 692//692 707//707 708//708
f 692//692 708//708 709//709
f 692//692 709//709 693//693
f 693//693 709//709 710//710
f 693//693 710//710 694//694
f 694//694 710//710 711//711
f 695//695 699//699 712//712
f 696//696 713//713 697//697
f 697//697 713//713 714//714
f 697//697 714//714 715//715
f 697//697 715//715 716//716
f 697//697 716//716 717//717
f 697//697 717//717 718//718
f 698//698 719//719 699//699
f 699//699 719//719 701//701
f 699//699 701//701 700//700
f 699//699 700//700 720//720
f 699//699 720//720 721//721
f 699//699 721//721 722//722
f 699//699 722//722 723//723
f 699//699 723//723 712//712
f 701//701 719//719 702//702
f 702//702 724//724 703//703
f 703//703 724//724 725//725
f 703//703 725//725 704//704
f 704//704 725//725 726//726
f 704//704 726//726 727//727
f 704//704 727//727 705//705
f 706//706 728//728 707//707
f 706//706 729//729 730//730
f 706//706 730//730 728//728
f 707//707 730//730 731//731
f 707//707 731//731 732//732
f 707//707 732//732 733//733
f 707//707 733//733 708//708
f 707//707 728//728 730//730
f 708//708 734//734 709//709
f 708//708 733//733 735//735
f 708//708 735//735 734//734
f 709//709 734//734 736//736
f 709//709 736//736 710//710
f 710//710 736//736 737//737
f 710//710 737//737 738//738
f 710//710 738//738 739//739
f 710//710 739//739 740//740
f 710//710 740//740 711//711
f 714//714 716//716 715//715
f 716//716 741//741 717//717
f 717//717 741//741 742//742
f 717//717 742//742 718//718
f 718//718 743//743 738//738
f 718//718 742//742 743//743
f 724//724 744//744 725//725
f 725//725 744//744 745//745
f 725//725 745//745 726//726
f 726//726 746//746 727//727
f 726//726 745//745 746//746
f 727//727 746//746 747//747
f 729//729 748//748 730//730
f 730//730 732//732 731//731
f 730//730 748//748 749//749
f 730//730 749//749 750//750
f 730//730 750//750 732//732
f 732//732 750//750 751//751
f 732//732 751//751 733//733
f 733//733 751//751 752//752
f 733//733 752//752 735//735
f 734//734 735//735 736//736
f 735//735 752//752 753//753
f 736//736 738//738 737//737
f 738//738 754//754 739//739
f 738//738 743//743 754//754
f 739//739 754//754 755//755
f 741//741 755//755 742//742
f 742//742 755//755 754//754
f 742//742 754//754 743//743
f 744//744 756//756 757//757
f 744//744 757//757 745//745
f 745//745 757//757 758//758
f 745//745 758//758 759//759
f 745//745 759//759 746//746
f 746//746 759//759 747//747
f 747//747 759//759 760//760
f 748//748 761//761 749//749
f 749//749 761//761 762//762
f 749//749 762//762 763//763
f 749//749 763//763 764//764
f 749//749 764//764 765//765
f 749//749 765//765 751//751
f 749//749 751//751 750//750
f 751//751 765//765 753//753
f 751//751 753//753 752//752
f 753//753 765//765 766//766
f 756//756 767//767 758//758
f 756//756 758//758 757//757
f 758//758 767//767 768//768
f 758//758 768//768 759//759
f 759//759 768//768 769//769
f 759//759 769//769 770//770
f 759//759 770//770 760//760
f 760//760 770//770 771//771
f 761//761 772//772 762//762
f 762//762 772//772 773//773
f 762//762 773//773 774//774
f 762//762 774//774 775//775
f 762//762 775//775 776//776
f 762//762 776//776 763//763
f 763//763 776//776 764//764
f 764//764 776//776 765//765
f 765//765 776//776 777//777
f 765//765 777//777 766//766
f 767//767 778//778 779//779
f 767//767 779//779 768//768
f 768//768 779//779 780//780
f 768//768 780//780 769//769
f 769//769 780//780 781//781
f 769//769 781//781 770//770
f 770//770 781//781 771//771
f 771//771 781//781 782//782
f 773//773 783//783 774//774
f 774//774 783//783 784//784
f 774//774 784//784 785//785
f 774//774 785//785 786//786
f 774//774 786//786 787//787
f 774//774 787//787 775//775
f 775//775 787//787 788//788
f 775//775 788//788 776//776
f 776//776 788//788 789//789
f 776//776 789//789 777//777
f 778//778 790//790 786//786
f 778//778 786//786 779//779
f 779//779 786//786 780//780
f 780//780 786//786 781//781
f 781//781 786//786 791//791
f 781//781 791//791 784//784
f 781//781 784//784 782//782
f 782//782 784//784 792//792
f 783//783 793//793 784//784
f 784//784 793//793 792//792
f 784//784 791//791 786//786
f 784//784 786//786 785//785
f 786//786 790//790 787//787
f 787//787 794//794 788//788
f 788//788 794//794 789//789
