o link_1_17
v 0.223271 0.523652 0.204135
v 0.227417 0.523670 0.204135
v 0.227725 0.510456 0.204135
v 0.219703 0.523670 0.208912
v 0.220982 0.523670 0.207652
v 0.221119 0.523670 0.207544
v 0.222156 0.523670 0.206725
v 0.255503 0.523670 0.204135
v 0.229593 0.510456 0.218482
v 0.219703 0.516433 0.218482
v 0.250887 0.510456 0.204135
v 0.219703 0.523670 0.218482
v 0.255503 0.523670 0.218482
v 0.255503 0.515630 0.204135
v 0.255503 0.510456 0.218482
v 0.255489 0.510456 0.208038
v 0.255503 0.511684 0.207279
v 0.255503 0.510456 0.208663
vn -0.077097 -0.008449 -0.996988
vn -0.000046 1.000000 -0.000598
vn -0.278228 -0.890982 -0.358803
vn -0.939678 -0.060882 -0.336599
vn -0.004356 0.999980 -0.004509
vn -0.004356 0.999975 -0.005517
vn -0.004356 0.999958 -0.008048
vn 0.597653 0.673950 -0.434284
vn -0.082597 -0.494724 0.865116
vn -0.820657 -0.567815 0.064095
vn 0.037085 -0.199110 -0.979275
vn -0.086136 0.730600 0.677351
vn 0.152718 0.738365 0.656882
vn 0.094671 -0.036906 -0.994824
vn 0.400869 -0.809058 0.429802
vn 0.168013 -0.968485 -0.183870
vn 0.999997 -0.001600 -0.001828
vn 0.442808 -0.896617 -0.000053
f 1//1 2//2 8//8
f 1//1 8//8 14//14
f 1//1 14//14 11//11
f 1//1 11//11 3//3
f 1//1 3//3 4//4
f 1//1 4//4 5//5
f 1//1 5//5 6//6
f 1//1 6//6 7//7
f 1//1 7//7 2//2
f 2//2 7//7 6//6
f 2//2 6//6 5//5
f 2//2 5//5 4//4
f 2//2 4//4 12//12
f 2//2 12//12 13//13
f 2//2 13//13 8//8
f 3//3 9//9 10//10
f 3//3 10//10 4//4
f 3//3 11//11 16//16
f 3//3 16//16 18//18
f 3//3 18//18 15//15
f 3//3 15//15 9//9
f 4//4 10//10 12//12
f 8//8 13//13 15//15
f 8//8 15//15 18//18
f 8//8 18//18 17//17
f 8//8 17//17 14//14
f 9//9 15//15 13//13
f 9//9 13//13 12//12
f 9//9 12//12 10//10
f 11//11 14//14 16//16
f 14//14 17//17 16//16
f 16//16 17//17 18//18
