o link_3_2
v 0.278213 0.316394 0.012770
v 0.273673 0.317960 0.013753
v 0.273673 0.317093 0.012770
v 0.282714 0.319676 0.012770
v 0.281340 0.320725 0.015592
v 0.278213 0.317693 0.014163
v 0.272359 0.339518 0.037685
v 0.271099 0.339518 0.037685
v 0.273673 0.330771 0.028255
v 0.266648 0.353229 0.051206
v 0.270213 0.325257 0.020272
v 0.272827 0.317560 0.012770
v 0.283506 0.321109 0.012770
v 0.281126 0.325257 0.020164
v 0.275386 0.339851 0.037346
v 0.272418 0.348315 0.047062
v 0.246450 0.486594 0.195231
v 0.243806 0.484511 0.192248
v 0.263308 0.358277 0.055063
v 0.267191 0.326357 0.018986
v 0.268953 0.323724 0.017200
v 0.263621 0.354062 0.050152
v 0.261515 0.357078 0.052045
v 0.269297 0.320026 0.012770
v 0.284725 0.323841 0.012770
v 0.284482 0.323841 0.013538
v 0.253510 0.484178 0.187676
v 0.253659 0.479463 0.183568
v 0.252384 0.481146 0.186587
v 0.252484 0.476431 0.182175
v 0.249357 0.480080 0.187462
v 0.249457 0.475515 0.182997
v 0.246978 0.486594 0.194999
v 0.242562 0.486594 0.193231
v 0.244065 0.480263 0.187355
v 0.266120 0.325207 0.015967
v 0.267694 0.322175 0.013878
v 0.268809 0.320425 0.012770
v 0.257333 0.371006 0.065297
v 0.284740 0.324790 0.012770
v 0.253475 0.486594 0.188855
v 0.252215 0.486594 0.190837
v 0.251747 0.486594 0.191427
v 0.250204 0.486594 0.192980
v 0.249054 0.484711 0.192016
v 0.242238 0.486594 0.192784
v 0.249009 0.403593 0.095856
v 0.253281 0.385117 0.078264
v 0.257577 0.357561 0.047008
v 0.265498 0.323891 0.012770
v 0.267270 0.321792 0.012770
v 0.257736 0.366874 0.060243
v 0.258493 0.358644 0.050027
v 0.284551 0.328172 0.012770
v 0.253624 0.486594 0.185301
v 0.283745 0.332921 0.017039
v 0.241123 0.486594 0.190891
v 0.240650 0.486127 0.189462
v 0.239843 0.485194 0.186783
v 0.238275 0.486594 0.184979
v 0.247570 0.405259 0.094285
v 0.248421 0.402693 0.092820
v 0.253171 0.375887 0.064851
v 0.262128 0.330288 0.015306
v 0.265354 0.324091 0.012770
v 0.283092 0.332921 0.012770
v 0.253584 0.486594 0.184015
v 0.281086 0.346732 0.030934
v 0.280972 0.345266 0.026130
v 0.240316 0.486594 0.189462
v 0.238469 0.486594 0.185426
v 0.238200 0.486594 0.184765
v 0.244200 0.425968 0.114520
v 0.245554 0.410040 0.094195
v 0.248755 0.389748 0.073406
v 0.249123 0.390531 0.076031
v 0.252738 0.375104 0.062422
v 0.261844 0.329605 0.012770
v 0.263133 0.327323 0.012770
v 0.252245 0.373555 0.057796
v 0.276391 0.351413 0.012770
v 0.253301 0.471366 0.137149
v 0.249278 0.486594 0.153491
v 0.236423 0.486594 0.179282
v 0.239614 0.466702 0.160046
v 0.239375 0.461654 0.151795
v 0.235870 0.482795 0.171298
v 0.235392 0.481279 0.166779
v 0.244289 0.417221 0.100339
v 0.244722 0.410307 0.089659
v 0.248800 0.381168 0.054367
v 0.250154 0.378286 0.057885
v 0.260445 0.333187 0.012770
v 0.274977 0.354862 0.012770
v 0.271472 0.371605 0.028219
v 0.253654 0.458455 0.116860
v 0.249074 0.480979 0.140936
v 0.248685 0.484845 0.146508
v 0.248725 0.486594 0.150491
v 0.249074 0.486594 0.152223
v 0.235786 0.486594 0.176853
v 0.235651 0.486294 0.175852
v 0.235542 0.486594 0.175852
v 0.235273 0.485411 0.172816
v 0.234954 0.484411 0.169780
v 0.234725 0.483545 0.166779
v 0.235158 0.480563 0.163922
v 0.244055 0.416421 0.097321
v 0.244264 0.412673 0.091177
v 0.244105 0.411990 0.088141
v 0.248705 0.380502 0.051331
v 0.249377 0.378703 0.053045
v 0.258921 0.337685 0.012770
v 0.272398 0.360093 0.012770
v 0.271851 0.367607 0.022808
v 0.253276 0.457705 0.114556
v 0.248705 0.475831 0.132756
v 0.248068 0.479897 0.137899
v 0.247844 0.484178 0.144079
v 0.247565 0.486594 0.147455
v 0.234611 0.486594 0.171048
v 0.234566 0.486594 0.170727
v 0.234088 0.486594 0.166779
v 0.234043 0.486594 0.166226
v 0.234631 0.482296 0.162350
v 0.235368 0.477148 0.157706
v 0.244105 0.411990 0.086748
v 0.233879 0.486594 0.162243
v 0.248705 0.380502 0.050956
v 0.256497 0.346532 0.012770
v 0.257343 0.342933 0.012770
v 0.257388 0.342767 0.012770
v 0.258030 0.340501 0.012770
v 0.272364 0.360160 0.012770
v 0.272055 0.363509 0.017039
v 0.271597 0.362676 0.014396
v 0.262202 0.407625 0.060368
v 0.258588 0.417737 0.068084
v 0.244558 0.485128 0.141579
v 0.245574 0.486211 0.144079
v 0.249099 0.471600 0.127790
v 0.245992 0.486594 0.145240
v 0.233884 0.486594 0.161636
v 0.243343 0.419120 0.089641
v 0.248690 0.382834 0.050902
v 0.249880 0.378286 0.044276
v 0.252335 0.369206 0.030666
v 0.254072 0.360143 0.021575
v 0.256437 0.346799 0.012770
v 0.268933 0.363842 0.012770
v 0.267007 0.367041 0.014646
v 0.258807 0.413506 0.063368
v 0.253420 0.439662 0.091784
v 0.252952 0.439662 0.091784
v 0.241914 0.485111 0.141596
v 0.243065 0.486594 0.143204
v 0.245305 0.486594 0.144347
v 0.234312 0.486594 0.157224
v 0.243861 0.419120 0.086176
v 0.248695 0.385567 0.050973
v 0.253012 0.369206 0.027487
v 0.256019 0.351330 0.012770
v 0.268600 0.364108 0.012770
v 0.264597 0.365824 0.012770
v 0.257995 0.389665 0.037435
v 0.257766 0.389665 0.037435
v 0.239599 0.484961 0.141757
v 0.241875 0.486594 0.143222
v 0.234920 0.486594 0.154063
v 0.248382 0.391898 0.054367
v 0.248805 0.388599 0.051366
v 0.253211 0.371605 0.028255
v 0.256552 0.356595 0.012770
v 0.248531 0.394763 0.055171
v 0.263905 0.365824 0.012770
v 0.262013 0.367241 0.014449
v 0.260524 0.364092 0.012770
v 0.257099 0.377370 0.027666
v 0.256900 0.381635 0.031541
v 0.237110 0.486594 0.148026
v 0.239092 0.486594 0.144276
v 0.255486 0.378419 0.030541
v 0.253873 0.379486 0.033720
v 0.235537 0.486594 0.151688
v 0.258219 0.361126 0.012770
v 0.257378 0.359544 0.012770
vn 0.000490 -0.076487 -0.997070
vn -0.116804 -0.744350 0.657495
vn -0.361234 -0.714898 0.598691
vn 0.677451 -0.589566 0.439855
vn 0.471039 -0.651197 0.595034
vn 0.242728 -0.689553 0.682349
vn 0.012307 -0.730134 0.683193
vn -0.199097 -0.732750 0.650721
vn -0.114313 -0.744217 0.658084
vn -0.369532 -0.709382 0.600186
vn -0.434868 -0.695409 0.572098
vn -0.512840 -0.761718 0.395955
vn 0.871559 -0.464481 0.156978
vn 0.580597 -0.542881 0.606784
vn 0.333451 -0.659718 0.673485
vn 0.175268 -0.704430 0.687793
vn -0.051344 0.354067 0.933810
vn -0.296721 -0.721084 0.626095
vn -0.421429 -0.696593 0.580651
vn -0.552009 -0.657721 0.512533
vn -0.481580 -0.690176 0.540128
vn -0.475739 -0.683200 0.553994
vn -0.496101 -0.674012 0.547350
vn -0.558499 -0.782377 0.275619
vn 0.967473 -0.097415 0.233467
vn 0.815370 -0.347042 0.463393
vn 0.828496 -0.329718 0.452636
vn 0.699917 -0.456957 0.548914
vn 0.614726 -0.517390 0.595331
vn 0.412097 -0.628287 0.659872
vn 0.375960 -0.643159 0.667084
vn 0.331181 -0.660205 0.674128
vn 0.367969 -0.636757 0.677598
vn -0.541679 -0.567472 0.620128
vn -0.574287 -0.639400 0.511235
vn -0.682914 -0.593497 0.425899
vn -0.597422 -0.649968 0.469711
vn -0.640577 -0.761903 -0.095729
vn -0.567446 -0.645361 0.511385
vn 0.994082 0.039990 0.101008
vn 0.989196 0.069396 0.129131
vn 0.685786 0.563464 0.460658
vn 0.680400 -0.351901 0.642823
vn 0.522324 -0.512594 0.681488
vn 0.413513 -0.618808 0.667895
vn -0.701446 -0.559278 0.441794
vn -0.747899 -0.531619 0.397529
vn -0.657334 -0.598176 0.458364
vn -0.743178 -0.552868 0.376859
vn -0.776164 -0.583529 0.238879
vn -0.542740 -0.503243 -0.672443
vn -0.689569 -0.587679 0.423236
vn -0.691602 -0.586743 0.421213
vn 0.997658 0.062899 0.026860
vn 0.979631 0.199035 0.026598
vn 0.987472 0.154367 0.032701
vn -0.731575 -0.530399 0.428340
vn -0.732022 -0.542070 0.412679
vn -0.787953 -0.495234 0.365886
vn -0.836831 -0.446077 0.317378
vn -0.862297 -0.419843 0.283154
vn -0.838837 -0.456803 0.296115
vn -0.793517 -0.507450 0.335893
vn -0.826314 -0.482405 0.290672
vn -0.793722 -0.564889 0.225623
vn 0.703296 0.249474 -0.665686
vn 0.930446 0.352171 -0.101223
vn 0.951332 0.292565 -0.096812
vn 0.928942 0.337169 -0.152917
vn -0.468183 0.854294 0.225801
vn -0.442946 0.873568 0.201689
vn -0.899757 -0.320564 0.296100
vn -0.890150 -0.381979 0.248443
vn -0.917754 -0.342112 0.201710
vn -0.926504 -0.334480 0.172374
vn -0.852210 -0.441947 0.280039
vn -0.852201 -0.448682 0.269142
vn -0.916537 -0.394510 0.065737
vn -0.323434 -0.205862 -0.923586
vn -0.886282 -0.410111 0.215205
vn 0.911954 0.341282 -0.227743
vn 0.930371 0.337556 -0.143062
vn 0.706696 0.700377 -0.100267
vn -0.909281 -0.313057 0.274233
vn -0.867027 -0.411431 0.281048
vn -0.898300 -0.369386 0.237932
vn -0.907958 -0.354885 0.222867
vn -0.924196 -0.328879 0.194164
vn -0.942051 -0.295761 0.158321
vn -0.949626 -0.285258 0.129763
vn -0.954316 -0.275278 0.116199
vn -0.919875 -0.358781 0.158450
vn -0.940189 -0.339405 -0.029131
vn 0.615501 0.278212 -0.737399
vn 0.883308 0.409471 -0.228256
vn 0.842628 0.460304 -0.279463
vn 0.791928 0.517656 -0.323855
vn 0.834610 0.487681 -0.256112
vn 0.513585 0.849790 -0.118691
vn 0.650682 0.749834 -0.119840
vn -0.589486 0.793122 0.153177
vn -0.911691 -0.345496 0.222378
vn -0.474684 0.874546 0.099213
vn -0.921731 -0.327839 0.207206
vn -0.946261 -0.272802 0.173695
vn -0.968597 -0.228694 0.097562
vn -0.954257 -0.268522 0.131487
vn -0.950267 -0.277920 0.140544
vn -0.959565 -0.255497 0.118134
vn -0.977417 -0.201963 0.062186
vn -0.965769 -0.255378 0.045532
vn -0.943947 -0.314836 0.099204
vn -0.932055 -0.307713 -0.191274
vn 0.466367 0.230167 -0.854122
vn 0.834513 0.466778 -0.292758
vn 0.761953 0.535277 -0.364562
vn 0.601759 0.642382 -0.474585
vn 0.596267 0.667194 -0.446449
vn 0.605551 0.666147 -0.435380
vn 0.126527 0.989252 -0.073292
vn -0.457891 0.885376 0.080285
vn -0.346684 0.937021 0.042456
vn -0.340190 0.939526 0.039512
vn -0.600353 0.798921 0.036081
vn -0.983443 -0.176263 0.042081
vn -0.972515 -0.217842 0.082222
vn -0.994295 -0.099985 -0.037165
vn -0.998138 -0.055520 0.025245
vn -0.992284 -0.078189 -0.096222
vn -0.922694 -0.215945 -0.319379
vn -0.915080 -0.216589 -0.340173
vn -0.925614 -0.261454 -0.273644
vn -0.950658 -0.287839 -0.115748
vn 0.083699 0.061484 -0.994593
vn 0.849557 0.443477 -0.285625
vn 0.733223 0.552770 -0.396017
vn 0.725298 0.560760 -0.399363
vn 0.562931 0.650092 -0.510381
vn 0.195694 0.744182 -0.638668
vn 0.549445 0.687288 -0.475126
vn 0.353652 0.722076 -0.594589
vn 0.066564 0.996636 -0.047814
vn -0.996393 0.050353 -0.068299
vn -0.994389 -0.035590 -0.099619
vn -0.989959 -0.001447 -0.141346
vn -0.984320 -0.001312 -0.176387
vn -0.983217 0.001962 -0.182432
vn -0.987719 -0.064160 -0.142463
vn -0.907194 -0.097265 -0.409315
vn 0.474472 0.521155 -0.709418
vn 0.331955 0.706204 -0.625365
vn 0.102917 0.732910 -0.672496
vn 0.046165 0.739792 -0.671250
vn -0.029951 0.734935 -0.677476
vn -0.052987 0.732465 -0.678739
vn 0.008561 0.998810 -0.048005
vn 0.017507 0.999467 -0.027559
vn -0.974202 0.179259 -0.137099
vn -0.983067 0.046563 -0.177231
vn -0.984256 0.028588 -0.174422
vn -0.956800 0.099695 -0.273121
vn -0.486866 0.021235 -0.873219
vn 0.018815 0.041153 -0.998976
vn 0.094743 0.547204 -0.831620
vn 0.061314 0.733570 -0.676842
vn -0.293741 0.676354 -0.675471
vn -0.712140 0.457308 -0.532659
vn -0.009954 0.999003 -0.043528
vn -0.954253 0.207384 -0.215391
vn -0.971765 0.088740 -0.218627
vn -0.969980 0.075801 -0.231071
vn -0.812371 0.356081 -0.461800
vn -0.453502 0.080135 -0.887645
vn -0.892028 0.259760 -0.369879
vn -0.027304 0.201572 -0.979093
vn -0.326797 0.637597 -0.697620
vn -0.253445 0.233815 -0.938667
vn -0.646620 0.492280 -0.582703
vn -0.680084 0.478442 -0.555498
vn -0.778482 0.511853 -0.363279
vn -0.027246 0.999264 -0.027020
vn -0.713415 0.450676 -0.536591
vn -0.749205 0.421558 -0.510862
vn -0.841132 0.446468 -0.305225
vn -0.422008 0.267320 -0.866285
vn -0.321039 0.118160 -0.939666
f 1//1 2//2 3//3
f 1//1 3//3 12//12
f 1//1 12//12 24//24
f 1//1 24//24 38//38
f 1//1 38//38 51//51
f 1//1 51//51 50//50
f 1//1 50//50 65//65
f 1//1 65//65 79//79
f 1//1 79//79 78//78
f 1//1 78//78 93//93
f 1//1 93//93 113//113
f 1//1 113//113 133//133
f 1//1 133//133 132//132
f 1//1 132//132 131//131
f 1//1 131//131 130//130
f 1//1 130//130 149//149
f 1//1 149//149 162//162
f 1//1 162//162 173//173
f 1//1 173//173 186//186
f 1//1 186//186 185//185
f 1//1 185//185 177//177
f 1//1 177//177 175//175
f 1//1 175//175 164//164
f 1//1 164//164 163//163
f 1//1 163//163 150//150
f 1//1 150//150 134//134
f 1//1 134//134 114//114
f 1//1 114//114 94//94
f 1//1 94//94 81//81
f 1//1 81//81 66//66
f 1//1 66//66 54//54
f 1//1 54//54 40//40
f 1//1 40//40 25//25
f 1//1 25//25 13//13
f 1//1 13//13 4//4
f 1//1 4//4 5//5
f 1//1 5//5 6//6
f 1//1 6//6 7//7
f 1//1 7//7 8//8
f 1//1 8//8 9//9
f 1//1 9//9 2//2
f 2//2 9//9 8//8
f 2//2 8//8 3//3
f 3//3 8//8 10//10
f 3//3 10//10 11//11
f 3//3 11//11 12//12
f 4//4 13//13 14//14
f 4//4 14//14 5//5
f 5//5 14//14 6//6
f 6//6 14//14 15//15
f 6//6 15//15 16//16
f 6//6 16//16 7//7
f 7//7 16//16 17//17
f 7//7 17//17 8//8
f 8//8 17//17 18//18
f 8//8 18//18 10//10
f 10//10 19//19 11//11
f 10//10 18//18 19//19
f 11//11 20//20 21//21
f 11//11 21//21 12//12
f 11//11 19//19 22//22
f 11//11 22//22 23//23
f 11//11 23//23 20//20
f 12//12 21//21 24//24
f 13//13 25//25 26//26
f 13//13 26//26 14//14
f 14//14 26//26 27//27
f 14//14 27//27 28//28
f 14//14 28//28 29//29
f 14//14 29//29 30//30
f 14//14 30//30 31//31
f 14//14 31//31 32//32
f 14//14 32//32 15//15
f 15//15 32//32 16//16
f 16//16 32//32 17//17
f 17//17 32//32 33//33
f 17//17 33//33 44//44
f 17//17 44//44 43//43
f 17//17 43//43 42//42
f 17//17 42//42 41//41
f 17//17 41//41 55//55
f 17//17 55//55 67//67
f 17//17 67//67 83//83
f 17//17 83//83 100//100
f 17//17 100//100 99//99
f 17//17 99//99 120//120
f 17//17 120//120 142//142
f 17//17 142//142 157//157
f 17//17 157//157 156//156
f 17//17 156//156 168//168
f 17//17 168//168 181//181
f 17//17 181//181 180//180
f 17//17 180//180 184//184
f 17//17 184//184 169//169
f 17//17 169//169 158//158
f 17//17 158//158 143//143
f 17//17 143//143 128//128
f 17//17 128//128 124//124
f 17//17 124//124 123//123
f 17//17 123//123 122//122
f 17//17 122//122 121//121
f 17//17 121//121 103//103
f 17//17 103//103 101//101
f 17//17 101//101 84//84
f 17//17 84//84 72//72
f 17//17 72//72 60//60
f 17//17 60//60 71//71
f 17//17 71//71 70//70
f 17//17 70//70 57//57
f 17//17 57//57 46//46
f 17//17 46//46 34//34
f 17//17 34//34 18//18
f 18//18 34//34 35//35
f 18//18 35//35 19//19
f 19//19 23//23 22//22
f 19//19 35//35 23//23
f 20//20 36//36 37//37
f 20//20 37//37 38//38
f 20//20 38//38 24//24
f 20//20 24//24 21//21
f 20//20 23//23 39//39
f 20//20 39//39 36//36
f 23//23 35//35 39//39
f 25//25 40//40 41//41
f 25//25 41//41 27//27
f 25//25 27//27 26//26
f 27//27 41//41 42//42
f 27//27 42//42 43//43
f 27//27 43//43 29//29
f 27//27 29//29 28//28
f 29//29 43//43 44//44
f 29//29 44//44 45//45
f 29//29 45//45 30//30
f 30//30 45//45 31//31
f 31//31 45//45 33//33
f 31//31 33//33 32//32
f 33//33 45//45 44//44
f 34//34 46//46 35//35
f 35//35 46//46 47//47
f 35//35 47//47 48//48
f 35//35 48//48 39//39
f 36//36 49//49 50//50
f 36//36 50//50 51//51
f 36//36 51//51 37//37
f 36//36 39//39 52//52
f 36//36 52//52 53//53
f 36//36 53//53 49//49
f 37//37 51//51 38//38
f 39//39 48//48 52//52
f 40//40 54//54 41//41
f 41//41 54//54 56//56
f 41//41 56//56 55//55
f 46//46 57//57 47//47
f 47//47 57//57 58//58
f 47//47 58//58 59//59
f 47//47 59//59 60//60
f 47//47 60//60 61//61
f 47//47 61//61 62//62
f 47//47 62//62 63//63
f 47//47 63//63 48//48
f 48//48 63//63 49//49
f 48//48 49//49 52//52
f 49//49 64//64 65//65
f 49//49 65//65 50//50
f 49//49 53//53 52//52
f 49//49 63//63 64//64
f 54//54 66//66 56//56
f 55//55 56//56 68//68
f 55//55 68//68 67//67
f 56//56 66//66 69//69
f 56//56 69//69 68//68
f 57//57 70//70 58//58
f 58//58 70//70 59//59
f 59//59 70//70 71//71
f 59//59 71//71 60//60
f 60//60 72//72 73//73
f 60//60 73//73 61//61
f 61//61 73//73 74//74
f 61//61 74//74 75//75
f 61//61 75//75 76//76
f 61//61 76//76 62//62
f 62//62 76//76 77//77
f 62//62 77//77 63//63
f 63//63 77//77 64//64
f 64//64 78//78 79//79
f 64//64 79//79 65//65
f 64//64 77//77 80//80
f 64//64 80//80 78//78
f 66//66 81//81 69//69
f 67//67 82//82 83//83
f 67//67 68//68 82//82
f 68//68 69//69 82//82
f 69//69 81//81 82//82
f 72//72 84//84 85//85
f 72//72 85//85 73//73
f 73//73 85//85 84//84
f 73//73 84//84 86//86
f 73//73 86//86 87//87
f 73//73 87//87 88//88
f 73//73 88//88 74//74
f 74//74 88//88 89//89
f 74//74 89//89 90//90
f 74//74 90//90 75//75
f 75//75 91//91 92//92
f 75//75 92//92 80//80
f 75//75 80//80 77//77
f 75//75 77//77 76//76
f 75//75 90//90 91//91
f 78//78 80//80 92//92
f 78//78 92//92 93//93
f 81//81 94//94 95//95
f 81//81 95//95 82//82
f 82//82 96//96 97//97
f 82//82 97//97 98//98
f 82//82 98//98 99//99
f 82//82 99//99 100//100
f 82//82 100//100 83//83
f 82//82 95//95 96//96
f 84//84 101//101 87//87
f 84//84 87//87 86//86
f 87//87 101//101 102//102
f 87//87 102//102 103//103
f 87//87 103//103 104//104
f 87//87 104//104 88//88
f 88//88 104//104 105//105
f 88//88 105//105 106//106
f 88//88 106//106 107//107
f 88//88 107//107 89//89
f 89//89 108//108 90//90
f 89//89 107//107 108//108
f 90//90 108//108 109//109
f 90//90 109//109 110//110
f 90//90 110//110 91//91
f 91//91 110//110 111//111
f 91//91 111//111 112//112
f 91//91 112//112 92//92
f 92//92 112//112 93//93
f 93//93 112//112 113//113
f 94//94 114//114 115//115
f 94//94 115//115 95//95
f 95//95 115//115 96//96
f 96//96 116//116 97//97
f 96//96 115//115 116//116
f 97//97 116//116 117//117
f 97//97 117//117 118//118
f 97//97 118//118 119//119
f 97//97 119//119 120//120
f 97//97 120//120 98//98
f 98//98 120//120 99//99
f 101//101 103//103 102//102
f 103//103 121//121 105//105
f 103//103 105//105 104//104
f 105//105 121//121 106//106
f 106//106 121//121 122//122
f 106//106 122//122 123//123
f 106//106 123//123 124//124
f 106//106 124//124 125//125
f 106//106 125//125 126//126
f 106//106 126//126 110//110
f 106//106 110//110 107//107
f 107//107 110//110 109//109
f 107//107 109//109 108//108
f 110//110 127//127 129//129
f 110//110 129//129 111//111
f 110//110 126//126 125//125
f 110//110 125//125 128//128
f 110//110 128//128 127//127
f 111//111 129//129 130//130
f 111//111 130//130 131//131
f 111//111 131//131 132//132
f 111//111 132//132 133//133
f 111//111 133//133 112//112
f 112//112 133//133 113//113
f 114//114 134//134 135//135
f 114//114 135//135 115//115
f 115//115 135//135 136//136
f 115//115 136//136 116//116
f 116//116 136//136 137//137
f 116//116 137//137 138//138
f 116//116 138//138 117//117
f 117//117 139//139 140//140
f 117//117 140//140 118//118
f 117//117 138//138 141//141
f 117//117 141//141 139//139
f 118//118 140//140 119//119
f 119//119 140//140 142//142
f 119//119 142//142 120//120
f 124//124 128//128 125//125
f 127//127 128//128 143//143
f 127//127 143//143 144//144
f 127//127 144//144 129//129
f 129//129 145//145 146//146
f 129//129 146//146 147//147
f 129//129 147//147 148//148
f 129//129 148//148 149//149
f 129//129 149//149 130//130
f 129//129 144//144 145//145
f 134//134 150//150 136//136
f 134//134 136//136 135//135
f 136//136 150//150 138//138
f 136//136 138//138 137//137
f 138//138 150//150 151//151
f 138//138 151//151 152//152
f 138//138 152//152 153//153
f 138//138 153//153 139//139
f 138//138 139//139 141//141
f 139//139 154//154 155//155
f 139//139 155//155 156//156
f 139//139 156//156 157//157
f 139//139 157//157 140//140
f 139//139 153//153 154//154
f 140//140 157//157 142//142
f 143//143 158//158 144//144
f 144//144 158//158 159//159
f 144//144 159//159 160//160
f 144//144 160//160 145//145
f 145//145 160//160 146//146
f 146//146 160//160 147//147
f 147//147 160//160 161//161
f 147//147 161//161 148//148
f 148//148 161//161 162//162
f 148//148 162//162 149//149
f 150//150 163//163 151//151
f 151//151 163//163 164//164
f 151//151 164//164 152//152
f 152//152 164//164 165//165
f 152//152 165//165 153//153
f 153//153 165//165 166//166
f 153//153 166//166 154//154
f 154//154 166//166 155//155
f 155//155 167//167 168//168
f 155//155 168//168 156//156
f 155//155 166//166 167//167
f 158//158 169//169 159//159
f 159//159 170//170 160//160
f 159//159 169//169 170//170
f 160//160 170//170 171//171
f 160//160 171//171 161//161
f 161//161 172//172 173//173
f 161//161 173//173 162//162
f 161//161 171//171 170//170
f 161//161 170//170 174//174
f 161//161 174//174 172//172
f 164//164 175//175 166//166
f 164//164 166//166 165//165
f 166//166 175//175 176//176
f 166//166 176//176 177//177
f 166//166 177//177 178//178
f 166//166 178//178 179//179
f 166//166 179//179 167//167
f 167//167 180//180 181//181
f 167//167 181//181 168//168
f 167//167 179//179 182//182
f 167//167 182//182 183//183
f 167//167 183//183 172//172
f 167//167 172//172 174//174
f 167//167 174//174 180//180
f 169//169 184//184 174//174
f 169//169 174//174 170//170
f 172//172 183//183 182//182
f 172//172 182//182 185//185
f 172//172 185//185 186//186
f 172//172 186//186 173//173
f 174//174 184//184 180//180
f 175//175 177//177 176//176
f 177//177 185//185 178//178
f 178//178 182//182 179//179
f 178//178 185//185 182//182
