o link_1_20
v 0.248679 0.523670 0.204134
v 0.248679 0.510456 0.204134
v 0.248679 0.523670 0.195748
v 0.227418 0.523670 0.204134
v 0.248679 0.510456 0.201023
v 0.227724 0.510456 0.204134
v 0.246144 0.510456 0.192346
v 0.243754 0.523670 0.192346
v 0.223278 0.523670 0.204081
v 0.223268 0.523652 0.204134
v 0.227589 0.510456 0.203663
v 0.227119 0.510456 0.192346
v 0.224512 0.523670 0.192346
v 0.224199 0.523670 0.194190
v 0.224350 0.518952 0.194009
v 0.225440 0.514700 0.194009
v 0.226156 0.512873 0.198546
v 0.226860 0.510456 0.198546
v 0.227430 0.510456 0.203062
v 0.227067 0.510456 0.192725
v 0.226209 0.512679 0.192346
v 0.224482 0.523489 0.192346
v 0.224472 0.521827 0.192346
v 0.224540 0.518952 0.192346
v 0.224818 0.517641 0.192346
v 0.225507 0.514947 0.192346
v 0.226117 0.512430 0.194009
v 0.226890 0.510456 0.194009
v 0.225938 0.513510 0.192346
vn 0.178791 0.669405 0.721062
vn 0.073100 -0.867272 0.492438
vn 0.932227 0.124331 -0.339844
vn -0.000673 0.946736 0.322009
vn 0.989107 -0.078877 -0.124283
vn -0.010114 -0.019477 0.999759
vn 0.233975 -0.348012 -0.907823
vn 0.105849 0.650568 -0.752035
vn -0.000711 1.000000 0.000230
vn -0.558663 -0.135395 0.818269
vn -0.457230 -0.880490 0.125210
vn -0.003545 -0.983894 -0.178719
vn -0.000884 0.728620 -0.684917
vn -0.208835 0.977719 -0.021308
vn -0.988490 -0.141890 -0.052493
vn -0.963233 -0.267866 0.020720
vn -0.959667 -0.278253 0.040179
vn -0.413030 -0.910027 0.035446
vn -0.459868 -0.885568 0.065500
vn -0.091834 -0.995694 -0.012641
vn -0.139425 -0.054220 -0.988747
vn -0.082656 0.001785 -0.996577
vn -0.084359 -0.001064 -0.996435
vn -0.169149 -0.008886 -0.985550
vn -0.083910 -0.020277 -0.996267
vn -0.211602 -0.057319 -0.975674
vn -0.947181 -0.319827 -0.023638
vn -0.111173 -0.993782 -0.006080
vn -0.085286 -0.026372 -0.996007
f 1//1 2//2 5//5
f 1//1 5//5 3//3
f 1//1 3//3 8//8
f 1//1 8//8 13//13
f 1//1 13//13 14//14
f 1//1 14//14 9//9
f 1//1 9//9 4//4
f 1//1 4//4 10//10
f 1//1 10//10 6//6
f 1//1 6//6 2//2
f 2//2 6//6 11//11
f 2//2 11//11 19//19
f 2//2 19//19 18//18
f 2//2 18//18 28//28
f 2//2 28//28 20//20
f 2//2 20//20 12//12
f 2//2 12//12 7//7
f 2//2 7//7 5//5
f 3//3 5//5 7//7
f 3//3 7//7 8//8
f 4//4 9//9 10//10
f 6//6 10//10 11//11
f 7//7 12//12 21//21
f 7//7 21//21 29//29
f 7//7 29//29 26//26
f 7//7 26//26 25//25
f 7//7 25//25 24//24
f 7//7 24//24 23//23
f 7//7 23//23 22//22
f 7//7 22//22 13//13
f 7//7 13//13 8//8
f 9//9 14//14 10//10
f 10//10 14//14 15//15
f 10//10 15//15 16//16
f 10//10 16//16 17//17
f 10//10 17//17 18//18
f 10//10 18//18 19//19
f 10//10 19//19 11//11
f 12//12 20//20 21//21
f 13//13 22//22 14//14
f 14//14 22//22 23//23
f 14//14 23//23 24//24
f 14//14 24//24 15//15
f 15//15 24//24 25//25
f 15//15 25//25 26//26
f 15//15 26//26 16//16
f 16//16 26//26 27//27
f 16//16 27//27 18//18
f 16//16 18//18 17//17
f 18//18 27//27 28//28
f 20//20 28//28 21//21
f 21//21 28//28 27//27
f 21//21 27//27 29//29
f 26//26 29//29 27//27
