o link_3_3
v 0.264601 0.365815 0.012770
v 0.263910 0.365806 0.012770
v 0.268605 0.364097 0.012770
v 0.267363 0.362728 0.009805
v 0.264601 0.363024 0.009414
v 0.260529 0.364079 0.012770
v 0.261829 0.362898 0.009568
v 0.268938 0.363838 0.012770
v 0.272515 0.340797 -0.013783
v 0.268148 0.354335 -0.000035
v 0.264601 0.361073 0.007146
v 0.258218 0.361118 0.012770
v 0.261851 0.358532 0.005058
v 0.260847 0.360080 0.008015
v 0.264601 0.358800 0.004659
v 0.269142 0.326579 -0.031124
v 0.266773 0.330722 -0.026176
v 0.266679 0.326310 -0.030835
v 0.272368 0.360151 0.012770
v 0.270388 0.361556 0.011362
v 0.276228 0.330972 -0.021986
v 0.276546 0.326829 -0.027009
v 0.275231 0.325630 -0.030036
v 0.271835 0.330874 -0.026369
v 0.269142 0.328843 -0.028641
v 0.257817 0.357771 0.010261
v 0.257379 0.359534 0.012770
v 0.261984 0.344716 -0.008528
v 0.272205 0.326525 -0.031071
v 0.269032 0.325523 -0.032045
v 0.267608 0.325183 -0.032045
v 0.266260 0.323626 -0.032045
v 0.266188 0.323823 -0.031795
v 0.262380 0.335026 -0.016920
v 0.262210 0.339983 -0.012721
v 0.271892 0.358532 0.009581
v 0.274982 0.354845 0.012770
v 0.275741 0.352796 0.011696
v 0.276323 0.345011 -0.001118
v 0.275983 0.344305 -0.003465
v 0.275533 0.339240 -0.011734
v 0.276693 0.336216 -0.013831
v 0.280814 0.317658 -0.031800
v 0.280466 0.317953 -0.032045
v 0.277074 0.322248 -0.032045
v 0.276870 0.322606 -0.031870
v 0.278978 0.319859 -0.032045
v 0.276410 0.322803 -0.032045
v 0.274313 0.324422 -0.032045
v 0.273059 0.325165 -0.032045
v 0.257462 0.349808 0.004756
v 0.256552 0.356581 0.012770
v 0.266086 0.323098 -0.032045
v 0.265349 0.320628 -0.032045
v 0.262271 0.326310 -0.021670
v 0.276394 0.351391 0.012770
v 0.278642 0.337442 -0.005654
v 0.277664 0.341978 -0.001118
v 0.285211 0.326507 0.009717
v 0.291991 0.292067 -0.032045
v 0.290435 0.296004 -0.032045
v 0.280984 0.317201 -0.032045
v 0.257326 0.346515 0.003870
v 0.256019 0.351320 0.012770
v 0.265142 0.319537 -0.032045
v 0.264424 0.315591 -0.032045
v 0.264424 0.314759 -0.032045
v 0.262282 0.323823 -0.021670
v 0.259929 0.332896 -0.010186
v 0.283096 0.332896 0.012770
v 0.290261 0.296424 -0.032045
v 0.281955 0.315045 -0.032045
v 0.285211 0.326507 0.011380
v 0.294605 0.282993 -0.032045
v 0.256639 0.346515 0.007958
v 0.256435 0.346783 0.012770
v 0.264496 0.311054 -0.032045
v 0.260257 0.328359 -0.010186
v 0.284554 0.328154 0.012770
v 0.284739 0.324771 0.012770
v 0.284727 0.323823 0.012770
v 0.285218 0.323823 0.011257
v 0.285358 0.315922 0.006431
v 0.284788 0.312897 0.005422
v 0.291591 0.278636 -0.032045
v 0.285094 0.321299 0.010450
v 0.257719 0.339428 0.005071
v 0.256480 0.346515 0.012498
v 0.257719 0.339428 0.006541
v 0.257375 0.342694 0.012498
v 0.257341 0.342927 0.012770
v 0.264598 0.310222 -0.032045
v 0.263264 0.314759 -0.023802
v 0.268405 0.288362 -0.032045
v 0.283504 0.321094 0.012770
v 0.284523 0.318284 0.009458
v 0.282718 0.319671 0.012770
v 0.281498 0.316190 0.011174
v 0.284947 0.308039 0.001088
v 0.291009 0.278179 -0.032045
v 0.285109 0.303305 -0.003285
v 0.257855 0.339938 0.009568
v 0.268598 0.287476 -0.032045
v 0.269436 0.283709 -0.032045
v 0.269606 0.282993 -0.032045
v 0.257390 0.342748 0.012770
v 0.258014 0.340430 0.012498
v 0.265104 0.306517 -0.032045
v 0.278211 0.316396 0.012770
v 0.281921 0.306956 0.002163
v 0.288350 0.277007 -0.031286
v 0.287696 0.275960 -0.032045
v 0.282752 0.302607 -0.002548
v 0.285135 0.298751 -0.007804
v 0.270898 0.279924 -0.032045
v 0.261848 0.329585 0.012770
v 0.260446 0.333173 0.012770
v 0.260492 0.332896 0.012498
v 0.258920 0.337665 0.012770
v 0.258032 0.340484 0.012770
v 0.273678 0.317094 0.012770
v 0.278211 0.308683 0.004905
v 0.282752 0.280067 -0.025382
v 0.285324 0.276041 -0.030440
v 0.286457 0.275262 -0.032045
v 0.273006 0.277723 -0.032045
v 0.271223 0.280443 -0.030277
v 0.263136 0.327303 0.012770
v 0.272832 0.317559 0.012770
v 0.275511 0.280425 -0.025715
v 0.278211 0.279924 -0.025197
v 0.282752 0.277804 -0.027777
v 0.282752 0.275764 -0.030045
v 0.282752 0.274403 -0.032045
v 0.283632 0.274591 -0.032045
v 0.275254 0.275692 -0.032045
v 0.275764 0.276068 -0.030466
v 0.274128 0.278922 -0.028860
v 0.267276 0.321783 0.012770
v 0.265500 0.323885 0.012770
v 0.265361 0.324082 0.012770
v 0.269572 0.319841 0.012770
v 0.270989 0.316673 0.010625
v 0.268813 0.320414 0.012770
v 0.278211 0.277660 -0.027794
v 0.278211 0.275781 -0.030062
v 0.278211 0.274654 -0.032045
v 0.269304 0.320029 0.012770
vn 0.003991 0.013104 0.999906
vn -0.232507 0.810765 -0.537215
vn 0.482711 0.704651 -0.520055
vn 0.372006 0.729650 -0.573779
vn 0.098205 0.761208 -0.641029
vn -0.628484 0.763043 -0.150907
vn -0.232441 0.719497 -0.654442
vn 0.602664 0.706230 -0.371530
vn 0.515926 0.674862 -0.527619
vn 0.254055 0.741142 -0.621421
vn 0.024220 0.746576 -0.664859
vn -0.750780 0.501669 -0.429717
vn -0.610119 0.555346 -0.565107
vn -0.697044 0.513365 -0.500585
vn -0.105271 0.732433 -0.672651
vn -0.101166 0.728832 -0.677178
vn -0.157885 0.722429 -0.673178
vn -0.573238 0.558669 -0.599405
vn 0.834012 0.523964 -0.172876
vn 0.633958 0.624859 -0.455684
vn 0.673822 0.595108 -0.437962
vn 0.645303 0.604799 -0.466692
vn 0.500840 0.668394 -0.549917
vn 0.196189 0.740895 -0.642328
vn -0.002032 0.742683 -0.669641
vn -0.833913 0.351341 -0.425616
vn -0.935658 0.297042 0.190551
vn -0.699045 0.487609 -0.523043
vn 0.087688 0.702896 -0.705867
vn 0.000070 0.004001 -0.999992
vn -0.254781 0.505810 -0.824162
vn -0.353542 0.269553 -0.895740
vn -0.827688 0.325190 -0.457366
vn -0.878846 0.261753 -0.398893
vn -0.832568 0.342851 -0.435068
vn 0.703232 0.583107 -0.406757
vn 0.203208 0.093408 0.974670
vn 0.921224 0.358466 -0.151157
vn 0.876392 0.421834 -0.232365
vn 0.800136 0.503036 -0.326706
vn 0.702704 0.581462 -0.410012
vn 0.758966 0.533181 -0.373749
vn 0.766698 0.526115 -0.367937
vn 0.634103 0.483591 -0.603368
vn 0.452388 0.366626 -0.812976
vn 0.585352 0.625469 -0.515898
vn 0.471259 0.372191 -0.799618
vn 0.275761 0.354952 -0.893289
vn 0.358997 0.569125 -0.739742
vn 0.285206 0.623163 -0.728235
vn -0.916317 0.218842 -0.335367
vn -0.863500 0.142954 0.483664
vn -0.820862 0.246510 -0.515188
vn -0.864254 0.224027 -0.450419
vn -0.941989 0.136067 -0.306828
vn 0.551168 0.202115 0.809545
vn 0.895976 0.390860 -0.210845
vn 0.897416 0.393958 -0.198597
vn 0.940094 0.322845 -0.109521
vn 0.921040 0.325861 -0.213307
vn 0.898840 0.362963 -0.245649
vn 0.855536 0.403835 -0.323999
vn -0.974516 0.055186 -0.217424
vn -0.857746 0.042717 0.512296
vn -0.822866 0.151171 -0.547758
vn -0.826954 0.124216 -0.548377
vn -0.938857 -0.013994 -0.344023
vn -0.980541 -0.006548 -0.196203
vn -0.985546 -0.030417 -0.166654
vn 0.417630 0.147384 0.896584
vn 0.811675 0.361492 -0.458810
vn 0.811244 0.362234 -0.458988
vn 0.985929 0.095987 0.136857
vn 0.991202 -0.062542 -0.116650
vn -0.991434 -0.075224 -0.106773
vn -0.450427 -0.075092 0.889650
vn -0.963812 -0.053369 -0.261186
vn -0.986555 -0.152106 -0.059781
vn 0.109162 0.022077 0.993779
vn 0.072871 0.002924 0.997337
vn 0.524742 -0.108678 0.844296
vn 0.966626 -0.043301 0.252506
vn 0.831001 -0.307591 0.463492
vn 0.712318 -0.439582 0.547148
vn 0.779758 -0.579103 -0.237945
vn 0.835902 -0.301328 0.458769
vn -0.984039 -0.174983 -0.032386
vn -0.989006 -0.145592 -0.025890
vn -0.972178 -0.230605 0.041134
vn -0.960270 -0.263106 0.093048
vn -0.021408 -0.005070 0.999758
vn -0.925700 -0.121753 -0.358128
vn -0.984082 -0.171412 -0.046905
vn -0.965645 -0.181533 -0.185945
vn 0.136933 -0.068835 0.988186
vn 0.793768 -0.336404 0.506720
vn 0.082981 -0.068797 0.994174
vn 0.442692 -0.591487 0.673919
vn 0.614058 -0.519135 0.594501
vn 0.359079 -0.484777 -0.797530
vn 0.472258 -0.608568 0.637666
vn -0.960681 -0.263072 0.088794
vn -0.955799 -0.211831 -0.203900
vn -0.955370 -0.214940 -0.202654
vn -0.944252 -0.314652 0.096861
vn -0.037943 -0.010719 0.999222
vn -0.956883 -0.272026 0.101867
vn -0.727369 -0.126697 -0.674449
vn 0.064737 -0.280554 0.957653
vn 0.262724 -0.679541 0.684982
vn 0.415377 -0.640067 0.646356
vn 0.016155 -0.026849 -0.999509
vn 0.346527 -0.662590 0.663998
vn 0.395424 -0.646237 0.652700
vn -0.852707 -0.381619 -0.356732
vn -0.817772 -0.366598 0.443683
vn -0.674249 -0.263024 0.690077
vn -0.933965 -0.317310 0.164390
vn -0.857978 -0.283137 0.428611
vn -0.807849 -0.253314 0.532176
vn -0.140022 -0.488936 0.861009
vn -0.030014 -0.720848 0.692443
vn 0.147295 -0.709348 0.689296
vn 0.321952 -0.679944 0.658805
vn 0.009833 -0.029194 -0.999525
vn -0.077710 -0.081209 -0.993663
vn -0.712793 -0.543415 0.443425
vn -0.614930 -0.392558 0.683929
vn -0.217691 -0.370145 0.903108
vn -0.444311 -0.663592 0.601858
vn -0.102251 -0.723487 0.682724
vn 0.098186 -0.731295 0.674957
vn 0.044401 -0.772598 0.633341
vn 0.003199 -0.094188 -0.995549
vn 0.006985 -0.030132 -0.999522
vn -0.020455 -0.034691 -0.999189
vn -0.414442 -0.729013 0.544772
vn -0.575320 -0.615877 0.538240
vn -0.520128 -0.529089 0.670471
vn -0.503981 -0.419725 0.754873
vn -0.580989 -0.401934 0.707743
vn -0.033557 -0.047939 0.998286
vn -0.464199 -0.653619 0.597747
vn -0.424366 -0.492433 0.759884
vn -0.072028 -0.759371 0.646659
vn -0.064478 -0.817193 0.572747
vn -0.008760 -0.051384 -0.998641
vn -0.036436 -0.048308 0.998168
f 1//1 2//2 6//6
f 1//1 6//6 12//12
f 1//1 12//12 27//27
f 1//1 27//27 52//52
f 1//1 52//52 64//64
f 1//1 64//64 76//76
f 1//1 76//76 91//91
f 1//1 91//91 106//106
f 1//1 106//106 120//120
f 1//1 120//120 119//119
f 1//1 119//119 117//117
f 1//1 117//117 116//116
f 1//1 116//116 128//128
f 1//1 128//128 141//141
f 1//1 141//141 140//140
f 1//1 140//140 139//139
f 1//1 139//139 144//144
f 1//1 144//144 148//148
f 1//1 148//148 142//142
f 1//1 142//142 129//129
f 1//1 129//129 121//121
f 1//1 121//121 109//109
f 1//1 109//109 97//97
f 1//1 97//97 95//95
f 1//1 95//95 81//81
f 1//1 81//81 80//80
f 1//1 80//80 79//79
f 1//1 79//79 70//70
f 1//1 70//70 56//56
f 1//1 56//56 37//37
f 1//1 37//37 19//19
f 1//1 19//19 8//8
f 1//1 8//8 3//3
f 1//1 3//3 4//4
f 1//1 4//4 5//5
f 1//1 5//5 2//2
f 2//2 5//5 7//7
f 2//2 7//7 6//6
f 3//3 8//8 9//9
f 3//3 9//9 4//4
f 4//4 10//10 5//5
f 4//4 9//9 10//10
f 5//5 10//10 11//11
f 5//5 11//11 7//7
f 6//6 7//7 12//12
f 7//7 13//13 14//14
f 7//7 14//14 12//12
f 7//7 11//11 15//15
f 7//7 15//15 16//16
f 7//7 16//16 17//17
f 7//7 17//17 18//18
f 7//7 18//18 13//13
f 8//8 19//19 20//20
f 8//8 20//20 9//9
f 9//9 20//20 21//21
f 9//9 21//21 22//22
f 9//9 22//22 23//23
f 9//9 23//23 24//24
f 9//9 24//24 10//10
f 10//10 24//24 11//11
f 11//11 24//24 25//25
f 11//11 25//25 16//16
f 11//11 16//16 15//15
f 12//12 26//26 27//27
f 12//12 14//14 13//13
f 12//12 13//13 28//28
f 12//12 28//28 26//26
f 13//13 18//18 28//28
f 16//16 25//25 24//24
f 16//16 24//24 29//29
f 16//16 29//29 30//30
f 16//16 30//30 31//31
f 16//16 31//31 18//18
f 16//16 18//18 17//17
f 18//18 31//31 32//32
f 18//18 32//32 33//33
f 18//18 33//33 34//34
f 18//18 34//34 35//35
f 18//18 35//35 28//28
f 19//19 36//36 20//20
f 19//19 37//37 38//38
f 19//19 38//38 39//39
f 19//19 39//39 40//40
f 19//19 40//40 41//41
f 19//19 41//41 36//36
f 20//20 36//36 41//41
f 20//20 41//41 21//21
f 21//21 41//41 42//42
f 21//21 42//42 43//43
f 21//21 43//43 44//44
f 21//21 44//44 22//22
f 22//22 45//45 46//46
f 22//22 46//46 23//23
f 22//22 44//44 47//47
f 22//22 47//47 45//45
f 23//23 46//46 48//48
f 23//23 48//48 49//49
f 23//23 49//49 24//24
f 24//24 49//49 50//50
f 24//24 50//50 29//29
f 26//26 51//51 27//27
f 26//26 28//28 35//35
f 26//26 35//35 51//51
f 27//27 51//51 52//52
f 29//29 50//50 30//30
f 30//30 50//50 49//49
f 30//30 49//49 48//48
f 30//30 48//48 45//45
f 30//30 45//45 47//47
f 30//30 47//47 44//44
f 30//30 44//44 62//62
f 30//30 62//62 72//72
f 30//30 72//72 71//71
f 30//30 71//71 61//61
f 30//30 61//61 60//60
f 30//30 60//60 74//74
f 30//30 74//74 85//85
f 30//30 85//85 100//100
f 30//30 100//100 112//112
f 30//30 112//112 125//125
f 30//30 125//125 135//135
f 30//30 135//135 134//134
f 30//30 134//134 147//147
f 30//30 147//147 136//136
f 30//30 136//136 126//126
f 30//30 126//126 115//115
f 30//30 115//115 105//105
f 30//30 105//105 104//104
f 30//30 104//104 103//103
f 30//30 103//103 94//94
f 30//30 94//94 108//108
f 30//30 108//108 92//92
f 30//30 92//92 77//77
f 30//30 77//77 67//67
f 30//30 67//67 66//66
f 30//30 66//66 65//65
f 30//30 65//65 54//54
f 30//30 54//54 53//53
f 30//30 53//53 32//32
f 30//30 32//32 31//31
f 32//32 53//53 33//33
f 33//33 53//53 34//34
f 34//34 53//53 54//54
f 34//34 54//54 55//55
f 34//34 55//55 51//51
f 34//34 51//51 35//35
f 37//37 56//56 38//38
f 38//38 57//57 58//58
f 38//38 58//58 39//39
f 38//38 56//56 59//59
f 38//38 59//59 60//60
f 38//38 60//60 61//61
f 38//38 61//61 57//57
f 39//39 58//58 57//57
f 39//39 57//57 62//62
f 39//39 62//62 40//40
f 40//40 42//42 41//41
f 40//40 62//62 43//43
f 40//40 43//43 42//42
f 43//43 62//62 44//44
f 45//45 48//48 46//46
f 51//51 63//63 64//64
f 51//51 64//64 52//52
f 51//51 55//55 63//63
f 54//54 65//65 55//55
f 55//55 65//65 66//66
f 55//55 66//66 67//67
f 55//55 67//67 68//68
f 55//55 68//68 69//69
f 55//55 69//69 63//63
f 56//56 70//70 59//59
f 57//57 61//61 71//71
f 57//57 71//71 72//72
f 57//57 72//72 62//62
f 59//59 70//70 73//73
f 59//59 73//73 74//74
f 59//59 74//74 60//60
f 63//63 75//75 64//64
f 63//63 69//69 75//75
f 64//64 75//75 76//76
f 67//67 77//77 69//69
f 67//67 69//69 68//68
f 69//69 78//78 75//75
f 69//69 77//77 78//78
f 70//70 79//79 73//73
f 73//73 79//79 80//80
f 73//73 80//80 81//81
f 73//73 81//81 82//82
f 73//73 82//82 74//74
f 74//74 83//83 84//84
f 74//74 84//84 85//85
f 74//74 82//82 81//81
f 74//74 81//81 86//86
f 74//74 86//86 83//83
f 75//75 87//87 88//88
f 75//75 88//88 76//76
f 75//75 78//78 87//87
f 76//76 88//88 89//89
f 76//76 89//89 90//90
f 76//76 90//90 91//91
f 77//77 92//92 78//78
f 78//78 92//92 93//93
f 78//78 93//93 94//94
f 78//78 94//94 87//87
f 81//81 95//95 96//96
f 81//81 96//96 83//83
f 81//81 83//83 86//86
f 83//83 96//96 84//84
f 84//84 96//96 95//95
f 84//84 95//95 97//97
f 84//84 97//97 98//98
f 84//84 98//98 99//99
f 84//84 99//99 85//85
f 85//85 99//99 101//101
f 85//85 101//101 100//100
f 87//87 89//89 88//88
f 87//87 94//94 89//89
f 89//89 102//102 90//90
f 89//89 94//94 103//103
f 89//89 103//103 104//104
f 89//89 104//104 105//105
f 89//89 105//105 102//102
f 90//90 106//106 91//91
f 90//90 102//102 105//105
f 90//90 105//105 107//107
f 90//90 107//107 106//106
f 92//92 108//108 93//93
f 93//93 108//108 94//94
f 97//97 109//109 98//98
f 98//98 109//109 110//110
f 98//98 110//110 101//101
f 98//98 101//101 99//99
f 100//100 111//111 112//112
f 100//100 101//101 111//111
f 101//101 110//110 113//113
f 101//101 113//113 114//114
f 101//101 114//114 111//111
f 105//105 115//115 116//116
f 105//105 116//116 117//117
f 105//105 117//117 118//118
f 105//105 118//118 119//119
f 105//105 119//119 120//120
f 105//105 120//120 107//107
f 106//106 107//107 120//120
f 109//109 121//121 122//122
f 109//109 122//122 123//123
f 109//109 123//123 110//110
f 110//110 123//123 113//113
f 111//111 124//124 112//112
f 111//111 114//114 113//113
f 111//111 113//113 124//124
f 112//112 124//124 125//125
f 113//113 123//123 124//124
f 115//115 126//126 127//127
f 115//115 127//127 116//116
f 116//116 127//127 128//128
f 117//117 119//119 118//118
f 121//121 129//129 130//130
f 121//121 130//130 131//131
f 121//121 131//131 122//122
f 122//122 131//131 123//123
f 123//123 131//131 132//132
f 123//123 132//132 124//124
f 124//124 132//132 133//133
f 124//124 133//133 134//134
f 124//124 134//134 135//135
f 124//124 135//135 125//125
f 126//126 136//136 137//137
f 126//126 137//137 127//127
f 127//127 137//137 138//138
f 127//127 138//138 139//139
f 127//127 139//139 140//140
f 127//127 140//140 141//141
f 127//127 141//141 128//128
f 129//129 142//142 143//143
f 129//129 143//143 130//130
f 130//130 138//138 137//137
f 130//130 137//137 131//131
f 130//130 143//143 144//144
f 130//130 144//144 139//139
f 130//130 139//139 138//138
f 131//131 137//137 145//145
f 131//131 145//145 133//133
f 131//131 133//133 132//132
f 133//133 146//146 134//134
f 133//133 145//145 146//146
f 134//134 146//146 147//147
f 136//136 147//147 137//137
f 137//137 147//147 146//146
f 137//137 146//146 145//145
f 142//142 148//148 143//143
f 143//143 148//148 144//144
