o link_1_1
v 0.219703 0.496267 0.275119
v 0.219703 0.493652 0.273959
v 0.219703 0.496664 0.275106
v 0.213405 0.498976 0.278399
v 0.213405 0.497319 0.278399
v 0.204342 0.497354 0.282933
v 0.195241 0.497621 0.287439
v 0.202761 0.494333 0.282266
v 0.199736 0.493833 0.282839
v 0.219703 0.492176 0.271546
v 0.219703 0.499563 0.274572
v 0.204342 0.498976 0.282933
v 0.149405 0.503291 0.305440
v 0.195241 0.498976 0.287439
v 0.185918 0.498053 0.291866
v 0.167038 0.498536 0.300640
v 0.154566 0.498027 0.305626
v 0.151158 0.495179 0.303533
v 0.219703 0.491952 0.271172
v 0.143947 0.494109 0.304960
v 0.140922 0.493712 0.305520
v 0.213331 0.489259 0.269226
v 0.219703 0.501807 0.271946
v 0.201070 0.501945 0.281132
v 0.191994 0.501945 0.285679
v 0.140341 0.503291 0.309946
v 0.137946 0.510049 0.303106
v 0.136723 0.508219 0.305906
v 0.133007 0.507097 0.309106
v 0.206824 0.502636 0.277426
v 0.219703 0.506312 0.266572
v 0.219703 0.526454 0.242492
v 0.185918 0.498925 0.291866
v 0.154566 0.499391 0.305626
v 0.144589 0.498812 0.309786
v 0.144589 0.498441 0.309786
v 0.151158 0.497449 0.306266
v 0.219703 0.490277 0.268106
v 0.146306 0.497078 0.307586
v 0.142082 0.498148 0.310053
v 0.137551 0.495481 0.308053
v 0.137551 0.493565 0.305773
v 0.137551 0.492573 0.302906
v 0.146627 0.491977 0.298373
v 0.210145 0.489130 0.269599
v 0.219703 0.488638 0.262092
v 0.219221 0.489112 0.265439
v 0.219703 0.489138 0.265332
v 0.216357 0.489604 0.268426
v 0.219703 0.490001 0.267572
v 0.130685 0.507589 0.309680
v 0.127660 0.508219 0.310360
v 0.137551 0.503878 0.310533
v 0.137551 0.500806 0.311200
v 0.141947 0.500521 0.310120
v 0.142342 0.519835 0.289199
v 0.124079 0.523555 0.293906
v 0.128870 0.510049 0.307653
v 0.219703 0.565868 0.195344
v 0.149590 0.571426 0.223865
v 0.133007 0.500806 0.311960
v 0.137551 0.497751 0.310386
v 0.133007 0.495360 0.308106
v 0.133007 0.493617 0.305840
v 0.133007 0.492547 0.302906
v 0.142082 0.491883 0.298373
v 0.210145 0.488853 0.266612
v 0.219221 0.488620 0.262065
v 0.151158 0.491425 0.293826
v 0.146627 0.491408 0.293826
v 0.219703 0.489009 0.257639
v 0.123943 0.515434 0.303680
v 0.123943 0.513164 0.306293
v 0.123943 0.510696 0.308560
v 0.123943 0.508426 0.310346
v 0.128895 0.505786 0.311320
v 0.133007 0.504828 0.311266
v 0.130747 0.530303 0.282493
v 0.119399 0.572064 0.238238
v 0.119399 0.526618 0.292586
v 0.123943 0.517332 0.301413
v 0.110323 0.572064 0.242785
v 0.219703 0.569984 0.190411
v 0.203971 0.571400 0.196611
v 0.142959 0.575085 0.222811
v 0.123659 0.505380 0.310720
v 0.128166 0.500426 0.311200
v 0.133007 0.497621 0.310426
v 0.129475 0.497949 0.310146
v 0.129759 0.493772 0.305600
v 0.128339 0.493332 0.303000
v 0.133007 0.492366 0.298373
v 0.137551 0.491986 0.298373
v 0.210145 0.489181 0.263212
v 0.142082 0.491926 0.293826
v 0.207429 0.489345 0.263986
v 0.219703 0.489069 0.257345
v 0.119399 0.524720 0.294853
v 0.119399 0.522450 0.297546
v 0.119399 0.520482 0.299813
v 0.119399 0.518213 0.302026
v 0.120486 0.513147 0.306226
v 0.121486 0.508098 0.309906
v 0.123610 0.573264 0.234692
v 0.115756 0.575093 0.236438
v 0.104260 0.571443 0.246559
v 0.105791 0.556729 0.263386
v 0.112731 0.575723 0.237198
v 0.219703 0.571883 0.188117
v 0.219221 0.571978 0.188251
v 0.167112 0.575697 0.209945
v 0.148997 0.575715 0.219025
v 0.139934 0.575715 0.223571
v 0.124993 0.501695 0.310560
v 0.121486 0.506907 0.309906
v 0.121967 0.503887 0.309453
v 0.126450 0.498666 0.309626
v 0.128104 0.496051 0.307613
v 0.126734 0.494152 0.304573
v 0.125758 0.493816 0.301546
v 0.125758 0.493816 0.300026
v 0.128598 0.493376 0.298453
v 0.133007 0.493436 0.294853
v 0.137291 0.492970 0.293506
v 0.142082 0.493203 0.289933
v 0.219703 0.489578 0.255652
v 0.110323 0.545173 0.274932
v 0.110323 0.543266 0.277199
v 0.105791 0.550239 0.270612
v 0.105791 0.552509 0.268319
v 0.116448 0.517971 0.301600
v 0.114867 0.527274 0.293039
v 0.116238 0.514416 0.302160
v 0.117658 0.509885 0.304306
v 0.101247 0.570174 0.249572
v 0.101247 0.567905 0.252292
v 0.105446 0.573272 0.243758
v 0.101247 0.565997 0.254559
v 0.103618 0.575697 0.241705
v 0.137551 0.576155 0.224158
v 0.128475 0.576155 0.228705
v 0.119399 0.576138 0.233252
v 0.219703 0.572030 0.187904
v 0.164766 0.575939 0.210411
v 0.150776 0.576440 0.216731
v 0.155703 0.576103 0.215078
v 0.146627 0.576138 0.219625
v 0.219703 0.573247 0.184957
v 0.219221 0.573341 0.184944
v 0.123659 0.500426 0.308773
v 0.117683 0.505345 0.304186
v 0.120189 0.505380 0.307746
v 0.120597 0.500806 0.306333
v 0.121387 0.498217 0.305466
v 0.123943 0.497276 0.306453
v 0.124116 0.495119 0.303000
v 0.120535 0.497475 0.298373
v 0.120757 0.497561 0.302906
v 0.124116 0.495145 0.298453
v 0.127166 0.494299 0.296999
v 0.130191 0.493842 0.295733
v 0.138637 0.493643 0.290879
v 0.219493 0.490683 0.253345
v 0.219703 0.490528 0.253559
v 0.102889 0.549920 0.270106
v 0.107137 0.540754 0.279266
v 0.101247 0.561501 0.259319
v 0.098049 0.563486 0.256679
v 0.101247 0.563728 0.257052
v 0.112151 0.526895 0.292466
v 0.112002 0.523494 0.293119
v 0.112904 0.518955 0.295253
v 0.114484 0.514416 0.298373
v 0.116522 0.505345 0.301920
v 0.101247 0.571952 0.247305
v 0.098148 0.571918 0.247305
v 0.097851 0.567784 0.252145
v 0.110323 0.576051 0.237758
v 0.114497 0.576379 0.234892
v 0.105236 0.575913 0.239625
v 0.103408 0.575697 0.241705
v 0.132636 0.576500 0.225811
v 0.123560 0.576457 0.230358
v 0.151158 0.576595 0.213211
v 0.172014 0.575706 0.205464
v 0.137551 0.576750 0.221238
v 0.219703 0.573264 0.184451
v 0.171397 0.575706 0.205318
v 0.172014 0.575706 0.205318
v 0.116732 0.502377 0.301546
v 0.118436 0.500840 0.303000
v 0.118263 0.499883 0.298373
v 0.116769 0.502549 0.294973
v 0.117312 0.503205 0.291946
v 0.121091 0.498105 0.295413
v 0.124079 0.497380 0.293879
v 0.128598 0.495248 0.294066
v 0.133007 0.494489 0.292586
v 0.135612 0.494109 0.291773
v 0.137291 0.494938 0.289333
v 0.142082 0.494368 0.287666
v 0.144441 0.494014 0.287053
v 0.219604 0.493194 0.248492
v 0.219703 0.493168 0.248492
v 0.219703 0.490657 0.253292
v 0.103445 0.544414 0.273586
v 0.098716 0.558748 0.260359
v 0.096962 0.564729 0.253399
v 0.097790 0.560068 0.257932
v 0.112151 0.518955 0.292986
v 0.103445 0.543300 0.273586
v 0.098839 0.543507 0.260159
v 0.114880 0.509885 0.298373
v 0.096962 0.569121 0.248679
v 0.097888 0.572392 0.243918
v 0.095863 0.568862 0.243918
v 0.110224 0.576310 0.234772
v 0.128475 0.576776 0.225785
v 0.114867 0.576517 0.230998
v 0.106853 0.576120 0.236225
v 0.103408 0.575697 0.241345
v 0.147392 0.576362 0.213731
v 0.142082 0.576638 0.217278
v 0.219703 0.572513 0.181384
v 0.112286 0.511576 0.289293
v 0.116559 0.502152 0.298373
v 0.112212 0.511473 0.285533
v 0.112607 0.512163 0.282506
v 0.116460 0.507115 0.286213
v 0.117880 0.508047 0.283186
v 0.121646 0.503067 0.287013
v 0.122659 0.499089 0.292399
v 0.125684 0.498251 0.291159
v 0.128475 0.497604 0.290226
v 0.132698 0.496802 0.288919
v 0.133994 0.498010 0.286279
v 0.137971 0.497587 0.284773
v 0.219703 0.494290 0.246612
v 0.219703 0.493237 0.248372
v 0.095740 0.559784 0.252999
v 0.094876 0.564194 0.248212
v 0.095888 0.555253 0.252999
v 0.094727 0.555253 0.249492
v 0.096147 0.550713 0.252999
v 0.094320 0.552750 0.246852
v 0.103828 0.575456 0.238318
v 0.098358 0.572030 0.240412
v 0.094863 0.565764 0.239398
v 0.093777 0.563495 0.239398
v 0.094690 0.565497 0.243918
v 0.124289 0.576483 0.225758
v 0.120202 0.576336 0.227252
v 0.111657 0.576224 0.231932
v 0.108644 0.575136 0.233198
v 0.098419 0.567085 0.232132
v 0.219221 0.572496 0.181531
v 0.216159 0.571805 0.182251
v 0.144367 0.575663 0.214451
v 0.135130 0.575767 0.218905
v 0.137551 0.576267 0.218345
v 0.128475 0.576302 0.222825
v 0.133377 0.576526 0.221198
v 0.219703 0.572151 0.181077
v 0.108026 0.521156 0.278586
v 0.094320 0.552750 0.245839
v 0.099000 0.543922 0.250785
v 0.104124 0.539736 0.251279
v 0.115941 0.511300 0.280212
v 0.098432 0.547900 0.245439
v 0.117053 0.512094 0.277879
v 0.123943 0.502515 0.286239
v 0.120905 0.507184 0.281906
v 0.123943 0.504137 0.283973
v 0.128475 0.499192 0.287959
v 0.130969 0.498631 0.287159
v 0.132698 0.499658 0.284773
v 0.136736 0.499114 0.283266
v 0.139761 0.498510 0.282453
v 0.219703 0.495870 0.244372
v 0.094764 0.559784 0.249265
v 0.094369 0.562597 0.246545
v 0.094246 0.559784 0.246999
v 0.094073 0.563227 0.243918
v 0.094196 0.555253 0.247225
v 0.093554 0.559784 0.243918
v 0.093962 0.555218 0.244158
v 0.099185 0.570951 0.237385
v 0.097691 0.567965 0.234852
v 0.093986 0.562951 0.236478
v 0.093616 0.559551 0.239118
v 0.126042 0.575767 0.223425
v 0.117176 0.575637 0.228092
v 0.103235 0.566903 0.227812
v 0.098098 0.564323 0.231918
v 0.219703 0.568957 0.179184
v 0.166248 0.567050 0.200451
v 0.134711 0.567042 0.214171
v 0.093962 0.556703 0.240452
v 0.095036 0.553682 0.242825
v 0.103470 0.543870 0.246145
v 0.099839 0.549031 0.242425
v 0.094629 0.557885 0.237425
v 0.098061 0.552051 0.240478
v 0.099346 0.553242 0.237452
v 0.119399 0.511490 0.277106
v 0.123140 0.508297 0.278879
v 0.107150 0.538856 0.250039
v 0.105791 0.544966 0.243065
v 0.113682 0.530838 0.255945
v 0.126993 0.503412 0.282959
v 0.130018 0.502765 0.282079
v 0.133007 0.502135 0.281266
v 0.137798 0.500892 0.280346
v 0.138847 0.502679 0.277439
v 0.219703 0.498174 0.241172
v 0.093986 0.560906 0.236478
v 0.112533 0.562166 0.223491
v 0.103235 0.565238 0.227812
v 0.144268 0.566679 0.209851
v 0.184103 0.562934 0.191251
v 0.098358 0.561018 0.232158
v 0.219703 0.564358 0.176731
v 0.215986 0.562882 0.177651
v 0.102865 0.548038 0.241145
v 0.101111 0.550636 0.239292
v 0.096493 0.559447 0.234665
v 0.099333 0.557989 0.232838
v 0.097654 0.556271 0.235865
v 0.100852 0.554959 0.234558
v 0.102371 0.552241 0.236278
v 0.121745 0.516720 0.268919
v 0.126166 0.507589 0.277919
v 0.105791 0.547236 0.240158
v 0.108705 0.544215 0.242065
v 0.116707 0.530105 0.255012
v 0.128487 0.504681 0.280426
v 0.133007 0.503878 0.278999
v 0.135822 0.503300 0.278239
v 0.133315 0.506381 0.275626
v 0.135032 0.507511 0.273279
v 0.134254 0.511714 0.268332
v 0.219703 0.499701 0.239198
v 0.217246 0.498657 0.241825
v 0.112533 0.562002 0.223491
v 0.103556 0.562209 0.228078
v 0.105359 0.563961 0.226865
v 0.219703 0.559784 0.175771
v 0.184103 0.560785 0.191251
v 0.219703 0.563866 0.176624
v 0.105791 0.549039 0.237892
v 0.104643 0.559784 0.228665
v 0.107989 0.557471 0.228012
v 0.102359 0.556677 0.231865
v 0.104569 0.553656 0.233252
v 0.107594 0.552724 0.232305
v 0.105964 0.551490 0.234798
v 0.119399 0.529492 0.254252
v 0.123523 0.517790 0.266572
v 0.124770 0.516038 0.268066
v 0.128475 0.512948 0.269892
v 0.131228 0.512353 0.269132
v 0.132006 0.508133 0.274079
v 0.128475 0.507106 0.277292
v 0.108100 0.548470 0.237158
v 0.109916 0.545984 0.239158
v 0.111731 0.543507 0.241158
v 0.119399 0.531313 0.251985
v 0.132846 0.513596 0.266732
v 0.132056 0.526290 0.251372
v 0.219703 0.526049 0.205744
v 0.117213 0.557609 0.223545
v 0.106903 0.559784 0.227398
v 0.216369 0.557013 0.177877
v 0.185400 0.557756 0.191851
v 0.188425 0.556418 0.191118
v 0.219703 0.555408 0.177277
v 0.113595 0.553536 0.228545
v 0.110323 0.554493 0.229345
v 0.106285 0.555564 0.230572
v 0.211763 0.552578 0.182357
v 0.116621 0.552733 0.227812
v 0.110323 0.552068 0.231612
v 0.113855 0.548996 0.233252
v 0.109903 0.549540 0.234798
v 0.122424 0.530631 0.251132
v 0.127512 0.517255 0.265039
v 0.128808 0.515460 0.266572
v 0.128475 0.527050 0.252319
v 0.111126 0.547753 0.236278
v 0.114867 0.544638 0.238025
v 0.114867 0.542800 0.240292
v 0.128475 0.529311 0.249532
v 0.219703 0.528042 0.203291
v 0.219703 0.555115 0.177437
v 0.219703 0.553406 0.178371
v 0.189870 0.548513 0.196358
v 0.219703 0.551102 0.180171
v 0.219703 0.550256 0.180891
v 0.219703 0.548314 0.182544
v 0.217665 0.548815 0.183011
v 0.214677 0.549557 0.183691
v 0.187450 0.546865 0.199211
v 0.171632 0.543930 0.209931
v 0.116880 0.548332 0.232452
v 0.187450 0.540124 0.206171
v 0.219703 0.530295 0.200824
v 0.117485 0.544060 0.237305
v 0.125450 0.529975 0.250319
v 0.211405 0.547943 0.186731
v 0.214677 0.544914 0.188237
v 0.187450 0.544595 0.201544
v 0.219703 0.546027 0.184811
v 0.214677 0.547184 0.185957
v 0.187450 0.542394 0.203811
vn 0.999828 -0.005976 0.017538
vn 0.365881 -0.562217 0.741649
vn 0.504445 0.141250 0.851812
vn 0.379493 0.553831 0.741119
vn 0.451464 -0.030249 0.891776
vn 0.444798 -0.038048 0.894822
vn 0.394796 -0.361197 0.844792
vn 0.300576 -0.635315 0.711357
vn 0.199783 -0.841196 0.502470
vn 0.292099 -0.816443 0.498095
vn 0.347628 0.686913 0.638205
vn 0.347933 0.624479 0.699263
vn 0.306738 0.729057 0.611873
vn 0.380565 0.487792 0.785639
vn 0.421689 -0.057241 0.904932
vn 0.403010 -0.062709 0.913045
vn 0.271456 -0.687561 0.673477
vn 0.239605 -0.752813 0.613076
vn 0.251245 -0.838369 0.483749
vn 0.225233 -0.771235 0.595371
vn 0.151960 -0.888980 0.431998
vn 0.153087 -0.900915 0.406099
vn 0.413531 0.695559 0.587529
vn 0.308757 0.724950 0.615725
vn 0.310305 0.720959 0.619620
vn 0.340081 0.550857 0.762169
vn 0.306221 0.730252 0.610705
vn 0.306036 0.730151 0.610918
vn 0.306074 0.728161 0.613270
vn 0.306636 0.729630 0.611240
vn 0.333795 0.723013 0.604841
vn 0.318113 0.727301 0.608143
vn 0.379825 0.419135 0.824657
vn 0.361814 0.311748 0.878581
vn 0.343573 0.220653 0.912836
vn 0.242310 -0.536075 0.808647
vn 0.234657 -0.739811 0.630567
vn 0.465818 -0.778037 0.421512
vn 0.227713 -0.739511 0.633459
vn 0.128771 -0.604228 0.786337
vn 0.083046 -0.733902 0.674160
vn 0.025270 -0.873620 0.485953
vn 0.046030 -0.966172 0.253757
vn 0.072311 -0.963404 0.258115
vn 0.017082 -0.991645 0.127863
vn 0.791375 -0.606165 0.079304
vn 0.074343 -0.985542 0.152247
vn 0.850769 -0.496121 0.173370
vn 0.197987 -0.914669 0.352394
vn 0.686439 -0.668755 0.285600
vn 0.295829 0.722037 0.625418
vn 0.207937 0.648458 0.732300
vn 0.246006 0.426834 0.870227
vn 0.203278 0.144653 0.968377
vn 0.247159 0.200533 0.947997
vn 0.306187 0.730307 0.610656
vn 0.306021 0.730326 0.610717
vn 0.305810 0.730172 0.611007
vn 0.331232 0.723979 0.605095
vn 0.306210 0.730337 0.610609
vn -0.000408 -0.114008 0.993480
vn 0.058868 -0.586670 0.807684
vn -0.043473 -0.746030 0.664492
vn -0.033943 -0.879020 0.475575
vn -0.062530 -0.983003 0.172611
vn 0.010757 -0.991024 0.133251
vn -0.044414 -0.998901 -0.014995
vn -0.028592 -0.999510 -0.012752
vn 0.006339 -0.993902 0.110088
vn -0.052708 -0.998337 -0.023350
vn 0.171702 -0.974558 -0.144065
vn 0.290278 0.728256 0.620792
vn 0.163295 0.704003 0.691169
vn -0.000288 0.645353 0.763884
vn -0.107708 0.416263 0.902842
vn -0.039681 0.170070 0.984633
vn 0.155794 0.292819 0.943390
vn 0.306125 0.730319 0.610673
vn 0.306119 0.730335 0.610657
vn 0.305380 0.730414 0.610933
vn 0.305559 0.730263 0.611023
vn 0.305728 0.730411 0.610762
vn 0.429518 0.693889 0.577955
vn 0.305846 0.731651 0.609217
vn 0.306072 0.730790 0.610136
vn -0.205959 -0.016565 0.978420
vn -0.185963 -0.277764 0.942478
vn -0.052487 -0.549539 0.833818
vn -0.181707 -0.663043 0.726193
vn -0.168510 -0.838115 0.518814
vn -0.188883 -0.975578 0.112119
vn -0.159161 -0.981346 -0.107828
vn -0.053121 -0.997552 0.045469
vn -0.082337 -0.991521 -0.100533
vn -0.158299 -0.952876 -0.258784
vn -0.112262 -0.980434 -0.161700
vn -0.012660 -0.961196 -0.275575
vn 0.299538 0.730488 0.613730
vn 0.279264 0.730077 0.623697
vn 0.133108 0.720281 0.680792
vn -0.066794 0.667852 0.741291
vn -0.175238 0.585155 0.791761
vn -0.615858 0.238952 0.750747
vn 0.305975 0.730652 0.610349
vn 0.305824 0.730812 0.610233
vn 0.305046 0.730650 0.610817
vn 0.303584 0.730518 0.611702
vn 0.297057 0.745595 0.596527
vn 0.991828 0.098852 0.080658
vn 0.303689 0.737913 0.602709
vn 0.261186 0.831547 0.490215
vn 0.303066 0.737518 0.603504
vn 0.295507 0.751899 0.589342
vn -0.428589 -0.326827 0.842315
vn -0.774854 -0.071401 0.628095
vn -0.621096 -0.323220 0.713981
vn -0.403000 -0.596787 0.693856
vn -0.291657 -0.717651 0.632388
vn -0.394413 -0.784963 0.477777
vn -0.429021 -0.901443 0.057812
vn -0.374054 -0.917721 -0.133684
vn -0.241553 -0.933064 -0.266539
vn -0.213929 -0.924635 -0.315095
vn -0.189303 -0.936113 -0.296408
vn -0.198834 -0.914640 -0.351994
vn -0.106407 -0.936671 -0.333655
vn 0.298191 0.730612 0.614238
vn 0.271146 0.731034 0.626154
vn -0.134210 0.667869 0.732078
vn 0.128500 0.724610 0.677073
vn -0.403999 0.528801 0.746428
vn -0.160360 0.655623 0.737864
vn -0.862284 0.033339 0.505326
vn -0.831112 -0.007189 0.556059
vn 0.200829 0.758355 0.620134
vn 0.250828 0.742316 0.621331
vn 0.297610 0.737069 0.606760
vn 0.154117 0.748061 0.645487
vn 0.241349 0.814348 0.527814
vn 0.257999 0.817905 0.514264
vn 0.229398 0.858024 0.459533
vn 0.195838 0.894071 0.402847
vn 0.672850 0.681726 0.287268
vn 0.082942 0.992763 0.086849
vn 0.081854 0.988070 0.130455
vn 0.198510 0.903855 0.378999
vn 0.227070 0.864132 0.449128
vn 0.732098 0.631654 0.255041
vn 0.065286 0.997373 0.031396
vn -0.553174 -0.451663 0.699999
vn -0.837767 -0.114317 0.533927
vn -0.785470 -0.223544 0.577118
vn -0.769429 -0.296847 0.565563
vn -0.599834 -0.583117 0.547881
vn -0.423867 -0.687219 0.589972
vn -0.534113 -0.792549 0.294262
vn -0.643590 -0.754754 -0.127036
vn -0.692068 -0.707564 0.142809
vn -0.462056 -0.832278 -0.306296
vn -0.368449 -0.845594 -0.386284
vn -0.269219 -0.880027 -0.391246
vn -0.238671 -0.868785 -0.433877
vn -0.238170 -0.863135 -0.445278
vn -0.046541 -0.908774 -0.414686
vn -0.482535 0.510990 0.711371
vn -0.199822 0.643549 0.738861
vn -0.107496 0.686621 0.719025
vn -0.372878 0.607896 0.701016
vn -0.033039 0.725515 0.687413
vn -0.762880 0.254522 0.594334
vn -0.867564 0.093745 0.488410
vn -0.937074 -0.063098 0.343383
vn -0.909766 -0.039422 0.413246
vn -0.936999 -0.090143 0.337502
vn 0.031438 0.813939 0.580099
vn -0.382613 0.794475 0.471610
vn -0.385709 0.685744 0.617238
vn 0.163642 0.921033 0.353438
vn 0.021188 0.995064 0.096951
vn -0.021524 0.997497 0.067352
vn -0.246685 0.912338 0.326781
vn 0.111743 0.968736 0.221502
vn 0.090207 0.977003 0.193205
vn -0.030196 0.985304 -0.168122
vn 0.070141 0.996061 0.054240
vn 0.036210 0.997733 0.056723
vn 0.812092 0.567487 -0.135884
vn -0.010494 0.990203 -0.139242
vn 0.017345 0.997180 -0.073012
vn -0.937488 -0.252709 0.239279
vn -0.775130 -0.476485 0.414892
vn -0.766971 -0.641630 0.008122
vn -0.750109 -0.627134 -0.209856
vn -0.670122 -0.680892 -0.295504
vn -0.515659 -0.749164 -0.415750
vn -0.396120 -0.794312 -0.460606
vn -0.327856 -0.820336 -0.468571
vn -0.285909 -0.837925 -0.464906
vn -0.268715 -0.840833 -0.469885
vn -0.278186 -0.820325 -0.499680
vn -0.269064 -0.819251 -0.506391
vn -0.240850 -0.859432 -0.450963
vn -0.247268 -0.850569 -0.464101
vn 0.999795 -0.017935 -0.009392
vn 0.999902 -0.012397 -0.006461
vn -0.870228 0.122924 0.477067
vn -0.871379 0.151377 0.466672
vn -0.892618 0.273358 0.358480
vn -0.904954 0.182191 0.384532
vn -0.945687 -0.099541 0.309464
vn -0.943024 -0.056225 0.327939
vn -0.953142 -0.127556 0.274318
vn -0.946143 -0.102256 0.307177
vn -0.875418 0.397954 0.274365
vn -0.707320 0.703768 -0.066404
vn -0.907267 0.413985 0.074050
vn -0.026867 0.998841 0.039948
vn -0.000094 0.999834 0.018227
vn -0.052981 0.996512 -0.064469
vn -0.415857 0.814277 -0.404989
vn -0.467558 0.875716 -0.120458
vn -0.238565 0.762429 -0.601489
vn -0.072043 0.986762 -0.145293
vn 0.736608 0.650010 -0.186806
vn -0.945354 -0.308724 0.104862
vn -0.890696 -0.454592 -0.002689
vn -0.859481 -0.497303 -0.118243
vn -0.585858 -0.690664 -0.423973
vn -0.509453 -0.728251 -0.458376
vn -0.497638 -0.730452 -0.467756
vn -0.431347 -0.749605 -0.502027
vn -0.431529 -0.763913 -0.479813
vn -0.370199 -0.777383 -0.508555
vn -0.326656 -0.796898 -0.508181
vn -0.298768 -0.813945 -0.498228
vn -0.298373 -0.793282 -0.530733
vn -0.275667 -0.808675 -0.519665
vn -0.200181 -0.821887 -0.533319
vn 0.999982 -0.005210 -0.003109
vn -0.938059 0.041522 0.343979
vn -0.936544 0.248853 0.246897
vn -0.945519 -0.037796 0.323365
vn -0.958942 -0.044885 0.280029
vn -0.961809 -0.108494 0.251300
vn -0.951574 -0.292407 0.094900
vn -0.548304 0.756094 -0.357330
vn -0.744402 0.608967 -0.273908
vn -0.859713 0.483230 -0.165473
vn -0.975579 0.219536 -0.007038
vn -0.948797 0.301453 0.094400
vn -0.094374 0.979607 -0.177382
vn -0.231442 0.875849 -0.423465
vn -0.419691 0.700920 -0.576690
vn -0.487619 0.694698 -0.528793
vn -0.566870 0.624922 -0.536778
vn -0.301066 0.596905 -0.743682
vn -0.337387 0.478648 -0.810596
vn -0.350272 0.460750 -0.815487
vn -0.356395 0.577511 -0.734482
vn -0.284044 0.759002 -0.585863
vn -0.208657 0.885110 -0.415983
vn -0.116112 0.967312 -0.225446
vn 0.999537 0.015909 -0.025941
vn -0.926634 -0.374876 0.028588
vn -0.836364 -0.516573 -0.183433
vn -0.755585 -0.591551 -0.281352
vn -0.508231 -0.708202 -0.490052
vn -0.513641 -0.709199 -0.482918
vn -0.562533 -0.681602 -0.467948
vn -0.417886 -0.728258 -0.543149
vn -0.358735 -0.762935 -0.537810
vn -0.376322 -0.746306 -0.549007
vn -0.368778 -0.749828 -0.549327
vn -0.353212 -0.764827 -0.538777
vn -0.329696 -0.767535 -0.549719
vn -0.316329 -0.762761 -0.564031
vn -0.309469 -0.762397 -0.568313
vn -0.294431 -0.772357 -0.562827
vn -0.075924 -0.811546 -0.579335
vn -0.969875 0.046039 0.239213
vn -0.976446 0.114533 0.182852
vn -0.974076 0.049728 0.220686
vn -0.975128 0.195271 0.104859
vn -0.979649 -0.007493 0.200577
vn -0.996661 0.016952 0.079867
vn -0.993291 -0.115050 -0.011645
vn -0.591693 0.690179 -0.416597
vn -0.794057 0.519237 -0.316017
vn -0.864457 0.358962 -0.351938
vn -0.997241 -0.046385 -0.057948
vn -0.364459 0.610524 -0.703158
vn -0.376845 0.637956 -0.671566
vn -0.407147 0.366989 -0.836391
vn -0.684881 0.002881 -0.728649
vn 0.882769 0.224512 -0.412690
vn -0.352085 0.427770 -0.832496
vn -0.360757 0.428214 -0.828545
vn -0.902237 -0.349867 -0.252116
vn -0.721794 -0.582926 -0.373109
vn -0.437007 -0.720912 -0.537876
vn -0.488531 -0.701922 -0.518308
vn -0.669207 -0.550107 -0.499544
vn -0.611228 -0.623772 -0.487143
vn -0.536785 -0.646038 -0.542676
vn -0.366235 -0.734678 -0.571069
vn -0.361930 -0.742551 -0.563582
vn -0.397584 -0.727884 -0.558671
vn -0.385702 -0.729549 -0.564794
vn -0.372342 -0.732184 -0.570322
vn -0.346548 -0.757115 -0.553789
vn -0.320529 -0.758667 -0.567174
vn -0.310860 -0.758332 -0.572974
vn -0.306113 -0.758707 -0.575029
vn -0.304356 -0.752216 -0.584413
vn -0.178290 -0.788581 -0.588518
vn -0.792777 -0.178000 -0.582941
vn -0.410850 0.016711 -0.911550
vn -0.548749 -0.075900 -0.832535
vn -0.379926 0.304808 -0.873355
vn -0.399667 0.131186 -0.907225
vn -0.619413 -0.205365 -0.757729
vn 0.817032 0.260574 -0.514353
vn -0.372811 0.271475 -0.887307
vn -0.416222 -0.717305 -0.558778
vn -0.454242 -0.699102 -0.552197
vn -0.650619 -0.354547 -0.671559
vn -0.520220 -0.453249 -0.723834
vn -0.549663 -0.582981 -0.598334
vn -0.468832 -0.620054 -0.629071
vn -0.418721 -0.689804 -0.590630
vn -0.350485 -0.736117 -0.579044
vn -0.330684 -0.743216 -0.581616
vn -0.384751 -0.725206 -0.571002
vn -0.362278 -0.731202 -0.578013
vn -0.345253 -0.734445 -0.584286
vn -0.320657 -0.752336 -0.575473
vn -0.314165 -0.750508 -0.581411
vn -0.309928 -0.751349 -0.582597
vn -0.309763 -0.748874 -0.585863
vn -0.308441 -0.748503 -0.587033
vn -0.307835 -0.745700 -0.590905
vn -0.142286 -0.777900 -0.612068
vn -0.303580 -0.753451 -0.583224
vn -0.392409 -0.367479 -0.843193
vn -0.495168 -0.283295 -0.821311
vn -0.453677 -0.125755 -0.882249
vn 0.908613 -0.021543 -0.417084
vn -0.404043 -0.166705 -0.899421
vn 0.999420 0.006996 -0.033330
vn -0.382073 -0.718559 -0.581114
vn -0.461500 -0.420809 -0.780985
vn -0.361627 -0.566118 -0.740767
vn -0.427287 -0.583942 -0.690245
vn -0.425924 -0.638734 -0.640786
vn -0.365225 -0.664787 -0.651666
vn -0.377876 -0.712137 -0.591668
vn -0.332296 -0.736712 -0.588927
vn -0.331154 -0.737069 -0.589123
vn -0.327517 -0.738577 -0.589267
vn -0.324891 -0.739856 -0.589117
vn -0.317692 -0.741632 -0.590807
vn -0.313301 -0.747274 -0.586023
vn -0.314043 -0.748801 -0.583673
vn -0.355635 -0.724190 -0.590824
vn -0.345964 -0.729113 -0.590510
vn -0.336144 -0.733533 -0.590709
vn -0.333439 -0.734551 -0.590977
vn -0.313909 -0.739763 -0.595157
vn -0.312592 -0.739296 -0.596429
vn -0.171058 -0.771393 -0.612937
vn -0.379318 -0.439069 -0.814454
vn -0.426710 -0.387750 -0.817049
vn -0.386841 -0.348663 -0.853691
vn -0.383040 -0.411661 -0.826931
vn -0.380543 -0.426355 -0.820615
vn 0.998904 -0.015735 -0.044078
vn -0.343579 -0.606780 -0.716779
vn -0.360339 -0.609081 -0.706523
vn -0.393225 -0.598564 -0.697922
vn -0.352730 -0.562441 -0.747825
vn -0.324597 -0.673254 -0.664354
vn -0.319624 -0.698589 -0.640167
vn -0.328186 -0.724472 -0.606163
vn -0.341663 -0.722843 -0.600636
vn -0.325767 -0.736206 -0.593192
vn -0.324414 -0.738327 -0.591294
vn -0.321086 -0.738548 -0.592832
vn -0.317924 -0.738778 -0.594248
vn -0.335651 -0.729790 -0.595605
vn -0.327948 -0.732735 -0.596280
vn -0.329239 -0.733764 -0.594299
vn -0.315053 -0.734331 -0.601249
vn -0.285220 -0.735748 -0.614267
vn 0.998247 -0.028367 -0.051946
vn 0.954007 -0.158853 -0.254238
vn -0.326669 -0.653186 -0.683107
vn 0.978036 -0.130210 -0.162758
vn 0.973982 -0.146916 -0.172553
vn 0.941782 -0.227707 -0.247378
vn -0.317787 -0.637654 -0.701718
vn -0.328927 -0.634578 -0.699370
vn -0.323339 -0.675629 -0.662554
vn -0.322232 -0.681250 -0.657317
vn -0.317084 -0.721313 -0.615764
vn -0.319236 -0.695620 -0.643585
vn 0.026312 -0.726501 -0.686662
vn -0.315773 -0.733245 -0.602195
vn -0.318703 -0.734602 -0.598989
vn -0.319272 -0.662280 -0.677828
vn -0.313715 -0.678307 -0.664442
vn -0.317525 -0.679997 -0.660895
vn 0.977394 -0.150491 -0.148506
vn -0.310697 -0.669890 -0.674326
vn -0.318182 -0.681783 -0.658736
f 1//1 2//2 10//10
f 1//1 10//10 19//19
f 1//1 19//19 38//38
f 1//1 38//38 50//50
f 1//1 50//50 48//48
f 1//1 48//48 46//46
f 1//1 46//46 71//71
f 1//1 71//71 97//97
f 1//1 97//97 126//126
f 1//1 126//126 164//164
f 1//1 164//164 205//205
f 1//1 205//205 204//204
f 1//1 204//204 239//239
f 1//1 239//239 238//238
f 1//1 238//238 279//279
f 1//1 279//279 315//315
f 1//1 315//315 342//342
f 1//1 342//342 370//370
f 1//1 370//370 393//393
f 1//1 393//393 406//406
f 1//1 406//406 412//412
f 1//1 412//412 399//399
f 1//1 399//399 398//398
f 1//1 398//398 397//397
f 1//1 397//397 395//395
f 1//1 395//395 394//394
f 1//1 394//394 376//376
f 1//1 376//376 347//347
f 1//1 347//347 349//349
f 1//1 349//349 322//322
f 1//1 322//322 295//295
f 1//1 295//295 263//263
f 1//1 263//263 224//224
f 1//1 224//224 187//187
f 1//1 187//187 148//148
f 1//1 148//148 143//143
f 1//1 143//143 109//109
f 1//1 109//109 83//83
f 1//1 83//83 59//59
f 1//1 59//59 32//32
f 1//1 32//32 31//31
f 1//1 31//31 23//23
f 1//1 23//23 11//11
f 1//1 11//11 3//3
f 1//1 3//3 4//4
f 1//1 4//4 5//5
f 1//1 5//5 6//6
f 1//1 6//6 7//7
f 1//1 7//7 2//2
f 2//2 8//8 9//9
f 2//2 9//9 10//10
f 2//2 7//7 8//8
f 3//3 11//11 4//4
f 4//4 12//12 6//6
f 4//4 6//6 5//5
f 4//4 11//11 13//13
f 4//4 13//13 12//12
f 6//6 12//12 14//14
f 6//6 14//14 7//7
f 7//7 14//14 33//33
f 7//7 33//33 15//15
f 7//7 15//15 16//16
f 7//7 16//16 8//8
f 8//8 16//16 17//17
f 8//8 17//17 18//18
f 8//8 18//18 9//9
f 9//9 19//19 10//10
f 9//9 18//18 20//20
f 9//9 20//20 21//21
f 9//9 21//21 22//22
f 9//9 22//22 19//19
f 11//11 23//23 24//24
f 11//11 24//24 25//25
f 11//11 25//25 13//13
f 12//12 13//13 26//26
f 12//12 26//26 14//14
f 13//13 27//27 28//28
f 13//13 28//28 29//29
f 13//13 29//29 26//26
f 13//13 25//25 24//24
f 13//13 24//24 30//30
f 13//13 30//30 31//31
f 13//13 31//31 32//32
f 13//13 32//32 27//27
f 14//14 26//26 33//33
f 15//15 33//33 16//16
f 16//16 33//33 26//26
f 16//16 26//26 34//34
f 16//16 34//34 35//35
f 16//16 35//35 36//36
f 16//16 36//36 17//17
f 17//17 36//36 37//37
f 17//17 37//37 18//18
f 18//18 37//37 20//20
f 19//19 22//22 38//38
f 20//20 37//37 39//39
f 20//20 39//39 36//36
f 20//20 36//36 21//21
f 21//21 36//36 40//40
f 21//21 40//40 41//41
f 21//21 41//41 42//42
f 21//21 42//42 43//43
f 21//21 43//43 44//44
f 21//21 44//44 22//22
f 22//22 45//45 46//46
f 22//22 46//46 47//47
f 22//22 47//47 48//48
f 22//22 48//48 49//49
f 22//22 49//49 50//50
f 22//22 50//50 38//38
f 22//22 44//44 45//45
f 23//23 30//30 24//24
f 23//23 31//31 30//30
f 26//26 29//29 51//51
f 26//26 51//51 52//52
f 26//26 52//52 53//53
f 26//26 53//53 54//54
f 26//26 54//54 55//55
f 26//26 55//55 35//35
f 26//26 35//35 34//34
f 27//27 56//56 57//57
f 27//27 57//57 28//28
f 27//27 32//32 56//56
f 28//28 58//58 29//29
f 28//28 57//57 58//58
f 29//29 58//58 51//51
f 32//32 59//59 60//60
f 32//32 60//60 56//56
f 35//35 55//55 54//54
f 35//35 54//54 36//36
f 36//36 39//39 37//37
f 36//36 54//54 61//61
f 36//36 61//61 40//40
f 40//40 61//61 62//62
f 40//40 62//62 41//41
f 41//41 62//62 63//63
f 41//41 63//63 42//42
f 42//42 64//64 65//65
f 42//42 65//65 43//43
f 42//42 63//63 64//64
f 43//43 65//65 66//66
f 43//43 66//66 44//44
f 44//44 66//66 45//45
f 45//45 67//67 68//68
f 45//45 68//68 46//46
f 45//45 66//66 69//69
f 45//45 69//69 70//70
f 45//45 70//70 67//67
f 46//46 68//68 71//71
f 46//46 48//48 47//47
f 48//48 50//50 49//49
f 51//51 58//58 72//72
f 51//51 72//72 52//52
f 52//52 73//73 74//74
f 52//52 74//74 75//75
f 52//52 75//75 76//76
f 52//52 76//76 77//77
f 52//52 77//77 53//53
f 52//52 72//72 73//73
f 53//53 77//77 54//54
f 54//54 77//77 61//61
f 56//56 78//78 57//57
f 56//56 60//60 79//79
f 56//56 79//79 78//78
f 57//57 80//80 81//81
f 57//57 81//81 58//58
f 57//57 78//78 79//79
f 57//57 79//79 82//82
f 57//57 82//82 80//80
f 58//58 81//81 72//72
f 59//59 83//83 84//84
f 59//59 84//84 85//85
f 59//59 85//85 60//60
f 60//60 85//85 79//79
f 61//61 76//76 86//86
f 61//61 86//86 87//87
f 61//61 87//87 88//88
f 61//61 88//88 62//62
f 61//61 77//77 76//76
f 62//62 88//88 63//63
f 63//63 88//88 89//89
f 63//63 89//89 90//90
f 63//63 90//90 64//64
f 64//64 90//90 65//65
f 65//65 90//90 91//91
f 65//65 91//91 92//92
f 65//65 92//92 93//93
f 65//65 93//93 66//66
f 66//66 93//93 70//70
f 66//66 70//70 69//69
f 67//67 94//94 71//71
f 67//67 71//71 68//68
f 67//67 70//70 94//94
f 70//70 93//93 92//92
f 70//70 92//92 95//95
f 70//70 95//95 96//96
f 70//70 96//96 94//94
f 71//71 94//94 96//96
f 71//71 96//96 95//95
f 71//71 95//95 97//97
f 72//72 81//81 80//80
f 72//72 80//80 98//98
f 72//72 98//98 99//99
f 72//72 99//99 100//100
f 72//72 100//100 73//73
f 73//73 100//100 101//101
f 73//73 101//101 74//74
f 74//74 101//101 102//102
f 74//74 102//102 75//75
f 75//75 103//103 86//86
f 75//75 86//86 76//76
f 75//75 102//102 103//103
f 79//79 85//85 104//104
f 79//79 104//104 105//105
f 79//79 105//105 82//82
f 80//80 106//106 107//107
f 80//80 107//107 98//98
f 80//80 82//82 106//106
f 82//82 105//105 108//108
f 82//82 108//108 106//106
f 83//83 109//109 110//110
f 83//83 110//110 84//84
f 84//84 110//110 111//111
f 84//84 111//111 112//112
f 84//84 112//112 85//85
f 85//85 113//113 108//108
f 85//85 108//108 105//105
f 85//85 105//105 104//104
f 85//85 112//112 113//113
f 86//86 114//114 87//87
f 86//86 103//103 115//115
f 86//86 115//115 116//116
f 86//86 116//116 114//114
f 87//87 114//114 117//117
f 87//87 117//117 89//89
f 87//87 89//89 88//88
f 89//89 117//117 118//118
f 89//89 118//118 90//90
f 90//90 119//119 91//91
f 90//90 118//118 119//119
f 91//91 119//119 120//120
f 91//91 120//120 92//92
f 92//92 120//120 121//121
f 92//92 121//121 122//122
f 92//92 122//122 123//123
f 92//92 123//123 124//124
f 92//92 124//124 95//95
f 95//95 124//124 125//125
f 95//95 125//125 126//126
f 95//95 126//126 97//97
f 98//98 107//107 127//127
f 98//98 127//127 128//128
f 98//98 128//128 99//99
f 99//99 128//128 100//100
f 100//100 129//129 101//101
f 100//100 128//128 130//130
f 100//100 130//130 129//129
f 101//101 131//131 102//102
f 101//101 129//129 132//132
f 101//101 132//132 131//131
f 102//102 131//131 103//103
f 103//103 131//131 133//133
f 103//103 133//133 134//134
f 103//103 134//134 115//115
f 106//106 135//135 136//136
f 106//106 136//136 107//107
f 106//106 108//108 137//137
f 106//106 137//137 135//135
f 107//107 136//136 138//138
f 107//107 138//138 128//128
f 107//107 128//128 127//127
f 108//108 139//139 137//137
f 108//108 113//113 140//140
f 108//108 140//140 141//141
f 108//108 141//141 142//142
f 108//108 142//142 139//139
f 109//109 143//143 110//110
f 110//110 143//143 111//111
f 111//111 144//144 145//145
f 111//111 145//145 146//146
f 111//111 146//146 147//147
f 111//111 147//147 112//112
f 111//111 143//143 148//148
f 111//111 148//148 149//149
f 111//111 149//149 144//144
f 112//112 147//147 140//140
f 112//112 140//140 113//113
f 114//114 116//116 150//150
f 114//114 150//150 117//117
f 115//115 134//134 151//151
f 115//115 151//151 152//152
f 115//115 152//152 116//116
f 116//116 152//152 153//153
f 116//116 153//153 154//154
f 116//116 154//154 150//150
f 117//117 150//150 154//154
f 117//117 154//154 155//155
f 117//117 155//155 119//119
f 117//117 119//119 118//118
f 119//119 155//155 154//154
f 119//119 154//154 156//156
f 119//119 156//156 120//120
f 120//120 157//157 121//121
f 120//120 156//156 158//158
f 120//120 158//158 157//157
f 121//121 159//159 160//160
f 121//121 160//160 122//122
f 121//121 157//157 159//159
f 122//122 160//160 161//161
f 122//122 161//161 123//123
f 123//123 162//162 125//125
f 123//123 125//125 124//124
f 123//123 161//161 162//162
f 125//125 162//162 163//163
f 125//125 163//163 164//164
f 125//125 164//164 126//126
f 128//128 138//138 130//130
f 129//129 165//165 166//166
f 129//129 166//166 131//131
f 129//129 131//131 132//132
f 129//129 130//130 167//167
f 129//129 167//167 168//168
f 129//129 168//168 165//165
f 130//130 138//138 169//169
f 130//130 169//169 167//167
f 131//131 166//166 165//165
f 131//131 165//165 170//170
f 131//131 170//170 171//171
f 131//131 171//171 133//133
f 133//133 151//151 134//134
f 133//133 171//171 172//172
f 133//133 172//172 173//173
f 133//133 173//173 174//174
f 133//133 174//174 151//151
f 135//135 137//137 139//139
f 135//135 139//139 175//175
f 135//135 175//175 176//176
f 135//135 176//176 136//136
f 136//136 176//176 138//138
f 138//138 176//176 177//177
f 138//138 177//177 169//169
f 139//139 142//142 178//178
f 139//139 178//178 179//179
f 139//139 179//179 180//180
f 139//139 180//180 181//181
f 139//139 181//181 175//175
f 140//140 182//182 141//141
f 140//140 147//147 182//182
f 141//141 182//182 142//142
f 142//142 182//182 183//183
f 142//142 183//183 179//179
f 142//142 179//179 178//178
f 144//144 184//184 145//145
f 144//144 149//149 185//185
f 144//144 185//185 184//184
f 145//145 147//147 146//146
f 145//145 184//184 186//186
f 145//145 186//186 182//182
f 145//145 182//182 147//147
f 148//148 187//187 149//149
f 149//149 187//187 184//184
f 149//149 184//184 188//188
f 149//149 188//188 189//189
f 149//149 189//189 185//185
f 151//151 153//153 152//152
f 151//151 174//174 190//190
f 151//151 190//190 153//153
f 153//153 190//190 191//191
f 153//153 191//191 154//154
f 154//154 191//191 158//158
f 154//154 158//158 156//156
f 157//157 192//192 193//193
f 157//157 193//193 194//194
f 157//157 194//194 195//195
f 157//157 195//195 159//159
f 157//157 158//158 192//192
f 158//158 191//191 190//190
f 158//158 190//190 192//192
f 159//159 195//195 160//160
f 160//160 195//195 196//196
f 160//160 196//196 197//197
f 160//160 197//197 161//161
f 161//161 197//197 198//198
f 161//161 198//198 162//162
f 162//162 199//199 200//200
f 162//162 200//200 201//201
f 162//162 201//201 202//202
f 162//162 202//202 163//163
f 162//162 198//198 199//199
f 163//163 203//203 204//204
f 163//163 204//204 205//205
f 163//163 205//205 164//164
f 163//163 202//202 203//203
f 165//165 206//206 170//170
f 165//165 168//168 207//207
f 165//165 207//207 206//206
f 167//167 169//169 168//168
f 168//168 169//169 177//177
f 168//168 177//177 208//208
f 168//168 208//208 209//209
f 168//168 209//209 207//207
f 170//170 206//206 171//171
f 171//171 206//206 172//172
f 172//172 210//210 174//174
f 172//172 174//174 173//173
f 172//172 206//206 211//211
f 172//172 211//211 212//212
f 172//172 212//212 210//210
f 174//174 210//210 213//213
f 174//174 213//213 212//212
f 174//174 212//212 190//190
f 175//175 181//181 176//176
f 176//176 214//214 177//177
f 176//176 181//181 215//215
f 176//176 215//215 216//216
f 176//176 216//216 214//214
f 177//177 214//214 208//208
f 179//179 217//217 180//180
f 179//179 183//183 218//218
f 179//179 218//218 219//219
f 179//179 219//219 217//217
f 180//180 217//217 220//220
f 180//180 220//220 181//181
f 181//181 220//220 221//221
f 181//181 221//221 215//215
f 182//182 186//186 218//218
f 182//182 218//218 183//183
f 184//184 222//222 223//223
f 184//184 223//223 186//186
f 184//184 185//185 189//189
f 184//184 189//189 188//188
f 184//184 187//187 224//224
f 184//184 224//224 222//222
f 186//186 223//223 218//218
f 190//190 225//225 226//226
f 190//190 226//226 192//192
f 190//190 212//212 225//225
f 192//192 226//226 193//193
f 193//193 226//226 227//227
f 193//193 227//227 228//228
f 193//193 228//228 194//194
f 194//194 228//228 195//195
f 195//195 228//228 229//229
f 195//195 229//229 230//230
f 195//195 230//230 231//231
f 195//195 231//231 232//232
f 195//195 232//232 196//196
f 196//196 232//232 231//231
f 196//196 231//231 233//233
f 196//196 233//233 197//197
f 197//197 233//233 234//234
f 197//197 234//234 235//235
f 197//197 235//235 198//198
f 198//198 235//235 200//200
f 198//198 200//200 199//199
f 200//200 235//235 236//236
f 200//200 236//236 237//237
f 200//200 237//237 201//201
f 201//201 237//237 238//238
f 201//201 238//238 203//203
f 201//201 203//203 202//202
f 203//203 238//238 239//239
f 203//203 239//239 204//204
f 206//206 207//207 240//240
f 206//206 240//240 211//211
f 207//207 209//209 240//240
f 208//208 214//214 241//241
f 208//208 241//241 240//240
f 208//208 240//240 209//209
f 210//210 212//212 213//213
f 211//211 240//240 242//242
f 211//211 242//242 212//212
f 212//212 242//242 243//243
f 212//212 243//243 244//244
f 212//212 244//244 245//245
f 212//212 245//245 225//225
f 214//214 216//216 241//241
f 215//215 221//221 246//246
f 215//215 246//246 247//247
f 215//215 247//247 248//248
f 215//215 248//248 216//216
f 216//216 248//248 249//249
f 216//216 249//249 250//250
f 216//216 250//250 241//241
f 217//217 219//219 220//220
f 218//218 223//223 219//219
f 219//219 223//223 251//251
f 219//219 251//251 252//252
f 219//219 252//252 253//253
f 219//219 253//253 220//220
f 220//220 246//246 221//221
f 220//220 253//253 254//254
f 220//220 254//254 255//255
f 220//220 255//255 246//246
f 222//222 224//224 256//256
f 222//222 256//256 257//257
f 222//222 257//257 258//258
f 222//222 258//258 259//259
f 222//222 259//259 260//260
f 222//222 260//260 261//261
f 222//222 261//261 223//223
f 223//223 262//262 251//251
f 223//223 261//261 262//262
f 224//224 263//263 256//256
f 225//225 264//264 227//227
f 225//225 227//227 226//226
f 225//225 245//245 264//264
f 227//227 264//264 245//245
f 227//227 245//245 265//265
f 227//227 265//265 266//266
f 227//227 266//266 228//228
f 228//228 267//267 268//268
f 228//228 268//268 230//230
f 228//228 230//230 229//229
f 228//228 266//266 269//269
f 228//228 269//269 267//267
f 230//230 268//268 270//270
f 230//230 270//270 231//231
f 231//231 271//271 233//233
f 231//231 270//270 272//272
f 231//231 272//272 273//273
f 231//231 273//273 271//271
f 233//233 271//271 274//274
f 233//233 274//274 234//234
f 234//234 274//274 275//275
f 234//234 275//275 236//236
f 234//234 236//236 235//235
f 236//236 276//276 277//277
f 236//236 277//277 278//278
f 236//236 278//278 237//237
f 236//236 275//275 276//276
f 237//237 278//278 238//238
f 238//238 278//278 279//279
f 240//240 241//241 280//280
f 240//240 280//280 243//243
f 240//240 243//243 242//242
f 241//241 281//281 282//282
f 241//241 282//282 280//280
f 241//241 250//250 283//283
f 241//241 283//283 281//281
f 243//243 280//280 284//284
f 243//243 284//284 245//245
f 243//243 245//245 244//244
f 245//245 284//284 285//285
f 245//245 285//285 286//286
f 245//245 286//286 265//265
f 246//246 287//287 247//247
f 246//246 255//255 287//287
f 247//247 287//287 255//255
f 247//247 255//255 288//288
f 247//247 288//288 289//289
f 247//247 289//289 248//248
f 248//248 289//289 249//249
f 249//249 289//289 290//290
f 249//249 290//290 285//285
f 249//249 285//285 283//283
f 249//249 283//283 250//250
f 251//251 262//262 252//252
f 252//252 262//262 261//261
f 252//252 261//261 291//291
f 252//252 291//291 292//292
f 252//252 292//292 253//253
f 253//253 292//292 293//293
f 253//253 293//293 255//255
f 253//253 255//255 254//254
f 255//255 293//293 294//294
f 255//255 294//294 289//289
f 255//255 289//289 288//288
f 256//256 263//263 257//257
f 257//257 263//263 295//295
f 257//257 295//295 296//296
f 257//257 296//296 258//258
f 258//258 296//296 297//297
f 258//258 297//297 293//293
f 258//258 293//293 259//259
f 259//259 293//293 291//291
f 259//259 291//291 261//261
f 259//259 261//261 260//260
f 265//265 286//286 298//298
f 265//265 298//298 299//299
f 265//265 299//299 266//266
f 266//266 299//299 269//269
f 267//267 300//300 270//270
f 267//267 270//270 268//268
f 267//267 269//269 301//301
f 267//267 301//301 300//300
f 269//269 299//299 302//302
f 269//269 302//302 303//303
f 269//269 303//303 304//304
f 269//269 304//304 301//301
f 270//270 305//305 306//306
f 270//270 306//306 272//272
f 270//270 300//300 307//307
f 270//270 307//307 308//308
f 270//270 308//308 309//309
f 270//270 309//309 305//305
f 271//271 273//273 310//310
f 271//271 310//310 274//274
f 272//272 306//306 273//273
f 273//273 306//306 310//310
f 274//274 310//310 275//275
f 275//275 310//310 311//311
f 275//275 311//311 276//276
f 276//276 311//311 312//312
f 276//276 312//312 277//277
f 277//277 312//312 313//313
f 277//277 313//313 278//278
f 278//278 313//313 314//314
f 278//278 314//314 315//315
f 278//278 315//315 279//279
f 280//280 282//282 284//284
f 281//281 283//283 285//285
f 281//281 285//285 282//282
f 282//282 285//285 284//284
f 285//285 290//290 286//286
f 286//286 290//290 298//298
f 289//289 316//316 290//290
f 289//289 294//294 316//316
f 290//290 316//316 298//298
f 291//291 293//293 292//292
f 293//293 317//317 344//344
f 293//293 344//344 318//318
f 293//293 318//318 294//294
f 293//293 297//297 319//319
f 293//293 319//319 320//320
f 293//293 320//320 317//317
f 294//294 321//321 316//316
f 294//294 318//318 321//321
f 295//295 322//322 296//296
f 296//296 322//322 323//323
f 296//296 323//323 320//320
f 296//296 320//320 319//319
f 296//296 319//319 297//297
f 298//298 316//316 302//302
f 298//298 302//302 299//299
f 300//300 301//301 324//324
f 300//300 324//324 307//307
f 301//301 304//304 325//325
f 301//301 325//325 324//324
f 302//302 316//316 326//326
f 302//302 326//326 327//327
f 302//302 327//327 328//328
f 302//302 328//328 304//304
f 302//302 304//304 303//303
f 304//304 328//328 329//329
f 304//304 329//329 330//330
f 304//304 330//330 325//325
f 305//305 309//309 331//331
f 305//305 331//331 306//306
f 306//306 332//332 310//310
f 306//306 331//331 332//332
f 307//307 324//324 308//308
f 308//308 324//324 333//333
f 308//308 333//333 334//334
f 308//308 334//334 309//309
f 309//309 335//335 331//331
f 309//309 334//334 335//335
f 310//310 332//332 336//336
f 310//310 336//336 311//311
f 311//311 336//336 337//337
f 311//311 337//337 312//312
f 312//312 337//337 338//338
f 312//312 338//338 314//314
f 312//312 314//314 313//313
f 314//314 338//338 339//339
f 314//314 339//339 340//340
f 314//314 340//340 341//341
f 314//314 341//341 342//342
f 314//314 342//342 343//343
f 314//314 343//343 315//315
f 315//315 343//343 342//342
f 316//316 321//321 326//326
f 317//317 320//320 348//348
f 317//317 348//348 344//344
f 318//318 345//345 321//321
f 318//318 344//344 346//346
f 318//318 346//346 345//345
f 320//320 323//323 347//347
f 320//320 347//347 348//348
f 321//321 345//345 327//327
f 321//321 327//327 326//326
f 322//322 349//349 323//323
f 323//323 349//349 347//347
f 324//324 325//325 330//330
f 324//324 330//330 350//350
f 324//324 350//350 333//333
f 327//327 345//345 351//351
f 327//327 351//351 352//352
f 327//327 352//352 353//353
f 327//327 353//353 329//329
f 327//327 329//329 328//328
f 329//329 353//353 354//354
f 329//329 354//354 330//330
f 330//330 354//354 355//355
f 330//330 355//355 356//356
f 330//330 356//356 350//350
f 331//331 335//335 357//357
f 331//331 357//357 358//358
f 331//331 358//358 359//359
f 331//331 359//359 332//332
f 332//332 360//360 361//361
f 332//332 361//361 362//362
f 332//332 362//362 363//363
f 332//332 363//363 337//337
f 332//332 337//337 336//336
f 332//332 359//359 360//360
f 333//333 350//350 334//334
f 334//334 350//350 364//364
f 334//334 364//364 365//365
f 334//334 365//365 366//366
f 334//334 366//366 335//335
f 335//335 367//367 357//357
f 335//335 366//366 367//367
f 337//337 363//363 362//362
f 337//337 362//362 339//339
f 337//337 339//339 338//338
f 339//339 362//362 340//340
f 340//340 362//362 341//341
f 341//341 362//362 361//361
f 341//341 361//361 368//368
f 341//341 368//368 369//369
f 341//341 369//369 370//370
f 341//341 370//370 342//342
f 344//344 371//371 352//352
f 344//344 352//352 372//372
f 344//344 372//372 345//345
f 344//344 345//345 346//346
f 344//344 348//348 373//373
f 344//344 373//373 374//374
f 344//344 374//374 375//375
f 344//344 375//375 371//371
f 345//345 372//372 351//351
f 347//347 376//376 373//373
f 347//347 373//373 348//348
f 350//350 356//356 364//364
f 351//351 372//372 352//352
f 352//352 377//377 378//378
f 352//352 378//378 355//355
f 352//352 355//355 379//379
f 352//352 379//379 353//353
f 352//352 371//371 380//380
f 352//352 380//380 377//377
f 353//353 379//379 355//355
f 353//353 355//355 354//354
f 355//355 378//378 377//377
f 355//355 377//377 381//381
f 355//355 381//381 382//382
f 355//355 382//382 383//383
f 355//355 383//383 384//384
f 355//355 384//384 364//364
f 355//355 364//364 356//356
f 357//357 367//367 385//385
f 357//357 385//385 358//358
f 358//358 385//385 359//359
f 359//359 385//385 386//386
f 359//359 386//386 360//360
f 360//360 386//386 387//387
f 360//360 387//387 361//361
f 361//361 387//387 388//388
f 361//361 388//388 368//368
f 364//364 384//384 389//389
f 364//364 389//389 365//365
f 365//365 389//389 366//366
f 366//366 389//389 390//390
f 366//366 390//390 391//391
f 366//366 391//391 385//385
f 366//366 385//385 367//367
f 368//368 388//388 369//369
f 369//369 388//388 392//392
f 369//369 392//392 393//393
f 369//369 393//393 370//370
f 371//371 375//375 380//380
f 373//373 376//376 394//394
f 373//373 394//394 395//395
f 373//373 395//395 380//380
f 373//373 380//380 375//375
f 373//373 375//375 374//374
f 377//377 380//380 396//396
f 377//377 396//396 381//381
f 380//380 395//395 397//397
f 380//380 397//397 398//398
f 380//380 398//398 399//399
f 380//380 399//399 400//400
f 380//380 400//400 401//401
f 380//380 401//401 396//396
f 381//381 396//396 402//402
f 381//381 402//402 403//403
f 381//381 403//403 382//382
f 382//382 404//404 383//383
f 382//382 403//403 405//405
f 382//382 405//405 406//406
f 382//382 406//406 393//393
f 382//382 393//393 404//404
f 383//383 404//404 407//407
f 383//383 407//407 390//390
f 383//383 390//390 389//389
f 383//383 389//389 384//384
f 385//385 408//408 388//388
f 385//385 388//388 387//387
f 385//385 387//387 386//386
f 385//385 391//391 390//390
f 385//385 390//390 407//407
f 385//385 407//407 408//408
f 388//388 408//408 392//392
f 392//392 408//408 407//407
f 392//392 407//407 393//393
f 393//393 407//407 404//404
f 396//396 401//401 409//409
f 396//396 409//409 410//410
f 396//396 410//410 406//406
f 396//396 406//406 411//411
f 396//396 411//411 402//402
f 399//399 412//412 413//413
f 399//399 413//413 409//409
f 399//399 409//409 400//400
f 400//400 409//409 401//401
f 402//402 411//411 403//403
f 403//403 411//411 414//414
f 403//403 414//414 405//405
f 405//405 414//414 406//406
f 406//406 414//414 411//411
f 406//406 410//410 412//412
f 409//409 413//413 410//410
f 410//410 413//413 412//412
