o link_1_21
v 0.255505 0.523670 0.204134
v 0.255505 0.523670 0.195766
v 0.248682 0.523670 0.204134
v 0.255505 0.515630 0.204134
v 0.248682 0.523670 0.195747
v 0.248682 0.510456 0.201023
v 0.248682 0.510456 0.204134
v 0.250887 0.510456 0.204134
v 0.250089 0.510456 0.202940
vn 0.327999 0.557391 0.762714
vn 0.672617 -0.178288 -0.718192
vn -0.818089 0.308175 0.485550
vn 0.891579 -0.419202 -0.171335
vn -0.679343 0.481234 -0.553993
vn -0.365302 -0.541126 -0.757454
vn -0.325218 -0.054289 0.944079
vn 0.097021 -0.196697 0.975652
vn 0.659440 -0.588607 -0.467634
f 1//1 2//2 5//5
f 1//1 5//5 3//3
f 1//1 3//3 7//7
f 1//1 7//7 8//8
f 1//1 8//8 4//4
f 1//1 4//4 2//2
f 2//2 4//4 6//6
f 2//2 6//6 5//5
f 3//3 5//5 6//6
f 3//3 6//6 7//7
f 4//4 8//8 9//9
f 4//4 9//9 6//6
f 6//6 9//9 8//8
f 6//6 8//8 7//7
