o link_3
v 0.278213 0.316394 0.012770
v 0.273673 0.317960 0.013753
v 0.273673 0.317093 0.012770
v 0.282714 0.319676 0.012770
v 0.281340 0.320725 0.015592
v 0.278213 0.317693 0.014163
v 0.272359 0.339518 0.037685
v 0.271099 0.339518 0.037685
v 0.273673 0.330771 0.028255
v 0.266648 0.353229 0.051206
v 0.270213 0.325257 0.020272
v 0.272827 0.317560 0.012770
v 0.283506 0.321109 0.012770
v 0.281126 0.325257 0.020164
v 0.275386 0.339851 0.037346
v 0.272418 0.348315 0.047062
v 0.246450 0.486594 0.195231
v 0.243806 0.484511 0.192248
v 0.263308 0.358277 0.055063
v 0.267191 0.326357 0.018986
v 0.268953 0.323724 0.017200
v 0.263621 0.354062 0.050152
v 0.261515 0.357078 0.052045
v 0.269297 0.320026 0.012770
v 0.284725 0.323841 0.012770
v 0.284482 0.323841 0.013538
v 0.253510 0.484178 0.187676
v 0.253659 0.479463 0.183568
v 0.252384 0.481146 0.186587
v 0.252484 0.476431 0.182175
v 0.249357 0.480080 0.187462
v 0.249457 0.475515 0.182997
v 0.246978 0.486594 0.194999
v 0.242562 0.486594 0.193231
v 0.244065 0.480263 0.187355
v 0.266120 0.325207 0.015967
v 0.267694 0.322175 0.013878
v 0.268809 0.320425 0.012770
v 0.257333 0.371006 0.065297
v 0.284740 0.324790 0.012770
v 0.253475 0.486594 0.188855
v 0.252215 0.486594 0.190837
v 0.251747 0.486594 0.191427
v 0.250204 0.486594 0.192980
v 0.249054 0.484711 0.192016
v 0.242238 0.486594 0.192784
v 0.249009 0.403593 0.095856
v 0.253281 0.385117 0.078264
v 0.257577 0.357561 0.047008
v 0.265498 0.323891 0.012770
v 0.267270 0.321792 0.012770
v 0.257736 0.366874 0.060243
v 0.258493 0.358644 0.050027
v 0.284551 0.328172 0.012770
v 0.253624 0.486594 0.185301
v 0.283745 0.332921 0.017039
v 0.241123 0.486594 0.190891
v 0.240650 0.486127 0.189462
v 0.239843 0.485194 0.186783
v 0.238275 0.486594 0.184979
v 0.247570 0.405259 0.094285
v 0.248421 0.402693 0.092820
v 0.253171 0.375887 0.064851
v 0.262128 0.330288 0.015306
v 0.265354 0.324091 0.012770
v 0.283092 0.332921 0.012770
v 0.253584 0.486594 0.184015
v 0.281086 0.346732 0.030934
v 0.280972 0.345266 0.026130
v 0.240316 0.486594 0.189462
v 0.238469 0.486594 0.185426
v 0.238200 0.486594 0.184765
v 0.244200 0.425968 0.114520
v 0.245554 0.410040 0.094195
v 0.248755 0.389748 0.073406
v 0.249123 0.390531 0.076031
v 0.252738 0.375104 0.062422
v 0.261844 0.329605 0.012770
v 0.263133 0.327323 0.012770
v 0.252245 0.373555 0.057796
v 0.276391 0.351413 0.012770
v 0.253301 0.471366 0.137149
v 0.249278 0.486594 0.153491
v 0.236423 0.486594 0.179282
v 0.239614 0.466702 0.160046
v 0.239375 0.461654 0.151795
v 0.235870 0.482795 0.171298
v 0.235392 0.481279 0.166779
v 0.244289 0.417221 0.100339
v 0.244722 0.410307 0.089659
v 0.248800 0.381168 0.054367
v 0.250154 0.378286 0.057885
v 0.260445 0.333187 0.012770
v 0.274977 0.354862 0.012770
v 0.271472 0.371605 0.028219
v 0.253654 0.458455 0.116860
v 0.249074 0.480979 0.140936
v 0.248685 0.484845 0.146508
v 0.248725 0.486594 0.150491
v 0.249074 0.486594 0.152223
v 0.235786 0.486594 0.176853
v 0.235651 0.486294 0.175852
v 0.235542 0.486594 0.175852
v 0.235273 0.485411 0.172816
v 0.234954 0.484411 0.169780
v 0.234725 0.483545 0.166779
v 0.235158 0.480563 0.163922
v 0.244055 0.416421 0.097321
v 0.244264 0.412673 0.091177
v 0.244105 0.411990 0.088141
v 0.248705 0.380502 0.051331
v 0.249377 0.378703 0.053045
v 0.258921 0.337685 0.012770
v 0.272398 0.360093 0.012770
v 0.271851 0.367607 0.022808
v 0.253276 0.457705 0.114556
v 0.248705 0.475831 0.132756
v 0.248068 0.479897 0.137899
v 0.247844 0.484178 0.144079
v 0.247565 0.486594 0.147455
v 0.234611 0.486594 0.171048
v 0.234566 0.486594 0.170727
v 0.234088 0.486594 0.166779
v 0.234043 0.486594 0.166226
v 0.234631 0.482296 0.162350
v 0.235368 0.477148 0.157706
v 0.244105 0.411990 0.086748
v 0.233879 0.486594 0.162243
v 0.248705 0.380502 0.050956
v 0.256497 0.346532 0.012770
v 0.257343 0.342933 0.012770
v 0.257388 0.342767 0.012770
v 0.258030 0.340501 0.012770
v 0.272364 0.360160 0.012770
v 0.272055 0.363509 0.017039
v 0.271597 0.362676 0.014396
v 0.262202 0.407625 0.060368
v 0.258588 0.417737 0.068084
v 0.244558 0.485128 0.141579
v 0.245574 0.486211 0.144079
v 0.249099 0.471600 0.127790
v 0.245992 0.486594 0.145240
v 0.233884 0.486594 0.161636
v 0.243343 0.419120 0.089641
v 0.248690 0.382834 0.050902
v 0.249880 0.378286 0.044276
v 0.252335 0.369206 0.030666
v 0.254072 0.360143 0.021575
v 0.256437 0.346799 0.012770
v 0.268933 0.363842 0.012770
v 0.267007 0.367041 0.014646
v 0.258807 0.413506 0.063368
v 0.253420 0.439662 0.091784
v 0.252952 0.439662 0.091784
v 0.241914 0.485111 0.141596
v 0.243065 0.486594 0.143204
v 0.245305 0.486594 0.144347
v 0.234312 0.486594 0.157224
v 0.243861 0.419120 0.086176
v 0.248695 0.385567 0.050973
v 0.253012 0.369206 0.027487
v 0.256019 0.351330 0.012770
v 0.268600 0.364108 0.012770
v 0.264597 0.365824 0.012770
v 0.257995 0.389665 0.037435
v 0.257766 0.389665 0.037435
v 0.239599 0.484961 0.141757
v 0.241875 0.486594 0.143222
v 0.234920 0.486594 0.154063
v 0.248382 0.391898 0.054367
v 0.248805 0.388599 0.051366
v 0.253211 0.371605 0.028255
v 0.256552 0.356595 0.012770
v 0.248531 0.394763 0.055171
v 0.263905 0.365824 0.012770
v 0.262013 0.367241 0.014449
v 0.260524 0.364092 0.012770
v 0.257099 0.377370 0.027666
v 0.256900 0.381635 0.031541
v 0.237110 0.486594 0.148026
v 0.239092 0.486594 0.144276
v 0.255486 0.378419 0.030541
v 0.253873 0.379486 0.033720
v 0.235537 0.486594 0.151688
v 0.258219 0.361126 0.012770
v 0.257378 0.359544 0.012770
v 0.264601 0.365815 0.012770
v 0.263910 0.365806 0.012770
v 0.268605 0.364097 0.012770
v 0.267363 0.362728 0.009805
v 0.264601 0.363024 0.009414
v 0.260529 0.364079 0.012770
v 0.261829 0.362898 0.009568
v 0.268938 0.363838 0.012770
v 0.272515 0.340797 -0.013783
v 0.268148 0.354335 -0.000035
v 0.264601 0.361073 0.007146
v 0.258218 0.361118 0.012770
v 0.261851 0.358532 0.005058
v 0.260847 0.360080 0.008015
v 0.264601 0.358800 0.004659
v 0.269142 0.326579 -0.031124
v 0.266773 0.330722 -0.026176
v 0.266679 0.326310 -0.030835
v 0.272368 0.360151 0.012770
v 0.270388 0.361556 0.011362
v 0.276228 0.330972 -0.021986
v 0.276546 0.326829 -0.027009
v 0.275231 0.325630 -0.030036
v 0.271835 0.330874 -0.026369
v 0.269142 0.328843 -0.028641
v 0.257817 0.357771 0.010261
v 0.257379 0.359534 0.012770
v 0.261984 0.344716 -0.008528
v 0.272205 0.326525 -0.031071
v 0.269032 0.325523 -0.032045
v 0.267608 0.325183 -0.032045
v 0.266260 0.323626 -0.032045
v 0.266188 0.323823 -0.031795
v 0.262380 0.335026 -0.016920
v 0.262210 0.339983 -0.012721
v 0.271892 0.358532 0.009581
v 0.274982 0.354845 0.012770
v 0.275741 0.352796 0.011696
v 0.276323 0.345011 -0.001118
v 0.275983 0.344305 -0.003465
v 0.275533 0.339240 -0.011734
v 0.276693 0.336216 -0.013831
v 0.280814 0.317658 -0.031800
v 0.280466 0.317953 -0.032045
v 0.277074 0.322248 -0.032045
v 0.276870 0.322606 -0.031870
v 0.278978 0.319859 -0.032045
v 0.276410 0.322803 -0.032045
v 0.274313 0.324422 -0.032045
v 0.273059 0.325165 -0.032045
v 0.257462 0.349808 0.004756
v 0.256552 0.356581 0.012770
v 0.266086 0.323098 -0.032045
v 0.265349 0.320628 -0.032045
v 0.262271 0.326310 -0.021670
v 0.276394 0.351391 0.012770
v 0.278642 0.337442 -0.005654
v 0.277664 0.341978 -0.001118
v 0.285211 0.326507 0.009717
v 0.291991 0.292067 -0.032045
v 0.290435 0.296004 -0.032045
v 0.280984 0.317201 -0.032045
v 0.257326 0.346515 0.003870
v 0.256019 0.351320 0.012770
v 0.265142 0.319537 -0.032045
v 0.264424 0.315591 -0.032045
v 0.264424 0.314759 -0.032045
v 0.262282 0.323823 -0.021670
v 0.259929 0.332896 -0.010186
v 0.283096 0.332896 0.012770
v 0.290261 0.296424 -0.032045
v 0.281955 0.315045 -0.032045
v 0.285211 0.326507 0.011380
v 0.294605 0.282993 -0.032045
v 0.256639 0.346515 0.007958
v 0.256435 0.346783 0.012770
v 0.264496 0.311054 -0.032045
v 0.260257 0.328359 -0.010186
v 0.284554 0.328154 0.012770
v 0.284739 0.324771 0.012770
v 0.284727 0.323823 0.012770
v 0.285218 0.323823 0.011257
v 0.285358 0.315922 0.006431
v 0.284788 0.312897 0.005422
v 0.291591 0.278636 -0.032045
v 0.285094 0.321299 0.010450
v 0.257719 0.339428 0.005071
v 0.256480 0.346515 0.012498
v 0.257719 0.339428 0.006541
v 0.257375 0.342694 0.012498
v 0.257341 0.342927 0.012770
v 0.264598 0.310222 -0.032045
v 0.263264 0.314759 -0.023802
v 0.268405 0.288362 -0.032045
v 0.283504 0.321094 0.012770
v 0.284523 0.318284 0.009458
v 0.282718 0.319671 0.012770
v 0.281498 0.316190 0.011174
v 0.284947 0.308039 0.001088
v 0.291009 0.278179 -0.032045
v 0.285109 0.303305 -0.003285
v 0.257855 0.339938 0.009568
v 0.268598 0.287476 -0.032045
v 0.269436 0.283709 -0.032045
v 0.269606 0.282993 -0.032045
v 0.257390 0.342748 0.012770
v 0.258014 0.340430 0.012498
v 0.265104 0.306517 -0.032045
v 0.278211 0.316396 0.012770
v 0.281921 0.306956 0.002163
v 0.288350 0.277007 -0.031286
v 0.287696 0.275960 -0.032045
v 0.282752 0.302607 -0.002548
v 0.285135 0.298751 -0.007804
v 0.270898 0.279924 -0.032045
v 0.261848 0.329585 0.012770
v 0.260446 0.333173 0.012770
v 0.260492 0.332896 0.012498
v 0.258920 0.337665 0.012770
v 0.258032 0.340484 0.012770
v 0.273678 0.317094 0.012770
v 0.278211 0.308683 0.004905
v 0.282752 0.280067 -0.025382
v 0.285324 0.276041 -0.030440
v 0.286457 0.275262 -0.032045
v 0.273006 0.277723 -0.032045
v 0.271223 0.280443 -0.030277
v 0.263136 0.327303 0.012770
v 0.272832 0.317559 0.012770
v 0.275511 0.280425 -0.025715
v 0.278211 0.279924 -0.025197
v 0.282752 0.277804 -0.027777
v 0.282752 0.275764 -0.030045
v 0.282752 0.274403 -0.032045
v 0.283632 0.274591 -0.032045
v 0.275254 0.275692 -0.032045
v 0.275764 0.276068 -0.030466
v 0.274128 0.278922 -0.028860
v 0.267276 0.321783 0.012770
v 0.265500 0.323885 0.012770
v 0.265361 0.324082 0.012770
v 0.269572 0.319841 0.012770
v 0.270989 0.316673 0.010625
v 0.268813 0.320414 0.012770
v 0.278211 0.277660 -0.027794
v 0.278211 0.275781 -0.030062
v 0.278211 0.274654 -0.032045
v 0.269304 0.320029 0.012770
v 0.243062 0.486598 0.143216
v 0.243296 0.489454 0.146371
v 0.245302 0.486598 0.144365
v 0.241869 0.486598 0.143235
v 0.239441 0.498657 0.155312
v 0.240114 0.498657 0.155312
v 0.239749 0.503129 0.159915
v 0.243139 0.498062 0.155884
v 0.245990 0.486598 0.145245
v 0.244677 0.499224 0.158910
v 0.239090 0.486598 0.144288
v 0.239638 0.489461 0.146361
v 0.239518 0.503129 0.159915
v 0.229573 0.522070 0.181881
v 0.232838 0.523670 0.182241
v 0.235001 0.523670 0.182626
v 0.237375 0.523670 0.183107
v 0.238051 0.523670 0.183521
v 0.240217 0.517315 0.177321
v 0.247562 0.486598 0.147467
v 0.240305 0.523670 0.185589
v 0.243752 0.523670 0.192346
v 0.237106 0.486598 0.148040
v 0.225729 0.523670 0.186560
v 0.228041 0.523670 0.184516
v 0.248301 0.488568 0.152296
v 0.248723 0.486598 0.150507
v 0.224514 0.523670 0.192346
v 0.253135 0.490111 0.192346
v 0.253320 0.489708 0.191938
v 0.253317 0.489675 0.189470
v 0.253272 0.489494 0.187133
v 0.248746 0.489508 0.155322
v 0.235537 0.486598 0.151700
v 0.225715 0.523489 0.186522
v 0.224896 0.523489 0.189470
v 0.224936 0.523670 0.189470
v 0.249071 0.486598 0.152243
v 0.224905 0.523670 0.189629
v 0.224482 0.523489 0.192346
v 0.252658 0.488837 0.192346
v 0.253320 0.489290 0.191938
v 0.253454 0.487541 0.189311
v 0.253623 0.486598 0.185305
v 0.253594 0.487142 0.185344
v 0.253580 0.486598 0.184026
v 0.249271 0.486598 0.153513
v 0.234918 0.486598 0.154081
v 0.224870 0.518948 0.189470
v 0.225707 0.518948 0.186387
v 0.224471 0.521826 0.192346
v 0.251317 0.487018 0.192346
v 0.252210 0.486598 0.190851
v 0.253469 0.486598 0.188855
v 0.234313 0.486598 0.157226
v 0.224539 0.518948 0.192346
v 0.250841 0.486598 0.192346
v 0.251742 0.486598 0.191428
v 0.233882 0.486598 0.161651
v 0.224816 0.517638 0.192346
v 0.241972 0.486598 0.192346
v 0.233879 0.486598 0.162262
v 0.225507 0.514945 0.192346
v 0.239589 0.489370 0.192346
v 0.241116 0.486598 0.190894
v 0.234042 0.486598 0.166244
v 0.226209 0.512677 0.192346
v 0.225938 0.513508 0.192346
v 0.238627 0.490575 0.192346
v 0.240311 0.486598 0.189470
v 0.234085 0.486598 0.166783
v 0.227347 0.509875 0.192346
v 0.236410 0.493972 0.192346
v 0.238276 0.486598 0.184983
v 0.238468 0.486598 0.185435
v 0.234567 0.486598 0.170737
v 0.229565 0.505466 0.192346
v 0.234612 0.486598 0.171054
v 0.234741 0.486598 0.171723
v 0.235543 0.486598 0.175854
v 0.232920 0.499601 0.192346
v 0.238199 0.486598 0.184776
v 0.235785 0.486598 0.176854
v 0.236422 0.486598 0.179288
v 0.264422 0.314752 -0.032045
v 0.264493 0.311043 -0.032045
v 0.264424 0.315586 -0.032045
v 0.265514 0.303733 -0.039358
v 0.265798 0.299196 -0.039358
v 0.266059 0.296603 -0.039358
v 0.266835 0.289845 -0.039358
v 0.264595 0.310215 -0.032045
v 0.265142 0.319526 -0.032045
v 0.266276 0.312272 -0.039358
v 0.265627 0.308270 -0.039358
v 0.266850 0.289721 -0.039358
v 0.265105 0.306506 -0.032045
v 0.265349 0.320631 -0.032045
v 0.265594 0.319605 -0.033239
v 0.266085 0.323100 -0.032045
v 0.266417 0.318303 -0.035764
v 0.266581 0.313123 -0.039358
v 0.266877 0.289541 -0.039358
v 0.267359 0.287900 -0.037742
v 0.268273 0.287528 -0.032879
v 0.268404 0.288363 -0.032045
v 0.266261 0.323629 -0.032045
v 0.267132 0.321324 -0.034991
v 0.269220 0.316917 -0.039358
v 0.268520 0.282991 -0.039358
v 0.268518 0.282991 -0.037416
v 0.269283 0.282991 -0.032879
v 0.268598 0.287478 -0.032045
v 0.267608 0.325185 -0.032045
v 0.270503 0.317925 -0.039358
v 0.269196 0.281052 -0.039358
v 0.270688 0.276864 -0.039358
v 0.269607 0.282991 -0.032045
v 0.269438 0.283707 -0.032045
v 0.270743 0.279683 -0.032879
v 0.270897 0.279925 -0.032045
v 0.269031 0.325529 -0.032045
v 0.270159 0.322074 -0.035709
v 0.273747 0.318399 -0.039358
v 0.273905 0.272378 -0.039358
v 0.272713 0.277411 -0.032879
v 0.273005 0.277727 -0.032045
v 0.273058 0.325168 -0.032045
v 0.272533 0.322074 -0.035709
v 0.275688 0.318134 -0.039358
v 0.278212 0.269379 -0.039358
v 0.275253 0.275692 -0.032045
v 0.274312 0.324424 -0.032045
v 0.276633 0.317644 -0.039358
v 0.279800 0.268709 -0.039358
v 0.278212 0.274649 -0.032045
v 0.276409 0.322801 -0.032045
v 0.280507 0.314003 -0.039358
v 0.277074 0.322249 -0.032045
v 0.282750 0.267948 -0.039358
v 0.282750 0.274407 -0.032045
v 0.280362 0.316883 -0.034828
v 0.281143 0.313253 -0.039358
v 0.278979 0.319853 -0.032045
v 0.284131 0.268145 -0.039358
v 0.283631 0.274593 -0.032045
v 0.287137 0.268737 -0.039358
v 0.280469 0.317948 -0.032045
v 0.280983 0.317193 -0.032045
v 0.285750 0.306427 -0.039358
v 0.281501 0.313867 -0.037416
v 0.286459 0.275258 -0.032045
v 0.287137 0.275641 -0.032045
v 0.287137 0.303124 -0.039358
v 0.281954 0.315040 -0.032045
v 0.287131 0.303198 -0.039358
v 0.287137 0.302865 -0.032045
v 0.273748 0.318401 -0.039358
v 0.273678 0.317603 -0.040321
v 0.270994 0.317433 -0.040079
v 0.270503 0.317929 -0.039358
v 0.275687 0.318132 -0.039358
v 0.287137 0.300084 -0.059257
v 0.273678 0.315526 -0.042589
v 0.287137 0.298087 -0.061525
v 0.270793 0.312994 -0.044703
v 0.269220 0.316917 -0.039358
v 0.276634 0.317645 -0.039358
v 0.276365 0.317386 -0.040142
v 0.287137 0.300158 -0.059155
v 0.273678 0.313257 -0.044943
v 0.287137 0.295818 -0.063445
v 0.278213 0.294922 -0.062984
v 0.273678 0.304072 -0.053929
v 0.270996 0.303767 -0.053648
v 0.266735 0.312723 -0.039976
v 0.266583 0.313123 -0.039358
v 0.266790 0.303573 -0.048894
v 0.280507 0.314000 -0.039358
v 0.287137 0.303991 -0.050461
v 0.287137 0.302340 -0.055038
v 0.287137 0.302215 -0.055369
v 0.287137 0.292057 -0.065034
v 0.281356 0.290063 -0.067076
v 0.279148 0.290063 -0.067076
v 0.277868 0.291773 -0.065570
v 0.271238 0.299087 -0.057990
v 0.268467 0.287907 -0.064712
v 0.266276 0.312275 -0.039358
v 0.266538 0.301140 -0.049390
v 0.265816 0.301140 -0.046493
v 0.281144 0.313251 -0.039358
v 0.287137 0.304460 -0.046256
v 0.287137 0.287907 -0.064756
v 0.283316 0.287907 -0.066483
v 0.281386 0.287907 -0.067137
v 0.278278 0.287907 -0.067482
v 0.277868 0.287955 -0.067526
v 0.277620 0.287907 -0.067542
v 0.273678 0.287907 -0.067349
v 0.276125 0.289752 -0.066886
v 0.273678 0.289376 -0.066433
v 0.269174 0.287907 -0.065308
v 0.267436 0.287907 -0.046504
v 0.266902 0.289958 -0.048025
v 0.266515 0.291707 -0.046504
v 0.265808 0.296603 -0.046493
v 0.265626 0.308272 -0.039358
v 0.265552 0.301140 -0.041955
v 0.285749 0.306430 -0.039358
v 0.287137 0.304630 -0.042413
v 0.287137 0.287907 -0.039358
v 0.277870 0.287907 -0.067526
v 0.267230 0.287907 -0.042708
v 0.266839 0.289669 -0.044998
v 0.266826 0.289597 -0.041955
v 0.266441 0.292066 -0.041955
v 0.265816 0.296603 -0.041955
v 0.265512 0.303735 -0.039358
v 0.287131 0.303200 -0.039358
v 0.287137 0.303129 -0.039358
v 0.267307 0.287907 -0.039358
v 0.267224 0.287907 -0.041955
v 0.266843 0.289657 -0.039474
v 0.266060 0.296603 -0.039358
v 0.265797 0.299200 -0.039358
v 0.267296 0.287907 -0.039667
v 0.266877 0.289540 -0.039358
v 0.266849 0.289716 -0.039358
v 0.266835 0.289845 -0.039358
v 0.252387 0.510456 0.206354
v 0.252376 0.510456 0.206376
v 0.252420 0.510447 0.206376
v 0.246142 0.510456 0.192346
v 0.228367 0.510456 0.206376
v 0.251952 0.505353 0.206376
v 0.253132 0.490109 0.192346
v 0.251309 0.496264 0.192346
v 0.227119 0.510456 0.192346
v 0.227590 0.510456 0.203663
v 0.228503 0.509875 0.206376
v 0.250792 0.500637 0.206376
v 0.252659 0.488834 0.192346
v 0.227346 0.509875 0.192346
v 0.226891 0.510456 0.194010
v 0.227428 0.510456 0.203062
v 0.227562 0.509875 0.203084
v 0.229856 0.505794 0.206376
v 0.249583 0.497542 0.206376
v 0.251319 0.487019 0.192346
v 0.227117 0.509875 0.194010
v 0.229565 0.505467 0.192346
v 0.229499 0.505068 0.194152
v 0.227029 0.509875 0.198547
v 0.226860 0.510456 0.198547
v 0.229535 0.504930 0.203356
v 0.230404 0.504189 0.206376
v 0.249439 0.497416 0.206376
v 0.249503 0.488834 0.196983
v 0.250841 0.486596 0.192346
v 0.228989 0.505336 0.198547
v 0.232919 0.499597 0.192346
v 0.230473 0.502928 0.195759
v 0.230417 0.502832 0.202023
v 0.230607 0.503148 0.205049
v 0.230687 0.503526 0.206376
v 0.246697 0.495615 0.206376
v 0.245226 0.495000 0.206376
v 0.244362 0.493921 0.205454
v 0.246448 0.488399 0.197675
v 0.246448 0.486596 0.195232
v 0.246975 0.486596 0.195011
v 0.250203 0.486596 0.192995
v 0.241973 0.486596 0.192346
v 0.230383 0.502788 0.198547
v 0.236409 0.493973 0.192346
v 0.231736 0.501113 0.203356
v 0.238626 0.490574 0.192346
v 0.232320 0.500891 0.206376
v 0.241911 0.494367 0.206376
v 0.240298 0.494391 0.206376
v 0.239429 0.493870 0.205574
v 0.242559 0.486596 0.193242
v 0.242235 0.486596 0.192795
v 0.234537 0.497922 0.206376
v 0.239591 0.489371 0.192346
v 0.234267 0.497640 0.203084
v 0.233030 0.499931 0.206376
v 0.238624 0.494814 0.206376
vn 0.000490 -0.076487 -0.997070
vn -0.116804 -0.744350 0.657495
vn -0.361234 -0.714898 0.598691
vn 0.677451 -0.589566 0.439855
vn 0.471039 -0.651197 0.595034
vn 0.242728 -0.689553 0.682349
vn 0.012307 -0.730134 0.683193
vn -0.199097 -0.732750 0.650721
vn -0.114313 -0.744217 0.658084
vn -0.369532 -0.709382 0.600186
vn -0.434868 -0.695409 0.572098
vn -0.512840 -0.761718 0.395955
vn 0.871559 -0.464481 0.156978
vn 0.580597 -0.542881 0.606784
vn 0.333451 -0.659718 0.673485
vn 0.175268 -0.704430 0.687793
vn -0.051344 0.354067 0.933810
vn -0.296721 -0.721084 0.626095
vn -0.421429 -0.696593 0.580651
vn -0.552009 -0.657721 0.512533
vn -0.481580 -0.690176 0.540128
vn -0.475739 -0.683200 0.553994
vn -0.496101 -0.674012 0.547350
vn -0.558499 -0.782377 0.275619
vn 0.967473 -0.097415 0.233467
vn 0.815370 -0.347042 0.463393
vn 0.828496 -0.329718 0.452636
vn 0.699917 -0.456957 0.548914
vn 0.614726 -0.517390 0.595331
vn 0.412097 -0.628287 0.659872
vn 0.375960 -0.643159 0.667084
vn 0.331181 -0.660205 0.674128
vn 0.367969 -0.636757 0.677598
vn -0.541679 -0.567472 0.620128
vn -0.574287 -0.639400 0.511235
vn -0.682914 -0.593497 0.425899
vn -0.597422 -0.649968 0.469711
vn -0.640577 -0.761903 -0.095729
vn -0.567446 -0.645361 0.511385
vn 0.994082 0.039990 0.101008
vn 0.989196 0.069396 0.129131
vn 0.685786 0.563464 0.460658
vn 0.680400 -0.351901 0.642823
vn 0.522324 -0.512594 0.681488
vn 0.413513 -0.618808 0.667895
vn -0.701446 -0.559278 0.441794
vn -0.747899 -0.531619 0.397529
vn -0.657334 -0.598176 0.458364
vn -0.743178 -0.552868 0.376859
vn -0.776164 -0.583529 0.238879
vn -0.542740 -0.503243 -0.672443
vn -0.689569 -0.587679 0.423236
vn -0.691602 -0.586743 0.421213
vn 0.997658 0.062899 0.026860
vn 0.979631 0.199035 0.026598
vn 0.987472 0.154367 0.032701
vn -0.731575 -0.530399 0.428340
vn -0.732022 -0.542070 0.412679
vn -0.787953 -0.495234 0.365886
vn -0.836831 -0.446077 0.317378
vn -0.862297 -0.419843 0.283154
vn -0.838837 -0.456803 0.296115
vn -0.793517 -0.507450 0.335893
vn -0.826314 -0.482405 0.290672
vn -0.793722 -0.564889 0.225623
vn 0.703296 0.249474 -0.665686
vn 0.930446 0.352171 -0.101223
vn 0.951332 0.292565 -0.096812
vn 0.928942 0.337169 -0.152917
vn -0.468183 0.854294 0.225801
vn -0.442946 0.873568 0.201689
vn -0.899757 -0.320564 0.296100
vn -0.890150 -0.381979 0.248443
vn -0.917754 -0.342112 0.201710
vn -0.926504 -0.334480 0.172374
vn -0.852210 -0.441947 0.280039
vn -0.852201 -0.448682 0.269142
vn -0.916537 -0.394510 0.065737
vn -0.323434 -0.205862 -0.923586
vn -0.886282 -0.410111 0.215205
vn 0.911954 0.341282 -0.227743
vn 0.930371 0.337556 -0.143062
vn 0.706696 0.700377 -0.100267
vn -0.909281 -0.313057 0.274233
vn -0.867027 -0.411431 0.281048
vn -0.898300 -0.369386 0.237932
vn -0.907958 -0.354885 0.222867
vn -0.924196 -0.328879 0.194164
vn -0.942051 -0.295761 0.158321
vn -0.949626 -0.285258 0.129763
vn -0.954316 -0.275278 0.116199
vn -0.919875 -0.358781 0.158450
vn -0.940189 -0.339405 -0.029131
vn 0.615501 0.278212 -0.737399
vn 0.883308 0.409471 -0.228256
vn 0.842628 0.460304 -0.279463
vn 0.791928 0.517656 -0.323855
vn 0.834610 0.487681 -0.256112
vn 0.513585 0.849790 -0.118691
vn 0.650682 0.749834 -0.119840
vn -0.589486 0.793122 0.153177
vn -0.911691 -0.345496 0.222378
vn -0.474684 0.874546 0.099213
vn -0.921731 -0.327839 0.207206
vn -0.946261 -0.272802 0.173695
vn -0.968597 -0.228694 0.097562
vn -0.954257 -0.268522 0.131487
vn -0.950267 -0.277920 0.140544
vn -0.959565 -0.255497 0.118134
vn -0.977417 -0.201963 0.062186
vn -0.965769 -0.255378 0.045532
vn -0.943947 -0.314836 0.099204
vn -0.932055 -0.307713 -0.191274
vn 0.466367 0.230167 -0.854122
vn 0.834513 0.466778 -0.292758
vn 0.761953 0.535277 -0.364562
vn 0.601759 0.642382 -0.474585
vn 0.596267 0.667194 -0.446449
vn 0.605551 0.666147 -0.435380
vn 0.126527 0.989252 -0.073292
vn -0.457891 0.885376 0.080285
vn -0.346684 0.937021 0.042456
vn -0.340190 0.939526 0.039512
vn -0.600353 0.798921 0.036081
vn -0.983443 -0.176263 0.042081
vn -0.972515 -0.217842 0.082222
vn -0.994295 -0.099985 -0.037165
vn -0.998138 -0.055520 0.025245
vn -0.992284 -0.078189 -0.096222
vn -0.922694 -0.215945 -0.319379
vn -0.915080 -0.216589 -0.340173
vn -0.925614 -0.261454 -0.273644
vn -0.950658 -0.287839 -0.115748
vn 0.083699 0.061484 -0.994593
vn 0.849557 0.443477 -0.285625
vn 0.733223 0.552770 -0.396017
vn 0.725298 0.560760 -0.399363
vn 0.562931 0.650092 -0.510381
vn 0.195694 0.744182 -0.638668
vn 0.549445 0.687288 -0.475126
vn 0.353652 0.722076 -0.594589
vn 0.066564 0.996636 -0.047814
vn -0.996393 0.050353 -0.068299
vn -0.994389 -0.035590 -0.099619
vn -0.989959 -0.001447 -0.141346
vn -0.984320 -0.001312 -0.176387
vn -0.983217 0.001962 -0.182432
vn -0.987719 -0.064160 -0.142463
vn -0.907194 -0.097265 -0.409315
vn 0.474472 0.521155 -0.709418
vn 0.331955 0.706204 -0.625365
vn 0.102917 0.732910 -0.672496
vn 0.046165 0.739792 -0.671250
vn -0.029951 0.734935 -0.677476
vn -0.052987 0.732465 -0.678739
vn 0.008561 0.998810 -0.048005
vn 0.017507 0.999467 -0.027559
vn -0.974202 0.179259 -0.137099
vn -0.983067 0.046563 -0.177231
vn -0.984256 0.028588 -0.174422
vn -0.956800 0.099695 -0.273121
vn -0.486866 0.021235 -0.873219
vn 0.018815 0.041153 -0.998976
vn 0.094743 0.547204 -0.831620
vn 0.061314 0.733570 -0.676842
vn -0.293741 0.676354 -0.675471
vn -0.712140 0.457308 -0.532659
vn -0.009954 0.999003 -0.043528
vn -0.954253 0.207384 -0.215391
vn -0.971765 0.088740 -0.218627
vn -0.969980 0.075801 -0.231071
vn -0.812371 0.356081 -0.461800
vn -0.453502 0.080135 -0.887645
vn -0.892028 0.259760 -0.369879
vn -0.027304 0.201572 -0.979093
vn -0.326797 0.637597 -0.697620
vn -0.253445 0.233815 -0.938667
vn -0.646620 0.492280 -0.582703
vn -0.680084 0.478442 -0.555498
vn -0.778482 0.511853 -0.363279
vn -0.027246 0.999264 -0.027020
vn -0.713415 0.450676 -0.536591
vn -0.749205 0.421558 -0.510862
vn -0.841132 0.446468 -0.305225
vn -0.422008 0.267320 -0.866285
vn -0.321039 0.118160 -0.939666
vn 0.003991 0.013104 0.999906
vn -0.232507 0.810765 -0.537215
vn 0.482711 0.704651 -0.520055
vn 0.372006 0.729650 -0.573779
vn 0.098205 0.761208 -0.641029
vn -0.628484 0.763043 -0.150907
vn -0.232441 0.719497 -0.654442
vn 0.602664 0.706230 -0.371530
vn 0.515926 0.674862 -0.527619
vn 0.254055 0.741142 -0.621421
vn 0.024220 0.746576 -0.664859
vn -0.750780 0.501669 -0.429717
vn -0.610119 0.555346 -0.565107
vn -0.697044 0.513365 -0.500585
vn -0.105271 0.732433 -0.672651
vn -0.101166 0.728832 -0.677178
vn -0.157885 0.722429 -0.673178
vn -0.573238 0.558669 -0.599405
vn 0.834012 0.523964 -0.172876
vn 0.633958 0.624859 -0.455684
vn 0.673822 0.595108 -0.437962
vn 0.645303 0.604799 -0.466692
vn 0.500840 0.668394 -0.549917
vn 0.196189 0.740895 -0.642328
vn -0.002032 0.742683 -0.669641
vn -0.833913 0.351341 -0.425616
vn -0.935658 0.297042 0.190551
vn -0.699045 0.487609 -0.523043
vn 0.087688 0.702896 -0.705867
vn 0.000070 0.004001 -0.999992
vn -0.254781 0.505810 -0.824162
vn -0.353542 0.269553 -0.895740
vn -0.827688 0.325190 -0.457366
vn -0.878846 0.261753 -0.398893
vn -0.832568 0.342851 -0.435068
vn 0.703232 0.583107 -0.406757
vn 0.203208 0.093408 0.974670
vn 0.921224 0.358466 -0.151157
vn 0.876392 0.421834 -0.232365
vn 0.800136 0.503036 -0.326706
vn 0.702704 0.581462 -0.410012
vn 0.758966 0.533181 -0.373749
vn 0.766698 0.526115 -0.367937
vn 0.634103 0.483591 -0.603368
vn 0.452388 0.366626 -0.812976
vn 0.585352 0.625469 -0.515898
vn 0.471259 0.372191 -0.799618
vn 0.275761 0.354952 -0.893289
vn 0.358997 0.569125 -0.739742
vn 0.285206 0.623163 -0.728235
vn -0.916317 0.218842 -0.335367
vn -0.863500 0.142954 0.483664
vn -0.820862 0.246510 -0.515188
vn -0.864254 0.224027 -0.450419
vn -0.941989 0.136067 -0.306828
vn 0.551168 0.202115 0.809545
vn 0.895976 0.390860 -0.210845
vn 0.897416 0.393958 -0.198597
vn 0.940094 0.322845 -0.109521
vn 0.921040 0.325861 -0.213307
vn 0.898840 0.362963 -0.245649
vn 0.855536 0.403835 -0.323999
vn -0.974516 0.055186 -0.217424
vn -0.857746 0.042717 0.512296
vn -0.822866 0.151171 -0.547758
vn -0.826954 0.124216 -0.548377
vn -0.938857 -0.013994 -0.344023
vn -0.980541 -0.006548 -0.196203
vn -0.985546 -0.030417 -0.166654
vn 0.417630 0.147384 0.896584
vn 0.811675 0.361492 -0.458810
vn 0.811244 0.362234 -0.458988
vn 0.985929 0.095987 0.136857
vn 0.991202 -0.062542 -0.116650
vn -0.991434 -0.075224 -0.106773
vn -0.450427 -0.075092 0.889650
vn -0.963812 -0.053369 -0.261186
vn -0.986555 -0.152106 -0.059781
vn 0.109162 0.022077 0.993779
vn 0.072871 0.002924 0.997337
vn 0.524742 -0.108678 0.844296
vn 0.966626 -0.043301 0.252506
vn 0.831001 -0.307591 0.463492
vn 0.712318 -0.439582 0.547148
vn 0.779758 -0.579103 -0.237945
vn 0.835902 -0.301328 0.458769
vn -0.984039 -0.174983 -0.032386
vn -0.989006 -0.145592 -0.025890
vn -0.972178 -0.230605 0.041134
vn -0.960270 -0.263106 0.093048
vn -0.021408 -0.005070 0.999758
vn -0.925700 -0.121753 -0.358128
vn -0.984082 -0.171412 -0.046905
vn -0.965645 -0.181533 -0.185945
vn 0.136933 -0.068835 0.988186
vn 0.793768 -0.336404 0.506720
vn 0.082981 -0.068797 0.994174
vn 0.442692 -0.591487 0.673919
vn 0.614058 -0.519135 0.594501
vn 0.359079 -0.484777 -0.797530
vn 0.472258 -0.608568 0.637666
vn -0.960681 -0.263072 0.088794
vn -0.955799 -0.211831 -0.203900
vn -0.955370 -0.214940 -0.202654
vn -0.944252 -0.314652 0.096861
vn -0.037943 -0.010719 0.999222
vn -0.956883 -0.272026 0.101867
vn -0.727369 -0.126697 -0.674449
vn 0.064737 -0.280554 0.957653
vn 0.262724 -0.679541 0.684982
vn 0.415377 -0.640067 0.646356
vn 0.016155 -0.026849 -0.999509
vn 0.346527 -0.662590 0.663998
vn 0.395424 -0.646237 0.652700
vn -0.852707 -0.381619 -0.356732
vn -0.817772 -0.366598 0.443683
vn -0.674249 -0.263024 0.690077
vn -0.933965 -0.317310 0.164390
vn -0.857978 -0.283137 0.428611
vn -0.807849 -0.253314 0.532176
vn -0.140022 -0.488936 0.861009
vn -0.030014 -0.720848 0.692443
vn 0.147295 -0.709348 0.689296
vn 0.321952 -0.679944 0.658805
vn 0.009833 -0.029194 -0.999525
vn -0.077710 -0.081209 -0.993663
vn -0.712793 -0.543415 0.443425
vn -0.614930 -0.392558 0.683929
vn -0.217691 -0.370145 0.903108
vn -0.444311 -0.663592 0.601858
vn -0.102251 -0.723487 0.682724
vn 0.098186 -0.731295 0.674957
vn 0.044401 -0.772598 0.633341
vn 0.003199 -0.094188 -0.995549
vn 0.006985 -0.030132 -0.999522
vn -0.020455 -0.034691 -0.999189
vn -0.414442 -0.729013 0.544772
vn -0.575320 -0.615877 0.538240
vn -0.520128 -0.529089 0.670471
vn -0.503981 -0.419725 0.754873
vn -0.580989 -0.401934 0.707743
vn -0.033557 -0.047939 0.998286
vn -0.464199 -0.653619 0.597747
vn -0.424366 -0.492433 0.759884
vn -0.072028 -0.759371 0.646659
vn -0.064478 -0.817193 0.572747
vn -0.008760 -0.051384 -0.998641
vn -0.036436 -0.048308 0.998168
vn 0.006478 -0.999295 -0.036969
vn 0.306884 0.704753 -0.639645
vn 0.500813 0.650051 -0.571507
vn -0.110206 0.672322 -0.732009
vn -0.210778 0.685155 -0.697234
vn 0.049936 0.714721 -0.697624
vn 0.219523 0.734953 -0.641602
vn 0.416624 0.697058 -0.583553
vn 0.684321 0.532133 -0.498537
vn 0.710085 0.567535 -0.416754
vn -0.683852 0.405821 -0.606347
vn -0.323772 0.643461 -0.693635
vn -0.097812 0.717115 -0.690057
vn -0.351271 0.641065 -0.682381
vn -0.069250 0.931817 -0.356261
vn 0.124168 0.749074 -0.650746
vn 0.275590 0.736497 -0.617756
vn 0.395451 0.747628 -0.533545
vn 0.509634 0.675109 -0.533387
vn 0.811866 0.465562 -0.352313
vn 0.630909 0.673889 -0.384484
vn 0.792885 0.412402 0.448618
vn -0.898558 0.084824 -0.430579
vn -0.732274 0.420189 -0.535925
vn -0.538329 0.556817 -0.632579
vn 0.826047 0.466947 -0.315607
vn 0.929293 0.250723 -0.271205
vn -0.004758 0.999866 0.015682
vn 0.418154 0.105645 0.902212
vn 0.970393 0.240626 0.020893
vn 0.964301 0.263936 -0.021500
vn 0.951429 0.279476 -0.129135
vn 0.947229 0.288167 -0.140418
vn -0.951565 -0.020217 -0.306784
vn -0.940286 0.065772 -0.333971
vn -0.976016 0.014293 -0.217229
vn -0.030231 0.999510 -0.008125
vn 0.637461 -0.761672 -0.116185
vn -0.026362 0.999645 -0.003871
vn -0.150820 0.003501 0.988555
vn 0.050820 -0.035470 0.998078
vn 0.814282 -0.388247 0.431520
vn 0.999029 0.004188 0.043858
vn 0.240746 -0.970558 0.007644
vn 0.992123 0.123806 -0.019089
vn 0.562247 -0.823247 -0.078374
vn 0.868262 -0.480541 -0.123297
vn -0.949421 -0.233170 -0.210314
vn -0.976802 -0.072105 -0.201641
vn -0.962065 0.001819 -0.272815
vn -0.296514 -0.001025 0.955028
vn 0.038753 -0.030410 0.998786
vn 0.087598 -0.994211 0.062212
vn 0.082378 -0.996185 0.028790
vn -0.946412 -0.298280 -0.123831
vn -0.966749 -0.180966 0.180689
vn 0.000644 -0.812532 0.582916
vn 0.007906 -0.999943 0.007240
vn -0.939741 -0.335202 -0.067272
vn -0.834876 -0.201751 0.512131
vn -0.006265 -0.751054 0.660211
vn -0.870826 -0.491046 0.023163
vn -0.843697 -0.230869 0.484638
vn -0.082616 -0.069102 0.994183
vn -0.086642 -0.994983 0.050029
vn -0.806445 -0.590172 0.036646
vn -0.870430 -0.316621 0.376964
vn -0.790761 -0.244719 0.561079
vn -0.291226 -0.203904 0.934671
vn -0.148625 -0.986272 0.071957
vn -0.812109 -0.576325 0.091262
vn -0.791097 -0.361812 0.493212
vn -0.251942 -0.159211 0.954556
vn -0.631579 -0.732956 0.252750
vn -0.146968 -0.986894 0.066635
vn -0.727141 -0.680580 0.089879
vn -0.551740 -0.297294 0.779230
vn -0.685382 -0.718062 0.120994
vn -0.672235 -0.728785 0.130280
vn -0.739839 -0.655262 0.152545
vn -0.459056 -0.271420 0.845931
vn -0.542268 -0.819642 0.184751
vn -0.579799 -0.801133 0.148387
vn -0.601324 -0.778326 0.180604
vn -0.018866 -0.000286 0.999822
vn -0.996063 -0.080774 -0.036526
vn -0.960902 0.107042 -0.255360
vn -0.056908 -0.001003 -0.998379
vn -0.995121 -0.076026 -0.062876
vn -0.993510 -0.110092 -0.028598
vn -0.993191 -0.115133 -0.017780
vn -0.983320 -0.132271 0.124847
vn -0.939342 0.172239 -0.296597
vn -0.904039 0.190104 -0.382849
vn -0.955961 0.085378 -0.280802
vn -0.988302 -0.135801 0.069399
vn -0.955985 -0.159159 0.246496
vn -0.953280 0.217005 -0.210159
vn -0.874558 0.260716 -0.408870
vn -0.900425 0.279755 -0.333125
vn -0.825714 0.305293 -0.474333
vn -0.464085 0.268537 -0.844105
vn -0.973159 -0.183810 -0.138477
vn -0.971154 -0.180711 0.155571
vn -0.964979 -0.178413 0.192312
vn -0.584534 -0.107304 0.804242
vn -0.879260 0.476315 -0.005003
vn -0.568554 0.473092 -0.673002
vn -0.313289 0.255883 -0.914535
vn -0.581895 -0.158979 -0.797574
vn -0.950006 -0.294581 0.103492
vn -0.934127 -0.304516 0.186219
vn -0.545439 -0.121239 0.829335
vn -0.467668 0.826779 -0.312608
vn -0.152551 0.339884 -0.928012
vn -0.404732 -0.143210 -0.903152
vn -0.745012 -0.383905 -0.545503
vn -0.111961 -0.043179 0.992774
vn -0.341502 -0.076837 0.936735
vn -0.830324 -0.505230 0.235168
vn -0.237394 -0.184431 0.953745
vn 0.001425 0.659777 0.751460
vn -0.109288 0.679288 -0.725689
vn -0.007106 0.257591 -0.966228
vn -0.478676 -0.485907 -0.731276
vn -0.638200 -0.656730 0.401754
vn -0.027630 -0.028432 0.999214
vn 0.249420 0.819206 0.516421
vn 0.075816 0.735482 -0.673289
vn 0.097890 0.349456 -0.931825
vn -0.192846 -0.309795 -0.931041
vn -0.210086 -0.343027 0.915531
vn 0.354131 0.501262 0.789511
vn 0.288763 0.361774 -0.886417
vn -0.158835 -0.481287 -0.862053
vn -0.042363 -0.216333 0.975400
vn 0.369428 0.468923 0.802268
vn 0.296553 0.292608 -0.909086
vn 0.680956 0.672803 0.289197
vn -0.052776 -0.580761 -0.812361
vn 0.018458 -0.247009 0.968837
vn 0.772488 0.566127 -0.287686
vn 0.116944 0.083659 -0.989609
vn 0.154797 0.122212 0.980358
vn 0.039541 -0.219833 -0.974736
vn 0.032414 -0.141250 0.989443
vn 0.495002 -0.057688 -0.866975
vn 0.155561 0.117144 0.980856
vn 0.671407 0.388323 0.631204
vn 0.359798 0.202497 -0.910791
vn 0.792708 0.535051 -0.292120
vn 0.040979 -0.137065 0.989714
vn 0.293202 -0.007202 0.956023
vn 0.320381 0.000062 -0.947289
vn 0.441878 0.189649 0.876800
vn 0.803737 0.341196 -0.487435
vn 0.542762 0.038137 0.839020
vn 0.006020 0.054143 0.998515
vn 0.023668 0.748030 -0.663243
vn -0.133600 0.731104 -0.669058
vn -0.425878 0.743087 -0.516187
vn 0.113615 0.773897 -0.623037
vn 0.987444 0.120638 -0.101981
vn -0.050257 0.726868 -0.684936
vn -0.071296 0.697584 -0.712947
vn -0.251459 0.680852 -0.687901
vn -0.682393 0.546580 -0.485376
vn 0.611035 0.743380 -0.272070
vn 0.392776 0.782447 -0.483222
vn 0.485399 0.766610 -0.420353
vn -0.089334 0.700743 -0.707798
vn 0.045506 0.582230 -0.811750
vn -0.121672 0.658031 -0.743095
vn -0.113861 0.682258 -0.722191
vn -0.580294 0.549284 -0.601287
vn -0.707327 0.491721 -0.507837
vn -0.693213 0.325762 0.642911
vn -0.762421 0.430786 -0.482844
vn 0.695069 0.713554 -0.087862
vn 0.742190 0.643121 -0.188548
vn 0.680051 0.689415 -0.249473
vn 0.508125 0.760979 -0.403386
vn 0.692308 0.114789 -0.712413
vn 0.172887 0.268617 -0.947605
vn -0.062291 0.509226 -0.858375
vn -0.129940 0.631673 -0.764267
vn -0.276702 0.614704 -0.738631
vn -0.375365 -0.918980 -0.120736
vn -0.971247 0.187841 0.146269
vn -0.959180 0.143433 -0.243721
vn -0.983671 0.079359 -0.161537
vn 0.791595 0.574989 0.206797
vn 0.887659 0.459057 -0.036439
vn 0.559231 -0.828608 -0.025877
vn 0.234972 -0.761731 -0.603783
vn 0.079298 -0.913079 -0.399997
vn 0.055694 -0.863149 -0.501868
vn 0.091663 0.059141 -0.994032
vn -0.026218 -0.458605 -0.888254
vn -0.204689 -0.010947 -0.978766
vn -0.186882 0.599405 -0.778324
vn -0.322386 0.565266 -0.759303
vn -0.397167 0.536581 -0.744540
vn -0.954951 -0.291872 -0.053652
vn -0.969286 -0.238877 -0.058511
vn -0.987417 -0.147575 -0.056826
vn -0.993898 -0.077354 -0.078635
vn -0.801792 0.065688 0.593982
vn -0.999501 -0.005448 -0.031127
vn 0.485693 0.289283 0.824874
vn 0.943022 0.332271 0.017452
vn 0.434713 -0.693798 0.574168
vn 0.001196 -0.999915 -0.012969
vn -0.950350 -0.309147 -0.035534
vn -0.977657 -0.208751 -0.024696
vn -0.983773 -0.179415 -0.001095
vn -0.989753 -0.142738 0.003735
vn -0.994616 -0.096293 0.038300
vn -0.412965 -0.013232 0.910651
vn 0.368507 0.154994 0.916613
vn 0.858262 0.000049 0.513212
vn -0.000627 -0.625344 0.780349
vn -0.784115 -0.620456 0.014082
vn -0.988733 -0.139589 0.054050
vn -0.254839 -0.028245 0.966571
vn -0.260825 -0.020052 0.965178
vn -0.563086 -0.826205 0.017904
vn -0.181058 -0.047445 0.982327
vn -0.010630 -0.001478 0.999942
vn -0.011360 -0.001302 0.999935
vn 0.000212 1.000000 -0.000094
vn 0.000000 0.000896 1.000000
vn 0.929123 0.238979 -0.282170
vn 0.209239 0.356303 -0.910641
vn -0.023576 0.976234 0.215431
vn 0.947315 -0.157212 0.279066
vn 0.998473 -0.016088 -0.052852
vn 0.871017 0.299254 -0.389585
vn -0.006218 0.999317 -0.036414
vn -0.048727 0.998716 0.013868
vn -0.143023 -0.044581 0.988715
vn 0.865315 -0.270655 0.421872
vn 0.889087 -0.434403 -0.144286
vn -0.170204 -0.084273 -0.981799
vn -0.039219 0.999230 -0.001268
vn -0.023871 0.999709 0.003408
vn -0.926916 -0.331439 0.175997
vn -0.130385 -0.043590 0.990505
vn 0.746263 -0.435771 0.503186
vn 0.762645 -0.577696 -0.290928
vn -0.905462 -0.420110 -0.060378
vn -0.091801 -0.049784 -0.994532
vn -0.879691 -0.463071 -0.108209
vn -0.924609 -0.377241 0.052795
vn -0.035144 0.999378 0.002767
vn -0.915939 -0.386420 0.108329
vn -0.343120 -0.130576 0.930171
vn 0.276167 -0.413567 0.867580
vn 0.414932 -0.701105 0.579899
vn 0.015194 -0.149664 -0.988620
vn -0.902704 -0.430195 -0.007647
vn -0.178857 -0.106281 -0.978118
vn -0.855410 -0.511615 -0.080768
vn -0.837656 -0.544663 0.040920
vn -0.853704 -0.504337 0.129746
vn -0.097660 -0.049484 0.993989
vn 0.236996 -0.413396 0.879168
vn 0.113873 -0.304865 0.945564
vn 0.176445 -0.774314 0.607704
vn 0.221924 -0.770577 0.597462
vn -0.058624 -0.878162 0.474758
vn 0.287338 -0.827557 0.482272
vn 0.335082 -0.807075 0.486159
vn -0.318487 -0.370549 -0.872502
vn -0.839966 -0.542383 -0.016675
vn -0.324972 -0.207208 -0.922745
vn -0.808808 -0.583648 0.072009
vn -0.724203 -0.514464 -0.459191
vn -0.131887 -0.088939 0.987267
vn 0.021989 -0.386379 0.922078
vn -0.011808 -0.382988 0.923678
vn -0.405956 -0.823300 0.396707
vn -0.195343 -0.920733 0.337776
vn -0.332491 -0.917626 0.217743
vn -0.454851 -0.472860 0.754661
vn -0.581089 -0.490619 -0.649330
vn -0.786821 -0.610276 0.092068
vn -0.232557 -0.172794 0.957110
vn -0.020035 -0.032682 0.999265
f 1//1 2//2 3//3
f 1//1 3//3 12//12
f 1//1 12//12 24//24
f 1//1 24//24 38//38
f 1//1 38//38 51//51
f 1//1 51//51 50//50
f 1//1 50//50 65//65
f 1//1 65//65 79//79
f 1//1 79//79 78//78
f 1//1 78//78 93//93
f 1//1 93//93 113//113
f 1//1 113//113 133//133
f 1//1 133//133 132//132
f 1//1 132//132 131//131
f 1//1 131//131 130//130
f 1//1 130//130 149//149
f 1//1 149//149 162//162
f 1//1 162//162 173//173
f 1//1 173//173 186//186
f 1//1 186//186 185//185
f 1//1 185//185 177//177
f 1//1 177//177 175//175
f 1//1 175//175 164//164
f 1//1 164//164 163//163
f 1//1 163//163 150//150
f 1//1 150//150 134//134
f 1//1 134//134 114//114
f 1//1 114//114 94//94
f 1//1 94//94 81//81
f 1//1 81//81 66//66
f 1//1 66//66 54//54
f 1//1 54//54 40//40
f 1//1 40//40 25//25
f 1//1 25//25 13//13
f 1//1 13//13 4//4
f 1//1 4//4 5//5
f 1//1 5//5 6//6
f 1//1 6//6 7//7
f 1//1 7//7 8//8
f 1//1 8//8 9//9
f 1//1 9//9 2//2
f 2//2 9//9 8//8
f 2//2 8//8 3//3
f 3//3 8//8 10//10
f 3//3 10//10 11//11
f 3//3 11//11 12//12
f 4//4 13//13 14//14
f 4//4 14//14 5//5
f 5//5 14//14 6//6
f 6//6 14//14 15//15
f 6//6 15//15 16//16
f 6//6 16//16 7//7
f 7//7 16//16 17//17
f 7//7 17//17 8//8
f 8//8 17//17 18//18
f 8//8 18//18 10//10
f 10//10 19//19 11//11
f 10//10 18//18 19//19
f 11//11 20//20 21//21
f 11//11 21//21 12//12
f 11//11 19//19 22//22
f 11//11 22//22 23//23
f 11//11 23//23 20//20
f 12//12 21//21 24//24
f 13//13 25//25 26//26
f 13//13 26//26 14//14
f 14//14 26//26 27//27
f 14//14 27//27 28//28
f 14//14 28//28 29//29
f 14//14 29//29 30//30
f 14//14 30//30 31//31
f 14//14 31//31 32//32
f 14//14 32//32 15//15
f 15//15 32//32 16//16
f 16//16 32//32 17//17
f 17//17 32//32 33//33
f 17//17 33//33 44//44
f 17//17 44//44 43//43
f 17//17 43//43 42//42
f 17//17 42//42 41//41
f 17//17 41//41 55//55
f 17//17 55//55 67//67
f 17//17 67//67 83//83
f 17//17 83//83 100//100
f 17//17 100//100 99//99
f 17//17 99//99 120//120
f 17//17 120//120 142//142
f 17//17 142//142 157//157
f 17//17 157//157 156//156
f 17//17 156//156 168//168
f 17//17 168//168 181//181
f 17//17 181//181 180//180
f 17//17 180//180 184//184
f 17//17 184//184 169//169
f 17//17 169//169 158//158
f 17//17 158//158 143//143
f 17//17 143//143 128//128
f 17//17 128//128 124//124
f 17//17 124//124 123//123
f 17//17 123//123 122//122
f 17//17 122//122 121//121
f 17//17 121//121 103//103
f 17//17 103//103 101//101
f 17//17 101//101 84//84
f 17//17 84//84 72//72
f 17//17 72//72 60//60
f 17//17 60//60 71//71
f 17//17 71//71 70//70
f 17//17 70//70 57//57
f 17//17 57//57 46//46
f 17//17 46//46 34//34
f 17//17 34//34 18//18
f 18//18 34//34 35//35
f 18//18 35//35 19//19
f 19//19 23//23 22//22
f 19//19 35//35 23//23
f 20//20 36//36 37//37
f 20//20 37//37 38//38
f 20//20 38//38 24//24
f 20//20 24//24 21//21
f 20//20 23//23 39//39
f 20//20 39//39 36//36
f 23//23 35//35 39//39
f 25//25 40//40 41//41
f 25//25 41//41 27//27
f 25//25 27//27 26//26
f 27//27 41//41 42//42
f 27//27 42//42 43//43
f 27//27 43//43 29//29
f 27//27 29//29 28//28
f 29//29 43//43 44//44
f 29//29 44//44 45//45
f 29//29 45//45 30//30
f 30//30 45//45 31//31
f 31//31 45//45 33//33
f 31//31 33//33 32//32
f 33//33 45//45 44//44
f 34//34 46//46 35//35
f 35//35 46//46 47//47
f 35//35 47//47 48//48
f 35//35 48//48 39//39
f 36//36 49//49 50//50
f 36//36 50//50 51//51
f 36//36 51//51 37//37
f 36//36 39//39 52//52
f 36//36 52//52 53//53
f 36//36 53//53 49//49
f 37//37 51//51 38//38
f 39//39 48//48 52//52
f 40//40 54//54 41//41
f 41//41 54//54 56//56
f 41//41 56//56 55//55
f 46//46 57//57 47//47
f 47//47 57//57 58//58
f 47//47 58//58 59//59
f 47//47 59//59 60//60
f 47//47 60//60 61//61
f 47//47 61//61 62//62
f 47//47 62//62 63//63
f 47//47 63//63 48//48
f 48//48 63//63 49//49
f 48//48 49//49 52//52
f 49//49 64//64 65//65
f 49//49 65//65 50//50
f 49//49 53//53 52//52
f 49//49 63//63 64//64
f 54//54 66//66 56//56
f 55//55 56//56 68//68
f 55//55 68//68 67//67
f 56//56 66//66 69//69
f 56//56 69//69 68//68
f 57//57 70//70 58//58
f 58//58 70//70 59//59
f 59//59 70//70 71//71
f 59//59 71//71 60//60
f 60//60 72//72 73//73
f 60//60 73//73 61//61
f 61//61 73//73 74//74
f 61//61 74//74 75//75
f 61//61 75//75 76//76
f 61//61 76//76 62//62
f 62//62 76//76 77//77
f 62//62 77//77 63//63
f 63//63 77//77 64//64
f 64//64 78//78 79//79
f 64//64 79//79 65//65
f 64//64 77//77 80//80
f 64//64 80//80 78//78
f 66//66 81//81 69//69
f 67//67 82//82 83//83
f 67//67 68//68 82//82
f 68//68 69//69 82//82
f 69//69 81//81 82//82
f 72//72 84//84 85//85
f 72//72 85//85 73//73
f 73//73 85//85 84//84
f 73//73 84//84 86//86
f 73//73 86//86 87//87
f 73//73 87//87 88//88
f 73//73 88//88 74//74
f 74//74 88//88 89//89
f 74//74 89//89 90//90
f 74//74 90//90 75//75
f 75//75 91//91 92//92
f 75//75 92//92 80//80
f 75//75 80//80 77//77
f 75//75 77//77 76//76
f 75//75 90//90 91//91
f 78//78 80//80 92//92
f 78//78 92//92 93//93
f 81//81 94//94 95//95
f 81//81 95//95 82//82
f 82//82 96//96 97//97
f 82//82 97//97 98//98
f 82//82 98//98 99//99
f 82//82 99//99 100//100
f 82//82 100//100 83//83
f 82//82 95//95 96//96
f 84//84 101//101 87//87
f 84//84 87//87 86//86
f 87//87 101//101 102//102
f 87//87 102//102 103//103
f 87//87 103//103 104//104
f 87//87 104//104 88//88
f 88//88 104//104 105//105
f 88//88 105//105 106//106
f 88//88 106//106 107//107
f 88//88 107//107 89//89
f 89//89 108//108 90//90
f 89//89 107//107 108//108
f 90//90 108//108 109//109
f 90//90 109//109 110//110
f 90//90 110//110 91//91
f 91//91 110//110 111//111
f 91//91 111//111 112//112
f 91//91 112//112 92//92
f 92//92 112//112 93//93
f 93//93 112//112 113//113
f 94//94 114//114 115//115
f 94//94 115//115 95//95
f 95//95 115//115 96//96
f 96//96 116//116 97//97
f 96//96 115//115 116//116
f 97//97 116//116 117//117
f 97//97 117//117 118//118
f 97//97 118//118 119//119
f 97//97 119//119 120//120
f 97//97 120//120 98//98
f 98//98 120//120 99//99
f 101//101 103//103 102//102
f 103//103 121//121 105//105
f 103//103 105//105 104//104
f 105//105 121//121 106//106
f 106//106 121//121 122//122
f 106//106 122//122 123//123
f 106//106 123//123 124//124
f 106//106 124//124 125//125
f 106//106 125//125 126//126
f 106//106 126//126 110//110
f 106//106 110//110 107//107
f 107//107 110//110 109//109
f 107//107 109//109 108//108
f 110//110 127//127 129//129
f 110//110 129//129 111//111
f 110//110 126//126 125//125
f 110//110 125//125 128//128
f 110//110 128//128 127//127
f 111//111 129//129 130//130
f 111//111 130//130 131//131
f 111//111 131//131 132//132
f 111//111 132//132 133//133
f 111//111 133//133 112//112
f 112//112 133//133 113//113
f 114//114 134//134 135//135
f 114//114 135//135 115//115
f 115//115 135//135 136//136
f 115//115 136//136 116//116
f 116//116 136//136 137//137
f 116//116 137//137 138//138
f 116//116 138//138 117//117
f 117//117 139//139 140//140
f 117//117 140//140 118//118
f 117//117 138//138 141//141
f 117//117 141//141 139//139
f 118//118 140//140 119//119
f 119//119 140//140 142//142
f 119//119 142//142 120//120
f 124//124 128//128 125//125
f 127//127 128//128 143//143
f 127//127 143//143 144//144
f 127//127 144//144 129//129
f 129//129 145//145 146//146
f 129//129 146//146 147//147
f 129//129 147//147 148//148
f 129//129 148//148 149//149
f 129//129 149//149 130//130
f 129//129 144//144 145//145
f 134//134 150//150 136//136
f 134//134 136//136 135//135
f 136//136 150//150 138//138
f 136//136 138//138 137//137
f 138//138 150//150 151//151
f 138//138 151//151 152//152
f 138//138 152//152 153//153
f 138//138 153//153 139//139
f 138//138 139//139 141//141
f 139//139 154//154 155//155
f 139//139 155//155 156//156
f 139//139 156//156 157//157
f 139//139 157//157 140//140
f 139//139 153//153 154//154
f 140//140 157//157 142//142
f 143//143 158//158 144//144
f 144//144 158//158 159//159
f 144//144 159//159 160//160
f 144//144 160//160 145//145
f 145//145 160//160 146//146
f 146//146 160//160 147//147
f 147//147 160//160 161//161
f 147//147 161//161 148//148
f 148//148 161//161 162//162
f 148//148 162//162 149//149
f 150//150 163//163 151//151
f 151//151 163//163 164//164
f 151//151 164//164 152//152
f 152//152 164//164 165//165
f 152//152 165//165 153//153
f 153//153 165//165 166//166
f 153//153 166//166 154//154
f 154//154 166//166 155//155
f 155//155 167//167 168//168
f 155//155 168//168 156//156
f 155//155 166//166 167//167
f 158//158 169//169 159//159
f 159//159 170//170 160//160
f 159//159 169//169 170//170
f 160//160 170//170 171//171
f 160//160 171//171 161//161
f 161//161 172//172 173//173
f 161//161 173//173 162//162
f 161//161 171//171 170//170
f 161//161 170//170 174//174
f 161//161 174//174 172//172
f 164//164 175//175 166//166
f 164//164 166//166 165//165
f 166//166 175//175 176//176
f 166//166 176//176 177//177
f 166//166 177//177 178//178
f 166//166 178//178 179//179
f 166//166 179//179 167//167
f 167//167 180//180 181//181
f 167//167 181//181 168//168
f 167//167 179//179 182//182
f 167//167 182//182 183//183
f 167//167 183//183 172//172
f 167//167 172//172 174//174
f 167//167 174//174 180//180
f 169//169 184//184 174//174
f 169//169 174//174 170//170
f 172//172 183//183 182//182
f 172//172 182//182 185//185
f 172//172 185//185 186//186
f 172//172 186//186 173//173
f 174//174 184//184 180//180
f 175//175 177//177 176//176
f 177//177 185//185 178//178
f 178//178 182//182 179//179
f 178//178 185//185 182//182
f 187//187 188//188 192//192
f 187//187 192//192 198//198
f 187//187 198//198 213//213
f 187//187 213//213 238//238
f 187//187 238//238 250//250
f 187//187 250//250 262//262
f 187//187 262//262 277//277
f 187//187 277//277 292//292
f 187//187 292//292 306//306
f 187//187 306//306 305//305
f 187//187 305//305 303//303
f 187//187 303//303 302//302
f 187//187 302//302 314//314
f 187//187 314//314 327//327
f 187//187 327//327 326//326
f 187//187 326//326 325//325
f 187//187 325//325 330//330
f 187//187 330//330 334//334
f 187//187 334//334 328//328
f 187//187 328//328 315//315
f 187//187 315//315 307//307
f 187//187 307//307 295//295
f 187//187 295//295 283//283
f 187//187 283//283 281//281
f 187//187 281//281 267//267
f 187//187 267//267 266//266
f 187//187 266//266 265//265
f 187//187 265//265 256//256
f 187//187 256//256 242//242
f 187//187 242//242 223//223
f 187//187 223//223 205//205
f 187//187 205//205 194//194
f 187//187 194//194 189//189
f 187//187 189//189 190//190
f 187//187 190//190 191//191
f 187//187 191//191 188//188
f 188//188 191//191 193//193
f 188//188 193//193 192//192
f 189//189 194//194 195//195
f 189//189 195//195 190//190
f 190//190 196//196 191//191
f 190//190 195//195 196//196
f 191//191 196//196 197//197
f 191//191 197//197 193//193
f 192//192 193//193 198//198
f 193//193 199//199 200//200
f 193//193 200//200 198//198
f 193//193 197//197 201//201
f 193//193 201//201 202//202
f 193//193 202//202 203//203
f 193//193 203//203 204//204
f 193//193 204//204 199//199
f 194//194 205//205 206//206
f 194//194 206//206 195//195
f 195//195 206//206 207//207
f 195//195 207//207 208//208
f 195//195 208//208 209//209
f 195//195 209//209 210//210
f 195//195 210//210 196//196
f 196//196 210//210 197//197
f 197//197 210//210 211//211
f 197//197 211//211 202//202
f 197//197 202//202 201//201
f 198//198 212//212 213//213
f 198//198 200//200 199//199
f 198//198 199//199 214//214
f 198//198 214//214 212//212
f 199//199 204//204 214//214
f 202//202 211//211 210//210
f 202//202 210//210 215//215
f 202//202 215//215 216//216
f 202//202 216//216 217//217
f 202//202 217//217 204//204
f 202//202 204//204 203//203
f 204//204 217//217 218//218
f 204//204 218//218 219//219
f 204//204 219//219 220//220
f 204//204 220//220 221//221
f 204//204 221//221 214//214
f 205//205 222//222 206//206
f 205//205 223//223 224//224
f 205//205 224//224 225//225
f 205//205 225//225 226//226
f 205//205 226//226 227//227
f 205//205 227//227 222//222
f 206//206 222//222 227//227
f 206//206 227//227 207//207
f 207//207 227//227 228//228
f 207//207 228//228 229//229
f 207//207 229//229 230//230
f 207//207 230//230 208//208
f 208//208 231//231 232//232
f 208//208 232//232 209//209
f 208//208 230//230 233//233
f 208//208 233//233 231//231
f 209//209 232//232 234//234
f 209//209 234//234 235//235
f 209//209 235//235 210//210
f 210//210 235//235 236//236
f 210//210 236//236 215//215
f 212//212 237//237 213//213
f 212//212 214//214 221//221
f 212//212 221//221 237//237
f 213//213 237//237 238//238
f 215//215 236//236 216//216
f 216//216 236//236 235//235
f 216//216 235//235 234//234
f 216//216 234//234 231//231
f 216//216 231//231 233//233
f 216//216 233//233 230//230
f 216//216 230//230 248//248
f 216//216 248//248 258//258
f 216//216 258//258 257//257
f 216//216 257//257 247//247
f 216//216 247//247 246//246
f 216//216 246//246 260//260
f 216//216 260//260 271//271
f 216//216 271//271 286//286
f 216//216 286//286 298//298
f 216//216 298//298 311//311
f 216//216 311//311 321//321
f 216//216 321//321 320//320
f 216//216 320//320 333//333
f 216//216 333//333 322//322
f 216//216 322//322 312//312
f 216//216 312//312 301//301
f 216//216 301//301 291//291
f 216//216 291//291 290//290
f 216//216 290//290 289//289
f 216//216 289//289 280//280
f 216//216 280//280 294//294
f 216//216 294//294 278//278
f 216//216 278//278 263//263
f 216//216 263//263 253//253
f 216//216 253//253 252//252
f 216//216 252//252 251//251
f 216//216 251//251 240//240
f 216//216 240//240 239//239
f 216//216 239//239 218//218
f 216//216 218//218 217//217
f 218//218 239//239 219//219
f 219//219 239//239 220//220
f 220//220 239//239 240//240
f 220//220 240//240 241//241
f 220//220 241//241 237//237
f 220//220 237//237 221//221
f 223//223 242//242 224//224
f 224//224 243//243 244//244
f 224//224 244//244 225//225
f 224//224 242//242 245//245
f 224//224 245//245 246//246
f 224//224 246//246 247//247
f 224//224 247//247 243//243
f 225//225 244//244 243//243
f 225//225 243//243 248//248
f 225//225 248//248 226//226
f 226//226 228//228 227//227
f 226//226 248//248 229//229
f 226//226 229//229 228//228
f 229//229 248//248 230//230
f 231//231 234//234 232//232
f 237//237 249//249 250//250
f 237//237 250//250 238//238
f 237//237 241//241 249//249
f 240//240 251//251 241//241
f 241//241 251//251 252//252
f 241//241 252//252 253//253
f 241//241 253//253 254//254
f 241//241 254//254 255//255
f 241//241 255//255 249//249
f 242//242 256//256 245//245
f 243//243 247//247 257//257
f 243//243 257//257 258//258
f 243//243 258//258 248//248
f 245//245 256//256 259//259
f 245//245 259//259 260//260
f 245//245 260//260 246//246
f 249//249 261//261 250//250
f 249//249 255//255 261//261
f 250//250 261//261 262//262
f 253//253 263//263 255//255
f 253//253 255//255 254//254
f 255//255 264//264 261//261
f 255//255 263//263 264//264
f 256//256 265//265 259//259
f 259//259 265//265 266//266
f 259//259 266//266 267//267
f 259//259 267//267 268//268
f 259//259 268//268 260//260
f 260//260 269//269 270//270
f 260//260 270//270 271//271
f 260//260 268//268 267//267
f 260//260 267//267 272//272
f 260//260 272//272 269//269
f 261//261 273//273 274//274
f 261//261 274//274 262//262
f 261//261 264//264 273//273
f 262//262 274//274 275//275
f 262//262 275//275 276//276
f 262//262 276//276 277//277
f 263//263 278//278 264//264
f 264//264 278//278 279//279
f 264//264 279//279 280//280
f 264//264 280//280 273//273
f 267//267 281//281 282//282
f 267//267 282//282 269//269
f 267//267 269//269 272//272
f 269//269 282//282 270//270
f 270//270 282//282 281//281
f 270//270 281//281 283//283
f 270//270 283//283 284//284
f 270//270 284//284 285//285
f 270//270 285//285 271//271
f 271//271 285//285 287//287
f 271//271 287//287 286//286
f 273//273 275//275 274//274
f 273//273 280//280 275//275
f 275//275 288//288 276//276
f 275//275 280//280 289//289
f 275//275 289//289 290//290
f 275//275 290//290 291//291
f 275//275 291//291 288//288
f 276//276 292//292 277//277
f 276//276 288//288 291//291
f 276//276 291//291 293//293
f 276//276 293//293 292//292
f 278//278 294//294 279//279
f 279//279 294//294 280//280
f 283//283 295//295 284//284
f 284//284 295//295 296//296
f 284//284 296//296 287//287
f 284//284 287//287 285//285
f 286//286 297//297 298//298
f 286//286 287//287 297//297
f 287//287 296//296 299//299
f 287//287 299//299 300//300
f 287//287 300//300 297//297
f 291//291 301//301 302//302
f 291//291 302//302 303//303
f 291//291 303//303 304//304
f 291//291 304//304 305//305
f 291//291 305//305 306//306
f 291//291 306//306 293//293
f 292//292 293//293 306//306
f 295//295 307//307 308//308
f 295//295 308//308 309//309
f 295//295 309//309 296//296
f 296//296 309//309 299//299
f 297//297 310//310 298//298
f 297//297 300//300 299//299
f 297//297 299//299 310//310
f 298//298 310//310 311//311
f 299//299 309//309 310//310
f 301//301 312//312 313//313
f 301//301 313//313 302//302
f 302//302 313//313 314//314
f 303//303 305//305 304//304
f 307//307 315//315 316//316
f 307//307 316//316 317//317
f 307//307 317//317 308//308
f 308//308 317//317 309//309
f 309//309 317//317 318//318
f 309//309 318//318 310//310
f 310//310 318//318 319//319
f 310//310 319//319 320//320
f 310//310 320//320 321//321
f 310//310 321//321 311//311
f 312//312 322//322 323//323
f 312//312 323//323 313//313
f 313//313 323//323 324//324
f 313//313 324//324 325//325
f 313//313 325//325 326//326
f 313//313 326//326 327//327
f 313//313 327//327 314//314
f 315//315 328//328 329//329
f 315//315 329//329 316//316
f 316//316 324//324 323//323
f 316//316 323//323 317//317
f 316//316 329//329 330//330
f 316//316 330//330 325//325
f 316//316 325//325 324//324
f 317//317 323//323 331//331
f 317//317 331//331 319//319
f 317//317 319//319 318//318
f 319//319 332//332 320//320
f 319//319 331//331 332//332
f 320//320 332//332 333//333
f 322//322 333//333 323//323
f 323//323 333//333 332//332
f 323//323 332//332 331//331
f 328//328 334//334 329//329
f 329//329 334//334 330//330
f 335//335 336//336 337//337
f 335//335 337//337 343//343
f 335//335 343//343 354//354
f 335//335 354//354 361//361
f 335//335 361//361 372//372
f 335//335 372//372 381//381
f 335//335 381//381 380//380
f 335//335 380//380 378//378
f 335//335 378//378 388//388
f 335//335 388//388 387//387
f 335//335 387//387 392//392
f 335//335 392//392 391//391
f 335//335 391//391 395//395
f 335//335 395//395 399//399
f 335//335 399//399 404//404
f 335//335 404//404 409//409
f 335//335 409//409 408//408
f 335//335 408//408 416//416
f 335//335 416//416 418//418
f 335//335 418//418 417//417
f 335//335 417//417 414//414
f 335//335 414//414 413//413
f 335//335 413//413 412//412
f 335//335 412//412 410//410
f 335//335 410//410 405//405
f 335//335 405//405 400//400
f 335//335 400//400 396//396
f 335//335 396//396 393//393
f 335//335 393//393 389//389
f 335//335 389//389 382//382
f 335//335 382//382 368//368
f 335//335 368//368 357//357
f 335//335 357//357 345//345
f 335//335 345//345 338//338
f 335//335 338//338 339//339
f 335//335 339//339 340//340
f 335//335 340//340 341//341
f 335//335 341//341 336//336
f 336//336 341//341 342//342
f 336//336 342//342 337//337
f 337//337 342//342 344//344
f 337//337 344//344 343//343
f 338//338 345//345 346//346
f 338//338 346//346 339//339
f 339//339 347//347 341//341
f 339//339 341//341 340//340
f 339//339 346//346 348//348
f 339//339 348//348 349//349
f 339//339 349//349 347//347
f 341//341 347//347 349//349
f 341//341 349//349 350//350
f 341//341 350//350 351//351
f 341//341 351//351 342//342
f 342//342 351//351 352//352
f 342//342 352//352 353//353
f 342//342 353//353 344//344
f 343//343 344//344 354//354
f 344//344 353//353 355//355
f 344//344 355//355 356//356
f 344//344 356//356 354//354
f 345//345 357//357 358//358
f 345//345 358//358 359//359
f 345//345 359//359 348//348
f 345//345 348//348 346//346
f 348//348 359//359 349//349
f 349//349 359//359 358//358
f 349//349 358//358 371//371
f 349//349 371//371 373//373
f 349//349 373//373 362//362
f 349//349 362//362 356//356
f 349//349 356//356 355//355
f 349//349 355//355 352//352
f 349//349 352//352 351//351
f 349//349 351//351 350//350
f 352//352 355//355 353//353
f 354//354 360//360 361//361
f 354//354 356//356 360//360
f 356//356 362//362 374//374
f 356//356 374//374 385//385
f 356//356 385//385 390//390
f 356//356 390//390 394//394
f 356//356 394//394 397//397
f 356//356 397//397 402//402
f 356//356 402//402 401//401
f 356//356 401//401 406//406
f 356//356 406//406 411//411
f 356//356 411//411 415//415
f 356//356 415//415 407//407
f 356//356 407//407 403//403
f 356//356 403//403 398//398
f 356//356 398//398 395//395
f 356//356 395//395 391//391
f 356//356 391//391 386//386
f 356//356 386//386 375//375
f 356//356 375//375 363//363
f 356//356 363//363 364//364
f 356//356 364//364 365//365
f 356//356 365//365 366//366
f 356//356 366//366 367//367
f 356//356 367//367 361//361
f 356//356 361//361 360//360
f 357//357 368//368 369//369
f 357//357 369//369 358//358
f 358//358 369//369 370//370
f 358//358 370//370 371//371
f 361//361 367//367 372//372
f 362//362 373//373 370//370
f 362//362 370//370 374//374
f 363//363 375//375 376//376
f 363//363 376//376 364//364
f 364//364 376//376 377//377
f 364//364 377//377 378//378
f 364//364 378//378 379//379
f 364//364 379//379 365//365
f 365//365 379//379 366//366
f 366//366 379//379 380//380
f 366//366 380//380 381//381
f 366//366 381//381 367//367
f 367//367 381//381 372//372
f 368//368 382//382 383//383
f 368//368 383//383 384//384
f 368//368 384//384 369//369
f 369//369 384//384 370//370
f 370//370 383//383 385//385
f 370//370 385//385 374//374
f 370//370 373//373 371//371
f 370//370 384//384 383//383
f 375//375 386//386 387//387
f 375//375 387//387 376//376
f 376//376 387//387 388//388
f 376//376 388//388 377//377
f 377//377 388//388 378//378
f 378//378 380//380 379//379
f 382//382 389//389 383//383
f 383//383 390//390 385//385
f 383//383 389//389 390//390
f 386//386 391//391 392//392
f 386//386 392//392 387//387
f 389//389 393//393 390//390
f 390//390 393//393 394//394
f 393//393 396//396 397//397
f 393//393 397//397 394//394
f 395//395 398//398 399//399
f 396//396 400//400 401//401
f 396//396 401//401 402//402
f 396//396 402//402 397//397
f 398//398 403//403 404//404
f 398//398 404//404 399//399
f 400//400 405//405 401//401
f 401//401 405//405 406//406
f 403//403 407//407 408//408
f 403//403 408//408 409//409
f 403//403 409//409 404//404
f 405//405 410//410 406//406
f 406//406 410//410 412//412
f 406//406 412//412 413//413
f 406//406 413//413 414//414
f 406//406 414//414 411//411
f 407//407 415//415 416//416
f 407//407 416//416 408//408
f 411//411 414//414 417//417
f 411//411 417//417 418//418
f 411//411 418//418 415//415
f 415//415 418//418 416//416
f 419//419 420//420 426//426
f 419//419 426//426 431//431
f 419//419 431//431 440//440
f 419//419 440//440 447//447
f 419//419 447//447 453//453
f 419//419 453//453 452//452
f 419//419 452//452 455//455
f 419//419 455//455 461//461
f 419//419 461//461 466//466
f 419//419 466//466 470//470
f 419//419 470//470 475//475
f 419//419 475//475 480//480
f 419//419 480//480 486//486
f 419//419 486//486 487//487
f 419//419 487//487 491//491
f 419//419 491//491 489//489
f 419//419 489//489 483//483
f 419//419 483//483 482//482
f 419//419 482//482 478//478
f 419//419 478//478 473//473
f 419//419 473//473 471//471
f 419//419 471//471 467//467
f 419//419 467//467 462//462
f 419//419 462//462 456//456
f 419//419 456//456 448//448
f 419//419 448//448 441//441
f 419//419 441//441 434//434
f 419//419 434//434 432//432
f 419//419 432//432 427//427
f 419//419 427//427 421//421
f 419//419 421//421 422//422
f 419//419 422//422 420//420
f 420//420 422//422 423//423
f 420//420 423//423 424//424
f 420//420 424//424 425//425
f 420//420 425//425 426//426
f 421//421 427//427 428//428
f 421//421 428//428 429//429
f 421//421 429//429 422//422
f 422//422 429//429 428//428
f 422//422 428//428 436//436
f 422//422 436//436 443//443
f 422//422 443//443 449//449
f 422//422 449//449 458//458
f 422//422 458//458 464//464
f 422//422 464//464 468//468
f 422//422 468//468 472//472
f 422//422 472//472 477//477
f 422//422 477//477 484//484
f 422//422 484//484 490//490
f 422//422 490//490 488//488
f 422//422 488//488 481//481
f 422//422 481//481 479//479
f 422//422 479//479 474//474
f 422//422 474//474 469//469
f 422//422 469//469 465//465
f 422//422 465//465 459//459
f 422//422 459//459 451//451
f 422//422 451//451 450//450
f 422//422 450//450 444//444
f 422//422 444//444 437//437
f 422//422 437//437 430//430
f 422//422 430//430 425//425
f 422//422 425//425 424//424
f 422//422 424//424 423//423
f 425//425 430//430 426//426
f 426//426 430//430 431//431
f 427//427 432//432 428//428
f 428//428 432//432 433//433
f 428//428 433//433 434//434
f 428//428 434//434 435//435
f 428//428 435//435 436//436
f 430//430 437//437 431//431
f 431//431 437//437 438//438
f 431//431 438//438 439//439
f 431//431 439//439 440//440
f 432//432 434//434 433//433
f 434//434 441//441 435//435
f 435//435 441//441 442//442
f 435//435 442//442 436//436
f 436//436 442//442 443//443
f 437//437 444//444 445//445
f 437//437 445//445 438//438
f 438//438 445//445 446//446
f 438//438 446//446 439//439
f 439//439 446//446 447//447
f 439//439 447//447 440//440
f 441//441 448//448 442//442
f 442//442 448//448 449//449
f 442//442 449//449 443//443
f 444//444 450//450 445//445
f 445//445 450//450 451//451
f 445//445 451//451 446//446
f 446//446 452//452 453//453
f 446//446 453//453 447//447
f 446//446 451//451 454//454
f 446//446 454//454 455//455
f 446//446 455//455 452//452
f 448//448 456//456 457//457
f 448//448 457//457 449//449
f 449//449 457//457 458//458
f 451//451 459//459 454//454
f 454//454 459//459 455//455
f 455//455 459//459 460//460
f 455//455 460//460 461//461
f 456//456 462//462 463//463
f 456//456 463//463 457//457
f 457//457 463//463 458//458
f 458//458 463//463 464//464
f 459//459 465//465 466//466
f 459//459 466//466 460//460
f 460//460 466//466 461//461
f 462//462 467//467 468//468
f 462//462 468//468 464//464
f 462//462 464//464 463//463
f 465//465 469//469 466//466
f 466//466 469//469 470//470
f 467//467 471//471 468//468
f 468//468 471//471 473//473
f 468//468 473//473 472//472
f 469//469 474//474 470//470
f 470//470 474//474 475//475
f 472//472 476//476 477//477
f 472//472 473//473 476//476
f 473//473 478//478 476//476
f 474//474 479//479 475//475
f 475//475 479//479 481//481
f 475//475 481//481 480//480
f 476//476 482//482 483//483
f 476//476 483//483 484//484
f 476//476 484//484 485//485
f 476//476 485//485 477//477
f 476//476 478//478 482//482
f 477//477 485//485 484//484
f 480//480 481//481 486//486
f 481//481 487//487 486//486
f 481//481 488//488 491//491
f 481//481 491//491 487//487
f 483//483 489//489 484//484
f 484//484 489//489 490//490
f 488//488 490//490 491//491
f 489//489 491//491 490//490
f 492//492 493//493 494//494
f 492//492 494//494 495//495
f 492//492 495//495 501//501
f 492//492 501//501 511//511
f 492//492 511//511 523//523
f 492//492 523//523 542//542
f 492//492 542//542 553//553
f 492//492 553//553 560//560
f 492//492 560//560 559//559
f 492//492 559//559 564//564
f 492//492 564//564 563//563
f 492//492 563//563 562//562
f 492//492 562//562 556//556
f 492//492 556//556 546//546
f 492//492 546//546 555//555
f 492//492 555//555 554//554
f 492//492 554//554 544//544
f 492//492 544//544 526//526
f 492//492 526//526 513//513
f 492//492 513//513 502//502
f 492//492 502//502 496//496
f 492//492 496//496 497//497
f 492//492 497//497 493//493
f 493//493 498//498 494//494
f 493//493 497//497 499//499
f 493//493 499//499 498//498
f 494//494 498//498 500//500
f 494//494 500//500 495//495
f 495//495 500//500 501//501
f 496//496 502//502 503//503
f 496//496 503//503 497//497
f 497//497 503//503 504//504
f 497//497 504//504 516//516
f 497//497 516//516 515//515
f 497//497 515//515 514//514
f 497//497 514//514 527//527
f 497//497 527//527 545//545
f 497//497 545//545 555//555
f 497//497 555//555 546//546
f 497//497 546//546 528//528
f 497//497 528//528 517//517
f 497//497 517//517 506//506
f 497//497 506//506 499//499
f 498//498 505//505 500//500
f 498//498 499//499 505//505
f 499//499 506//506 507//507
f 499//499 507//507 508//508
f 499//499 508//508 505//505
f 500//500 505//505 508//508
f 500//500 508//508 509//509
f 500//500 509//509 501//501
f 501//501 510//510 511//511
f 501//501 509//509 512//512
f 501//501 512//512 510//510
f 502//502 513//513 514//514
f 502//502 514//514 515//515
f 502//502 515//515 516//516
f 502//502 516//516 504//504
f 502//502 504//504 503//503
f 506//506 517//517 518//518
f 506//506 518//518 519//519
f 506//506 519//519 520//520
f 506//506 520//520 507//507
f 507//507 521//521 508//508
f 507//507 520//520 521//521
f 508//508 521//521 509//509
f 509//509 521//521 522//522
f 509//509 522//522 512//512
f 510//510 512//512 511//511
f 511//511 512//512 523//523
f 512//512 524//524 525//525
f 512//512 525//525 523//523
f 512//512 522//522 524//524
f 513//513 526//526 514//514
f 514//514 526//526 527//527
f 517//517 528//528 529//529
f 517//517 529//529 518//518
f 518//518 529//529 530//530
f 518//518 530//530 531//531
f 518//518 531//531 532//532
f 518//518 532//532 533//533
f 518//518 533//533 519//519
f 519//519 533//533 534//534
f 519//519 534//534 535//535
f 519//519 535//535 520//520
f 520//520 535//535 521//521
f 521//521 535//535 536//536
f 521//521 536//536 537//537
f 521//521 537//537 522//522
f 522//522 537//537 534//534
f 522//522 534//534 533//533
f 522//522 533//533 547//547
f 522//522 547//547 531//531
f 522//522 531//531 530//530
f 522//522 530//530 529//529
f 522//522 529//529 528//528
f 522//522 528//528 546//546
f 522//522 546//546 556//556
f 522//522 556//556 561//561
f 522//522 561//561 557//557
f 522//522 557//557 548//548
f 522//522 548//548 538//538
f 522//522 538//538 539//539
f 522//522 539//539 540//540
f 522//522 540//540 541//541
f 522//522 541//541 525//525
f 522//522 525//525 524//524
f 523//523 525//525 542//542
f 525//525 543//543 542//542
f 525//525 541//541 543//543
f 526//526 544//544 545//545
f 526//526 545//545 527//527
f 531//531 547//547 532//532
f 532//532 547//547 533//533
f 534//534 537//537 536//536
f 534//534 536//536 535//535
f 538//538 548//548 539//539
f 539//539 549//549 540//540
f 539//539 548//548 549//549
f 540//540 549//549 550//550
f 540//540 550//550 551//551
f 540//540 551//551 541//541
f 541//541 551//551 552//552
f 541//541 552//552 543//543
f 542//542 543//543 553//553
f 543//543 552//552 553//553
f 544//544 554//554 545//545
f 545//545 554//554 555//555
f 548//548 557//557 550//550
f 548//548 550//550 549//549
f 550//550 557//557 558//558
f 550//550 558//558 551//551
f 551//551 558//558 552//552
f 552//552 559//559 560//560
f 552//552 560//560 553//553
f 552//552 558//558 559//559
f 556//556 562//562 561//561
f 557//557 561//561 562//562
f 557//557 562//562 558//558
f 558//558 562//562 563//563
f 558//558 563//563 564//564
f 558//558 564//564 559//559
f 565//565 566//566 567//567
f 565//565 567//567 568//568
f 565//565 568//568 573//573
f 565//565 573//573 579//579
f 565//565 579//579 589//589
f 565//565 589//589 580//580
f 565//565 580//580 574//574
f 565//565 574//574 569//569
f 565//565 569//569 566//566
f 566//566 569//569 575//575
f 566//566 575//575 582//582
f 566//566 582//582 591//591
f 566//566 591//591 600//600
f 566//566 600//600 613//613
f 566//566 613//613 622//622
f 566//566 622//622 619//619
f 566//566 619//619 623//623
f 566//566 623//623 615//615
f 566//566 615//615 614//614
f 566//566 614//614 602//602
f 566//566 602//602 601//601
f 566//566 601//601 592//592
f 566//566 592//592 583//583
f 566//566 583//583 576//576
f 566//566 576//576 570//570
f 566//566 570//570 567//567
f 567//567 570//570 571//571
f 567//567 571//571 572//572
f 567//567 572//572 568//568
f 568//568 572//572 571//571
f 568//568 571//571 577//577
f 568//568 577//577 584//584
f 568//568 584//584 594//594
f 568//568 594//594 608//608
f 568//568 608//608 620//620
f 568//568 620//620 612//612
f 568//568 612//612 610//610
f 568//568 610//610 596//596
f 568//568 596//596 586//586
f 568//568 586//586 578//578
f 568//568 578//578 573//573
f 569//569 574//574 575//575
f 570//570 576//576 571//571
f 571//571 576//576 577//577
f 573//573 578//578 585//585
f 573//573 585//585 579//579
f 574//574 580//580 581//581
f 574//574 581//581 575//575
f 575//575 581//581 582//582
f 576//576 583//583 577//577
f 577//577 583//583 584//584
f 578//578 586//586 587//587
f 578//578 587//587 585//585
f 579//579 588//588 589//589
f 579//579 585//585 588//588
f 580//580 589//589 581//581
f 581//581 589//589 588//588
f 581//581 588//588 590//590
f 581//581 590//590 591//591
f 581//581 591//591 582//582
f 583//583 592//592 593//593
f 583//583 593//593 584//584
f 584//584 593//593 594//594
f 585//585 587//587 595//595
f 585//585 595//595 588//588
f 586//586 596//596 587//587
f 587//587 596//596 597//597
f 587//587 597//597 595//595
f 588//588 595//595 590//590
f 590//590 595//595 598//598
f 590//590 598//598 599//599
f 590//590 599//599 600//600
f 590//590 600//600 591//591
f 592//592 601//601 593//593
f 593//593 601//601 602//602
f 593//593 602//602 603//603
f 593//593 603//603 604//604
f 593//593 604//604 605//605
f 593//593 605//605 606//606
f 593//593 606//606 607//607
f 593//593 607//607 594//594
f 594//594 607//607 606//606
f 594//594 606//606 605//605
f 594//594 605//605 617//617
f 594//594 617//617 618//618
f 594//594 618//618 608//608
f 595//595 597//597 609//609
f 595//595 609//609 598//598
f 596//596 610//610 597//597
f 597//597 610//610 609//609
f 598//598 611//611 599//599
f 598//598 609//609 612//612
f 598//598 612//612 611//611
f 599//599 611//611 613//613
f 599//599 613//613 600//600
f 602//602 614//614 603//603
f 603//603 605//605 604//604
f 603//603 614//614 605//605
f 605//605 614//614 615//615
f 605//605 615//615 616//616
f 605//605 616//616 617//617
f 608//608 618//618 616//616
f 608//608 616//616 619//619
f 608//608 619//619 620//620
f 609//609 610//610 612//612
f 611//611 612//612 621//621
f 611//611 621//621 622//622
f 611//611 622//622 613//613
f 612//612 620//620 621//621
f 615//615 623//623 616//616
f 616//616 623//623 619//619
f 616//616 618//618 617//617
f 619//619 622//622 621//621
f 619//619 621//621 620//620
