o link_3_12
v 0.243062 0.486598 0.143216
v 0.243296 0.489454 0.146371
v 0.245302 0.486598 0.144365
v 0.241869 0.486598 0.143235
v 0.239441 0.498657 0.155312
v 0.240114 0.498657 0.155312
v 0.239749 0.503129 0.159915
v 0.243139 0.498062 0.155884
v 0.245990 0.486598 0.145245
v 0.244677 0.499224 0.158910
v 0.239090 0.486598 0.144288
v 0.239638 0.489461 0.146361
v 0.239518 0.503129 0.159915
v 0.229573 0.522070 0.181881
v 0.232838 0.523670 0.182241
v 0.235001 0.523670 0.182626
v 0.237375 0.523670 0.183107
v 0.238051 0.523670 0.183521
v 0.240217 0.517315 0.177321
v 0.247562 0.486598 0.147467
v 0.240305 0.523670 0.185589
v 0.243752 0.523670 0.192346
v 0.237106 0.486598 0.148040
v 0.225729 0.523670 0.186560
v 0.228041 0.523670 0.184516
v 0.248301 0.488568 0.152296
v 0.248723 0.486598 0.150507
v 0.224514 0.523670 0.192346
v 0.253135 0.490111 0.192346
v 0.253320 0.489708 0.191938
v 0.253317 0.489675 0.189470
v 0.253272 0.489494 0.187133
v 0.248746 0.489508 0.155322
v 0.235537 0.486598 0.151700
v 0.225715 0.523489 0.186522
v 0.224896 0.523489 0.189470
v 0.224936 0.523670 0.189470
v 0.249071 0.486598 0.152243
v 0.224905 0.523670 0.189629
v 0.224482 0.523489 0.192346
v 0.252658 0.488837 0.192346
v 0.253320 0.489290 0.191938
v 0.253454 0.487541 0.189311
v 0.253623 0.486598 0.185305
v 0.253594 0.487142 0.185344
v 0.253580 0.486598 0.184026
v 0.249271 0.486598 0.153513
v 0.234918 0.486598 0.154081
v 0.224870 0.518948 0.189470
v 0.225707 0.518948 0.186387
v 0.224471 0.521826 0.192346
v 0.251317 0.487018 0.192346
v 0.252210 0.486598 0.190851
v 0.253469 0.486598 0.188855
v 0.234313 0.486598 0.157226
v 0.224539 0.518948 0.192346
v 0.250841 0.486598 0.192346
v 0.251742 0.486598 0.191428
v 0.233882 0.486598 0.161651
v 0.224816 0.517638 0.192346
v 0.241972 0.486598 0.192346
v 0.233879 0.486598 0.162262
v 0.225507 0.514945 0.192346
v 0.239589 0.489370 0.192346
v 0.241116 0.486598 0.190894
v 0.234042 0.486598 0.166244
v 0.226209 0.512677 0.192346
v 0.225938 0.513508 0.192346
v 0.238627 0.490575 0.192346
v 0.240311 0.486598 0.189470
v 0.234085 0.486598 0.166783
v 0.227347 0.509875 0.192346
v 0.236410 0.493972 0.192346
v 0.238276 0.486598 0.184983
v 0.238468 0.486598 0.185435
v 0.234567 0.486598 0.170737
v 0.229565 0.505466 0.192346
v 0.234612 0.486598 0.171054
v 0.234741 0.486598 0.171723
v 0.235543 0.486598 0.175854
v 0.232920 0.499601 0.192346
v 0.238199 0.486598 0.184776
v 0.235785 0.486598 0.176854
v 0.236422 0.486598 0.179288
vn 0.006478 -0.999295 -0.036969
vn 0.306884 0.704753 -0.639645
vn 0.500813 0.650051 -0.571507
vn -0.110206 0.672322 -0.732009
vn -0.210778 0.685155 -0.697234
vn 0.049936 0.714721 -0.697624
vn 0.219523 0.734953 -0.641602
vn 0.416624 0.697058 -0.583553
vn 0.684321 0.532133 -0.498537
vn 0.710085 0.567535 -0.416754
vn -0.683852 0.405821 -0.606347
vn -0.323772 0.643461 -0.693635
vn -0.097812 0.717115 -0.690057
vn -0.351271 0.641065 -0.682381
vn -0.069250 0.931817 -0.356261
vn 0.124168 0.749074 -0.650746
vn 0.275590 0.736497 -0.617756
vn 0.395451 0.747628 -0.533545
vn 0.509634 0.675109 -0.533387
vn 0.811866 0.465562 -0.352313
vn 0.630909 0.673889 -0.384484
vn 0.792885 0.412402 0.448618
vn -0.898558 0.084824 -0.430579
vn -0.732274 0.420189 -0.535925
vn -0.538329 0.556817 -0.632579
vn 0.826047 0.466947 -0.315607
vn 0.929293 0.250723 -0.271205
vn -0.004758 0.999866 0.015682
vn 0.418154 0.105645 0.902212
vn 0.970393 0.240626 0.020893
vn 0.964301 0.263936 -0.021500
vn 0.951429 0.279476 -0.129135
vn 0.947229 0.288167 -0.140418
vn -0.951565 -0.020217 -0.306784
vn -0.940286 0.065772 -0.333971
vn -0.976016 0.014293 -0.217229
vn -0.030231 0.999510 -0.008125
vn 0.637461 -0.761672 -0.116185
vn -0.026362 0.999645 -0.003871
vn -0.150820 0.003501 0.988555
vn 0.050820 -0.035470 0.998078
vn 0.814282 -0.388247 0.431520
vn 0.999029 0.004188 0.043858
vn 0.240746 -0.970558 0.007644
vn 0.992123 0.123806 -0.019089
vn 0.562247 -0.823247 -0.078374
vn 0.868262 -0.480541 -0.123297
vn -0.949421 -0.233170 -0.210314
vn -0.976802 -0.072105 -0.201641
vn -0.962065 0.001819 -0.272815
vn -0.296514 -0.001025 0.955028
vn 0.038753 -0.030410 0.998786
vn 0.087598 -0.994211 0.062212
vn 0.082378 -0.996185 0.028790
vn -0.946412 -0.298280 -0.123831
vn -0.966749 -0.180966 0.180689
vn 0.000644 -0.812532 0.582916
vn 0.007906 -0.999943 0.007240
vn -0.939741 -0.335202 -0.067272
vn -0.834876 -0.201751 0.512131
vn -0.006265 -0.751054 0.660211
vn -0.870826 -0.491046 0.023163
vn -0.843697 -0.230869 0.484638
vn -0.082616 -0.069102 0.994183
vn -0.086642 -0.994983 0.050029
vn -0.806445 -0.590172 0.036646
vn -0.870430 -0.316621 0.376964
vn -0.790761 -0.244719 0.561079
vn -0.291226 -0.203904 0.934671
vn -0.148625 -0.986272 0.071957
vn -0.812109 -0.576325 0.091262
vn -0.791097 -0.361812 0.493212
vn -0.251942 -0.159211 0.954556
vn -0.631579 -0.732956 0.252750
vn -0.146968 -0.986894 0.066635
vn -0.727141 -0.680580 0.089879
vn -0.551740 -0.297294 0.779230
vn -0.685382 -0.718062 0.120994
vn -0.672235 -0.728785 0.130280
vn -0.739839 -0.655262 0.152545
vn -0.459056 -0.271420 0.845931
vn -0.542268 -0.819642 0.184751
vn -0.579799 -0.801133 0.148387
vn -0.601324 -0.778326 0.180604
f 1//1 2//2 3//3
f 1//1 3//3 9//9
f 1//1 9//9 20//20
f 1//1 20//20 27//27
f 1//1 27//27 38//38
f 1//1 38//38 47//47
f 1//1 47//47 46//46
f 1//1 46//46 44//44
f 1//1 44//44 54//54
f 1//1 54//54 53//53
f 1//1 53//53 58//58
f 1//1 58//58 57//57
f 1//1 57//57 61//61
f 1//1 61//61 65//65
f 1//1 65//65 70//70
f 1//1 70//70 75//75
f 1//1 75//75 74//74
f 1//1 74//74 82//82
f 1//1 82//82 84//84
f 1//1 84//84 83//83
f 1//1 83//83 80//80
f 1//1 80//80 79//79
f 1//1 79//79 78//78
f 1//1 78//78 76//76
f 1//1 76//76 71//71
f 1//1 71//71 66//66
f 1//1 66//66 62//62
f 1//1 62//62 59//59
f 1//1 59//59 55//55
f 1//1 55//55 48//48
f 1//1 48//48 34//34
f 1//1 34//34 23//23
f 1//1 23//23 11//11
f 1//1 11//11 4//4
f 1//1 4//4 5//5
f 1//1 5//5 6//6
f 1//1 6//6 7//7
f 1//1 7//7 2//2
f 2//2 7//7 8//8
f 2//2 8//8 3//3
f 3//3 8//8 10//10
f 3//3 10//10 9//9
f 4//4 11//11 12//12
f 4//4 12//12 5//5
f 5//5 13//13 7//7
f 5//5 7//7 6//6
f 5//5 12//12 14//14
f 5//5 14//14 15//15
f 5//5 15//15 13//13
f 7//7 13//13 15//15
f 7//7 15//15 16//16
f 7//7 16//16 17//17
f 7//7 17//17 8//8
f 8//8 17//17 18//18
f 8//8 18//18 19//19
f 8//8 19//19 10//10
f 9//9 10//10 20//20
f 10//10 19//19 21//21
f 10//10 21//21 22//22
f 10//10 22//22 20//20
f 11//11 23//23 24//24
f 11//11 24//24 25//25
f 11//11 25//25 14//14
f 11//11 14//14 12//12
f 14//14 25//25 15//15
f 15//15 25//25 24//24
f 15//15 24//24 37//37
f 15//15 37//37 39//39
f 15//15 39//39 28//28
f 15//15 28//28 22//22
f 15//15 22//22 21//21
f 15//15 21//21 18//18
f 15//15 18//18 17//17
f 15//15 17//17 16//16
f 18//18 21//21 19//19
f 20//20 26//26 27//27
f 20//20 22//22 26//26
f 22//22 28//28 40//40
f 22//22 40//40 51//51
f 22//22 51//51 56//56
f 22//22 56//56 60//60
f 22//22 60//60 63//63
f 22//22 63//63 68//68
f 22//22 68//68 67//67
f 22//22 67//67 72//72
f 22//22 72//72 77//77
f 22//22 77//77 81//81
f 22//22 81//81 73//73
f 22//22 73//73 69//69
f 22//22 69//69 64//64
f 22//22 64//64 61//61
f 22//22 61//61 57//57
f 22//22 57//57 52//52
f 22//22 52//52 41//41
f 22//22 41//41 29//29
f 22//22 29//29 30//30
f 22//22 30//30 31//31
f 22//22 31//31 32//32
f 22//22 32//32 33//33
f 22//22 33//33 27//27
f 22//22 27//27 26//26
f 23//23 34//34 35//35
f 23//23 35//35 24//24
f 24//24 35//35 36//36
f 24//24 36//36 37//37
f 27//27 33//33 38//38
f 28//28 39//39 36//36
f 28//28 36//36 40//40
f 29//29 41//41 42//42
f 29//29 42//42 30//30
f 30//30 42//42 43//43
f 30//30 43//43 44//44
f 30//30 44//44 45//45
f 30//30 45//45 31//31
f 31//31 45//45 32//32
f 32//32 45//45 46//46
f 32//32 46//46 47//47
f 32//32 47//47 33//33
f 33//33 47//47 38//38
f 34//34 48//48 49//49
f 34//34 49//49 50//50
f 34//34 50//50 35//35
f 35//35 50//50 36//36
f 36//36 49//49 51//51
f 36//36 51//51 40//40
f 36//36 39//39 37//37
f 36//36 50//50 49//49
f 41//41 52//52 53//53
f 41//41 53//53 42//42
f 42//42 53//53 54//54
f 42//42 54//54 43//43
f 43//43 54//54 44//44
f 44//44 46//46 45//45
f 48//48 55//55 49//49
f 49//49 56//56 51//51
f 49//49 55//55 56//56
f 52//52 57//57 58//58
f 52//52 58//58 53//53
f 55//55 59//59 56//56
f 56//56 59//59 60//60
f 59//59 62//62 63//63
f 59//59 63//63 60//60
f 61//61 64//64 65//65
f 62//62 66//66 67//67
f 62//62 67//67 68//68
f 62//62 68//68 63//63
f 64//64 69//69 70//70
f 64//64 70//70 65//65
f 66//66 71//71 67//67
f 67//67 71//71 72//72
f 69//69 73//73 74//74
f 69//69 74//74 75//75
f 69//69 75//75 70//70
f 71//71 76//76 72//72
f 72//72 76//76 78//78
f 72//72 78//78 79//79
f 72//72 79//79 80//80
f 72//72 80//80 77//77
f 73//73 81//81 82//82
f 73//73 82//82 74//74
f 77//77 80//80 83//83
f 77//77 83//83 84//84
f 77//77 84//84 81//81
f 81//81 84//84 82//82
