o link_1_8
v 0.282792 0.523670 0.212146
v 0.282739 0.523670 0.212324
v 0.281659 0.523670 0.206909
v 0.280917 0.528028 0.204580
v 0.280747 0.530663 0.204776
v 0.280747 0.530663 0.205845
v 0.282334 0.523670 0.212711
v 0.281287 0.526577 0.210867
v 0.281340 0.523670 0.206209
v 0.280796 0.524392 0.204897
v 0.276268 0.532575 0.195734
v 0.277703 0.532575 0.198540
v 0.278421 0.532575 0.203366
v 0.278410 0.532575 0.203422
v 0.278211 0.531473 0.206802
v 0.279415 0.525312 0.213892
v 0.278321 0.523670 0.216404
v 0.278211 0.529729 0.209066
v 0.279976 0.523670 0.203968
v 0.274688 0.532575 0.193461
v 0.274407 0.532575 0.207684
v 0.278026 0.527232 0.212291
v 0.274077 0.532575 0.207885
v 0.273910 0.532575 0.207969
v 0.278062 0.523670 0.216534
v 0.276769 0.523670 0.199426
v 0.275650 0.527019 0.196696
v 0.272419 0.532575 0.190254
v 0.255272 0.532575 0.217314
v 0.249192 0.525958 0.228279
v 0.264602 0.524624 0.222145
v 0.251117 0.523670 0.230048
v 0.273264 0.523670 0.196000
v 0.272628 0.524254 0.194973
v 0.271811 0.529295 0.191202
v 0.269130 0.532575 0.187155
v 0.246511 0.532575 0.221706
v 0.246511 0.526519 0.228951
v 0.246511 0.524665 0.231168
v 0.246511 0.523670 0.232354
v 0.269915 0.523670 0.194278
v 0.269904 0.526270 0.191948
v 0.264865 0.532575 0.184849
v 0.246511 0.532575 0.188181
v 0.246511 0.523670 0.195851
v 0.269141 0.523670 0.193932
v 0.264751 0.532575 0.184825
v 0.268917 0.523670 0.193886
v 0.250989 0.532575 0.186832
v 0.246511 0.532559 0.188009
v 0.246511 0.523677 0.194815
v 0.246543 0.523670 0.194838
v 0.260255 0.532575 0.184671
v 0.265135 0.523670 0.193918
v 0.255546 0.532575 0.185549
v 0.246511 0.523755 0.194740
v 0.246511 0.523710 0.194782
v 0.259616 0.532575 0.184741
v 0.256451 0.532575 0.185334
vn 0.026978 -0.999626 -0.004517
vn 0.733701 0.553529 0.394067
vn 0.963956 -0.005953 -0.265997
vn 0.929411 0.015539 -0.368719
vn 0.928552 0.300045 -0.218551
vn 0.635566 0.683891 0.358260
vn 0.570984 0.551710 0.607941
vn 0.507631 0.675218 0.535155
vn 0.312633 -0.932863 -0.178962
vn 0.843436 -0.131144 -0.520976
vn 0.037990 0.999023 -0.022587
vn 0.858547 0.379305 -0.344998
vn 0.533978 0.843118 -0.063408
vn 0.137890 0.983338 0.118461
vn 0.389992 0.794061 0.466233
vn 0.406946 0.689588 0.599052
vn 0.576965 0.501367 0.644782
vn 0.371508 0.731184 0.572147
vn 0.750250 -0.400417 -0.526110
vn 0.803925 -0.187146 -0.564518
vn 0.137387 0.974568 0.177037
vn 0.337895 0.734762 0.588177
vn 0.282329 0.821642 0.495171
vn 0.244130 0.838721 0.486773
vn 0.356262 0.607155 0.710239
vn 0.600014 -0.602417 -0.526380
vn 0.801425 -0.192132 -0.566395
vn 0.747449 -0.191852 -0.636013
vn 0.162950 0.931570 0.324999
vn 0.306199 0.730309 0.610648
vn 0.306307 0.730199 0.610725
vn 0.432463 0.262959 0.862455
vn 0.045863 -0.997080 -0.061056
vn 0.530134 -0.478475 -0.700014
vn 0.650296 -0.362310 -0.667717
vn 0.539027 -0.191346 -0.820266
vn -0.449991 0.891281 0.055906
vn 0.305884 0.730421 0.610671
vn 0.305048 0.730240 0.611307
vn -0.236142 -0.971713 0.003352
vn 0.086311 -0.978436 -0.187653
vn 0.362416 -0.564560 -0.741570
vn 0.386743 -0.288374 -0.875940
vn -0.000539 1.000000 -0.000069
vn -0.238547 -0.971131 -0.000000
vn 0.184478 -0.809823 -0.556916
vn 0.037872 0.173026 -0.984189
vn 0.010065 -0.891412 -0.453082
vn -0.000294 0.999999 -0.001011
vn -0.954580 -0.178558 -0.238526
vn -0.076597 -0.727473 -0.681848
vn -0.000034 -1.000000 -0.000328
vn -0.023970 -0.635513 -0.771718
vn -0.012499 -0.954143 -0.299090
vn -0.252690 0.214080 -0.943566
vn -0.911251 -0.255233 -0.323230
vn -0.352831 -0.650707 -0.672377
vn -0.142689 0.551498 -0.821882
vn -0.154414 0.608708 -0.778223
f 1//1 2//2 7//7
f 1//1 7//7 17//17
f 1//1 17//17 25//25
f 1//1 25//25 32//32
f 1//1 32//32 40//40
f 1//1 40//40 45//45
f 1//1 45//45 52//52
f 1//1 52//52 54//54
f 1//1 54//54 48//48
f 1//1 48//48 46//46
f 1//1 46//46 41//41
f 1//1 41//41 33//33
f 1//1 33//33 26//26
f 1//1 26//26 19//19
f 1//1 19//19 9//9
f 1//1 9//9 3//3
f 1//1 3//3 4//4
f 1//1 4//4 5//5
f 1//1 5//5 6//6
f 1//1 6//6 2//2
f 2//2 6//6 8//8
f 2//2 8//8 7//7
f 3//3 9//9 10//10
f 3//3 10//10 4//4
f 4//4 10//10 11//11
f 4//4 11//11 12//12
f 4//4 12//12 5//5
f 5//5 12//12 13//13
f 5//5 13//13 6//6
f 6//6 13//13 14//14
f 6//6 14//14 15//15
f 6//6 15//15 8//8
f 7//7 8//8 16//16
f 7//7 16//16 17//17
f 8//8 18//18 16//16
f 8//8 15//15 18//18
f 9//9 19//19 10//10
f 10//10 19//19 20//20
f 10//10 20//20 11//11
f 11//11 20//20 28//28
f 11//11 28//28 36//36
f 11//11 36//36 43//43
f 11//11 43//43 47//47
f 11//11 47//47 53//53
f 11//11 53//53 58//58
f 11//11 58//58 59//59
f 11//11 59//59 55//55
f 11//11 55//55 49//49
f 11//11 49//49 44//44
f 11//11 44//44 37//37
f 11//11 37//37 29//29
f 11//11 29//29 24//24
f 11//11 24//24 23//23
f 11//11 23//23 21//21
f 11//11 21//21 14//14
f 11//11 14//14 13//13
f 11//11 13//13 12//12
f 14//14 21//21 15//15
f 15//15 21//21 18//18
f 16//16 18//18 22//22
f 16//16 22//22 23//23
f 16//16 23//23 24//24
f 16//16 24//24 25//25
f 16//16 25//25 17//17
f 18//18 21//21 23//23
f 18//18 23//23 22//22
f 19//19 26//26 27//27
f 19//19 27//27 20//20
f 20//20 27//27 28//28
f 24//24 29//29 30//30
f 24//24 30//30 31//31
f 24//24 31//31 25//25
f 25//25 31//31 32//32
f 26//26 33//33 34//34
f 26//26 34//34 35//35
f 26//26 35//35 28//28
f 26//26 28//28 27//27
f 28//28 35//35 36//36
f 29//29 37//37 30//30
f 30//30 37//37 38//38
f 30//30 38//38 39//39
f 30//30 39//39 32//32
f 30//30 32//32 31//31
f 32//32 39//39 40//40
f 33//33 41//41 34//34
f 34//34 41//41 42//42
f 34//34 42//42 36//36
f 34//34 36//36 35//35
f 36//36 42//42 43//43
f 37//37 44//44 50//50
f 37//37 50//50 56//56
f 37//37 56//56 57//57
f 37//37 57//57 51//51
f 37//37 51//51 45//45
f 37//37 45//45 40//40
f 37//37 40//40 39//39
f 37//37 39//39 38//38
f 41//41 46//46 42//42
f 42//42 46//46 43//43
f 43//43 46//46 48//48
f 43//43 48//48 47//47
f 44//44 49//49 50//50
f 45//45 51//51 52//52
f 47//47 48//48 53//53
f 48//48 54//54 53//53
f 49//49 55//55 50//50
f 50//50 55//55 56//56
f 51//51 57//57 53//53
f 51//51 53//53 54//54
f 51//51 54//54 52//52
f 53//53 57//57 58//58
f 55//55 59//59 56//56
f 56//56 59//59 58//58
f 56//56 58//58 57//57
