o link_1_6
v 0.278421 0.532580 0.203361
v 0.278415 0.532596 0.203361
v 0.278409 0.532580 0.203417
v 0.277984 0.532580 0.200422
v 0.276392 0.539994 0.195175
v 0.276392 0.539994 0.197050
v 0.276823 0.535791 0.201954
v 0.275208 0.534528 0.204977
v 0.274409 0.532580 0.207677
v 0.277702 0.532580 0.198540
v 0.276564 0.537105 0.194979
v 0.271495 0.553131 0.182470
v 0.274616 0.538818 0.200066
v 0.271495 0.553131 0.182897
v 0.272075 0.549287 0.188214
v 0.270409 0.548032 0.191236
v 0.271001 0.543742 0.196078
v 0.273909 0.532580 0.207964
v 0.273989 0.532580 0.207922
v 0.274076 0.532580 0.207873
v 0.276265 0.532580 0.195735
v 0.275380 0.537105 0.192706
v 0.271414 0.548399 0.182652
v 0.271483 0.550717 0.182505
v 0.266885 0.557425 0.173571
v 0.266885 0.557637 0.173571
v 0.267489 0.558346 0.175859
v 0.267684 0.558505 0.179308
v 0.266201 0.557242 0.182330
v 0.269190 0.546204 0.194042
v 0.219709 0.532580 0.235151
v 0.246895 0.532580 0.221515
v 0.274691 0.532580 0.193461
v 0.271340 0.535042 0.187291
v 0.271759 0.538065 0.186654
v 0.272173 0.541643 0.186052
v 0.270679 0.541643 0.183786
v 0.267385 0.546180 0.177384
v 0.267868 0.550717 0.176692
v 0.266638 0.554398 0.173921
v 0.262327 0.553008 0.169059
v 0.262483 0.556035 0.168891
v 0.262483 0.559788 0.168898
v 0.262373 0.562277 0.169010
v 0.263350 0.563249 0.171326
v 0.261839 0.565520 0.171326
v 0.259568 0.567958 0.171326
v 0.263506 0.563166 0.175859
v 0.258965 0.567089 0.174180
v 0.262580 0.562166 0.178259
v 0.241918 0.558541 0.192964
v 0.251119 0.568922 0.175929
v 0.240251 0.571388 0.178434
v 0.219709 0.567946 0.192853
v 0.219709 0.532580 0.198589
v 0.272420 0.532580 0.190257
v 0.267765 0.537918 0.181435
v 0.266328 0.540201 0.178413
v 0.267040 0.543224 0.177881
v 0.268201 0.541683 0.180113
v 0.266276 0.550717 0.174418
v 0.264006 0.550717 0.171696
v 0.263419 0.546180 0.172473
v 0.261666 0.550717 0.169423
v 0.259396 0.550717 0.168163
v 0.260511 0.554812 0.167716
v 0.260063 0.559788 0.167219
v 0.260321 0.564006 0.167912
v 0.258988 0.567922 0.168233
v 0.254378 0.571459 0.168702
v 0.254378 0.571459 0.169842
v 0.255741 0.570177 0.171340
v 0.252332 0.570746 0.172865
v 0.249309 0.571376 0.173893
v 0.255522 0.567810 0.175048
v 0.260310 0.565205 0.175761
v 0.237377 0.571953 0.179154
v 0.228301 0.571969 0.183695
v 0.219709 0.571882 0.188123
v 0.222117 0.571396 0.187515
v 0.219709 0.570316 0.190012
v 0.224106 0.532580 0.194567
v 0.219709 0.546033 0.184800
v 0.269133 0.532580 0.187158
v 0.266644 0.534895 0.182708
v 0.262833 0.543399 0.173124
v 0.265690 0.546180 0.175118
v 0.258425 0.548044 0.168737
v 0.255516 0.555230 0.165260
v 0.254005 0.556728 0.164239
v 0.256292 0.559788 0.165106
v 0.255235 0.564038 0.165505
v 0.255741 0.569205 0.167737
v 0.250987 0.568866 0.167079
v 0.250987 0.571722 0.168506
v 0.250890 0.571750 0.171340
v 0.246452 0.571882 0.174607
v 0.232750 0.572463 0.180581
v 0.223680 0.572491 0.185122
v 0.219709 0.572037 0.187906
v 0.227106 0.532580 0.192384
v 0.219709 0.548319 0.182540
v 0.264862 0.532580 0.184849
v 0.263615 0.534612 0.182407
v 0.263304 0.538954 0.177664
v 0.260063 0.543061 0.172816
v 0.255522 0.547925 0.168646
v 0.255522 0.550717 0.167065
v 0.250987 0.556250 0.163966
v 0.250987 0.559788 0.163686
v 0.254022 0.559788 0.164232
v 0.253533 0.562329 0.164421
v 0.250987 0.562608 0.164232
v 0.246452 0.562580 0.164197
v 0.247596 0.571591 0.168681
v 0.241918 0.572340 0.172053
v 0.237377 0.572790 0.175859
v 0.241820 0.572252 0.176041
v 0.228301 0.573176 0.180400
v 0.219709 0.573252 0.184954
v 0.229365 0.532580 0.191097
v 0.219709 0.551108 0.180169
v 0.264747 0.532580 0.184828
v 0.260063 0.538711 0.177349
v 0.260063 0.540794 0.175083
v 0.255522 0.543101 0.172823
v 0.255522 0.545654 0.170556
v 0.250987 0.553980 0.165029
v 0.252275 0.548152 0.168821
v 0.247441 0.556617 0.164064
v 0.246142 0.559668 0.163987
v 0.243814 0.562293 0.164365
v 0.244567 0.570830 0.169290
v 0.234721 0.571396 0.173431
v 0.237377 0.571969 0.172886
v 0.228301 0.572340 0.177104
v 0.233060 0.572467 0.175684
v 0.219709 0.572511 0.181386
v 0.219709 0.573272 0.184443
v 0.232831 0.532580 0.189760
v 0.221226 0.552824 0.177993
v 0.243067 0.552370 0.168555
v 0.246452 0.549239 0.169724
v 0.249251 0.548610 0.169192
v 0.219709 0.553406 0.178371
v 0.264598 0.532580 0.184821
v 0.255522 0.538810 0.177433
v 0.255522 0.540834 0.175166
v 0.260247 0.532580 0.184674
v 0.251757 0.543451 0.173131
v 0.250855 0.550359 0.167513
v 0.243814 0.561102 0.164365
v 0.246452 0.551510 0.167849
v 0.246142 0.555163 0.165421
v 0.244418 0.558079 0.164616
v 0.234365 0.562588 0.168737
v 0.225393 0.571623 0.177818
v 0.219709 0.572152 0.181071
v 0.248734 0.543917 0.173599
v 0.252039 0.539085 0.177776
v 0.237365 0.532580 0.188795
v 0.219709 0.555119 0.177433
v 0.228301 0.556306 0.172851
v 0.240044 0.553306 0.169234
v 0.259609 0.532580 0.184744
v 0.228301 0.559788 0.171661
v 0.234365 0.560935 0.168737
v 0.225807 0.557282 0.173473
v 0.225060 0.562716 0.173131
v 0.222370 0.570225 0.178539
v 0.219709 0.568962 0.179189
v 0.219709 0.555410 0.177279
v 0.225134 0.559788 0.173159
v 0.219709 0.559788 0.175761
v 0.219709 0.564361 0.176727
vn 0.009786 -0.999952 -0.000883
vn 0.896979 0.402015 0.183885
vn 0.659389 0.548283 0.514385
vn 0.983365 0.107297 -0.146566
vn 0.974073 0.171676 -0.147337
vn 0.682976 0.620450 0.385467
vn 0.614700 0.603465 0.507911
vn 0.417160 0.690980 0.590359
vn 0.613644 0.517056 0.596736
vn 0.953392 -0.113068 -0.279750
vn 0.922984 -0.025651 -0.383983
vn 0.937870 0.165785 -0.304821
vn 0.427342 0.716670 0.551147
vn 0.758483 0.590978 0.274680
vn 0.478104 0.713841 0.511711
vn 0.386388 0.725269 0.569815
vn 0.306505 0.730224 0.610597
vn 0.334644 0.665905 0.666771
vn 0.478094 0.061678 0.876140
vn 0.500776 0.114123 0.858021
vn 0.809433 -0.314301 -0.496017
vn 0.849389 -0.157678 -0.503662
vn 0.846037 -0.134646 -0.515840
vn 0.898948 -0.032078 -0.436880
vn 0.826523 -0.080727 -0.557084
vn 0.826821 0.199336 -0.525958
vn 0.851019 0.494516 -0.176691
vn 0.634981 0.715106 0.292272
vn 0.389562 0.729802 0.561809
vn 0.306289 0.730330 0.610578
vn -0.451624 0.174262 0.875025
vn 0.336373 0.661172 0.670601
vn 0.476613 -0.812966 -0.334554
vn 0.771284 -0.281373 -0.570920
vn 0.817463 -0.203821 -0.538712
vn 0.830816 -0.176658 -0.527766
vn 0.816481 -0.184353 -0.547150
vn 0.812915 -0.179495 -0.554032
vn 0.816740 -0.159427 -0.554544
vn 0.798596 -0.141653 -0.584961
vn 0.690988 -0.165605 -0.703641
vn 0.663132 -0.031955 -0.747820
vn 0.685575 0.025856 -0.727543
vn 0.728531 0.232489 -0.644354
vn 0.820567 0.423162 -0.384191
vn 0.781516 0.619012 -0.077825
vn 0.624151 0.772298 0.118283
vn 0.546165 0.762251 0.347387
vn 0.414424 0.775122 0.476906
vn 0.321909 0.732755 0.599537
vn 0.306226 0.730323 0.610618
vn 0.306440 0.730501 0.610297
vn 0.306013 0.730927 0.610001
vn 0.306088 0.730383 0.610615
vn -0.216233 -0.976061 -0.023427
vn 0.473082 -0.756599 -0.451389
vn 0.623585 -0.471105 -0.623860
vn 0.679512 -0.363902 -0.637055
vn 0.758200 -0.251361 -0.601624
vn 0.804754 -0.207744 -0.556070
vn 0.777086 -0.175601 -0.604402
vn 0.746039 -0.197038 -0.636083
vn 0.698155 -0.261800 -0.666364
vn 0.491948 -0.322027 -0.808880
vn 0.404413 -0.257048 -0.877711
vn 0.463279 -0.117328 -0.878411
vn 0.520210 0.028300 -0.853570
vn 0.470359 0.176597 -0.864624
vn 0.599938 0.499217 -0.625186
vn 0.342420 0.807028 -0.481096
vn 0.338588 0.902461 0.266314
vn 0.402451 0.822116 0.402689
vn 0.337652 0.817503 0.466562
vn 0.304782 0.773331 0.555939
vn 0.306630 0.731159 0.609414
vn 0.306649 0.730543 0.610142
vn 0.261256 0.815937 0.515744
vn 0.292379 0.758784 0.582032
vn 0.247218 0.756942 0.604914
vn 0.305167 0.731985 0.609157
vn 0.255333 0.743172 0.618466
vn -0.178784 -0.959972 -0.215614
vn -0.988239 -0.109176 -0.107067
vn 0.131923 -0.973962 -0.184374
vn 0.425044 -0.618620 -0.660793
vn 0.418563 -0.503819 -0.755627
vn 0.754464 -0.208187 -0.622448
vn 0.265207 -0.440683 -0.857592
vn 0.372344 -0.249685 -0.893878
vn 0.277700 -0.200622 -0.939486
vn 0.444104 0.052930 -0.894410
vn 0.364110 0.253866 -0.896090
vn 0.160714 0.410122 -0.897759
vn 0.045648 0.425166 -0.903963
vn 0.015055 0.871518 -0.490133
vn 0.094278 0.994417 0.047391
vn 0.203403 0.922183 0.328947
vn 0.169637 0.934467 0.313042
vn 0.198783 0.892071 0.405825
vn -0.853248 0.462632 0.240707
vn -0.166229 -0.953362 -0.251930
vn -0.856601 -0.349522 -0.379564
vn 0.092398 -0.968871 -0.229676
vn 0.125042 -0.728793 -0.673220
vn 0.158275 -0.709167 -0.687045
vn 0.077530 -0.659721 -0.747501
vn -0.007085 -0.578327 -0.815774
vn 0.107737 -0.429855 -0.896447
vn 0.066017 -0.292732 -0.953913
vn 0.029842 0.035648 -0.998919
vn 0.258235 0.053058 -0.964624
vn 0.206214 0.272822 -0.939704
vn 0.060547 0.369464 -0.927271
vn -0.049689 0.365679 -0.929414
vn -0.171865 0.581118 -0.795465
vn -0.069219 0.964555 -0.254640
vn 0.070808 0.997349 0.016785
vn 0.127164 0.976570 0.173609
vn -0.004348 0.998079 -0.061806
vn -0.758465 0.623240 0.190534
vn -0.287712 -0.709128 -0.643708
vn -0.925214 -0.244357 -0.290291
vn 0.046225 -0.918771 -0.392074
vn 0.004954 -0.758170 -0.652038
vn 0.056122 -0.722944 -0.688623
vn -0.067157 -0.686849 -0.723691
vn -0.040057 -0.654030 -0.755407
vn -0.057816 -0.513413 -0.856192
vn -0.126210 -0.624040 -0.771133
vn -0.174467 -0.370404 -0.912339
vn -0.090883 0.006309 -0.995842
vn -0.317738 0.420404 -0.849884
vn -0.306343 0.500533 -0.809704
vn -0.343766 0.482247 -0.805768
vn -0.212046 0.802910 -0.557110
vn -0.182324 0.885347 -0.427689
vn -0.090900 0.965244 -0.245033
vn -0.951014 0.291091 -0.104109
vn -0.986038 0.163044 -0.033858
vn -0.153724 -0.859004 -0.488346
vn -0.337479 -0.575092 -0.745237
vn -0.324582 -0.600048 -0.731155
vn -0.301537 -0.618725 -0.725434
vn -0.261600 -0.637128 -0.725005
vn -0.999104 -0.023846 -0.034969
vn 0.008029 -0.972020 -0.234762
vn -0.098247 -0.779694 -0.618405
vn -0.079405 -0.730515 -0.678265
vn -0.004528 -0.940535 -0.339668
vn -0.176282 -0.701861 -0.690156
vn -0.192273 -0.561204 -0.805035
vn -0.379797 -0.120721 -0.917159
vn -0.246804 -0.569025 -0.784409
vn -0.356956 -0.465113 -0.810094
vn -0.388121 -0.304922 -0.869704
vn -0.379913 0.405576 -0.831369
vn -0.375525 0.461689 -0.803632
vn -0.996668 0.043197 -0.069183
vn -0.244244 -0.660643 -0.709856
vn -0.151859 -0.741111 -0.653983
vn -0.042404 -0.973532 -0.224581
vn -0.931079 -0.173981 -0.320659
vn -0.369574 -0.445576 -0.815400
vn -0.352244 -0.500064 -0.791113
vn -0.036534 -0.978524 -0.202868
vn -0.411913 -0.182463 -0.892768
vn -0.424626 -0.020657 -0.905133
vn -0.409858 -0.299644 -0.861528
vn -0.419169 0.317090 -0.850736
vn -0.401585 0.445548 -0.800136
vn -0.994703 0.049238 -0.090229
vn -0.992567 -0.041033 -0.114572
vn -0.429016 -0.086800 -0.899117
vn -0.989669 -0.013971 -0.142688
vn -0.996975 0.027203 -0.072800
f 1//1 2//2 3//3
f 1//1 3//3 9//9
f 1//1 9//9 20//20
f 1//1 20//20 19//19
f 1//1 19//19 18//18
f 1//1 18//18 32//32
f 1//1 32//32 31//31
f 1//1 31//31 55//55
f 1//1 55//55 82//82
f 1//1 82//82 101//101
f 1//1 101//101 121//121
f 1//1 121//121 140//140
f 1//1 140//140 161//161
f 1//1 161//161 165//165
f 1//1 165//165 149//149
f 1//1 149//149 146//146
f 1//1 146//146 123//123
f 1//1 123//123 103//103
f 1//1 103//103 84//84
f 1//1 84//84 56//56
f 1//1 56//56 33//33
f 1//1 33//33 21//21
f 1//1 21//21 10//10
f 1//1 10//10 4//4
f 1//1 4//4 5//5
f 1//1 5//5 6//6
f 1//1 6//6 2//2
f 2//2 6//6 3//3
f 3//3 7//7 8//8
f 3//3 8//8 9//9
f 3//3 6//6 7//7
f 4//4 10//10 5//5
f 5//5 10//10 11//11
f 5//5 11//11 12//12
f 5//5 12//12 14//14
f 5//5 14//14 6//6
f 6//6 13//13 8//8
f 6//6 8//8 7//7
f 6//6 14//14 15//15
f 6//6 15//15 13//13
f 8//8 13//13 16//16
f 8//8 16//16 17//17
f 8//8 17//17 18//18
f 8//8 18//18 19//19
f 8//8 19//19 20//20
f 8//8 20//20 9//9
f 10//10 21//21 11//11
f 11//11 21//21 22//22
f 11//11 22//22 23//23
f 11//11 23//23 24//24
f 11//11 24//24 12//12
f 12//12 24//24 25//25
f 12//12 25//25 26//26
f 12//12 26//26 27//27
f 12//12 27//27 28//28
f 12//12 28//28 14//14
f 13//13 15//15 16//16
f 14//14 28//28 15//15
f 15//15 28//28 29//29
f 15//15 29//29 16//16
f 16//16 29//29 17//17
f 17//17 29//29 50//50
f 17//17 50//50 30//30
f 17//17 30//30 31//31
f 17//17 31//31 32//32
f 17//17 32//32 18//18
f 21//21 33//33 34//34
f 21//21 34//34 35//35
f 21//21 35//35 22//22
f 22//22 35//35 36//36
f 22//22 36//36 23//23
f 23//23 36//36 37//37
f 23//23 37//37 38//38
f 23//23 38//38 39//39
f 23//23 39//39 40//40
f 23//23 40//40 25//25
f 23//23 25//25 24//24
f 25//25 40//40 41//41
f 25//25 41//41 42//42
f 25//25 42//42 26//26
f 26//26 42//42 43//43
f 26//26 43//43 44//44
f 26//26 44//44 45//45
f 26//26 45//45 27//27
f 27//27 45//45 46//46
f 27//27 46//46 28//28
f 28//28 46//46 47//47
f 28//28 47//47 48//48
f 28//28 48//48 49//49
f 28//28 49//49 50//50
f 28//28 50//50 29//29
f 30//30 51//51 31//31
f 30//30 50//50 52//52
f 30//30 52//52 53//53
f 30//30 53//53 51//51
f 31//31 51//51 54//54
f 31//31 54//54 81//81
f 31//31 81//81 79//79
f 31//31 79//79 100//100
f 31//31 100//100 120//120
f 31//31 120//120 139//139
f 31//31 139//139 138//138
f 31//31 138//138 158//158
f 31//31 158//158 171//171
f 31//31 171//171 175//175
f 31//31 175//175 174//174
f 31//31 174//174 172//172
f 31//31 172//172 162//162
f 31//31 162//162 145//145
f 31//31 145//145 122//122
f 31//31 122//122 102//102
f 31//31 102//102 83//83
f 31//31 83//83 55//55
f 33//33 56//56 34//34
f 34//34 57//57 58//58
f 34//34 58//58 59//59
f 34//34 59//59 60//60
f 34//34 60//60 35//35
f 34//34 56//56 57//57
f 35//35 60//60 37//37
f 35//35 37//37 36//36
f 37//37 60//60 38//38
f 38//38 60//60 59//59
f 38//38 59//59 61//61
f 38//38 61//61 39//39
f 39//39 61//61 40//40
f 40//40 61//61 41//41
f 41//41 62//62 63//63
f 41//41 63//63 64//64
f 41//41 64//64 65//65
f 41//41 65//65 66//66
f 41//41 66//66 42//42
f 41//41 61//61 62//62
f 42//42 66//66 67//67
f 42//42 67//67 43//43
f 43//43 67//67 44//44
f 44//44 67//67 68//68
f 44//44 68//68 69//69
f 44//44 69//69 45//45
f 45//45 69//69 46//46
f 46//46 69//69 47//47
f 47//47 69//69 70//70
f 47//47 70//70 71//71
f 47//47 71//71 72//72
f 47//47 72//72 49//49
f 47//47 49//49 48//48
f 49//49 73//73 74//74
f 49//49 74//74 75//75
f 49//49 75//75 76//76
f 49//49 76//76 50//50
f 49//49 72//72 73//73
f 50//50 76//76 52//52
f 51//51 53//53 54//54
f 52//52 76//76 75//75
f 52//52 75//75 74//74
f 52//52 74//74 53//53
f 53//53 74//74 77//77
f 53//53 77//77 78//78
f 53//53 78//78 79//79
f 53//53 79//79 80//80
f 53//53 80//80 54//54
f 54//54 80//80 81//81
f 55//55 83//83 82//82
f 56//56 84//84 85//85
f 56//56 85//85 57//57
f 57//57 85//85 58//58
f 58//58 86//86 63//63
f 58//58 63//63 59//59
f 58//58 85//85 86//86
f 59//59 63//63 87//87
f 59//59 87//87 61//61
f 61//61 87//87 62//62
f 62//62 87//87 63//63
f 63//63 86//86 64//64
f 64//64 88//88 65//65
f 64//64 86//86 88//88
f 65//65 89//89 66//66
f 65//65 88//88 89//89
f 66//66 89//89 90//90
f 66//66 90//90 91//91
f 66//66 91//91 67//67
f 67//67 91//91 68//68
f 68//68 91//91 92//92
f 68//68 92//92 69//69
f 69//69 92//92 93//93
f 69//69 93//93 70//70
f 70//70 93//93 94//94
f 70//70 94//94 95//95
f 70//70 95//95 96//96
f 70//70 96//96 71//71
f 71//71 96//96 97//97
f 71//71 97//97 74//74
f 71//71 74//74 73//73
f 71//71 73//73 72//72
f 74//74 97//97 77//77
f 77//77 98//98 99//99
f 77//77 99//99 100//100
f 77//77 100//100 78//78
f 77//77 97//97 98//98
f 78//78 100//100 79//79
f 79//79 81//81 80//80
f 82//82 83//83 102//102
f 82//82 102//102 101//101
f 84//84 103//103 85//85
f 85//85 103//103 104//104
f 85//85 104//104 105//105
f 85//85 105//105 86//86
f 86//86 105//105 106//106
f 86//86 106//106 88//88
f 88//88 106//106 107//107
f 88//88 107//107 108//108
f 88//88 108//108 90//90
f 88//88 90//90 89//89
f 90//90 109//109 110//110
f 90//90 110//110 111//111
f 90//90 111//111 91//91
f 90//90 108//108 109//109
f 91//91 111//111 112//112
f 91//91 112//112 92//92
f 92//92 112//112 93//93
f 93//93 112//112 113//113
f 93//93 113//113 94//94
f 94//94 113//113 114//114
f 94//94 114//114 95//95
f 95//95 115//115 116//116
f 95//95 116//116 117//117
f 95//95 117//117 96//96
f 95//95 114//114 115//115
f 96//96 117//117 118//118
f 96//96 118//118 97//97
f 97//97 118//118 98//98
f 98//98 118//118 119//119
f 98//98 119//119 120//120
f 98//98 120//120 99//99
f 99//99 120//120 100//100
f 101//101 102//102 121//121
f 102//102 122//122 121//121
f 103//103 123//123 104//104
f 104//104 123//123 124//124
f 104//104 124//124 125//125
f 104//104 125//125 105//105
f 105//105 125//125 106//106
f 106//106 126//126 127//127
f 106//106 127//127 107//107
f 106//106 125//125 126//126
f 107//107 128//128 108//108
f 107//107 127//127 129//129
f 107//107 129//129 128//128
f 108//108 128//128 109//109
f 109//109 130//130 110//110
f 109//109 128//128 130//130
f 110//110 130//130 131//131
f 110//110 131//131 114//114
f 110//110 114//114 113//113
f 110//110 113//113 112//112
f 110//110 112//112 111//111
f 114//114 131//131 132//132
f 114//114 132//132 115//115
f 115//115 132//132 133//133
f 115//115 133//133 134//134
f 115//115 134//134 135//135
f 115//115 135//135 116//116
f 116//116 135//135 136//136
f 116//116 136//136 137//137
f 116//116 137//137 119//119
f 116//116 119//119 117//117
f 117//117 119//119 118//118
f 119//119 138//138 139//139
f 119//119 139//139 120//120
f 119//119 137//137 136//136
f 119//119 136//136 138//138
f 121//121 122//122 141//141
f 121//121 141//141 142//142
f 121//121 142//142 143//143
f 121//121 143//143 144//144
f 121//121 144//144 140//140
f 122//122 145//145 141//141
f 123//123 146//146 124//124
f 124//124 147//147 148//148
f 124//124 148//148 125//125
f 124//124 146//146 149//149
f 124//124 149//149 147//147
f 125//125 148//148 126//126
f 126//126 129//129 127//127
f 126//126 148//148 150//150
f 126//126 150//150 129//129
f 128//128 129//129 151//151
f 128//128 151//151 130//130
f 129//129 144//144 151//151
f 129//129 150//150 144//144
f 130//130 152//152 131//131
f 130//130 151//151 153//153
f 130//130 153//153 154//154
f 130//130 154//154 155//155
f 130//130 155//155 152//152
f 131//131 152//152 132//132
f 132//132 152//152 167//167
f 132//132 167//167 156//156
f 132//132 156//156 134//134
f 132//132 134//134 133//133
f 134//134 157//157 136//136
f 134//134 136//136 135//135
f 134//134 156//156 157//157
f 136//136 157//157 138//138
f 138//138 157//157 158//158
f 140//140 144//144 159//159
f 140//140 159//159 150//150
f 140//140 150//150 160//160
f 140//140 160//160 161//161
f 141//141 145//145 162//162
f 141//141 162//162 163//163
f 141//141 163//163 154//154
f 141//141 154//154 164//164
f 141//141 164//164 142//142
f 142//142 164//164 154//154
f 142//142 154//154 153//153
f 142//142 153//153 143//143
f 143//143 153//153 144//144
f 144//144 153//153 151//151
f 144//144 150//150 159//159
f 147//147 149//149 165//165
f 147//147 165//165 161//161
f 147//147 161//161 160//160
f 147//147 160//160 148//148
f 148//148 160//160 150//150
f 152//152 155//155 166//166
f 152//152 166//166 167//167
f 154//154 163//163 155//155
f 155//155 163//163 168//168
f 155//155 168//168 166//166
f 156//156 169//169 157//157
f 156//156 167//167 169//169
f 157//157 169//169 170//170
f 157//157 170//170 158//158
f 158//158 170//170 171//171
f 162//162 172//172 168//168
f 162//162 168//168 163//163
f 166//166 168//168 173//173
f 166//166 173//173 167//167
f 167//167 173//173 169//169
f 168//168 172//172 174//174
f 168//168 174//174 173//173
f 169//169 173//173 174//174
f 169//169 174//174 175//175
f 169//169 175//175 171//171
f 169//169 171//171 170//170
