o link_3_19
v 0.252387 0.510456 0.206354
v 0.252376 0.510456 0.206376
v 0.252420 0.510447 0.206376
v 0.246142 0.510456 0.192346
v 0.228367 0.510456 0.206376
v 0.251952 0.505353 0.206376
v 0.253132 0.490109 0.192346
v 0.251309 0.496264 0.192346
v 0.227119 0.510456 0.192346
v 0.227590 0.510456 0.203663
v 0.228503 0.509875 0.206376
v 0.250792 0.500637 0.206376
v 0.252659 0.488834 0.192346
v 0.227346 0.509875 0.192346
v 0.226891 0.510456 0.194010
v 0.227428 0.510456 0.203062
v 0.227562 0.509875 0.203084
v 0.229856 0.505794 0.206376
v 0.249583 0.497542 0.206376
v 0.251319 0.487019 0.192346
v 0.227117 0.509875 0.194010
v 0.229565 0.505467 0.192346
v 0.229499 0.505068 0.194152
v 0.227029 0.509875 0.198547
v 0.226860 0.510456 0.198547
v 0.229535 0.504930 0.203356
v 0.230404 0.504189 0.206376
v 0.249439 0.497416 0.206376
v 0.249503 0.488834 0.196983
v 0.250841 0.486596 0.192346
v 0.228989 0.505336 0.198547
v 0.232919 0.499597 0.192346
v 0.230473 0.502928 0.195759
v 0.230417 0.502832 0.202023
v 0.230607 0.503148 0.205049
v 0.230687 0.503526 0.206376
v 0.246697 0.495615 0.206376
v 0.245226 0.495000 0.206376
v 0.244362 0.493921 0.205454
v 0.246448 0.488399 0.197675
v 0.246448 0.486596 0.195232
v 0.246975 0.486596 0.195011
v 0.250203 0.486596 0.192995
v 0.241973 0.486596 0.192346
v 0.230383 0.502788 0.198547
v 0.236409 0.493973 0.192346
v 0.231736 0.501113 0.203356
v 0.238626 0.490574 0.192346
v 0.232320 0.500891 0.206376
v 0.241911 0.494367 0.206376
v 0.240298 0.494391 0.206376
v 0.239429 0.493870 0.205574
v 0.242559 0.486596 0.193242
v 0.242235 0.486596 0.192795
v 0.234537 0.497922 0.206376
v 0.239591 0.489371 0.192346
v 0.234267 0.497640 0.203084
v 0.233030 0.499931 0.206376
v 0.238624 0.494814 0.206376
vn 0.000212 1.000000 -0.000094
vn 0.000000 0.000896 1.000000
vn 0.929123 0.238979 -0.282170
vn 0.209239 0.356303 -0.910641
vn -0.023576 0.976234 0.215431
vn 0.947315 -0.157212 0.279066
vn 0.998473 -0.016088 -0.052852
vn 0.871017 0.299254 -0.389585
vn -0.006218 0.999317 -0.036414
vn -0.048727 0.998716 0.013868
vn -0.143023 -0.044581 0.988715
vn 0.865315 -0.270655 0.421872
vn 0.889087 -0.434403 -0.144286
vn -0.170204 -0.084273 -0.981799
vn -0.039219 0.999230 -0.001268
vn -0.023871 0.999709 0.003408
vn -0.926916 -0.331439 0.175997
vn -0.130385 -0.043590 0.990505
vn 0.746263 -0.435771 0.503186
vn 0.762645 -0.577696 -0.290928
vn -0.905462 -0.420110 -0.060378
vn -0.091801 -0.049784 -0.994532
vn -0.879691 -0.463071 -0.108209
vn -0.924609 -0.377241 0.052795
vn -0.035144 0.999378 0.002767
vn -0.915939 -0.386420 0.108329
vn -0.343120 -0.130576 0.930171
vn 0.276167 -0.413567 0.867580
vn 0.414932 -0.701105 0.579899
vn 0.015194 -0.149664 -0.988620
vn -0.902704 -0.430195 -0.007647
vn -0.178857 -0.106281 -0.978118
vn -0.855410 -0.511615 -0.080768
vn -0.837656 -0.544663 0.040920
vn -0.853704 -0.504337 0.129746
vn -0.097660 -0.049484 0.993989
vn 0.236996 -0.413396 0.879168
vn 0.113873 -0.304865 0.945564
vn 0.176445 -0.774314 0.607704
vn 0.221924 -0.770577 0.597462
vn -0.058624 -0.878162 0.474758
vn 0.287338 -0.827557 0.482272
vn 0.335082 -0.807075 0.486159
vn -0.318487 -0.370549 -0.872502
vn -0.839966 -0.542383 -0.016675
vn -0.324972 -0.207208 -0.922745
vn -0.808808 -0.583648 0.072009
vn -0.724203 -0.514464 -0.459191
vn -0.131887 -0.088939 0.987267
vn 0.021989 -0.386379 0.922078
vn -0.011808 -0.382988 0.923678
vn -0.405956 -0.823300 0.396707
vn -0.195343 -0.920733 0.337776
vn -0.332491 -0.917626 0.217743
vn -0.454851 -0.472860 0.754661
vn -0.581089 -0.490619 -0.649330
vn -0.786821 -0.610276 0.092068
vn -0.232557 -0.172794 0.957110
vn -0.020035 -0.032682 0.999265
f 1//1 2//2 3//3
f 1//1 3//3 4//4
f 1//1 4//4 9//9
f 1//1 9//9 15//15
f 1//1 15//15 25//25
f 1//1 25//25 16//16
f 1//1 16//16 10//10
f 1//1 10//10 5//5
f 1//1 5//5 2//2
f 2//2 5//5 11//11
f 2//2 11//11 18//18
f 2//2 18//18 27//27
f 2//2 27//27 36//36
f 2//2 36//36 49//49
f 2//2 49//49 58//58
f 2//2 58//58 55//55
f 2//2 55//55 59//59
f 2//2 59//59 51//51
f 2//2 51//51 50//50
f 2//2 50//50 38//38
f 2//2 38//38 37//37
f 2//2 37//37 28//28
f 2//2 28//28 19//19
f 2//2 19//19 12//12
f 2//2 12//12 6//6
f 2//2 6//6 3//3
f 3//3 6//6 7//7
f 3//3 7//7 8//8
f 3//3 8//8 4//4
f 4//4 8//8 7//7
f 4//4 7//7 13//13
f 4//4 13//13 20//20
f 4//4 20//20 30//30
f 4//4 30//30 44//44
f 4//4 44//44 56//56
f 4//4 56//56 48//48
f 4//4 48//48 46//46
f 4//4 46//46 32//32
f 4//4 32//32 22//22
f 4//4 22//22 14//14
f 4//4 14//14 9//9
f 5//5 10//10 11//11
f 6//6 12//12 7//7
f 7//7 12//12 13//13
f 9//9 14//14 21//21
f 9//9 21//21 15//15
f 10//10 16//16 17//17
f 10//10 17//17 11//11
f 11//11 17//17 18//18
f 12//12 19//19 13//13
f 13//13 19//19 20//20
f 14//14 22//22 23//23
f 14//14 23//23 21//21
f 15//15 24//24 25//25
f 15//15 21//21 24//24
f 16//16 25//25 17//17
f 17//17 25//25 24//24
f 17//17 24//24 26//26
f 17//17 26//26 27//27
f 17//17 27//27 18//18
f 19//19 28//28 29//29
f 19//19 29//29 20//20
f 20//20 29//29 30//30
f 21//21 23//23 31//31
f 21//21 31//31 24//24
f 22//22 32//32 23//23
f 23//23 32//32 33//33
f 23//23 33//33 31//31
f 24//24 31//31 26//26
f 26//26 31//31 34//34
f 26//26 34//34 35//35
f 26//26 35//35 36//36
f 26//26 36//36 27//27
f 28//28 37//37 29//29
f 29//29 37//37 38//38
f 29//29 38//38 39//39
f 29//29 39//39 40//40
f 29//29 40//40 41//41
f 29//29 41//41 42//42
f 29//29 42//42 43//43
f 29//29 43//43 30//30
f 30//30 43//43 42//42
f 30//30 42//42 41//41
f 30//30 41//41 53//53
f 30//30 53//53 54//54
f 30//30 54//54 44//44
f 31//31 33//33 45//45
f 31//31 45//45 34//34
f 32//32 46//46 33//33
f 33//33 46//46 45//45
f 34//34 47//47 35//35
f 34//34 45//45 48//48
f 34//34 48//48 47//47
f 35//35 47//47 49//49
f 35//35 49//49 36//36
f 38//38 50//50 39//39
f 39//39 41//41 40//40
f 39//39 50//50 41//41
f 41//41 50//50 51//51
f 41//41 51//51 52//52
f 41//41 52//52 53//53
f 44//44 54//54 52//52
f 44//44 52//52 55//55
f 44//44 55//55 56//56
f 45//45 46//46 48//48
f 47//47 48//48 57//57
f 47//47 57//57 58//58
f 47//47 58//58 49//49
f 48//48 56//56 57//57
f 51//51 59//59 52//52
f 52//52 59//59 55//55
f 52//52 54//54 53//53
f 55//55 58//58 57//57
f 55//55 57//57 56//56
