o link_3_13
v 0.264422 0.314752 -0.032045
v 0.264493 0.311043 -0.032045
v 0.264424 0.315586 -0.032045
v 0.265514 0.303733 -0.039358
v 0.265798 0.299196 -0.039358
v 0.266059 0.296603 -0.039358
v 0.266835 0.289845 -0.039358
v 0.264595 0.310215 -0.032045
v 0.265142 0.319526 -0.032045
v 0.266276 0.312272 -0.039358
v 0.265627 0.308270 -0.039358
v 0.266850 0.289721 -0.039358
v 0.265105 0.306506 -0.032045
v 0.265349 0.320631 -0.032045
v 0.265594 0.319605 -0.033239
v 0.266085 0.323100 -0.032045
v 0.266417 0.318303 -0.035764
v 0.266581 0.313123 -0.039358
v 0.266877 0.289541 -0.039358
v 0.267359 0.287900 -0.037742
v 0.268273 0.287528 -0.032879
v 0.268404 0.288363 -0.032045
v 0.266261 0.323629 -0.032045
v 0.267132 0.321324 -0.034991
v 0.269220 0.316917 -0.039358
v 0.268520 0.282991 -0.039358
v 0.268518 0.282991 -0.037416
v 0.269283 0.282991 -0.032879
v 0.268598 0.287478 -0.032045
v 0.267608 0.325185 -0.032045
v 0.270503 0.317925 -0.039358
v 0.269196 0.281052 -0.039358
v 0.270688 0.276864 -0.039358
v 0.269607 0.282991 -0.032045
v 0.269438 0.283707 -0.032045
v 0.270743 0.279683 -0.032879
v 0.270897 0.279925 -0.032045
v 0.269031 0.325529 -0.032045
v 0.270159 0.322074 -0.035709
v 0.273747 0.318399 -0.039358
v 0.273905 0.272378 -0.039358
v 0.272713 0.277411 -0.032879
v 0.273005 0.277727 -0.032045
v 0.273058 0.325168 -0.032045
v 0.272533 0.322074 -0.035709
v 0.275688 0.318134 -0.039358
v 0.278212 0.269379 -0.039358
v 0.275253 0.275692 -0.032045
v 0.274312 0.324424 -0.032045
v 0.276633 0.317644 -0.039358
v 0.279800 0.268709 -0.039358
v 0.278212 0.274649 -0.032045
v 0.276409 0.322801 -0.032045
v 0.280507 0.314003 -0.039358
v 0.277074 0.322249 -0.032045
v 0.282750 0.267948 -0.039358
v 0.282750 0.274407 -0.032045
v 0.280362 0.316883 -0.034828
v 0.281143 0.313253 -0.039358
v 0.278979 0.319853 -0.032045
v 0.284131 0.268145 -0.039358
v 0.283631 0.274593 -0.032045
v 0.287137 0.268737 -0.039358
v 0.280469 0.317948 -0.032045
v 0.280983 0.317193 -0.032045
v 0.285750 0.306427 -0.039358
v 0.281501 0.313867 -0.037416
v 0.286459 0.275258 -0.032045
v 0.287137 0.275641 -0.032045
v 0.287137 0.303124 -0.039358
v 0.281954 0.315040 -0.032045
v 0.287131 0.303198 -0.039358
v 0.287137 0.302865 -0.032045
vn -0.018866 -0.000286 0.999822
vn -0.996063 -0.080774 -0.036526
vn -0.960902 0.107042 -0.255360
vn -0.056908 -0.001003 -0.998379
vn -0.995121 -0.076026 -0.062876
vn -0.993510 -0.110092 -0.028598
vn -0.993191 -0.115133 -0.017780
vn -0.983320 -0.132271 0.124847
vn -0.939342 0.172239 -0.296597
vn -0.904039 0.190104 -0.382849
vn -0.955961 0.085378 -0.280802
vn -0.988302 -0.135801 0.069399
vn -0.955985 -0.159159 0.246496
vn -0.953280 0.217005 -0.210159
vn -0.874558 0.260716 -0.408870
vn -0.900425 0.279755 -0.333125
vn -0.825714 0.305293 -0.474333
vn -0.464085 0.268537 -0.844105
vn -0.973159 -0.183810 -0.138477
vn -0.971154 -0.180711 0.155571
vn -0.964979 -0.178413 0.192312
vn -0.584534 -0.107304 0.804242
vn -0.879260 0.476315 -0.005003
vn -0.568554 0.473092 -0.673002
vn -0.313289 0.255883 -0.914535
vn -0.581895 -0.158979 -0.797574
vn -0.950006 -0.294581 0.103492
vn -0.934127 -0.304516 0.186219
vn -0.545439 -0.121239 0.829335
vn -0.467668 0.826779 -0.312608
vn -0.152551 0.339884 -0.928012
vn -0.404732 -0.143210 -0.903152
vn -0.745012 -0.383905 -0.545503
vn -0.111961 -0.043179 0.992774
vn -0.341502 -0.076837 0.936735
vn -0.830324 -0.505230 0.235168
vn -0.237394 -0.184431 0.953745
vn 0.001425 0.659777 0.751460
vn -0.109288 0.679288 -0.725689
vn -0.007106 0.257591 -0.966228
vn -0.478676 -0.485907 -0.731276
vn -0.638200 -0.656730 0.401754
vn -0.027630 -0.028432 0.999214
vn 0.249420 0.819206 0.516421
vn 0.075816 0.735482 -0.673289
vn 0.097890 0.349456 -0.931825
vn -0.192846 -0.309795 -0.931041
vn -0.210086 -0.343027 0.915531
vn 0.354131 0.501262 0.789511
vn 0.288763 0.361774 -0.886417
vn -0.158835 -0.481287 -0.862053
vn -0.042363 -0.216333 0.975400
vn 0.369428 0.468923 0.802268
vn 0.296553 0.292608 -0.909086
vn 0.680956 0.672803 0.289197
vn -0.052776 -0.580761 -0.812361
vn 0.018458 -0.247009 0.968837
vn 0.772488 0.566127 -0.287686
vn 0.116944 0.083659 -0.989609
vn 0.154797 0.122212 0.980358
vn 0.039541 -0.219833 -0.974736
vn 0.032414 -0.141250 0.989443
vn 0.495002 -0.057688 -0.866975
vn 0.155561 0.117144 0.980856
vn 0.671407 0.388323 0.631204
vn 0.359798 0.202497 -0.910791
vn 0.792708 0.535051 -0.292120
vn 0.040979 -0.137065 0.989714
vn 0.293202 -0.007202 0.956023
vn 0.320381 0.000062 -0.947289
vn 0.441878 0.189649 0.876800
vn 0.803737 0.341196 -0.487435
vn 0.542762 0.038137 0.839020
f 1//1 2//2 8//8
f 1//1 8//8 13//13
f 1//1 13//13 22//22
f 1//1 22//22 29//29
f 1//1 29//29 35//35
f 1//1 35//35 34//34
f 1//1 34//34 37//37
f 1//1 37//37 43//43
f 1//1 43//43 48//48
f 1//1 48//48 52//52
f 1//1 52//52 57//57
f 1//1 57//57 62//62
f 1//1 62//62 68//68
f 1//1 68//68 69//69
f 1//1 69//69 73//73
f 1//1 73//73 71//71
f 1//1 71//71 65//65
f 1//1 65//65 64//64
f 1//1 64//64 60//60
f 1//1 60//60 55//55
f 1//1 55//55 53//53
f 1//1 53//53 49//49
f 1//1 49//49 44//44
f 1//1 44//44 38//38
f 1//1 38//38 30//30
f 1//1 30//30 23//23
f 1//1 23//23 16//16
f 1//1 16//16 14//14
f 1//1 14//14 9//9
f 1//1 9//9 3//3
f 1//1 3//3 4//4
f 1//1 4//4 2//2
f 2//2 4//4 5//5
f 2//2 5//5 6//6
f 2//2 6//6 7//7
f 2//2 7//7 8//8
f 3//3 9//9 10//10
f 3//3 10//10 11//11
f 3//3 11//11 4//4
f 4//4 11//11 10//10
f 4//4 10//10 18//18
f 4//4 18//18 25//25
f 4//4 25//25 31//31
f 4//4 31//31 40//40
f 4//4 40//40 46//46
f 4//4 46//46 50//50
f 4//4 50//50 54//54
f 4//4 54//54 59//59
f 4//4 59//59 66//66
f 4//4 66//66 72//72
f 4//4 72//72 70//70
f 4//4 70//70 63//63
f 4//4 63//63 61//61
f 4//4 61//61 56//56
f 4//4 56//56 51//51
f 4//4 51//51 47//47
f 4//4 47//47 41//41
f 4//4 41//41 33//33
f 4//4 33//33 32//32
f 4//4 32//32 26//26
f 4//4 26//26 19//19
f 4//4 19//19 12//12
f 4//4 12//12 7//7
f 4//4 7//7 6//6
f 4//4 6//6 5//5
f 7//7 12//12 8//8
f 8//8 12//12 13//13
f 9//9 14//14 10//10
f 10//10 14//14 15//15
f 10//10 15//15 16//16
f 10//10 16//16 17//17
f 10//10 17//17 18//18
f 12//12 19//19 13//13
f 13//13 19//19 20//20
f 13//13 20//20 21//21
f 13//13 21//21 22//22
f 14//14 16//16 15//15
f 16//16 23//23 17//17
f 17//17 23//23 24//24
f 17//17 24//24 18//18
f 18//18 24//24 25//25
f 19//19 26//26 27//27
f 19//19 27//27 20//20
f 20//20 27//27 28//28
f 20//20 28//28 21//21
f 21//21 28//28 29//29
f 21//21 29//29 22//22
f 23//23 30//30 24//24
f 24//24 30//30 31//31
f 24//24 31//31 25//25
f 26//26 32//32 27//27
f 27//27 32//32 33//33
f 27//27 33//33 28//28
f 28//28 34//34 35//35
f 28//28 35//35 29//29
f 28//28 33//33 36//36
f 28//28 36//36 37//37
f 28//28 37//37 34//34
f 30//30 38//38 39//39
f 30//30 39//39 31//31
f 31//31 39//39 40//40
f 33//33 41//41 36//36
f 36//36 41//41 37//37
f 37//37 41//41 42//42
f 37//37 42//42 43//43
f 38//38 44//44 45//45
f 38//38 45//45 39//39
f 39//39 45//45 40//40
f 40//40 45//45 46//46
f 41//41 47//47 48//48
f 41//41 48//48 42//42
f 42//42 48//48 43//43
f 44//44 49//49 50//50
f 44//44 50//50 46//46
f 44//44 46//46 45//45
f 47//47 51//51 48//48
f 48//48 51//51 52//52
f 49//49 53//53 50//50
f 50//50 53//53 55//55
f 50//50 55//55 54//54
f 51//51 56//56 52//52
f 52//52 56//56 57//57
f 54//54 58//58 59//59
f 54//54 55//55 58//58
f 55//55 60//60 58//58
f 56//56 61//61 57//57
f 57//57 61//61 63//63
f 57//57 63//63 62//62
f 58//58 64//64 65//65
f 58//58 65//65 66//66
f 58//58 66//66 67//67
f 58//58 67//67 59//59
f 58//58 60//60 64//64
f 59//59 67//67 66//66
f 62//62 63//63 68//68
f 63//63 69//69 68//68
f 63//63 70//70 73//73
f 63//63 73//73 69//69
f 65//65 71//71 66//66
f 66//66 71//71 72//72
f 70//70 72//72 73//73
f 71//71 73//73 72//72
