o link_2_15
v 0.287137 0.287901 -0.039358
v 0.287137 0.287901 -0.064754
v 0.267307 0.287901 -0.039358
v 0.287137 0.268737 -0.039358
v 0.287137 0.287526 -0.064775
v 0.283658 0.287526 -0.066380
v 0.283317 0.287901 -0.066484
v 0.267359 0.287674 -0.039358
v 0.267296 0.287901 -0.039667
v 0.264218 0.285242 -0.063203
v 0.264218 0.284127 -0.059717
v 0.264218 0.281624 -0.056896
v 0.264218 0.281457 -0.056726
v 0.264218 0.278876 -0.054276
v 0.264218 0.276986 -0.052668
v 0.264218 0.274338 -0.050728
v 0.264218 0.271569 -0.048827
v 0.264218 0.269023 -0.047428
v 0.264218 0.264679 -0.045653
v 0.264218 0.264060 -0.045440
v 0.264218 0.260612 -0.044658
v 0.264218 0.260304 -0.044635
v 0.284131 0.268142 -0.039358
v 0.271635 0.257935 -0.044134
v 0.287137 0.267561 -0.040571
v 0.287137 0.284969 -0.063733
v 0.282498 0.283189 -0.065502
v 0.280817 0.284835 -0.067059
v 0.281389 0.287526 -0.067149
v 0.281385 0.287901 -0.067137
v 0.268521 0.282987 -0.039358
v 0.267224 0.287901 -0.041955
v 0.264218 0.285231 -0.064640
v 0.264218 0.256009 -0.045290
v 0.266268 0.257730 -0.044087
v 0.282751 0.267951 -0.039358
v 0.269140 0.257733 -0.044054
v 0.264218 0.252451 -0.047608
v 0.264601 0.252564 -0.047617
v 0.281279 0.262159 -0.043787
v 0.287137 0.266035 -0.042763
v 0.287137 0.283387 -0.063086
v 0.279583 0.281811 -0.066457
v 0.276559 0.280101 -0.067194
v 0.278127 0.283189 -0.067595
v 0.273678 0.282987 -0.068640
v 0.278278 0.287901 -0.067481
v 0.269196 0.281047 -0.039358
v 0.267231 0.287901 -0.042709
v 0.267435 0.287901 -0.046503
v 0.265600 0.286109 -0.064640
v 0.268467 0.287901 -0.064712
v 0.266434 0.285504 -0.067188
v 0.264218 0.282912 -0.068236
v 0.264218 0.255563 -0.045464
v 0.279801 0.268708 -0.039358
v 0.278213 0.269378 -0.039358
v 0.273905 0.272376 -0.039358
v 0.270688 0.276858 -0.039358
v 0.264218 0.252292 -0.047955
v 0.267309 0.253248 -0.048339
v 0.281670 0.261865 -0.046494
v 0.287137 0.265958 -0.042949
v 0.287039 0.283323 -0.063110
v 0.287137 0.283231 -0.063002
v 0.285358 0.280395 -0.062568
v 0.278127 0.278533 -0.065577
v 0.275135 0.277074 -0.066463
v 0.272108 0.275481 -0.067272
v 0.273645 0.278533 -0.067760
v 0.264218 0.269427 -0.068185
v 0.264218 0.273913 -0.069691
v 0.264601 0.278452 -0.069904
v 0.264218 0.278437 -0.069949
v 0.277620 0.287901 -0.067544
v 0.277869 0.287901 -0.067526
v 0.269174 0.287901 -0.065308
v 0.269140 0.286187 -0.067526
v 0.264794 0.283097 -0.068260
v 0.264218 0.251736 -0.051297
v 0.267309 0.253248 -0.050063
v 0.283938 0.263295 -0.046494
v 0.287137 0.265412 -0.046587
v 0.287137 0.278604 -0.060322
v 0.280790 0.275881 -0.062562
v 0.270616 0.272458 -0.066442
v 0.267592 0.270949 -0.067302
v 0.264550 0.269416 -0.068026
v 0.264218 0.268793 -0.067868
v 0.273678 0.287104 -0.067847
v 0.273678 0.287901 -0.067350
v 0.264218 0.251884 -0.052073
v 0.265016 0.252185 -0.051360
v 0.266804 0.253541 -0.053091
v 0.281268 0.262045 -0.049710
v 0.287137 0.265869 -0.047797
v 0.287137 0.278398 -0.060190
v 0.286204 0.275127 -0.058588
v 0.279197 0.272858 -0.061547
v 0.276173 0.271434 -0.062514
v 0.266026 0.267926 -0.066398
v 0.264218 0.265260 -0.065727
v 0.264218 0.253354 -0.055567
v 0.271920 0.257662 -0.053710
v 0.279947 0.263019 -0.052734
v 0.286282 0.266156 -0.050030
v 0.287137 0.267583 -0.050884
v 0.287137 0.277966 -0.059900
v 0.287137 0.274157 -0.057139
v 0.284515 0.272104 -0.057462
v 0.281490 0.270755 -0.058522
v 0.271529 0.267002 -0.062448
v 0.264218 0.264343 -0.065131
v 0.264218 0.255959 -0.058699
v 0.265694 0.254423 -0.055567
v 0.276923 0.261790 -0.054073
v 0.284755 0.267342 -0.053058
v 0.287137 0.268485 -0.051983
v 0.287137 0.273130 -0.056330
v 0.286480 0.270362 -0.054441
v 0.279756 0.267731 -0.057307
v 0.267228 0.257715 -0.058124
v 0.264218 0.259479 -0.061726
v 0.266822 0.262615 -0.062340
v 0.264218 0.262502 -0.063879
v 0.264218 0.256062 -0.058819
v 0.281728 0.266046 -0.054285
v 0.287137 0.269661 -0.053142
v 0.287137 0.271817 -0.055193
v 0.264218 0.260810 -0.062688
vn 0.561989 0.712896 0.419461
vn 0.110113 0.993525 -0.027979
vn -0.977392 0.128300 0.168057
vn 0.305860 -0.302134 0.902865
vn 0.921658 -0.126848 -0.366682
vn 0.381285 -0.122603 -0.916292
vn 0.008039 0.999759 -0.020448
vn -0.174540 -0.043110 0.983706
vn -0.119144 0.992870 0.003810
vn -0.999810 0.019227 0.003308
vn -0.977058 0.184728 0.105991
vn -0.985367 0.127173 0.113486
vn -0.987158 0.110250 0.115605
vn -0.987613 0.105438 0.116201
vn -0.988751 0.092119 0.117833
vn -0.989339 0.084247 0.118787
vn -0.989981 0.074487 0.119959
vn -0.990921 0.056257 0.122113
vn -0.991193 0.049242 0.122931
vn -0.991676 0.030566 0.125076
vn -0.991730 0.026909 0.125491
vn -0.806004 -0.081547 0.586266
vn 0.030990 -0.172935 0.984446
vn 0.206280 -0.649950 0.731446
vn 0.748736 -0.492842 0.443285
vn 0.984433 -0.066404 -0.162732
vn 0.442906 -0.341456 -0.829000
vn 0.392773 -0.264285 -0.880842
vn 0.248653 -0.067084 -0.966267
vn 0.017736 0.990369 -0.137310
vn -0.225732 -0.067007 0.971882
vn -0.159210 0.987243 0.001920
vn -0.585459 0.799030 -0.137068
vn -0.996238 -0.014936 0.085368
vn -0.236259 -0.219081 0.946670
vn -0.006057 -0.231149 0.972899
vn 0.028213 -0.500136 0.865487
vn -0.964396 -0.157401 0.212522
vn 0.323349 -0.781141 0.534101
vn 0.393569 -0.804391 0.445038
vn 0.955014 -0.245851 0.165845
vn 0.960069 -0.110703 -0.256928
vn 0.433458 -0.390693 -0.812079
vn 0.362571 -0.322369 -0.874426
vn 0.270376 -0.174964 -0.946723
vn 0.163480 -0.007841 -0.986515
vn 0.019276 0.984542 -0.174085
vn -0.148054 -0.052357 0.987592
vn -0.110127 0.993904 -0.005107
vn -0.108922 0.994032 -0.006049
vn -0.532086 0.846153 -0.030156
vn -0.088339 0.995927 -0.018023
vn -0.443165 0.735914 -0.511893
vn -0.848489 0.358422 -0.389357
vn -0.979864 -0.109892 0.166707
vn -0.040102 -0.127564 0.991019
vn -0.067599 -0.108663 0.991778
vn -0.091533 -0.092070 0.991537
vn -0.125606 -0.068220 0.989732
vn -0.995764 -0.090276 0.017467
vn 0.449932 -0.869359 0.204392
vn 0.510975 -0.853829 0.099403
vn 0.941674 -0.330860 0.061491
vn 0.441816 -0.401650 -0.802169
vn 0.997229 -0.037216 -0.064407
vn 0.449713 -0.434678 -0.780265
vn 0.438066 -0.410407 -0.799790
vn 0.438203 -0.426248 -0.791386
vn 0.402176 -0.382797 -0.831698
vn 0.329076 -0.294157 -0.897319
vn -0.388969 -0.301414 -0.870547
vn -0.251253 -0.189850 -0.949120
vn 0.163193 -0.056060 -0.985000
vn -0.457419 0.226304 -0.859974
vn 0.015988 0.912117 -0.409618
vn 0.016538 0.984806 -0.172871
vn -0.034722 0.996988 -0.069344
vn -0.224880 0.625294 -0.747286
vn -0.124857 0.367386 -0.921650
vn -0.991780 -0.127534 0.010349
vn 0.522699 -0.845524 -0.108977
vn 0.538632 -0.840675 -0.056052
vn 0.974850 -0.221994 -0.019640
vn 0.978637 -0.107885 -0.175014
vn 0.456675 -0.473233 -0.753325
vn 0.443488 -0.443908 -0.778629
vn 0.437168 -0.446519 -0.780708
vn 0.394105 -0.390861 -0.831811
vn -0.949857 -0.157520 -0.270110
vn -0.073238 0.331999 -0.940432
vn -0.015523 0.998554 -0.051470
vn -0.993926 -0.103463 -0.037506
vn 0.485415 -0.858694 -0.164367
vn 0.518610 -0.794758 -0.315285
vn 0.545472 -0.788032 -0.285422
vn 0.984719 -0.160054 -0.068634
vn 0.779620 -0.348726 -0.520175
vn 0.476229 -0.507832 -0.717853
vn 0.468862 -0.498372 -0.729242
vn 0.456401 -0.485585 -0.745591
vn 0.447783 -0.476896 -0.756347
vn -0.988447 -0.079399 -0.129107
vn -0.975422 -0.186715 -0.117004
vn 0.522312 -0.704386 -0.480656
vn 0.534100 -0.679183 -0.503435
vn 0.566963 -0.686682 -0.454995
vn 0.995776 -0.073655 -0.054821
vn 0.999183 -0.023606 -0.032813
vn 0.995593 -0.056995 -0.074468
vn 0.489457 -0.552898 -0.674341
vn 0.477644 -0.530424 -0.700362
vn 0.464253 -0.506502 -0.726585
vn -0.443442 -0.497224 -0.745739
vn -0.971849 -0.180540 -0.151375
vn 0.505044 -0.666670 -0.548162
vn 0.510092 -0.643797 -0.570378
vn 0.524947 -0.616205 -0.587130
vn 0.988713 -0.108354 -0.103469
vn 0.985158 -0.110768 -0.131124
vn 0.506186 -0.573854 -0.643792
vn 0.499100 -0.569595 -0.653040
vn 0.497088 -0.588310 -0.637804
vn -0.035943 -0.626490 -0.778600
vn 0.471180 -0.525473 -0.708426
vn -0.754933 -0.371628 -0.540341
vn -0.977957 -0.136171 -0.158295
vn 0.503826 -0.580747 -0.639447
vn 0.999593 -0.019796 -0.020546
vn 0.999591 -0.019355 -0.021058
vn -0.978715 -0.119038 -0.167172
f 1//1 2//2 7//7
f 1//1 7//7 30//30
f 1//1 30//30 47//47
f 1//1 47//47 76//76
f 1//1 76//76 75//75
f 1//1 75//75 91//91
f 1//1 91//91 77//77
f 1//1 77//77 52//52
f 1//1 52//52 50//50
f 1//1 50//50 49//49
f 1//1 49//49 32//32
f 1//1 32//32 9//9
f 1//1 9//9 3//3
f 1//1 3//3 8//8
f 1//1 8//8 31//31
f 1//1 31//31 48//48
f 1//1 48//48 59//59
f 1//1 59//59 58//58
f 1//1 58//58 57//57
f 1//1 57//57 56//56
f 1//1 56//56 36//36
f 1//1 36//36 23//23
f 1//1 23//23 4//4
f 1//1 4//4 25//25
f 1//1 25//25 41//41
f 1//1 41//41 63//63
f 1//1 63//63 83//83
f 1//1 83//83 96//96
f 1//1 96//96 107//107
f 1//1 107//107 118//118
f 1//1 118//118 128//128
f 1//1 128//128 129//129
f 1//1 129//129 119//119
f 1//1 119//119 109//109
f 1//1 109//109 108//108
f 1//1 108//108 97//97
f 1//1 97//97 84//84
f 1//1 84//84 65//65
f 1//1 65//65 42//42
f 1//1 42//42 26//26
f 1//1 26//26 5//5
f 1//1 5//5 2//2
f 2//2 5//5 6//6
f 2//2 6//6 7//7
f 3//3 9//9 10//10
f 3//3 10//10 11//11
f 3//3 11//11 12//12
f 3//3 12//12 13//13
f 3//3 13//13 14//14
f 3//3 14//14 15//15
f 3//3 15//15 16//16
f 3//3 16//16 17//17
f 3//3 17//17 18//18
f 3//3 18//18 19//19
f 3//3 19//19 20//20
f 3//3 20//20 21//21
f 3//3 21//21 22//22
f 3//3 22//22 8//8
f 4//4 23//23 24//24
f 4//4 24//24 25//25
f 5//5 26//26 27//27
f 5//5 27//27 28//28
f 5//5 28//28 6//6
f 6//6 28//28 29//29
f 6//6 29//29 7//7
f 7//7 29//29 30//30
f 8//8 22//22 31//31
f 9//9 32//32 10//10
f 10//10 33//33 54//54
f 10//10 54//54 74//74
f 10//10 74//74 72//72
f 10//10 72//72 71//71
f 10//10 71//71 89//89
f 10//10 89//89 102//102
f 10//10 102//102 113//113
f 10//10 113//113 125//125
f 10//10 125//125 130//130
f 10//10 130//130 123//123
f 10//10 123//123 126//126
f 10//10 126//126 114//114
f 10//10 114//114 103//103
f 10//10 103//103 92//92
f 10//10 92//92 80//80
f 10//10 80//80 60//60
f 10//10 60//60 38//38
f 10//10 38//38 55//55
f 10//10 55//55 34//34
f 10//10 34//34 22//22
f 10//10 22//22 21//21
f 10//10 21//21 20//20
f 10//10 20//20 19//19
f 10//10 19//19 18//18
f 10//10 18//18 17//17
f 10//10 17//17 16//16
f 10//10 16//16 15//15
f 10//10 15//15 14//14
f 10//10 14//14 13//13
f 10//10 13//13 12//12
f 10//10 12//12 11//11
f 10//10 32//32 33//33
f 22//22 34//34 35//35
f 22//22 35//35 31//31
f 23//23 36//36 24//24
f 24//24 37//37 38//38
f 24//24 38//38 39//39
f 24//24 39//39 40//40
f 24//24 40//40 25//25
f 24//24 36//36 37//37
f 25//25 40//40 41//41
f 26//26 42//42 27//27
f 27//27 43//43 28//28
f 27//27 42//42 43//43
f 28//28 43//43 44//44
f 28//28 44//44 45//45
f 28//28 45//45 29//29
f 29//29 45//45 46//46
f 29//29 46//46 30//30
f 30//30 46//46 47//47
f 31//31 35//35 48//48
f 32//32 49//49 33//33
f 33//33 49//49 50//50
f 33//33 50//50 51//51
f 33//33 51//51 52//52
f 33//33 52//52 53//53
f 33//33 53//53 54//54
f 34//34 55//55 35//35
f 35//35 55//55 37//37
f 35//35 37//37 36//36
f 35//35 36//36 56//56
f 35//35 56//56 57//57
f 35//35 57//57 58//58
f 35//35 58//58 59//59
f 35//35 59//59 48//48
f 37//37 55//55 38//38
f 38//38 60//60 39//39
f 39//39 60//60 61//61
f 39//39 61//61 40//40
f 40//40 61//61 62//62
f 40//40 62//62 63//63
f 40//40 63//63 41//41
f 42//42 64//64 43//43
f 42//42 65//65 66//66
f 42//42 66//66 64//64
f 43//43 66//66 67//67
f 43//43 67//67 68//68
f 43//43 68//68 69//69
f 43//43 69//69 44//44
f 43//43 64//64 66//66
f 44//44 70//70 45//45
f 44//44 69//69 71//71
f 44//44 71//71 70//70
f 45//45 70//70 72//72
f 45//45 72//72 46//46
f 46//46 72//72 73//73
f 46//46 73//73 74//74
f 46//46 74//74 75//75
f 46//46 75//75 76//76
f 46//46 76//76 47//47
f 50//50 52//52 51//51
f 52//52 77//77 53//53
f 53//53 77//77 78//78
f 53//53 78//78 54//54
f 54//54 79//79 74//74
f 54//54 78//78 79//79
f 60//60 80//80 61//61
f 61//61 80//80 81//81
f 61//61 81//81 62//62
f 62//62 82//82 63//63
f 62//62 81//81 82//82
f 63//63 82//82 83//83
f 65//65 84//84 66//66
f 66//66 68//68 67//67
f 66//66 84//84 85//85
f 66//66 85//85 86//86
f 66//66 86//86 68//68
f 68//68 86//86 87//87
f 68//68 87//87 69//69
f 69//69 87//87 88//88
f 69//69 88//88 71//71
f 70//70 71//71 72//72
f 71//71 88//88 89//89
f 72//72 74//74 73//73
f 74//74 90//90 75//75
f 74//74 79//79 90//90
f 75//75 90//90 91//91
f 77//77 91//91 78//78
f 78//78 91//91 90//90
f 78//78 90//90 79//79
f 80//80 92//92 93//93
f 80//80 93//93 81//81
f 81//81 93//93 94//94
f 81//81 94//94 95//95
f 81//81 95//95 82//82
f 82//82 95//95 83//83
f 83//83 95//95 96//96
f 84//84 97//97 85//85
f 85//85 97//97 98//98
f 85//85 98//98 99//99
f 85//85 99//99 100//100
f 85//85 100//100 101//101
f 85//85 101//101 87//87
f 85//85 87//87 86//86
f 87//87 101//101 89//89
f 87//87 89//89 88//88
f 89//89 101//101 102//102
f 92//92 103//103 94//94
f 92//92 94//94 93//93
f 94//94 103//103 104//104
f 94//94 104//104 95//95
f 95//95 104//104 105//105
f 95//95 105//105 106//106
f 95//95 106//106 96//96
f 96//96 106//106 107//107
f 97//97 108//108 98//98
f 98//98 108//108 109//109
f 98//98 109//109 110//110
f 98//98 110//110 111//111
f 98//98 111//111 112//112
f 98//98 112//112 99//99
f 99//99 112//112 100//100
f 100//100 112//112 101//101
f 101//101 112//112 113//113
f 101//101 113//113 102//102
f 103//103 114//114 115//115
f 103//103 115//115 104//104
f 104//104 115//115 116//116
f 104//104 116//116 105//105
f 105//105 116//116 117//117
f 105//105 117//117 106//106
f 106//106 117//117 107//107
f 107//107 117//117 118//118
f 109//109 119//119 110//110
f 110//110 119//119 120//120
f 110//110 120//120 121//121
f 110//110 121//121 122//122
f 110//110 122//122 123//123
f 110//110 123//123 111//111
f 111//111 123//123 124//124
f 111//111 124//124 112//112
f 112//112 124//124 125//125
f 112//112 125//125 113//113
f 114//114 126//126 122//122
f 114//114 122//122 115//115
f 115//115 122//122 116//116
f 116//116 122//122 117//117
f 117//117 122//122 127//127
f 117//117 127//127 120//120
f 117//117 120//120 118//118
f 118//118 120//120 128//128
f 119//119 129//129 120//120
f 120//120 129//129 128//128
f 120//120 127//127 122//122
f 120//120 122//122 121//121
f 122//122 126//126 123//123
f 123//123 130//130 124//124
f 124//124 130//130 125//125
