o link_1_14
v 0.282792 0.523670 0.212147
v 0.281661 0.523670 0.206905
v 0.282740 0.523670 0.212325
v 0.285143 0.521395 0.214666
v 0.285143 0.521395 0.214100
v 0.281343 0.523670 0.206204
v 0.282336 0.523670 0.212710
v 0.282749 0.522151 0.215561
v 0.285667 0.517950 0.218482
v 0.286084 0.517021 0.218482
v 0.282749 0.520444 0.217830
v 0.282679 0.519965 0.218482
v 0.286813 0.512490 0.218482
v 0.285290 0.518950 0.213943
v 0.285256 0.515937 0.214107
v 0.279976 0.523670 0.203969
v 0.278321 0.523670 0.216404
v 0.279789 0.521316 0.218482
v 0.286301 0.509876 0.218482
v 0.286090 0.508909 0.218482
v 0.284784 0.503485 0.218482
v 0.280389 0.507777 0.209958
v 0.280797 0.510800 0.209358
v 0.279357 0.523123 0.203266
v 0.279114 0.523670 0.202749
v 0.277453 0.523670 0.216840
v 0.274180 0.523670 0.218482
v 0.283494 0.500630 0.218482
v 0.280941 0.502614 0.213974
v 0.276614 0.511576 0.204788
v 0.275967 0.516640 0.200793
v 0.276276 0.518950 0.200377
v 0.276770 0.523670 0.199426
v 0.255506 0.523670 0.218482
v 0.281229 0.498108 0.218482
v 0.281226 0.498111 0.218475
v 0.278213 0.502207 0.213512
v 0.273674 0.506553 0.208915
v 0.273674 0.511332 0.204591
v 0.268918 0.523670 0.193882
v 0.269145 0.523670 0.193931
v 0.273264 0.523670 0.195999
v 0.269917 0.523670 0.194277
v 0.255506 0.523670 0.195768
v 0.255506 0.502675 0.218482
v 0.278213 0.497676 0.218482
v 0.278213 0.497897 0.218210
v 0.278213 0.499940 0.215939
v 0.273674 0.502156 0.213401
v 0.273674 0.504284 0.211133
v 0.269141 0.506859 0.209161
v 0.264995 0.523670 0.193931
v 0.265139 0.523670 0.193919
v 0.255506 0.509815 0.208434
v 0.256845 0.523670 0.195436
v 0.255506 0.502467 0.218477
v 0.255521 0.502464 0.218482
v 0.273855 0.497958 0.218482
v 0.273674 0.498055 0.218376
v 0.273674 0.499887 0.216105
v 0.255506 0.506271 0.212123
v 0.269141 0.504589 0.211576
v 0.264845 0.523670 0.193950
v 0.260063 0.523670 0.194699
v 0.260419 0.523670 0.194624
v 0.268001 0.499116 0.218482
v 0.273674 0.497971 0.218482
v 0.272641 0.498144 0.218482
v 0.270349 0.498541 0.218482
vn 0.012023 0.999925 -0.002167
vn 0.758437 0.624935 -0.185010
vn 0.412036 0.830568 0.374678
vn 0.549394 0.704363 0.449488
vn 0.943777 0.246267 -0.220539
vn 0.881935 0.067876 -0.466458
vn 0.354258 0.852750 0.383820
vn 0.384816 0.796288 0.466736
vn 0.007962 0.009210 0.999926
vn 0.978690 0.201185 0.041125
vn 0.386965 0.733762 0.558437
vn 0.403610 0.684695 0.606870
vn 0.990858 0.025843 -0.132407
vn 0.919455 0.018583 -0.392755
vn 0.833967 -0.175993 -0.522997
vn 0.820421 -0.114755 -0.560126
vn 0.341827 0.798083 0.496203
vn 0.267403 0.613347 0.743169
vn 0.980195 -0.198033 -0.000907
vn 0.972861 -0.230909 0.014905
vn 0.886543 -0.261588 -0.381594
vn 0.747737 -0.304484 -0.590067
vn 0.800114 -0.194465 -0.567451
vn 0.802852 -0.185950 -0.566438
vn 0.188122 0.973136 -0.132726
vn 0.214793 0.877893 0.427982
vn 0.021508 0.746254 0.665314
vn 0.859919 -0.488528 0.147917
vn 0.437261 -0.573844 -0.692464
vn 0.209085 -0.619755 -0.756431
vn 0.524520 -0.409544 -0.746427
vn 0.752967 -0.207492 -0.624490
vn 0.790486 0.076797 -0.607646
vn -0.456510 0.628299 0.629952
vn 0.000232 -0.000416 1.000000
vn 0.319910 -0.673108 -0.666771
vn 0.127577 -0.684619 -0.717650
vn -0.018056 -0.679011 -0.733906
vn 0.023052 -0.656088 -0.754332
vn 0.059672 -0.003207 -0.998213
vn 0.229726 -0.356823 -0.905485
vn 0.491520 0.574538 -0.654457
vn 0.316128 0.709746 -0.629542
vn -0.449753 0.892770 -0.026137
vn -0.000160 -0.000000 1.000000
vn -0.004706 -0.092666 0.995686
vn 0.014784 -0.754133 -0.656556
vn 0.059345 -0.735546 -0.674871
vn -0.079790 -0.745609 -0.661589
vn -0.048089 -0.716401 -0.696029
vn -0.106095 -0.691311 -0.714726
vn -0.087950 -0.649679 -0.755104
vn -0.033393 -0.082615 -0.996022
vn -0.651974 -0.522393 -0.549578
vn -0.186163 0.579313 -0.793562
vn -0.860174 -0.437729 -0.261714
vn -0.000057 -0.000200 1.000000
vn -0.000333 -0.005124 0.999987
vn -0.065267 -0.776733 -0.626439
vn -0.115881 -0.767047 -0.631039
vn -0.578861 -0.636239 -0.510019
vn -0.116262 -0.724629 -0.679262
vn -0.128541 -0.511394 -0.849679
vn -0.181629 0.572067 -0.799844
vn -0.134468 0.494900 -0.858483
vn -0.081171 -0.307093 0.948212
vn -0.000746 -0.004875 0.999988
vn -0.020154 -0.117290 0.992893
vn -0.159610 -0.850539 0.501107
f 1//1 2//2 6//6
f 1//1 6//6 16//16
f 1//1 16//16 25//25
f 1//1 25//25 33//33
f 1//1 33//33 42//42
f 1//1 42//42 43//43
f 1//1 43//43 41//41
f 1//1 41//41 40//40
f 1//1 40//40 53//53
f 1//1 53//53 52//52
f 1//1 52//52 63//63
f 1//1 63//63 65//65
f 1//1 65//65 64//64
f 1//1 64//64 55//55
f 1//1 55//55 44//44
f 1//1 44//44 34//34
f 1//1 34//34 27//27
f 1//1 27//27 26//26
f 1//1 26//26 17//17
f 1//1 17//17 7//7
f 1//1 7//7 3//3
f 1//1 3//3 4//4
f 1//1 4//4 5//5
f 1//1 5//5 2//2
f 2//2 5//5 6//6
f 3//3 7//7 8//8
f 3//3 8//8 4//4
f 4//4 9//9 10//10
f 4//4 10//10 5//5
f 4//4 8//8 11//11
f 4//4 11//11 12//12
f 4//4 12//12 9//9
f 5//5 10//10 13//13
f 5//5 13//13 14//14
f 5//5 14//14 6//6
f 6//6 14//14 15//15
f 6//6 15//15 16//16
f 7//7 17//17 8//8
f 8//8 17//17 11//11
f 9//9 12//12 18//18
f 9//9 18//18 27//27
f 9//9 27//27 34//34
f 9//9 34//34 45//45
f 9//9 45//45 57//57
f 9//9 57//57 66//66
f 9//9 66//66 69//69
f 9//9 69//69 68//68
f 9//9 68//68 67//67
f 9//9 67//67 58//58
f 9//9 58//58 46//46
f 9//9 46//46 35//35
f 9//9 35//35 28//28
f 9//9 28//28 21//21
f 9//9 21//21 20//20
f 9//9 20//20 19//19
f 9//9 19//19 13//13
f 9//9 13//13 10//10
f 11//11 17//17 12//12
f 12//12 17//17 18//18
f 13//13 19//19 15//15
f 13//13 15//15 14//14
f 15//15 19//19 20//20
f 15//15 20//20 21//21
f 15//15 21//21 22//22
f 15//15 22//22 23//23
f 15//15 23//23 16//16
f 16//16 24//24 25//25
f 16//16 23//23 24//24
f 17//17 26//26 18//18
f 18//18 26//26 27//27
f 21//21 28//28 22//22
f 22//22 28//28 29//29
f 22//22 29//29 30//30
f 22//22 30//30 31//31
f 22//22 31//31 23//23
f 23//23 31//31 32//32
f 23//23 32//32 33//33
f 23//23 33//33 24//24
f 24//24 33//33 25//25
f 28//28 35//35 36//36
f 28//28 36//36 29//29
f 29//29 36//36 37//37
f 29//29 37//37 30//30
f 30//30 37//37 38//38
f 30//30 38//38 39//39
f 30//30 39//39 40//40
f 30//30 40//40 41//41
f 30//30 41//41 31//31
f 31//31 42//42 32//32
f 31//31 41//41 43//43
f 31//31 43//43 42//42
f 32//32 42//42 33//33
f 34//34 44//44 54//54
f 34//34 54//54 61//61
f 34//34 61//61 56//56
f 34//34 56//56 45//45
f 35//35 46//46 36//36
f 36//36 46//46 47//47
f 36//36 47//47 48//48
f 36//36 48//48 37//37
f 37//37 48//48 49//49
f 37//37 49//49 50//50
f 37//37 50//50 38//38
f 38//38 50//50 51//51
f 38//38 51//51 52//52
f 38//38 52//52 53//53
f 38//38 53//53 39//39
f 39//39 53//53 40//40
f 44//44 55//55 54//54
f 45//45 56//56 57//57
f 46//46 58//58 59//59
f 46//46 59//59 60//60
f 46//46 60//60 47//47
f 47//47 60//60 49//49
f 47//47 49//49 48//48
f 49//49 60//60 61//61
f 49//49 61//61 62//62
f 49//49 62//62 50//50
f 50//50 62//62 51//51
f 51//51 62//62 61//61
f 51//51 61//61 54//54
f 51//51 54//54 63//63
f 51//51 63//63 52//52
f 54//54 55//55 64//64
f 54//54 64//64 65//65
f 54//54 65//65 63//63
f 56//56 66//66 57//57
f 56//56 61//61 66//66
f 58//58 67//67 59//59
f 59//59 67//67 68//68
f 59//59 68//68 60//60
f 60//60 68//68 69//69
f 60//60 69//69 61//61
f 61//61 69//69 66//66
