o link_1_9
v 0.246511 0.523670 0.232358
v 0.246511 0.524665 0.231169
v 0.219703 0.523670 0.245803
v 0.246511 0.523670 0.195855
v 0.246511 0.532575 0.221706
v 0.241911 0.531649 0.225122
v 0.232839 0.529757 0.231935
v 0.219703 0.529053 0.239363
v 0.219703 0.523670 0.208914
v 0.246393 0.523670 0.194791
v 0.246511 0.523677 0.194816
v 0.232839 0.532575 0.228562
v 0.246511 0.532575 0.188183
v 0.220160 0.532575 0.234921
v 0.219703 0.532575 0.235145
v 0.219703 0.524564 0.207676
v 0.224938 0.523670 0.189471
v 0.240305 0.523670 0.185595
v 0.246511 0.523755 0.194741
v 0.246511 0.532559 0.188009
v 0.246448 0.532575 0.188003
v 0.219703 0.532575 0.198592
v 0.219703 0.526044 0.205735
v 0.225731 0.523670 0.186566
v 0.238048 0.523670 0.183523
v 0.237374 0.523670 0.183113
v 0.234996 0.523670 0.182627
v 0.237552 0.532575 0.188774
v 0.232839 0.523670 0.182248
v 0.224104 0.532575 0.194567
v 0.225909 0.525918 0.187032
v 0.219703 0.532418 0.198673
v 0.219703 0.528039 0.203290
v 0.228040 0.523670 0.184525
v 0.219703 0.530290 0.200813
v 0.237361 0.532575 0.188793
v 0.229365 0.532575 0.191095
v 0.232829 0.532575 0.189757
v 0.227106 0.532575 0.192383
vn 0.234416 -0.972089 0.009647
vn 0.306253 0.730320 0.610608
vn -0.589090 -0.760984 0.271802
vn 0.058495 -0.998288 -0.000184
vn 0.154534 0.987709 0.023461
vn 0.306203 0.730399 0.610539
vn 0.306190 0.730382 0.610566
vn 0.305953 0.730446 0.610608
vn -0.030689 -0.999525 -0.002852
vn 0.000304 -1.000000 -0.000184
vn 0.927474 -0.353047 -0.123088
vn 0.306159 0.730454 0.610495
vn 0.999975 0.007054 -0.000003
vn 0.305819 0.730917 0.610111
vn -0.313992 0.949424 0.001555
vn -0.988150 -0.122993 -0.091832
vn -0.069532 -0.997403 -0.018788
vn 0.256182 -0.947340 -0.192141
vn 0.986308 -0.100312 -0.130896
vn 0.969739 -0.092803 -0.225818
vn -0.008701 0.966073 -0.258124
vn -0.300455 0.953136 -0.035462
vn -0.986360 -0.128819 -0.102466
vn -0.513930 -0.838321 -0.181916
vn 0.164181 -0.967195 -0.193854
vn 0.057597 -0.978872 -0.196194
vn 0.038211 -0.978985 -0.200321
vn -0.018606 0.976662 -0.213975
vn -0.168319 -0.622730 -0.764118
vn -0.106004 0.986302 -0.126376
vn -0.485638 0.537572 -0.689328
vn -0.990085 -0.097893 -0.100744
vn -0.988084 -0.116544 -0.100541
vn -0.023586 -0.998967 -0.038831
vn -0.989245 -0.106120 -0.100659
vn -0.042832 0.977655 -0.205805
vn -0.133603 0.941760 -0.308607
vn -0.057782 0.977949 -0.200692
vn -0.089788 0.986622 -0.136072
f 1//1 2//2 3//3
f 1//1 3//3 9//9
f 1//1 9//9 17//17
f 1//1 17//17 24//24
f 1//1 24//24 34//34
f 1//1 34//34 29//29
f 1//1 29//29 27//27
f 1//1 27//27 26//26
f 1//1 26//26 25//25
f 1//1 25//25 18//18
f 1//1 18//18 10//10
f 1//1 10//10 4//4
f 1//1 4//4 11//11
f 1//1 11//11 19//19
f 1//1 19//19 20//20
f 1//1 20//20 13//13
f 1//1 13//13 5//5
f 1//1 5//5 2//2
f 2//2 5//5 6//6
f 2//2 6//6 7//7
f 2//2 7//7 3//3
f 3//3 7//7 8//8
f 3//3 8//8 15//15
f 3//3 15//15 22//22
f 3//3 22//22 32//32
f 3//3 32//32 35//35
f 3//3 35//35 33//33
f 3//3 33//33 23//23
f 3//3 23//23 16//16
f 3//3 16//16 9//9
f 4//4 10//10 11//11
f 5//5 12//12 6//6
f 5//5 13//13 21//21
f 5//5 21//21 28//28
f 5//5 28//28 36//36
f 5//5 36//36 38//38
f 5//5 38//38 37//37
f 5//5 37//37 39//39
f 5//5 39//39 30//30
f 5//5 30//30 22//22
f 5//5 22//22 15//15
f 5//5 15//15 14//14
f 5//5 14//14 12//12
f 6//6 12//12 7//7
f 7//7 14//14 8//8
f 7//7 12//12 14//14
f 8//8 14//14 15//15
f 9//9 16//16 17//17
f 10//10 18//18 11//11
f 11//11 18//18 19//19
f 13//13 20//20 21//21
f 16//16 23//23 17//17
f 17//17 23//23 24//24
f 18//18 25//25 20//20
f 18//18 20//20 19//19
f 20//20 25//25 26//26
f 20//20 26//26 27//27
f 20//20 27//27 21//21
f 21//21 27//27 29//29
f 21//21 29//29 28//28
f 22//22 30//30 31//31
f 22//22 31//31 24//24
f 22//22 24//24 32//32
f 23//23 33//33 24//24
f 24//24 31//31 34//34
f 24//24 33//33 35//35
f 24//24 35//35 32//32
f 28//28 29//29 36//36
f 29//29 34//34 31//31
f 29//29 31//31 37//37
f 29//29 37//37 38//38
f 29//29 38//38 36//36
f 30//30 39//39 31//31
f 31//31 39//39 37//37
