o link_1_18
v 0.255503 0.510455 0.218481
v 0.255503 0.502674 0.218481
v 0.255503 0.510455 0.208664
v 0.229590 0.510455 0.218481
v 0.255503 0.502464 0.218479
v 0.251803 0.502067 0.218481
v 0.255503 0.509814 0.208436
v 0.255490 0.510455 0.208038
v 0.228365 0.510455 0.206377
v 0.228503 0.509875 0.206377
v 0.229856 0.505796 0.206377
v 0.230403 0.504189 0.206377
v 0.230687 0.503528 0.206377
v 0.230762 0.503883 0.207622
v 0.232563 0.500801 0.207622
v 0.235052 0.498487 0.209954
v 0.233533 0.505907 0.218481
v 0.255503 0.506270 0.212124
v 0.241914 0.494365 0.206377
v 0.245225 0.494998 0.206377
v 0.246699 0.495614 0.206377
v 0.249438 0.497416 0.206377
v 0.249584 0.497541 0.206377
v 0.241914 0.502886 0.218481
v 0.241914 0.497626 0.211142
v 0.240299 0.494390 0.206377
v 0.250790 0.500639 0.206377
v 0.251951 0.505355 0.206377
v 0.252422 0.510449 0.206377
v 0.252376 0.510455 0.206377
v 0.232321 0.500892 0.206377
v 0.233030 0.499935 0.206377
v 0.234638 0.498030 0.207622
v 0.238625 0.494814 0.206377
v 0.237377 0.497978 0.210656
v 0.237398 0.503822 0.218481
v 0.235533 0.504802 0.218481
v 0.241351 0.502995 0.218481
v 0.234537 0.497923 0.206377
vn 0.130285 0.872920 0.470146
vn 0.000672 -0.000297 1.000000
vn 0.999800 0.019940 -0.001273
vn -0.619872 0.584407 0.523667
vn 0.694480 -0.710122 0.115863
vn -0.014192 -0.599881 0.799964
vn 0.943656 -0.227354 -0.240466
vn 0.469090 0.608892 -0.639691
vn -0.008327 0.715306 -0.698762
vn -0.948061 -0.303277 0.095931
vn -0.944136 -0.315405 0.095534
vn -0.934684 -0.342668 0.094577
vn -0.885404 -0.454640 -0.096757
vn -0.847572 -0.490055 0.203636
vn -0.808164 -0.537831 0.240019
vn -0.607122 -0.673078 0.422337
vn -0.241729 -0.254129 0.936475
vn 0.947667 -0.257633 -0.188552
vn 0.110828 -0.950196 -0.291281
vn 0.161282 -0.617806 -0.769613
vn 0.253582 -0.441923 -0.860465
vn 0.270312 -0.404859 -0.873510
vn 0.682934 -0.315700 -0.658737
vn -0.066881 -0.574656 0.815658
vn -0.067289 -0.812388 0.579221
vn -0.107653 -0.954305 0.278771
vn 0.088480 -0.028874 -0.995659
vn 0.061127 -0.010164 -0.998078
vn 0.061129 -0.005095 -0.998117
vn 0.000032 1.000000 -0.000525
vn -0.484220 -0.315804 -0.815965
vn -0.582416 -0.435371 -0.686472
vn -0.678190 -0.706972 0.200620
vn -0.318552 -0.615844 -0.720598
vn -0.200332 -0.794556 0.573191
vn -0.165239 -0.469013 0.867596
vn -0.184314 -0.341634 0.921583
vn -0.089601 -0.432519 0.897161
vn -0.165336 -0.180651 -0.969551
f 1//1 2//2 5//5
f 1//1 5//5 18//18
f 1//1 18//18 7//7
f 1//1 7//7 3//3
f 1//1 3//3 8//8
f 1//1 8//8 30//30
f 1//1 30//30 9//9
f 1//1 9//9 4//4
f 1//1 4//4 17//17
f 1//1 17//17 37//37
f 1//1 37//37 36//36
f 1//1 36//36 38//38
f 1//1 38//38 24//24
f 1//1 24//24 6//6
f 1//1 6//6 2//2
f 2//2 6//6 5//5
f 3//3 7//7 8//8
f 4//4 9//9 10//10
f 4//4 10//10 11//11
f 4//4 11//11 12//12
f 4//4 12//12 13//13
f 4//4 13//13 14//14
f 4//4 14//14 15//15
f 4//4 15//15 16//16
f 4//4 16//16 17//17
f 5//5 6//6 19//19
f 5//5 19//19 20//20
f 5//5 20//20 21//21
f 5//5 21//21 22//22
f 5//5 22//22 23//23
f 5//5 23//23 18//18
f 6//6 24//24 25//25
f 6//6 25//25 26//26
f 6//6 26//26 19//19
f 7//7 18//18 23//23
f 7//7 23//23 27//27
f 7//7 27//27 8//8
f 8//8 27//27 28//28
f 8//8 28//28 29//29
f 8//8 29//29 30//30
f 9//9 30//30 29//29
f 9//9 29//29 28//28
f 9//9 28//28 27//27
f 9//9 27//27 23//23
f 9//9 23//23 22//22
f 9//9 22//22 21//21
f 9//9 21//21 20//20
f 9//9 20//20 19//19
f 9//9 19//19 26//26
f 9//9 26//26 34//34
f 9//9 34//34 39//39
f 9//9 39//39 32//32
f 9//9 32//32 31//31
f 9//9 31//31 13//13
f 9//9 13//13 12//12
f 9//9 12//12 11//11
f 9//9 11//11 10//10
f 13//13 31//31 15//15
f 13//13 15//15 14//14
f 15//15 31//31 32//32
f 15//15 32//32 33//33
f 15//15 33//33 16//16
f 16//16 33//33 34//34
f 16//16 34//34 35//35
f 16//16 35//35 36//36
f 16//16 36//36 37//37
f 16//16 37//37 17//17
f 24//24 38//38 35//35
f 24//24 35//35 26//26
f 24//24 26//26 25//25
f 26//26 35//35 34//34
f 32//32 39//39 33//33
f 33//33 39//39 34//34
f 35//35 38//38 36//36
