o link_2_11
v 0.292127 0.290997 -0.032045
v 0.308526 0.292062 -0.034374
v 0.307797 0.294418 -0.035088
v 0.292127 0.292062 -0.032929
v 0.292127 0.279683 -0.032045
v 0.294607 0.282993 -0.032045
v 0.305440 0.287528 -0.032870
v 0.310124 0.287302 -0.033744
v 0.312377 0.285639 -0.034896
v 0.311735 0.288666 -0.036585
v 0.310619 0.291636 -0.037824
v 0.310907 0.300862 -0.051077
v 0.307914 0.303525 -0.048625
v 0.299970 0.309194 -0.047649
v 0.296365 0.309284 -0.047695
v 0.292127 0.303844 -0.044078
v 0.292127 0.278466 -0.032416
v 0.305875 0.282546 -0.033701
v 0.309977 0.283820 -0.034121
v 0.312377 0.284840 -0.034896
v 0.312425 0.284644 -0.037416
v 0.312401 0.287302 -0.037824
v 0.312357 0.299162 -0.052621
v 0.312268 0.289838 -0.039609
v 0.308429 0.304012 -0.051028
v 0.303791 0.308420 -0.052173
v 0.302994 0.307765 -0.049147
v 0.301252 0.309624 -0.050808
v 0.296365 0.310546 -0.051028
v 0.293830 0.308481 -0.048449
v 0.292127 0.305507 -0.046765
v 0.304651 0.279957 -0.034562
v 0.292127 0.275668 -0.034433
v 0.307678 0.280735 -0.035168
v 0.311270 0.282562 -0.041956
v 0.308844 0.279740 -0.038192
v 0.312387 0.284832 -0.041956
v 0.312415 0.287528 -0.041956
v 0.312357 0.299162 -0.053421
v 0.308465 0.304094 -0.054184
v 0.303791 0.308420 -0.054382
v 0.300854 0.308985 -0.055762
v 0.296516 0.309067 -0.055670
v 0.293671 0.308559 -0.054230
v 0.293578 0.308805 -0.051028
v 0.292127 0.306925 -0.051028
v 0.292127 0.306712 -0.050191
v 0.292127 0.275549 -0.034522
v 0.297583 0.276471 -0.035353
v 0.300904 0.276958 -0.035974
v 0.295117 0.271240 -0.039263
v 0.300904 0.274922 -0.038241
v 0.303815 0.275807 -0.039066
v 0.312329 0.285094 -0.044384
v 0.309001 0.279543 -0.041956
v 0.306183 0.277274 -0.041956
v 0.312357 0.298658 -0.053421
v 0.304787 0.301136 -0.059147
v 0.304137 0.304606 -0.058567
v 0.305476 0.305864 -0.055796
v 0.302333 0.307629 -0.057409
v 0.299310 0.308129 -0.057977
v 0.298130 0.308129 -0.057977
v 0.295104 0.307601 -0.057254
v 0.292127 0.306126 -0.055274
v 0.292908 0.304577 -0.058835
v 0.292127 0.273263 -0.036514
v 0.292127 0.270728 -0.038775
v 0.292127 0.268860 -0.041716
v 0.295940 0.270637 -0.041956
v 0.298207 0.271850 -0.041956
v 0.300904 0.273644 -0.041956
v 0.303914 0.275709 -0.041956
v 0.308296 0.280129 -0.045051
v 0.309830 0.283222 -0.046231
v 0.308337 0.284373 -0.049486
v 0.308959 0.287798 -0.051009
v 0.303519 0.275926 -0.044616
v 0.303775 0.293185 -0.058403
v 0.304516 0.296601 -0.059024
v 0.307894 0.289490 -0.053477
v 0.300638 0.300903 -0.061362
v 0.300638 0.296610 -0.061433
v 0.298947 0.298129 -0.062483
v 0.298947 0.299231 -0.062483
v 0.300854 0.305942 -0.059024
v 0.296365 0.301833 -0.061680
v 0.296516 0.305925 -0.059184
v 0.292127 0.305266 -0.056534
v 0.293246 0.299436 -0.062625
v 0.292127 0.302660 -0.059793
v 0.292127 0.268724 -0.042080
v 0.292127 0.268700 -0.046098
v 0.292127 0.268786 -0.046586
v 0.305297 0.278564 -0.046345
v 0.307074 0.281350 -0.048072
v 0.305422 0.282997 -0.051000
v 0.306795 0.286462 -0.052510
v 0.295219 0.270908 -0.046494
v 0.297488 0.272546 -0.046494
v 0.302148 0.276999 -0.047639
v 0.301180 0.291829 -0.059425
v 0.298333 0.295102 -0.062245
v 0.302875 0.290162 -0.057656
v 0.305345 0.287798 -0.054468
v 0.295308 0.292869 -0.062860
v 0.292127 0.291649 -0.063598
v 0.296640 0.296610 -0.062881
v 0.292127 0.296847 -0.063261
v 0.296365 0.299563 -0.062644
v 0.292127 0.300665 -0.061195
v 0.292127 0.297482 -0.063132
v 0.292127 0.270666 -0.049601
v 0.294156 0.271600 -0.048816
v 0.304049 0.280023 -0.049493
v 0.303769 0.284648 -0.053733
v 0.302195 0.281624 -0.052516
v 0.299121 0.275811 -0.049184
v 0.296640 0.291640 -0.061794
v 0.299851 0.288556 -0.058530
v 0.293063 0.287528 -0.061766
v 0.294060 0.289842 -0.062353
v 0.301180 0.287237 -0.056988
v 0.298376 0.285533 -0.057677
v 0.292127 0.291264 -0.063502
v 0.292260 0.291640 -0.063558
v 0.292127 0.270768 -0.049761
v 0.299171 0.280281 -0.053659
v 0.292127 0.272825 -0.052044
v 0.294295 0.276020 -0.053449
v 0.300771 0.283079 -0.054589
v 0.293816 0.281010 -0.057649
v 0.292127 0.283136 -0.059953
v 0.292127 0.284267 -0.060562
v 0.292127 0.287528 -0.062261
v 0.292127 0.283013 -0.059879
v 0.292127 0.275090 -0.054255
v 0.292127 0.278175 -0.056744
v 0.292127 0.278212 -0.056772
v 0.292127 0.282689 -0.059682
vn -0.988523 0.027438 0.148558
vn 0.197265 0.270650 0.942250
vn 0.361419 0.652747 0.665806
vn -0.032788 0.654268 0.755551
vn 0.094854 -0.129863 0.986985
vn 0.061822 0.000000 0.998087
vn 0.120336 0.021994 0.992490
vn 0.300206 0.079211 0.950580
vn 0.890868 0.265366 0.368694
vn 0.828438 0.434414 0.353519
vn 0.813630 0.466911 0.346410
vn 0.807690 0.485730 0.334220
vn 0.628086 0.656976 0.417002
vn 0.175958 0.710079 0.681782
vn -0.147793 0.707171 0.691423
vn -0.456580 0.634209 0.623951
vn -0.101309 -0.466870 0.878504
vn 0.192045 -0.348060 0.917591
vn 0.196930 -0.208103 0.958077
vn 0.723301 -0.587738 0.362491
vn 0.996508 -0.083439 0.003030
vn 0.999777 0.017305 0.012081
vn 0.958172 0.265336 0.107256
vn 0.871219 0.394576 0.292039
vn 0.724022 0.678794 0.122597
vn 0.627869 0.759743 0.169032
vn 0.566977 0.745059 0.351318
vn 0.304364 0.951514 0.044552
vn -0.092423 0.995428 -0.024104
vn -0.587666 0.728094 0.352884
vn -0.982033 0.170844 0.080152
vn 0.237018 -0.559529 0.794197
vn -0.332993 -0.552050 0.764432
vn 0.420661 -0.699312 0.577934
vn 0.824359 -0.566049 0.004670
vn 0.677811 -0.706645 0.203042
vn 0.994920 -0.097974 -0.023125
vn 0.999972 -0.003033 -0.006856
vn 0.763309 0.297866 -0.573267
vn 0.726664 0.630522 -0.272767
vn 0.515701 0.821990 -0.241628
vn 0.154952 0.952101 -0.263615
vn -0.142345 0.921175 -0.362181
vn -0.591904 0.752415 -0.289001
vn -0.649338 0.759981 0.028085
vn -0.989895 0.141745 -0.003972
vn -0.989054 0.140015 0.046562
vn -0.471079 -0.566525 0.676117
vn 0.226312 -0.641460 0.733016
vn 0.240767 -0.651339 0.719576
vn 0.328231 -0.750037 0.574202
vn 0.374708 -0.737790 0.561479
vn 0.498237 -0.811589 0.305095
vn 0.830285 -0.374645 -0.412636
vn 0.711450 -0.682344 -0.168067
vn 0.604700 -0.796450 -0.002248
vn 0.783873 -0.237818 -0.573573
vn 0.560501 0.058934 -0.826054
vn 0.553840 0.389232 -0.736044
vn 0.614743 0.607585 -0.502923
vn 0.434047 0.672731 -0.599196
vn 0.095490 0.682023 -0.725070
vn -0.142676 0.656867 -0.740385
vn -0.387185 0.705942 -0.593072
vn -0.994135 0.098722 -0.044153
vn -0.460451 0.605754 -0.648881
vn -0.794071 -0.402072 0.455838
vn -0.802490 -0.423282 0.420526
vn -0.897168 -0.397128 0.193338
vn 0.446997 -0.871623 0.201166
vn 0.533944 -0.840774 -0.089462
vn 0.559518 -0.827452 -0.047564
vn 0.565862 -0.823113 -0.047809
vn 0.668542 -0.635156 -0.386818
vn 0.706998 -0.514277 -0.485461
vn 0.682291 -0.456003 -0.571437
vn 0.756377 -0.362786 -0.544316
vn 0.565443 -0.772570 -0.288808
vn 0.571917 -0.295790 -0.765127
vn 0.575645 -0.148495 -0.804103
vn 0.634589 -0.345079 -0.691533
vn 0.348749 0.308156 -0.885107
vn 0.503151 -0.151410 -0.850831
vn 0.376315 -0.073457 -0.923575
vn 0.199750 0.252926 -0.946641
vn 0.193229 0.446255 -0.873796
vn 0.033900 0.463937 -0.885219
vn -0.231515 0.561215 -0.794631
vn -0.999584 0.022872 -0.017543
vn -0.227210 0.499736 -0.835847
vn -0.998128 0.039011 -0.047097
vn -0.982280 -0.187294 0.006828
vn -0.952646 -0.303996 -0.007248
vn -0.705795 -0.676241 -0.211073
vn 0.550482 -0.674378 -0.492122
vn 0.593436 -0.595059 -0.541976
vn 0.554704 -0.535927 -0.636464
vn 0.581543 -0.469706 -0.664217
vn 0.527979 -0.742526 -0.412181
vn 0.535621 -0.698507 -0.474549
vn 0.536220 -0.675962 -0.505514
vn 0.453235 -0.365175 -0.813157
vn 0.437981 -0.273459 -0.856383
vn 0.512909 -0.407173 -0.755734
vn 0.545203 -0.426258 -0.721844
vn 0.328481 -0.216730 -0.919308
vn -0.972644 -0.000887 -0.232298
vn 0.103378 0.053071 -0.993225
vn -0.967759 0.020875 -0.251011
vn 0.035250 0.274147 -0.961041
vn -0.999318 0.020012 -0.031036
vn -0.995386 0.031993 -0.090455
vn -0.996809 -0.067704 -0.042279
vn 0.525718 -0.696459 -0.488431
vn 0.513091 -0.613873 -0.599915
vn 0.498957 -0.481565 -0.720512
vn 0.518301 -0.560682 -0.645756
vn 0.516700 -0.649208 -0.558167
vn 0.431368 -0.333130 -0.838419
vn 0.445794 -0.418888 -0.791075
vn 0.440910 -0.406058 -0.800447
vn 0.399827 -0.350622 -0.846878
vn 0.474671 -0.457790 -0.751742
vn 0.460883 -0.461147 -0.758242
vn -0.991022 -0.040785 -0.127328
vn 0.302847 -0.229967 -0.924878
vn -0.925332 -0.285390 -0.249627
vn 0.482375 -0.554703 -0.677952
vn -0.826503 -0.407463 -0.388415
vn 0.498353 -0.605315 -0.620675
vn 0.469661 -0.506788 -0.722900
vn 0.462133 -0.488345 -0.740238
vn -0.675380 -0.358828 -0.644286
vn -0.956575 -0.136671 -0.257460
vn -0.998081 -0.023218 -0.057400
vn -0.175995 -0.511931 -0.840805
vn -0.972304 -0.151615 -0.177869
vn -0.958066 -0.179871 -0.223061
vn -0.977187 -0.120424 -0.174938
vn -0.998038 -0.034018 -0.052566
f 1//1 2//2 3//3
f 1//1 3//3 4//4
f 1//1 4//4 16//16
f 1//1 16//16 31//31
f 1//1 31//31 47//47
f 1//1 47//47 46//46
f 1//1 46//46 65//65
f 1//1 65//65 89//89
f 1//1 89//89 91//91
f 1//1 91//91 111//111
f 1//1 111//111 112//112
f 1//1 112//112 109//109
f 1//1 109//109 107//107
f 1//1 107//107 125//125
f 1//1 125//125 135//135
f 1//1 135//135 134//134
f 1//1 134//134 133//133
f 1//1 133//133 136//136
f 1//1 136//136 140//140
f 1//1 140//140 139//139
f 1//1 139//139 138//138
f 1//1 138//138 137//137
f 1//1 137//137 129//129
f 1//1 129//129 127//127
f 1//1 127//127 113//113
f 1//1 113//113 94//94
f 1//1 94//94 93//93
f 1//1 93//93 92//92
f 1//1 92//92 69//69
f 1//1 69//69 68//68
f 1//1 68//68 67//67
f 1//1 67//67 48//48
f 1//1 48//48 33//33
f 1//1 33//33 17//17
f 1//1 17//17 5//5
f 1//1 5//5 6//6
f 1//1 6//6 7//7
f 1//1 7//7 2//2
f 2//2 7//7 8//8
f 2//2 8//8 9//9
f 2//2 9//9 3//3
f 3//3 9//9 10//10
f 3//3 10//10 11//11
f 3//3 11//11 12//12
f 3//3 12//12 13//13
f 3//3 13//13 14//14
f 3//3 14//14 4//4
f 4//4 14//14 15//15
f 4//4 15//15 16//16
f 5//5 17//17 18//18
f 5//5 18//18 19//19
f 5//5 19//19 7//7
f 5//5 7//7 6//6
f 7//7 19//19 8//8
f 8//8 19//19 20//20
f 8//8 20//20 9//9
f 9//9 20//20 21//21
f 9//9 21//21 22//22
f 9//9 22//22 23//23
f 9//9 23//23 24//24
f 9//9 24//24 10//10
f 10//10 24//24 12//12
f 10//10 12//12 11//11
f 12//12 25//25 13//13
f 12//12 24//24 23//23
f 12//12 23//23 25//25
f 13//13 25//25 26//26
f 13//13 26//26 27//27
f 13//13 27//27 14//14
f 14//14 27//27 28//28
f 14//14 28//28 29//29
f 14//14 29//29 15//15
f 15//15 29//29 30//30
f 15//15 30//30 16//16
f 16//16 30//30 31//31
f 17//17 32//32 18//18
f 17//17 33//33 32//32
f 18//18 32//32 19//19
f 19//19 32//32 34//34
f 19//19 34//34 20//20
f 20//20 35//35 21//21
f 20//20 34//34 36//36
f 20//20 36//36 35//35
f 21//21 37//37 38//38
f 21//21 38//38 23//23
f 21//21 23//23 22//22
f 21//21 35//35 37//37
f 23//23 39//39 40//40
f 23//23 40//40 25//25
f 23//23 38//38 39//39
f 25//25 40//40 26//26
f 26//26 41//41 28//28
f 26//26 28//28 27//27
f 26//26 40//40 41//41
f 28//28 41//41 42//42
f 28//28 42//42 29//29
f 29//29 42//42 43//43
f 29//29 43//43 44//44
f 29//29 44//44 45//45
f 29//29 45//45 30//30
f 30//30 45//45 46//46
f 30//30 46//46 47//47
f 30//30 47//47 31//31
f 32//32 33//33 48//48
f 32//32 48//48 49//49
f 32//32 49//49 50//50
f 32//32 50//50 51//51
f 32//32 51//51 34//34
f 34//34 51//51 52//52
f 34//34 52//52 53//53
f 34//34 53//53 36//36
f 35//35 54//54 37//37
f 35//35 36//36 55//55
f 35//35 55//55 54//54
f 36//36 53//53 56//56
f 36//36 56//56 55//55
f 37//37 54//54 57//57
f 37//37 57//57 38//38
f 38//38 57//57 39//39
f 39//39 57//57 58//58
f 39//39 58//58 59//59
f 39//39 59//59 40//40
f 40//40 59//59 60//60
f 40//40 60//60 41//41
f 41//41 60//60 61//61
f 41//41 61//61 42//42
f 42//42 61//61 62//62
f 42//42 62//62 43//43
f 43//43 62//62 63//63
f 43//43 63//63 64//64
f 43//43 64//64 44//44
f 44//44 65//65 46//46
f 44//44 46//46 45//45
f 44//44 64//64 66//66
f 44//44 66//66 65//65
f 48//48 67//67 49//49
f 49//49 67//67 68//68
f 49//49 68//68 51//51
f 49//49 51//51 50//50
f 51//51 68//68 69//69
f 51//51 69//69 70//70
f 51//51 70//70 53//53
f 51//51 53//53 52//52
f 53//53 70//70 71//71
f 53//53 71//71 72//72
f 53//53 72//72 73//73
f 53//53 73//73 56//56
f 54//54 55//55 74//74
f 54//54 74//74 75//75
f 54//54 75//75 76//76
f 54//54 76//76 77//77
f 54//54 77//77 57//57
f 55//55 56//56 78//78
f 55//55 78//78 74//74
f 56//56 73//73 78//78
f 57//57 79//79 80//80
f 57//57 80//80 58//58
f 57//57 77//77 81//81
f 57//57 81//81 79//79
f 58//58 82//82 59//59
f 58//58 80//80 83//83
f 58//58 83//83 84//84
f 58//58 84//84 85//85
f 58//58 85//85 82//82
f 59//59 82//82 86//86
f 59//59 86//86 61//61
f 59//59 61//61 60//60
f 61//61 86//86 62//62
f 62//62 86//86 87//87
f 62//62 87//87 63//63
f 63//63 87//87 88//88
f 63//63 88//88 64//64
f 64//64 88//88 66//66
f 65//65 66//66 89//89
f 66//66 90//90 91//91
f 66//66 91//91 89//89
f 66//66 88//88 90//90
f 69//69 92//92 70//70
f 70//70 92//92 93//93
f 70//70 93//93 71//71
f 71//71 93//93 94//94
f 71//71 94//94 78//78
f 71//71 78//78 72//72
f 72//72 78//78 73//73
f 74//74 95//95 96//96
f 74//74 96//96 75//75
f 74//74 78//78 95//95
f 75//75 96//96 76//76
f 76//76 96//96 97//97
f 76//76 97//97 98//98
f 76//76 98//98 81//81
f 76//76 81//81 77//77
f 78//78 94//94 99//99
f 78//78 99//99 100//100
f 78//78 100//100 101//101
f 78//78 101//101 95//95
f 79//79 102//102 103//103
f 79//79 103//103 83//83
f 79//79 83//83 80//80
f 79//79 81//81 104//104
f 79//79 104//104 102//102
f 81//81 98//98 105//105
f 81//81 105//105 104//104
f 82//82 85//85 86//86
f 83//83 103//103 84//84
f 84//84 103//103 106//106
f 84//84 106//106 107//107
f 84//84 107//107 108//108
f 84//84 108//108 85//85
f 85//85 108//108 109//109
f 85//85 109//109 110//110
f 85//85 110//110 87//87
f 85//85 87//87 86//86
f 87//87 110//110 90//90
f 87//87 90//90 88//88
f 90//90 111//111 91//91
f 90//90 110//110 112//112
f 90//90 112//112 111//111
f 94//94 113//113 114//114
f 94//94 114//114 99//99
f 95//95 101//101 96//96
f 96//96 101//101 115//115
f 96//96 115//115 97//97
f 97//97 116//116 98//98
f 97//97 115//115 117//117
f 97//97 117//117 116//116
f 98//98 116//116 105//105
f 99//99 114//114 100//100
f 100//100 114//114 101//101
f 101//101 114//114 118//118
f 101//101 118//118 115//115
f 102//102 119//119 103//103
f 102//102 104//104 120//120
f 102//102 120//120 121//121
f 102//102 121//121 122//122
f 102//102 122//122 119//119
f 103//103 119//119 106//106
f 104//104 105//105 116//116
f 104//104 116//116 123//123
f 104//104 123//123 124//124
f 104//104 124//124 120//120
f 106//106 119//119 122//122
f 106//106 122//122 125//125
f 106//106 125//125 126//126
f 106//106 126//126 107//107
f 107//107 109//109 108//108
f 107//107 126//126 125//125
f 109//109 112//112 110//110
f 113//113 127//127 114//114
f 114//114 127//127 118//118
f 115//115 128//128 117//117
f 115//115 118//118 129//129
f 115//115 129//129 130//130
f 115//115 130//130 128//128
f 116//116 124//124 123//123
f 116//116 117//117 128//128
f 116//116 128//128 131//131
f 116//116 131//131 132//132
f 116//116 132//132 124//124
f 118//118 127//127 129//129
f 120//120 124//124 133//133
f 120//120 133//133 134//134
f 120//120 134//134 121//121
f 121//121 134//134 135//135
f 121//121 135//135 122//122
f 122//122 135//135 125//125
f 124//124 136//136 133//133
f 124//124 132//132 136//136
f 128//128 132//132 131//131
f 128//128 130//130 137//137
f 128//128 137//137 138//138
f 128//128 138//138 139//139
f 128//128 139//139 132//132
f 129//129 137//137 130//130
f 132//132 139//139 140//140
f 132//132 140//140 136//136
