o link_1_4
v 0.219703 0.516433 0.218482
v 0.219703 0.502231 0.236025
v 0.219703 0.523666 0.218482
v 0.233536 0.505907 0.218482
v 0.219703 0.499705 0.239202
v 0.219703 0.523666 0.245806
v 0.274174 0.523666 0.218482
v 0.235535 0.504804 0.218482
v 0.219703 0.494286 0.246627
v 0.219703 0.495867 0.244376
v 0.219703 0.496201 0.243910
v 0.219703 0.497006 0.242790
v 0.219703 0.498174 0.241171
v 0.219703 0.502163 0.271528
v 0.223804 0.523505 0.243949
v 0.224452 0.523666 0.243427
v 0.273671 0.523666 0.218737
v 0.275663 0.523045 0.218482
v 0.237403 0.503826 0.218482
v 0.219703 0.493233 0.248379
v 0.219703 0.501807 0.271949
v 0.223742 0.500793 0.271140
v 0.223576 0.504542 0.266743
v 0.243744 0.521036 0.236901
v 0.241814 0.523666 0.234722
v 0.247955 0.511822 0.245812
v 0.269866 0.523666 0.220650
v 0.276979 0.521654 0.219491
v 0.277413 0.522312 0.218482
v 0.241352 0.502996 0.218482
v 0.250988 0.491418 0.234850
v 0.250988 0.489761 0.237750
v 0.246452 0.490282 0.238726
v 0.244054 0.489420 0.241576
v 0.242289 0.490908 0.239796
v 0.219703 0.493164 0.248501
v 0.219703 0.499780 0.274317
v 0.222529 0.498968 0.273873
v 0.231592 0.498961 0.269376
v 0.240663 0.498957 0.264846
v 0.237375 0.499647 0.265673
v 0.276917 0.498943 0.246688
v 0.243096 0.502615 0.259257
v 0.278213 0.517230 0.224165
v 0.260065 0.523490 0.225779
v 0.250877 0.523666 0.230176
v 0.282748 0.499618 0.242956
v 0.280598 0.516731 0.223567
v 0.280005 0.521018 0.218732
v 0.279784 0.521316 0.218482
v 0.241917 0.502889 0.218482
v 0.273671 0.490185 0.229388
v 0.268874 0.490419 0.230531
v 0.253586 0.489517 0.237251
v 0.250988 0.488762 0.240017
v 0.246452 0.489168 0.240993
v 0.246452 0.488123 0.243926
v 0.221205 0.489388 0.255104
v 0.219703 0.490652 0.253297
v 0.219703 0.499557 0.274572
v 0.219703 0.496657 0.275115
v 0.249278 0.494433 0.264619
v 0.267791 0.494587 0.255709
v 0.264600 0.497681 0.254306
v 0.261809 0.498317 0.255005
v 0.270879 0.498314 0.250464
v 0.279943 0.498249 0.245928
v 0.285788 0.498939 0.242141
v 0.285395 0.503230 0.237306
v 0.284802 0.507517 0.232477
v 0.283623 0.516095 0.222807
v 0.282362 0.517906 0.221271
v 0.280756 0.520863 0.218482
v 0.273671 0.497973 0.218482
v 0.273685 0.495500 0.221604
v 0.272175 0.494113 0.223672
v 0.273685 0.492697 0.225418
v 0.269135 0.492888 0.226400
v 0.273671 0.488992 0.231662
v 0.270218 0.489255 0.232183
v 0.278213 0.489980 0.229067
v 0.267192 0.489517 0.232699
v 0.256605 0.489244 0.236757
v 0.255261 0.488525 0.239014
v 0.250988 0.487425 0.243926
v 0.219703 0.489071 0.257350
v 0.219703 0.489578 0.255653
v 0.219703 0.490530 0.253558
v 0.219703 0.496266 0.275126
v 0.249278 0.493653 0.264619
v 0.267791 0.493416 0.255709
v 0.276641 0.494569 0.251168
v 0.273671 0.495396 0.251950
v 0.273671 0.497663 0.249765
v 0.286270 0.496266 0.242901
v 0.289923 0.499295 0.237960
v 0.288421 0.502321 0.236463
v 0.287056 0.504437 0.234911
v 0.281714 0.495227 0.247126
v 0.282672 0.519965 0.218482
v 0.287283 0.508793 0.229477
v 0.285684 0.517360 0.219780
v 0.273857 0.497958 0.218482
v 0.275201 0.493887 0.223361
v 0.278213 0.492086 0.225773
v 0.278213 0.488884 0.231335
v 0.273671 0.487961 0.234850
v 0.268874 0.488514 0.234467
v 0.264600 0.488669 0.235460
v 0.280963 0.493887 0.223367
v 0.282583 0.492816 0.225574
v 0.281438 0.489111 0.231750
v 0.260058 0.487792 0.239391
v 0.264600 0.487361 0.239391
v 0.255523 0.487109 0.243926
v 0.246452 0.487213 0.248456
v 0.237375 0.487540 0.252997
v 0.241917 0.487778 0.248456
v 0.219703 0.489003 0.257644
v 0.219703 0.493646 0.273967
v 0.222081 0.493890 0.273563
v 0.246452 0.493172 0.265151
v 0.265000 0.490289 0.252876
v 0.264600 0.492755 0.256446
v 0.273671 0.492719 0.251950
v 0.276641 0.493441 0.251168
v 0.281714 0.493118 0.247126
v 0.285919 0.493222 0.242829
v 0.289923 0.497628 0.237960
v 0.290109 0.500808 0.234911
v 0.290013 0.503769 0.233436
v 0.289840 0.508013 0.228551
v 0.287283 0.506928 0.231745
v 0.285664 0.517949 0.218482
v 0.278213 0.497678 0.218482
v 0.278213 0.495630 0.221027
v 0.278213 0.493833 0.223295
v 0.278213 0.488144 0.234850
v 0.269135 0.487131 0.239391
v 0.281225 0.498109 0.218482
v 0.283989 0.494390 0.223927
v 0.285698 0.493312 0.226954
v 0.282872 0.490322 0.230270
v 0.284140 0.489858 0.234850
v 0.281873 0.488938 0.234850
v 0.260058 0.486958 0.243926
v 0.241917 0.487364 0.252997
v 0.250988 0.487138 0.248456
v 0.219703 0.488640 0.262102
v 0.223763 0.488486 0.257533
v 0.219703 0.491946 0.271178
v 0.246452 0.491256 0.262074
v 0.266778 0.489474 0.250696
v 0.269135 0.489743 0.250153
v 0.269239 0.492061 0.253258
v 0.274043 0.490275 0.248473
v 0.278178 0.492252 0.248567
v 0.278213 0.489962 0.245346
v 0.280922 0.489222 0.242108
v 0.282831 0.491659 0.243982
v 0.286622 0.492478 0.239391
v 0.283754 0.490207 0.239391
v 0.289075 0.495328 0.234850
v 0.289902 0.497599 0.234850
v 0.290116 0.505303 0.230165
v 0.289999 0.500966 0.230592
v 0.289840 0.508013 0.227098
v 0.286084 0.517018 0.218482
v 0.278213 0.488051 0.239391
v 0.273671 0.487325 0.239391
v 0.264600 0.486998 0.243926
v 0.283492 0.500632 0.218482
v 0.285595 0.497416 0.222585
v 0.286442 0.496046 0.225574
v 0.288600 0.496514 0.230592
v 0.286387 0.492553 0.230314
v 0.281487 0.489021 0.239391
v 0.286808 0.492129 0.234850
v 0.246452 0.487594 0.252997
v 0.237375 0.488115 0.257533
v 0.219703 0.489132 0.265340
v 0.219703 0.490279 0.268112
v 0.219703 0.489995 0.267574
v 0.241800 0.490390 0.261714
v 0.246452 0.489812 0.258991
v 0.263752 0.489211 0.251284
v 0.260058 0.489934 0.254195
v 0.265000 0.488385 0.248894
v 0.269135 0.488687 0.247885
v 0.272782 0.489096 0.246970
v 0.275807 0.489499 0.246122
v 0.278213 0.488787 0.243073
v 0.289647 0.498192 0.232288
v 0.289909 0.505336 0.227098
v 0.289737 0.502587 0.227731
v 0.287821 0.509874 0.221238
v 0.286815 0.512491 0.218482
v 0.269135 0.487386 0.243926
v 0.260058 0.487666 0.248456
v 0.284781 0.503485 0.218482
v 0.284251 0.500042 0.219563
v 0.285829 0.501253 0.221138
v 0.285016 0.503068 0.218965
v 0.241800 0.488615 0.257821
v 0.243234 0.489585 0.259524
v 0.246452 0.488791 0.256723
v 0.274043 0.488356 0.244337
v 0.288862 0.505336 0.224831
v 0.286298 0.509874 0.218482
v 0.286091 0.508908 0.218482
vn -0.634835 -0.064649 -0.769938
vn -0.509450 -0.669539 -0.540536
vn -0.127281 0.958862 -0.253737
vn -0.484164 -0.687613 -0.541086
vn -0.512917 -0.674095 -0.531519
vn -0.964867 0.245876 0.092609
vn 0.000362 0.032544 -0.999470
vn -0.389476 -0.723809 -0.569569
vn -0.452612 -0.741676 -0.495035
vn -0.528098 -0.694047 -0.489296
vn -0.525693 -0.690886 -0.496310
vn -0.525351 -0.690435 -0.497298
vn -0.519544 -0.682805 -0.513665
vn -0.929596 0.282755 0.236434
vn 0.306067 0.730395 0.610611
vn 0.002945 0.999978 0.005875
vn 0.038240 0.996372 0.076025
vn 0.020085 0.047982 -0.998646
vn -0.251363 -0.830256 -0.497486
vn -0.521502 -0.732217 -0.438056
vn -0.955708 0.223750 0.191200
vn 0.306453 0.729186 0.611862
vn 0.306172 0.730292 0.610682
vn 0.306222 0.730390 0.610539
vn 0.058938 0.991321 0.117510
vn 0.306235 0.730317 0.610621
vn 0.024228 0.998541 0.048263
vn 0.306326 0.730619 0.610213
vn 0.017763 0.042388 -0.998943
vn -0.162686 -0.818203 -0.551432
vn -0.171544 -0.849730 -0.498530
vn -0.194520 -0.859517 -0.472644
vn -0.217121 -0.855626 -0.469854
vn -0.239265 -0.874370 -0.422172
vn -0.260520 -0.851055 -0.455889
vn -0.301793 -0.841085 -0.448884
vn -0.992411 0.093332 0.080058
vn 0.346274 0.549667 0.760237
vn 0.314062 0.710169 0.630099
vn 0.307511 0.727022 0.613903
vn 0.306604 0.729373 0.611563
vn 0.307027 0.728898 0.611916
vn 0.306268 0.730200 0.610744
vn 0.306254 0.730358 0.610561
vn 0.306204 0.730472 0.610450
vn 0.003207 0.999974 0.006392
vn 0.306692 0.729916 0.610871
vn 0.306512 0.730320 0.610477
vn 0.311791 0.731637 0.606212
vn 0.003520 0.008125 -0.999961
vn -0.084609 -0.503494 -0.859846
vn -0.146852 -0.846757 -0.511309
vn -0.166666 -0.849381 -0.500774
vn -0.164030 -0.863150 -0.477563
vn -0.146317 -0.925121 -0.350346
vn -0.175081 -0.907458 -0.381925
vn -0.165831 -0.944842 -0.282443
vn -0.201890 -0.919733 -0.336647
vn -0.414265 -0.812433 -0.410289
vn -0.998364 0.014165 0.055400
vn -0.831539 0.052343 0.552995
vn 0.373167 0.281758 0.883945
vn 0.362319 0.569277 0.738003
vn 0.333082 0.662809 0.670627
vn 0.316493 0.706244 0.633286
vn 0.313380 0.716734 0.622965
vn 0.345878 0.665841 0.661078
vn 0.472594 0.570830 0.671422
vn 0.327343 0.723020 0.608349
vn 0.313700 0.728949 0.608462
vn 0.342853 0.726683 0.595301
vn 0.344979 0.735859 0.582668
vn 0.042390 0.090459 -0.994998
vn -0.038349 -0.249370 -0.967649
vn -0.120754 -0.779581 -0.614551
vn -0.130033 -0.799007 -0.587093
vn -0.129398 -0.833098 -0.537777
vn -0.152391 -0.834940 -0.528821
vn -0.084740 -0.921294 -0.379522
vn -0.140207 -0.891674 -0.430418
vn 0.036568 -0.864060 -0.502059
vn -0.158637 -0.865111 -0.475834
vn -0.136791 -0.907837 -0.396383
vn -0.123181 -0.932938 -0.338309
vn -0.120622 -0.966038 -0.228519
vn -0.395567 -0.892854 -0.215263
vn -0.992369 -0.115082 -0.044272
vn -0.987500 -0.143412 -0.065393
vn -0.828578 -0.123296 0.546129
vn 0.306258 -0.531740 0.789594
vn 0.411678 -0.340958 0.845144
vn 0.474900 0.431251 0.767133
vn 0.351604 0.645138 0.678360
vn 0.339623 0.661600 0.668537
vn 0.725349 0.074331 0.684357
vn 0.737840 0.369849 0.564628
vn 0.479163 0.651275 0.588425
vn 0.361503 0.715831 0.597412
vn 0.612583 0.221118 0.758847
vn 0.071752 0.135380 -0.988192
vn 0.395930 0.716730 0.574054
vn 0.448319 0.717470 0.533148
vn -0.016179 -0.249374 -0.968272
vn -0.062588 -0.794132 -0.604513
vn -0.021304 -0.834793 -0.550151
vn 0.022977 -0.952452 -0.303820
vn -0.033676 -0.968391 -0.247152
vn -0.093628 -0.945600 -0.311569
vn -0.121256 -0.924562 -0.361224
vn 0.128171 -0.793976 -0.594285
vn 0.226799 -0.841223 -0.490822
vn 0.228311 -0.917813 -0.324797
vn -0.105681 -0.945090 -0.309252
vn -0.073574 -0.967309 -0.242693
vn -0.050892 -0.991187 -0.122303
vn -0.048866 -0.997489 -0.051256
vn -0.087144 -0.993191 -0.077315
vn -0.128149 -0.975204 -0.180432
vn -0.838872 -0.536718 -0.090706
vn -0.825992 -0.472336 0.307628
vn 0.273132 -0.423393 0.863792
vn 0.194372 -0.812438 0.549695
vn 0.232522 -0.811432 0.536201
vn 0.271355 -0.767715 0.580500
vn 0.303837 -0.748895 0.588930
vn 0.445978 -0.485454 0.751956
vn 0.580309 -0.467387 0.666926
vn 0.722241 -0.514235 0.462527
vn 0.911577 -0.294931 0.286432
vn 0.999822 -0.016891 0.008372
vn 0.817735 0.424763 0.388441
vn 0.647115 0.632719 0.425333
vn 0.423192 0.697972 0.577705
vn 0.096342 0.067765 -0.993039
vn 0.003838 -0.259045 -0.965858
vn 0.000600 -0.781273 -0.624189
vn 0.000576 -0.801327 -0.598226
vn 0.108178 -0.987814 -0.111894
vn 0.000006 -0.993811 -0.111085
vn 0.085643 -0.153032 -0.984503
vn 0.412580 -0.680601 -0.605442
vn 0.648993 -0.642487 -0.407454
vn 0.440439 -0.835361 -0.328917
vn 0.546942 -0.836103 -0.042277
vn 0.279340 -0.960080 -0.014699
vn -0.013141 -0.999691 -0.021079
vn 0.008369 -0.992399 0.122774
vn -0.001412 -0.999121 0.041902
vn -0.790931 -0.610986 0.033530
vn -0.114000 -0.985802 -0.123282
vn -0.852134 -0.453657 0.260890
vn 0.159213 -0.860874 0.483267
vn 0.179984 -0.878494 0.442553
vn 0.255266 -0.814666 0.520729
vn 0.279852 -0.771513 0.571358
vn 0.309382 -0.776056 0.549563
vn 0.373567 -0.748418 0.548013
vn 0.375838 -0.766466 0.520842
vn 0.424230 -0.826159 0.370796
vn 0.505974 -0.718228 0.477638
vn 0.759544 -0.629073 0.165412
vn 0.559066 -0.802079 0.210034
vn 0.868478 -0.492898 -0.052897
vn 0.983241 -0.173377 -0.056371
vn 0.999710 0.019821 -0.013662
vn 0.993541 -0.082784 -0.077608
vn 0.967305 0.140592 -0.211080
vn 0.162386 0.042230 -0.985823
vn 0.197582 -0.974753 0.104009
vn 0.097693 -0.994893 0.025365
vn 0.051017 -0.990836 0.125066
vn 0.034822 -0.027713 -0.999009
vn 0.742626 -0.395195 -0.540673
vn 0.864840 -0.346182 -0.363607
vn 0.878209 -0.379468 -0.291122
vn 0.721855 -0.657344 -0.216390
vn 0.363937 -0.927300 0.087550
vn 0.742223 -0.669696 -0.024733
vn 0.077416 -0.968118 0.238232
vn 0.060678 -0.965857 0.251868
vn -0.690264 -0.701498 0.177304
vn -0.848527 -0.465328 0.251936
vn -0.445846 -0.816334 0.367179
vn 0.129772 -0.896513 0.423584
vn 0.148449 -0.898021 0.414151
vn 0.151840 -0.900100 0.408368
vn 0.159806 -0.890944 0.425066
vn 0.129093 -0.933234 0.335276
vn 0.168975 -0.922312 0.347545
vn 0.211331 -0.896951 0.388353
vn 0.268011 -0.853657 0.446586
vn 0.197403 -0.945113 0.260372
vn 0.927650 -0.302340 -0.219217
vn 0.968207 -0.047128 -0.245669
vn 0.886170 -0.263764 -0.380961
vn 0.914145 -0.076802 -0.398046
vn 0.112931 0.010414 -0.993548
vn 0.134038 -0.964871 0.225959
vn 0.100656 -0.954907 0.279323
vn 0.011956 -0.004385 -0.999919
vn 0.714298 -0.323727 -0.620467
vn 0.853812 -0.211313 -0.475764
vn 0.808727 -0.242479 -0.535877
vn 0.105391 -0.933078 0.343886
vn 0.126303 -0.902740 0.411227
vn 0.129483 -0.923360 0.361442
vn 0.176368 -0.933188 0.313138
vn 0.864067 -0.188110 -0.466908
vn 0.099818 -0.020625 -0.994792
vn 0.125997 -0.028915 -0.991609
f 1//1 2//2 5//5
f 1//1 5//5 13//13
f 1//1 13//13 12//12
f 1//1 12//12 11//11
f 1//1 11//11 10//10
f 1//1 10//10 9//9
f 1//1 9//9 20//20
f 1//1 20//20 36//36
f 1//1 36//36 59//59
f 1//1 59//59 88//88
f 1//1 88//88 87//87
f 1//1 87//87 86//86
f 1//1 86//86 119//119
f 1//1 119//119 149//149
f 1//1 149//149 181//181
f 1//1 181//181 183//183
f 1//1 183//183 182//182
f 1//1 182//182 151//151
f 1//1 151//151 120//120
f 1//1 120//120 89//89
f 1//1 89//89 61//61
f 1//1 61//61 60//60
f 1//1 60//60 37//37
f 1//1 37//37 21//21
f 1//1 21//21 14//14
f 1//1 14//14 6//6
f 1//1 6//6 3//3
f 1//1 3//3 7//7
f 1//1 7//7 18//18
f 1//1 18//18 29//29
f 1//1 29//29 50//50
f 1//1 50//50 73//73
f 1//1 73//73 100//100
f 1//1 100//100 134//134
f 1//1 134//134 168//168
f 1//1 168//168 197//197
f 1//1 197//197 209//209
f 1//1 209//209 210//210
f 1//1 210//210 200//200
f 1//1 200//200 172//172
f 1//1 172//172 140//140
f 1//1 140//140 135//135
f 1//1 135//135 103//103
f 1//1 103//103 74//74
f 1//1 74//74 51//51
f 1//1 51//51 30//30
f 1//1 30//30 19//19
f 1//1 19//19 8//8
f 1//1 8//8 4//4
f 1//1 4//4 2//2
f 2//2 4//4 5//5
f 3//3 6//6 16//16
f 3//3 16//16 25//25
f 3//3 25//25 46//46
f 3//3 46//46 27//27
f 3//3 27//27 17//17
f 3//3 17//17 7//7
f 4//4 8//8 9//9
f 4//4 9//9 10//10
f 4//4 10//10 11//11
f 4//4 11//11 12//12
f 4//4 12//12 13//13
f 4//4 13//13 5//5
f 6//6 14//14 15//15
f 6//6 15//15 16//16
f 7//7 17//17 18//18
f 8//8 19//19 9//9
f 9//9 19//19 20//20
f 14//14 21//21 22//22
f 14//14 22//22 23//23
f 14//14 23//23 15//15
f 15//15 24//24 25//25
f 15//15 25//25 16//16
f 15//15 23//23 26//26
f 15//15 26//26 24//24
f 17//17 27//27 28//28
f 17//17 28//28 18//18
f 18//18 28//28 29//29
f 19//19 30//30 31//31
f 19//19 31//31 32//32
f 19//19 32//32 33//33
f 19//19 33//33 34//34
f 19//19 34//34 35//35
f 19//19 35//35 36//36
f 19//19 36//36 20//20
f 21//21 37//37 38//38
f 21//21 38//38 22//22
f 22//22 38//38 39//39
f 22//22 39//39 40//40
f 22//22 40//40 41//41
f 22//22 41//41 42//42
f 22//22 42//42 43//43
f 22//22 43//43 23//23
f 23//23 43//43 26//26
f 24//24 26//26 44//44
f 24//24 44//44 45//45
f 24//24 45//45 25//25
f 25//25 45//45 46//46
f 26//26 47//47 44//44
f 26//26 43//43 47//47
f 27//27 46//46 45//45
f 27//27 45//45 28//28
f 28//28 45//45 44//44
f 28//28 44//44 48//48
f 28//28 48//48 71//71
f 28//28 71//71 49//49
f 28//28 49//49 29//29
f 29//29 49//49 50//50
f 30//30 51//51 52//52
f 30//30 52//52 53//53
f 30//30 53//53 31//31
f 31//31 53//53 54//54
f 31//31 54//54 32//32
f 32//32 54//54 55//55
f 32//32 55//55 56//56
f 32//32 56//56 33//33
f 33//33 56//56 34//34
f 34//34 56//56 57//57
f 34//34 57//57 58//58
f 34//34 58//58 59//59
f 34//34 59//59 36//36
f 34//34 36//36 35//35
f 37//37 60//60 38//38
f 38//38 60//60 61//61
f 38//38 61//61 62//62
f 38//38 62//62 63//63
f 38//38 63//63 64//64
f 38//38 64//64 39//39
f 39//39 64//64 65//65
f 39//39 65//65 40//40
f 40//40 65//65 66//66
f 40//40 66//66 42//42
f 40//40 42//42 41//41
f 42//42 66//66 67//67
f 42//42 67//67 47//47
f 42//42 47//47 43//43
f 44//44 47//47 48//48
f 47//47 67//67 68//68
f 47//47 68//68 69//69
f 47//47 69//69 70//70
f 47//47 70//70 48//48
f 48//48 70//70 71//71
f 49//49 71//71 72//72
f 49//49 72//72 73//73
f 49//49 73//73 50//50
f 51//51 74//74 75//75
f 51//51 75//75 76//76
f 51//51 76//76 77//77
f 51//51 77//77 78//78
f 51//51 78//78 52//52
f 52//52 79//79 80//80
f 52//52 80//80 53//53
f 52//52 78//78 77//77
f 52//52 77//77 81//81
f 52//52 81//81 79//79
f 53//53 80//80 82//82
f 53//53 82//82 54//54
f 54//54 83//83 55//55
f 54//54 82//82 83//83
f 55//55 83//83 84//84
f 55//55 84//84 85//85
f 55//55 85//85 57//57
f 55//55 57//57 56//56
f 57//57 86//86 58//58
f 57//57 85//85 86//86
f 58//58 86//86 87//87
f 58//58 87//87 88//88
f 58//58 88//88 59//59
f 61//61 89//89 62//62
f 62//62 90//90 91//91
f 62//62 91//91 63//63
f 62//62 89//89 90//90
f 63//63 91//91 126//126
f 63//63 126//126 92//92
f 63//63 92//92 93//93
f 63//63 93//93 94//94
f 63//63 94//94 64//64
f 64//64 94//94 66//66
f 64//64 66//66 65//65
f 66//66 94//94 67//67
f 67//67 94//94 93//93
f 67//67 93//93 92//92
f 67//67 92//92 68//68
f 68//68 95//95 96//96
f 68//68 96//96 97//97
f 68//68 97//97 98//98
f 68//68 98//98 69//69
f 68//68 92//92 99//99
f 68//68 99//99 95//95
f 69//69 98//98 70//70
f 70//70 98//98 71//71
f 71//71 100//100 72//72
f 71//71 98//98 101//101
f 71//71 101//101 102//102
f 71//71 102//102 100//100
f 72//72 100//100 73//73
f 74//74 103//103 104//104
f 74//74 104//104 75//75
f 75//75 104//104 76//76
f 76//76 104//104 77//77
f 77//77 104//104 105//105
f 77//77 105//105 81//81
f 79//79 81//81 106//106
f 79//79 106//106 107//107
f 79//79 107//107 108//108
f 79//79 108//108 109//109
f 79//79 109//109 80//80
f 80//80 109//109 83//83
f 80//80 83//83 82//82
f 81//81 105//105 110//110
f 81//81 110//110 111//111
f 81//81 111//111 112//112
f 81//81 112//112 106//106
f 83//83 109//109 84//84
f 84//84 109//109 113//113
f 84//84 113//113 85//85
f 85//85 113//113 114//114
f 85//85 114//114 115//115
f 85//85 115//115 116//116
f 85//85 116//116 117//117
f 85//85 117//117 118//118
f 85//85 118//118 119//119
f 85//85 119//119 86//86
f 89//89 120//120 121//121
f 89//89 121//121 90//90
f 90//90 121//121 122//122
f 90//90 122//122 123//123
f 90//90 123//123 124//124
f 90//90 124//124 91//91
f 91//91 124//124 125//125
f 91//91 125//125 126//126
f 92//92 126//126 127//127
f 92//92 127//127 99//99
f 95//95 99//99 127//127
f 95//95 127//127 128//128
f 95//95 128//128 129//129
f 95//95 129//129 96//96
f 96//96 129//129 130//130
f 96//96 130//130 131//131
f 96//96 131//131 97//97
f 97//97 131//131 132//132
f 97//97 132//132 133//133
f 97//97 133//133 98//98
f 98//98 133//133 101//101
f 100//100 102//102 134//134
f 101//101 133//133 132//132
f 101//101 132//132 102//102
f 102//102 132//132 134//134
f 103//103 135//135 104//104
f 104//104 135//135 136//136
f 104//104 136//136 137//137
f 104//104 137//137 105//105
f 105//105 137//137 110//110
f 106//106 138//138 107//107
f 106//106 112//112 138//138
f 107//107 138//138 139//139
f 107//107 139//139 114//114
f 107//107 114//114 108//108
f 108//108 114//114 113//113
f 108//108 113//113 109//109
f 110//110 140//140 141//141
f 110//110 141//141 111//111
f 110//110 137//137 136//136
f 110//110 136//136 135//135
f 110//110 135//135 140//140
f 111//111 141//141 142//142
f 111//111 142//142 143//143
f 111//111 143//143 112//112
f 112//112 143//143 144//144
f 112//112 144//144 145//145
f 112//112 145//145 138//138
f 114//114 139//139 115//115
f 115//115 139//139 146//146
f 115//115 146//146 116//116
f 116//116 147//147 117//117
f 116//116 146//146 148//148
f 116//116 148//148 147//147
f 117//117 147//147 149//149
f 117//117 149//149 150//150
f 117//117 150//150 118//118
f 118//118 150//150 119//119
f 119//119 150//150 149//149
f 120//120 151//151 152//152
f 120//120 152//152 122//122
f 120//120 122//122 121//121
f 122//122 152//152 123//123
f 123//123 153//153 154//154
f 123//123 154//154 124//124
f 123//123 152//152 153//153
f 124//124 154//154 155//155
f 124//124 155//155 125//125
f 125//125 156//156 126//126
f 125//125 155//155 156//156
f 126//126 156//156 157//157
f 126//126 157//157 127//127
f 127//127 157//157 158//158
f 127//127 158//158 159//159
f 127//127 159//159 160//160
f 127//127 160//160 128//128
f 128//128 161//161 129//129
f 128//128 160//160 159//159
f 128//128 159//159 162//162
f 128//128 162//162 161//161
f 129//129 161//161 163//163
f 129//129 163//163 164//164
f 129//129 164//164 130//130
f 130//130 165//165 131//131
f 130//130 164//164 166//166
f 130//130 166//166 165//165
f 131//131 165//165 132//132
f 132//132 165//165 167//167
f 132//132 167//167 168//168
f 132//132 168//168 134//134
f 138//138 169//169 170//170
f 138//138 170//170 139//139
f 138//138 145//145 169//169
f 139//139 170//170 171//171
f 139//139 171//171 146//146
f 140//140 172//172 173//173
f 140//140 173//173 141//141
f 141//141 173//173 142//142
f 142//142 173//173 174//174
f 142//142 174//174 175//175
f 142//142 175//175 176//176
f 142//142 176//176 143//143
f 143//143 176//176 144//144
f 144//144 162//162 177//177
f 144//144 177//177 145//145
f 144//144 176//176 178//178
f 144//144 178//178 161//161
f 144//144 161//161 162//162
f 145//145 177//177 169//169
f 146//146 171//171 148//148
f 147//147 148//148 171//171
f 147//147 171//171 179//179
f 147//147 179//179 180//180
f 147//147 180//180 181//181
f 147//147 181//181 149//149
f 151//151 182//182 152//152
f 152//152 182//182 183//183
f 152//152 183//183 184//184
f 152//152 184//184 185//185
f 152//152 185//185 186//186
f 152//152 186//186 187//187
f 152//152 187//187 153//153
f 153//153 187//187 186//186
f 153//153 186//186 188//188
f 153//153 188//188 189//189
f 153//153 189//189 154//154
f 154//154 189//189 190//190
f 154//154 190//190 191//191
f 154//154 191//191 156//156
f 154//154 156//156 155//155
f 156//156 191//191 158//158
f 156//156 158//158 157//157
f 158//158 191//191 159//159
f 159//159 177//177 162//162
f 159//159 191//191 192//192
f 159//159 192//192 169//169
f 159//159 169//169 177//177
f 161//161 178//178 163//163
f 163//163 175//175 193//193
f 163//163 193//193 164//164
f 163//163 178//178 176//176
f 163//163 176//176 175//175
f 164//164 193//193 166//166
f 165//165 166//166 194//194
f 165//165 194//194 167//167
f 166//166 193//193 195//195
f 166//166 195//195 194//194
f 167//167 194//194 196//196
f 167//167 196//196 197//197
f 167//167 197//197 168//168
f 169//169 192//192 198//198
f 169//169 198//198 170//170
f 170//170 198//198 171//171
f 171//171 199//199 179//179
f 171//171 198//198 199//199
f 172//172 200//200 201//201
f 172//172 201//201 173//173
f 173//173 202//202 195//195
f 173//173 195//195 174//174
f 173//173 201//201 203//203
f 173//173 203//203 202//202
f 174//174 195//195 175//175
f 175//175 195//195 193//193
f 179//179 204//204 180//180
f 179//179 199//199 204//204
f 180//180 204//204 181//181
f 181//181 204//204 183//183
f 183//183 204//204 205//205
f 183//183 205//205 184//184
f 184//184 205//205 185//185
f 185//185 205//205 206//206
f 185//185 206//206 186//186
f 186//186 206//206 188//188
f 188//188 199//199 198//198
f 188//188 198//198 189//189
f 188//188 206//206 199//199
f 189//189 198//198 207//207
f 189//189 207//207 190//190
f 190//190 207//207 192//192
f 190//190 192//192 191//191
f 192//192 207//207 198//198
f 194//194 195//195 208//208
f 194//194 208//208 196//196
f 195//195 202//202 208//208
f 196//196 208//208 209//209
f 196//196 209//209 197//197
f 199//199 206//206 204//204
f 200//200 203//203 201//201
f 200//200 210//210 203//203
f 202//202 210//210 208//208
f 202//202 203//203 210//210
f 204//204 206//206 205//205
f 208//208 210//210 209//209
