o link_3_16
v 0.273748 0.318401 -0.039358
v 0.273678 0.317603 -0.040321
v 0.270994 0.317433 -0.040079
v 0.270503 0.317929 -0.039358
v 0.275687 0.318132 -0.039358
v 0.287137 0.300084 -0.059257
v 0.273678 0.315526 -0.042589
v 0.287137 0.298087 -0.061525
v 0.270793 0.312994 -0.044703
v 0.269220 0.316917 -0.039358
v 0.276634 0.317645 -0.039358
v 0.276365 0.317386 -0.040142
v 0.287137 0.300158 -0.059155
v 0.273678 0.313257 -0.044943
v 0.287137 0.295818 -0.063445
v 0.278213 0.294922 -0.062984
v 0.273678 0.304072 -0.053929
v 0.270996 0.303767 -0.053648
v 0.266735 0.312723 -0.039976
v 0.266583 0.313123 -0.039358
v 0.266790 0.303573 -0.048894
v 0.280507 0.314000 -0.039358
v 0.287137 0.303991 -0.050461
v 0.287137 0.302340 -0.055038
v 0.287137 0.302215 -0.055369
v 0.287137 0.292057 -0.065034
v 0.281356 0.290063 -0.067076
v 0.279148 0.290063 -0.067076
v 0.277868 0.291773 -0.065570
v 0.271238 0.299087 -0.057990
v 0.268467 0.287907 -0.064712
v 0.266276 0.312275 -0.039358
v 0.266538 0.301140 -0.049390
v 0.265816 0.301140 -0.046493
v 0.281144 0.313251 -0.039358
v 0.287137 0.304460 -0.046256
v 0.287137 0.287907 -0.064756
v 0.283316 0.287907 -0.066483
v 0.281386 0.287907 -0.067137
v 0.278278 0.287907 -0.067482
v 0.277868 0.287955 -0.067526
v 0.277620 0.287907 -0.067542
v 0.273678 0.287907 -0.067349
v 0.276125 0.289752 -0.066886
v 0.273678 0.289376 -0.066433
v 0.269174 0.287907 -0.065308
v 0.267436 0.287907 -0.046504
v 0.266902 0.289958 -0.048025
v 0.266515 0.291707 -0.046504
v 0.265808 0.296603 -0.046493
v 0.265626 0.308272 -0.039358
v 0.265552 0.301140 -0.041955
v 0.285749 0.306430 -0.039358
v 0.287137 0.304630 -0.042413
v 0.287137 0.287907 -0.039358
v 0.277870 0.287907 -0.067526
v 0.267230 0.287907 -0.042708
v 0.266839 0.289669 -0.044998
v 0.266826 0.289597 -0.041955
v 0.266441 0.292066 -0.041955
v 0.265816 0.296603 -0.041955
v 0.265512 0.303735 -0.039358
v 0.287131 0.303200 -0.039358
v 0.287137 0.303129 -0.039358
v 0.267307 0.287907 -0.039358
v 0.267224 0.287907 -0.041955
v 0.266843 0.289657 -0.039474
v 0.266060 0.296603 -0.039358
v 0.265797 0.299200 -0.039358
v 0.267296 0.287907 -0.039667
v 0.266877 0.289540 -0.039358
v 0.266849 0.289716 -0.039358
v 0.266835 0.289845 -0.039358
vn 0.006020 0.054143 0.998515
vn 0.023668 0.748030 -0.663243
vn -0.133600 0.731104 -0.669058
vn -0.425878 0.743087 -0.516187
vn 0.113615 0.773897 -0.623037
vn 0.987444 0.120638 -0.101981
vn -0.050257 0.726868 -0.684936
vn -0.071296 0.697584 -0.712947
vn -0.251459 0.680852 -0.687901
vn -0.682393 0.546580 -0.485376
vn 0.611035 0.743380 -0.272070
vn 0.392776 0.782447 -0.483222
vn 0.485399 0.766610 -0.420353
vn -0.089334 0.700743 -0.707798
vn 0.045506 0.582230 -0.811750
vn -0.121672 0.658031 -0.743095
vn -0.113861 0.682258 -0.722191
vn -0.580294 0.549284 -0.601287
vn -0.707327 0.491721 -0.507837
vn -0.693213 0.325762 0.642911
vn -0.762421 0.430786 -0.482844
vn 0.695069 0.713554 -0.087862
vn 0.742190 0.643121 -0.188548
vn 0.680051 0.689415 -0.249473
vn 0.508125 0.760979 -0.403386
vn 0.692308 0.114789 -0.712413
vn 0.172887 0.268617 -0.947605
vn -0.062291 0.509226 -0.858375
vn -0.129940 0.631673 -0.764267
vn -0.276702 0.614704 -0.738631
vn -0.375365 -0.918980 -0.120736
vn -0.971247 0.187841 0.146269
vn -0.959180 0.143433 -0.243721
vn -0.983671 0.079359 -0.161537
vn 0.791595 0.574989 0.206797
vn 0.887659 0.459057 -0.036439
vn 0.559231 -0.828608 -0.025877
vn 0.234972 -0.761731 -0.603783
vn 0.079298 -0.913079 -0.399997
vn 0.055694 -0.863149 -0.501868
vn 0.091663 0.059141 -0.994032
vn -0.026218 -0.458605 -0.888254
vn -0.204689 -0.010947 -0.978766
vn -0.186882 0.599405 -0.778324
vn -0.322386 0.565266 -0.759303
vn -0.397167 0.536581 -0.744540
vn -0.954951 -0.291872 -0.053652
vn -0.969286 -0.238877 -0.058511
vn -0.987417 -0.147575 -0.056826
vn -0.993898 -0.077354 -0.078635
vn -0.801792 0.065688 0.593982
vn -0.999501 -0.005448 -0.031127
vn 0.485693 0.289283 0.824874
vn 0.943022 0.332271 0.017452
vn 0.434713 -0.693798 0.574168
vn 0.001196 -0.999915 -0.012969
vn -0.950350 -0.309147 -0.035534
vn -0.977657 -0.208751 -0.024696
vn -0.983773 -0.179415 -0.001095
vn -0.989753 -0.142738 0.003735
vn -0.994616 -0.096293 0.038300
vn -0.412965 -0.013232 0.910651
vn 0.368507 0.154994 0.916613
vn 0.858262 0.000049 0.513212
vn -0.000627 -0.625344 0.780349
vn -0.784115 -0.620456 0.014082
vn -0.988733 -0.139589 0.054050
vn -0.254839 -0.028245 0.966571
vn -0.260825 -0.020052 0.965178
vn -0.563086 -0.826205 0.017904
vn -0.181058 -0.047445 0.982327
vn -0.010630 -0.001478 0.999942
vn -0.011360 -0.001302 0.999935
f 1//1 2//2 3//3
f 1//1 3//3 4//4
f 1//1 4//4 10//10
f 1//1 10//10 20//20
f 1//1 20//20 32//32
f 1//1 32//32 51//51
f 1//1 51//51 62//62
f 1//1 62//62 69//69
f 1//1 69//69 68//68
f 1//1 68//68 73//73
f 1//1 73//73 72//72
f 1//1 72//72 71//71
f 1//1 71//71 65//65
f 1//1 65//65 55//55
f 1//1 55//55 64//64
f 1//1 64//64 63//63
f 1//1 63//63 53//53
f 1//1 53//53 35//35
f 1//1 35//35 22//22
f 1//1 22//22 11//11
f 1//1 11//11 5//5
f 1//1 5//5 6//6
f 1//1 6//6 2//2
f 2//2 7//7 3//3
f 2//2 6//6 8//8
f 2//2 8//8 7//7
f 3//3 7//7 9//9
f 3//3 9//9 4//4
f 4//4 9//9 10//10
f 5//5 11//11 12//12
f 5//5 12//12 6//6
f 6//6 12//12 13//13
f 6//6 13//13 25//25
f 6//6 25//25 24//24
f 6//6 24//24 23//23
f 6//6 23//23 36//36
f 6//6 36//36 54//54
f 6//6 54//54 64//64
f 6//6 64//64 55//55
f 6//6 55//55 37//37
f 6//6 37//37 26//26
f 6//6 26//26 15//15
f 6//6 15//15 8//8
f 7//7 14//14 9//9
f 7//7 8//8 14//14
f 8//8 15//15 16//16
f 8//8 16//16 17//17
f 8//8 17//17 14//14
f 9//9 14//14 17//17
f 9//9 17//17 18//18
f 9//9 18//18 10//10
f 10//10 19//19 20//20
f 10//10 18//18 21//21
f 10//10 21//21 19//19
f 11//11 22//22 23//23
f 11//11 23//23 24//24
f 11//11 24//24 25//25
f 11//11 25//25 13//13
f 11//11 13//13 12//12
f 15//15 26//26 27//27
f 15//15 27//27 28//28
f 15//15 28//28 29//29
f 15//15 29//29 16//16
f 16//16 30//30 17//17
f 16//16 29//29 30//30
f 17//17 30//30 18//18
f 18//18 30//30 31//31
f 18//18 31//31 21//21
f 19//19 21//21 20//20
f 20//20 21//21 32//32
f 21//21 33//33 34//34
f 21//21 34//34 32//32
f 21//21 31//31 33//33
f 22//22 35//35 23//23
f 23//23 35//35 36//36
f 26//26 37//37 38//38
f 26//26 38//38 27//27
f 27//27 38//38 39//39
f 27//27 39//39 40//40
f 27//27 40//40 41//41
f 27//27 41//41 42//42
f 27//27 42//42 28//28
f 28//28 42//42 43//43
f 28//28 43//43 44//44
f 28//28 44//44 29//29
f 29//29 44//44 30//30
f 30//30 44//44 45//45
f 30//30 45//45 46//46
f 30//30 46//46 31//31
f 31//31 46//46 43//43
f 31//31 43//43 42//42
f 31//31 42//42 56//56
f 31//31 56//56 40//40
f 31//31 40//40 39//39
f 31//31 39//39 38//38
f 31//31 38//38 37//37
f 31//31 37//37 55//55
f 31//31 55//55 65//65
f 31//31 65//65 70//70
f 31//31 70//70 66//66
f 31//31 66//66 57//57
f 31//31 57//57 47//47
f 31//31 47//47 48//48
f 31//31 48//48 49//49
f 31//31 49//49 50//50
f 31//31 50//50 34//34
f 31//31 34//34 33//33
f 32//32 34//34 51//51
f 34//34 52//52 51//51
f 34//34 50//50 52//52
f 35//35 53//53 54//54
f 35//35 54//54 36//36
f 40//40 56//56 41//41
f 41//41 56//56 42//42
f 43//43 46//46 45//45
f 43//43 45//45 44//44
f 47//47 57//57 48//48
f 48//48 58//58 49//49
f 48//48 57//57 58//58
f 49//49 58//58 59//59
f 49//49 59//59 60//60
f 49//49 60//60 50//50
f 50//50 60//60 61//61
f 50//50 61//61 52//52
f 51//51 52//52 62//62
f 52//52 61//61 62//62
f 53//53 63//63 54//54
f 54//54 63//63 64//64
f 57//57 66//66 59//59
f 57//57 59//59 58//58
f 59//59 66//66 67//67
f 59//59 67//67 60//60
f 60//60 67//67 61//61
f 61//61 68//68 69//69
f 61//61 69//69 62//62
f 61//61 67//67 68//68
f 65//65 71//71 70//70
f 66//66 70//70 71//71
f 66//66 71//71 67//67
f 67//67 71//71 72//72
f 67//67 72//72 73//73
f 67//67 73//73 68//68
