o link_2_5
v 0.155763 0.221819 -0.091870
v 0.155763 0.221800 -0.089434
v 0.155763 0.219485 -0.094881
v 0.151148 0.218090 -0.095036
v 0.148051 0.217477 -0.094536
v 0.138907 0.213203 -0.094986
v 0.154502 0.221196 -0.091870
v 0.155763 0.221661 -0.087333
v 0.138907 0.213203 -0.092890
v 0.155763 0.214707 -0.095196
v 0.151148 0.214915 -0.096302
v 0.140975 0.208752 -0.098918
v 0.122209 0.199256 -0.103360
v 0.121071 0.199256 -0.103360
v 0.134377 0.208475 -0.098988
v 0.124915 0.204241 -0.099448
v 0.098596 0.190155 -0.103505
v 0.154563 0.220939 -0.087333
v 0.155763 0.221275 -0.086442
v 0.098596 0.190155 -0.102670
v 0.130497 0.208277 -0.093861
v 0.146619 0.210384 -0.097552
v 0.155763 0.214024 -0.095051
v 0.142971 0.205844 -0.098128
v 0.140706 0.205844 -0.098868
v 0.122209 0.198098 -0.103360
v 0.077602 0.172587 -0.112825
v 0.074027 0.172478 -0.112769
v 0.071396 0.171924 -0.112394
v 0.084861 0.181163 -0.108117
v 0.053058 0.163090 -0.112794
v 0.139972 0.212521 -0.089864
v 0.152629 0.217764 -0.084451
v 0.155763 0.218891 -0.083346
v 0.053058 0.163090 -0.111614
v 0.062166 0.167611 -0.107332
v 0.155763 0.210384 -0.093976
v 0.154441 0.210384 -0.094586
v 0.153511 0.208030 -0.094176
v 0.139837 0.203539 -0.098688
v 0.057612 0.154662 -0.116671
v 0.058346 0.157689 -0.116896
v 0.058346 0.158896 -0.116896
v 0.055873 0.159193 -0.117192
v 0.046937 0.156255 -0.118017
v 0.048553 0.158303 -0.116916
v 0.062092 0.167611 -0.112679
v 0.042261 0.154742 -0.117687
v 0.039850 0.153812 -0.116936
v 0.045383 0.157966 -0.114555
v 0.042261 0.156028 -0.114555
v 0.134892 0.208366 -0.089294
v 0.144697 0.212343 -0.085377
v 0.147720 0.213569 -0.084226
v 0.154723 0.216092 -0.081425
v 0.155763 0.216527 -0.081065
v 0.039188 0.149805 -0.107057
v 0.039654 0.153960 -0.111869
v 0.041123 0.152832 -0.108848
v 0.155763 0.207614 -0.092790
v 0.155763 0.206249 -0.092180
v 0.149091 0.203361 -0.094241
v 0.146337 0.201630 -0.094816
v 0.062594 0.149212 -0.112249
v 0.138552 0.200512 -0.098108
v 0.060819 0.150992 -0.113850
v 0.056008 0.151438 -0.116016
v 0.054576 0.152971 -0.117091
v 0.046790 0.151398 -0.119082
v 0.051332 0.155939 -0.118047
v 0.042261 0.151398 -0.118707
v 0.035222 0.149311 -0.116966
v 0.034916 0.149568 -0.114555
v 0.039629 0.154000 -0.114555
v 0.049006 0.153713 -0.103170
v 0.139837 0.208089 -0.085087
v 0.155763 0.214578 -0.079479
v 0.149899 0.211799 -0.081200
v 0.036165 0.148470 -0.108643
v 0.034598 0.145443 -0.106957
v 0.037781 0.146798 -0.105491
v 0.041110 0.148153 -0.104030
v 0.034965 0.149538 -0.111669
v 0.155763 0.202480 -0.090214
v 0.144636 0.198731 -0.094296
v 0.068213 0.148144 -0.108377
v 0.065054 0.146719 -0.109348
v 0.045383 0.134809 -0.112830
v 0.143142 0.195704 -0.093465
v 0.153388 0.199068 -0.089584
v 0.046582 0.146996 -0.117582
v 0.051271 0.151438 -0.117642
v 0.044930 0.144256 -0.116976
v 0.042261 0.141051 -0.116396
v 0.042261 0.143316 -0.117172
v 0.042261 0.146858 -0.118192
v 0.034720 0.143534 -0.117172
v 0.037720 0.146858 -0.117797
v 0.034733 0.146858 -0.117192
v 0.030779 0.144859 -0.112684
v 0.030779 0.144859 -0.111924
v 0.044134 0.149449 -0.102950
v 0.155763 0.214480 -0.079399
v 0.148100 0.208772 -0.080004
v 0.033264 0.146660 -0.110283
v 0.031574 0.143267 -0.108898
v 0.033190 0.141971 -0.105756
v 0.034818 0.140675 -0.102790
v 0.036373 0.143702 -0.103930
v 0.039397 0.145127 -0.102820
v 0.155763 0.200136 -0.088838
v 0.066646 0.145117 -0.107367
v 0.145737 0.193172 -0.090439
v 0.144146 0.190145 -0.089479
v 0.063622 0.143811 -0.108307
v 0.054147 0.135027 -0.108087
v 0.049080 0.130971 -0.107762
v 0.046790 0.130378 -0.108372
v 0.042261 0.132020 -0.111334
v 0.042261 0.134285 -0.113185
v 0.042261 0.137787 -0.115026
v 0.052115 0.132000 -0.106902
v 0.037720 0.140507 -0.116671
v 0.037720 0.142772 -0.117317
v 0.034990 0.135235 -0.112554
v 0.033362 0.138054 -0.113380
v 0.030779 0.139735 -0.112499
v 0.030705 0.142327 -0.112744
v 0.030717 0.141981 -0.110253
v 0.030852 0.140250 -0.107577
v 0.153425 0.208109 -0.075992
v 0.155763 0.211027 -0.076673
v 0.155763 0.211215 -0.076818
v 0.034108 0.137787 -0.101769
v 0.035479 0.135452 -0.098688
v 0.044856 0.144276 -0.098868
v 0.108732 0.175653 -0.080895
v 0.155763 0.196694 -0.086602
v 0.139458 0.185733 -0.089384
v 0.155763 0.196644 -0.086567
v 0.054429 0.130219 -0.103875
v 0.141673 0.183438 -0.086012
v 0.139886 0.180827 -0.085122
v 0.049386 0.126243 -0.103395
v 0.050744 0.129082 -0.105146
v 0.049434 0.121574 -0.099028
v 0.046790 0.125689 -0.103930
v 0.046790 0.123423 -0.101634
v 0.042261 0.125145 -0.104326
v 0.037720 0.134601 -0.112975
v 0.037720 0.137787 -0.115091
v 0.052409 0.127202 -0.102510
v 0.035492 0.131001 -0.107707
v 0.033362 0.134394 -0.109668
v 0.031954 0.136718 -0.110949
v 0.038674 0.125521 -0.103925
v 0.030852 0.135422 -0.107922
v 0.030766 0.138054 -0.109668
v 0.030828 0.137787 -0.107452
v 0.031844 0.137787 -0.105181
v 0.148688 0.203757 -0.075862
v 0.151148 0.204835 -0.075102
v 0.155763 0.209128 -0.075267
v 0.035161 0.132435 -0.098288
v 0.037291 0.133662 -0.097197
v 0.043191 0.132267 -0.093445
v 0.104227 0.170925 -0.080900
v 0.107263 0.172626 -0.080179
v 0.152666 0.199760 -0.071070
v 0.154233 0.202787 -0.071910
v 0.155763 0.206269 -0.073311
v 0.154233 0.193835 -0.085547
v 0.149434 0.189492 -0.085447
v 0.144660 0.185140 -0.085297
v 0.155763 0.192203 -0.083141
v 0.155763 0.191837 -0.082836
v 0.154478 0.189087 -0.081335
v 0.149642 0.184843 -0.081130
v 0.134989 0.176573 -0.084811
v 0.054417 0.125817 -0.099483
v 0.058224 0.126381 -0.094271
v 0.049777 0.121386 -0.096402
v 0.046790 0.120772 -0.096402
v 0.046790 0.121396 -0.099363
v 0.152666 0.186060 -0.079784
v 0.155763 0.187445 -0.078514
v 0.154233 0.184922 -0.076758
v 0.043669 0.121554 -0.099243
v 0.038062 0.124887 -0.100944
v 0.035798 0.127014 -0.100944
v 0.030852 0.135422 -0.107522
v 0.035161 0.129992 -0.098288
v 0.155763 0.206536 -0.073491
v 0.042898 0.128716 -0.093100
v 0.046790 0.128716 -0.091395
v 0.112502 0.167374 -0.075957
v 0.110715 0.169154 -0.077363
v 0.105757 0.169471 -0.079649
v 0.121095 0.176949 -0.075732
v 0.143730 0.190610 -0.071195
v 0.145150 0.193637 -0.071835
v 0.148173 0.195200 -0.071130
v 0.151160 0.196733 -0.070475
v 0.155726 0.201284 -0.070380
v 0.155763 0.203489 -0.071500
v 0.155763 0.192084 -0.083046
v 0.155763 0.187623 -0.078699
v 0.064259 0.129853 -0.091870
v 0.049643 0.121534 -0.093581
v 0.046790 0.121287 -0.093395
v 0.043865 0.121445 -0.093696
v 0.043387 0.121297 -0.096402
v 0.155763 0.187326 -0.078353
v 0.155763 0.185872 -0.073721
v 0.089121 0.145067 -0.087333
v 0.038736 0.125293 -0.097742
v 0.034843 0.129280 -0.100944
v 0.040621 0.128716 -0.094646
v 0.043400 0.124175 -0.093290
v 0.046790 0.124175 -0.092005
v 0.053278 0.126282 -0.089514
v 0.053278 0.127182 -0.089514
v 0.112502 0.167186 -0.075957
v 0.142077 0.183151 -0.070350
v 0.146619 0.187692 -0.069559
v 0.138588 0.183151 -0.071080
v 0.151148 0.192232 -0.068904
v 0.142163 0.187455 -0.070830
v 0.119504 0.173813 -0.075307
v 0.155690 0.196763 -0.068629
v 0.155763 0.196832 -0.068624
v 0.155763 0.201284 -0.070365
v 0.155763 0.201343 -0.070395
v 0.154221 0.184942 -0.073721
v 0.086587 0.143870 -0.084381
v 0.063781 0.130130 -0.088793
v 0.060011 0.127479 -0.091970
v 0.054453 0.126282 -0.089514
v 0.155763 0.186040 -0.073076
v 0.142077 0.180214 -0.070935
v 0.114852 0.166859 -0.075747
v 0.138454 0.180322 -0.071080
v 0.155690 0.192232 -0.067994
v 0.155763 0.192321 -0.067984
v 0.155763 0.196763 -0.068604
v 0.153682 0.185288 -0.071240
v 0.145786 0.180115 -0.073721
v 0.144856 0.180560 -0.071135
v 0.155763 0.187781 -0.070010
v 0.151148 0.187692 -0.069099
v 0.155763 0.192232 -0.067994
v 0.155763 0.188038 -0.069809
vn 0.998439 0.050102 -0.024697
vn -0.456557 0.888975 0.035782
vn 0.097822 0.366324 -0.925331
vn -0.191045 0.662277 -0.724494
vn -0.317477 0.783849 -0.533656
vn -0.440986 0.870461 -0.218697
vn -0.455314 0.890322 0.003887
vn -0.440259 0.892314 0.099735
vn -0.488849 0.869540 0.070196
vn 0.431242 -0.044411 -0.901143
vn 0.218282 0.066449 -0.973621
vn 0.191897 0.084056 -0.977809
vn 0.132560 0.158938 -0.978349
vn -0.177357 0.597595 -0.781936
vn -0.268098 0.711393 -0.649649
vn -0.330362 0.776000 -0.537295
vn -0.432060 0.849039 -0.304067
vn -0.508209 0.785438 0.353286
vn -0.370692 0.777204 0.508469
vn -0.517409 0.847923 0.115389
vn -0.526512 0.782431 0.332545
vn 0.249929 -0.023868 -0.967970
vn 0.650934 -0.197686 -0.732943
vn 0.338152 -0.216211 -0.915918
vn 0.290773 -0.138993 -0.946642
vn 0.250962 -0.067926 -0.965611
vn 0.117905 0.146148 -0.982211
vn -0.104663 0.474047 -0.874257
vn -0.271429 0.696733 -0.663996
vn -0.318090 0.753005 -0.576023
vn -0.446742 0.838277 -0.312590
vn -0.513768 0.713070 0.477048
vn -0.494144 0.642451 0.585729
vn 0.512410 0.643720 0.568384
vn -0.534940 0.817393 0.213792
vn -0.521173 0.717601 0.461983
vn 0.950899 -0.106708 -0.290524
vn 0.383254 -0.272866 -0.882417
vn 0.405231 -0.363618 -0.838790
vn 0.382810 -0.324703 -0.864884
vn 0.346899 -0.258117 -0.901686
vn 0.264116 -0.099113 -0.959385
vn 0.156377 0.063706 -0.985641
vn 0.027650 0.260792 -0.964999
vn -0.081814 0.366375 -0.926863
vn -0.279282 0.682835 -0.675084
vn -0.364477 0.775449 -0.515592
vn -0.369202 0.658291 -0.656005
vn -0.561939 0.765790 -0.312714
vn -0.497154 0.826119 -0.265264
vn -0.564043 0.825741 -0.002582
vn -0.506945 0.664388 0.549177
vn -0.488746 0.607799 0.625866
vn -0.482743 0.594930 0.642664
vn -0.473842 0.583224 0.659791
vn -0.121414 0.643189 0.756020
vn -0.499732 0.628155 0.596397
vn -0.574007 0.746058 0.337511
vn -0.509599 0.666021 0.544724
vn 0.958865 -0.113081 -0.260365
vn 0.682084 -0.327254 -0.653962
vn 0.420535 -0.390810 -0.818791
vn 0.411429 -0.382006 -0.827525
vn 0.423243 -0.416875 -0.804413
vn 0.397145 -0.353221 -0.847060
vn 0.382986 -0.344657 -0.857049
vn 0.331454 -0.371755 -0.867143
vn 0.302628 -0.326286 -0.895519
vn 0.133968 -0.096711 -0.986255
vn 0.019967 0.213662 -0.976704
vn -0.164940 0.086565 -0.982498
vn -0.580607 0.425293 -0.694278
vn -0.714374 0.697479 -0.056505
vn -0.659657 0.750067 -0.047461
vn -0.485669 0.598625 0.637004
vn -0.474828 0.571654 0.669141
vn 0.316062 0.598714 0.735967
vn -0.468488 0.555508 0.686972
vn -0.594403 0.632275 0.496903
vn -0.616448 0.545043 0.568261
vn -0.522228 0.567150 0.636882
vn -0.495999 0.577076 0.648821
vn -0.687821 0.677651 0.260177
vn 0.689466 -0.347838 -0.635331
vn 0.426798 -0.413758 -0.804144
vn 0.448438 -0.469706 -0.760447
vn 0.428494 -0.478615 -0.766369
vn 0.362797 -0.451083 -0.815415
vn 0.438171 -0.442784 -0.782271
vn 0.443491 -0.456862 -0.771098
vn 0.308323 -0.359168 -0.880872
vn 0.294969 -0.320789 -0.900049
vn 0.251513 -0.361849 -0.897667
vn 0.157342 -0.346940 -0.924595
vn 0.100307 -0.293977 -0.950535
vn -0.023133 -0.177495 -0.983850
vn -0.372006 -0.240082 -0.896645
vn -0.194358 -0.005190 -0.980917
vn -0.548990 0.070363 -0.832862
vn -0.834720 0.336346 -0.436021
vn -0.837062 0.500397 0.221201
vn -0.466469 0.547851 0.694453
vn -0.067974 0.619330 0.782183
vn -0.465483 0.547075 0.695726
vn -0.676036 0.576010 0.459551
vn -0.723194 0.478893 0.497647
vn -0.702399 0.439783 0.559667
vn -0.604253 0.465763 0.646485
vn -0.524450 0.545292 0.653918
vn -0.457934 0.517508 0.722829
vn 0.618731 -0.420318 -0.663705
vn 0.463141 -0.511307 -0.723924
vn 0.451322 -0.476421 -0.754541
vn 0.456179 -0.488757 -0.743652
vn 0.440194 -0.491633 -0.751349
vn 0.471757 -0.546392 -0.692027
vn 0.375933 -0.599989 -0.706178
vn 0.275214 -0.649354 -0.708940
vn 0.083282 -0.691493 -0.717567
vn 0.023623 -0.535779 -0.844028
vn 0.176740 -0.409672 -0.894948
vn 0.413931 -0.576069 -0.704845
vn -0.066874 -0.407501 -0.910753
vn -0.042541 -0.203788 -0.978090
vn -0.411340 -0.590659 -0.694206
vn -0.478758 -0.438631 -0.760522
vn -0.713145 -0.354224 -0.604938
vn -0.879551 -0.012174 -0.475650
vn -0.999378 0.012707 0.032911
vn -0.828021 0.285896 0.482332
vn -0.457880 0.523041 0.718869
vn -0.420000 0.547780 0.723559
vn -0.410423 0.559213 0.720301
vn -0.733987 0.359594 0.576156
vn -0.446468 0.417103 0.791638
vn -0.453263 0.498994 0.738619
vn -0.447929 0.494320 0.744988
vn 0.795764 -0.330184 -0.507680
vn 0.472395 -0.535256 -0.700246
vn 0.820295 -0.334837 -0.463681
vn 0.484106 -0.576663 -0.658104
vn 0.477699 -0.551977 -0.683466
vn 0.490161 -0.588003 -0.643425
vn 0.363954 -0.627011 -0.688763
vn 0.397473 -0.607402 -0.687807
vn 0.516353 -0.748543 -0.416007
vn 0.213621 -0.679805 -0.701592
vn 0.143463 -0.713865 -0.685431
vn -0.054825 -0.742897 -0.667157
vn -0.169061 -0.674291 -0.718853
vn -0.141335 -0.525266 -0.839119
vn 0.490036 -0.613979 -0.618785
vn -0.574305 -0.658573 -0.486266
vn -0.584225 -0.642563 -0.495777
vn -0.619094 -0.579994 -0.529461
vn -0.430367 -0.740668 -0.515941
vn -0.684504 -0.626002 -0.373599
vn -0.999777 -0.021046 0.001813
vn -0.983971 0.000222 0.178331
vn -0.888563 0.047821 0.456255
vn -0.452578 0.513061 0.729343
vn -0.445703 0.501600 0.741449
vn 0.618723 0.450507 0.643603
vn -0.666255 0.092764 0.739932
vn -0.506697 0.165672 0.846056
vn -0.385262 0.303691 0.871404
vn -0.410945 0.381220 0.828127
vn -0.390185 0.358110 0.848241
vn -0.403329 0.402835 0.821614
vn -0.432146 0.470504 0.769335
vn -0.359681 0.516165 0.777305
vn 0.478653 -0.532999 -0.697713
vn 0.479770 -0.547910 -0.685285
vn 0.481976 -0.555060 -0.677944
vn 0.992099 -0.076683 -0.099298
vn 0.877392 -0.320515 -0.357006
vn 0.507097 -0.595484 -0.623098
vn 0.506378 -0.631677 -0.586998
vn 0.501924 -0.623294 -0.599648
vn 0.504327 -0.632235 -0.588161
vn 0.533688 -0.833893 -0.140711
vn 0.458381 -0.888687 -0.011052
vn 0.011978 -0.999795 -0.016300
vn 0.027711 -0.861089 -0.507699
vn 0.515225 -0.659580 -0.547264
vn 0.532762 -0.669137 -0.518093
vn 0.542497 -0.809096 -0.225965
vn -0.251453 -0.901748 -0.351600
vn -0.583398 -0.811067 -0.042630
vn -0.771975 -0.635649 -0.002196
vn -0.937816 -0.196546 0.286129
vn -0.794414 -0.215494 0.567864
vn 0.677263 0.415448 0.607222
vn -0.495313 0.029068 0.868228
vn -0.306892 0.113539 0.944948
vn -0.310885 0.172203 0.934717
vn -0.378498 0.314866 0.870401
vn -0.381977 0.322671 0.866012
vn -0.376207 0.328990 0.866161
vn -0.366559 0.323356 0.872396
vn -0.390579 0.369927 0.842972
vn -0.377240 0.356741 0.854649
vn -0.360868 0.339568 0.868601
vn -0.367455 0.359852 0.857603
vn 0.920590 0.191561 0.340322
vn 0.567893 -0.520370 -0.637741
vn 0.984882 -0.123213 -0.121764
vn 0.512118 -0.857879 0.042165
vn 0.366539 -0.876594 0.311820
vn -0.000361 -0.765545 0.643383
vn -0.547622 -0.610412 0.572283
vn -0.425287 -0.905055 -0.002738
vn 0.998731 -0.047851 -0.015705
vn 0.788864 -0.614564 0.001953
vn 0.521540 -0.853218 0.004019
vn -0.739348 -0.529319 0.416157
vn -0.905071 -0.374024 0.202366
vn -0.565256 -0.096780 0.819219
vn -0.500755 -0.138849 0.854380
vn -0.321085 -0.165893 0.932407
vn -0.091754 -0.230482 0.968741
vn -0.258919 0.055033 0.964330
vn -0.125438 -0.133083 0.983135
vn -0.142754 -0.055837 0.988182
vn -0.202032 0.040644 0.978535
vn -0.241507 0.101631 0.965062
vn -0.280656 0.186092 0.941595
vn -0.337373 0.268482 0.902273
vn -0.358975 0.301393 0.883346
vn -0.339042 0.285572 0.896381
vn 0.621385 0.281221 0.731297
vn 0.999996 0.001073 0.002734
vn 0.999993 0.001731 0.003363
vn 0.501547 -0.856382 0.122725
vn 0.478652 -0.850897 0.216489
vn 0.314545 -0.738625 0.596234
vn 0.475450 -0.866547 0.151799
vn 0.135983 -0.537432 0.832271
vn 0.997488 -0.064992 0.028176
vn 0.005278 -0.322341 0.946609
vn -0.062087 -0.233171 0.970452
vn -0.088706 -0.176534 0.980289
vn -0.076124 -0.140651 0.987128
vn 0.890935 0.043873 0.452007
vn 0.970457 0.033908 0.238880
vn 0.460086 -0.824985 0.328208
vn 0.480155 -0.848463 0.222626
vn 0.255857 -0.641431 0.723259
vn 0.987230 -0.115704 0.109498
vn 0.139214 -0.376336 0.915964
vn 0.991132 -0.052453 0.122089
vn 0.949772 -0.131200 0.284113
f 1//1 2//2 8//8
f 1//1 8//8 19//19
f 1//1 19//19 34//34
f 1//1 34//34 56//56
f 1//1 56//56 77//77
f 1//1 77//77 103//103
f 1//1 103//103 133//133
f 1//1 133//133 132//132
f 1//1 132//132 163//163
f 1//1 163//163 193//193
f 1//1 193//193 171//171
f 1//1 171//171 205//205
f 1//1 205//205 233//233
f 1//1 233//233 232//232
f 1//1 232//232 231//231
f 1//1 231//231 245//245
f 1//1 245//245 244//244
f 1//1 244//244 251//251
f 1//1 251//251 252//252
f 1//1 252//252 249//249
f 1//1 249//249 239//239
f 1//1 239//239 214//214
f 1//1 214//214 213//213
f 1//1 213//213 186//186
f 1//1 186//186 207//207
f 1//1 207//207 176//176
f 1//1 176//176 206//206
f 1//1 206//206 175//175
f 1//1 175//175 140//140
f 1//1 140//140 138//138
f 1//1 138//138 111//111
f 1//1 111//111 84//84
f 1//1 84//84 61//61
f 1//1 61//61 60//60
f 1//1 60//60 37//37
f 1//1 37//37 23//23
f 1//1 23//23 10//10
f 1//1 10//10 3//3
f 1//1 3//3 4//4
f 1//1 4//4 5//5
f 1//1 5//5 6//6
f 1//1 6//6 7//7
f 1//1 7//7 2//2
f 2//2 7//7 9//9
f 2//2 9//9 8//8
f 3//3 10//10 11//11
f 3//3 11//11 12//12
f 3//3 12//12 13//13
f 3//3 13//13 14//14
f 3//3 14//14 4//4
f 4//4 14//14 15//15
f 4//4 15//15 5//5
f 5//5 15//15 16//16
f 5//5 16//16 6//6
f 6//6 9//9 7//7
f 6//6 16//16 17//17
f 6//6 17//17 20//20
f 6//6 20//20 9//9
f 8//8 18//18 19//19
f 8//8 9//9 18//18
f 9//9 20//20 21//21
f 9//9 21//21 18//18
f 10//10 22//22 11//11
f 10//10 23//23 24//24
f 10//10 24//24 25//25
f 10//10 25//25 22//22
f 11//11 22//22 12//12
f 12//12 22//22 26//26
f 12//12 26//26 13//13
f 13//13 26//26 27//27
f 13//13 27//27 14//14
f 14//14 27//27 28//28
f 14//14 28//28 29//29
f 14//14 29//29 30//30
f 14//14 30//30 15//15
f 15//15 30//30 16//16
f 16//16 30//30 17//17
f 17//17 30//30 31//31
f 17//17 31//31 35//35
f 17//17 35//35 20//20
f 18//18 21//21 32//32
f 18//18 32//32 19//19
f 19//19 33//33 34//34
f 19//19 32//32 33//33
f 20//20 35//35 21//21
f 21//21 35//35 36//36
f 21//21 36//36 32//32
f 22//22 25//25 26//26
f 23//23 37//37 38//38
f 23//23 38//38 24//24
f 24//24 38//38 39//39
f 24//24 39//39 40//40
f 24//24 40//40 41//41
f 24//24 41//41 25//25
f 25//25 41//41 42//42
f 25//25 42//42 26//26
f 26//26 42//42 27//27
f 27//27 42//42 43//43
f 27//27 43//43 44//44
f 27//27 44//44 28//28
f 28//28 44//44 45//45
f 28//28 45//45 46//46
f 28//28 46//46 29//29
f 29//29 46//46 47//47
f 29//29 47//47 30//30
f 30//30 47//47 31//31
f 31//31 47//47 48//48
f 31//31 48//48 49//49
f 31//31 49//49 50//50
f 31//31 50//50 51//51
f 31//31 51//51 35//35
f 32//32 52//52 33//33
f 32//32 36//36 52//52
f 33//33 53//53 54//54
f 33//33 54//54 55//55
f 33//33 55//55 56//56
f 33//33 56//56 34//34
f 33//33 52//52 57//57
f 33//33 57//57 53//53
f 35//35 51//51 58//58
f 35//35 58//58 36//36
f 36//36 58//58 59//59
f 36//36 59//59 52//52
f 37//37 60//60 39//39
f 37//37 39//39 38//38
f 39//39 60//60 61//61
f 39//39 61//61 62//62
f 39//39 62//62 63//63
f 39//39 63//63 64//64
f 39//39 64//64 65//65
f 39//39 65//65 40//40
f 40//40 65//65 66//66
f 40//40 66//66 41//41
f 41//41 66//66 67//67
f 41//41 67//67 68//68
f 41//41 68//68 69//69
f 41//41 69//69 42//42
f 42//42 69//69 43//43
f 43//43 69//69 44//44
f 44//44 69//69 70//70
f 44//44 70//70 45//45
f 45//45 70//70 69//69
f 45//45 69//69 71//71
f 45//45 71//71 48//48
f 45//45 48//48 46//46
f 46//46 48//48 47//47
f 48//48 71//71 72//72
f 48//48 72//72 49//49
f 49//49 72//72 73//73
f 49//49 73//73 74//74
f 49//49 74//74 51//51
f 49//49 51//51 50//50
f 51//51 74//74 58//58
f 52//52 59//59 57//57
f 53//53 57//57 75//75
f 53//53 75//75 54//54
f 54//54 75//75 76//76
f 54//54 76//76 55//55
f 55//55 76//76 56//56
f 56//56 76//76 78//78
f 56//56 78//78 77//77
f 57//57 59//59 58//58
f 57//57 58//58 79//79
f 57//57 79//79 80//80
f 57//57 80//80 81//81
f 57//57 81//81 82//82
f 57//57 82//82 75//75
f 58//58 74//74 73//73
f 58//58 73//73 83//83
f 58//58 83//83 79//79
f 61//61 84//84 85//85
f 61//61 85//85 62//62
f 62//62 85//85 63//63
f 63//63 85//85 64//64
f 64//64 86//86 87//87
f 64//64 87//87 88//88
f 64//64 88//88 66//66
f 64//64 66//66 65//65
f 64//64 85//85 89//89
f 64//64 89//89 90//90
f 64//64 90//90 86//86
f 66//66 88//88 67//67
f 67//67 88//88 91//91
f 67//67 91//91 68//68
f 68//68 91//91 92//92
f 68//68 92//92 69//69
f 69//69 91//91 93//93
f 69//69 93//93 94//94
f 69//69 94//94 95//95
f 69//69 95//95 96//96
f 69//69 96//96 71//71
f 69//69 92//92 91//91
f 71//71 96//96 97//97
f 71//71 97//97 98//98
f 71//71 98//98 99//99
f 71//71 99//99 72//72
f 72//72 99//99 100//100
f 72//72 100//100 73//73
f 73//73 100//100 101//101
f 73//73 101//101 83//83
f 75//75 82//82 102//102
f 75//75 102//102 76//76
f 76//76 102//102 78//78
f 77//77 78//78 103//103
f 78//78 104//104 103//103
f 78//78 102//102 104//104
f 79//79 83//83 105//105
f 79//79 105//105 80//80
f 80//80 105//105 106//106
f 80//80 106//106 107//107
f 80//80 107//107 108//108
f 80//80 108//108 109//109
f 80//80 109//109 81//81
f 81//81 109//109 82//82
f 82//82 109//109 110//110
f 82//82 110//110 102//102
f 83//83 101//101 105//105
f 84//84 111//111 90//90
f 84//84 90//90 89//89
f 84//84 89//89 85//85
f 86//86 112//112 87//87
f 86//86 90//90 111//111
f 86//86 111//111 113//113
f 86//86 113//113 114//114
f 86//86 114//114 112//112
f 87//87 115//115 116//116
f 87//87 116//116 88//88
f 87//87 112//112 115//115
f 88//88 117//117 118//118
f 88//88 118//118 119//119
f 88//88 119//119 120//120
f 88//88 120//120 121//121
f 88//88 121//121 93//93
f 88//88 93//93 91//91
f 88//88 116//116 122//122
f 88//88 122//122 117//117
f 93//93 121//121 94//94
f 94//94 121//121 123//123
f 94//94 123//123 95//95
f 95//95 123//123 96//96
f 96//96 123//123 124//124
f 96//96 124//124 97//97
f 97//97 125//125 126//126
f 97//97 126//126 127//127
f 97//97 127//127 128//128
f 97//97 128//128 99//99
f 97//97 99//99 98//98
f 97//97 124//124 123//123
f 97//97 123//123 125//125
f 99//99 128//128 100//100
f 100//100 128//128 101//101
f 101//101 128//128 129//129
f 101//101 129//129 130//130
f 101//101 130//130 106//106
f 101//101 106//106 105//105
f 102//102 110//110 131//131
f 102//102 131//131 132//132
f 102//102 132//132 133//133
f 102//102 133//133 104//104
f 103//103 104//104 133//133
f 106//106 130//130 107//107
f 107//107 130//130 108//108
f 108//108 130//130 134//134
f 108//108 134//134 135//135
f 108//108 135//135 110//110
f 108//108 110//110 109//109
f 110//110 135//135 136//136
f 110//110 136//136 137//137
f 110//110 137//137 131//131
f 111//111 138//138 114//114
f 111//111 114//114 113//113
f 112//112 116//116 115//115
f 112//112 114//114 139//139
f 112//112 139//139 116//116
f 114//114 138//138 140//140
f 114//114 140//140 139//139
f 116//116 141//141 122//122
f 116//116 139//139 142//142
f 116//116 142//142 143//143
f 116//116 143//143 141//141
f 117//117 144//144 118//118
f 117//117 122//122 145//145
f 117//117 145//145 144//144
f 118//118 144//144 146//146
f 118//118 146//146 147//147
f 118//118 147//147 119//119
f 119//119 147//147 148//148
f 119//119 148//148 149//149
f 119//119 149//149 150//150
f 119//119 150//150 120//120
f 120//120 150//150 151//151
f 120//120 151//151 123//123
f 120//120 123//123 121//121
f 122//122 141//141 152//152
f 122//122 152//152 145//145
f 123//123 151//151 125//125
f 125//125 153//153 154//154
f 125//125 154//154 155//155
f 125//125 155//155 127//127
f 125//125 127//127 126//126
f 125//125 151//151 150//150
f 125//125 150//150 156//156
f 125//125 156//156 153//153
f 127//127 155//155 157//157
f 127//127 157//157 158//158
f 127//127 158//158 128//128
f 128//128 158//158 129//129
f 129//129 158//158 159//159
f 129//129 159//159 130//130
f 130//130 160//160 135//135
f 130//130 135//135 134//134
f 130//130 159//159 160//160
f 131//131 137//137 161//161
f 131//131 161//161 162//162
f 131//131 162//162 163//163
f 131//131 163//163 132//132
f 135//135 160//160 164//164
f 135//135 164//164 165//165
f 135//135 165//165 166//166
f 135//135 166//166 167//167
f 135//135 167//167 137//137
f 135//135 137//137 136//136
f 137//137 167//167 168//168
f 137//137 168//168 169//169
f 137//137 169//169 170//170
f 137//137 170//170 171//171
f 137//137 171//171 162//162
f 137//137 162//162 161//161
f 139//139 140//140 172//172
f 139//139 172//172 173//173
f 139//139 173//173 174//174
f 139//139 174//174 142//142
f 140//140 175//175 172//172
f 141//141 143//143 152//152
f 142//142 174//174 143//143
f 143//143 174//174 176//176
f 143//143 176//176 177//177
f 143//143 177//177 178//178
f 143//143 178//178 179//179
f 143//143 179//179 180//180
f 143//143 180//180 152//152
f 144//144 145//145 152//152
f 144//144 152//152 146//146
f 146//146 181//181 182//182
f 146//146 182//182 183//183
f 146//146 183//183 184//184
f 146//146 184//184 148//148
f 146//146 148//148 147//147
f 146//146 152//152 180//180
f 146//146 180//180 185//185
f 146//146 185//185 186//186
f 146//146 186//186 187//187
f 146//146 187//187 181//181
f 148//148 184//184 149//149
f 149//149 184//184 188//188
f 149//149 188//188 156//156
f 149//149 156//156 150//150
f 153//153 157//157 154//154
f 153//153 156//156 157//157
f 154//154 157//157 155//155
f 156//156 189//189 190//190
f 156//156 190//190 157//157
f 156//156 188//188 189//189
f 157//157 191//191 158//158
f 157//157 190//190 191//191
f 158//158 191//191 159//159
f 159//159 191//191 160//160
f 160//160 191//191 192//192
f 160//160 192//192 164//164
f 162//162 171//171 193//193
f 162//162 193//193 163//163
f 164//164 192//192 194//194
f 164//164 194//194 166//166
f 164//164 166//166 165//165
f 166//166 194//194 195//195
f 166//166 195//195 196//196
f 166//166 196//196 197//197
f 166//166 197//197 198//198
f 166//166 198//198 168//168
f 166//166 168//168 167//167
f 168//168 198//198 199//199
f 168//168 199//199 200//200
f 168//168 200//200 201//201
f 168//168 201//201 169//169
f 169//169 201//201 202//202
f 169//169 202//202 203//203
f 169//169 203//203 204//204
f 169//169 204//204 205//205
f 169//169 205//205 170//170
f 170//170 205//205 171//171
f 172//172 175//175 206//206
f 172//172 206//206 173//173
f 173//173 206//206 174//174
f 174//174 206//206 176//176
f 176//176 207//207 177//177
f 177//177 207//207 185//185
f 177//177 185//185 178//178
f 178//178 185//185 180//180
f 178//178 180//180 179//179
f 181//181 208//208 182//182
f 181//181 187//187 208//208
f 182//182 208//208 209//209
f 182//182 209//209 183//183
f 183//183 209//209 210//210
f 183//183 210//210 211//211
f 183//183 211//211 212//212
f 183//183 212//212 188//188
f 183//183 188//188 184//184
f 185//185 207//207 186//186
f 186//186 213//213 187//187
f 187//187 213//213 214//214
f 187//187 214//214 215//215
f 187//187 215//215 208//208
f 188//188 212//212 189//189
f 189//189 212//212 211//211
f 189//189 211//211 190//190
f 190//190 211//211 216//216
f 190//190 216//216 192//192
f 190//190 192//192 217//217
f 190//190 217//217 191//191
f 191//191 217//217 192//192
f 192//192 218//218 194//194
f 192//192 216//216 211//211
f 192//192 211//211 219//219
f 192//192 219//219 218//218
f 194//194 219//219 195//195
f 194//194 218//218 219//219
f 195//195 219//219 220//220
f 195//195 220//220 221//221
f 195//195 221//221 222//222
f 195//195 222//222 196//196
f 196//196 223//223 224//224
f 196//196 224//224 225//225
f 196//196 225//225 226//226
f 196//196 226//226 227//227
f 196//196 227//227 228//228
f 196//196 228//228 200//200
f 196//196 200//200 229//229
f 196//196 229//229 199//199
f 196//196 199//199 197//197
f 196//196 222//222 221//221
f 196//196 221//221 223//223
f 197//197 199//199 198//198
f 199//199 229//229 200//200
f 200//200 228//228 227//227
f 200//200 227//227 230//230
f 200//200 230//230 231//231
f 200//200 231//231 203//203
f 200//200 203//203 202//202
f 200//200 202//202 201//201
f 203//203 231//231 204//204
f 204//204 231//231 232//232
f 204//204 232//232 233//233
f 204//204 233//233 205//205
f 208//208 215//215 214//214
f 208//208 214//214 234//234
f 208//208 234//234 235//235
f 208//208 235//235 236//236
f 208//208 236//236 237//237
f 208//208 237//237 209//209
f 209//209 237//237 236//236
f 209//209 236//236 238//238
f 209//209 238//238 210//210
f 210//210 238//238 221//221
f 210//210 221//221 211//211
f 211//211 221//221 220//220
f 211//211 220//220 219//219
f 214//214 239//239 234//234
f 221//221 238//238 240//240
f 221//221 240//240 241//241
f 221//221 241//241 223//223
f 223//223 241//241 242//242
f 223//223 242//242 224//224
f 224//224 242//242 240//240
f 224//224 240//240 243//243
f 224//224 243//243 225//225
f 225//225 243//243 244//244
f 225//225 244//244 227//227
f 225//225 227//227 226//226
f 227//227 244//244 245//245
f 227//227 245//245 230//230
f 230//230 245//245 231//231
f 234//234 239//239 246//246
f 234//234 246//246 247//247
f 234//234 247//247 235//235
f 235//235 247//247 246//246
f 235//235 246//246 248//248
f 235//235 248//248 236//236
f 236//236 248//248 238//238
f 238//238 248//248 240//240
f 239//239 249//249 246//246
f 240//240 248//248 250//250
f 240//240 250//250 243//243
f 240//240 242//242 241//241
f 243//243 251//251 244//244
f 243//243 250//250 251//251
f 246//246 249//249 248//248
f 248//248 249//249 252//252
f 248//248 252//252 250//250
f 250//250 252//252 251//251
