o link_2_7
v 0.264207 0.285242 -0.063205
v 0.257604 0.280846 -0.062225
v 0.264207 0.284124 -0.059721
v 0.264207 0.285223 -0.064646
v 0.184968 0.240003 -0.085231
v 0.184968 0.240003 -0.084608
v 0.193928 0.244594 -0.080103
v 0.171178 0.231064 -0.084598
v 0.155774 0.221668 -0.087330
v 0.155774 0.221279 -0.086434
v 0.157801 0.221844 -0.084910
v 0.264207 0.281624 -0.056899
v 0.155774 0.218906 -0.083340
v 0.264207 0.282908 -0.068239
v 0.260056 0.281595 -0.068076
v 0.257360 0.280943 -0.067358
v 0.187463 0.240558 -0.085711
v 0.171252 0.230948 -0.089740
v 0.155774 0.221834 -0.091869
v 0.252529 0.276488 -0.071699
v 0.155774 0.221805 -0.089433
v 0.264207 0.281459 -0.056731
v 0.155774 0.216542 -0.081059
v 0.264207 0.278434 -0.069947
v 0.258623 0.276712 -0.071709
v 0.255523 0.276819 -0.071833
v 0.173853 0.231677 -0.089993
v 0.157716 0.221863 -0.094249
v 0.155774 0.219490 -0.094883
v 0.264207 0.278871 -0.054276
v 0.155774 0.214490 -0.079396
v 0.264207 0.276984 -0.052673
v 0.264207 0.273911 -0.069694
v 0.260969 0.273911 -0.070966
v 0.258697 0.273911 -0.071739
v 0.162632 0.221805 -0.094165
v 0.160243 0.221882 -0.094245
v 0.155997 0.219558 -0.094873
v 0.155774 0.214714 -0.095200
v 0.155774 0.211037 -0.076663
v 0.264207 0.274339 -0.050727
v 0.155774 0.209140 -0.075263
v 0.264207 0.269417 -0.068190
v 0.259833 0.269582 -0.070288
v 0.258166 0.271236 -0.071570
v 0.162632 0.221561 -0.094165
v 0.155774 0.214033 -0.095051
v 0.156007 0.214704 -0.095140
v 0.264207 0.271567 -0.048827
v 0.171156 0.217564 -0.071179
v 0.155774 0.206543 -0.073486
v 0.264207 0.268785 -0.067873
v 0.252614 0.263260 -0.071120
v 0.253984 0.266285 -0.071783
v 0.157727 0.213041 -0.094027
v 0.174182 0.223731 -0.090676
v 0.155774 0.210385 -0.093977
v 0.253835 0.261937 -0.049074
v 0.264207 0.269183 -0.047520
v 0.155774 0.206281 -0.073308
v 0.155774 0.203499 -0.071496
v 0.264207 0.265254 -0.065730
v 0.262997 0.266489 -0.067284
v 0.230193 0.249351 -0.075782
v 0.231573 0.252376 -0.076441
v 0.175923 0.222028 -0.089513
v 0.155774 0.207623 -0.092789
v 0.156719 0.210385 -0.093542
v 0.252487 0.258912 -0.048421
v 0.256861 0.263406 -0.048317
v 0.264207 0.269018 -0.047431
v 0.167568 0.207536 -0.067180
v 0.155774 0.201349 -0.070387
v 0.264207 0.264340 -0.065136
v 0.244546 0.248602 -0.067155
v 0.231318 0.243690 -0.071887
v 0.238951 0.249633 -0.071051
v 0.235926 0.248164 -0.071912
v 0.180679 0.217184 -0.085068
v 0.167080 0.212623 -0.089617
v 0.171517 0.217272 -0.089567
v 0.155774 0.206252 -0.092176
v 0.248325 0.253981 -0.048599
v 0.264207 0.264058 -0.045441
v 0.264207 0.264670 -0.045654
v 0.166220 0.204510 -0.066561
v 0.155774 0.201291 -0.070358
v 0.264207 0.262492 -0.063883
v 0.263793 0.261247 -0.063294
v 0.264207 0.260799 -0.062691
v 0.264207 0.259476 -0.061730
v 0.262116 0.258221 -0.062235
v 0.257476 0.253786 -0.062136
v 0.239885 0.244215 -0.067071
v 0.229747 0.240665 -0.070947
v 0.226721 0.239254 -0.071852
v 0.228261 0.242163 -0.072728
v 0.189321 0.217583 -0.080277
v 0.186306 0.216183 -0.081168
v 0.178386 0.213848 -0.084335
v 0.176029 0.212739 -0.085013
v 0.155774 0.200211 -0.088874
v 0.155774 0.202497 -0.090206
v 0.159797 0.206271 -0.090121
v 0.162568 0.208061 -0.089631
v 0.220999 0.231405 -0.053148
v 0.264207 0.260605 -0.044659
v 0.180276 0.208528 -0.062260
v 0.155774 0.196836 -0.068625
v 0.155774 0.196778 -0.068605
v 0.164734 0.201087 -0.066239
v 0.264207 0.256052 -0.058825
v 0.244917 0.243845 -0.062943
v 0.235129 0.239848 -0.066937
v 0.194788 0.216766 -0.076322
v 0.199512 0.221104 -0.076416
v 0.181635 0.211767 -0.081113
v 0.174256 0.210055 -0.084355
v 0.178439 0.210308 -0.082063
v 0.171369 0.208323 -0.084939
v 0.158980 0.198140 -0.085662
v 0.155774 0.196710 -0.086597
v 0.220999 0.230423 -0.053148
v 0.264207 0.260293 -0.044634
v 0.159171 0.196778 -0.067343
v 0.161443 0.196778 -0.066586
v 0.161347 0.194025 -0.066576
v 0.180276 0.207292 -0.062260
v 0.155774 0.192333 -0.067982
v 0.264207 0.253348 -0.055568
v 0.262339 0.253485 -0.057845
v 0.260056 0.252483 -0.058795
v 0.230288 0.235568 -0.066680
v 0.257508 0.249127 -0.057508
v 0.194873 0.212156 -0.071981
v 0.207793 0.221824 -0.071352
v 0.190011 0.212428 -0.076173
v 0.179989 0.208742 -0.080059
v 0.176963 0.207438 -0.081034
v 0.157271 0.195114 -0.084593
v 0.155774 0.196651 -0.086558
v 0.223759 0.230325 -0.053024
v 0.264207 0.256004 -0.045288
v 0.260056 0.255761 -0.045624
v 0.202591 0.216902 -0.057558
v 0.155774 0.192245 -0.067997
v 0.155774 0.188043 -0.069813
v 0.164776 0.194132 -0.066645
v 0.203844 0.216902 -0.057558
v 0.264207 0.251880 -0.052074
v 0.258485 0.248466 -0.054479
v 0.244206 0.239857 -0.057880
v 0.221711 0.226075 -0.062715
v 0.184968 0.203742 -0.070565
v 0.167377 0.194288 -0.076277
v 0.172314 0.198470 -0.076579
v 0.185159 0.208148 -0.075956
v 0.167366 0.198772 -0.080742
v 0.162483 0.194531 -0.080499
v 0.155774 0.192051 -0.083009
v 0.155774 0.192216 -0.083138
v 0.226424 0.230549 -0.053083
v 0.264207 0.255556 -0.045466
v 0.155774 0.187790 -0.070001
v 0.167080 0.194492 -0.066898
v 0.162674 0.189891 -0.071308
v 0.222178 0.225783 -0.057107
v 0.264207 0.251734 -0.051297
v 0.253304 0.244380 -0.053365
v 0.208324 0.216941 -0.063002
v 0.168375 0.193714 -0.073713
v 0.170647 0.195241 -0.073713
v 0.159213 0.188938 -0.077148
v 0.155774 0.187460 -0.078510
v 0.157515 0.190339 -0.080173
v 0.155774 0.191846 -0.082831
v 0.264207 0.252444 -0.047609
v 0.155774 0.186049 -0.073070
v 0.208324 0.216941 -0.061928
v 0.155774 0.185874 -0.073713
v 0.162674 0.189891 -0.071922
v 0.253304 0.244380 -0.053227
v 0.244695 0.239566 -0.052935
v 0.264207 0.252288 -0.047956
v 0.156496 0.186322 -0.073713
v 0.162239 0.190202 -0.074946
v 0.155774 0.187333 -0.078346
v 0.155774 0.187635 -0.078693
vn 0.891808 0.448237 0.061334
vn -0.531621 0.792692 0.298361
vn -0.511484 0.666206 0.542728
vn -0.433162 0.879957 -0.195057
vn -0.406222 0.850251 -0.334748
vn -0.527937 0.836823 0.144948
vn -0.529572 0.817245 0.227299
vn -0.533032 0.804692 0.261435
vn -0.971818 0.224240 0.072712
vn -0.535825 0.746282 0.394910
vn -0.522505 0.686731 0.505361
vn -0.501862 0.645641 0.575570
vn -0.511077 0.630917 0.583733
vn 0.146632 0.605199 -0.782453
vn -0.297302 0.808103 -0.508508
vn -0.361065 0.828451 -0.428136
vn -0.254961 0.713555 -0.652560
vn -0.380888 0.801372 -0.461224
vn -0.542341 0.823150 -0.168196
vn -0.254810 0.723232 -0.641878
vn -0.533646 0.845147 0.030788
vn -0.492549 0.602283 0.628212
vn -0.497894 0.580247 0.644528
vn 0.725325 0.091742 -0.682266
vn 0.154573 0.155923 -0.975600
vn -0.000731 0.387499 -0.921870
vn -0.220713 0.673421 -0.705542
vn -0.135538 0.549194 -0.824630
vn -0.986899 0.114395 -0.113769
vn -0.480319 0.589294 0.649635
vn -0.493931 0.542497 0.679507
vn -0.473452 0.543026 0.693517
vn 0.868315 -0.114546 -0.482606
vn 0.346724 -0.080195 -0.934533
vn 0.253012 -0.042001 -0.966551
vn 0.127260 0.166419 -0.977809
vn 0.020148 0.342877 -0.939164
vn 0.064970 0.109319 -0.991881
vn -0.726735 0.035629 -0.685993
vn -0.491788 0.532322 0.689041
vn -0.447611 0.519767 0.727658
vn -0.486367 0.516215 0.704960
vn 0.761911 -0.241212 -0.601089
vn 0.397497 -0.294893 -0.868927
vn 0.324817 -0.197784 -0.924865
vn 0.294807 -0.137738 -0.945578
vn -0.361650 -0.248721 -0.898525
vn 0.315870 -0.182935 -0.931000
vn -0.443046 0.488058 0.752004
vn -0.465804 0.499898 0.730157
vn -0.582223 0.458865 0.671162
vn 0.702546 -0.332059 -0.629417
vn 0.407726 -0.377323 -0.831497
vn 0.365273 -0.285698 -0.885975
vn 0.350518 -0.258237 -0.900250
vn 0.346059 -0.248018 -0.904837
vn -0.133670 -0.352127 -0.926358
vn -0.435846 0.430746 0.790251
vn 0.114789 0.477206 0.871262
vn -0.474190 0.483575 0.735730
vn -0.465476 0.456199 0.758429
vn 0.804637 -0.322307 -0.498675
vn 0.440453 -0.452316 -0.775507
vn 0.413771 -0.398683 -0.818441
vn 0.392538 -0.351736 -0.849821
vn 0.366736 -0.293856 -0.882696
vn -0.094415 -0.401005 -0.911198
vn 0.393424 -0.356837 -0.847281
vn -0.384546 0.324978 0.864010
vn -0.375414 0.351363 0.857676
vn 0.473227 0.343295 0.811298
vn -0.418481 0.389196 0.820610
vn -0.696013 0.329051 0.638194
vn 0.768893 -0.355280 -0.531582
vn 0.462250 -0.489118 -0.739654
vn 0.445968 -0.465904 -0.764229
vn 0.443367 -0.460812 -0.768816
vn 0.439023 -0.453276 -0.775757
vn 0.431397 -0.441316 -0.786853
vn 0.404195 -0.381818 -0.831169
vn 0.397418 -0.365743 -0.841600
vn -0.118469 -0.438896 -0.890694
vn -0.335093 0.229150 0.913894
vn 0.152412 0.245417 0.957361
vn 0.237906 0.358272 0.902797
vn -0.367645 0.283501 0.885700
vn -0.692214 0.269849 0.669344
vn 0.812860 -0.328293 -0.481127
vn 0.477191 -0.506269 -0.718318
vn 0.843145 -0.315562 -0.435348
vn 0.885966 -0.284987 -0.365851
vn 0.482163 -0.520040 -0.705037
vn 0.495932 -0.557892 -0.665438
vn 0.467090 -0.519649 -0.715397
vn 0.452973 -0.490931 -0.744178
vn 0.444256 -0.469470 -0.763042
vn 0.441816 -0.461550 -0.769266
vn 0.446434 -0.476106 -0.757641
vn 0.444281 -0.475772 -0.759115
vn 0.443732 -0.476807 -0.758786
vn 0.437722 -0.470892 -0.765937
vn 0.105677 -0.521301 -0.846804
vn -0.188159 -0.478534 -0.857672
vn 0.416017 -0.425078 -0.803890
vn 0.414472 -0.418959 -0.807890
vn -0.293776 0.153069 0.943539
vn -0.122864 0.193658 0.973345
vn -0.321388 0.195499 0.926547
vn -0.783029 0.225106 0.579821
vn -0.847035 0.114019 0.519164
vn -0.341750 0.219112 0.913891
vn 0.880482 -0.324870 -0.345270
vn 0.510682 -0.629340 -0.585777
vn 0.483703 -0.561840 -0.671094
vn 0.467969 -0.531945 -0.705719
vn 0.457722 -0.504783 -0.731905
vn 0.450634 -0.491853 -0.744990
vn 0.441557 -0.478581 -0.758939
vn 0.443720 -0.484669 -0.753796
vn 0.442619 -0.484754 -0.754388
vn 0.445672 -0.494283 -0.746365
vn -0.962867 -0.147243 -0.226289
vn -0.132529 -0.115809 0.984390
vn 0.476731 -0.054710 0.877345
vn -0.326123 0.161090 0.931501
vn -0.264117 0.059483 0.962655
vn -0.129273 -0.175269 0.975997
vn -0.210727 -0.014848 0.977432
vn -0.896133 0.036229 0.442305
vn 0.962958 -0.236356 -0.129796
vn 0.551832 -0.636264 -0.539118
vn 0.514367 -0.611782 -0.600958
vn 0.499990 -0.607035 -0.617672
vn 0.529923 -0.701167 -0.477018
vn 0.513372 -0.654017 -0.555618
vn 0.499202 -0.615116 -0.610270
vn 0.476243 -0.557995 -0.679584
vn 0.463957 -0.531067 -0.709022
vn 0.451905 -0.507958 -0.733321
vn 0.457013 -0.541652 -0.705516
vn -0.974525 -0.132232 -0.181152
vn -0.004164 -0.294374 0.955681
vn 0.348830 -0.229722 0.908595
vn -0.090318 -0.149962 0.984558
vn -0.102223 -0.188867 0.976668
vn -0.983112 -0.071857 0.168305
vn -0.944367 -0.149637 0.292883
vn 0.090553 -0.513814 0.853109
vn 0.298069 -0.730290 0.614679
vn 0.954572 -0.282840 -0.093778
vn 0.553305 -0.769691 -0.318479
vn 0.543374 -0.766424 -0.342548
vn 0.542121 -0.773293 -0.328822
vn 0.536599 -0.753433 -0.380000
vn 0.520226 -0.688878 -0.504789
vn 0.499175 -0.627043 -0.598031
vn 0.490314 -0.602986 -0.629285
vn 0.472445 -0.562131 -0.678826
vn 0.482684 -0.604406 -0.633805
vn 0.209881 -0.635055 -0.743408
vn -0.994374 -0.064699 -0.083876
vn 0.261264 -0.644498 0.718584
vn 0.712380 -0.383327 0.587856
vn -0.813429 -0.477138 0.332676
vn 0.321900 -0.768112 0.553520
vn 0.407428 -0.832741 0.374892
vn 0.410839 -0.818567 0.401446
vn 0.965698 -0.258481 0.024807
vn 0.546063 -0.802348 -0.240943
vn 0.534666 -0.824968 -0.183196
vn 0.527228 -0.831951 -0.172879
vn 0.532476 -0.772300 -0.346442
vn 0.520198 -0.780320 -0.347125
vn 0.333606 -0.704751 -0.626125
vn 0.479212 -0.627070 -0.614116
vn -0.943844 -0.226784 -0.240267
vn 0.586099 -0.603131 0.541037
vn -0.981714 -0.169157 0.087315
vn 0.490145 -0.860686 0.137760
vn -0.953845 -0.294214 -0.060145
vn 0.522091 -0.846129 -0.107177
vn 0.496637 -0.848819 0.181265
vn 0.459477 -0.834037 0.305392
vn 0.891683 -0.437135 0.117539
vn 0.521333 -0.837975 -0.161278
vn 0.514939 -0.827698 -0.223054
vn -0.992476 -0.116253 -0.038429
vn -0.994727 -0.071970 -0.073064
f 1//1 2//2 3//3
f 1//1 3//3 12//12
f 1//1 12//12 22//22
f 1//1 22//22 30//30
f 1//1 30//30 32//32
f 1//1 32//32 41//41
f 1//1 41//41 49//49
f 1//1 49//49 59//59
f 1//1 59//59 71//71
f 1//1 71//71 85//85
f 1//1 85//85 84//84
f 1//1 84//84 107//107
f 1//1 107//107 124//124
f 1//1 124//124 143//143
f 1//1 143//143 163//163
f 1//1 163//163 177//177
f 1//1 177//177 184//184
f 1//1 184//184 168//168
f 1//1 168//168 150//150
f 1//1 150//150 130//130
f 1//1 130//130 112//112
f 1//1 112//112 91//91
f 1//1 91//91 90//90
f 1//1 90//90 88//88
f 1//1 88//88 74//74
f 1//1 74//74 62//62
f 1//1 62//62 52//52
f 1//1 52//52 43//43
f 1//1 43//43 33//33
f 1//1 33//33 24//24
f 1//1 24//24 14//14
f 1//1 14//14 4//4
f 1//1 4//4 5//5
f 1//1 5//5 6//6
f 1//1 6//6 2//2
f 2//2 6//6 7//7
f 2//2 7//7 8//8
f 2//2 8//8 9//9
f 2//2 9//9 10//10
f 2//2 10//10 11//11
f 2//2 11//11 3//3
f 3//3 11//11 13//13
f 3//3 13//13 12//12
f 4//4 14//14 15//15
f 4//4 15//15 16//16
f 4//4 16//16 5//5
f 5//5 17//17 18//18
f 5//5 18//18 19//19
f 5//5 19//19 6//6
f 5//5 16//16 20//20
f 5//5 20//20 17//17
f 6//6 19//19 21//21
f 6//6 21//21 9//9
f 6//6 9//9 8//8
f 6//6 8//8 7//7
f 9//9 21//21 19//19
f 9//9 19//19 29//29
f 9//9 29//29 39//39
f 9//9 39//39 47//47
f 9//9 47//47 57//57
f 9//9 57//57 67//67
f 9//9 67//67 82//82
f 9//9 82//82 103//103
f 9//9 103//103 102//102
f 9//9 102//102 122//122
f 9//9 122//122 141//141
f 9//9 141//141 161//161
f 9//9 161//161 160//160
f 9//9 160//160 176//176
f 9//9 176//176 188//188
f 9//9 188//188 174//174
f 9//9 174//174 187//187
f 9//9 187//187 180//180
f 9//9 180//180 178//178
f 9//9 178//178 164//164
f 9//9 164//164 147//147
f 9//9 147//147 146//146
f 9//9 146//146 129//129
f 9//9 129//129 110//110
f 9//9 110//110 109//109
f 9//9 109//109 87//87
f 9//9 87//87 73//73
f 9//9 73//73 61//61
f 9//9 61//61 60//60
f 9//9 60//60 51//51
f 9//9 51//51 42//42
f 9//9 42//42 40//40
f 9//9 40//40 31//31
f 9//9 31//31 23//23
f 9//9 23//23 13//13
f 9//9 13//13 10//10
f 10//10 13//13 11//11
f 12//12 13//13 22//22
f 13//13 23//23 22//22
f 14//14 24//24 25//25
f 14//14 25//25 26//26
f 14//14 26//26 20//20
f 14//14 20//20 15//15
f 15//15 20//20 16//16
f 17//17 27//27 18//18
f 17//17 20//20 27//27
f 18//18 27//27 28//28
f 18//18 28//28 19//19
f 19//19 28//28 29//29
f 20//20 26//26 28//28
f 20//20 28//28 27//27
f 22//22 23//23 30//30
f 23//23 31//31 32//32
f 23//23 32//32 30//30
f 24//24 33//33 34//34
f 24//24 34//34 35//35
f 24//24 35//35 25//25
f 25//25 35//35 36//36
f 25//25 36//36 26//26
f 26//26 36//36 37//37
f 26//26 37//37 28//28
f 28//28 37//37 38//38
f 28//28 38//38 29//29
f 29//29 38//38 39//39
f 31//31 40//40 32//32
f 32//32 40//40 42//42
f 32//32 42//42 41//41
f 33//33 43//43 44//44
f 33//33 44//44 45//45
f 33//33 45//45 34//34
f 34//34 45//45 35//35
f 35//35 45//45 46//46
f 35//35 46//46 36//36
f 36//36 46//46 39//39
f 36//36 39//39 38//38
f 36//36 38//38 37//37
f 39//39 46//46 48//48
f 39//39 48//48 47//47
f 41//41 42//42 50//50
f 41//41 50//50 49//49
f 42//42 51//51 50//50
f 43//43 52//52 53//53
f 43//43 53//53 54//54
f 43//43 54//54 44//44
f 44//44 54//54 45//45
f 45//45 54//54 55//55
f 45//45 55//55 56//56
f 45//45 56//56 48//48
f 45//45 48//48 46//46
f 47//47 55//55 57//57
f 47//47 48//48 56//56
f 47//47 56//56 55//55
f 49//49 58//58 59//59
f 49//49 50//50 60//60
f 49//49 60//60 61//61
f 49//49 61//61 58//58
f 50//50 51//51 60//60
f 52//52 62//62 63//63
f 52//52 63//63 64//64
f 52//52 64//64 53//53
f 53//53 64//64 65//65
f 53//53 65//65 54//54
f 54//54 65//65 66//66
f 54//54 66//66 55//55
f 55//55 66//66 57//57
f 57//57 66//66 65//65
f 57//57 65//65 68//68
f 57//57 68//68 67//67
f 58//58 69//69 70//70
f 58//58 70//70 71//71
f 58//58 71//71 59//59
f 58//58 61//61 72//72
f 58//58 72//72 69//69
f 61//61 73//73 72//72
f 62//62 74//74 75//75
f 62//62 75//75 63//63
f 63//63 75//75 76//76
f 63//63 76//76 77//77
f 63//63 77//77 78//78
f 63//63 78//78 79//79
f 63//63 79//79 64//64
f 64//64 79//79 80//80
f 64//64 80//80 81//81
f 64//64 81//81 65//65
f 65//65 81//81 68//68
f 67//67 68//68 81//81
f 67//67 81//81 80//80
f 67//67 80//80 82//82
f 69//69 83//83 84//84
f 69//69 84//84 85//85
f 69//69 85//85 70//70
f 69//69 72//72 86//86
f 69//69 86//86 83//83
f 70//70 85//85 71//71
f 72//72 73//73 87//87
f 72//72 87//87 86//86
f 74//74 88//88 75//75
f 75//75 88//88 89//89
f 75//75 89//89 90//90
f 75//75 90//90 91//91
f 75//75 91//91 92//92
f 75//75 92//92 93//93
f 75//75 93//93 94//94
f 75//75 94//94 95//95
f 75//75 95//95 76//76
f 76//76 95//95 96//96
f 76//76 96//96 97//97
f 76//76 97//97 78//78
f 76//76 78//78 77//77
f 78//78 97//97 79//79
f 79//79 98//98 99//99
f 79//79 99//99 100//100
f 79//79 100//100 101//101
f 79//79 101//101 102//102
f 79//79 102//102 103//103
f 79//79 103//103 104//104
f 79//79 104//104 105//105
f 79//79 105//105 82//82
f 79//79 82//82 80//80
f 79//79 97//97 96//96
f 79//79 96//96 98//98
f 82//82 105//105 104//104
f 82//82 104//104 103//103
f 83//83 106//106 107//107
f 83//83 107//107 84//84
f 83//83 86//86 108//108
f 83//83 108//108 106//106
f 86//86 87//87 109//109
f 86//86 109//109 110//110
f 86//86 110//110 111//111
f 86//86 111//111 108//108
f 88//88 90//90 89//89
f 91//91 112//112 93//93
f 91//91 93//93 92//92
f 93//93 112//112 113//113
f 93//93 113//113 114//114
f 93//93 114//114 94//94
f 94//94 114//114 115//115
f 94//94 115//115 116//116
f 94//94 116//116 95//95
f 95//95 116//116 117//117
f 95//95 117//117 98//98
f 95//95 98//98 96//96
f 98//98 117//117 99//99
f 99//99 117//117 100//100
f 100//100 118//118 101//101
f 100//100 117//117 119//119
f 100//100 119//119 118//118
f 101//101 118//118 102//102
f 102//102 118//118 120//120
f 102//102 120//120 121//121
f 102//102 121//121 122//122
f 106//106 123//123 124//124
f 106//106 124//124 107//107
f 106//106 108//108 128//128
f 106//106 128//128 123//123
f 108//108 111//111 125//125
f 108//108 125//125 126//126
f 108//108 126//126 127//127
f 108//108 127//127 128//128
f 110//110 129//129 125//125
f 110//110 125//125 111//111
f 112//112 130//130 131//131
f 112//112 131//131 132//132
f 112//112 132//132 113//113
f 113//113 133//133 114//114
f 113//113 132//132 134//134
f 113//113 134//134 135//135
f 113//113 135//135 136//136
f 113//113 136//136 133//133
f 114//114 133//133 136//136
f 114//114 136//136 137//137
f 114//114 137//137 115//115
f 115//115 137//137 138//138
f 115//115 138//138 116//116
f 116//116 138//138 117//117
f 117//117 138//138 139//139
f 117//117 139//139 121//121
f 117//117 121//121 119//119
f 118//118 119//119 120//120
f 119//119 121//121 120//120
f 121//121 139//139 140//140
f 121//121 140//140 141//141
f 121//121 141//141 122//122
f 123//123 142//142 143//143
f 123//123 143//143 144//144
f 123//123 144//144 124//124
f 123//123 128//128 127//127
f 123//123 127//127 145//145
f 123//123 145//145 142//142
f 124//124 144//144 143//143
f 125//125 129//129 126//126
f 126//126 129//129 127//127
f 127//127 129//129 146//146
f 127//127 146//146 147//147
f 127//127 147//147 148//148
f 127//127 148//148 149//149
f 127//127 149//149 145//145
f 130//130 150//150 151//151
f 130//130 151//151 134//134
f 130//130 134//134 131//131
f 131//131 134//134 132//132
f 134//134 151//151 152//152
f 134//134 152//152 153//153
f 134//134 153//153 154//154
f 134//134 154//154 155//155
f 134//134 155//155 135//135
f 135//135 155//155 156//156
f 135//135 156//156 136//136
f 136//136 156//156 157//157
f 136//136 157//157 137//137
f 137//137 157//157 158//158
f 137//137 158//158 138//138
f 138//138 158//158 140//140
f 138//138 140//140 139//139
f 140//140 159//159 160//160
f 140//140 160//160 161//161
f 140//140 161//161 141//141
f 140//140 158//158 159//159
f 142//142 162//162 143//143
f 142//142 145//145 149//149
f 142//142 149//149 162//162
f 143//143 162//162 163//163
f 147//147 164//164 148//148
f 148//148 164//164 165//165
f 148//148 165//165 149//149
f 149//149 165//165 166//166
f 149//149 166//166 167//167
f 149//149 167//167 162//162
f 150//150 168//168 169//169
f 150//150 169//169 151//151
f 151//151 169//169 153//153
f 151//151 153//153 152//152
f 153//153 169//169 170//170
f 153//153 170//170 154//154
f 154//154 171//171 172//172
f 154//154 172//172 173//173
f 154//154 173//173 155//155
f 154//154 170//170 171//171
f 155//155 173//173 174//174
f 155//155 174//174 175//175
f 155//155 175//175 159//159
f 155//155 159//159 156//156
f 156//156 159//159 157//157
f 157//157 159//159 158//158
f 159//159 175//175 176//176
f 159//159 176//176 160//160
f 162//162 167//167 177//177
f 162//162 177//177 163//163
f 164//164 178//178 166//166
f 164//164 166//166 165//165
f 166//166 179//179 167//167
f 166//166 178//178 180//180
f 166//166 180//180 181//181
f 166//166 181//181 170//170
f 166//166 170//170 179//179
f 167//167 179//179 182//182
f 167//167 182//182 183//183
f 167//167 183//183 177//177
f 168//168 184//184 182//182
f 168//168 182//182 169//169
f 169//169 182//182 179//179
f 169//169 179//179 170//170
f 170//170 181//181 171//171
f 171//171 181//181 185//185
f 171//171 185//185 186//186
f 171//171 186//186 173//173
f 171//171 173//173 172//172
f 173//173 186//186 180//180
f 173//173 180//180 187//187
f 173//173 187//187 174//174
f 174//174 188//188 175//175
f 175//175 188//188 176//176
f 177//177 183//183 184//184
f 180//180 186//186 185//185
f 180//180 185//185 181//181
f 182//182 184//184 183//183
