# https://github.com/mikedh/trimesh
v 0.21970293 0.51643264 0.21848211
v 0.21970293 0.50223088 0.23602535
v 0.21970293 0.49970460 0.23920242
v 0.21970293 0.49817374 0.24117078
v 0.21970293 0.49700585 0.24278982
v 0.21970293 0.49620089 0.24390984
v 0.21970293 0.49586669 0.24437559
v 0.21970293 0.49428552 0.24662670
v 0.21970293 0.49323261 0.24837881
v 0.21970293 0.49316433 0.24850079
v 0.21970293 0.49065244 0.25329691
v 0.21970293 0.49053025 0.25355750
v 0.21970293 0.48957795 0.25565338
v 0.21970293 0.48907128 0.25735006
v 0.21970293 0.48900297 0.25764391
v 0.21970293 0.48864004 0.26210180
v 0.21970293 0.48913234 0.26533985
v 0.21970293 0.48999482 0.26757434
v 0.21970293 0.49027869 0.26811218
v 0.21970293 0.49194610 0.27117836
v 0.21970293 0.49364588 0.27396733
v 0.21970293 0.49626556 0.27512616
v 0.21970293 0.49665728 0.27511507
v 0.21970293 0.49955726 0.27457169
v 0.21970293 0.49978006 0.27431664
v 0.21970293 0.50180686 0.27194908
v 0.21970293 0.50216258 0.27152768
v 0.21970293 0.52366644 0.24580610
v 0.21970293 0.52366644 0.21848211
v 0.27417386 0.52366644 0.21848211
v 0.27566263 0.52304476 0.21848211
v 0.27741328 0.52231169 0.21848211
v 0.27978429 0.52131623 0.21848211
v 0.28075615 0.52086347 0.21848211
v 0.28267223 0.51996505 0.21848211
v 0.28566355 0.51794910 0.21848211
v 0.28608397 0.51701838 0.21848211
v 0.28681457 0.51249051 0.21848211
v 0.28629765 0.50987434 0.21848211
v 0.28609088 0.50890774 0.21848211
v 0.28478131 0.50348502 0.21848211
v 0.28349242 0.50063175 0.21848211
v 0.28122482 0.49810907 0.21848211
v 0.27821282 0.49767783 0.21848211
v 0.27385679 0.49795815 0.21848211
v 0.27367070 0.49797252 0.21848211
v 0.24191725 0.50288850 0.21848211
v 0.24135207 0.50299633 0.21848211
v 0.23740271 0.50382644 0.21848211
v 0.23553486 0.50480384 0.21848211
v 0.23353605 0.50590706 0.21848211
v 0.22445183 0.52366644 0.24342744
v 0.24181387 0.52366644 0.23472236
v 0.25087741 0.52366644 0.23017576
v 0.26986608 0.52366644 0.22065008
v 0.27367070 0.52366644 0.21873717
v 0.22380394 0.52350473 0.24394864
v 0.22374190 0.50079346 0.27113956
v 0.22357649 0.50454152 0.26674265
v 0.24374375 0.52103597 0.23690140
v 0.24795502 0.51182210 0.24581164
v 0.27697906 0.52165407 0.21949124
v 0.25098771 0.49141786 0.23484989
v 0.25098771 0.48976123 0.23774974
v 0.24645248 0.49028230 0.23872559
v 0.24405392 0.48941985 0.24157554
v 0.24228944 0.49090758 0.23979570
v 0.22252883 0.49896792 0.27387306
v 0.23159239 0.49896073 0.26937637
v 0.24066283 0.49895716 0.26484638
v 0.23737514 0.49964711 0.26567253
v 0.27691704 0.49894276 0.24668770
v 0.24309586 0.50261539 0.25925741
v 0.27821282 0.51723039 0.22416538
v 0.26006505 0.52349037 0.22577886
v 0.28274804 0.49961835 0.24295615
v 0.28059760 0.51673090 0.22356655
v 0.28362337 0.51609480 0.22280693
v 0.28000486 0.52101797 0.21873163
v 0.27367070 0.49018526 0.22938843
v 0.26887357 0.49041885 0.23053062
v 0.25358614 0.48951685 0.23725072
v 0.25098771 0.48876220 0.24001749
v 0.24645248 0.48916829 0.24099335
v 0.24645248 0.48812255 0.24392647
v 0.22120549 0.48938751 0.25510445
v 0.24927838 0.49443287 0.26461905
v 0.26779145 0.49458736 0.25570884
v 0.26460025 0.49768144 0.25430605
v 0.26180881 0.49831748 0.25500467
v 0.27087927 0.49831390 0.25046360
v 0.27994281 0.49824923 0.24592808
v 0.28578761 0.49893919 0.24214110
v 0.28539473 0.50322992 0.23730616
v 0.28480199 0.50751698 0.23247679
v 0.28236207 0.51790595 0.22127107
v 0.27368450 0.49550015 0.22160375
v 0.27217504 0.49411303 0.22367190
v 0.27368450 0.49269718 0.22541846
v 0.26913548 0.49288762 0.22639987
v 0.27367070 0.48899221 0.23166174
v 0.27021760 0.48925453 0.23218292
v 0.27821282 0.48998043 0.22906683
v 0.26719180 0.48951685 0.23269856
v 0.25660503 0.48924375 0.23675725
v 0.25526100 0.48852503 0.23901391
v 0.25098771 0.48742542 0.24392647
v 0.24927838 0.49365306 0.26461905
v 0.26779145 0.49341586 0.25570884
v 0.27664134 0.49344102 0.25116777
v 0.27664134 0.49456942 0.25116777
v 0.27367070 0.49539593 0.25194955
v 0.27367070 0.49766347 0.24976498
v 0.28627008 0.49626556 0.24290070
v 0.28992307 0.49929494 0.23796043
v 0.28842053 0.50232071 0.23646338
v 0.28705582 0.50443733 0.23491088
v 0.28171417 0.49522701 0.24712573
v 0.28728327 0.50879270 0.22947714
v 0.28568423 0.51735973 0.21977957
v 0.27520081 0.49388662 0.22336140
v 0.27821282 0.49208626 0.22577332
v 0.27821282 0.48888439 0.23133460
v 0.27367070 0.48796085 0.23484989
v 0.26887357 0.48851427 0.23446731
v 0.26460025 0.48866877 0.23545979
v 0.28096288 0.49388662 0.22336695
v 0.28258261 0.49281576 0.22557372
v 0.28143847 0.48911080 0.23175044
v 0.26005813 0.48779196 0.23939095
v 0.26460025 0.48736075 0.23939095
v 0.25552294 0.48710918 0.24392647
v 0.24645248 0.48721340 0.24845643
v 0.23737514 0.48754039 0.25299749
v 0.24191725 0.48777759 0.24845643
v 0.22208083 0.49389023 0.27356258
v 0.24645248 0.49317151 0.26515135
v 0.26500002 0.49028948 0.25287551
v 0.26460025 0.49275467 0.25644627
v 0.27367070 0.49271873 0.25194955
v 0.28171417 0.49311760 0.24712573
v 0.28591856 0.49322182 0.24282862
v 0.28992307 0.49762753 0.23796043
v 0.29010916 0.50080782 0.23491088
v 0.29001266 0.50376892 0.23343600
v 0.28984034 0.50801289 0.22855118
v 0.28728327 0.50692767 0.23174490
v 0.27821282 0.49562952 0.22102711
v 0.27821282 0.49383274 0.22329487
v 0.27821282 0.48814413 0.23484989
v 0.26913548 0.48713076 0.23939095
v 0.28398868 0.49438974 0.22392695
v 0.28569800 0.49331167 0.22695433
v 0.28287211 0.49032182 0.23027003
v 0.28414032 0.48985824 0.23484989
v 0.28187269 0.48893830 0.23484989
v 0.26005813 0.48695827 0.24392647
v 0.24191725 0.48736432 0.25299749
v 0.25098771 0.48713794 0.24845643
v 0.22376259 0.48848552 0.25753301
v 0.24645248 0.49125615 0.26207405
v 0.26677826 0.48947373 0.25069648
v 0.26913548 0.48974326 0.25015309
v 0.26923886 0.49206111 0.25325811
v 0.27404290 0.49027511 0.24847308
v 0.27817836 0.49225157 0.24856733
v 0.27821282 0.48996246 0.24534589
v 0.28092155 0.48922220 0.24210782
v 0.28283074 0.49165863 0.24398191
v 0.28662160 0.49247795 0.23939095
v 0.28375435 0.49020684 0.23939095
v 0.28907529 0.49532765 0.23484989
v 0.28990239 0.49759877 0.23484989
v 0.29011604 0.50530338 0.23016468
v 0.28999889 0.50096595 0.23059161
v 0.28984034 0.50801289 0.22709849
v 0.27821282 0.48805070 0.23939095
v 0.27367070 0.48732480 0.23939095
v 0.26460025 0.48699778 0.24392647
v 0.28559461 0.49741551 0.22258516
v 0.28644240 0.49604636 0.22557372
v 0.28859973 0.49651352 0.23059161
v 0.28638723 0.49255341 0.23031439
v 0.28148672 0.48902097 0.23939095
v 0.28680769 0.49212939 0.23484989
v 0.24645248 0.48759431 0.25299749
v 0.23737514 0.48811537 0.25753301
v 0.24180008 0.49039012 0.26171365
v 0.24645248 0.48981154 0.25899127
v 0.26375249 0.48921141 0.25128421
v 0.26005813 0.48993373 0.25419515
v 0.26500002 0.48838490 0.24889447
v 0.26913548 0.48868674 0.24788535
v 0.27278158 0.48909643 0.24697047
v 0.27580735 0.48949888 0.24612214
v 0.27821282 0.48878735 0.24307258
v 0.28964737 0.49819171 0.23228827
v 0.28990927 0.50533569 0.22709849
v 0.28973699 0.50258666 0.22773057
v 0.28782088 0.50987434 0.22123781
v 0.26913548 0.48738590 0.24392647
v 0.26005813 0.48766619 0.24845643
v 0.28425059 0.50004238 0.21956332
v 0.28582898 0.50125343 0.22113800
v 0.28501564 0.50306815 0.21896450
v 0.24180008 0.48861489 0.25782135
v 0.24323371 0.48958516 0.25952354
v 0.24645248 0.48879096 0.25672349
v 0.27404290 0.48835614 0.24433677
v 0.28886163 0.50533569 0.22483073
f 1 2 3
f 1 3 4
f 1 4 5
f 1 5 6
f 1 6 7
f 1 7 8
f 1 8 9
f 1 9 10
f 1 10 11
f 1 11 12
f 1 12 13
f 1 13 14
f 1 14 15
f 1 15 16
f 1 16 17
f 1 17 18
f 1 18 19
f 1 19 20
f 1 20 21
f 1 21 22
f 1 22 23
f 1 23 24
f 1 24 25
f 1 25 26
f 1 26 27
f 1 27 28
f 1 28 29
f 1 29 30
f 1 30 31
f 1 31 32
f 1 32 33
f 1 33 34
f 1 34 35
f 1 35 36
f 1 36 37
f 1 37 38
f 1 38 39
f 1 39 40
f 1 40 41
f 1 41 42
f 1 42 43
f 1 43 44
f 1 44 45
f 1 45 46
f 1 46 47
f 1 47 48
f 1 48 49
f 1 49 50
f 1 50 51
f 1 51 2
f 2 51 3
f 29 28 52
f 29 52 53
f 29 53 54
f 29 54 55
f 29 55 56
f 29 56 30
f 51 50 8
f 51 8 7
f 51 7 6
f 51 6 5
f 51 5 4
f 51 4 3
f 28 27 57
f 28 57 52
f 30 56 31
f 50 49 8
f 8 49 9
f 27 26 58
f 27 58 59
f 27 59 57
f 57 60 53
f 57 53 52
f 57 59 61
f 57 61 60
f 56 55 62
f 56 62 31
f 31 62 32
f 49 48 63
f 49 63 64
f 49 64 65
f 49 65 66
f 49 66 67
f 49 67 10
f 49 10 9
f 26 25 68
f 26 68 58
f 58 68 69
f 58 69 70
f 58 70 71
f 58 71 72
f 58 72 73
f 58 73 59
f 59 73 61
f 60 61 74
f 60 74 75
f 60 75 53
f 53 75 54
f 61 76 74
f 61 73 76
f 55 54 75
f 55 75 62
f 62 75 74
f 62 74 77
f 62 77 78
f 62 78 79
f 62 79 32
f 32 79 33
f 48 47 80
f 48 80 81
f 48 81 63
f 63 81 82
f 63 82 64
f 64 82 83
f 64 83 84
f 64 84 65
f 65 84 66
f 66 84 85
f 66 85 86
f 66 86 11
f 66 11 10
f 66 10 67
f 25 24 68
f 68 24 23
f 68 23 87
f 68 87 88
f 68 88 89
f 68 89 69
f 69 89 90
f 69 90 70
f 70 90 91
f 70 91 72
f 70 72 71
f 72 91 92
f 72 92 76
f 72 76 73
f 74 76 77
f 76 92 93
f 76 93 94
f 76 94 95
f 76 95 77
f 77 95 78
f 79 78 96
f 79 96 34
f 79 34 33
f 47 46 97
f 47 97 98
f 47 98 99
f 47 99 100
f 47 100 80
f 80 101 102
f 80 102 81
f 80 100 99
f 80 99 103
f 80 103 101
f 81 102 104
f 81 104 82
f 82 105 83
f 82 104 105
f 83 105 106
f 83 106 107
f 83 107 85
f 83 85 84
f 85 14 86
f 85 107 14
f 86 14 13
f 86 13 12
f 86 12 11
f 23 22 87
f 87 108 109
f 87 109 88
f 87 22 108
f 88 109 110
f 88 110 111
f 88 111 112
f 88 112 113
f 88 113 89
f 89 113 91
f 89 91 90
f 91 113 92
f 92 113 112
f 92 112 111
f 92 111 93
f 93 114 115
f 93 115 116
f 93 116 117
f 93 117 94
f 93 111 118
f 93 118 114
f 94 117 95
f 95 117 78
f 78 35 96
f 78 117 119
f 78 119 120
f 78 120 35
f 96 35 34
f 46 45 121
f 46 121 97
f 97 121 98
f 98 121 99
f 99 121 122
f 99 122 103
f 101 103 123
f 101 123 124
f 101 124 125
f 101 125 126
f 101 126 102
f 102 126 105
f 102 105 104
f 103 122 127
f 103 127 128
f 103 128 129
f 103 129 123
f 105 126 106
f 106 126 130
f 106 130 107
f 107 130 131
f 107 131 132
f 107 132 133
f 107 133 134
f 107 134 135
f 107 135 15
f 107 15 14
f 22 21 136
f 22 136 108
f 108 136 137
f 108 137 138
f 108 138 139
f 108 139 109
f 109 139 140
f 109 140 110
f 111 110 141
f 111 141 118
f 114 118 141
f 114 141 142
f 114 142 143
f 114 143 115
f 115 143 144
f 115 144 145
f 115 145 116
f 116 145 146
f 116 146 147
f 116 147 117
f 117 147 119
f 35 120 36
f 119 147 146
f 119 146 120
f 120 146 36
f 45 44 121
f 121 44 148
f 121 148 149
f 121 149 122
f 122 149 127
f 123 150 124
f 123 129 150
f 124 150 151
f 124 151 131
f 124 131 125
f 125 131 130
f 125 130 126
f 127 43 152
f 127 152 128
f 127 149 148
f 127 148 44
f 127 44 43
f 128 152 153
f 128 153 154
f 128 154 129
f 129 154 155
f 129 155 156
f 129 156 150
f 131 151 132
f 132 151 157
f 132 157 133
f 133 158 134
f 133 157 159
f 133 159 158
f 134 158 16
f 134 16 160
f 134 160 135
f 135 160 15
f 15 160 16
f 21 20 161
f 21 161 137
f 21 137 136
f 137 161 138
f 138 162 163
f 138 163 139
f 138 161 162
f 139 163 164
f 139 164 140
f 140 165 110
f 140 164 165
f 110 165 166
f 110 166 141
f 141 166 167
f 141 167 168
f 141 168 169
f 141 169 142
f 142 170 143
f 142 169 168
f 142 168 171
f 142 171 170
f 143 170 172
f 143 172 173
f 143 173 144
f 144 174 145
f 144 173 175
f 144 175 174
f 145 174 146
f 146 174 176
f 146 176 37
f 146 37 36
f 150 177 178
f 150 178 151
f 150 156 177
f 151 178 179
f 151 179 157
f 43 42 180
f 43 180 152
f 152 180 153
f 153 180 181
f 153 181 182
f 153 182 183
f 153 183 154
f 154 183 155
f 155 171 184
f 155 184 156
f 155 183 185
f 155 185 170
f 155 170 171
f 156 184 177
f 157 179 159
f 158 159 179
f 158 179 186
f 158 186 187
f 158 187 17
f 158 17 16
f 20 19 161
f 161 19 18
f 161 18 188
f 161 188 189
f 161 189 190
f 161 190 191
f 161 191 162
f 162 191 190
f 162 190 192
f 162 192 193
f 162 193 163
f 163 193 194
f 163 194 195
f 163 195 165
f 163 165 164
f 165 195 167
f 165 167 166
f 167 195 168
f 168 184 171
f 168 195 196
f 168 196 177
f 168 177 184
f 170 185 172
f 172 182 197
f 172 197 173
f 172 185 183
f 172 183 182
f 173 197 175
f 174 175 198
f 174 198 176
f 175 197 199
f 175 199 198
f 176 198 200
f 176 200 38
f 176 38 37
f 177 196 201
f 177 201 178
f 178 201 179
f 179 202 186
f 179 201 202
f 42 41 203
f 42 203 180
f 180 204 199
f 180 199 181
f 180 203 205
f 180 205 204
f 181 199 182
f 182 199 197
f 186 206 187
f 186 202 206
f 187 206 17
f 17 206 18
f 18 206 207
f 18 207 188
f 188 207 189
f 189 207 208
f 189 208 190
f 190 208 192
f 192 202 201
f 192 201 193
f 192 208 202
f 193 201 209
f 193 209 194
f 194 209 196
f 194 196 195
f 196 209 201
f 198 199 210
f 198 210 200
f 199 204 210
f 200 210 39
f 200 39 38
f 202 208 206
f 41 205 203
f 41 40 205
f 204 40 210
f 204 205 40
f 206 208 207
f 210 40 39

