# https://github.com/mikedh/trimesh
v 0.22327064 0.52365196 0.20413536
v 0.22741659 0.52367002 0.20413536
v 0.25550252 0.52367002 0.20413536
v 0.25550252 0.51563007 0.20413536
v 0.25088698 0.51045638 0.20413536
v 0.22772500 0.51045638 0.20413536
v 0.21970294 0.52367002 0.20891200
v 0.22098212 0.52367002 0.20765218
v 0.22111881 0.52367002 0.20754403
v 0.22215617 0.52367002 0.20672522
v 0.21970294 0.52367002 0.21848211
v 0.25550252 0.52367002 0.21848211
v 0.22959295 0.51045638 0.21848211
v 0.21970294 0.51643330 0.21848211
v 0.25548851 0.51045638 0.20803842
v 0.25550252 0.51045638 0.20866340
v 0.25550252 0.51045638 0.21848211
v 0.25550252 0.51168382 0.20727859
f 1 2 3
f 1 3 4
f 1 4 5
f 1 5 6
f 1 6 7
f 1 7 8
f 1 8 9
f 1 9 10
f 1 10 2
f 2 10 9
f 2 9 8
f 2 8 7
f 2 7 11
f 2 11 12
f 2 12 3
f 6 13 14
f 6 14 7
f 6 5 15
f 6 15 16
f 6 16 17
f 6 17 13
f 7 14 11
f 3 12 17
f 3 17 16
f 3 16 18
f 3 18 4
f 13 17 12
f 13 12 11
f 13 11 14
f 5 4 15
f 4 18 15
f 15 18 16

