# https://github.com/mikedh/trimesh
v 0.24651079 0.52367008 0.23235759
v 0.24651079 0.52466476 0.23116924
v 0.21970293 0.52367008 0.24580278
v 0.21970293 0.52367008 0.20891407
v 0.22493802 0.52367008 0.18947114
v 0.22573051 0.52367008 0.18656559
v 0.22803971 0.52367008 0.18452486
v 0.23283921 0.52367008 0.18224770
v 0.23499623 0.52367008 0.18262723
v 0.23737365 0.52367008 0.18311253
v 0.23804806 0.52367008 0.18352316
v 0.24030478 0.52367008 0.18559501
v 0.24639271 0.52367008 0.19479074
v 0.24651079 0.52367008 0.19585465
v 0.24651079 0.52367699 0.19481562
v 0.24651079 0.52375549 0.19474095
v 0.24651079 0.53255880 0.18800904
v 0.24651079 0.53257537 0.18818323
v 0.24651079 0.53257537 0.22170597
v 0.24191074 0.53164864 0.22512171
v 0.23283921 0.52975684 0.23193452
v 0.21970293 0.52905333 0.23936327
v 0.21970293 0.53257537 0.23514493
v 0.21970293 0.53257537 0.19859222
v 0.21970293 0.53241754 0.19867310
v 0.21970293 0.53028953 0.20081337
v 0.21970293 0.52803856 0.20328963
v 0.21970293 0.52604389 0.20573477
v 0.21970293 0.52456361 0.20767595
v 0.23283921 0.53257537 0.22856233
v 0.24644782 0.53257537 0.18800281
v 0.23755211 0.53257537 0.18877432
v 0.23736054 0.53257537 0.18879297
v 0.23282871 0.53257537 0.18975735
v 0.22936490 0.53257537 0.19109501
v 0.22710554 0.53257537 0.19238292
v 0.22410356 0.53257537 0.19456674
v 0.22015953 0.53257537 0.23492095
v 0.22590895 0.52591836 0.18703222
f 1 2 3
f 1 3 4
f 1 4 5
f 1 5 6
f 1 6 7
f 1 7 8
f 1 8 9
f 1 9 10
f 1 10 11
f 1 11 12
f 1 12 13
f 1 13 14
f 1 14 15
f 1 15 16
f 1 16 17
f 1 17 18
f 1 18 19
f 1 19 2
f 2 19 20
f 2 20 21
f 2 21 3
f 3 21 22
f 3 22 23
f 3 23 24
f 3 24 25
f 3 25 26
f 3 26 27
f 3 27 28
f 3 28 29
f 3 29 4
f 14 13 15
f 19 30 20
f 19 18 31
f 19 31 32
f 19 32 33
f 19 33 34
f 19 34 35
f 19 35 36
f 19 36 37
f 19 37 24
f 19 24 23
f 19 23 38
f 19 38 30
f 20 30 21
f 21 38 22
f 21 30 38
f 22 38 23
f 4 29 5
f 13 12 15
f 15 12 16
f 18 17 31
f 29 28 5
f 5 28 6
f 12 11 17
f 12 17 16
f 17 11 10
f 17 10 9
f 17 9 31
f 31 9 8
f 31 8 32
f 24 37 39
f 24 39 6
f 24 6 25
f 28 27 6
f 6 39 7
f 6 27 26
f 6 26 25
f 32 8 33
f 8 7 39
f 8 39 35
f 8 35 34
f 8 34 33
f 37 36 39
f 39 36 35

