# https://github.com/mikedh/trimesh
v 0.28279221 0.52367002 0.21214677
v 0.28166127 0.52367002 0.20690465
v 0.28134254 0.52367002 0.20620394
v 0.27997562 0.52367002 0.20396934
v 0.27911440 0.52367002 0.20274852
v 0.27676982 0.52367002 0.19942553
v 0.27326366 0.52367002 0.19599901
v 0.26991686 0.52367002 0.19427732
v 0.26914454 0.52367002 0.19393057
v 0.26891771 0.52367002 0.19388242
v 0.26513880 0.52367002 0.19391854
v 0.26499474 0.52367002 0.19393057
v 0.26484457 0.52367002 0.19394983
v 0.26041895 0.52367002 0.19462407
v 0.26006344 0.52367002 0.19469872
v 0.25684538 0.52367002 0.19543555
v 0.25550604 0.52367002 0.19576785
v 0.25550604 0.52367002 0.21848211
v 0.27418002 0.52367002 0.21848211
v 0.27745327 0.52367002 0.21683988
v 0.27832061 0.52367002 0.21640405
v 0.28233555 0.52367002 0.21271023
v 0.28274009 0.52367002 0.21232496
v 0.28514293 0.52139527 0.21466550
v 0.28514293 0.52139527 0.21409963
v 0.28274930 0.52215099 0.21556127
v 0.28566700 0.51795000 0.21848211
v 0.28608382 0.51702130 0.21848211
v 0.28274930 0.52044362 0.21782957
v 0.28267881 0.51996523 0.21848211
v 0.28681326 0.51248956 0.21848211
v 0.28529003 0.51894999 0.21394311
v 0.28525633 0.51593733 0.21410686
v 0.27978867 0.52131635 0.21848211
v 0.25550604 0.50267541 0.21848211
v 0.25552136 0.50246423 0.21848211
v 0.26800135 0.49911571 0.21848211
v 0.27034900 0.49854064 0.21848211
v 0.27264148 0.49814370 0.21848211
v 0.27367434 0.49797067 0.21848211
v 0.27385518 0.49795794 0.21848211
v 0.27821335 0.49767551 0.21848211
v 0.28122914 0.49810809 0.21848211
v 0.28349406 0.50062966 0.21848211
v 0.28478435 0.50348461 0.21848211
v 0.28608996 0.50890946 0.21848211
v 0.28630143 0.50987637 0.21848211
v 0.28038937 0.50777715 0.20995794
v 0.28079700 0.51080000 0.20935836
v 0.27935654 0.52312297 0.20326623
v 0.28094104 0.50261438 0.21397442
v 0.27661350 0.51157606 0.20478806
v 0.27596682 0.51663959 0.20079325
v 0.27627638 0.51894999 0.20037667
v 0.28122607 0.49811062 0.21847489
v 0.27821335 0.50220728 0.21351209
v 0.27367434 0.50655323 0.20891529
v 0.27367434 0.51133180 0.20459060
v 0.25550604 0.50981528 0.20843370
v 0.25550604 0.50627083 0.21212269
v 0.25550604 0.50246680 0.21847729
v 0.27821335 0.49789688 0.21821003
v 0.27821335 0.49994010 0.21593931
v 0.27367434 0.50215638 0.21340133
v 0.27367434 0.50428355 0.21113303
v 0.26914147 0.50685859 0.20916091
v 0.27367434 0.49805465 0.21837617
v 0.27367434 0.49988666 0.21610546
v 0.26914147 0.50458890 0.21157609
f 1 2 3
f 1 3 4
f 1 4 5
f 1 5 6
f 1 6 7
f 1 7 8
f 1 8 9
f 1 9 10
f 1 10 11
f 1 11 12
f 1 12 13
f 1 13 14
f 1 14 15
f 1 15 16
f 1 16 17
f 1 17 18
f 1 18 19
f 1 19 20
f 1 20 21
f 1 21 22
f 1 22 23
f 1 23 24
f 1 24 25
f 1 25 2
f 2 25 3
f 23 22 26
f 23 26 24
f 24 27 28
f 24 28 25
f 24 26 29
f 24 29 30
f 24 30 27
f 25 28 31
f 25 31 32
f 25 32 3
f 3 32 33
f 3 33 4
f 22 21 26
f 26 21 29
f 27 30 34
f 27 34 19
f 27 19 18
f 27 18 35
f 27 35 36
f 27 36 37
f 27 37 38
f 27 38 39
f 27 39 40
f 27 40 41
f 27 41 42
f 27 42 43
f 27 43 44
f 27 44 45
f 27 45 46
f 27 46 47
f 27 47 31
f 27 31 28
f 29 21 30
f 30 21 34
f 31 47 33
f 31 33 32
f 33 47 46
f 33 46 45
f 33 45 48
f 33 48 49
f 33 49 4
f 4 50 5
f 4 49 50
f 21 20 34
f 34 20 19
f 45 44 48
f 48 44 51
f 48 51 52
f 48 52 53
f 48 53 49
f 49 53 54
f 49 54 6
f 49 6 50
f 50 6 5
f 44 43 55
f 44 55 51
f 51 55 56
f 51 56 52
f 52 56 57
f 52 57 58
f 52 58 10
f 52 10 9
f 52 9 53
f 53 7 54
f 53 9 8
f 53 8 7
f 54 7 6
f 18 17 59
f 18 59 60
f 18 60 61
f 18 61 35
f 43 42 55
f 55 42 62
f 55 62 63
f 55 63 56
f 56 63 64
f 56 64 65
f 56 65 57
f 57 65 66
f 57 66 12
f 57 12 11
f 57 11 58
f 58 11 10
f 17 16 59
f 35 61 36
f 42 41 67
f 42 67 68
f 42 68 62
f 62 68 64
f 62 64 63
f 64 68 60
f 64 60 69
f 64 69 65
f 65 69 66
f 66 69 60
f 66 60 59
f 66 59 13
f 66 13 12
f 59 16 15
f 59 15 14
f 59 14 13
f 61 37 36
f 61 60 37
f 41 40 67
f 67 40 39
f 67 39 68
f 68 39 38
f 68 38 60
f 60 38 37

