# https://github.com/mikedh/trimesh
v 0.21970294 0.49626657 0.27511904
v 0.21970294 0.49365166 0.27395901
v 0.21970294 0.49217594 0.27154565
v 0.21970294 0.49195156 0.27117231
v 0.21970294 0.49027732 0.26810560
v 0.21970294 0.49000117 0.26757225
v 0.21970294 0.48913816 0.26533222
v 0.21970294 0.48863763 0.26209214
v 0.21970294 0.48900869 0.25763872
v 0.21970294 0.48906910 0.25734538
v 0.21970294 0.48957828 0.25565204
v 0.21970294 0.49052760 0.25355867
v 0.21970294 0.49065706 0.25329199
v 0.21970294 0.49316838 0.24849190
v 0.21970294 0.49323744 0.24837190
v 0.21970294 0.49429029 0.24661188
v 0.21970294 0.49586961 0.24437182
v 0.21970294 0.49817380 0.24117176
v 0.21970294 0.49970132 0.23919840
v 0.21970294 0.52604884 0.20574446
v 0.21970294 0.52804238 0.20329107
v 0.21970294 0.53029484 0.20082437
v 0.21970294 0.54602736 0.18481074
v 0.21970294 0.54831433 0.18254404
v 0.21970294 0.55025607 0.18089068
v 0.21970294 0.55110186 0.18017066
v 0.21970294 0.55340606 0.17837062
v 0.21970294 0.55511481 0.17743728
v 0.21970294 0.55540824 0.17727728
v 0.21970294 0.55978364 0.17577058
v 0.21970294 0.56386566 0.17662393
v 0.21970294 0.56435758 0.17673060
v 0.21970294 0.56895739 0.17918397
v 0.21970294 0.57215053 0.18107735
v 0.21970294 0.57251298 0.18138403
v 0.21970294 0.57326376 0.18445075
v 0.21970294 0.57324654 0.18495741
v 0.21970294 0.57202971 0.18790413
v 0.21970294 0.57188296 0.18811747
v 0.21970294 0.56998438 0.19041085
v 0.21970294 0.56586784 0.19534427
v 0.21970294 0.52645445 0.24249180
v 0.21970294 0.50631195 0.26657224
v 0.21970294 0.50180709 0.27194566
v 0.21970294 0.49956325 0.27457237
v 0.21970294 0.49666357 0.27510571
v 0.21340539 0.49897641 0.27839911
v 0.21340539 0.49731943 0.27839911
v 0.20434184 0.49735397 0.28293252
v 0.19524126 0.49762148 0.28743926
v 0.20276128 0.49433345 0.28226584
v 0.19973598 0.49383289 0.28283918
v 0.20434184 0.49897641 0.28293252
v 0.14940494 0.50329143 0.30543962
v 0.19524126 0.49897641 0.28743926
v 0.18591842 0.49892461 0.29186603
v 0.18591842 0.49805298 0.29186603
v 0.16703810 0.49853626 0.30063951
v 0.15456647 0.49802712 0.30562627
v 0.15115839 0.49517918 0.30353290
v 0.14394706 0.49410906 0.30495960
v 0.14092177 0.49371207 0.30551961
v 0.21333130 0.48925897 0.26922563
v 0.20106959 0.50194514 0.28113249
v 0.19199370 0.50194514 0.28567922
v 0.14034142 0.50329143 0.30994636
v 0.13794588 0.51004875 0.30310622
v 0.13672340 0.50821918 0.30590627
v 0.13300662 0.50709730 0.30910635
v 0.20682383 0.50263554 0.27742577
v 0.15456647 0.49939063 0.30562627
v 0.14458917 0.49881244 0.30978635
v 0.14458917 0.49844134 0.30978635
v 0.15115839 0.49744889 0.30626628
v 0.14630556 0.49707779 0.30758631
v 0.14208250 0.49814793 0.31005302
v 0.13755073 0.49548125 0.30805299
v 0.13755073 0.49356538 0.30577293
v 0.13755073 0.49257290 0.30290622
v 0.14662662 0.49197745 0.29837281
v 0.21014547 0.48912951 0.26959893
v 0.21922135 0.48911226 0.26543888
v 0.21635659 0.48960418 0.26842558
v 0.13068517 0.50758916 0.30967969
v 0.12765986 0.50821918 0.31035969
v 0.13755073 0.50387830 0.31053302
v 0.13755073 0.50080597 0.31119969
v 0.14194667 0.50052118 0.31011969
v 0.14234181 0.51983523 0.28919929
v 0.12407891 0.52355474 0.29390606
v 0.12886998 0.51004875 0.30765298
v 0.14959016 0.57142556 0.22386478
v 0.13300662 0.50080597 0.31195971
v 0.13755073 0.49775094 0.31038636
v 0.13300662 0.49536043 0.30810630
v 0.13300662 0.49361715 0.30583960
v 0.13300662 0.49254704 0.30290622
v 0.14208250 0.49188250 0.29837281
v 0.21014547 0.48885337 0.26661223
v 0.21922135 0.48862037 0.26206547
v 0.15115839 0.49142513 0.29382604
v 0.14662662 0.49140787 0.29382604
v 0.12394308 0.51543391 0.30367959
v 0.12394308 0.51316416 0.30629295
v 0.12394308 0.51069599 0.30855966
v 0.12394308 0.50842631 0.31034634
v 0.12889469 0.50578552 0.31131971
v 0.13300662 0.50482756 0.31126639
v 0.13074690 0.53030342 0.28249252
v 0.11939895 0.57206422 0.23823838
v 0.11939895 0.52661842 0.29258603
v 0.12394308 0.51733249 0.30141285
v 0.11032307 0.57206422 0.24278514
v 0.20397140 0.57139969 0.19661096
v 0.14295922 0.57508475 0.22281145
v 0.12365907 0.50537992 0.31071970
v 0.12816614 0.50042623 0.31119969
v 0.13300662 0.49762148 0.31042635
v 0.12947504 0.49794942 0.31014636
v 0.12975904 0.49377248 0.30559960
v 0.12833901 0.49333236 0.30299956
v 0.13300662 0.49236581 0.29837281
v 0.13755073 0.49198607 0.29837281
v 0.21014547 0.48918131 0.26321217
v 0.14208250 0.49192566 0.29382604
v 0.20742889 0.48934528 0.26398551
v 0.11939895 0.52471983 0.29485273
v 0.11939895 0.52245009 0.29754612
v 0.11939895 0.52048248 0.29981282
v 0.11939895 0.51821274 0.30202621
v 0.12048560 0.51314694 0.30622628
v 0.12148579 0.50809836 0.30990633
v 0.12360967 0.57326376 0.23469165
v 0.11575625 0.57509333 0.23643835
v 0.10426013 0.57144284 0.24655853
v 0.10579129 0.55672866 0.26338550
v 0.11273096 0.57572335 0.23719837
v 0.21922135 0.57197791 0.18825081
v 0.16711219 0.57569748 0.20994453
v 0.14899746 0.57571471 0.21902470
v 0.13993391 0.57571471 0.22357145
v 0.12499266 0.50169486 0.31055969
v 0.12148579 0.50690740 0.30990633
v 0.12196737 0.50388688 0.30945301
v 0.12644975 0.49866572 0.30962634
v 0.12810440 0.49605083 0.30761299
v 0.12673375 0.49415222 0.30457291
v 0.12575825 0.49381563 0.30154619
v 0.12575825 0.49381563 0.30002618
v 0.12859833 0.49337551 0.29845279
v 0.13300662 0.49343592 0.29485273
v 0.13729142 0.49296990 0.29350606
v 0.14208250 0.49320292 0.28993264
v 0.11032307 0.54517299 0.27493238
v 0.11032307 0.54326576 0.27719909
v 0.10579129 0.55023885 0.27061230
v 0.10579129 0.55250853 0.26831892
v 0.11644775 0.51797110 0.30159953
v 0.11486719 0.52727431 0.29303938
v 0.11623783 0.51441556 0.30215955
v 0.11765787 0.50988477 0.30430624
v 0.10124718 0.57017422 0.24957192
v 0.10124718 0.56790453 0.25229198
v 0.10544556 0.57327241 0.24375847
v 0.10124718 0.56599730 0.25455868
v 0.10361803 0.57569748 0.24170510
v 0.13755073 0.57615483 0.22415812
v 0.12847485 0.57615483 0.22870488
v 0.11939895 0.57613760 0.23325162
v 0.16476604 0.57593912 0.21041121
v 0.15077560 0.57643962 0.21673132
v 0.15570250 0.57610303 0.21507797
v 0.14662662 0.57613760 0.21962471
v 0.21922135 0.57334143 0.18494408
v 0.12365907 0.50042623 0.30877298
v 0.11768256 0.50534540 0.30418625
v 0.12018923 0.50537992 0.30774632
v 0.12059673 0.50080597 0.30633295
v 0.12138700 0.49821696 0.30546626
v 0.12394308 0.49727628 0.30645296
v 0.12411595 0.49511877 0.30299956
v 0.12053499 0.49747479 0.29837281
v 0.12075725 0.49756107 0.30290622
v 0.12411595 0.49514467 0.29845279
v 0.12716594 0.49429891 0.29699945
v 0.13019124 0.49384153 0.29573277
v 0.13863736 0.49364305 0.29087934
v 0.21949302 0.49068296 0.25334534
v 0.10288949 0.54991955 0.27010563
v 0.10713726 0.54075444 0.27926579
v 0.10124718 0.56150103 0.25931877
v 0.09804901 0.56348598 0.25667870
v 0.10124718 0.56372762 0.25705206
v 0.11215059 0.52689457 0.29246604
v 0.11200242 0.52349436 0.29311937
v 0.11290383 0.51895493 0.29525274
v 0.11448439 0.51441556 0.29837281
v 0.11652184 0.50534540 0.30191955
v 0.10124718 0.57195204 0.24730521
v 0.09814779 0.57191753 0.24730521
v 0.09785143 0.56778371 0.25214529
v 0.11032307 0.57605129 0.23775837
v 0.11449674 0.57637924 0.23489165
v 0.10523563 0.57591319 0.23962507
v 0.10340811 0.57569748 0.24170510
v 0.13263617 0.57650006 0.22581148
v 0.12356028 0.57645690 0.23035824
v 0.15115839 0.57659501 0.21321127
v 0.17201440 0.57570606 0.20546445
v 0.13755073 0.57675034 0.22123808
v 0.17139700 0.57570606 0.20531778
v 0.17201440 0.57570606 0.20531778
v 0.11673176 0.50237662 0.30154619
v 0.11843580 0.50084049 0.30299956
v 0.11826292 0.49988255 0.29837281
v 0.11676880 0.50254923 0.29497275
v 0.11731212 0.50320512 0.29194602
v 0.12109065 0.49810478 0.29541275
v 0.12407891 0.49737984 0.29387939
v 0.12859833 0.49524823 0.29406607
v 0.13300662 0.49448878 0.29258603
v 0.13561207 0.49410906 0.29177269
v 0.13729142 0.49493754 0.28933263
v 0.14208250 0.49436796 0.28766593
v 0.14444099 0.49401414 0.28705260
v 0.21960415 0.49319428 0.24849190
v 0.10344516 0.54441357 0.27358568
v 0.09871580 0.55874807 0.26035878
v 0.09696237 0.56472868 0.25339866
v 0.09778970 0.56006843 0.25793207
v 0.11215059 0.51895493 0.29298604
v 0.10344516 0.54330027 0.27358568
v 0.09883929 0.54350740 0.26015878
v 0.11487953 0.50988477 0.29837281
v 0.09696237 0.56912136 0.24867858
v 0.09788849 0.57239217 0.24391849
v 0.09586339 0.56886244 0.24391849
v 0.11022428 0.57631016 0.23477165
v 0.12847485 0.57677621 0.22578482
v 0.11486719 0.57651728 0.23099825
v 0.10685325 0.57612032 0.23622501
v 0.10340811 0.57569748 0.24134511
v 0.14739220 0.57636195 0.21373127
v 0.14208250 0.57663810 0.21727800
v 0.11228643 0.51157629 0.28929263
v 0.11655888 0.50215226 0.29837281
v 0.11221233 0.51147270 0.28553256
v 0.11260747 0.51216310 0.28250587
v 0.11646009 0.50711453 0.28621259
v 0.11788014 0.50804657 0.28318587
v 0.12164631 0.50306702 0.28701261
v 0.12265886 0.49908859 0.29239938
v 0.12568416 0.49825150 0.29115933
v 0.12847485 0.49760422 0.29022598
v 0.13269791 0.49680164 0.28891930
v 0.13399446 0.49800983 0.28627923
v 0.13797057 0.49758697 0.28477257
v 0.09573992 0.55978364 0.25299865
v 0.09487554 0.56419361 0.24821189
v 0.09588809 0.55525291 0.25299865
v 0.09472735 0.55525291 0.24949192
v 0.09614739 0.55071348 0.25299865
v 0.09431988 0.55275017 0.24685188
v 0.10382795 0.57545578 0.23831838
v 0.09835771 0.57202971 0.24041176
v 0.09486318 0.56576425 0.23939840
v 0.09377655 0.56349456 0.23939840
v 0.09469032 0.56549674 0.24391849
v 0.12428882 0.57648277 0.22575817
v 0.12020159 0.57633609 0.22725151
v 0.11165667 0.57622385 0.23193161
v 0.10864372 0.57513648 0.23319829
v 0.09841945 0.56708467 0.23213160
v 0.21922135 0.57249570 0.18153068
v 0.21615902 0.57180530 0.18225071
v 0.14436691 0.57566291 0.21445128
v 0.13513049 0.57576650 0.21890470
v 0.13755073 0.57626706 0.21834469
v 0.12847485 0.57630157 0.22282477
v 0.13337706 0.57652593 0.22119807
v 0.10802632 0.52115560 0.27858579
v 0.09431988 0.55275017 0.24583851
v 0.09899981 0.54392165 0.25078526
v 0.10412430 0.53973609 0.25127861
v 0.11594147 0.51130009 0.28021246
v 0.09843180 0.54790008 0.24543852
v 0.11705281 0.51209408 0.27787909
v 0.12394308 0.50251472 0.28623927
v 0.12090543 0.50718355 0.28190586
v 0.12394308 0.50413716 0.28397253
v 0.12847485 0.49919215 0.28795928
v 0.13096917 0.49863121 0.28715926
v 0.13269791 0.49965817 0.28477257
v 0.13673575 0.49911448 0.28326586
v 0.13976105 0.49851039 0.28245252
v 0.09476441 0.55978364 0.24926525
v 0.09436926 0.56259704 0.24654520
v 0.09424578 0.55978364 0.24699853
v 0.09407291 0.56322706 0.24391849
v 0.09419639 0.55525291 0.24722521
v 0.09355428 0.55978364 0.24391849
v 0.09396178 0.55521834 0.24415849
v 0.09918504 0.57095093 0.23738503
v 0.09769091 0.56796497 0.23485166
v 0.09398647 0.56295091 0.23647834
v 0.09361603 0.55955064 0.23911840
v 0.12604226 0.57576650 0.22342478
v 0.11717629 0.57563704 0.22809154
v 0.10323523 0.56690347 0.22781153
v 0.09809840 0.56432307 0.23191828
v 0.16624781 0.56705016 0.20045103
v 0.13471065 0.56704152 0.21417128
v 0.09396178 0.55670273 0.24045175
v 0.09503607 0.55368221 0.24282514
v 0.10346985 0.54386985 0.24614519
v 0.09983949 0.54903066 0.24242513
v 0.09462858 0.55788505 0.23742503
v 0.09806136 0.55205113 0.24047843
v 0.09934557 0.55324209 0.23745170
v 0.11939895 0.51148999 0.27710575
v 0.12314044 0.50829685 0.27887914
v 0.10714960 0.53885579 0.25003859
v 0.10579129 0.54496586 0.24306513
v 0.11368176 0.53083849 0.25594538
v 0.12699306 0.50341225 0.28295919
v 0.13001837 0.50276500 0.28207919
v 0.13300662 0.50213498 0.28126583
v 0.13779770 0.50089228 0.28034583
v 0.13884729 0.50267869 0.27743909
v 0.09398647 0.56090558 0.23647834
v 0.11253338 0.56216556 0.22349145
v 0.11253338 0.56200159 0.22349145
v 0.10323523 0.56523782 0.22781153
v 0.14426813 0.56667906 0.20985121
v 0.18410324 0.56293362 0.19125086
v 0.09835771 0.56101775 0.23215827
v 0.21598615 0.56288183 0.17765062
v 0.10286479 0.54803818 0.24114510
v 0.10111134 0.55063581 0.23929174
v 0.09649315 0.55944711 0.23466498
v 0.09933322 0.55798864 0.23283829
v 0.09765387 0.55627126 0.23586500
v 0.10085204 0.55495948 0.23455831
v 0.10237086 0.55224103 0.23627836
v 0.12174510 0.51671976 0.26891893
v 0.12616573 0.50758916 0.27791911
v 0.10579129 0.54723561 0.24015842
v 0.10870547 0.54421508 0.24206512
v 0.11670706 0.53010494 0.25501201
v 0.12848718 0.50468087 0.28042582
v 0.13300662 0.50387830 0.27899912
v 0.13582198 0.50330007 0.27823910
v 0.13331531 0.50638098 0.27562574
v 0.13503170 0.50751150 0.27327901
v 0.13425377 0.51171434 0.26833227
v 0.21724567 0.49865708 0.24182512
v 0.18410324 0.56078476 0.19125086
v 0.10355628 0.56220871 0.22807820
v 0.10535911 0.56396061 0.22686484
v 0.10579129 0.54903924 0.23789170
v 0.10464292 0.55978364 0.22866488
v 0.10798927 0.55747080 0.22801153
v 0.10235851 0.55667686 0.23186493
v 0.10456883 0.55365634 0.23325162
v 0.10759413 0.55272430 0.23230493
v 0.10596418 0.55149019 0.23479833
v 0.11939895 0.52949220 0.25425202
v 0.12352324 0.51778990 0.26657224
v 0.12477040 0.51603800 0.26806560
v 0.12847485 0.51294845 0.26989228
v 0.13122848 0.51235294 0.26913229
v 0.13200641 0.50813287 0.27407902
v 0.12847485 0.50710589 0.27729243
v 0.10810041 0.54846966 0.23715836
v 0.10991558 0.54598421 0.23915839
v 0.11173076 0.54350740 0.24115843
v 0.11939895 0.53131318 0.25198528
v 0.13284609 0.51359570 0.26673222
v 0.13205580 0.52629048 0.25137195
v 0.11721333 0.55760890 0.22354478
v 0.10690263 0.55978364 0.22739819
v 0.21636894 0.55701345 0.17787728
v 0.18539979 0.55775559 0.19185087
v 0.18842508 0.55641794 0.19111753
v 0.11359533 0.55353552 0.22854488
v 0.11032307 0.55449343 0.22934487
v 0.10628523 0.55556357 0.23057157
v 0.21176308 0.55257756 0.18235737
v 0.11662062 0.55273294 0.22781153
v 0.11032307 0.55206841 0.23161159
v 0.11385464 0.54899609 0.23325162
v 0.10990323 0.54953980 0.23479833
v 0.12242425 0.53063136 0.25113195
v 0.12751168 0.51725483 0.26503888
v 0.12880825 0.51545978 0.26657224
v 0.12847485 0.52704990 0.25231862
v 0.11112570 0.54775339 0.23627836
v 0.11486719 0.54463792 0.23802504
v 0.11486719 0.54279977 0.24029174
v 0.12847485 0.52931100 0.24953192
v 0.18986982 0.54851282 0.19635762
v 0.21766549 0.54881489 0.18301071
v 0.21467724 0.54955709 0.18369073
v 0.18744959 0.54686451 0.19921100
v 0.17163160 0.54393029 0.20993119
v 0.11687993 0.54833162 0.23245162
v 0.18744959 0.54012442 0.20617113
v 0.11748499 0.54405975 0.23730503
v 0.12544955 0.52997547 0.25031859
v 0.21140498 0.54794323 0.18673077
v 0.21467724 0.54491413 0.18823747
v 0.18744959 0.54459476 0.20154437
v 0.21467724 0.54718381 0.18595743
v 0.18744959 0.54239416 0.20381109
f 1 2 3
f 1 3 4
f 1 4 5
f 1 5 6
f 1 6 7
f 1 7 8
f 1 8 9
f 1 9 10
f 1 10 11
f 1 11 12
f 1 12 13
f 1 13 14
f 1 14 15
f 1 15 16
f 1 16 17
f 1 17 18
f 1 18 19
f 1 19 20
f 1 20 21
f 1 21 22
f 1 22 23
f 1 23 24
f 1 24 25
f 1 25 26
f 1 26 27
f 1 27 28
f 1 28 29
f 1 29 30
f 1 30 31
f 1 31 32
f 1 32 33
f 1 33 34
f 1 34 35
f 1 35 36
f 1 36 37
f 1 37 38
f 1 38 39
f 1 39 40
f 1 40 41
f 1 41 42
f 1 42 43
f 1 43 44
f 1 44 45
f 1 45 46
f 1 46 47
f 1 47 48
f 1 48 49
f 1 49 50
f 1 50 2
f 2 51 52
f 2 52 3
f 2 50 51
f 46 45 47
f 47 53 49
f 47 49 48
f 47 45 54
f 47 54 53
f 49 53 55
f 49 55 50
f 50 55 56
f 50 56 57
f 50 57 58
f 50 58 51
f 51 58 59
f 51 59 60
f 51 60 52
f 52 4 3
f 52 60 61
f 52 61 62
f 52 62 63
f 52 63 4
f 45 44 64
f 45 64 65
f 45 65 54
f 53 54 66
f 53 66 55
f 54 67 68
f 54 68 69
f 54 69 66
f 54 65 64
f 54 64 70
f 54 70 43
f 54 43 42
f 54 42 67
f 55 66 56
f 57 56 58
f 58 56 66
f 58 66 71
f 58 71 72
f 58 72 73
f 58 73 59
f 59 73 74
f 59 74 60
f 60 74 61
f 4 63 5
f 61 74 75
f 61 75 73
f 61 73 62
f 62 73 76
f 62 76 77
f 62 77 78
f 62 78 79
f 62 79 80
f 62 80 63
f 63 81 8
f 63 8 82
f 63 82 7
f 63 7 83
f 63 83 6
f 63 6 5
f 63 80 81
f 44 70 64
f 44 43 70
f 66 69 84
f 66 84 85
f 66 85 86
f 66 86 87
f 66 87 88
f 66 88 72
f 66 72 71
f 67 89 90
f 67 90 68
f 67 42 89
f 68 91 69
f 68 90 91
f 69 91 84
f 42 41 92
f 42 92 89
f 72 88 87
f 72 87 73
f 73 75 74
f 73 87 93
f 73 93 76
f 76 93 94
f 76 94 77
f 77 94 95
f 77 95 78
f 78 96 97
f 78 97 79
f 78 95 96
f 79 97 98
f 79 98 80
f 80 98 81
f 81 99 100
f 81 100 8
f 81 98 101
f 81 101 102
f 81 102 99
f 8 100 9
f 8 7 82
f 7 6 83
f 84 91 103
f 84 103 85
f 85 104 105
f 85 105 106
f 85 106 107
f 85 107 108
f 85 108 86
f 85 103 104
f 86 108 87
f 87 108 93
f 89 109 90
f 89 92 110
f 89 110 109
f 90 111 112
f 90 112 91
f 90 109 110
f 90 110 113
f 90 113 111
f 91 112 103
f 41 40 114
f 41 114 115
f 41 115 92
f 92 115 110
f 93 107 116
f 93 116 117
f 93 117 118
f 93 118 94
f 93 108 107
f 94 118 95
f 95 118 119
f 95 119 120
f 95 120 96
f 96 120 97
f 97 120 121
f 97 121 122
f 97 122 123
f 97 123 98
f 98 123 102
f 98 102 101
f 99 124 9
f 99 9 100
f 99 102 124
f 102 123 122
f 102 122 125
f 102 125 126
f 102 126 124
f 9 124 126
f 9 126 125
f 9 125 10
f 103 112 111
f 103 111 127
f 103 127 128
f 103 128 129
f 103 129 104
f 104 129 130
f 104 130 105
f 105 130 131
f 105 131 106
f 106 132 116
f 106 116 107
f 106 131 132
f 110 115 133
f 110 133 134
f 110 134 113
f 111 135 136
f 111 136 127
f 111 113 135
f 113 134 137
f 113 137 135
f 40 39 138
f 40 138 114
f 114 138 139
f 114 139 140
f 114 140 115
f 115 141 137
f 115 137 134
f 115 134 133
f 115 140 141
f 116 142 117
f 116 132 143
f 116 143 144
f 116 144 142
f 117 142 145
f 117 145 119
f 117 119 118
f 119 145 146
f 119 146 120
f 120 147 121
f 120 146 147
f 121 147 148
f 121 148 122
f 122 148 149
f 122 149 150
f 122 150 151
f 122 151 152
f 122 152 125
f 125 152 153
f 125 153 11
f 125 11 10
f 127 136 154
f 127 154 155
f 127 155 128
f 128 155 129
f 129 156 130
f 129 155 157
f 129 157 156
f 130 158 131
f 130 156 159
f 130 159 158
f 131 158 132
f 132 158 160
f 132 160 161
f 132 161 143
f 135 162 163
f 135 163 136
f 135 137 164
f 135 164 162
f 136 163 165
f 136 165 155
f 136 155 154
f 137 166 164
f 137 141 167
f 137 167 168
f 137 168 169
f 137 169 166
f 39 38 138
f 138 38 139
f 139 170 171
f 139 171 172
f 139 172 173
f 139 173 140
f 139 38 37
f 139 37 174
f 139 174 170
f 140 173 167
f 140 167 141
f 142 144 175
f 142 175 145
f 143 161 176
f 143 176 177
f 143 177 144
f 144 177 178
f 144 178 179
f 144 179 175
f 145 175 179
f 145 179 180
f 145 180 147
f 145 147 146
f 147 180 179
f 147 179 181
f 147 181 148
f 148 182 149
f 148 181 183
f 148 183 182
f 149 184 185
f 149 185 150
f 149 182 184
f 150 185 186
f 150 186 151
f 151 187 153
f 151 153 152
f 151 186 187
f 153 187 188
f 153 188 12
f 153 12 11
f 155 165 157
f 156 189 190
f 156 190 158
f 156 158 159
f 156 157 191
f 156 191 192
f 156 192 189
f 157 165 193
f 157 193 191
f 158 190 189
f 158 189 194
f 158 194 195
f 158 195 160
f 160 176 161
f 160 195 196
f 160 196 197
f 160 197 198
f 160 198 176
f 162 164 166
f 162 166 199
f 162 199 200
f 162 200 163
f 163 200 165
f 165 200 201
f 165 201 193
f 166 169 202
f 166 202 203
f 166 203 204
f 166 204 205
f 166 205 199
f 167 206 168
f 167 173 206
f 168 206 169
f 169 206 207
f 169 207 203
f 169 203 202
f 170 208 171
f 170 174 209
f 170 209 208
f 171 173 172
f 171 208 210
f 171 210 206
f 171 206 173
f 37 36 174
f 174 36 208
f 174 208 211
f 174 211 212
f 174 212 209
f 176 178 177
f 176 198 213
f 176 213 178
f 178 213 214
f 178 214 179
f 179 214 183
f 179 183 181
f 182 215 216
f 182 216 217
f 182 217 218
f 182 218 184
f 182 183 215
f 183 214 213
f 183 213 215
f 184 218 185
f 185 218 219
f 185 219 220
f 185 220 186
f 186 220 221
f 186 221 187
f 187 222 223
f 187 223 224
f 187 224 225
f 187 225 188
f 187 221 222
f 188 226 14
f 188 14 13
f 188 13 12
f 188 225 226
f 189 227 194
f 189 192 228
f 189 228 227
f 191 193 192
f 192 193 201
f 192 201 229
f 192 229 230
f 192 230 228
f 194 227 195
f 195 227 196
f 196 231 198
f 196 198 197
f 196 227 232
f 196 232 233
f 196 233 231
f 198 231 234
f 198 234 233
f 198 233 213
f 199 205 200
f 200 235 201
f 200 205 236
f 200 236 237
f 200 237 235
f 201 235 229
f 203 238 204
f 203 207 239
f 203 239 240
f 203 240 238
f 204 238 241
f 204 241 205
f 205 241 242
f 205 242 236
f 206 210 239
f 206 239 207
f 208 243 244
f 208 244 210
f 208 209 212
f 208 212 211
f 208 36 35
f 208 35 243
f 210 244 239
f 213 245 246
f 213 246 215
f 213 233 245
f 215 246 216
f 216 246 247
f 216 247 248
f 216 248 217
f 217 248 218
f 218 248 249
f 218 249 250
f 218 250 251
f 218 251 252
f 218 252 219
f 219 252 251
f 219 251 253
f 219 253 220
f 220 253 254
f 220 254 255
f 220 255 221
f 221 255 223
f 221 223 222
f 223 255 256
f 223 256 257
f 223 257 224
f 224 257 16
f 224 16 226
f 224 226 225
f 226 16 15
f 226 15 14
f 227 228 258
f 227 258 232
f 228 230 258
f 229 235 259
f 229 259 258
f 229 258 230
f 231 233 234
f 232 258 260
f 232 260 233
f 233 260 261
f 233 261 262
f 233 262 263
f 233 263 245
f 235 237 259
f 236 242 264
f 236 264 265
f 236 265 266
f 236 266 237
f 237 266 267
f 237 267 268
f 237 268 259
f 238 240 241
f 239 244 240
f 240 244 269
f 240 269 270
f 240 270 271
f 240 271 241
f 241 264 242
f 241 271 272
f 241 272 273
f 241 273 264
f 243 35 274
f 243 274 275
f 243 275 276
f 243 276 277
f 243 277 278
f 243 278 279
f 243 279 244
f 244 280 269
f 244 279 280
f 35 34 274
f 245 281 247
f 245 247 246
f 245 263 281
f 247 281 263
f 247 263 282
f 247 282 283
f 247 283 248
f 248 284 285
f 248 285 250
f 248 250 249
f 248 283 286
f 248 286 284
f 250 285 287
f 250 287 251
f 251 288 253
f 251 287 289
f 251 289 290
f 251 290 288
f 253 288 291
f 253 291 254
f 254 291 292
f 254 292 256
f 254 256 255
f 256 293 294
f 256 294 295
f 256 295 257
f 256 292 293
f 257 295 16
f 16 295 17
f 258 259 296
f 258 296 261
f 258 261 260
f 259 297 298
f 259 298 296
f 259 268 299
f 259 299 297
f 261 296 300
f 261 300 263
f 261 263 262
f 263 300 301
f 263 301 302
f 263 302 282
f 264 303 265
f 264 273 303
f 265 303 273
f 265 273 304
f 265 304 305
f 265 305 266
f 266 305 267
f 267 305 306
f 267 306 301
f 267 301 299
f 267 299 268
f 269 280 270
f 270 280 279
f 270 279 307
f 270 307 308
f 270 308 271
f 271 308 309
f 271 309 273
f 271 273 272
f 273 309 310
f 273 310 305
f 273 305 304
f 274 34 275
f 275 34 33
f 275 33 311
f 275 311 276
f 276 311 312
f 276 312 309
f 276 309 277
f 277 309 307
f 277 307 279
f 277 279 278
f 282 302 313
f 282 313 314
f 282 314 283
f 283 314 286
f 284 315 287
f 284 287 285
f 284 286 316
f 284 316 315
f 286 314 317
f 286 317 318
f 286 318 319
f 286 319 316
f 287 320 321
f 287 321 289
f 287 315 322
f 287 322 323
f 287 323 324
f 287 324 320
f 288 290 325
f 288 325 291
f 289 321 290
f 290 321 325
f 291 325 292
f 292 325 326
f 292 326 293
f 293 326 327
f 293 327 294
f 294 327 328
f 294 328 295
f 295 328 329
f 295 329 18
f 295 18 17
f 296 298 300
f 297 299 301
f 297 301 298
f 298 301 300
f 301 306 302
f 302 306 313
f 305 330 306
f 305 310 330
f 306 330 313
f 307 309 308
f 309 331 332
f 309 332 333
f 309 333 310
f 309 312 334
f 309 334 335
f 309 335 331
f 310 336 330
f 310 333 336
f 33 32 311
f 311 32 337
f 311 337 335
f 311 335 334
f 311 334 312
f 313 330 317
f 313 317 314
f 315 316 338
f 315 338 322
f 316 319 339
f 316 339 338
f 317 330 340
f 317 340 341
f 317 341 342
f 317 342 319
f 317 319 318
f 319 342 343
f 319 343 344
f 319 344 339
f 320 324 345
f 320 345 321
f 321 346 325
f 321 345 346
f 322 338 323
f 323 338 347
f 323 347 348
f 323 348 324
f 324 349 345
f 324 348 349
f 325 346 350
f 325 350 326
f 326 350 351
f 326 351 327
f 327 351 352
f 327 352 329
f 327 329 328
f 329 352 353
f 329 353 354
f 329 354 355
f 329 355 19
f 329 19 356
f 329 356 18
f 18 356 19
f 330 336 340
f 331 335 357
f 331 357 332
f 333 358 336
f 333 332 359
f 333 359 358
f 335 337 30
f 335 30 357
f 336 358 341
f 336 341 340
f 32 31 337
f 337 31 30
f 338 339 344
f 338 344 360
f 338 360 347
f 341 358 361
f 341 361 362
f 341 362 363
f 341 363 343
f 341 343 342
f 343 363 364
f 343 364 344
f 344 364 365
f 344 365 366
f 344 366 360
f 345 349 367
f 345 367 368
f 345 368 369
f 345 369 346
f 346 370 371
f 346 371 372
f 346 372 373
f 346 373 351
f 346 351 350
f 346 369 370
f 347 360 348
f 348 360 374
f 348 374 375
f 348 375 376
f 348 376 349
f 349 377 367
f 349 376 377
f 351 373 372
f 351 372 353
f 351 353 352
f 353 372 354
f 354 372 355
f 355 372 371
f 355 371 378
f 355 378 379
f 355 379 20
f 355 20 19
f 332 380 362
f 332 362 381
f 332 381 358
f 332 358 359
f 332 357 382
f 332 382 383
f 332 383 384
f 332 384 380
f 358 381 361
f 30 29 382
f 30 382 357
f 360 366 374
f 361 381 362
f 362 385 386
f 362 386 365
f 362 365 387
f 362 387 363
f 362 380 388
f 362 388 385
f 363 387 365
f 363 365 364
f 365 386 385
f 365 385 389
f 365 389 390
f 365 390 391
f 365 391 392
f 365 392 374
f 365 374 366
f 367 377 393
f 367 393 368
f 368 393 369
f 369 393 394
f 369 394 370
f 370 394 395
f 370 395 371
f 371 395 396
f 371 396 378
f 374 392 397
f 374 397 375
f 375 397 376
f 376 397 398
f 376 398 399
f 376 399 393
f 376 393 377
f 378 396 379
f 379 396 400
f 379 400 21
f 379 21 20
f 380 384 388
f 382 29 28
f 382 28 27
f 382 27 388
f 382 388 384
f 382 384 383
f 385 388 401
f 385 401 389
f 388 27 26
f 388 26 25
f 388 25 24
f 388 24 402
f 388 402 403
f 388 403 401
f 389 401 404
f 389 404 405
f 389 405 390
f 390 406 391
f 390 405 407
f 390 407 22
f 390 22 21
f 390 21 406
f 391 406 408
f 391 408 398
f 391 398 397
f 391 397 392
f 393 409 396
f 393 396 395
f 393 395 394
f 393 399 398
f 393 398 408
f 393 408 409
f 396 409 400
f 400 409 408
f 400 408 21
f 21 408 406
f 401 403 410
f 401 410 411
f 401 411 22
f 401 22 412
f 401 412 404
f 24 23 413
f 24 413 410
f 24 410 402
f 402 410 403
f 404 412 405
f 405 412 414
f 405 414 407
f 407 414 22
f 22 414 412
f 22 411 23
f 410 413 411
f 411 413 23

