# https://github.com/mikedh/trimesh
v 0.27842069 0.53258020 0.20336066
v 0.27841496 0.53259611 0.20336066
v 0.27840921 0.53258020 0.20341663
v 0.27440885 0.53258020 0.20767723
v 0.27407551 0.53258020 0.20787312
v 0.27398929 0.53258020 0.20792210
v 0.27390882 0.53258020 0.20796408
v 0.24689497 0.53258020 0.22151546
v 0.21970868 0.53258020 0.23515083
v 0.21970868 0.53258020 0.19858934
v 0.22410561 0.53258020 0.19456659
v 0.22710589 0.53258020 0.19238383
v 0.22936469 0.53258020 0.19109654
v 0.23283051 0.53258020 0.18976030
v 0.23736539 0.53258020 0.18879484
v 0.25960872 0.53258020 0.18474410
v 0.26024669 0.53258020 0.18467414
v 0.26459765 0.53258020 0.18482107
v 0.26474708 0.53258020 0.18482806
v 0.26486206 0.53258020 0.18484904
v 0.26913252 0.53258020 0.18715775
v 0.27242017 0.53258020 0.19025701
v 0.27469051 0.53258020 0.19346121
v 0.27626535 0.53258020 0.19573495
v 0.27770224 0.53258020 0.19854036
v 0.27798387 0.53258020 0.20042230
v 0.27639180 0.53999352 0.19517525
v 0.27639180 0.53999352 0.19705020
v 0.27682287 0.53579092 0.20195445
v 0.27520779 0.53452814 0.20497675
v 0.27656421 0.53710544 0.19497935
v 0.27149481 0.55313116 0.18247038
v 0.27149481 0.55313116 0.18289714
v 0.27461576 0.53881836 0.20006551
v 0.27207533 0.54928708 0.18821417
v 0.27040851 0.54803228 0.19123647
v 0.27100050 0.54374200 0.19607775
v 0.27538019 0.53710544 0.19270565
v 0.27141434 0.54839879 0.18265228
v 0.27148333 0.55071718 0.18250537
v 0.26688522 0.55742544 0.17357138
v 0.26688522 0.55763656 0.17357138
v 0.26748872 0.55834562 0.17585909
v 0.26768413 0.55850494 0.17930816
v 0.26620123 0.55724221 0.18233046
v 0.26258025 0.56216586 0.17825875
v 0.26919001 0.54620385 0.19404188
v 0.27133963 0.53504199 0.18729067
v 0.27175921 0.53806549 0.18665403
v 0.27217302 0.54164273 0.18605237
v 0.27067864 0.54164273 0.18378565
v 0.26738524 0.54617995 0.17738424
v 0.26786804 0.55071718 0.17669162
v 0.26663807 0.55439794 0.17392118
v 0.26232734 0.55300772 0.16905890
v 0.26248252 0.55603516 0.16889100
v 0.26248252 0.55978769 0.16889800
v 0.26237333 0.56227738 0.16900994
v 0.26335043 0.56324935 0.17132564
v 0.26183879 0.56551993 0.17132564
v 0.25956848 0.56795788 0.17132564
v 0.26350561 0.56316566 0.17585909
v 0.25896499 0.56708944 0.17418003
v 0.24191752 0.55854082 0.19296449
v 0.25111946 0.56892186 0.17592905
v 0.24025071 0.57138771 0.17843364
v 0.21970868 0.56794590 0.19285256
v 0.21970868 0.57031614 0.19001214
v 0.21970868 0.57188165 0.18812321
v 0.21970868 0.57203698 0.18790632
v 0.21970868 0.57325196 0.18495399
v 0.21970868 0.57327187 0.18444328
v 0.21970868 0.57251102 0.18138599
v 0.21970868 0.57215250 0.18107116
v 0.21970868 0.56896174 0.17918922
v 0.21970868 0.56436074 0.17672659
v 0.21970868 0.55978769 0.17576115
v 0.21970868 0.55540979 0.17727929
v 0.21970868 0.55511898 0.17743321
v 0.21970868 0.55340606 0.17837068
v 0.21970868 0.55110753 0.18016867
v 0.21970868 0.54831910 0.18254034
v 0.21970868 0.54603255 0.18480007
v 0.26776460 0.53791809 0.18143496
v 0.26632768 0.54020065 0.17841266
v 0.26704040 0.54322416 0.17788096
v 0.26820141 0.54168254 0.18011270
v 0.26627597 0.55071718 0.17441790
v 0.26400566 0.55071718 0.17169642
v 0.26341939 0.54617995 0.17247300
v 0.26166636 0.55071718 0.16942270
v 0.25939605 0.55071718 0.16816342
v 0.26051110 0.55481225 0.16771567
v 0.26006278 0.55978769 0.16721894
v 0.26032141 0.56400621 0.16791156
v 0.25898796 0.56792200 0.16823336
v 0.25437838 0.57145935 0.16870211
v 0.25437838 0.57145935 0.16984247
v 0.25574055 0.57017666 0.17133963
v 0.25233221 0.57074636 0.17286476
v 0.24930897 0.57137573 0.17389320
v 0.25552216 0.56781048 0.17504755
v 0.26030993 0.56520528 0.17576115
v 0.23737688 0.57195336 0.17915425
v 0.22830139 0.57196927 0.18369469
v 0.22211693 0.57139564 0.18751454
v 0.26664382 0.53489459 0.18270825
v 0.26283315 0.54339945 0.17312363
v 0.26568970 0.54617995 0.17511751
v 0.25842470 0.54804420 0.16873708
v 0.25551641 0.55523050 0.16526003
v 0.25400478 0.55672830 0.16423862
v 0.25629234 0.55978769 0.16510613
v 0.25523478 0.56403810 0.16550490
v 0.25574055 0.56920469 0.16773665
v 0.25098726 0.56886613 0.16707902
v 0.25098726 0.57172233 0.16850622
v 0.25088957 0.57175016 0.17133963
v 0.24645239 0.57188165 0.17460679
v 0.23275004 0.57246321 0.18058144
v 0.22368029 0.57249111 0.18512189
v 0.26361480 0.53461176 0.18240742
v 0.26330444 0.53895384 0.17766407
v 0.26006278 0.54306084 0.17281580
v 0.25552216 0.54792470 0.16864614
v 0.25552216 0.55071718 0.16706502
v 0.25098726 0.55625027 0.16396576
v 0.25098726 0.55978769 0.16368593
v 0.25402203 0.55978769 0.16423161
v 0.25353348 0.56232917 0.16442052
v 0.25098726 0.56260800 0.16423161
v 0.24645239 0.56258011 0.16419664
v 0.24759617 0.57159084 0.16868111
v 0.24191752 0.57233977 0.17205322
v 0.23737688 0.57278991 0.17585909
v 0.24181980 0.57225209 0.17604099
v 0.22830139 0.57317626 0.18039954
v 0.26006278 0.53871083 0.17734925
v 0.26006278 0.54079419 0.17508252
v 0.25552216 0.54310066 0.17282279
v 0.25552216 0.54565412 0.17055607
v 0.25098726 0.55397969 0.16502917
v 0.25227475 0.54815179 0.16882104
v 0.24744098 0.55661678 0.16406371
v 0.24614203 0.55966818 0.16398676
v 0.24381423 0.56229329 0.16436453
v 0.24456717 0.57082999 0.16928977
v 0.23472148 0.57139564 0.17343146
v 0.23737688 0.57196927 0.17288576
v 0.22830139 0.57233977 0.17710440
v 0.23306042 0.57246721 0.17568418
v 0.22122605 0.55282444 0.17799290
v 0.24306704 0.55237037 0.16855519
v 0.24645239 0.54923928 0.16972354
v 0.24925148 0.54860991 0.16919184
v 0.25552216 0.53881043 0.17743321
v 0.25552216 0.54083407 0.17516649
v 0.25175744 0.54345125 0.17313062
v 0.25085509 0.55035865 0.16751277
v 0.24381423 0.56110221 0.16436453
v 0.24645239 0.55150992 0.16784859
v 0.24614203 0.55516279 0.16542095
v 0.24441773 0.55807871 0.16461641
v 0.23436514 0.56093490 0.16873708
v 0.23436514 0.56258810 0.16873708
v 0.22539309 0.57162273 0.17781799
v 0.24873421 0.54391730 0.17359936
v 0.25203907 0.53908527 0.17777601
v 0.22830139 0.55630606 0.17285079
v 0.24004379 0.55330646 0.16923381
v 0.22830139 0.55978769 0.17166145
v 0.22580692 0.55728203 0.17347343
v 0.22505972 0.56271553 0.17313062
v 0.22236983 0.57022452 0.17853859
v 0.22513445 0.55978769 0.17315862
f 1 2 3
f 1 3 4
f 1 4 5
f 1 5 6
f 1 6 7
f 1 7 8
f 1 8 9
f 1 9 10
f 1 10 11
f 1 11 12
f 1 12 13
f 1 13 14
f 1 14 15
f 1 15 16
f 1 16 17
f 1 17 18
f 1 18 19
f 1 19 20
f 1 20 21
f 1 21 22
f 1 22 23
f 1 23 24
f 1 24 25
f 1 25 26
f 1 26 27
f 1 27 28
f 1 28 2
f 2 28 3
f 3 29 30
f 3 30 4
f 3 28 29
f 26 25 27
f 27 25 31
f 27 31 32
f 27 32 33
f 27 33 28
f 28 34 30
f 28 30 29
f 28 33 35
f 28 35 34
f 30 34 36
f 30 36 37
f 30 37 7
f 30 7 6
f 30 6 5
f 30 5 4
f 25 24 31
f 31 24 38
f 31 38 39
f 31 39 40
f 31 40 32
f 32 40 41
f 32 41 42
f 32 42 43
f 32 43 44
f 32 44 33
f 34 35 36
f 33 44 35
f 35 44 45
f 35 45 36
f 36 45 37
f 37 45 46
f 37 46 47
f 37 47 9
f 37 9 8
f 37 8 7
f 24 23 48
f 24 48 49
f 24 49 38
f 38 49 50
f 38 50 39
f 39 50 51
f 39 51 52
f 39 52 53
f 39 53 54
f 39 54 41
f 39 41 40
f 41 54 55
f 41 55 56
f 41 56 42
f 42 56 57
f 42 57 58
f 42 58 59
f 42 59 43
f 43 59 60
f 43 60 44
f 44 60 61
f 44 61 62
f 44 62 63
f 44 63 46
f 44 46 45
f 47 64 9
f 47 46 65
f 47 65 66
f 47 66 64
f 9 64 67
f 9 67 68
f 9 68 69
f 9 69 70
f 9 70 71
f 9 71 72
f 9 72 73
f 9 73 74
f 9 74 75
f 9 75 76
f 9 76 77
f 9 77 78
f 9 78 79
f 9 79 80
f 9 80 81
f 9 81 82
f 9 82 83
f 9 83 10
f 23 22 48
f 48 84 85
f 48 85 86
f 48 86 87
f 48 87 49
f 48 22 84
f 49 87 51
f 49 51 50
f 51 87 52
f 52 87 86
f 52 86 88
f 52 88 53
f 53 88 54
f 54 88 55
f 55 89 90
f 55 90 91
f 55 91 92
f 55 92 93
f 55 93 56
f 55 88 89
f 56 93 94
f 56 94 57
f 57 94 58
f 58 94 95
f 58 95 96
f 58 96 59
f 59 96 60
f 60 96 61
f 61 96 97
f 61 97 98
f 61 98 99
f 61 99 63
f 61 63 62
f 63 100 101
f 63 101 102
f 63 102 103
f 63 103 46
f 63 99 100
f 46 103 65
f 64 66 67
f 65 103 102
f 65 102 101
f 65 101 66
f 66 101 104
f 66 104 105
f 66 105 69
f 66 69 106
f 66 106 67
f 67 106 68
f 10 83 11
f 22 21 107
f 22 107 84
f 84 107 85
f 85 108 90
f 85 90 86
f 85 107 108
f 86 90 109
f 86 109 88
f 88 109 89
f 89 109 90
f 90 108 91
f 91 110 92
f 91 108 110
f 92 111 93
f 92 110 111
f 93 111 112
f 93 112 113
f 93 113 94
f 94 113 95
f 95 113 114
f 95 114 96
f 96 114 115
f 96 115 97
f 97 115 116
f 97 116 117
f 97 117 118
f 97 118 98
f 98 118 119
f 98 119 101
f 98 101 100
f 98 100 99
f 101 119 104
f 104 120 121
f 104 121 70
f 104 70 105
f 104 119 120
f 105 70 69
f 69 68 106
f 11 83 82
f 11 82 12
f 21 20 107
f 107 20 122
f 107 122 123
f 107 123 108
f 108 123 124
f 108 124 110
f 110 124 125
f 110 125 126
f 110 126 112
f 110 112 111
f 112 127 128
f 112 128 129
f 112 129 113
f 112 126 127
f 113 129 130
f 113 130 114
f 114 130 115
f 115 130 131
f 115 131 116
f 116 131 132
f 116 132 117
f 117 133 134
f 117 134 135
f 117 135 118
f 117 132 133
f 118 135 136
f 118 136 119
f 119 136 120
f 120 136 137
f 120 137 71
f 120 71 121
f 121 71 70
f 12 82 13
f 82 81 13
f 20 19 122
f 122 19 138
f 122 138 139
f 122 139 123
f 123 139 124
f 124 140 141
f 124 141 125
f 124 139 140
f 125 142 126
f 125 141 143
f 125 143 142
f 126 142 127
f 127 144 128
f 127 142 144
f 128 144 145
f 128 145 132
f 128 132 131
f 128 131 130
f 128 130 129
f 132 145 146
f 132 146 133
f 133 146 147
f 133 147 148
f 133 148 149
f 133 149 134
f 134 149 150
f 134 150 151
f 134 151 137
f 134 137 135
f 135 137 136
f 137 73 72
f 137 72 71
f 137 151 150
f 137 150 73
f 13 81 152
f 13 152 153
f 13 153 154
f 13 154 155
f 13 155 14
f 81 80 152
f 19 18 138
f 138 156 157
f 138 157 139
f 138 18 17
f 138 17 156
f 139 157 140
f 140 143 141
f 140 157 158
f 140 158 143
f 142 143 159
f 142 159 144
f 143 155 159
f 143 158 155
f 144 160 145
f 144 159 161
f 144 161 162
f 144 162 163
f 144 163 160
f 145 160 146
f 146 160 164
f 146 164 165
f 146 165 148
f 146 148 147
f 148 166 150
f 148 150 149
f 148 165 166
f 150 166 73
f 73 166 74
f 14 155 167
f 14 167 158
f 14 158 168
f 14 168 15
f 152 80 79
f 152 79 169
f 152 169 162
f 152 162 170
f 152 170 153
f 153 170 162
f 153 162 161
f 153 161 154
f 154 161 155
f 155 161 159
f 155 158 167
f 156 17 16
f 156 16 15
f 156 15 168
f 156 168 157
f 157 168 158
f 160 163 171
f 160 171 164
f 162 169 163
f 163 169 172
f 163 172 171
f 165 173 166
f 165 164 173
f 166 173 174
f 166 174 74
f 74 174 75
f 79 78 172
f 79 172 169
f 171 172 175
f 171 175 164
f 164 175 173
f 172 78 77
f 172 77 175
f 173 175 77
f 173 77 76
f 173 76 75
f 173 75 174

