# https://github.com/mikedh/trimesh
v 0.25550339 0.51045477 0.21848094
v 0.25550339 0.50267380 0.21848094
v 0.25550339 0.50246429 0.21847858
v 0.25550339 0.50626975 0.21212390
v 0.25550339 0.50981373 0.20843646
v 0.25550339 0.51045477 0.20866397
v 0.25549009 0.51045477 0.20803834
v 0.25237647 0.51045477 0.20637710
v 0.22836532 0.51045477 0.20637710
v 0.22959006 0.51045477 0.21848094
v 0.23353258 0.50590748 0.21848094
v 0.23553306 0.50480175 0.21848094
v 0.23739806 0.50382203 0.21848094
v 0.24135120 0.50299513 0.21848094
v 0.24191444 0.50288641 0.21848094
v 0.25180262 0.50206739 0.21848094
v 0.22850347 0.50987518 0.20637710
v 0.22985573 0.50579566 0.20637710
v 0.23040301 0.50418907 0.20637710
v 0.23068726 0.50352752 0.20637710
v 0.23076165 0.50388348 0.20762244
v 0.23256288 0.50080103 0.20762244
v 0.23505220 0.49848717 0.20995434
v 0.24191444 0.49436513 0.20637710
v 0.24522465 0.49499834 0.20637710
v 0.24669912 0.49561420 0.20637710
v 0.24943817 0.49741611 0.20637710
v 0.24958429 0.49754053 0.20637710
v 0.24191444 0.49762559 0.21114162
v 0.24029917 0.49439034 0.20637710
v 0.25079042 0.50063878 0.20637710
v 0.25195140 0.50535464 0.20637710
v 0.25242162 0.51044852 0.20637710
v 0.23862545 0.49481404 0.20637710
v 0.23453681 0.49792328 0.20637710
v 0.23303047 0.49993470 0.20637710
v 0.23232113 0.50089234 0.20637710
v 0.23463777 0.49803039 0.20762244
v 0.23737681 0.49797842 0.21065579
f 1 2 3
f 1 3 4
f 1 4 5
f 1 5 6
f 1 6 7
f 1 7 8
f 1 8 9
f 1 9 10
f 1 10 11
f 1 11 12
f 1 12 13
f 1 13 14
f 1 14 15
f 1 15 16
f 1 16 2
f 2 16 3
f 6 5 7
f 10 9 17
f 10 17 18
f 10 18 19
f 10 19 20
f 10 20 21
f 10 21 22
f 10 22 23
f 10 23 11
f 3 16 24
f 3 24 25
f 3 25 26
f 3 26 27
f 3 27 28
f 3 28 4
f 16 15 29
f 16 29 30
f 16 30 24
f 5 4 28
f 5 28 31
f 5 31 7
f 7 31 32
f 7 32 33
f 7 33 8
f 9 8 33
f 9 33 32
f 9 32 31
f 9 31 28
f 9 28 27
f 9 27 26
f 9 26 25
f 9 25 24
f 9 24 30
f 9 30 34
f 9 34 35
f 9 35 36
f 9 36 37
f 9 37 20
f 9 20 19
f 9 19 18
f 9 18 17
f 20 37 22
f 20 22 21
f 22 37 36
f 22 36 38
f 22 38 23
f 23 38 34
f 23 34 39
f 23 39 13
f 23 13 12
f 23 12 11
f 15 14 39
f 15 39 30
f 15 30 29
f 30 39 34
f 36 35 38
f 38 35 34
f 39 14 13

