# https://github.com/mikedh/trimesh
v 0.24867916 0.52367002 0.20413397
v 0.24867916 0.51045638 0.20413397
v 0.24867916 0.51045638 0.20102322
v 0.24867916 0.52367002 0.19574790
v 0.24375372 0.52367002 0.19234638
v 0.22451219 0.52367002 0.19234638
v 0.22419876 0.52367002 0.19419020
v 0.22327834 0.52367002 0.20408089
v 0.22741771 0.52367002 0.20413397
v 0.22326840 0.52365196 0.20413397
v 0.22772367 0.51045638 0.20413397
v 0.22758934 0.51045638 0.20366320
v 0.22743014 0.51045638 0.20306206
v 0.22686048 0.51045638 0.19854593
v 0.22689033 0.51045638 0.19400905
v 0.22706695 0.51045638 0.19272484
v 0.22711919 0.51045638 0.19234638
v 0.24614429 0.51045638 0.19234638
v 0.22620873 0.51267850 0.19234638
v 0.22593758 0.51351017 0.19234638
v 0.22550723 0.51494718 0.19234638
v 0.22481817 0.51764137 0.19234638
v 0.22453955 0.51895159 0.19234638
v 0.22447239 0.52182692 0.19234638
v 0.22448234 0.52348894 0.19234638
v 0.22435050 0.51895159 0.19400905
v 0.22544007 0.51470011 0.19400905
v 0.22615649 0.51287252 0.19854593
v 0.22611669 0.51243013 0.19400905
f 1 2 3
f 1 3 4
f 1 4 5
f 1 5 6
f 1 6 7
f 1 7 8
f 1 8 9
f 1 9 10
f 1 10 11
f 1 11 2
f 2 11 12
f 2 12 13
f 2 13 14
f 2 14 15
f 2 15 16
f 2 16 17
f 2 17 18
f 2 18 3
f 4 3 18
f 4 18 5
f 9 8 10
f 11 10 12
f 18 17 19
f 18 19 20
f 18 20 21
f 18 21 22
f 18 22 23
f 18 23 24
f 18 24 25
f 18 25 6
f 18 6 5
f 8 7 10
f 10 7 26
f 10 26 27
f 10 27 28
f 10 28 14
f 10 14 13
f 10 13 12
f 17 16 19
f 6 25 7
f 7 25 24
f 7 24 23
f 7 23 26
f 26 23 22
f 26 22 21
f 26 21 27
f 27 21 29
f 27 29 14
f 27 14 28
f 14 29 15
f 16 15 19
f 19 15 29
f 19 29 20
f 21 20 29

