# https://github.com/mikedh/trimesh
v 0.28279236 0.52367008 0.21214649
v 0.28273907 0.52367008 0.21232389
v 0.28233421 0.52367008 0.21271132
v 0.27832109 0.52367008 0.21640363
v 0.27806184 0.52367008 0.21653433
v 0.25111702 0.52367008 0.23004793
v 0.24651079 0.52367008 0.23235388
v 0.24651079 0.52367008 0.19585082
v 0.24654275 0.52367008 0.19483788
v 0.26513457 0.52367008 0.19391830
v 0.26891685 0.52367008 0.19388564
v 0.26914060 0.52367008 0.19393231
v 0.26991481 0.52367008 0.19427773
v 0.27326381 0.52367008 0.19600020
v 0.27676910 0.52367008 0.19942644
v 0.27997604 0.52367008 0.20396832
v 0.28133982 0.52367008 0.20620891
v 0.28165945 0.52367008 0.20690911
v 0.28091720 0.52802813 0.20457982
v 0.28074673 0.53066266 0.20477587
v 0.28074673 0.53066266 0.20584482
v 0.28128654 0.52657658 0.21086749
v 0.28079644 0.52439189 0.20489724
v 0.27626836 0.53257537 0.19573413
v 0.27770314 0.53257537 0.19853954
v 0.27842054 0.53257537 0.20336616
v 0.27840987 0.53257537 0.20342217
v 0.27821100 0.53147340 0.20680174
v 0.27941492 0.52531159 0.21389230
v 0.27821100 0.52972895 0.20906568
v 0.27468795 0.53257537 0.19346085
v 0.27241859 0.53257537 0.19025400
v 0.26912996 0.53257537 0.18715450
v 0.26486465 0.53257537 0.18484856
v 0.26475102 0.53257537 0.18482523
v 0.26025489 0.53257537 0.18467118
v 0.25961563 0.53257537 0.18474120
v 0.25645128 0.53257537 0.18533403
v 0.25554568 0.53257537 0.18554875
v 0.25098917 0.53257537 0.18683243
v 0.24651079 0.53257537 0.18818145
v 0.24651079 0.53257537 0.22170638
v 0.25527221 0.53257537 0.21731387
v 0.27391019 0.53257537 0.20796871
v 0.27407712 0.53257537 0.20788470
v 0.27440739 0.53257537 0.20768398
v 0.27802631 0.52723217 0.21229120
v 0.27565038 0.52701944 0.19669572
v 0.24919213 0.52595758 0.22827880
v 0.26460186 0.52462381 0.22214516
v 0.27262813 0.52425414 0.19497326
v 0.27181128 0.52929479 0.19120158
v 0.24651079 0.52651906 0.22895096
v 0.24651079 0.52466476 0.23116823
v 0.26990417 0.52626973 0.19194844
v 0.24651079 0.53255880 0.18800873
v 0.24651079 0.52375549 0.19473986
v 0.24651079 0.52371013 0.19478187
v 0.24651079 0.52367699 0.19481455
f 1 2 3
f 1 3 4
f 1 4 5
f 1 5 6
f 1 6 7
f 1 7 8
f 1 8 9
f 1 9 10
f 1 10 11
f 1 11 12
f 1 12 13
f 1 13 14
f 1 14 15
f 1 15 16
f 1 16 17
f 1 17 18
f 1 18 19
f 1 19 20
f 1 20 21
f 1 21 2
f 2 21 22
f 2 22 3
f 18 17 23
f 18 23 19
f 19 23 24
f 19 24 25
f 19 25 20
f 20 25 26
f 20 26 21
f 21 26 27
f 21 27 28
f 21 28 22
f 3 22 29
f 3 29 4
f 22 30 29
f 22 28 30
f 17 16 23
f 23 16 31
f 23 31 24
f 24 31 32
f 24 32 33
f 24 33 34
f 24 34 35
f 24 35 36
f 24 36 37
f 24 37 38
f 24 38 39
f 24 39 40
f 24 40 41
f 24 41 42
f 24 42 43
f 24 43 44
f 24 44 45
f 24 45 46
f 24 46 27
f 24 27 26
f 24 26 25
f 27 46 28
f 28 46 30
f 29 30 47
f 29 47 45
f 29 45 44
f 29 44 5
f 29 5 4
f 30 46 45
f 30 45 47
f 16 15 48
f 16 48 31
f 31 48 32
f 44 43 49
f 44 49 50
f 44 50 5
f 5 50 6
f 15 14 51
f 15 51 52
f 15 52 32
f 15 32 48
f 32 52 33
f 43 42 49
f 49 42 53
f 49 53 54
f 49 54 6
f 49 6 50
f 6 54 7
f 14 13 51
f 51 13 55
f 51 55 33
f 51 33 52
f 33 55 34
f 42 41 56
f 42 56 57
f 42 57 58
f 42 58 59
f 42 59 8
f 42 8 7
f 42 7 54
f 42 54 53
f 13 12 55
f 55 12 34
f 34 12 11
f 34 11 35
f 41 40 56
f 8 59 9
f 35 11 36
f 11 10 36
f 40 39 56
f 56 39 57
f 59 58 36
f 59 36 10
f 59 10 9
f 36 58 37
f 39 38 57
f 57 38 37
f 57 37 58

